<svg xmlns="http://www.w3.org/2000/svg" width="110" height="110" viewBox="0 0 110 110">
  <g id="img18" transform="translate(-704.668 -6155)">
    <path id="Path_925100" data-name="Path 925100" d="M12.222,0H97.778A12.222,12.222,0,0,1,110,12.222V97.778A12.222,12.222,0,0,1,97.778,110H12.222A12.222,12.222,0,0,1,0,97.778V12.222A12.222,12.222,0,0,1,12.222,0Z" transform="translate(704.668 6155)" fill="#f9dc5c"/>
    <g id="Group_1182012" data-name="Group 1182012" transform="translate(719.518 6167.471)">
      <path id="Path_990838" data-name="Path 990838" d="M62.676,70.815a7.122,7.122,0,0,0,7.173-7.085C69.849,48.6,59.6,35.971,45.964,33c-2.538,4.4-9.792,4.4-12.329,0C19.974,35.973,9.713,48.653,9.75,63.8a7.122,7.122,0,0,0,7.172,7.012H62.676Z" transform="translate(0.351 10.853)" fill="#e6f3ff"/>
      <path id="Path_990839" data-name="Path 990839" d="M52.565,55.609,48.513,70.464,18.8,63.712l-4.052-5.4,1.351-5.4,4.052-2.7h5.4L24.2,36.7,28.255,34l10.8,17.557Z" transform="translate(2.103 11.203)" fill="#4aa5ff"/>
      <path id="Path_990840" data-name="Path 990840" d="M21.036,19.291a3.776,3.776,0,0,1,.6.06A15.187,15.187,0,0,1,36.18,8.511c20.144.8,20.138,29.575,0,30.372A15.188,15.188,0,0,1,21.327,26.855c-5.195.28-5.5-7.4-.291-7.564Z" transform="translate(2.99 2.268)" fill="#e6f3ff"/>
      <path id="Path_990841" data-name="Path 990841" d="M36.528,40.565A16.616,16.616,0,0,1,20.61,28.508c-6-.986-5.661-9.718.415-10.224C27.718,1.189,52.74,5.6,53.065,24.029A16.555,16.555,0,0,1,36.528,40.565ZM21.677,25.836A1.35,1.35,0,0,1,23,26.906c3.875,16.085,26.929,13.7,27.367-2.878C50,8.094,28.187,4.949,23.275,20.07a1.48,1.48,0,0,1-1.891.9,2.439,2.439,0,1,0,.292,4.863Z" transform="translate(2.641 1.937)" fill="#12263f"/>
      <path id="Path_990842" data-name="Path 990842" d="M20.356,20.722S13.6,8.568,23.058,7.217s6.753,0,6.753,0S36.563.464,44.666,3.166s9.454,9.454,9.454,13.505a29.44,29.44,0,0,1-1.351,8.1s-17.557-1.351-20.258-8.1C32.511,16.671,27.109,23.424,20.356,20.722Z" transform="translate(3.249 0.171)" fill="#4aa5ff"/>
      <g id="Group_1182012-2" data-name="Group 1182012" transform="translate(8.75 2.04)">
        <path id="Path_990843" data-name="Path 990843" d="M63.027,72.516H17.273A8.464,8.464,0,0,1,8.75,64.157c0-15.5,10.492-28.977,24.948-32.127a1.356,1.356,0,0,1,1.434.607c2.062,3.559,7.974,3.554,10.035,0A1.353,1.353,0,0,1,46.6,32.03C61.058,35.18,71.55,48.659,71.55,64.08a8.48,8.48,0,0,1-8.523,8.436ZM33.411,34.872c-12.777,3.221-21.96,15.357-21.96,29.208a5.773,5.773,0,0,0,5.822,5.734H63.027a5.759,5.759,0,0,0,5.822-5.663c0-13.921-9.183-26.058-21.96-29.279-3.135,4.185-10.343,4.185-13.478,0Z" transform="translate(-8.75 8.463)" fill="#12263f"/>
        <path id="Path_990844" data-name="Path 990844" d="M12.424,37.983a1.349,1.349,0,0,1-1.125-.6,9.153,9.153,0,0,1-.528-9.261c3.914-7.013,14.5-4.481,13.934,3.631-.344,3.408-4.3,6.3-7.638,5.4a4.044,4.044,0,0,1,1.055-7.962,1.351,1.351,0,0,1-.07,2.7,1.443,1.443,0,0,0-1.362,1.161c-.028,1.953,2.437,1.834,3.689.888C23.42,32,21.894,27.5,18.642,26.791c-4.976-.941-7.929,5.1-5.1,9.092a1.359,1.359,0,0,1-1.123,2.1Z" transform="translate(-8.397 5.67)" fill="#12263f"/>
        <path id="Path_990845" data-name="Path 990845" d="M51.371,31.959a6.424,6.424,0,0,1-4.4-11.269,4.045,4.045,0,0,1,5.621,5.739,1.351,1.351,0,0,1-2.084-1.72,1.445,1.445,0,0,0-.076-1.787c-1.52-1.228-2.948.788-2.972,2.358a3.775,3.775,0,0,0,.98,2.858,4.432,4.432,0,0,0,5.716.174c3.8-3.383.9-9.348-4.022-9.615a1.351,1.351,0,0,1,.2-2.693,9.153,9.153,0,0,1,7.62,5.29c2.148,4.765-1.273,10.838-6.59,10.664Z" transform="translate(3.866 2.854)" fill="#12263f"/>
        <path id="Path_990846" data-name="Path 990846" d="M59.762,66.834,21.275,59.143a6.079,6.079,0,1,1,2.119-11.969L53.03,53.027a1.351,1.351,0,0,0,.529-2.649l-29.64-5.855a8.751,8.751,0,0,0-6.588,1.32c-6.456,4.173-4.386,14.54,3.185,15.9l30.613,6.047c-.057-.917,8.208-.16,8.633-.96Z" transform="translate(-7.092 12.794)" fill="#12263f"/>
        <path id="Path_990847" data-name="Path 990847" d="M37.435,52.526a4.607,4.607,0,0,1,3.808-.648A6.4,6.4,0,0,1,38.928,41.8,1.35,1.35,0,1,0,36.916,40a9.055,9.055,0,0,0,.519,12.529Z" transform="translate(0.328 11.108)" fill="#12263f"/>
        <path id="Path_990848" data-name="Path 990848" d="M23.8,62.553a1.351,1.351,0,0,1-1.327-1.109l-2.7-14.856a1.351,1.351,0,0,1,2.658-.483l2.7,14.856a1.355,1.355,0,0,1-1.33,1.592Z" transform="translate(-4.894 13.023)" fill="#12263f"/>
        <path id="Path_990849" data-name="Path 990849" d="M23.1,61.858a1.36,1.36,0,0,1-1.009-2.247L32.9,47.455a1.351,1.351,0,0,1,2.019,1.794L24.11,61.4a1.347,1.347,0,0,1-1.01.454Z" transform="translate(-4.193 13.719)" fill="#12263f"/>
        <path id="Path_990850" data-name="Path 990850" d="M33.8,64.553a1.351,1.351,0,0,1-1.327-1.109l-2.7-14.856a1.351,1.351,0,0,1,2.658-.483l2.7,14.856a1.355,1.355,0,0,1-1.33,1.592Z" transform="translate(-1.389 13.724)" fill="#12263f"/>
        <path id="Path_990851" data-name="Path 990851" d="M33.1,63.858a1.36,1.36,0,0,1-1.009-2.247L42.9,49.455a1.351,1.351,0,0,1,2.019,1.794L34.11,63.4a1.347,1.347,0,0,1-1.01.454Z" transform="translate(-0.688 14.42)" fill="#12263f"/>
        <path id="Path_990852" data-name="Path 990852" d="M37.259,54.609a1.351,1.351,0,0,1-1.138-.62L23.967,35.082a1.351,1.351,0,0,1,2.272-1.461L38.394,52.528a1.36,1.36,0,0,1-1.135,2.081Z" transform="translate(-3.495 8.812)" fill="#12263f"/>
        <path id="Path_990853" data-name="Path 990853" d="M24.8,51.2a1.35,1.35,0,0,1-1.323-1.085l-2.7-13.505a1.351,1.351,0,0,1,2.648-.53l2.7,13.505A1.354,1.354,0,0,1,24.8,51.2Z" transform="translate(-4.544 9.518)" fill="#12263f"/>
        <path id="Path_990854" data-name="Path 990854" d="M45.662,22.118a20.239,20.239,0,0,1-14.808-6.646,12.058,12.058,0,0,1-10.577,4.759,1.351,1.351,0,0,1,.273-2.688,9.181,9.181,0,0,0,8.936-4.993,1.359,1.359,0,0,1,2.31-.2c4.063,5.61,11.87,8.379,18.158,6.44a1.347,1.347,0,0,1,1.688.893c.648,2.439-4.434,2.305-5.98,2.44Z" transform="translate(-5.135 1.379)" fill="#12263f"/>
        <path id="Path_990855" data-name="Path 990855" d="M52.733,27.335a1.358,1.358,0,0,1-1.118-2.1,13.27,13.27,0,0,0-8.56-20.34,15.106,15.106,0,0,0-12.539,3.9,1.352,1.352,0,0,1-1.839-.04c-3.918-3.205-8.819,1.016-8.633,5.789A14.11,14.11,0,0,0,22.2,21.581a1.351,1.351,0,0,1-2.341,1.348,16.748,16.748,0,0,1-2.511-8.4C17.179,7.93,23.759,2.541,29.584,6.05c8.508-7.075,21.471-4.54,25.739,5.65a16.047,16.047,0,0,1-1.469,15.039,1.347,1.347,0,0,1-1.121.6Z" transform="translate(-5.739 -2.04)" fill="#12263f"/>
      </g>
    </g>
  </g>
</svg>
