<svg xmlns="http://www.w3.org/2000/svg" width="110" height="110" viewBox="0 0 110 110">
  <g id="img20" transform="translate(-704.668 -6155)">
    <path id="Path_925100" data-name="Path 925100" d="M12.222,0H97.778A12.222,12.222,0,0,1,110,12.222V97.778A12.222,12.222,0,0,1,97.778,110H12.222A12.222,12.222,0,0,1,0,97.778V12.222A12.222,12.222,0,0,1,12.222,0Z" transform="translate(704.668 6155)" fill="#bcc6f5"/>
    <g id="Group_1182081" data-name="Group 1182081" transform="translate(718.395 6158.932)">
      <g id="Group_1182052" data-name="Group 1182052" transform="translate(39.917 12.887)">
        <path id="Path_990894" data-name="Path 990894" d="M267.448,19.178a21.565,21.565,0,0,0-19.862,13.161,11.709,11.709,0,0,1,6.027,10.241v7.486a4.687,4.687,0,0,1,2.642,4.219v1.46a4.667,4.667,0,0,1-.939,2.815,21.559,21.559,0,1,0,12.132-39.381Z" transform="translate(-247.586 -19.178)" fill="#fe646f"/>
      </g>
      <path id="Path_990895" data-name="Path 990895" d="M348.947,19.178a21.656,21.656,0,0,0-4.2.41,21.548,21.548,0,0,1,12.392,7.38,16.019,16.019,0,0,1,0,27.539,21.547,21.547,0,0,1-12.392,7.38,21.56,21.56,0,1,0,4.2-42.708Z" transform="translate(-289.168 -6.291)" fill="#fd4755"/>
      <path id="Path_990896" data-name="Path 990896" d="M290.231,53.482a16.056,16.056,0,0,0-15.483,11.881,11.657,11.657,0,0,1,1.648,5.991v6.241a16.026,16.026,0,1,0,13.835-24.112Z" transform="translate(-230.452 -35.064)" fill="#dff6fd"/>
      <g id="Group_1182053" data-name="Group 1182053" transform="translate(56.444 18.418)">
        <path id="Path_990897" data-name="Path 990897" d="M361.021,160.214a16.087,16.087,0,0,1-10.923,8.362A16.032,16.032,0,0,0,369.461,152.9,17.832,17.832,0,0,1,361.021,160.214Z" transform="translate(-350.098 -136.87)" fill="#c8effe"/>
        <path id="Path_990898" data-name="Path 990898" d="M361.021,62.194a17.832,17.832,0,0,1,8.439,7.316A16.032,16.032,0,0,0,350.1,53.832,16.088,16.088,0,0,1,361.021,62.194Z" transform="translate(-350.098 -53.482)" fill="#c8effe"/>
      </g>
      <g id="Group_1182074" data-name="Group 1182074" transform="translate(1.209 24.575)">
        <g id="Group_1182054" data-name="Group 1182054" transform="translate(12.401 0)">
          <path id="Path_990899" data-name="Path 990899" d="M86.465,110.569h2.574v-2.4a4.141,4.141,0,0,1,4.136-4.136H108a4.141,4.141,0,0,1,4.136,4.136v2.4h2.574a4.5,4.5,0,0,1,2.046.491v-7.671a11.714,11.714,0,0,0-11.714-11.714H96.133a11.714,11.714,0,0,0-11.714,11.714v7.671A4.5,4.5,0,0,1,86.465,110.569Z" transform="translate(-84.419 -91.675)" fill="#ffe177"/>
        </g>
        <g id="Group_1182056" data-name="Group 1182056" transform="translate(30.683)">
          <g id="Group_1182055" data-name="Group 1182055">
            <path id="Path_990900" data-name="Path 990900" d="M200.149,91.674h-2.338a11.706,11.706,0,0,1,5.6,9.993v2.382a4.141,4.141,0,0,1,3.832,4.124v2.4h2.574a4.5,4.5,0,0,1,2.046.491v-7.671A11.714,11.714,0,0,0,200.149,91.674Z" transform="translate(-197.811 -91.674)" fill="#ffd15b"/>
          </g>
        </g>
        <g id="Group_1182058" data-name="Group 1182058" transform="translate(0 37.831)">
          <g id="Group_1182057" data-name="Group 1182057">
            <path id="Path_990901" data-name="Path 990901" d="M58.8,333.1l-17.739-6.776v3.085a5.065,5.065,0,0,1-4.845,5.1,5,5,0,0,1-5.147-4.994v-3.191L13.333,333.1A9.069,9.069,0,0,0,7.5,341.57v9.177a2.418,2.418,0,0,0,2.418,2.418h52.3a2.418,2.418,0,0,0,2.418-2.418V341.57A9.069,9.069,0,0,0,58.8,333.1Z" transform="translate(-7.5 -326.322)" fill="#6cf5c2"/>
          </g>
        </g>
        <g id="Group_1182060" data-name="Group 1182060" transform="translate(33.231 37.831)">
          <g id="Group_1182059" data-name="Group 1182059">
            <path id="Path_990902" data-name="Path 990902" d="M231.691,333.1l-17.739-6.776v3.085a5.156,5.156,0,0,1-.332,1.82l12.993,4.963a9.069,9.069,0,0,1,5.833,8.472v8.5h2.66a2.418,2.418,0,0,0,2.418-2.418V341.57A9.069,9.069,0,0,0,231.691,333.1Z" transform="translate(-213.619 -326.322)" fill="#00f2a6"/>
          </g>
        </g>
        <g id="Group_1182061" data-name="Group 1182061" transform="translate(23.408 37.084)">
          <path id="Path_990903" data-name="Path 990903" d="M161.823,321.781H153.88a7.593,7.593,0,0,1-1.188-.094v3.939a5.16,5.16,0,0,0,10.319,0v-3.939A7.6,7.6,0,0,1,161.823,321.781Z" transform="translate(-152.692 -321.687)" fill="#ffb09e"/>
        </g>
        <g id="Group_1182063" data-name="Group 1182063" transform="translate(26.013 37.084)">
          <g id="Group_1182062" data-name="Group 1182062">
            <path id="Path_990904" data-name="Path 990904" d="M175.375,321.782h-3.921v3.845a5.156,5.156,0,0,1-2.6,4.482,5.159,5.159,0,0,0,7.714-4.482v-3.939A7.621,7.621,0,0,1,175.375,321.782Z" transform="translate(-168.849 -321.688)" fill="#f89580"/>
          </g>
        </g>
        <g id="Group_1182066" data-name="Group 1182066" transform="translate(9.759 18.731)">
          <g id="Group_1182064" data-name="Group 1182064">
            <path id="Path_990905" data-name="Path 990905" d="M75.3,207.851H72.72a4.688,4.688,0,0,0-4.688,4.688V214a4.688,4.688,0,0,0,4.688,4.688H75.3Z" transform="translate(-68.032 -207.851)" fill="#ffb09e"/>
          </g>
          <g id="Group_1182065" data-name="Group 1182065" transform="translate(30.348)">
            <path id="Path_990906" data-name="Path 990906" d="M258.848,207.851h-2.582v10.835h2.582A4.688,4.688,0,0,0,263.536,214v-1.46A4.688,4.688,0,0,0,258.848,207.851Z" transform="translate(-256.266 -207.851)" fill="#f89580"/>
          </g>
        </g>
        <g id="Group_1182067" data-name="Group 1182067" transform="translate(16.857 12.199)">
          <path id="Path_990907" data-name="Path 990907" d="M127.739,192.48H119.8a7.739,7.739,0,0,1-7.739-7.739v-13.1a4.3,4.3,0,0,1,4.3-4.3h14.823a4.3,4.3,0,0,1,4.3,4.3v13.1A7.74,7.74,0,0,1,127.739,192.48Z" transform="translate(-112.056 -167.338)" fill="#ffcebf"/>
        </g>
        <g id="Group_1182068" data-name="Group 1182068" transform="translate(27.533 12.199)">
          <path id="Path_990908" data-name="Path 990908" d="M186.721,167.339h-5.007a4.3,4.3,0,0,1,4.3,4.3v13.1a7.739,7.739,0,0,1-7.739,7.739h5.007a7.739,7.739,0,0,0,7.739-7.739v-13.1A4.3,4.3,0,0,0,186.721,167.339Z" transform="translate(-178.274 -167.339)" fill="#ffb09e"/>
        </g>
        <g id="Group_1182073" data-name="Group 1182073" transform="translate(15.883 15.735)">
          <g id="Group_1182069" data-name="Group 1182069" transform="translate(0 0)">
            <path id="Path_990909" data-name="Path 990909" d="M113.871,198.441h-4.419A3.447,3.447,0,0,1,106.015,195v-2.291a3.447,3.447,0,0,1,3.437-3.437h4.419a3.447,3.447,0,0,1,3.437,3.437V195A3.447,3.447,0,0,1,113.871,198.441Z" transform="translate(-106.015 -189.275)" fill="#fff"/>
          </g>
          <g id="Group_1182070" data-name="Group 1182070" transform="translate(3.147)">
            <path id="Path_990910" data-name="Path 990910" d="M130.242,189.274h-4.419c-.1,0-.195.007-.291.015a3.447,3.447,0,0,1,3.147,3.422V195a3.447,3.447,0,0,1-3.147,3.422c.1.008.193.015.291.015h4.419A3.447,3.447,0,0,0,133.679,195v-2.291A3.447,3.447,0,0,0,130.242,189.274Z" transform="translate(-125.532 -189.274)" fill="#f3f0f3"/>
          </g>
          <g id="Group_1182071" data-name="Group 1182071" transform="translate(14.076 0)">
            <path id="Path_990911" data-name="Path 990911" d="M201.179,198.441H196.76A3.447,3.447,0,0,1,193.323,195v-2.291a3.447,3.447,0,0,1,3.437-3.437h4.419a3.447,3.447,0,0,1,3.437,3.437V195A3.447,3.447,0,0,1,201.179,198.441Z" transform="translate(-193.323 -189.275)" fill="#fff"/>
          </g>
          <g id="Group_1182072" data-name="Group 1182072" transform="translate(17.198 0)">
            <path id="Path_990912" data-name="Path 990912" d="M217.421,189.274H213c-.106,0-.211.006-.315.016a3.448,3.448,0,0,1,3.122,3.421V195a3.448,3.448,0,0,1-3.122,3.421c.1.01.209.016.315.016h4.419A3.447,3.447,0,0,0,220.858,195v-2.291A3.447,3.447,0,0,0,217.421,189.274Z" transform="translate(-212.686 -189.274)" fill="#f3f0f3"/>
          </g>
        </g>
      </g>
      <g id="Group_1182079" data-name="Group 1182079" transform="translate(43.751 25.596)">
        <g id="Group_1182075" data-name="Group 1182075" transform="translate(0 0)">
          <path id="Path_990913" data-name="Path 990913" d="M287.394,98.008a18.474,18.474,0,0,0-16.028,8.85,18.94,18.94,0,0,0,32.056,0A18.474,18.474,0,0,0,287.394,98.008Z" transform="translate(-271.366 -98.008)" fill="#fff"/>
        </g>
        <g id="Group_1182076" data-name="Group 1182076" transform="translate(7.179 0)">
          <circle id="Ellipse_13585" data-name="Ellipse 13585" cx="8.85" cy="8.85" r="8.85" fill="#685e68"/>
        </g>
        <path id="Path_990914" data-name="Path 990914" d="M357.5,98.008a8.845,8.845,0,0,0-2.553.375,8.865,8.865,0,0,1,6.037,6.343,4.086,4.086,0,0,1,0,4.262,8.866,8.866,0,0,1-6.037,6.343A8.85,8.85,0,1,0,357.5,98.008Z" transform="translate(-341.471 -98.008)" fill="#554e56"/>
        <g id="Group_1182077" data-name="Group 1182077" transform="translate(11.944 4.765)">
          <circle id="Ellipse_13586" data-name="Ellipse 13586" cx="4.084" cy="4.084" r="4.084" fill="#fff"/>
        </g>
        <g id="Group_1182078" data-name="Group 1182078" transform="translate(14.38 4.765)">
          <path id="Path_990915" data-name="Path 990915" d="M362.205,127.566a4.068,4.068,0,0,0-1.648.347,4.084,4.084,0,0,1,0,7.473,4.084,4.084,0,1,0,1.648-7.821Z" transform="translate(-360.557 -127.566)" fill="#f3f0f3"/>
        </g>
      </g>
      <g id="Group_1182080" data-name="Group 1182080" transform="translate(0 11.678)">
        <path id="Path_990916" data-name="Path 990916" d="M127.96,211.548h2.831a1.209,1.209,0,0,0,0-2.418H127.96a1.209,1.209,0,0,0,0,2.418Z" transform="translate(-106.316 -177.296)"/>
        <path id="Path_990917" data-name="Path 990917" d="M214.118,209.13h-2.831a1.209,1.209,0,0,0,0,2.418h2.831a1.209,1.209,0,1,0,0-2.418Z" transform="translate(-176.208 -177.296)"/>
        <path id="Path_990918" data-name="Path 990918" d="M160.7,272.439a4.467,4.467,0,0,1-6.311,0,1.209,1.209,0,0,0-1.71,1.71,6.889,6.889,0,0,0,9.731,0,1.209,1.209,0,0,0-1.71-1.71Z" transform="translate(-127.763 -230.101)"/>
        <path id="Path_990919" data-name="Path 990919" d="M59.779,11.678A22.73,22.73,0,0,0,39.337,24.42a12.841,12.841,0,0,0-5.107-1.054H25.324a12.852,12.852,0,0,0-7.291,2.254,1.209,1.209,0,0,0,1.366,2,10.444,10.444,0,0,1,5.925-1.831H34.23a10.515,10.515,0,0,1,9.63,6.322,18.05,18.05,0,0,0-1.153,1.728,1.214,1.214,0,0,0,0,1.225,18.159,18.159,0,0,0,2.026,2.8v4.3a5.915,5.915,0,0,0-.836-.06h-.531a4.645,4.645,0,0,0-.674-1.2,5.514,5.514,0,0,0-5.5-5.336H22.366a5.514,5.514,0,0,0-5.5,5.336,4.645,4.645,0,0,0-.674,1.2h-.531a5.913,5.913,0,0,0-.836.06V36.289A10.379,10.379,0,0,1,16.026,31.4a1.209,1.209,0,1,0-2.139-1.127A12.951,12.951,0,0,0,12.4,36.289v6.79a5.9,5.9,0,0,0-2.642,4.914v1.46a5.9,5.9,0,0,0,5.9,5.9h1.28a8.973,8.973,0,0,0,4.948,6.868L6.611,68.053A10.336,10.336,0,0,0,0,77.654v9.177a3.632,3.632,0,0,0,3.628,3.628H40.79a1.209,1.209,0,1,0,0-2.418H3.628a1.211,1.211,0,0,1-1.209-1.209V77.654a7.9,7.9,0,0,1,5.055-7.342l15.935-6.087V65.6a6.369,6.369,0,0,0,12.737,0V64.225l15.935,6.087a7.9,7.9,0,0,1,5.055,7.342v9.177a1.21,1.21,0,0,1-1.209,1.209H46.433a1.209,1.209,0,0,0,0,2.418h9.494a3.632,3.632,0,0,0,3.628-3.628V77.654a10.336,10.336,0,0,0-6.611-9.6L37.671,62.218a8.972,8.972,0,0,0,4.948-6.868H43.9a5.873,5.873,0,0,0,3.943-1.517A22.768,22.768,0,1,0,59.779,11.678ZM16.857,52.932h-1.2a3.482,3.482,0,0,1-3.478-3.478v-1.46a3.482,3.482,0,0,1,3.478-3.478h.227V46.04a4.622,4.622,0,0,0,.974,2.841Zm5.509-14.948H37.189a3.079,3.079,0,0,1,2.4,1.156,4.637,4.637,0,0,0-.567-.038H34.606a4.652,4.652,0,0,0-4.646,4.646v.428H29.6v-.428A4.652,4.652,0,0,0,24.949,39.1H20.529a4.637,4.637,0,0,0-.567.038A3.079,3.079,0,0,1,22.366,37.983ZM18.3,46.039V43.748a2.23,2.23,0,0,1,2.228-2.228h4.419a2.23,2.23,0,0,1,2.228,2.228v2.291a2.23,2.23,0,0,1-2.228,2.228H20.529A2.23,2.23,0,0,1,18.3,46.039ZM33.728,65.6a3.95,3.95,0,0,1-7.9,0V63.126h7.9V65.6Zm6.552-11.42a6.538,6.538,0,0,1-6.53,6.53H25.805a6.538,6.538,0,0,1-6.53-6.53V50.512a4.635,4.635,0,0,0,1.254.173h4.419a4.626,4.626,0,0,0,1.627-.295,1.687,1.687,0,0,0,.41.771l1.908,2.044a1.209,1.209,0,0,0,1.768-1.65l-1.478-1.584,1.37-1.664a4.649,4.649,0,0,0,4.052,2.377h4.419a4.633,4.633,0,0,0,1.254-.173v3.665Zm.974-8.138a2.23,2.23,0,0,1-2.228,2.228H34.606a2.23,2.23,0,0,1-2.228-2.228V43.748a2.23,2.23,0,0,1,2.228-2.228h4.419a2.23,2.23,0,0,1,2.228,2.228Zm6.124,3.414A3.482,3.482,0,0,1,43.9,52.932H42.7V48.881a4.622,4.622,0,0,0,.974-2.841V44.515H43.9a3.482,3.482,0,0,1,3.478,3.478Zm4.079-20.642a10.016,10.016,0,0,0,0,11.27,16.5,16.5,0,0,1-6.284-5.635A16.5,16.5,0,0,1,51.456,28.811ZM45.615,30.1a14.74,14.74,0,0,1,2.871-5.236l1.822,1.822A19.348,19.348,0,0,0,45.615,30.1Zm1.539,12.092V40.162A20.288,20.288,0,0,0,59.779,44.5a20.671,20.671,0,0,0,7.1-1.251l2.486,2.486a14.8,14.8,0,0,1-22.209-3.548Zm12.626-2.452a5.261,5.261,0,0,0,2.787-.8l1.689,1.689A7.634,7.634,0,0,1,53.593,29.97l1.689,1.689a5.29,5.29,0,0,0,4.5,8.08Zm0-10.587a5.26,5.26,0,0,0-2.787.8L55.3,28.26A7.634,7.634,0,0,1,65.965,38.922l-1.689-1.689a5.29,5.29,0,0,0-4.5-8.081Zm-.987,2.6a2.867,2.867,0,0,1,3.684,3.684Zm1.974,5.394a2.867,2.867,0,0,1-3.683-3.683ZM68.1,28.811a16.5,16.5,0,0,1,6.284,5.635A16.5,16.5,0,0,1,68.1,40.081a10.016,10.016,0,0,0,0-11.27Zm5.846,9.976a14.809,14.809,0,0,1-2.876,5.242L69.25,42.207a19.341,19.341,0,0,0,4.7-3.42ZM59.779,54.8a20.237,20.237,0,0,1-10.505-2.923,5.861,5.861,0,0,0,.522-2.42v-.978a17.229,17.229,0,1,0,6.573-30.925,1.209,1.209,0,0,0,.478,2.371A14.812,14.812,0,0,1,73.948,30.1a20.125,20.125,0,0,0-14.169-5.716,20.67,20.67,0,0,0-7.1,1.251L50.2,23.154a15.1,15.1,0,0,1,1.792-1.306,1.209,1.209,0,0,0-1.276-2.055,17.229,17.229,0,0,0-6.808,7.944,13.042,13.042,0,0,0-2.448-2.153A20.351,20.351,0,1,1,59.779,54.8Z" transform="translate(0 -11.678)"/>
      </g>
    </g>
  </g>
</svg>
