<svg xmlns="http://www.w3.org/2000/svg" width="120" height="120" viewBox="0 0 120 120">
  <g id="img34" transform="translate(-388.711 -10669)">
    <rect id="Rectangle_402033" data-name="Rectangle 402033" width="120" height="120" rx="10" transform="translate(388.711 10669)" fill="#2142dc"/>
    <rect id="Rectangle_454167" data-name="Rectangle 454167" width="100" height="100" rx="10" transform="translate(398.711 10679)" fill="#bcc6f5"/>
    <g id="Group_1182136" data-name="Group 1182136" transform="translate(416.711 10697)">
      <path id="Path_990987" data-name="Path 990987" d="M5.951,45.573A5.267,5.267,0,0,1,5.1,39.622a5.255,5.255,0,0,0,.458-3.4L2.645,28.45A10.175,10.175,0,0,1,2,24.861v-.05a10.164,10.164,0,0,1,.472-3.023l2.84-8.977A14.177,14.177,0,0,1,19.109,2h3.782a14.177,14.177,0,0,1,13.8,10.811l2.84,8.977A10.164,10.164,0,0,1,40,24.811v.05a10.154,10.154,0,0,1-.646,3.589L36.44,36.222a5.255,5.255,0,0,0,.458,3.4,5.25,5.25,0,0,1,.562,2.351V50H7.62Z" fill="#393a3a"/>
      <path id="Path_990988" data-name="Path 990988" d="M38.891,62H6a2,2,0,0,1-2-2V50a6,6,0,0,1,4.235-5.735L16,42H26l7.765,2.265c.09.028,7.288,1.953,7.376,1.985Z" fill="#d5d6d8"/>
      <path id="Path_990989" data-name="Path 990989" d="M26,42H16l-1.623.473V54.716a4.741,4.741,0,0,0,4.741,4.741H39.255L41.141,46.25c-.088-.032-7.286-1.957-7.376-1.985Z" fill="#f1f1f3" opacity="0.5"/>
      <path id="Path_990990" data-name="Path 990990" d="M16,36.8V42c0,1.657,2.239,3,5,3s5-1.343,5-3V36.8Z" fill="#f4c8ad"/>
      <path id="Path_990991" data-name="Path 990991" d="M10,21a4,4,0,0,0,0,8H32a4,4,0,0,0,0-8Z" fill="#f2b9a1"/>
      <path id="Path_990992" data-name="Path 990992" d="M26,36.8H16v1.98A11.053,11.053,0,0,0,21.054,40h.276A10.616,10.616,0,0,0,26,38.913Z" fill="#f2b9a1"/>
      <path id="Path_990993" data-name="Path 990993" d="M32,20v7.33A10.67,10.67,0,0,1,21.33,38h-.276A11.012,11.012,0,0,1,10,27V20a2,2,0,0,1,2-2h9.343a4,4,0,0,0,2.829-1.172L27,14v2a2,2,0,0,0,2,2h1a2,2,0,0,1,2,2Z" fill="#f4c8ad"/>
      <path id="Path_990994" data-name="Path 990994" d="M10,55h2v7H10Z" fill="#a0a1a2"/>
      <path id="Path_990995" data-name="Path 990995" d="M60,47H55.961a2,2,0,0,1-1.561-.751A11.326,11.326,0,0,0,45.558,42H36a2,2,0,0,0,0,4H29a2,2,0,0,0,0,4H27a2,2,0,0,0,0,4h2a2,2,0,0,0,0,4h6a2,2,0,0,0,0,4H47.586a8.241,8.241,0,0,0,5.828-2.414A2,2,0,0,1,54.828,59H60a2,2,0,0,0,2-2V49A2,2,0,0,0,60,47Z" fill="#f4c8ad"/>
      <path id="Path_990996" data-name="Path 990996" d="M32,20a2,2,0,0,0-2-2H29a2,2,0,0,1-2-2V14l-2.828,2.828A4,4,0,0,1,21.343,18H13v8A11.012,11.012,0,0,0,24.054,37h.276a10.724,10.724,0,0,0,1.84-.169A10.662,10.662,0,0,0,32,27.33Z" fill="#fbdac2"/>
      <path id="Path_990997" data-name="Path 990997" d="M17.242,18.97l-.484-1.94L17,18l-.245-.97C16.787,17.022,20,16.176,20,14V13h2v1C22,17.738,17.437,18.921,17.242,18.97Z" fill="#2b2c2c"/>
      <path id="Path_990998" data-name="Path 990998" d="M12.242,18.97l-.484-1.94L12,18l-.245-.97C11.787,17.022,15,16.176,15,14V13h2v1c0,3.738-4.563,4.921-4.758,4.97Z" fill="#2b2c2c"/>
      <g id="Group_1182135" data-name="Group 1182135">
        <path id="Path_990999" data-name="Path 990999" d="M29,50H41V48H27A2,2,0,0,0,29,50Z" fill="#f2b9a1"/>
        <path id="Path_991000" data-name="Path 991000" d="M36,46h7V44H34A2,2,0,0,0,36,46Z" fill="#f2b9a1"/>
        <path id="Path_991001" data-name="Path 991001" d="M27,54H41V52H25A2,2,0,0,0,27,54Z" fill="#f2b9a1"/>
        <path id="Path_991002" data-name="Path 991002" d="M29,58H43V56H27A2,2,0,0,0,29,58Z" fill="#f2b9a1"/>
        <path id="Path_991003" data-name="Path 991003" d="M33,60a2,2,0,0,0,2,2H47.586a8.237,8.237,0,0,0,5.371-2Z" fill="#f2b9a1"/>
      </g>
      <path id="Path_991004" data-name="Path 991004" d="M25,33H23a2,2,0,0,0-4,0H17a4,4,0,0,1,8,0Z" fill="#d16b5d"/>
      <path id="Path_991005" data-name="Path 991005" d="M16,25a3,3,0,0,1-3-3h2a1,1,0,0,0,2,0h2a3,3,0,0,1-3,3Z" fill="#393a3a"/>
      <path id="Path_991006" data-name="Path 991006" d="M26,25a3,3,0,0,1-3-3h2a1,1,0,0,0,2,0h2a3,3,0,0,1-3,3Z" fill="#393a3a"/>
      <path id="Path_991007" data-name="Path 991007" d="M17,33h2a2,2,0,0,1,4,0h2a4,4,0,0,0-8,0Z"/>
      <path id="Path_991008" data-name="Path 991008" d="M60,46H55.961a.992.992,0,0,1-.78-.376A12.267,12.267,0,0,0,45.559,41H38.373a6.222,6.222,0,0,0-.582-1.827,4.289,4.289,0,0,1-.386-2.68L40.291,28.8a11.261,11.261,0,0,0,.189-7.316l-2.821-8.91A15.13,15.13,0,0,0,22.892,1H19.108A15.106,15.106,0,0,0,4.359,12.51L1.52,21.486A11.264,11.264,0,0,0,1.709,28.8L4.6,36.493a4.289,4.289,0,0,1-.386,2.68,6.3,6.3,0,0,0,.428,6.347A6.96,6.96,0,0,0,3,50V60a3,3,0,0,0,3,3H47.586a9.178,9.178,0,0,0,6.535-2.707A1,1,0,0,1,54.828,60H60a3,3,0,0,0,3-3V49A3,3,0,0,0,60,46ZM3.582,28.1a9.262,9.262,0,0,1-.156-6.009l2.858-9.043A13.136,13.136,0,0,1,19.108,3h3.784A13.16,13.16,0,0,1,35.734,13.113l2.84,8.977a9.265,9.265,0,0,1-.156,6.009L35.5,35.87a1.113,1.113,0,0,0-.044.154A6.3,6.3,0,0,0,36,40.071a4.253,4.253,0,0,1,.34.929H36a2.994,2.994,0,0,0-2.831,2.05L27,41.25V37.521a11.7,11.7,0,0,0,5.7-7.592A4.987,4.987,0,0,0,33,20.1V20a3,3,0,0,0-3-3H29a1,1,0,0,1-1-1V14a1,1,0,0,0-1.707-.707l-2.828,2.828A2.98,2.98,0,0,1,21.343,17h-.6A4.207,4.207,0,0,0,22,14V13H20v1c0,1.959-2.6,2.838-3.14,3H15.742A4.207,4.207,0,0,0,17,14V13H15v1c0,2.071-2.906,2.936-3.213,3.021A2.993,2.993,0,0,0,9,20v.1a4.986,4.986,0,0,0,.38,9.836A12.035,12.035,0,0,0,15,37.36v3.89L7.941,43.31a7.014,7.014,0,0,0-1.787.855A4.278,4.278,0,0,1,6,40.071a6.3,6.3,0,0,0,.545-4.047A1.113,1.113,0,0,0,6.5,35.87ZM12,19h9.343a4.969,4.969,0,0,0,3.536-1.465l1.146-1.146A3.006,3.006,0,0,0,29,19h1a1,1,0,0,1,1,1v7.33A9.681,9.681,0,0,1,21.33,37h-.276A10.038,10.038,0,0,1,11,27V20a1,1,0,0,1,1-1Zm5,19.287A12.027,12.027,0,0,0,21.054,39h.276A11.613,11.613,0,0,0,25,38.4V42c0,.944-1.711,2-4,2s-4-1.056-4-2ZM33,27.33V22.184a2.981,2.981,0,0,1-.025,5.639C32.982,27.659,33,27.5,33,27.33Zm-23.958.5A2.982,2.982,0,0,1,9,22.184V27c0,.28.023.554.042.829ZM5,60V50a4.969,4.969,0,0,1,3.516-4.774l6.775-1.977C16.061,44.862,18.293,46,21,46s4.939-1.138,5.709-2.751l6,1.751H29a2.99,2.99,0,0,0-2.78,4.116,2.983,2.983,0,0,0,0,5.768A2.99,2.99,0,0,0,29,59h3.184a2.809,2.809,0,0,0,0,2H12V55H10v6H6a1,1,0,0,1-1-1Zm56-3a1,1,0,0,1-1,1H54.828a2.978,2.978,0,0,0-2.121.879A7.193,7.193,0,0,1,47.586,61H35a1,1,0,0,1,0-2h8V57H29a1,1,0,0,1,0-2H41V53H27a1,1,0,0,1,0-2H41V49H29a1,1,0,0,1,0-2H44V45H36a1,1,0,0,1,0-2h9.559a10.273,10.273,0,0,1,8.06,3.874A2.983,2.983,0,0,0,55.961,48H60a1,1,0,0,1,1,1Z"/>
      <path id="Path_991009" data-name="Path 991009" d="M16,25a3,3,0,0,0,3-3H17a1,1,0,0,1-2,0H13a3,3,0,0,0,3,3Z"/>
      <path id="Path_991010" data-name="Path 991010" d="M26,25a3,3,0,0,0,3-3H27a1,1,0,0,1-2,0H23a3,3,0,0,0,3,3Z"/>
    </g>
  </g>
</svg>
