<svg xmlns="http://www.w3.org/2000/svg" width="70" height="70" viewBox="0 0 70 70">
  <g id="img58" transform="translate(-764.711 -18335)">
    <circle id="Ellipse_13556" data-name="Ellipse 13556" cx="35" cy="35" r="35" transform="translate(764.711 18335)" fill="#e5eaff"/>
    <g id="Group_1177074" data-name="Group 1177074" transform="translate(779.711 18350)">
      <g id="Group_1177075" data-name="Group 1177075" transform="translate(7.868 13.393)">
        <g id="Group_1177074-2" data-name="Group 1177074">
          <path id="Path_988882" data-name="Path 988882" d="M102.038,171.649a.781.781,0,1,0,0,1.1A.782.782,0,0,0,102.038,171.649Z" transform="translate(-100.705 -171.42)" fill="#2142dc"/>
        </g>
      </g>
      <g id="Group_1177077" data-name="Group 1177077" transform="translate(0 30.625)">
        <g id="Group_1177076" data-name="Group 1177076">
          <path id="Path_988883" data-name="Path 988883" d="M19.781,396.341a2.735,2.735,0,0,0-2.2-4.354H4.3a2.732,2.732,0,0,0-2.2,4.353A3.909,3.909,0,0,0,0,399.8v.781a.781.781,0,0,0,.781.781H21.093a.781.781,0,0,0,.781-.781V399.8A3.909,3.909,0,0,0,19.781,396.341ZM3.468,393.892a1.164,1.164,0,0,1,.829-.343H17.578a1.172,1.172,0,1,1,0,2.344H4.3a1.172,1.172,0,0,1-.829-2ZM1.562,399.8a2.346,2.346,0,0,1,2.344-2.344H17.968a2.346,2.346,0,0,1,2.344,2.344Z" transform="translate(0 -391.987)" fill="#2142dc"/>
        </g>
      </g>
      <g id="Group_1177079" data-name="Group 1177079" transform="translate(0.002 0.001)">
        <g id="Group_1177078" data-name="Group 1177078" transform="translate(0 0)">
          <path id="Path_988884" data-name="Path 988884" d="M39.292,32.823a4.919,4.919,0,0,0-.941-1.081L34.7,28.559a.775.775,0,0,0-.311-.271l-2.208-1.925L21.964,17.449a2.339,2.339,0,0,0-.686-3.731l.945-.945a3.127,3.127,0,0,0,3.017-.808,3.124,3.124,0,0,0,0-4.42L18.612.917a3.124,3.124,0,0,0-5.227,3.017L3.953,13.365a3.144,3.144,0,0,0-.809-.106A3.125,3.125,0,0,0,.935,18.593l6.629,6.629a3.124,3.124,0,0,0,5.227-3.017l.943-.943a2.344,2.344,0,0,0,3.733.685l10.883,12.5a.785.785,0,0,0,.106.132c.014.014.029.027.044.039l3.243,3.726c.081.1.167.189.256.278A4.647,4.647,0,0,0,35.3,40a4.8,4.8,0,0,0,.658-.045,4.727,4.727,0,0,0,3.488-2.415A4.623,4.623,0,0,0,39.292,32.823Zm-24-30.8a1.562,1.562,0,0,1,2.21,0L24.136,8.65a1.562,1.562,0,0,1-2.209,2.21L15.3,4.231h0A1.564,1.564,0,0,1,15.3,2.021Zm-4.419,22.1a1.564,1.564,0,0,1-2.21,0L2.04,17.489a1.562,1.562,0,0,1,2.209-2.21l6.63,6.63A1.564,1.564,0,0,1,10.878,24.117Zm3.289-5.5L11.983,20.8,5.354,14.174l8.839-8.839,6.629,6.629-2.188,2.189-.022.021-4.417,4.417Zm2.79,1.63,0,0-.55.55a.781.781,0,0,1-1.115-1.1l4.438-4.438a.781.781,0,0,1,1.325.561.774.774,0,0,1-.229.552l-.547.547-.011.011Zm1.618.592,2.283-2.283,9.667,8.432L27,30.517ZM28.026,31.7l3.68-3.68,1.18,1.029L29.054,32.88Zm10.057,5.079a3.178,3.178,0,0,1-2.339,1.63,3.1,3.1,0,0,1-2.641-.885c-.06-.06-.118-.123-.171-.186l-.008-.009-2.842-3.266,3.984-3.984,3.262,2.845.007.006a3.363,3.363,0,0,1,.645.742A3.085,3.085,0,0,1,38.083,36.777Z" transform="translate(-0.021 -0.001)" fill="#2142dc"/>
        </g>
      </g>
      <g id="Group_1177081" data-name="Group 1177081" transform="translate(10.077 7.869)">
        <g id="Group_1177080" data-name="Group 1177080">
          <path id="Path_988885" data-name="Path 988885" d="M133.634,100.936a.781.781,0,0,0-1.1,0l-3.315,3.315a.781.781,0,0,0,1.1,1.1l3.315-3.315A.781.781,0,0,0,133.634,100.936Z" transform="translate(-128.985 -100.707)" fill="#2142dc"/>
        </g>
      </g>
    </g>
  </g>
</svg>
