<svg xmlns="http://www.w3.org/2000/svg" xmlns:xlink="http://www.w3.org/1999/xlink" width="295" height="220" viewBox="0 0 295 220">
  <defs>
    <clipPath id="clip-path">
      <rect id="Rectangle_454686" data-name="Rectangle 454686" width="265.802" height="172.368" fill="none"/>
    </clipPath>
    <clipPath id="clip-path-4">
      <rect id="Rectangle_454672" data-name="Rectangle 454672" width="8.245" height="35.595" fill="none"/>
    </clipPath>
    <clipPath id="clip-path-5">
      <rect id="Rectangle_454673" data-name="Rectangle 454673" width="7.766" height="4.139" fill="none"/>
    </clipPath>
    <clipPath id="clip-path-6">
      <rect id="Rectangle_454674" data-name="Rectangle 454674" width="4.185" height="7.892" fill="none"/>
    </clipPath>
    <clipPath id="clip-path-7">
      <rect id="Rectangle_454675" data-name="Rectangle 454675" width="7.175" height="3.039" fill="none"/>
    </clipPath>
    <clipPath id="clip-path-8">
      <rect id="Rectangle_454676" data-name="Rectangle 454676" width="9.851" height="24.757" fill="none"/>
    </clipPath>
    <clipPath id="clip-path-9">
      <rect id="Rectangle_454677" data-name="Rectangle 454677" width="7.373" height="5.989" fill="none"/>
    </clipPath>
    <clipPath id="clip-path-10">
      <rect id="Rectangle_454678" data-name="Rectangle 454678" width="2.587" height="6.398" fill="none"/>
    </clipPath>
    <clipPath id="clip-path-11">
      <rect id="Rectangle_454679" data-name="Rectangle 454679" width="7.724" height="24.701" fill="none"/>
    </clipPath>
    <clipPath id="clip-path-12">
      <rect id="Rectangle_454680" data-name="Rectangle 454680" width="9.398" height="0.365" fill="none"/>
    </clipPath>
    <clipPath id="clip-path-13">
      <rect id="Rectangle_454681" data-name="Rectangle 454681" width="5.443" height="4.301" fill="none"/>
    </clipPath>
    <clipPath id="clip-path-14">
      <rect id="Rectangle_454682" data-name="Rectangle 454682" width="27.042" height="40.215" fill="none"/>
    </clipPath>
    <clipPath id="clip-path-15">
      <rect id="Rectangle_454683" data-name="Rectangle 454683" width="5.575" height="3.244" fill="none"/>
    </clipPath>
    <clipPath id="clip-path-16">
      <rect id="Rectangle_454684" data-name="Rectangle 454684" width="2.519" height="5.99" fill="none"/>
    </clipPath>
  </defs>
  <g id="img66" transform="translate(-179.711 -21026)">
    <path id="Path_991368" data-name="Path 991368" d="M0,0H295V220H0Z" transform="translate(179.711 21026)" fill="#a8b8ff"/>
    <g id="Group_1182207" data-name="Group 1182207" transform="translate(194.311 21050.316)">
      <g id="Group_1182250" data-name="Group 1182250" clip-path="url(#clip-path)">
        <g id="Group_1182208" data-name="Group 1182208">
          <g id="Group_1182207-2" data-name="Group 1182207" clip-path="url(#clip-path)">
            <path id="Path_991188" data-name="Path 991188" d="M262.725,33.887C258.892,21.3,250.711,9.5,238.762,3.983,231.166.474,222.553-.307,214.2.254a81.775,81.775,0,0,0-34.282,10.175c-7.2,4.028-13.829,9.167-21.493,12.229a44.349,44.349,0,0,1-30.15.89C109.88,17.43,95.3-.748,75.923.025,65.808.427,56.482,6.312,50.012,14.1s-10.424,17.341-13.58,26.96c-1.617,4.93-3.125,10.061-6.405,14.081-5.218,6.394-13.195,8.653-19.508,13.38A23.426,23.426,0,0,0,5.067,74.1C.822,80.338.091,87.372,0,94.707c-.127,10.609,3.83,20.559,8.595,29.848,5.884,11.472,11.823,21.146,19.565,28.112H234.219a16.258,16.258,0,0,0,1.483-2.818q6.6-14.92,12.959-29.945c11.57-27.335,22.708-57.621,14.063-86.017" transform="translate(0 0)" fill="#e5eaff"/>
          </g>
        </g>
        <g id="Group_1182249" data-name="Group 1182249">
          <g id="Group_1182248" data-name="Group 1182248" clip-path="url(#clip-path)">
            <path id="Path_991189" data-name="Path 991189" d="M523.412,282.9s3.223,25.5,3.293,26.342-1.472,2.8-2.522,4.063,1.121,1.261,3.013.841a5.12,5.12,0,0,0,2.942-2.172,6.4,6.4,0,0,1-2.1-3.083c-.28-1.611-2.662-26.272-2.662-26.272Z" transform="translate(-293.422 -158.435)" fill="#7c8293"/>
            <path id="Path_991190" data-name="Path 991190" d="M511.932,272.013s.5,3.413,3.433,4.694a5.111,5.111,0,0,0,4.888-.528c1.8-1.276,1.948-3.322,1.627-5.356Z" transform="translate(-286.986 -151.821)" fill="#414962"/>
            <path id="Path_991191" data-name="Path 991191" d="M471.515,267.523s2.522,17.024,3.468,23.539,1.471,11.664,1.471,11.664,2.207,2.032,3.153,1.822,1.471-1.822,1.471-1.822-.21-32.682,0-34.363-2.312-2.837-4.834-2.732a9.237,9.237,0,0,0-4.729,1.892" transform="translate(-264.329 -148.908)" fill="#a65b44"/>
            <path id="Path_991192" data-name="Path 991192" d="M485.128,337.043a5.539,5.539,0,0,1-3.822-.143c.415,3.311.637,5.487.637,5.487s2.207,2.031,3.152,1.821,1.471-1.821,1.471-1.821-.015-2.44-.034-6.017a6.249,6.249,0,0,1-1.405.674" transform="translate(-269.817 -188.567)" fill="#fff0c5"/>
            <path id="Path_991193" data-name="Path 991193" d="M469.182,348.027s2.031-1.962,3.572-.911,1.051,2.172,1.051,2.172,1.962-1.191,2.452-1.471.561,1.331.771,2.942-4.764,2.872-6.515,3.363a19.09,19.09,0,0,1-6.025,1.051c-1.474-.105-2.872-1.682-2.1-2.732s6.8-4.414,6.8-4.414" transform="translate(-259.088 -194.418)" fill="#46579c"/>
            <path id="Path_991194" data-name="Path 991194" d="M471.749,351.63a2.748,2.748,0,0,1,2.149.465,5.151,5.151,0,0,1,.845.718,3.878,3.878,0,0,0,.761.777.106.106,0,0,0,.158-.091,1.928,1.928,0,0,0-.607-1,4.626,4.626,0,0,0-.986-.817,2.957,2.957,0,0,0-2.41-.38.169.169,0,0,0,.09.325" transform="translate(-264.342 -196.877)" fill="#bbc1da"/>
            <path id="Path_991195" data-name="Path 991195" d="M475.254,349.033a3.643,3.643,0,0,1,2.257.746,4.063,4.063,0,0,1,.846.844c.236.316.371.7.616,1,.054.068.149,0,.156-.065a2.037,2.037,0,0,0-.463-1.214,3.885,3.885,0,0,0-.934-.946,3.46,3.46,0,0,0-2.513-.63c-.148.021-.112.266.036.261" transform="translate(-266.352 -195.501)" fill="#bbc1da"/>
            <path id="Path_991196" data-name="Path 991196" d="M481,346.143a11.956,11.956,0,0,0-.658-1.272,2.5,2.5,0,0,1-.461-1.46l-.176.072a3.176,3.176,0,0,1,1.116,1.313,3.329,3.329,0,0,1,.3.87,2.316,2.316,0,0,1,.039.42,1.272,1.272,0,0,1-.031.406l.229.063a2.238,2.238,0,0,1,1.152-1.084c.433-.225,1.039-.425,1.453-.064a.563.563,0,0,1,.137.155c.021.04.013.063.018.053a.541.541,0,0,1-.283.191,4.783,4.783,0,0,1-1.2.239c-.221.024-.443.038-.663.063a1.53,1.53,0,0,0-.274.046.733.733,0,0,0-.1.038c-.048.023-.12.022-.016.015-.142.009-.143.231,0,.222-.071,0,.012.009.041.017a1.052,1.052,0,0,0,.117.023,1.6,1.6,0,0,0,.29.008c.239-.007.479-.038.716-.069a3.868,3.868,0,0,0,1.4-.355.492.492,0,0,0,.108-.848,1.444,1.444,0,0,0-1.632-.142,2.5,2.5,0,0,0-1.495,1.427.119.119,0,0,0,.229.063,1.944,1.944,0,0,0,.109-.42,2.1,2.1,0,0,0-.027-.474,3.569,3.569,0,0,0-.331-1,2.7,2.7,0,0,0-1.307-1.4.12.12,0,0,0-.152.116,3.721,3.721,0,0,0,.349,1.459c.225.485.536.924.766,1.406.063.132.3.037.24-.1" transform="translate(-268.884 -192.428)" fill="#bbc1da"/>
            <path id="Path_991197" data-name="Path 991197" d="M514.04,348.185s1.641-2.3,3.347-1.546,1.429,1.944,1.429,1.944,1.712-1.528,2.143-1.893.794,1.207,1.294,2.753-4.162,3.692-5.794,4.493a19.1,19.1,0,0,1-5.733,2.13c-1.469.165-3.131-1.131-2.564-2.3s5.878-5.577,5.878-5.577" transform="translate(-284.809 -194.239)" fill="#46579c"/>
            <path id="Path_991198" data-name="Path 991198" d="M515.839,353.257a2.748,2.748,0,0,1,2.2.066,5.109,5.109,0,0,1,.962.552,3.891,3.891,0,0,0,.889.625c.07.023.162-.038.139-.118a1.929,1.929,0,0,0-.779-.87,4.622,4.622,0,0,0-1.118-.624,2.957,2.957,0,0,0-2.439.065.169.169,0,0,0,.147.3" transform="translate(-289.042 -197.698)" fill="#bbc1da"/>
            <path id="Path_991199" data-name="Path 991199" d="M518.788,350.125a3.64,3.64,0,0,1,2.355.323,4.056,4.056,0,0,1,.985.675c.29.267.492.62.788.875.066.057.148-.022.141-.092a2.038,2.038,0,0,0-.676-1.11,3.883,3.883,0,0,0-1.091-.76,3.457,3.457,0,0,0-2.585-.163c-.143.047-.062.283.082.25" transform="translate(-290.741 -196.039)" fill="#bbc1da"/>
            <path id="Path_991200" data-name="Path 991200" d="M523.9,346.414a12,12,0,0,0-.879-1.131,2.506,2.506,0,0,1-.719-1.352l-.16.1a3.177,3.177,0,0,1,1.336,1.088,3.363,3.363,0,0,1,.449.8,2.331,2.331,0,0,1,.115.406,1.286,1.286,0,0,1,.043.4l.236.02a2.24,2.24,0,0,1,.935-1.275c.384-.3.943-.607,1.417-.327a.557.557,0,0,1,.163.127c.028.036.024.06.028.048-.027.092-.143.178-.244.24a4.787,4.787,0,0,1-1.139.454c-.213.063-.428.118-.64.182a1.537,1.537,0,0,0-.261.095.729.729,0,0,0-.091.055c-.044.032-.115.044-.013.018-.138.035-.1.253.04.218-.069.017.014.007.044.009a.975.975,0,0,0,.119,0,1.635,1.635,0,0,0,.287-.044c.234-.051.464-.125.691-.2a3.86,3.86,0,0,0,1.316-.6.492.492,0,0,0-.048-.853,1.443,1.443,0,0,0-1.631.157,2.5,2.5,0,0,0-1.21,1.675.118.118,0,0,0,.236.02,1.949,1.949,0,0,0,.031-.432,2.1,2.1,0,0,0-.113-.461,3.575,3.575,0,0,0-.507-.92,2.7,2.7,0,0,0-1.54-1.139.121.121,0,0,0-.128.142,3.717,3.717,0,0,0,.609,1.371c.31.436.695.811,1.009,1.243.086.118.3-.018.217-.143" transform="translate(-292.665 -192.733)" fill="#bbc1da"/>
            <path id="Path_991201" data-name="Path 991201" d="M473.052,189.509s-1.682,14.712-2.522,22.979a121.716,121.716,0,0,0-.7,13.871s1.716,1.016,6.621,1.016,5.464-.421,5.464-.421,3.188-17.269,4.589-22.734,1.821-14.432,1.821-14.432Z" transform="translate(-263.379 -106.238)" fill="#46579c"/>
            <g id="Group_1182211" data-name="Group 1182211" transform="translate(216.537 85.443)" style="mix-blend-mode: multiply;isolation: isolate">
              <g id="Group_1182210" data-name="Group 1182210">
                <g id="Group_1182209" data-name="Group 1182209" clip-path="url(#clip-path-4)">
                  <path id="Path_991202" data-name="Path 991202" d="M494.794,229.725s3.187-17.269,4.589-22.734a77.6,77.6,0,0,0,1.658-11.867l-5.791-.674c-.07.35.21,11.28.421,14.782.178,2.966-2.155,16.679-2.875,20.812a5.35,5.35,0,0,0,2-.321" transform="translate(-492.795 -194.451)" fill="#c6c8d0"/>
                </g>
              </g>
            </g>
            <path id="Path_991203" data-name="Path 991203" d="M468.138,267.075a37.485,37.485,0,0,0,13.556.841l-.42,3.258a33.062,33.062,0,0,1-7.461.315,18.461,18.461,0,0,1-5.885-1.261Z" transform="translate(-262.318 -149.721)" fill="#6b79af"/>
            <path id="Path_991204" data-name="Path 991204" d="M511.441,188.661s-14.642-.561-15.272,2.522l-3.608-.981a143.52,143.52,0,0,1,5.009,20.737c1.261,9.248,2.382,14.292,2.382,14.292s7.426.07,9.108-.35,3.013-.771,3.013-.771.35-15.763.56-22.839a50.793,50.793,0,0,0-1.191-12.611" transform="translate(-276.127 -105.74)" fill="#46579c"/>
            <path id="Path_991205" data-name="Path 991205" d="M443.726,121.19s-5.254,9.458-8.2,11.98-19.021,5.254-19.021,5.254l.631,3.783s9.878,0,17.129-1.576c3.822-.831,9.563-4.834,11.559-6.41s.736-11.244.21-12.085-2.312-.946-2.312-.946" transform="translate(-233.492 -67.938)" fill="#a65b44"/>
            <path id="Path_991206" data-name="Path 991206" d="M477.411,103.492s-4.729.946-6.621,4.519-5.254,10.929-5.254,10.929a18.83,18.83,0,0,1,3.258,3.678,13.407,13.407,0,0,1,2.1,4.729s5.149-6.831,6.621-10.509.315-13.346.315-13.346" transform="translate(-260.977 -58.017)" fill="#ffe7a5"/>
            <path id="Path_991207" data-name="Path 991207" d="M499.2,87.506s-.366,2.927-.805,4.757-1.317,2.269-1.317,2.269-1.592,5.274.529,6.372,9.57-7.03,9.57-7.03-1.1-4.391-.732-5.782-.146-1.683-.146-1.683Z" transform="translate(-278.339 -48.44)" fill="#a65b44"/>
            <g id="Group_1182214" data-name="Group 1182214" transform="translate(220.475 37.968)" style="mix-blend-mode: multiply;isolation: isolate">
              <g id="Group_1182213" data-name="Group 1182213">
                <g id="Group_1182212" data-name="Group 1182212" clip-path="url(#clip-path-5)">
                  <path id="Path_991208" data-name="Path 991208" d="M502.783,90.4a11.36,11.36,0,0,0,4.832-.293,13.211,13.211,0,0,0,1.733-.591,4.749,4.749,0,0,1,.044-1.429c.366-1.391-.146-1.683-.146-1.683l-7.1,1.1s-.157,1.254-.388,2.633a7.35,7.35,0,0,0,1.025.265" transform="translate(-501.758 -86.407)" fill="#c6c8d0"/>
                </g>
              </g>
            </g>
            <path id="Path_991209" data-name="Path 991209" d="M492.23,40.352s-2.342,9.148-2.415,11.782a16.907,16.907,0,0,0,3.342,9.122c1.683,1.9,8.88,1.782,10.416,1.124s5.122-6.44,5.781-9.953.439-7.611-3-10.538-14.124-1.537-14.124-1.537" transform="translate(-274.586 -22.436)" fill="#a65b44"/>
            <path id="Path_991210" data-name="Path 991210" d="M529.8,65.868s2.854-2.708,4.171-1.1-1.1,4.025-2.708,4.757a5.22,5.22,0,0,1-2.635.586Z" transform="translate(-296.344 -36.024)" fill="#a65b44"/>
            <path id="Path_991211" data-name="Path 991211" d="M494.448,42.424a5.663,5.663,0,0,0-2.415,2.69,19.606,19.606,0,0,0-.988,3.348,49.061,49.061,0,0,1,.22-6.421,2.545,2.545,0,0,1,2.36-2.141c.494,0,.823,2.525.823,2.525" transform="translate(-275.267 -22.367)" fill="#252f4b"/>
            <path id="Path_991212" data-name="Path 991212" d="M532.354,47.934a1.173,1.173,0,0,0-1.282-.717c.08-.462.416-.867.474-1.335a1.237,1.237,0,0,0-.464-1.138,2.1,2.1,0,0,0-2.035,0c-.08-.954-.318-2.094-1.305-2.493-1.365-.551-2.919.562-3.729,1.544a2.8,2.8,0,0,0-.718,1.875,4.878,4.878,0,0,0,.651,2.136,10.774,10.774,0,0,0,1.459,2.2c-.666,3.271.491,4.76,1.78,5.336a14.885,14.885,0,0,0,4.288-4.049,10.329,10.329,0,0,0,.743-1.666,2.713,2.713,0,0,0,.138-1.7" transform="translate(-293.356 -23.604)" fill="#252f4b"/>
            <path id="Path_991213" data-name="Path 991213" d="M505.675,30.6a1.964,1.964,0,0,0-1.716-1.46c-1.082-.116-1.416.488-2.128,1.128-.306-2.077-1.122-4.735-3.168-5.784-2.35-1.2-2.908,1.7-2.883,3.389-.537-1.374-3.659-3.187-4.76-1.588-1.085,1.575.293,3.037,1.244,3.952a5.079,5.079,0,0,0-6.147.509c-2,2.045,1.986,3.477,3.5,3.794a7.778,7.778,0,0,0,3.649.044c-1.208.76-1.611,1.734.227,1.654a9.019,9.019,0,0,0,3.579-.808c-1.237.517-.262,1.618.616,1.752a5.053,5.053,0,0,0,2.79-.634c1.385-.647,2.795-2.015,4.446-1.555l-.293.732a5.676,5.676,0,0,0,1.043-5.127" transform="translate(-272.206 -13.567)" fill="#252f4b"/>
            <g id="Group_1182217" data-name="Group 1182217" transform="translate(217.983 25.062)" style="mix-blend-mode: multiply;isolation: isolate">
              <g id="Group_1182216" data-name="Group 1182216">
                <g id="Group_1182215" data-name="Group 1182215" clip-path="url(#clip-path-6)">
                  <path id="Path_991214" data-name="Path 991214" d="M500.047,57.115a6.8,6.8,0,0,0-.285,1.621c-.047.5-.139.991-.229,1.488-.127.7-.223,1.835-1.071,2.009-.671.138-1.581-.1-2.114.447-.571.585-.107,1.291.448,1.663a6.046,6.046,0,0,0,3.306.586.153.153,0,0,0,0-.307,6.4,6.4,0,0,1-2.952-.4c-.328-.174-.759-.475-.8-.88-.043-.485.463-.694.852-.75.593-.084,1.389.072,1.867-.379a3.4,3.4,0,0,0,.691-1.849c.088-.446.191-.884.244-1.336a13.762,13.762,0,0,1,.259-1.854.114.114,0,0,0-.22-.061" transform="translate(-496.086 -57.036)" fill="#aaaeb9"/>
                </g>
              </g>
            </g>
            <path id="Path_991215" data-name="Path 991215" d="M516.7,60.073c.018-.225.014-.174.035-.375a.483.483,0,0,0-.193-.443,5.953,5.953,0,0,0-2.495-1.022,1.682,1.682,0,0,0-.818.076c-.425.175-.431.58-.437.981a.088.088,0,0,0,.067.086.041.041,0,0,0,.038.024,9.1,9.1,0,0,1,1.891.166,5.35,5.35,0,0,1,1.689.684c.11.066.206.027.223-.177" transform="translate(-287.47 -32.635)" fill="#1a2442"/>
            <path id="Path_991216" data-name="Path 991216" d="M493.485,57.565a5.355,5.355,0,0,1,1.82-.088,9.138,9.138,0,0,1,1.84.468.041.041,0,0,0,.044-.01.088.088,0,0,0,.091-.059c.127-.381.256-.765-.088-1.071a1.685,1.685,0,0,0-.747-.342,5.945,5.945,0,0,0-2.692.141.482.482,0,0,0-.329.355c-.047.2-.034.147-.091.366-.052.2.026.267.152.241" transform="translate(-276.551 -31.597)" fill="#1a2442"/>
            <path id="Path_991217" data-name="Path 991217" d="M512.293,64.649a.775.775,0,0,0,.275.723.838.838,0,0,0,.669.068,1.153,1.153,0,0,0,.534-.358c.424-.488.532-1.591-.322-1.862-.958-.3-1.147.957-1.156,1.428" transform="translate(-287.188 -35.415)" fill="#1a2442"/>
            <path id="Path_991218" data-name="Path 991218" d="M496.537,62.63a.806.806,0,0,0,.275.742.819.819,0,0,0,.669.07,1.155,1.155,0,0,0,.534-.367c.424-.5.532-1.632-.322-1.911-.958-.312-1.147.982-1.156,1.465" transform="translate(-278.356 -34.262)" fill="#1a2442"/>
            <path id="Path_991219" data-name="Path 991219" d="M506.653,75.4a.151.151,0,0,0-.219-.089,11.818,11.818,0,0,1-3.63,1.364,7.059,7.059,0,0,1-3.876-.41c-.07-.093-.233-.111-.257.033-.281,1.7,1.368,3,2.851,3.362a4.266,4.266,0,0,0,4.528-1.639,4,4,0,0,0,.6-2.621" transform="translate(-279.534 -42.207)" fill="#1a2442"/>
            <path id="Path_991220" data-name="Path 991220" d="M500.354,77.335a1.212,1.212,0,0,0,.761.474,7.755,7.755,0,0,0,2.034.232c1.337-.01,2.94-.559,3.409-1.875a10.543,10.543,0,0,1-2.9,1,7.138,7.138,0,0,1-3.5-.27,2.394,2.394,0,0,0,.2.442" transform="translate(-280.384 -42.699)" fill="#fff"/>
            <path id="Path_991221" data-name="Path 991221" d="M510.655,80.847a3.089,3.089,0,0,0-1.142.635,2.7,2.7,0,0,0-.672,1.033c-.035.09-.071.178-.106.268a3.888,3.888,0,0,0,2.974-1.717c.042-.073.083-.15.123-.228a1.606,1.606,0,0,0-1.178.009" transform="translate(-285.194 -45.256)" fill="#de5552"/>
            <path id="Path_991222" data-name="Path 991222" d="M485.594,104.992s-.858,2.4-.438,3.38c.788-1.314,1.2-2.635,1.839-3.1a64.216,64.216,0,0,1,8.3-4.414c.235-.087,8.486,3.311,8.2,4.151a97.564,97.564,0,0,0-2,10.771c-.42,3.678-.21,11.454,0,15.868s.631,10.088.631,10.088a63.489,63.489,0,0,1-17.024,1.681c-7.675-.357-10.719-1.261-10.719-1.261s.946-14.4,1.576-19.336,2.207-17.339,2.732-18.6,6.054-3.682,5.99-2.732c-.175,2.592.911,3.5.911,3.5" transform="translate(-265.938 -56.54)" fill="#ffc629"/>
            <path id="Path_991223" data-name="Path 991223" d="M502.924,103.13a41.5,41.5,0,0,0,5.64-3.783c1.892-1.681,2-2.312,2-2.312a3.1,3.1,0,0,1,1.226,2.382c-.07,3.5-6.165,8.2-6.165,8.2a12.67,12.67,0,0,0-1.261-2.908,7.293,7.293,0,0,0-1.436-1.576" transform="translate(-281.936 -54.397)" fill="#ffe7a5"/>
            <path id="Path_991224" data-name="Path 991224" d="M495.444,104.066a4.076,4.076,0,0,0-1.892,1.576c-1.051,1.366-1.471,1.892-1.471,1.892s-.631-3.678.421-5.78a4.933,4.933,0,0,1,3.328-2.487,4.785,4.785,0,0,0-.806,2.487c-.175,1.787.421,2.312.421,2.312" transform="translate(-275.753 -55.649)" fill="#ffe7a5"/>
            <path id="Path_991225" data-name="Path 991225" d="M507.659,266.9a37.5,37.5,0,0,0,13.551-.915l0,3.285a33.048,33.048,0,0,1-7.358,1.275,18.443,18.443,0,0,1-6-.491Z" transform="translate(-284.591 -149.11)" fill="#6b79af"/>
            <path id="Path_991226" data-name="Path 991226" d="M523.351,196.865a13.458,13.458,0,0,0,1.148,3.719,9.765,9.765,0,0,0,.882,1.619,9.6,9.6,0,0,0,1.092,1.266c.219.218.446.426.675.635q.174.16.354.313a.736.736,0,0,0,.119.077.871.871,0,0,1,.092.069,2.246,2.246,0,0,0,.228.144.118.118,0,0,0,.16-.16,1.843,1.843,0,0,0-.118-.189,1.933,1.933,0,0,1-.121-.163,1.129,1.129,0,0,0-.155-.176c-.052-.054-.1-.108-.157-.16-.193-.189-.389-.376-.584-.562s-.39-.38-.576-.579c-.091-.1-.179-.2-.265-.3-.042-.05-.084-.1-.125-.15l-.061-.077-.027-.035-.018-.023a9.434,9.434,0,0,1-.909-1.554,17.4,17.4,0,0,1-.75-1.732,16.893,16.893,0,0,1-.623-2.054.137.137,0,0,0-.167-.095.139.139,0,0,0-.095.167" transform="translate(-293.386 -110.266)" fill="#6b79af"/>
            <path id="Path_991227" data-name="Path 991227" d="M528.384,312.276l.28,2.312s-2.1.561-2.1.351-.28-2.662-.28-2.662Z" transform="translate(-295.031 -175.06)" fill="#414962"/>
            <path id="Path_991228" data-name="Path 991228" d="M263.214,115.527s1.331,3.013,2.032,3.293,4.877-4.826,7.084-7a12.74,12.74,0,0,0,2.872-3.853,6.422,6.422,0,0,1-1.506-3.258c-.105-1.681,1.892-1.681,1.892-1.681s-.981-5.395-.07-5.815,1.541,5.08,1.541,5.08,1.4-5.71,2.592-5.149-1.051,5.464-1.051,5.464.666-.56,1.226-.175a.772.772,0,0,1,.35.91.88.88,0,0,1,1.226.14c.49.666,0,1.646-1.156,3.153s-1.541,1.646-1.541,1.646-5.782,12.853-9.249,15.761c-2.444,2.049-3.956,2.769-6.443,1.333s-6.515-9.247-6.515-9.247,5.911-1.409,6.717-.6" transform="translate(-143.791 -54.437)" fill="#ff8d6c"/>
            <path id="Path_991229" data-name="Path 991229" d="M242.147,100.064s5.6,1.541,8.056,3.573,7.134,16.734,7.134,16.734a21.352,21.352,0,0,0-2.74,2.889,10.513,10.513,0,0,0-1.845,3.279s-6.612-7.839-8.153-9.8-2.452-16.674-2.452-16.674" transform="translate(-135.746 -56.095)" fill="#46579c"/>
            <g id="Group_1182220" data-name="Group 1182220" transform="translate(130.387 48.287)" style="mix-blend-mode: multiply;isolation: isolate">
              <g id="Group_1182219" data-name="Group 1182219">
                <g id="Group_1182218" data-name="Group 1182218" clip-path="url(#clip-path-7)">
                  <path id="Path_991230" data-name="Path 991230" d="M303.167,112.339c.133-.146.26-.3.4-.442a1.433,1.433,0,0,1,.3-.272c.076-.044.047-.182-.047-.174-.24.021-.41.268-.557.436a4.656,4.656,0,0,1-.663.691c-.189.143-.437.211-.538-.07a1.1,1.1,0,0,1,.128-.787c.231-.356.437-.73.646-1.1a.1.1,0,0,0-.036-.152c-.038.022-.065.04-.065.04s.007-.022.015-.051a.109.109,0,0,0-.116.045c-.267.392-.462.833-.726,1.228-.226.338-.587.885-1.045.9s-.451-.478-.322-.978a1.1,1.1,0,0,0,.493-.961c-.06-.424-.518-.64-.889-.724a4.634,4.634,0,0,0-1.329-.066c-.236.016-.471.046-.706.085.022.128.036.2.036.2a2.51,2.51,0,0,0-1.41.47.081.081,0,0,0,.069,0,6.617,6.617,0,0,1,2.866-.371,1.353,1.353,0,0,1,.881.33c.323.4-.08.746-.427.942a6.546,6.546,0,0,1-.825.38c-.186.073-.376.139-.567.2a1.671,1.671,0,0,0-.548.208c-.079.061-.093.216.031.239a2.3,2.3,0,0,0,1.142-.294,5.543,5.543,0,0,0,.839-.4c.029-.018.059-.038.089-.058-.01.052-.026.1-.032.155-.041.345.029.75.418.848.474.12.881-.279,1.156-.62a.944.944,0,0,0,.009.259.494.494,0,0,0,.59.427,1.713,1.713,0,0,0,.743-.576" transform="translate(-296.734 -109.89)" fill="#c6c8d0"/>
                </g>
              </g>
            </g>
            <g id="Group_1182223" data-name="Group 1182223" transform="translate(107.537 45.685)" style="mix-blend-mode: multiply;isolation: isolate">
              <g id="Group_1182222" data-name="Group 1182222">
                <g id="Group_1182221" data-name="Group 1182221" clip-path="url(#clip-path-8)">
                  <path id="Path_991231" data-name="Path 991231" d="M254.583,127.71a12.43,12.43,0,0,1-2.2-2.66c-1.156-1.892-2.444-14-3.179-17.507s-1.962-3.573-1.962-3.573L245.277,108a39.934,39.934,0,0,0-.545,5.76c.363,2.458.8,4.518,1.316,5.169,1.541,1.962,8.153,9.8,8.153,9.8s.131-.4.382-1.018" transform="translate(-244.732 -103.97)" fill="#c6c8d0"/>
                </g>
              </g>
            </g>
            <path id="Path_991232" data-name="Path 991232" d="M193.606,342.505s-.839,4.623-.35,5.464c.631,1.086,4.294,3.541,7.846,4.869,3.748,1.4,5.324.315,5.184-1.156s-2.872-3.293-4.273-4.344-4.2-2.557-4.414-3.258a5.766,5.766,0,0,1,.07-2.067s-3.573-2.242-4.063.49" transform="translate(-108.252 -191.246)" fill="#252f4b"/>
            <path id="Path_991233" data-name="Path 991233" d="M232.074,343.88s-.655,4.652-.133,5.474c.673,1.06,4.432,3.368,8.034,4.553,3.8,1.251,5.333.1,5.134-1.361s-3-3.176-4.443-4.17-4.3-2.388-4.54-3.079a5.762,5.762,0,0,1-.012-2.068s-3.659-2.1-4.041.652" transform="translate(-129.912 -191.982)" fill="#252f4b"/>
            <path id="Path_991234" data-name="Path 991234" d="M198.136,165.924a60.115,60.115,0,0,0-2.872,13.171c-.483,5.317-.66,37.793-.45,39.579s-1.681,27.428-1.681,27.428a6.763,6.763,0,0,0,2.942.526,3.022,3.022,0,0,0,2.207-.946s5.254-25.957,6.726-35.309,2.824-23.724,2.824-23.724h1.576s.014,23.829.224,33.6.21,10.4.21,10.4l.105,15.868s.315.526,2,.526a5.964,5.964,0,0,0,3.047-.946s4.2-28.689,4.939-38.042,1.385-23.588.906-30.787a71.334,71.334,0,0,0-1.471-11.84,43.856,43.856,0,0,1-12.991,1.643,32.107,32.107,0,0,1-8.237-1.153" transform="translate(-108.269 -92.741)" fill="#414962"/>
            <path id="Path_991235" data-name="Path 991235" d="M216.327,89.784a.829.829,0,0,0,.312-.551c.069-.576.544-6.179.285-6.189,1.83.069,5.306.125,7.136.194l.1.145c-.017,1.738,0,2.719-.017,4.457a3.622,3.622,0,0,0,.206,1.529,2.932,2.932,0,0,0,1.818,1.713c.074.034,1.46,4.547-1,5.7a7.171,7.171,0,0,1-5.434-.149c-2.2-.856-5.627-3.706-5.655-5.656a8.692,8.692,0,0,0,2.241-1.194" transform="translate(-120.015 -46.554)" fill="#ff8d6c"/>
            <g id="Group_1182226" data-name="Group 1182226" transform="translate(96.824 36.49)" style="mix-blend-mode: multiply;isolation: isolate">
              <g id="Group_1182225" data-name="Group 1182225">
                <g id="Group_1182224" data-name="Group 1182224" clip-path="url(#clip-path-9)">
                  <path id="Path_991236" data-name="Path 991236" d="M220.352,86.863a8.144,8.144,0,0,0,3.873,1.989,10.839,10.839,0,0,0,2.847.146,4.556,4.556,0,0,0,.653-.1,5.383,5.383,0,0,1-.065-1.052c.017-1.738,0-2.719.017-4.457l-.1-.145c-1.83-.07-5.306-.125-7.136-.194a17.363,17.363,0,0,1-.084,3.818" transform="translate(-220.352 -83.045)" fill="#c6c8d0"/>
                </g>
              </g>
            </g>
            <path id="Path_991237" data-name="Path 991237" d="M213.535,35.855a8.69,8.69,0,0,1,10.2.723,9.669,9.669,0,0,1,.748.752c4.722,5.275,5.654,15.432-.863,20.428s-14.195-1.278-15.105-7.871c-.588-4.26.064-9.395,3.212-12.611a8.934,8.934,0,0,1,1.812-1.422" transform="translate(-116.781 -19.366)" fill="#ff8d6c"/>
            <path id="Path_991238" data-name="Path 991238" d="M208.848,48.488s1.366-.631,1.4-3.363-.272-4.7,1.016-5.71c.805-.631,1.806-.51,3.538.455,3.958,2.207,8.285,1.909,10.071-.718.975-1.435-1.488-3.236-2.89-4.046a9.471,9.471,0,0,0-6.516-1.366,9.935,9.935,0,0,0-7.882,6.165,13.548,13.548,0,0,0-.7,7.706c.035.6,1.961.876,1.961.876" transform="translate(-115.829 -18.846)" fill="#252f4b"/>
            <path id="Path_991239" data-name="Path 991239" d="M202.758,63.668a1.327,1.327,0,0,1,.533-.691,1.352,1.352,0,0,1,1.113-.055,2.476,2.476,0,0,1,.992.658,3.076,3.076,0,0,1,.769,2.632,1.762,1.762,0,0,1-1.876,1.065,1.846,1.846,0,0,1-.99-.628,2.9,2.9,0,0,1-.541-2.98" transform="translate(-113.554 -35.221)" fill="#ff8d6c"/>
            <path id="Path_991240" data-name="Path 991240" d="M222.566,57.062a3.023,3.023,0,0,0-1.62.478,1.516,1.516,0,0,0-.66,1.477,9.872,9.872,0,0,1,4.283-.537,1.836,1.836,0,0,1,.833.231c-.044-.028.147-.8.087-.932a.875.875,0,0,0-.644-.476,7.086,7.086,0,0,0-2.278-.241" transform="translate(-123.477 -31.983)" fill="#252f4b"/>
            <g id="Group_1182229" data-name="Group 1182229" transform="translate(103.639 26.874)" style="mix-blend-mode: multiply;isolation: isolate">
              <g id="Group_1182228" data-name="Group 1182228">
                <g id="Group_1182227" data-name="Group 1182227" clip-path="url(#clip-path-10)">
                  <path id="Path_991241" data-name="Path 991241" d="M236.059,61.317a22.932,22.932,0,0,0-.021,3.209.924.924,0,0,0,.2.623,1.531,1.531,0,0,0,.685.324c.393.116,1.609.392,1.073.992a1.873,1.873,0,0,1-1.133.481,1.493,1.493,0,0,0-.973.392c-.083.112.054.239.166.216.2-.042.383-.152.584-.2s.427-.085.638-.138a1.778,1.778,0,0,0,1-.578c.42-.531.022-.971-.5-1.194a5.547,5.547,0,0,0-.874-.27c-.321-.078-.576-.16-.6-.528a13.689,13.689,0,0,1,.072-1.406,18.06,18.06,0,0,0,.016-1.921.165.165,0,0,0-.33,0" transform="translate(-235.861 -61.159)" fill="#9da1ae"/>
                </g>
              </g>
            </g>
            <path id="Path_991242" data-name="Path 991242" d="M225.915,74.121c-.116,1.625,1.338,2.632,2.76,2.985a4.163,4.163,0,0,0,1.984.039c.567-.142,1.322-.566,1.336-1.237a.144.144,0,0,0-.243-.1,4.2,4.2,0,0,1-.559.621,1.944,1.944,0,0,1-.776.319,3.775,3.775,0,0,1-1.652-.074,2.962,2.962,0,0,1-2.534-2.551.158.158,0,0,0-.316,0" transform="translate(-126.643 -41.466)" fill="#252f4b"/>
            <path id="Path_991243" data-name="Path 991243" d="M226.032,62.511a1.237,1.237,0,0,0-.225,2.026.841.841,0,0,0,1.245-.578c.14-.6-.211-1.716-1.021-1.448" transform="translate(-126.345 -35.02)" fill="#252f4b"/>
            <path id="Path_991244" data-name="Path 991244" d="M242.839,57.945a1.936,1.936,0,0,1,1.219.568,1.087,1.087,0,0,1,.315,1.311c-1.34-1-4.3-.754-4.566-.631.047-.022-.038-.809.04-.935.154-.247.416-.26.707-.314a6.215,6.215,0,0,1,2.285,0" transform="translate(-134.434 -32.424)" fill="#252f4b"/>
            <path id="Path_991245" data-name="Path 991245" d="M241.575,62.511a1.237,1.237,0,0,1,.225,2.026.841.841,0,0,1-1.245-.578c-.14-.6.211-1.716,1.021-1.448" transform="translate(-134.837 -35.02)" fill="#252f4b"/>
            <path id="Path_991246" data-name="Path 991246" d="M206.624,97.673a5.366,5.366,0,0,0,5.464,3.153c3.993-.421,3.468-2.452,3.468-2.452s4.86,1.337,5.78,2.8c1.892,3.013,1.961,20.457,2.592,25.921a88.918,88.918,0,0,1,0,13.591,76.128,76.128,0,0,1-14.152.91,96.69,96.69,0,0,1-12.751-.91s.631-21.018.981-26.552.28-13.451.28-13.451,4.694-2.8,8.337-3.013" transform="translate(-110.452 -54.755)" fill="#46579c"/>
            <path id="Path_991247" data-name="Path 991247" d="M243.884,155.406c-.066-.128,2.627-.526,3.082.6a5.741,5.741,0,0,1-.21,4.309c-.666,1.086-3.573,1.051-3.573,1.051s1.366-4.659.7-5.955" transform="translate(-136.328 -87.022)" fill="#ff8d6c"/>
            <g id="Group_1182232" data-name="Group 1182232" transform="translate(87.162 43.566)" style="mix-blend-mode: multiply;isolation: isolate">
              <g id="Group_1182231" data-name="Group 1182231">
                <g id="Group_1182230" data-name="Group 1182230" clip-path="url(#clip-path-11)">
                  <path id="Path_991248" data-name="Path 991248" d="M198.364,123.849a29.454,29.454,0,0,0,3.615-.759c.911-.351.911-2.662,1.261-5.114s1.622-4.769,2.452-7.093c1.051-2.943-.19-9.48-1.429-11.735a29.266,29.266,0,0,0-5.227,2.364s.07,7.916-.28,13.451c-.112,1.773-.253,5.135-.393,8.886" transform="translate(-198.364 -99.148)" fill="#c6c8d0"/>
                </g>
              </g>
            </g>
            <g id="Group_1182235" data-name="Group 1182235" transform="translate(99.744 86.491)" style="mix-blend-mode: multiply;isolation: isolate">
              <g id="Group_1182234" data-name="Group 1182234">
                <g id="Group_1182233" data-name="Group 1182233" clip-path="url(#clip-path-12)">
                  <path id="Path_991249" data-name="Path 991249" d="M227,197.2a90.7,90.7,0,0,0,9.4-.358Z" transform="translate(-226.998 -196.837)" fill="#c6c8d0"/>
                </g>
              </g>
            </g>
            <path id="Path_991250" data-name="Path 991250" d="M198.217,98.948s-6.305,1.611-8.757,4.9-2.172,17.584-2.172,17.584,6.726.21,7.636.28.421-3.292,1.962-6.375,3.8-7.965,3.029-10.838-1.7-5.556-1.7-5.556" transform="translate(-104.987 -55.47)" fill="#46579c"/>
            <path id="Path_991251" data-name="Path 991251" d="M185.526,142.956a75.361,75.361,0,0,0-.158,9.51c.315,3.415,2.049,3.047,6.936,3.205s18.022.526,19.073,0,1.088-5.648.315-9.615c-.788-4.046-7.724-3.941-11.717-3.941s-14.292.105-14.449.841" transform="translate(-103.855 -79.669)" fill="#de5552"/>
            <path id="Path_991252" data-name="Path 991252" d="M227.321,140.131s-.471-2.059.844-2.431,3.424.372,3.622,1.24a4.138,4.138,0,0,1-.224,1.985s-.658-.094-.658-.169.5-1.34,0-1.836-2.376-1.033-2.748-.339a2.243,2.243,0,0,0-.145,1.5Z" transform="translate(-127.389 -77.139)" fill="#fff"/>
            <path id="Path_991253" data-name="Path 991253" d="M211.959,146.056c-.788-4.046-7.724-3.941-11.717-3.941s-14.292.105-14.449.841c0,0-.024.3-.057.811,2.252-.143,12.093-.752,16.082-.706,4.519.053,7.672.21,8.67,2.627.809,1.96.859,7.892.848,10.066a1.244,1.244,0,0,0,.307-.083c1.051-.526,1.088-5.648.315-9.616" transform="translate(-104.123 -79.669)" fill="#f4c4c3"/>
            <path id="Path_991254" data-name="Path 991254" d="M230.189,116.94s1.892-6.13,2.7-9.633c1.455-6.327,1.121-8.442,1.121-8.442a4.1,4.1,0,0,1,1.472.245,4.74,4.74,0,0,1,.91.455s-1.086,7.321-2.242,11.893c-.934,3.695-1.646,5.937-1.646,5.937Z" transform="translate(-129.043 -55.422)" fill="#f4c4c3"/>
            <path id="Path_991255" data-name="Path 991255" d="M181.406,257.751l5.818-4.786,1.944,2-6.071,5Z" transform="translate(-101.695 -141.811)" fill="#3c455e"/>
            <path id="Path_991256" data-name="Path 991256" d="M197.112,255.633a.379.379,0,0,1-.266-.108l-34.287-33.384a.381.381,0,1,1,.532-.546l34.287,33.384a.381.381,0,0,1-.266.654" transform="translate(-91.065 -124.165)" fill="#3c455e"/>
            <path id="Path_991257" data-name="Path 991257" d="M154.491,324.371c-.04.009.938-1.714-.1-1.25-1.658.282-4.414-.07-7.146-3.993a12.642,12.642,0,0,1-1.821-6.1,11.708,11.708,0,0,1,.737-4.905,10.041,10.041,0,0,1,2.958-4.073,24.707,24.707,0,0,1,3.5-2.049,6.024,6.024,0,0,0,2.659-2.486,4.64,4.64,0,0,0,.018-3.662,2.692,2.692,0,0,0-2.891-1.911,6.691,6.691,0,0,0-3.589,2.483c-.055.065-.1.137-.156.2a4.417,4.417,0,0,0-.149-1.32,1.091,1.091,0,0,0-1.352-.8,2.744,2.744,0,0,0-1.381,1.471,12.346,12.346,0,0,0-.611,1.383,2.613,2.613,0,0,0-.832-1.231.989.989,0,0,0-1.262.087,3.423,3.423,0,0,0-.823,1.264,9.515,9.515,0,0,0-.617,2.284,16.085,16.085,0,0,0-.148,3.352c-1.311-.238-1.665,1.881-1.788,2.811-1.1,8.278,2.922,19.949,12.8,20.133.781.015,2.548.02,2.883-.955a.592.592,0,0,0-.105-.623.831.831,0,0,0-.787-.117" transform="translate(-78.217 -164.766)" fill="#b67866"/>
            <path id="Path_991258" data-name="Path 991258" d="M249.462,313.033a65.081,65.081,0,0,0-2.522,12.12c-.42,5.464.14,10.3.771,11.91s3.713,2.452,3.573,3.713-3.152,1.261-5.254-.841l-2.1-2.1s-1.121-1.4-1.472-4.974a89.849,89.849,0,0,1,1.121-16.464c.561-2.1,5.885-3.363,5.885-3.363" transform="translate(-135.876 -175.485)" fill="#a65b44"/>
            <path id="Path_991259" data-name="Path 991259" d="M202.871,352.821a12.465,12.465,0,0,1,.105,4.992,13.116,13.116,0,0,1-.736,2.837s6.659.9,7.83,1.595.407,2.128-1.175,2.2-10.123-.849-10.123-.849a5.725,5.725,0,0,1-.893-4.519c.631-2.522.788-5.2.578-5.464s4.361-1.156,4.413-.788" transform="translate(-110.844 -197.741)" fill="#a65b44"/>
            <path id="Path_991260" data-name="Path 991260" d="M184.151,300.2s3.888-4.519,7.356-6.305,7.615-3.793,10.789-7.146c3.713-3.923,7.286-9.248,7.286-13.977a40.043,40.043,0,0,0-2-10.614s3.678-2,6.2-3.152l2.522-1.156a3.408,3.408,0,0,0,3.783-2.627c1.051-3.153.841-6.305-.525-6.1s-3.468,2.417-6.726,1.156-4.624-2.732-7.672-2.312-6.41,4.939-8.722,10.193a34.275,34.275,0,0,1-13.136,15.763c-7.356,4.834-12.505,11.139-13.241,18.39s.631,10.194,2.1,12.085,11.98-4.2,11.98-4.2" transform="translate(-95.225 -138.969)" fill="#b67866"/>
            <path id="Path_991261" data-name="Path 991261" d="M243.348,315.884s-2.732,4.694-3.573,6.585-.49,6.726-.771,8.967-.631,6.656.07,7.987,4.274,3.573,4.134,4.764-2.172,1.261-4.484-.28-4.063-3.293-4.484-6.726.21-11.349.21-14.432-.35-5.745.49-6.936,8.828-2.872,8.407.07" transform="translate(-131.233 -176.163)" fill="#b67866"/>
            <path id="Path_991262" data-name="Path 991262" d="M236.955,251.073a4.688,4.688,0,0,0-5.1-.631c-2.995,1.366-5.464,4.414-4.676,7.251s2.837,3.836,5.2,3.258,1.584-3.858,2.312-6.1c.736-2.259,1.366-3.153,2.259-3.783" transform="translate(-127.274 -140.129)" fill="#a65b44"/>
            <path id="Path_991263" data-name="Path 991263" d="M258.577,256.685a.747.747,0,0,0,.869-.376.96.96,0,0,0,.059-.452c-.043-.656-.849-1.708-1.532-.983-.481.51,0,1.642.6,1.81" transform="translate(-144.508 -142.744)" fill="#252f4b"/>
            <path id="Path_991264" data-name="Path 991264" d="M282.008,249.956a.985.985,0,0,0-1.12.141.97.97,0,0,0-.133,1.054,1.665,1.665,0,0,0,.8.76.981.981,0,0,0,1.2-.1c.46-.606-.2-1.585-.751-1.858" transform="translate(-157.336 -140.062)" fill="#252f4b"/>
            <path id="Path_991265" data-name="Path 991265" d="M270.643,262.447a14.916,14.916,0,0,0,3.445-.272,7.511,7.511,0,0,0,1.56-.559,8.816,8.816,0,0,0,.787-.431,1.414,1.414,0,0,0,.594-.5c.019-.039,0-.1-.055-.1a1.475,1.475,0,0,0-.634.316,7.283,7.283,0,0,1-.686.39,8.016,8.016,0,0,1-1.65.571,14.53,14.53,0,0,1-3.361.359.109.109,0,0,0,0,.218" transform="translate(-151.662 -146.087)" fill="#252f4b"/>
            <path id="Path_991266" data-name="Path 991266" d="M184.8,342.354c5.955,2.8.841,13.941,1.121,14.222s8.407.771,10.018,2.032c1.136.889.421,2.89-8.617,2.8-7.216-.07-7.146.35-10.159-1.051-3.612-1.68-6.025-5.324-4.834-8.407s5.678-12.795,12.47-9.6" transform="translate(-96.436 -191.564)" fill="#b67866"/>
            <path id="Path_991267" data-name="Path 991267" d="M186.542,342.851c.344-.165.667-.372,1.006-.55a8.4,8.4,0,0,1,.964-.436,4.326,4.326,0,0,1,3.133-.1q.256.078.506.178c.072.029.147.059.219.091q.134.059.265.123a6.156,6.156,0,0,1,.92.552l.1.076c-.038-.029.016.013.019.016l.048.039c.066.054.13.109.193.166.113.1.221.211.325.323.051.056.1.113.149.171.024.029.048.058.072.087l.035.044,0,0,.023.03c.09.12.174.243.254.37s.159.268.23.406q.051.1.1.2l.047.1.022.051.015.034c-.014-.033-.016-.036,0-.01a7.821,7.821,0,0,1,.492,1.787c.006.038.013.076.017.114-.008-.075,0-.009,0,.006s0,.038.007.057c.01.083.018.166.026.249.016.154.032.307.042.462.022.32.027.642.019.963s-.029.621-.063.93c0,.037-.008.075-.013.112,0,.018,0,.037-.007.056.006-.05,0,.012,0,.018q-.016.111-.035.222-.038.227-.085.453c-.068.328-.152.653-.222.981-.08.375-.143.754-.211,1.131a12.711,12.711,0,0,1-.587,2.237c-.062.164-.116.331-.174.5-.043.124.142.194.207.087a4.7,4.7,0,0,0,.438-1.043c.12-.377.22-.76.311-1.145s.186-.767.278-1.15.171-.74.265-1.107a13.255,13.255,0,0,0,.333-1.877,9.187,9.187,0,0,0,.027-1.932,8.043,8.043,0,0,0-.422-1.906,5.942,5.942,0,0,0-.97-1.708,5.443,5.443,0,0,0-1.571-1.3,5.912,5.912,0,0,0-2.144-.731,5.156,5.156,0,0,0-1.087-.008,5.983,5.983,0,0,0-1.109.2,8.415,8.415,0,0,0-2,.935,5.226,5.226,0,0,0-.475.319.074.074,0,0,0,.075.127" transform="translate(-104.514 -191.298)" fill="#a65b44"/>
            <path id="Path_991268" data-name="Path 991268" d="M207.479,299.089l2.329-2.119a107.381,107.381,0,0,0,4.2,14.082c2.312,5.622,4.1,7.724,4.1,7.724l-3.205,1.839a37.017,37.017,0,0,1-5.674-11.874c-1.857-6.748-1.751-9.651-1.751-9.651" transform="translate(-116.311 -166.48)" fill="#46579c"/>
            <path id="Path_991269" data-name="Path 991269" d="M208.861,306.417s8.141,2.26,14.5,2.26c5.622,0,7.549-1.3,7.549-1.3a5.883,5.883,0,0,0,.7-2.592,7.205,7.205,0,0,0-.14-2.032s-2.487,1.226-10.789.631c-8.234-.591-12.26-2.312-12.26-2.312a22.62,22.62,0,0,0,.438,5.341" transform="translate(-116.835 -168.782)" fill="#46579c"/>
            <path id="Path_991270" data-name="Path 991270" d="M221.4,307.986a1.629,1.629,0,0,0-2.707-.143,1.43,1.43,0,0,0,.363,1.938,1.742,1.742,0,0,0,.57.22,1.551,1.551,0,0,0,1.634-.51,1.519,1.519,0,0,0,.2-.513,1.649,1.649,0,0,0-.058-.991m-.431.872a1.014,1.014,0,0,1-.132.343,1.036,1.036,0,0,1-1.091.341,1.177,1.177,0,0,1-.381-.147.955.955,0,0,1-.243-1.294,1.088,1.088,0,0,1,1.808.1,1.1,1.1,0,0,1,.038.662" transform="translate(-122.471 -172.209)" fill="#969aa8"/>
            <path id="Path_991271" data-name="Path 991271" d="M181.736,265.184a.382.382,0,0,1-.267-.129l-31.234-35.627a.371.371,0,0,1,.038-.529.383.383,0,0,1,.535.038l31.234,35.627a.372.372,0,0,1-.038.529.38.38,0,0,1-.268.091" transform="translate(-84.169 -128.269)" fill="#3c455e"/>
            <path id="Path_991272" data-name="Path 991272" d="M145.728,227.446a1.154,1.154,0,0,0-.038,1.4c.4.56,1.521.836,1.995.217a1.115,1.115,0,0,0,.191-.524,1.433,1.433,0,0,0,.005-.454,1.15,1.15,0,0,0-.569-.772,1.338,1.338,0,0,0-1.584.136" transform="translate(-81.551 -127.32)" fill="#6a7184"/>
            <path id="Path_991273" data-name="Path 991273" d="M146.458,222.222l8.133-4.133a1.291,1.291,0,0,1,1.1.757,1.565,1.565,0,0,1,.158,1.382l-7.727,3.885s.267-.551-.369-1.356a1.289,1.289,0,0,0-1.3-.536" transform="translate(-82.104 -122.26)" fill="#252f4b"/>
            <path id="Path_991274" data-name="Path 991274" d="M239.068,276.455s-1.121.421-5.464-.14a12.6,12.6,0,0,1-6.551-2.782c-.116-.1-.175-.16-.175-.16l-1.261,2.382s1.491,1.908,6.48,2.872c5.254,1.016,7.636-.21,7.636-.21Z" transform="translate(-126.48 -153.251)" fill="#252f4b"/>
            <path id="Path_991275" data-name="Path 991275" d="M119.831,132.9a7.946,7.946,0,0,1,3.048,4.2c1.1,3.1.315,5.622,1,10.351a26.662,26.662,0,0,0,3.573,10.4,62.756,62.756,0,0,0,7.671,9.931,8.614,8.614,0,0,1,2.995,4.151,2.929,2.929,0,0,1-.893,3.257.574.574,0,0,1-.578.066,1.984,1.984,0,0,0,.355-1.143c.024-.682-.04-.709-.04-.709a4.914,4.914,0,0,1-.565,2.194c-.526.736-1,1.248-1.287.972-.544-.518.394-.932.591-1.9a1.867,1.867,0,0,0,0-1,2.472,2.472,0,0,1-.893,2.075c-.822.7-1.419.446-1.577.079s.736-.578,1.051-1.1.368-1.734-.526-2a1.18,1.18,0,0,0-1.34.631l-.823.394a1.531,1.531,0,0,1-.359-1.918,18.644,18.644,0,0,0,.736-2.154s-6.621-6.831-8.722-9.511-4.782-7.566-5.359-10.666-1.051-16.867,1.944-16.6" transform="translate(-65.847 -74.503)" fill="#ffaa91"/>
            <path id="Path_991276" data-name="Path 991276" d="M87.1,81.3a2.107,2.107,0,0,0-.866-2.116A2.571,2.571,0,0,0,84.8,75.154a7.677,7.677,0,0,0,.332-5.667A6.529,6.529,0,0,0,83.918,67a3.352,3.352,0,0,0-2.4-1.253,3.534,3.534,0,0,0,.178-2.557,1.916,1.916,0,0,0-.53-.886c-.772-.671-1.958-.249-2.876.2a1.97,1.97,0,0,0-.8-1.523c-.874-.437-1.5,1.11-2.344.766-.343-.466-.986-1.441-2-1.313a1.794,1.794,0,0,0-1.548,1.238,2.975,2.975,0,0,0-3.669,3.962A9.1,9.1,0,0,0,62.79,79.112a7.153,7.153,0,0,0-2.875,4.164c-.256,1.707,1.018,3.705,2.74,3.585a3.866,3.866,0,0,0,.753,3.353,1.994,1.994,0,0,0,3.061-.17,4.106,4.106,0,0,0,3.663,3c.84.044,1.84-.336,1.994-1.164a3.18,3.18,0,0,0,2.984,1.541,7.351,7.351,0,0,0,4.529-1.536c.024,0,.047.009.071.012a5.136,5.136,0,0,0,3.066-.939,8.432,8.432,0,0,0,3.561-3.469,3.811,3.811,0,0,0-.862-4.583A2.106,2.106,0,0,0,87.1,81.3" transform="translate(-33.57 -33.87)" fill="#a65b44"/>
            <path id="Path_991277" data-name="Path 991277" d="M94.249,118.315a.792.792,0,0,0,.281-.536c.048-.552.289-6.412.041-6.414l5.25.032.1.136.111,4.982a3.466,3.466,0,0,0,.243,1.454c.447.917,1.556,1.241,2.495,1.642.072.031,1.484,3.495-.827,4.671a6.85,6.85,0,0,1-5.195.023c-2.124-.751-4.765-2.965-4.851-4.827a12.176,12.176,0,0,0,2.349-1.164" transform="translate(-51.519 -62.431)" fill="#ffaa91"/>
            <g id="Group_1182238" data-name="Group 1182238" transform="translate(43.052 48.777)" style="mix-blend-mode: multiply;isolation: isolate">
              <g id="Group_1182237" data-name="Group 1182237">
                <g id="Group_1182236" data-name="Group 1182236" clip-path="url(#clip-path-13)">
                  <path id="Path_991278" data-name="Path 991278" d="M98.061,114.3a5.391,5.391,0,0,0,2.511.941,10.071,10.071,0,0,0,2.584-.039c.092-.016.176-.041.265-.061l-.088-3.97-.1-.135-5.25-.032a14.544,14.544,0,0,1,.083,3.3" transform="translate(-97.978 -111.006)" fill="#c6c8d0"/>
                </g>
              </g>
            </g>
            <path id="Path_991279" data-name="Path 991279" d="M79.153,92.572a1.266,1.266,0,0,1,.545-.631,1.291,1.291,0,0,1,1.065.007,2.363,2.363,0,0,1,.912.68,2.94,2.94,0,0,1,.594,2.552,1.685,1.685,0,0,1-1.846.917,1.767,1.767,0,0,1-.912-.652,2.769,2.769,0,0,1-.358-2.872" transform="translate(-44.233 -51.478)" fill="#ffaa91"/>
            <path id="Path_991280" data-name="Path 991280" d="M90.211,66.192a8.433,8.433,0,0,1,9.68,1.167,9.029,9.029,0,0,1,.671.737c4.205,5.144,4.522,14.653-1.973,18.993s-13.463-1.877-13.959-8.064c-.321-4,.589-8.751,3.773-11.6a8.617,8.617,0,0,1,1.808-1.237" transform="translate(-47.409 -36.546)" fill="#ffaa91"/>
            <path id="Path_991281" data-name="Path 991281" d="M107.049,105.606s-7.558-1.206-7.842-.77-.317,2.8,3.257,3.311a3.945,3.945,0,0,0,4.585-2.541" transform="translate(-55.55 -58.717)" fill="#313a55"/>
            <path id="Path_991282" data-name="Path 991282" d="M105.13,106.04a5.258,5.258,0,0,1-1.817-.356,1.8,1.8,0,0,1-.7-.513,1.109,1.109,0,0,1-.172-.357c1.7.118,4.525.532,5.812.728-.714.782-2.186.558-3.119.5" transform="translate(-57.426 -58.759)" fill="#fff"/>
            <path id="Path_991283" data-name="Path 991283" d="M100.464,108.276a2.317,2.317,0,0,1,1.554,1.008,4.089,4.089,0,0,1,.469.78,3.7,3.7,0,0,1-2.745-1.643,1.491,1.491,0,0,1,.722-.145" transform="translate(-55.915 -60.697)" fill="#de5552"/>
            <path id="Path_991284" data-name="Path 991284" d="M111.146,85.288a3.116,3.116,0,0,0-.235,1.226c-.037.616-.038,1.233-.021,1.849s.043,1.219.111,1.823a2.354,2.354,0,0,0,.274,1.166.159.159,0,0,0,.191.025,2.351,2.351,0,0,1,.417-.145c.162-.062.323-.129.489-.181.329-.1.7-.138.622.322-.134.837-1.259,1.151-1.915,1.442a.074.074,0,0,0,.018.134c.9.159,2.272-.694,2.222-1.7a.533.533,0,0,0-.667-.535,3.287,3.287,0,0,0-.627.177c-.133.047-.452.232-.595.2l.116.153a6.831,6.831,0,0,0-.094-1.115c-.043-.587-.08-1.174-.1-1.762s-.03-1.191-.014-1.786a6.94,6.94,0,0,1,.08-1.174c.032-.156-.19-.274-.272-.115" transform="translate(-62.158 -47.77)" fill="#b87c69"/>
            <path id="Path_991285" data-name="Path 991285" d="M82.231,79.715a16.882,16.882,0,0,0,3.258-5.254c1.051-2.942,1.051-4.413-.526-5.534S81.356,69.1,80.48,71.2s.28,5.675.736,6.831a4.9,4.9,0,0,0,1.016,1.681" transform="translate(-44.938 -38.408)" fill="#a65b44"/>
            <path id="Path_991286" data-name="Path 991286" d="M120.787,70.988a10.573,10.573,0,0,1,2.049,3.416,16.934,16.934,0,0,1,.841,4.308h.631a28.325,28.325,0,0,0-.21-5.1c-.368-2.417-1.051-3.1-1.681-3.626s-1.629,1-1.629,1" transform="translate(-67.713 -39.174)" fill="#a65b44"/>
            <path id="Path_991287" data-name="Path 991287" d="M95.743,86.149a8.771,8.771,0,0,0-1.8.115,2.037,2.037,0,0,0-1.469.763c-.9,1.35.209,2.893,1.363,3.48a4.43,4.43,0,0,0,4.661-.462,3.492,3.492,0,0,0,1.319-2.218,1.115,1.115,0,0,0-.481-1.146c-.8-.491-2.984-.508-3.591-.531" transform="translate(-51.655 -48.291)" fill="#252f4b"/>
            <path id="Path_991288" data-name="Path 991288" d="M107.864,90.4a1.882,1.882,0,0,1,1.415-.553,2.289,2.289,0,0,1,.8.129,2.107,2.107,0,0,1,.307.16.544.544,0,0,0,.392.092.144.144,0,0,0,.1-.1c.1-.372-.359-.568-.642-.667a2.568,2.568,0,0,0-.992-.128,1.775,1.775,0,0,0-1.626.927c-.054.138.151.248.245.143" transform="translate(-60.326 -50.074)" fill="#252f4b"/>
            <path id="Path_991289" data-name="Path 991289" d="M81.071,91.5a3.19,3.19,0,0,1,1.3-.128c.511-.005,1.021.006,1.532.016.536.01,1.072,0,1.607-.005l.8-.007A1.37,1.37,0,0,0,87,91.289a.194.194,0,0,0,0-.349,1.591,1.591,0,0,0-.8-.08c-.305,0-.61.014-.916.022-.569.015-1.138.02-1.708.037-.53.015-1.062.031-1.588.092a1.518,1.518,0,0,0-1.044.377c-.062.073.053.146.127.114" transform="translate(-45.367 -50.929)" fill="#252f4b"/>
            <path id="Path_991290" data-name="Path 991290" d="M113.81,86.68a1.144,1.144,0,0,0-.452,1.146,3.537,3.537,0,0,0,1.241,2.218,3.964,3.964,0,0,0,4.385.462c1.085-.586,2.128-2.129,1.282-3.479a1.882,1.882,0,0,0-1.382-.763,7.793,7.793,0,0,0-1.7-.115c-.572.024-2.626.04-3.378.531" transform="translate(-63.542 -48.29)" fill="#252f4b"/>
            <path id="Path_991291" data-name="Path 991291" d="M92.792,58.417a4.876,4.876,0,0,1,7.16,2.316,2.933,2.933,0,0,1,1.5-.975c.6-.1,1.316.309,1.3.916a2.921,2.921,0,0,1,1.971-.442,2.553,2.553,0,0,1,1.5,1.7,5.222,5.222,0,0,1,.4,2.539,2.763,2.763,0,0,1-1.351,2.1,3.178,3.178,0,0,1-1.07.308,4.259,4.259,0,0,1-2.448-.339,2.784,2.784,0,0,1-1.521-1.884A3.564,3.564,0,0,1,98.809,65.8a1.281,1.281,0,0,1-1.587-.557c-.156.678-.956.956-1.638,1.1a7.547,7.547,0,0,1-4.032.005,3.43,3.43,0,0,1-1.934-1.715c-.377-.8-.077-1.291.253-2.036.705-1.589,1.393-3.2,2.921-4.177" transform="translate(-50.141 -32.322)" fill="#a65b44"/>
            <path id="Path_991292" data-name="Path 991292" d="M70.958,358.377s-.839,4.623-.35,5.464c.631,1.086,4.294,3.541,7.846,4.869,3.748,1.4,5.324.316,5.184-1.156s-2.872-3.292-4.273-4.344-4.2-2.557-4.414-3.258a5.765,5.765,0,0,1,.07-2.067s-3.573-2.242-4.063.49" transform="translate(-39.497 -200.144)" fill="#ff8d6c"/>
            <path id="Path_991293" data-name="Path 991293" d="M83.638,373.571c-.13-1.362-2.478-3.022-3.938-4.1a2,2,0,0,0-1.561.33,1.652,1.652,0,0,0-.473,2.259s-1.156-.578-4.308-2.417a21.639,21.639,0,0,1-2.854-1.895,4.925,4.925,0,0,0,.1,2.1c.631,1.086,4.294,3.541,7.846,4.869,3.748,1.4,5.324.315,5.184-1.156" transform="translate(-39.497 -206.16)" fill="#252f4b"/>
            <path id="Path_991294" data-name="Path 991294" d="M109.427,359.752s-.654,4.652-.133,5.474c.673,1.06,4.432,3.368,8.034,4.553,3.8,1.251,5.333.1,5.134-1.361s-3-3.176-4.443-4.17-4.3-2.388-4.54-3.079a5.762,5.762,0,0,1-.012-2.068s-3.659-2.1-4.041.652" transform="translate(-61.157 -200.88)" fill="#ff8d6c"/>
            <path id="Path_991295" data-name="Path 991295" d="M122.463,374.532c-.184-1.356-2.6-2.921-4.1-3.935a1.991,1.991,0,0,0-1.547.392,1.652,1.652,0,0,0-.383,2.276s-1.178-.531-4.4-2.244a21.639,21.639,0,0,1-2.926-1.78,4.927,4.927,0,0,0,.187,2.1c.673,1.06,4.432,3.368,8.034,4.553,3.8,1.251,5.333.1,5.134-1.361" transform="translate(-61.157 -206.994)" fill="#252f4b"/>
            <path id="Path_991296" data-name="Path 991296" d="M77.42,182.653s-3.363,8.2-4.308,13.451-1.156,37.411-.946,39.2-1.681,27.428-1.681,27.428a6.763,6.763,0,0,0,2.942.525,3.021,3.021,0,0,0,2.207-.946S80.887,236.352,82.359,227s2.732-21.438,2.732-21.438h1.577s.105,21.543.315,31.316.21,10.4.21,10.4l.105,15.868s.315.526,2,.526a5.963,5.963,0,0,0,3.047-.946s4.2-28.688,4.939-38.041,1.261-23.645-.315-30.685-2.627-11.034-2.627-11.034a39.629,39.629,0,0,1-10.614.736c-5.566-.232-6.305-1.051-6.305-1.051" transform="translate(-39.513 -102.394)" fill="#de5552"/>
            <path id="Path_991297" data-name="Path 991297" d="M78.9,220.178l30.543,74.615a.482.482,0,0,0,.892-.363L79.741,218.917Z" transform="translate(-44.231 -122.724)" fill="#ffd972"/>
            <path id="Path_991298" data-name="Path 991298" d="M68.648,135.459a33.008,33.008,0,0,0-5.674,9.738c-2.522,6.375-4.554,9.738-4.064,12.821s4.974,12.961,5.254,14.011,1.121,4.414,2.452,5.745,3.164,1.984,3.585,1.844c0,0-1.9-4.271-1.763-4.717a1.114,1.114,0,0,1,.841-.49l1.011,2.162s.74-2.443.18-3.633-3.433-2.732-3.433-2.732-3.853-11.7-3.643-12.54,6.585-12.611,6.8-12.4a12.034,12.034,0,0,1,.49,2.382,8.674,8.674,0,0,0,2.172-4.344,10.688,10.688,0,0,0-1.261-5.6c-.49-1.121-2.942-2.242-2.942-2.242" transform="translate(-32.984 -75.938)" fill="#ffaa91"/>
            <path id="Path_991299" data-name="Path 991299" d="M85.284,128.962s2.224,5.1,6.778,4.887,3.783-4.624,3.783-4.624a11.168,11.168,0,0,1,2.452.911,4.406,4.406,0,0,1,1.191.841s1.012,3.978,1.993,6.71,1.22,5.008.239,6.759-2.162,3.274-2.162,4.465,1.436,8.687,1.436,8.687a28.292,28.292,0,0,1-9.773,1.366A32.4,32.4,0,0,1,80.5,157.283s2.032-6.761,1.892-9.423-.56-5.254-.56-5.254.771,0,1.331-2.1-.35-4.413-1.331-5.955a17.4,17.4,0,0,0-2.1-2.662,10.069,10.069,0,0,1,2.312-1.541,32.629,32.629,0,0,1,3.24-1.384" transform="translate(-44.697 -72.295)" fill="#252f4b"/>
            <path id="Path_991300" data-name="Path 991300" d="M305.54,239.333l.315,50.757h.946l.421-50.652Z" transform="translate(-171.284 -134.169)" fill="#767c8e"/>
            <path id="Path_991301" data-name="Path 991301" d="M306.884,292.532l.338-40.788c-.53.1-1.065.188-1.6.257l.25,40.363a3.5,3.5,0,0,1,1.013.168" transform="translate(-171.329 -141.126)" fill="#767c8e"/>
            <path id="Path_991302" data-name="Path 991302" d="M305.814,348.594l-.005-.056c-.4-3.91-3.479-7.273-7.446-5.98s-4.312,6.008-3.622,8.711a6.42,6.42,0,0,0,3.575,4.1,5.03,5.03,0,0,0,5.253-.759,7.007,7.007,0,0,0,2.226-4.5,7.428,7.428,0,0,0,.019-1.515m-1.736,1.187a4.871,4.871,0,0,1-1.549,3.131,3.5,3.5,0,0,1-3.655.529,4.468,4.468,0,0,1-2.487-2.852c-.48-1.88-.24-5.161,2.52-6.061s4.9,1.44,5.181,4.161c0,.013,0,.026,0,.039a5.149,5.149,0,0,1-.013,1.054" transform="translate(-165.071 -191.879)" fill="#6a7184"/>
            <path id="Path_991303" data-name="Path 991303" d="M293.71,298.968a3.392,3.392,0,0,0-3.429,1.94,11.546,11.546,0,0,0-1.135,4.267c-.084.67-.147,1.342-.23,2.012-.118.954-.3,2.152-.468,3.2a25.533,25.533,0,0,1-1.681,6.483,9.15,9.15,0,0,1-1.587,2.531,5.652,5.652,0,0,1-1.139.956c-.451.282-.955.479-1.386.789a.372.372,0,0,0,.186.688,3.935,3.935,0,0,0,2.574-1.171,8.211,8.211,0,0,0,1.729-2.145,18.884,18.884,0,0,0,1.973-5.824c.4-2.064.7-4.168.923-6.26a18.828,18.828,0,0,1,.74-4.144,4.667,4.667,0,0,1,1.021-1.8,4.206,4.206,0,0,1,1.908-.949c.264-.079.3-.517,0-.574" transform="translate(-158.359 -167.574)" fill="#3c455e"/>
            <path id="Path_991304" data-name="Path 991304" d="M337.795,228.513s-35.3,2.348-36.479,2.758a1.484,1.484,0,0,0,.578,2.837c1.763.181,35.852-2.137,36.2-2.627s-.3-2.968-.3-2.968" transform="translate(-168.426 -128.103)" fill="#3c455e"/>
            <path id="Path_991305" data-name="Path 991305" d="M382.31,200.215s1.261-33.838,2.837-40.458c.827-3.471,1.366-4.624,4.729-4.939s6.516.421,7.251,1.682-.1,2.942-1.261,2.837-5.569-1.892-6.936-.946-2.417,9.563-3.048,18.39-1.471,24.59-1.471,24.59Z" transform="translate(-214.321 -86.749)" fill="#8d92a0"/>
            <path id="Path_991306" data-name="Path 991306" d="M305.78,252l.631,19.756,34.468-3.678V249.377Z" transform="translate(-171.418 -139.8)" fill="#252f4b"/>
            <path id="Path_991307" data-name="Path 991307" d="M380.184,307.9c0,.049.007.1.013.149.112.038.224.08.335.121-.008-.58.022-1.189.019-1.778q-.007-1.527-.007-3.053c0-2.669-.016-5.339-.006-8.008.009-2.56.028-5.12.081-7.679.072-3.436.244-6.868.236-10.306-.005-2.2-.022-4.389.013-6.585s.091-4.387.017-6.579c-.018-.533-.055-1.063-.092-1.6-.011-.156-.25-.16-.246,0,.116,4.38-.119,8.76-.033,13.14.073,3.731-.078,7.453-.177,11.182-.065,2.462-.089,4.926-.114,7.39-.028,2.718-.061,5.435-.064,8.153q0,1.645,0,3.29c0,.714-.037,1.447.023,2.159" transform="translate(-213.11 -147.138)" fill="#d6d7dd"/>
            <path id="Path_991308" data-name="Path 991308" d="M379.1,266.081c-1.44,4.1-3.205,8.069-4.675,12.154-1.275,3.541-2.747,6.995-4.182,10.473-.938,2.273-1.837,4.563-2.737,6.852-1,2.542-2.005,5.083-2.981,7.635q-.587,1.536-1.17,3.075c-.09.239-.186.478-.281.717.111.077.215.163.33.236.031-.08.065-.161.1-.241q.538-1.429,1.082-2.856c.954-2.506,1.9-5.017,2.862-7.519.921-2.384,1.849-4.766,2.81-7.135,1.3-3.214,2.7-6.388,3.927-9.635.77-2.04,1.534-4.079,2.344-6.1s1.631-4.028,2.337-6.082c.171-.5.324-1,.477-1.506.046-.153-.185-.213-.237-.065" transform="translate(-203.536 -149.116)" fill="#d6d7dd"/>
            <path id="Path_991309" data-name="Path 991309" d="M378.018,279.331c-2.4,2.706-4.915,5.3-7.284,8.035-2.489,2.869-5.107,5.6-7.719,8.36-1.686,1.78-3.34,3.59-5,5.4-1.864,2.035-3.732,4.067-5.576,6.12q-.844.939-1.684,1.881c.084.1.167.2.252.3q.554-.622,1.109-1.243c1.8-2.012,3.594-4.032,5.405-6.036,1.714-1.9,3.434-3.787,5.181-5.653,2.4-2.568,4.879-5.065,7.213-7.7,1.423-1.606,2.85-3.2,4.309-4.778,1.336-1.442,2.68-2.879,3.954-4.376l-.166-.306" transform="translate(-196.634 -156.591)" fill="#d6d7dd"/>
            <path id="Path_991310" data-name="Path 991310" d="M376.032,297.533c-.034-.109-.066-.219-.1-.328-2.8,1.209-5.624,2.346-8.392,3.619-3.455,1.588-6.973,3-10.492,4.435-2.266.924-4.515,1.889-6.765,2.85-2.539,1.086-5.081,2.167-7.609,3.277q-1.005.442-2.009.886c.051.118.106.233.159.35.41-.181.819-.364,1.23-.544,2.47-1.088,4.935-2.189,7.409-3.266,2.349-1.023,4.7-2.038,7.068-3.019,3.244-1.344,6.523-2.6,9.73-4.031,1.983-.886,3.966-1.762,5.968-2.6,1.271-.535,2.544-1.067,3.8-1.625" transform="translate(-190.974 -166.611)" fill="#d6d7dd"/>
            <path id="Path_991311" data-name="Path 991311" d="M375.445,314.449c0-.115-.008-.229-.012-.344-3.118-.1-6.234-.273-9.354-.287-3.732-.017-7.449-.258-11.174-.447-2.46-.125-4.923-.208-7.384-.293-2.717-.094-5.433-.193-8.151-.261q-1.11-.028-2.219-.051c0,.129,0,.258,0,.387l1.329.029c2.668.062,5.337.113,8.005.187,2.559.072,5.117.152,7.674.266,3.434.155,6.86.41,10.3.485,2.2.047,4.388.083,6.584.171,1.467.059,2.934.124,4.4.156" transform="translate(-189.004 -175.335)" fill="#d6d7dd"/>
            <path id="Path_991312" data-name="Path 991312" d="M375.78,312.657c.024-.11.051-.22.073-.33-3.12-1.184-6.2-2.475-9.345-3.593-3.546-1.26-7.006-2.718-10.49-4.137-2.277-.928-4.571-1.818-6.863-2.709-2.547-.989-5.091-1.984-7.647-2.949q-1.29-.487-2.583-.971c-.035.125-.067.25-.1.375q.875.327,1.75.655c2.51.944,5.025,1.876,7.531,2.831,2.388.91,4.774,1.828,7.146,2.78,3.22,1.291,6.4,2.675,9.651,3.887,2.044.761,4.086,1.517,6.114,2.319,1.583.626,3.164,1.261,4.764,1.842" transform="translate(-189.943 -167.04)" fill="#d6d7dd"/>
            <path id="Path_991313" data-name="Path 991313" d="M376.765,310.545c-2.763-2.419-5.41-4.967-8.193-7.362-2.879-2.477-5.625-5.083-8.392-7.683-1.786-1.679-3.6-3.326-5.417-4.974-2.043-1.855-4.083-3.715-6.144-5.55q-1.244-1.109-2.493-2.213c-.164-.145-.326-.294-.49-.442-.069.116-.132.234-.2.351q1.124.991,2.243,1.986c2.03,1.8,4.067,3.595,6.088,5.406,1.908,1.71,3.811,3.427,5.688,5.17,2.593,2.409,5.116,4.888,7.778,7.223,1.6,1.4,3.183,2.81,4.748,4.248,1.513,1.39,3.021,2.789,4.6,4.107.062-.087.123-.177.184-.266" transform="translate(-193.65 -158.267)" fill="#d6d7dd"/>
            <path id="Path_991314" data-name="Path 991314" d="M378.387,308.611c-1.837-3.849-3.366-7.833-5.163-11.7-1.6-3.448-3.029-6.96-4.479-10.473-.934-2.262-1.907-4.507-2.879-6.753-1.1-2.535-2.188-5.071-3.309-7.6q-.676-1.523-1.358-3.044c-.294-.656-.556-1.345-.9-1.974-.051-.092-.11-.183-.155-.278-.087-.188-.364-.025-.277.162.254.547.48,1.132.731,1.689q.636,1.412,1.266,2.826c1.1,2.465,2.209,4.925,3.3,7.4,1.033,2.345,2.058,4.693,3.048,7.056,1.358,3.238,2.624,6.512,4.071,9.714.884,1.956,1.759,3.912,2.6,5.887.827,1.944,1.641,3.895,2.564,5.8.233.478.482.947.732,1.417.075.141.28.017.212-.124" transform="translate(-201.729 -149.517)" fill="#d6d7dd"/>
            <path id="Path_991315" data-name="Path 991315" d="M375.31,280.41c-.007-.068-.013-.137-.02-.205-1.471-14.292-12.715-26.587-27.218-21.858s-15.763,21.963-13.241,31.841A23.465,23.465,0,0,0,347.9,305.171a18.385,18.385,0,0,0,19.2-2.777c4.743-4.105,7.44-10.292,8.139-16.448a27.14,27.14,0,0,0,.07-5.536m-3.3,4.919a21.594,21.594,0,0,1-6.864,13.872,15.506,15.506,0,0,1-16.194,2.342,19.791,19.791,0,0,1-11.021-12.636c-2.127-8.331-1.063-22.866,11.167-26.854s21.714,6.381,22.955,18.435c.006.057.011.116.017.173a22.868,22.868,0,0,1-.059,4.669" transform="translate(-187.125 -144.251)" fill="#6a7184"/>
            <path id="Path_991316" data-name="Path 991316" d="M380.409,309.26l0-.026c-.189-1.835-1.632-3.412-3.493-2.806s-2.023,2.819-1.7,4.087a3.013,3.013,0,0,0,1.677,1.923,2.361,2.361,0,0,0,2.465-.356,3.284,3.284,0,0,0,1.044-2.111,3.49,3.49,0,0,0,.009-.71" transform="translate(-210.268 -171.708)" fill="#6a7184"/>
            <path id="Path_991317" data-name="Path 991317" d="M307.081,355.763v-.012c-.083-.814-.725-1.515-1.551-1.246a1.464,1.464,0,0,0-.754,1.815,1.336,1.336,0,0,0,.745.854,1.047,1.047,0,0,0,1.094-.158,1.461,1.461,0,0,0,.464-.937,1.546,1.546,0,0,0,0-.315" transform="translate(-170.821 -198.701)" fill="#1a2442"/>
            <path id="Path_991318" data-name="Path 991318" d="M356.515,364.857l-.005-.056c-.4-3.909-3.479-7.273-7.446-5.979s-4.312,6.008-3.622,8.711a6.419,6.419,0,0,0,3.575,4.1,5.03,5.03,0,0,0,5.253-.76,7,7,0,0,0,2.226-4.5,7.43,7.43,0,0,0,.019-1.515m-1.736,1.187a4.872,4.872,0,0,1-1.549,3.131,3.5,3.5,0,0,1-3.655.529,4.468,4.468,0,0,1-2.487-2.852c-.48-1.88-.24-5.161,2.52-6.061s4.9,1.44,5.181,4.161c0,.013,0,.026,0,.039a5.148,5.148,0,0,1-.013,1.054" transform="translate(-193.494 -200.996)" fill="#1a2442"/>
            <path id="Path_991319" data-name="Path 991319" d="M344.411,315.231a3.392,3.392,0,0,0-3.429,1.94,11.537,11.537,0,0,0-1.135,4.268c-.084.67-.147,1.342-.23,2.012-.118.954-.3,2.152-.468,3.2a25.531,25.531,0,0,1-1.681,6.483,9.143,9.143,0,0,1-1.587,2.531,5.65,5.65,0,0,1-1.139.956c-.451.282-.955.479-1.386.789a.372.372,0,0,0,.186.688,3.935,3.935,0,0,0,2.574-1.171,8.211,8.211,0,0,0,1.729-2.145,18.884,18.884,0,0,0,1.973-5.824c.4-2.064.7-4.168.923-6.26a18.827,18.827,0,0,1,.74-4.144,4.665,4.665,0,0,1,1.021-1.8,4.206,4.206,0,0,1,1.908-.949c.264-.079.3-.517,0-.574" transform="translate(-186.781 -176.691)" fill="#3c455e"/>
            <path id="Path_991320" data-name="Path 991320" d="M270.422,348.388a94.21,94.21,0,0,1,11.349,2.627c4.939,1.471,14.712,4.834,15.132,5.885s-4.729,7.356-6.2,7.356-27.533-7.567-28.268-8.933,7.987-6.936,7.987-6.936" transform="translate(-147.095 -195.304)" fill="#3c455e"/>
            <path id="Path_991321" data-name="Path 991321" d="M278.8,350.781a13.151,13.151,0,0,0-.263,2.785,1.706,1.706,0,0,1-1.471,2.259c-1.734.42-10.246.841-11.717-.263s-.367-1.724,2-2.417c3.047-.893,5.044-1.156,5.99-1.787a8.813,8.813,0,0,0,1.944-2.732Z" transform="translate(-148.381 -195.438)" fill="#ff8d6c"/>
            <path id="Path_991322" data-name="Path 991322" d="M278.506,358.319c-.26.075-.526.131-.763.183-.707.154-1.418.293-2.132.406a24.436,24.436,0,0,1-3.495.281,16.144,16.144,0,0,1-1.756-.039,2.281,2.281,0,0,1-1.465-.474.567.567,0,0,1-.055-.7c-.469.123-.959.255-1.493.412-2.364.693-3.468,1.314-2,2.417s9.983.683,11.717.263a1.706,1.706,0,0,0,1.471-2.259,1.834,1.834,0,0,1-.033-.487" transform="translate(-148.381 -200.678)" fill="#de5552"/>
            <path id="Path_991323" data-name="Path 991323" d="M315.08,359.99a13.147,13.147,0,0,0,0,2.8,1.707,1.707,0,0,1-1.256,2.386c-1.688.579-10.125,1.783-11.692.82s-.524-1.683,1.765-2.591c2.952-1.171,4.916-1.617,5.8-2.332a8.818,8.818,0,0,0,1.684-2.9Z" transform="translate(-168.952 -200.788)" fill="#ff8d6c"/>
            <path id="Path_991324" data-name="Path 991324" d="M315,367.581c-.252.1-.512.179-.743.253-.689.219-1.385.422-2.086.6a24.4,24.4,0,0,1-3.454.6,16.133,16.133,0,0,1-1.752.123,2.279,2.279,0,0,1-1.5-.336.567.567,0,0,1-.119-.694c-.456.166-.932.343-1.449.548-2.289.908-3.332,1.628-1.765,2.591s10-.241,11.691-.82a1.706,1.706,0,0,0,1.256-2.386,1.831,1.831,0,0,1-.078-.482" transform="translate(-168.952 -206.064)" fill="#de5552"/>
            <path id="Path_991325" data-name="Path 991325" d="M380.534,178.647s20.247,1.051,20.527,2.592-4.063,34.188-2.8,40.914-1.751,6.831-1.751,6.831l-27.113-3.748s.981-29.424,3.083-36.15a34.045,34.045,0,0,1,5.254-10.579Z" transform="translate(-207.081 -100.07)" fill="#1a2442"/>
            <path id="Path_991326" data-name="Path 991326" d="M378.654,118.51a7.969,7.969,0,0,0-8.172-3.555c-5.727.841-5.78,7.251-7.619,9.773s-4.834,4.519-4.1,7.409,3.468,3.678,2.575,6.148-3.625,3.415-3.048,6.305,2.1,6.883,11.98,7.566,14.4-2.574,15.973-4.308-.578-5.938.21-7.934,2.785-4.886,1.576-7.513-3.363-3.363-3.1-5.307.526-4.046-1.524-6.043a10.6,10.6,0,0,0-4.754-2.54" transform="translate(-200.812 -64.383)" fill="#ffeec1"/>
            <path id="Path_991327" data-name="Path 991327" d="M319.031,164.193s-.771-3.3-.421-4,2.557-2.942,2.277-3.433-2.207.981-2.207.981-.631-5.464-1.016-6.1-.6.736-.56,2.031.105,2.137.105,2.137-1.436-4.764-2-4.729-.195,2.14.175,3.521c.333,1.243.438,1.734.438,1.734s-1.664-3.958-2.259-3.783.018,2.119.368,2.925.648,1.7.648,1.7-1.541-2.452-2.1-2.067.963,2.364,1.489,3.17c.438,1.279,1.068,2.82,1.068,2.82s.341,2.119.631,3.678a4.9,4.9,0,0,0,.657,1.936Z" transform="translate(-175.106 -84.697)" fill="#ff8d6c"/>
            <path id="Path_991328" data-name="Path 991328" d="M318.853,180.935a21.915,21.915,0,0,0,2.522-.771,6.184,6.184,0,0,0,1.4-.7s2.382,6.516,3.363,7.916,1.821,2.522,1.821,2.522,6.8-4.2,10.088-6.1,4.764-2.732,6.235-3.013a8.108,8.108,0,0,1,2.1-.21S341.482,191.3,341.2,192s-12.309,4.928-15.623,3.853c-5.184-1.681-6.726-14.922-6.726-14.922" transform="translate(-178.747 -100.606)" fill="#de5552"/>
            <path id="Path_991329" data-name="Path 991329" d="M329.693,280.069s-25.221,7.566-25.5,8.687a3.793,3.793,0,0,0,.14,2.242c.14.7,22,7.426,22.558,6.726s.7-3.923,4.064-4.764,24.1-6.726,24.1-6.726-9.387-4.484-14.151-4.624a75.508,75.508,0,0,1-11.209-1.541" transform="translate(-170.461 -157.005)" fill="#1a2442"/>
            <path id="Path_991330" data-name="Path 991330" d="M319.26,263.285s-23.329,6.2-25.116,8.407-8.933,31.106-8.933,31.106a5.89,5.89,0,0,0,2.837.841,6.477,6.477,0,0,0,2.312-.105s7.566-22.909,9.037-23.329,26.167-4.729,28.268-6.1,2.943-10.193,2.1-10.719-10.509-.105-10.509-.105" transform="translate(-159.888 -147.507)" fill="#9da1ae"/>
            <path id="Path_991331" data-name="Path 991331" d="M343.509,262.548s1.787,2.417,1.156,3.783-13.977,6.515-16.709,10.929-5.675,28.583-5.675,28.583a5.154,5.154,0,0,0,2.207,1.051,3.649,3.649,0,0,0,2.417,0s7.146-23.434,8.512-24.275,24.177-6.563,27.112-7.987c3.468-1.682.421-10.3-.525-11.875s-18.5-.21-18.5-.21" transform="translate(-180.669 -146.875)" fill="#afb2bd"/>
            <path id="Path_991332" data-name="Path 991332" d="M381.726,167.281s.455,2.837.105,3.783-3.047,2.417-3.047,2.417-1.717,4.519,1.541,5.43,6.621-2.347,7.951-3.959,1.577-2,1.577-2-2.382-1.576-2.452-2.732-.245-3.993-.245-3.993a29.9,29.9,0,0,1-5.429,1.051" transform="translate(-212.09 -93.188)" fill="#ff8d6c"/>
            <path id="Path_991333" data-name="Path 991333" d="M368.828,180.751s-3.5.911-3.853,1.751-3.783,10.579-3.5,12.47,1.892,4.694,2.592,6.165-2.172,13.591-3.082,14.432a15.654,15.654,0,0,0-1.471,1.541,82.159,82.159,0,0,1,12.47,2.382c5.745,1.681,12.05.771,12.54.421s-3.013-13.662-2.522-18.005,4.554-16.6,4.554-16.6.07-.7-2.452-2.592a14.725,14.725,0,0,0-4.9-2.452s-3.433,6.025-8.477,5.955c-3.894-.054-1.892-5.464-1.892-5.464" transform="translate(-201.539 -101.053)" fill="#de5552"/>
            <g id="Group_1182241" data-name="Group 1182241" transform="translate(157.971 79.208)" style="mix-blend-mode: multiply;isolation: isolate">
              <g id="Group_1182240" data-name="Group 1182240">
                <g id="Group_1182239" data-name="Group 1182239" clip-path="url(#clip-path-14)">
                  <path id="Path_991334" data-name="Path 991334" d="M368.828,180.751s-3.5.911-3.853,1.751-3.783,10.579-3.5,12.47,1.892,4.694,2.592,6.165-2.172,13.591-3.082,14.432a15.654,15.654,0,0,0-1.471,1.541,82.159,82.159,0,0,1,12.47,2.382c5.745,1.681,12.05.771,12.54.421s-3.013-13.662-2.522-18.005,4.554-16.6,4.554-16.6.07-.7-2.452-2.592a14.725,14.725,0,0,0-4.9-2.452s-3.433,6.025-8.477,5.955c-3.894-.054-1.892-5.464-1.892-5.464" transform="translate(-359.51 -180.261)" fill="#e8e9ec"/>
                </g>
              </g>
            </g>
            <g id="Group_1182244" data-name="Group 1182244" transform="translate(169.635 73.043)" style="mix-blend-mode: multiply;isolation: isolate">
              <g id="Group_1182243" data-name="Group 1182243">
                <g id="Group_1182242" data-name="Group 1182242" clip-path="url(#clip-path-15)">
                  <path id="Path_991335" data-name="Path 991335" d="M387,169.469a14.86,14.86,0,0,0,2.1-.095,7.485,7.485,0,0,0,2.419-.72c.041-.02.079-.043.12-.063l-.145-2.36a29.912,29.912,0,0,1-5.43,1.051s.174,1.081.224,2.13c.242.029.483.049.716.057" transform="translate(-386.056 -166.231)" fill="#c6c8d0"/>
                </g>
              </g>
            </g>
            <path id="Path_991336" data-name="Path 991336" d="M375.054,122.522a25.094,25.094,0,0,0-2.312,9.808c.07,4.9,1.471,9.528,6.375,10.159a10.35,10.35,0,0,0,10.018-4.834c1.471-2.452,1.611-5.535.771-9.6s-5.254-7.076-7.286-7.286-7.566,1.751-7.566,1.751" transform="translate(-208.956 -67.695)" fill="#ff8d6c"/>
            <path id="Path_991337" data-name="Path 991337" d="M410.427,145.861s1.179-1.984,2.252-1.823,1.555,1.609.322,3.325a3.22,3.22,0,0,1-2.949,1.447Z" transform="translate(-229.873 -80.742)" fill="#ff8d6c"/>
            <path id="Path_991338" data-name="Path 991338" d="M407.089,134.625a14.145,14.145,0,0,1-3.363-5.307c-1.261-3.468-1-5.254-1-5.254l.946-.841a6.924,6.924,0,0,1,3.573,2.522,11.236,11.236,0,0,1,1.313,5.517c0,1.1-1.471,3.363-1.471,3.363" transform="translate(-225.754 -69.078)" fill="#ffeec1"/>
            <path id="Path_991339" data-name="Path 991339" d="M379.111,116.823c-4.214-1.337-8.185.178-10.078,3.8a25.6,25.6,0,0,0-1.668,5.527,32.877,32.877,0,0,0-.96,4.492c.658-.476.93-1.41,1.488-1.987a13.561,13.561,0,0,1,2.1-1.488c1.327-.937,1.372-2.743,2.659-3.633a9.243,9.243,0,0,1,3.691-1.125c2.3-.4,6.3-.117,6.907-3.064a8.827,8.827,0,0,0-4.136-2.524" transform="translate(-205.405 -65.221)" fill="#ffeec1"/>
            <g id="Group_1182247" data-name="Group 1182247" transform="translate(168.609 62.552)" style="mix-blend-mode: multiply;isolation: isolate">
              <g id="Group_1182246" data-name="Group 1182246">
                <g id="Group_1182245" data-name="Group 1182245" clip-path="url(#clip-path-16)">
                  <path id="Path_991340" data-name="Path 991340" d="M385.586,142.461a23.939,23.939,0,0,0,.106,2.664,2.441,2.441,0,0,1-.061,1.139c-.146.31-.52.336-.791.393-.364.076-1.158.15-1.118.744.036.516.653.711,1.016.8s1.281.344,1.492-.192c.032-.081-.02-.166-.1-.148a2.754,2.754,0,0,1-1.622-.141,1.008,1.008,0,0,1-.351-.207c-.171-.172-.025-.26.135-.321.265-.1.539-.162.808-.24a1.038,1.038,0,0,0,.641-.466,2,2,0,0,0,.13-1.075,11.163,11.163,0,0,1-.059-1.248c.02-.567-.018-1.138-.033-1.7a.1.1,0,1,0-.193,0" transform="translate(-383.721 -142.355)" fill="#afb2bd"/>
                </g>
              </g>
            </g>
            <path id="Path_991341" data-name="Path 991341" d="M395.318,146.056a6.614,6.614,0,0,1,.181-.975,1.266,1.266,0,0,1,.551-.751.905.905,0,0,1,1,.122,1.7,1.7,0,0,1,.412.946c.036.174.048.359.1.529a.406.406,0,0,0,.237.278.224.224,0,0,0,.275-.145,1.2,1.2,0,0,0-.048-.586,4.641,4.641,0,0,0-.134-.558,1.368,1.368,0,0,0-.778-.886,1.568,1.568,0,0,0-1.21,0,1.535,1.535,0,0,0-.721.888,2.313,2.313,0,0,0-.154,1.137c.022.131.264.13.287,0" transform="translate(-221.44 -80.675)" fill="#313a55"/>
            <path id="Path_991342" data-name="Path 991342" d="M377.3,146.792a6.546,6.546,0,0,1,.18-.975,1.266,1.266,0,0,1,.551-.751.907.907,0,0,1,1,.122,1.7,1.7,0,0,1,.412.946c.036.174.048.359.1.529a.4.4,0,0,0,.237.278.225.225,0,0,0,.276-.145,1.2,1.2,0,0,0-.049-.586,4.715,4.715,0,0,0-.133-.558,1.37,1.37,0,0,0-.778-.886,1.568,1.568,0,0,0-1.21,0,1.534,1.534,0,0,0-.72.888,2.307,2.307,0,0,0-.154,1.137c.022.131.264.13.287,0" transform="translate(-211.34 -81.087)" fill="#313a55"/>
            <path id="Path_991343" data-name="Path 991343" d="M382.265,157.921s7.558-1.206,7.842-.77.317,2.8-3.257,3.311a3.944,3.944,0,0,1-4.585-2.541" transform="translate(-214.296 -88.045)" fill="#313a55"/>
            <path id="Path_991344" data-name="Path 991344" d="M386.922,158.355a5.258,5.258,0,0,0,1.817-.356,1.8,1.8,0,0,0,.7-.513,1.109,1.109,0,0,0,.172-.357c-1.7.118-4.525.532-5.812.728.714.782,2.186.558,3.119.5" transform="translate(-215.158 -88.086)" fill="#fff"/>
            <path id="Path_991345" data-name="Path 991345" d="M395.5,160.591a2.317,2.317,0,0,0-1.554,1.008,4.121,4.121,0,0,0-.469.78,3.7,3.7,0,0,0,2.745-1.643,1.491,1.491,0,0,0-.722-.145" transform="translate(-220.58 -90.025)" fill="#de5552"/>
            <path id="Path_991346" data-name="Path 991346" d="M378.6,139.586a2.124,2.124,0,0,0-.924-.259,1.539,1.539,0,0,0-.816.235,1.976,1.976,0,0,0-.616.626,1.468,1.468,0,0,0-.264.89.153.153,0,0,0,.258.107,4.645,4.645,0,0,0,.484-.648l.054-.073c.04-.054-.014.015.025-.032s.08-.094.124-.138.087-.083.132-.123l.063-.053c-.041.033.01-.007.025-.017a1.4,1.4,0,0,1,.137-.083l.071-.036c.062-.03-.033.009.027-.011s.111-.036.168-.051l.08-.019c.011,0,.1-.018.048-.011a1.794,1.794,0,0,1,.765.072c.22.068.371-.272.159-.377" transform="translate(-210.77 -78.106)" fill="#ffeec1"/>
            <path id="Path_991347" data-name="Path 991347" d="M396.026,139.274a1.946,1.946,0,0,1,1.272-.009,2.174,2.174,0,0,1,1.074.659c.1.118.332.464.489.2.12-.2-.072-.515-.2-.665a2.162,2.162,0,0,0-1.218-.669,2.29,2.29,0,0,0-1.541.189c-.155.083-.046.361.122.29" transform="translate(-221.9 -77.777)" fill="#ffeec1"/>
            <path id="Path_991348" data-name="Path 991348" d="M356.241,255.6l.315,50.757h.946l.421-50.652Z" transform="translate(-199.707 -143.285)" fill="#8d92a0"/>
            <path id="Path_991349" data-name="Path 991349" d="M388.5,244.776s-35.3,2.348-36.479,2.758a1.484,1.484,0,0,0,.578,2.837c1.763.181,35.852-2.137,36.2-2.627s-.3-2.968-.3-2.968" transform="translate(-196.849 -137.22)" fill="#3c455e"/>
            <path id="Path_991350" data-name="Path 991350" d="M376.776,241.007s-3.958.28-5.079.455a8.883,8.883,0,0,0-3.363.876c-1.331.7-5.92,2.382-5.955,2.662s1.716.245,2.767-.245,1.472-.736,1.472-.736-1.646,1.016-1.927,1.681-.736,1.3,0,1.191,1.156-1.121,1.716-1.541a7.571,7.571,0,0,1,1.436-.771,8.184,8.184,0,0,0-1.611,1.366c-.351.526-.473,1.314-.053,1.243s.693-.632,1.419-1.383c.508-.526,1.857-1.331,1.576-.981-.455.368-.893.806-.841,1.331.07.7.7.805.7.56s.421-1.541,1.156-1.751,3.153-.876,3.713-1.121,2.452,0,3.678,0,1.3-1.646,1.261-2.031-2.067-.806-2.067-.806" transform="translate(-203.148 -135.107)" fill="#ff8d6c"/>
            <path id="Path_991351" data-name="Path 991351" d="M390.6,210.987a1.626,1.626,0,0,1,1.349.946,2.646,2.646,0,0,1,.053,2.312s7.846.245,12.47-1.576,4.624-3.223,4.484-4.975-3.17-15.377-4.712-18.04-3.363-2.627-5.2-1.366c-1.761,1.207-1.366,4.9-.315,7.567s3.573,8.337,3.923,10.3-12.05,4.834-12.05,4.834" transform="translate(-218.968 -105.087)" fill="#de5552"/>
            <path id="Path_991352" data-name="Path 991352" d="M433.011,216.478s1.261-33.838,2.837-40.458c.827-3.471,1.366-4.624,4.729-4.939s6.516.421,7.251,1.682-.105,2.942-1.261,2.837-5.569-1.892-6.936-.946-2.417,9.563-3.048,18.39-1.471,24.59-1.471,24.59Z" transform="translate(-242.743 -95.866)" fill="#8d92a0"/>
            <path id="Path_991353" data-name="Path 991353" d="M356.481,268.267l.631,19.756,34.468-3.678V265.64Z" transform="translate(-199.841 -148.916)" fill="#3c455e"/>
            <path id="Path_991354" data-name="Path 991354" d="M357.586,308.8l.338-40.788c-.53.1-1.065.189-1.6.257l.25,40.363a3.5,3.5,0,0,1,1.012.168" transform="translate(-199.753 -150.243)" fill="#8d92a0"/>
            <path id="Path_991355" data-name="Path 991355" d="M430.885,324.161c0,.049.007.1.013.149.113.038.224.08.335.121-.008-.58.022-1.189.018-1.778q-.007-1.526-.007-3.053c0-2.669-.016-5.339-.006-8.008.009-2.56.028-5.12.081-7.679.072-3.436.244-6.868.236-10.306-.006-2.2-.022-4.389.013-6.585s.091-4.387.017-6.579c-.018-.533-.054-1.063-.092-1.6-.011-.156-.25-.16-.246,0,.116,4.38-.12,8.76-.033,13.14.073,3.731-.078,7.453-.177,11.182-.065,2.462-.089,4.926-.114,7.389-.028,2.718-.061,5.436-.064,8.154q0,1.645,0,3.29c0,.714-.037,1.447.023,2.159" transform="translate(-241.532 -156.254)" fill="#c1c4cc"/>
            <path id="Path_991356" data-name="Path 991356" d="M429.8,282.343c-1.44,4.1-3.205,8.069-4.675,12.154-1.275,3.541-2.747,6.995-4.182,10.472-.938,2.273-1.837,4.563-2.737,6.852-1,2.543-2.005,5.083-2.981,7.635q-.587,1.536-1.17,3.075c-.09.239-.186.478-.281.718.111.077.215.162.33.236.031-.08.065-.161.1-.24q.538-1.429,1.082-2.856c.954-2.506,1.9-5.017,2.862-7.519.921-2.385,1.849-4.766,2.81-7.134,1.3-3.215,2.7-6.389,3.927-9.635.77-2.04,1.534-4.079,2.344-6.1s1.632-4.027,2.337-6.081c.171-.5.324-1,.477-1.506.046-.153-.185-.214-.237-.066" transform="translate(-231.959 -158.232)" fill="#c1c4cc"/>
            <path id="Path_991357" data-name="Path 991357" d="M428.72,295.594c-2.4,2.706-4.915,5.3-7.284,8.035-2.489,2.869-5.107,5.6-7.719,8.36-1.686,1.78-3.34,3.59-5,5.4-1.864,2.035-3.732,4.067-5.576,6.12q-.844.939-1.684,1.881c.084.1.167.2.252.3q.554-.622,1.109-1.243c1.8-2.012,3.594-4.032,5.405-6.036,1.714-1.9,3.434-3.787,5.181-5.653,2.4-2.568,4.879-5.065,7.213-7.7,1.423-1.606,2.85-3.2,4.309-4.778,1.336-1.442,2.68-2.879,3.954-4.376l-.165-.306" transform="translate(-225.057 -165.708)" fill="#c1c4cc"/>
            <path id="Path_991358" data-name="Path 991358" d="M426.734,313.8c-.034-.109-.066-.219-.1-.328-2.8,1.209-5.624,2.346-8.392,3.619-3.455,1.588-6.973,3-10.492,4.435-2.266.924-4.515,1.889-6.765,2.85-2.539,1.086-5.08,2.167-7.609,3.277q-1.006.442-2.009.886c.05.118.106.234.159.351l1.229-.545c2.47-1.088,4.935-2.189,7.409-3.266,2.349-1.023,4.7-2.038,7.068-3.018,3.245-1.345,6.523-2.6,9.73-4.031,1.983-.886,3.966-1.763,5.968-2.605,1.271-.535,2.544-1.067,3.8-1.625" transform="translate(-219.398 -175.728)" fill="#c1c4cc"/>
            <path id="Path_991359" data-name="Path 991359" d="M426.146,330.712c0-.115-.008-.229-.012-.344-3.118-.1-6.234-.272-9.354-.286-3.732-.017-7.449-.258-11.174-.447-2.46-.125-4.923-.208-7.384-.293-2.716-.094-5.433-.193-8.151-.261q-1.109-.028-2.219-.051c0,.129,0,.258,0,.387l1.329.029c2.668.062,5.337.113,8.005.187,2.559.071,5.117.152,7.674.266,3.434.154,6.86.41,10.3.484,2.2.047,4.389.083,6.584.172,1.467.059,2.934.124,4.4.156" transform="translate(-217.427 -184.452)" fill="#c1c4cc"/>
            <path id="Path_991360" data-name="Path 991360" d="M426.481,328.92c.024-.11.051-.22.073-.33-3.12-1.184-6.2-2.475-9.345-3.593-3.546-1.26-7.006-2.718-10.49-4.137-2.277-.928-4.571-1.818-6.864-2.709-2.546-.989-5.091-1.984-7.647-2.949q-1.291-.488-2.583-.971c-.035.125-.067.25-.1.376q.875.327,1.75.655c2.51.944,5.025,1.876,7.531,2.831,2.388.91,4.774,1.828,7.146,2.78,3.22,1.291,6.4,2.675,9.651,3.887,2.044.761,4.086,1.517,6.114,2.319,1.583.626,3.164,1.261,4.764,1.842" transform="translate(-218.365 -176.156)" fill="#c1c4cc"/>
            <path id="Path_991361" data-name="Path 991361" d="M427.466,326.808c-2.763-2.419-5.41-4.967-8.193-7.362-2.879-2.477-5.626-5.083-8.392-7.683-1.786-1.679-3.6-3.326-5.418-4.974-2.043-1.855-4.083-3.715-6.143-5.55q-1.244-1.109-2.493-2.213c-.164-.145-.326-.294-.49-.442-.069.116-.132.234-.2.351q1.124.991,2.243,1.986c2.03,1.8,4.067,3.595,6.088,5.406,1.908,1.71,3.811,3.427,5.688,5.171,2.593,2.409,5.116,4.888,7.778,7.223,1.6,1.4,3.183,2.81,4.748,4.248,1.513,1.39,3.021,2.789,4.6,4.107.062-.087.123-.177.184-.266" transform="translate(-222.073 -167.384)" fill="#c1c4cc"/>
            <path id="Path_991362" data-name="Path 991362" d="M429.088,324.874c-1.837-3.849-3.366-7.833-5.163-11.7-1.6-3.448-3.029-6.96-4.479-10.473-.934-2.262-1.907-4.507-2.879-6.753-1.1-2.535-2.188-5.071-3.309-7.6q-.676-1.523-1.358-3.044c-.294-.656-.556-1.345-.9-1.974-.051-.092-.11-.183-.154-.278-.087-.188-.364-.025-.278.162.254.547.48,1.132.731,1.689q.636,1.412,1.266,2.826c1.1,2.465,2.21,4.925,3.3,7.4,1.033,2.345,2.058,4.693,3.048,7.056,1.358,3.238,2.624,6.512,4.071,9.713.884,1.956,1.759,3.912,2.6,5.887.827,1.943,1.641,3.894,2.564,5.795.233.479.482.947.732,1.418.075.141.279.017.212-.124" transform="translate(-230.152 -158.633)" fill="#c1c4cc"/>
            <path id="Path_991363" data-name="Path 991363" d="M426.012,296.673q-.009-.1-.02-.205c-1.471-14.292-12.716-26.587-27.218-21.858s-15.763,21.963-13.241,31.841A23.465,23.465,0,0,0,398.6,321.434a18.385,18.385,0,0,0,19.2-2.777c4.743-4.105,7.44-10.292,8.139-16.448a27.109,27.109,0,0,0,.07-5.536m-3.3,4.919a21.594,21.594,0,0,1-6.864,13.872,15.506,15.506,0,0,1-16.194,2.342,19.791,19.791,0,0,1-11.021-12.636c-2.127-8.331-1.064-22.866,11.167-26.854s21.714,6.381,22.955,18.435c.006.058.011.116.017.173a22.869,22.869,0,0,1-.059,4.669" transform="translate(-215.548 -153.368)" fill="#1a2442"/>
            <path id="Path_991364" data-name="Path 991364" d="M431.11,325.523l0-.026c-.189-1.835-1.632-3.412-3.493-2.806s-2.024,2.819-1.7,4.087a3.013,3.013,0,0,0,1.677,1.923,2.361,2.361,0,0,0,2.465-.356,3.284,3.284,0,0,0,1.044-2.111,3.49,3.49,0,0,0,.009-.711" transform="translate(-238.691 -180.825)" fill="#1a2442"/>
            <path id="Path_991365" data-name="Path 991365" d="M357.782,372.026v-.012c-.083-.814-.725-1.515-1.551-1.246a1.464,1.464,0,0,0-.754,1.815,1.336,1.336,0,0,0,.745.854,1.047,1.047,0,0,0,1.094-.158,1.458,1.458,0,0,0,.464-.937,1.544,1.544,0,0,0,0-.315" transform="translate(-199.244 -207.818)" fill="#1a2442"/>
            <path id="Path_991366" data-name="Path 991366" d="M484.989,131.054c-.171.285-2.417,8.827-3.888,11.139s-18.39,4.623-19.756,4.729-6.515-.21-7.461.315-.946,1-.946,1,1.156.053,1.577.053,1.051-.036,1.051,1.366c0,1.944-2.942,2.049-2.942,2.049a1.477,1.477,0,0,0,1.156,1.1,1.877,1.877,0,0,0,1.275-.259s-.427.756.57.97a1.547,1.547,0,0,0,1.518-.5.758.758,0,0,0,.841.736,3.608,3.608,0,0,0,2.312-1.366c.736-.736,1.261-1.366,1.261-1.366s18.6-.526,22.489-1.682,7.251-14.187,7.776-16.393-5.885-3.468-6.831-1.892" transform="translate(-253.737 -73.073)" fill="#a65b44"/>
            <path id="Path_991367" data-name="Path 991367" d="M528.4,109.974a2.526,2.526,0,0,0-1.147-.451,4.54,4.54,0,0,0-4.069,1.726,9.376,9.376,0,0,0-1.7,3.827c-.026.714-.065,1.446-.12,2.183-.214,2.832-3.293,11.559-3.293,11.559s.946-.42,3.783.105a11.929,11.929,0,0,1,4.729,2,29.033,29.033,0,0,0,2.137-5.885c.736-3.153,3.328-10.649,0-14.712a4.364,4.364,0,0,0-.32-.348" transform="translate(-290.427 -61.379)" fill="#ffe7a5"/>
          </g>
        </g>
      </g>
    </g>
  </g>
</svg>
