<svg xmlns="http://www.w3.org/2000/svg" width="124" height="124" viewBox="0 0 124 124">
  <g id="img6" transform="translate(-1234.5 -458)">
    <g id="Ellipse_12108" data-name="Ellipse 12108" transform="translate(1241.5 465)" fill="#2142dc" stroke="#fff" stroke-width="7">
      <circle cx="55" cy="55" r="55" stroke="none"/>
      <circle cx="55" cy="55" r="58.5" fill="none"/>
    </g>
    <g id="Group_1181761" data-name="Group 1181761" transform="translate(1264.5 488)">
      <path id="Path_989691" data-name="Path 989691" d="M7,54a3,3,0,1,0,3,3A3,3,0,0,0,7,54Zm0,4a1,1,0,1,1,1-1A1,1,0,0,1,7,58Z" fill="#a8b8ff"/>
      <path id="Path_989692" data-name="Path 989692" d="M57,54a3,3,0,1,0,3,3A3,3,0,0,0,57,54Zm0,4a1,1,0,1,1,1-1A1,1,0,0,1,57,58Z" fill="#a8b8ff"/>
      <path id="Path_989693" data-name="Path 989693" d="M62,27H60a3,3,0,0,0-2.816,2H45V28a1,1,0,0,0-1-1H34a7.008,7.008,0,0,0-7,7v1H25.46A5.99,5.99,0,0,0,21,25H16a4.994,4.994,0,0,0-4-2,1,1,0,0,0-1,1V35H9V18a1,1,0,0,0-1-1H4a1,1,0,0,0-1,1V35H2a1,1,0,0,0-1,1v4a1,1,0,0,0,1,1H4V51.812a6,6,0,1,0,6,0V51H54v.812a6,6,0,1,0,6,0V41h2a1,1,0,0,0,1-1V28A1,1,0,0,0,62,27Zm-2,2h1v6H59V30A1,1,0,0,1,60,29Zm-3,2v4H45V34h2V32H45V31ZM29,34a5.006,5.006,0,0,1,5-5h9v3H31v2H43v1H29Zm-8-7a4,4,0,0,1,1.793,7.575A5.009,5.009,0,0,0,18,31H17V28a4.988,4.988,0,0,0-.1-1Zm-8-1.829A3.006,3.006,0,0,1,15,28v4a1,1,0,0,0,1,1h2a3.006,3.006,0,0,1,2.829,2H13ZM5,19H7V35H5ZM7,61a4,4,0,1,1,4-4A4,4,0,0,1,7,61ZM7,51a6,6,0,0,0-1,.09V41H8V51.09A6,6,0,0,0,7,51Zm47-6H10V41H54ZM10,49V47H54v2ZM57,61a4,4,0,1,1,4-4A4,4,0,0,1,57,61Zm1-9.91a5.6,5.6,0,0,0-2,0V41h2ZM61,39H3V37H61Z" fill="#a8b8ff"/>
      <path id="Path_989694" data-name="Path 989694" d="M62,8H56V2a1,1,0,0,0-1-1H49a1,1,0,0,0-1,1V8H42a1,1,0,0,0-1,1v6a1,1,0,0,0,1,1h6v6a1,1,0,0,0,1,1h6a1,1,0,0,0,1-1V16h6a1,1,0,0,0,1-1V9A1,1,0,0,0,62,8Zm-1,6H55a1,1,0,0,0-1,1v6H50V15a1,1,0,0,0-1-1H43V10h6a1,1,0,0,0,1-1V3h4V9a1,1,0,0,0,1,1h6Z" fill="#a8b8ff"/>
    </g>
  </g>
</svg>
