<svg xmlns="http://www.w3.org/2000/svg" width="124" height="124" viewBox="0 0 124 124">
  <g id="img7" transform="translate(-1234.5 -458)">
    <g id="Ellipse_12108" data-name="Ellipse 12108" transform="translate(1241.5 465)" fill="#2142dc" stroke="#fff" stroke-width="7">
      <circle cx="55" cy="55" r="55" stroke="none"/>
      <circle cx="55" cy="55" r="58.5" fill="none"/>
    </g>
    <g id="Group_1181760" data-name="Group 1181760" transform="translate(1264.5 488)">
      <path id="Path_989686" data-name="Path 989686" d="M22,37a7.008,7.008,0,0,0,7-7H27a5,5,0,0,1-10,0H15A7.008,7.008,0,0,0,22,37Z" fill="#a8b8ff"/>
      <path id="Path_989687" data-name="Path 989687" d="M13.5,26h5a3.5,3.5,0,0,0,0-7h-5a3.5,3.5,0,0,0,0,7Zm0-5h5a1.483,1.483,0,0,1,.5.092,1.491,1.491,0,0,0,0,2.816,1.483,1.483,0,0,1-.5.092h-5a1.5,1.5,0,0,1,0-3Z" fill="#a8b8ff"/>
      <path id="Path_989688" data-name="Path 989688" d="M30.5,19h-5a3.5,3.5,0,0,0,0,7h5a3.5,3.5,0,0,0,0-7Zm0,5h-5a1.483,1.483,0,0,1-.5-.092,1.491,1.491,0,0,0,0-2.816A1.483,1.483,0,0,1,25.5,21h5a1.5,1.5,0,0,1,0,3Z" fill="#a8b8ff"/>
      <path id="Path_989689" data-name="Path 989689" d="M21,26h2v4H21Z" fill="#a8b8ff"/>
      <path id="Path_989690" data-name="Path 989690" d="M49,35a13.942,13.942,0,0,0-9.581,3.819A8.96,8.96,0,0,0,34,37H31.779a13.949,13.949,0,0,0,4.175-9.1A5,5,0,0,0,36,18.1V8a7.008,7.008,0,0,0-7-7H15A7.008,7.008,0,0,0,8,8V18.1a5,5,0,0,0,.046,9.8A13.949,13.949,0,0,0,12.221,37H10a9.01,9.01,0,0,0-9,9V62a1,1,0,0,0,1,1H42a1,1,0,0,0,1-1v-.37A13.993,13.993,0,1,0,49,35ZM60.949,48H59a3,3,0,0,0-6,0H50V45h0a3,3,0,0,0,0-6V37.051A12.006,12.006,0,0,1,60.949,48ZM48,37.051v3.217a1,1,0,0,0,1.5.866A.987.987,0,0,1,50,41a1,1,0,0,1,0,2,.983.983,0,0,1-.5-.133,1,1,0,0,0-1.5.864V48H43.732a1,1,0,0,0-.866,1.5,1,1,0,1,1-1.732,0,1,1,0,0,0-.866-1.5H37.051A12.006,12.006,0,0,1,48,37.051ZM48,59v1.949A12.006,12.006,0,0,1,37.051,50H39a3,3,0,0,0,6,0h3v3a3,3,0,0,0,0,6ZM36,39.292A6.936,6.936,0,0,1,38.051,40.3,13.987,13.987,0,0,0,36,43.834ZM16,39.63a13.824,13.824,0,0,0,12,0V45a6,6,0,0,1-12,0ZM38,23a3,3,0,0,1-2,2.816V20.185A2.994,2.994,0,0,1,38,23ZM15,3H29a5.006,5.006,0,0,1,5,5v3.667l-2,2.667L29.8,11.4a1,1,0,0,0-1.695.153l-.92,1.841-1.237-3.71A1,1,0,0,0,24.1,9.552L22,13.764,19.9,9.553a1,1,0,0,0-1.843.131l-1.237,3.71-.92-1.841a1,1,0,0,0-1.7-.153L12,14.333l-2-2.667V8A5.006,5.006,0,0,1,15,3ZM6,23a3,3,0,0,1,2-2.816v5.631A2.994,2.994,0,0,1,6,23Zm4,4V15l1.2,1.6a1.036,1.036,0,0,0,1.6,0l2.029-2.706L16.1,16.447a1,1,0,0,0,1.843-.131l1.237-3.71,1.92,3.841a1.041,1.041,0,0,0,1.789,0l1.92-3.841,1.237,3.71a1,1,0,0,0,.877.681L27,17a1,1,0,0,0,.9-.553l1.276-2.553L31.2,16.6a1.036,1.036,0,0,0,1.6,0L34,15V27a12,12,0,0,1-24,0Zm4,12v6a8,8,0,0,0,16,0V39h4V61H10V39ZM3,46a7.01,7.01,0,0,1,5-6.705V61H3ZM41,61H36V54.166a14.059,14.059,0,0,0,5,6.306Zm9-.051V57.732a1,1,0,0,0-1.5-.866,1,1,0,1,1,0-1.733,1,1,0,0,0,1.5-.864V50h4.268a1,1,0,0,0,.866-1.5,1,1,0,1,1,1.733,0,1,1,0,0,0,.864,1.5h3.218A12.006,12.006,0,0,1,50,60.949Z" fill="#a8b8ff"/>
    </g>
  </g>
</svg>
