<svg xmlns="http://www.w3.org/2000/svg" xmlns:xlink="http://www.w3.org/1999/xlink" width="170.915" height="118.067" viewBox="0 0 170.915 118.067">
  <defs>
    <clipPath id="clip-path">
      <rect id="Rectangle_454744" data-name="Rectangle 454744" width="170.915" height="118.067" transform="translate(-10)" fill="none"/>
    </clipPath>
    <clipPath id="clip-path-2">
      <rect id="Rectangle_454740" data-name="Rectangle 454740" width="189.955" height="69.66" fill="none"/>
    </clipPath>
    <clipPath id="clip-path-3">
      <rect id="Rectangle_454741" data-name="Rectangle 454741" width="168.954" height="55.966" fill="none"/>
    </clipPath>
    <clipPath id="clip-path-4">
      <rect id="Rectangle_454742" data-name="Rectangle 454742" width="125.767" height="88.793" fill="none"/>
    </clipPath>
  </defs>
  <g id="img19" transform="translate(7413.887 6370.326)">
    <rect id="Rectangle_454739" data-name="Rectangle 454739" width="159.289" height="118.067" transform="translate(-7402.261 -6370.326)" fill="#a8b8ff"/>
    <g id="Group_1182539" data-name="Group 1182539" transform="translate(-7403.887 -6370.326)">
      <g id="Group_1182538" data-name="Group 1182538" transform="translate(0 0)" clip-path="url(#clip-path)">
        <g id="Group_1182531" data-name="Group 1182531" transform="translate(-13.773 -8.227)" opacity="0.5" style="mix-blend-mode: soft-light;isolation: isolate">
          <g id="Group_1182530" data-name="Group 1182530">
            <g id="Group_1182529" data-name="Group 1182529" clip-path="url(#clip-path-2)">
              <path id="Path_995569" data-name="Path 995569" d="M189.89,22.759c-4.792-6.625-9.733-13.433-16.675-18.02C166.947.6,159.461-1.191,152.1.842c-6.931,1.913-12.91,6.552-17.422,11.993-5.191,6.26-8.577,13.758-11.885,21.1C116.756,47.323,109.383,63.3,93.847,67.755c-8.5,2.435-17.594.827-25.77-2.021-8.354-2.91-16.162-7.13-24.459-10.181-7.837-2.881-16.45-4.83-24.8-3.247C12.239,53.553,5.841,57.161,2.136,62.786A19.333,19.333,0,0,0,.022,67.107c-.15.432.541.618.69.188C3.032,60.593,9.106,55.9,15.772,53.8c7.952-2.5,16.556-1.2,24.335,1.29C56.03,60.188,70.98,71.2,88.481,69.48a31.554,31.554,0,0,0,19.089-9.214c5.165-5.067,8.923-11.34,12.059-17.783,6.737-13.843,11.857-30.073,26.146-38.213A24.555,24.555,0,0,1,167.12,2.34c7.8,3.041,13.605,9.355,18.528,15.845,1.233,1.626,2.428,3.278,3.624,4.931.266.367.887.014.618-.358" transform="translate(0 -0.001)" fill="#dedcff"/>
            </g>
          </g>
        </g>
        <g id="Group_1182534" data-name="Group 1182534" transform="translate(1.583 14.35)" opacity="0.5" style="mix-blend-mode: soft-light;isolation: isolate">
          <g id="Group_1182533" data-name="Group 1182533">
            <g id="Group_1182532" data-name="Group 1182532" clip-path="url(#clip-path-3)">
              <path id="Path_995570" data-name="Path 995570" d="M233.215,98.6c-10.083-5.69-22.812-2.562-31.829,3.717-10.291,7.167-17.016,18.008-24.715,27.6-7.5,9.345-16.744,18.334-29.053,20.573-14.074,2.561-27.838-3.092-40.838-7.656-12.045-4.229-25.446-8-38.091-3.938a32.055,32.055,0,0,0-4.19,1.686c-.276.134-.034.541.241.408,12.18-5.905,26.223-2.977,38.462,1.114,12.785,4.273,25.623,10.1,39.43,9.423a36.673,36.673,0,0,0,17.31-5.285A59.053,59.053,0,0,0,173.076,134.9c8.149-9.1,14.385-19.824,23.48-28.1,8.485-7.72,20.9-13.355,32.483-9.552A21.927,21.927,0,0,1,232.974,99a.237.237,0,0,0,.241-.408" transform="translate(-64.377 -95.613)" fill="#dedcff"/>
            </g>
          </g>
        </g>
        <g id="Group_1182537" data-name="Group 1182537" transform="translate(33.584 34.31)" style="mix-blend-mode: soft-light;isolation: isolate">
          <g id="Group_1182536" data-name="Group 1182536">
            <g id="Group_1182535" data-name="Group 1182535" clip-path="url(#clip-path-4)">
              <path id="Path_995571" data-name="Path 995571" d="M319.4,197.4c-3.646-7.474-10.022-13.909-18.045-16.32s-17.632-.162-22.733,6.426c-4.275,5.52-4.894,12.885-5.977,19.758s-3.261,14.338-9.212,18.037c-5.916,3.677-13.651,2.407-20.228.077s-13.042-5.632-20.027-5.692c-9.995-.086-19.3,7.069-22.832,16.324s-1.716,20.04,3.606,28.415a39.215,39.215,0,0,0,3.347,4.506H312.768a99.965,99.965,0,0,0,11.52-47.315c-.074-8.3-1.24-16.744-4.886-24.218" transform="translate(-198.525 -180.142)" fill="#dedcff"/>
            </g>
          </g>
        </g>
        <path id="Path_995572" data-name="Path 995572" d="M537.261,89.17s-6.749-7.771-1.653-8.862,7.571,4.431,7.571,4.431-3.714-18.746,11.16-15.065S559.3,85.217,559.3,85.217s4.13-6.408,7.915-4.226,1.029,5.831,1.029,5.831,2.288-2.635,3.677-1.847.636,2.969.125,3.938Z" transform="translate(-420.165 -61.084)" fill="#dedcff"/>
        <path id="Path_995573" data-name="Path 995573" d="M106.147,224.063s-5.42-6.242-1.328-7.118S110.9,220.5,110.9,220.5s-2.983-15.056,8.963-12.1,3.988,12.483,3.988,12.483,3.317-5.147,6.357-3.394.827,4.684.827,4.684,1.838-2.116,2.953-1.484.511,2.385.1,3.163Z" transform="translate(-102.998 -166.584)" fill="#dedcff"/>
        <path id="Path_995574" data-name="Path 995574" d="M44.336,316.217a.988.988,0,0,0-.82-.023,10.37,10.37,0,0,0-3.362,1.654,6.342,6.342,0,0,1-1.579,1.014c-.841.3-1.84.137-2.585.625a3.647,3.647,0,0,0-1.189,2.036,2.8,2.8,0,0,1-1.378,1.877c-.681.265-1.49.008-2.161.3a2.479,2.479,0,0,0-1.2,1.776,4.865,4.865,0,0,1-.787,2.049,3.573,3.573,0,0,1-2.147.979,5.477,5.477,0,0,0-2.412.755l-.028.023,7.508,6.992a7.087,7.087,0,0,0,2.165-3.44,4.318,4.318,0,0,1,.886-2.134c.467-.44,1.171-.593,1.585-1.083.5-.594.417-1.473.7-2.194.586-1.477,2.489-1.913,3.579-3.077a6.874,6.874,0,0,0,1.17-2.023l2.107-4.849c.182-.419.324-1-.055-1.257" transform="translate(-41.572 -249.697)" fill="#867ad7"/>
        <path id="Path_995575" data-name="Path 995575" d="M37.434,338.674a.12.12,0,0,1-.091-.042.117.117,0,0,1,.014-.166A162.577,162.577,0,0,0,52.087,324.48a.121.121,0,0,1,.169-.007.117.117,0,0,1,.007.167,162.832,162.832,0,0,1-14.753,14.007.119.119,0,0,1-.077.028" transform="translate(-51.187 -256.057)" fill="#dedcff"/>
        <path id="Path_995576" data-name="Path 995576" d="M61.821,388.484c-.042-.187-.227-.3-.4-.389a7.1,7.1,0,0,0-2.455-.72,4.367,4.367,0,0,1-1.265-.22c-.56-.237-.983-.778-1.584-.877a2.536,2.536,0,0,0-1.55.469,1.941,1.941,0,0,1-1.569.3c-.464-.181-.748-.681-1.219-.845a1.722,1.722,0,0,0-1.432.335,3.39,3.39,0,0,1-1.355.661,2.443,2.443,0,0,1-1.531-.5,3.728,3.728,0,0,0-1.558-.733H45.88l.466,6.944a4.926,4.926,0,0,0,2.7-.721,3.009,3.009,0,0,1,1.444-.658c.44,0,.863.243,1.3.188.53-.066.9-.543,1.381-.772.986-.468,2.141.19,3.231.111a4.778,4.778,0,0,0,1.534-.471l3.328-1.451c.288-.126.63-.349.563-.653" transform="translate(-57.709 -303.054)" fill="#867ad7"/>
        <path id="Path_995577" data-name="Path 995577" d="M51.618,397.427q-2.661,0-5.31-.125a.119.119,0,0,1-.114-.124.12.12,0,0,1,.125-.112,112.66,112.66,0,0,0,13.914-.205.116.116,0,0,1,.128.108.118.118,0,0,1-.109.127c-2.859.221-5.748.331-8.634.331" transform="translate(-57.948 -311.374)" fill="#dedcff"/>
        <path id="Path_995578" data-name="Path 995578" d="M696.247,409.253a13.588,13.588,0,0,0-1.564-1.393,3.629,3.629,0,0,0-1.751-.784,1.8,1.8,0,0,0-1.585.553,2.363,2.363,0,0,0-.476,1.508,8.328,8.328,0,0,0,.97,3.678,16.035,16.035,0,0,0,2.374,3.441c.979,1.123,2.057,2.166,3.119,3.218l3.284,3.254.8.8a.193.193,0,0,0,.168.059h0l.053.007a.213.213,0,0,0,.1-.025l.3-.114a.68.68,0,0,0,.561-.224.866.866,0,0,0,.162-.764,7.954,7.954,0,0,0-.274-.933q-.159-.509-.321-1.017c-.442-1.385-.908-2.765-1.463-4.118a21.97,21.97,0,0,0-4.464-7.143" transform="translate(-539.84 -319.168)" fill="#867ad7"/>
        <path id="Path_995579" data-name="Path 995579" d="M711.25,432.493a.119.119,0,0,1-.111-.074,105.6,105.6,0,0,0-8.563-13.424.117.117,0,0,1,.025-.165.121.121,0,0,1,.167.024,105.822,105.822,0,0,1,8.588,13.465.116.116,0,0,1,.005.1.12.12,0,0,1-.111.075" transform="translate(-548.735 -328.139)" fill="#dedcff"/>
        <path id="Path_995580" data-name="Path 995580" d="M679.146,452.882a20,20,0,0,0-1.952-.819,4.943,4.943,0,0,0-1.863-.346,1.244,1.244,0,0,0-1.163.615,1.453,1.453,0,0,0,.208,1.172,9.255,9.255,0,0,0,2.377,2.578,22.414,22.414,0,0,0,3.512,2.219c1.325.7,2.7,1.322,4.074,1.956l4.234,1.961,1.035.48a.246.246,0,0,0,.172.021h0l.05,0a.166.166,0,0,0,.081-.032l.213-.123a.45.45,0,0,0,.4-.239.592.592,0,0,0-.174-.583c-.181-.224-.416-.437-.628-.651q-.351-.353-.7-.706c-.962-.961-1.945-1.914-2.993-2.836a30.031,30.031,0,0,0-6.883-4.666" transform="translate(-527.08 -353.275)" fill="#867ad7"/>
        <path id="Path_995581" data-name="Path 995581" d="M700.063,468.724a.119.119,0,0,1-.081-.031,145.64,145.64,0,0,0-13.094-8.75.117.117,0,0,1-.041-.162.12.12,0,0,1,.163-.041,145.806,145.806,0,0,1,13.124,8.771.118.118,0,0,1,.047.094.119.119,0,0,1-.119.119" transform="translate(-536.764 -359.394)" fill="#dedcff"/>
        <path id="Path_995582" data-name="Path 995582" d="M379.663,420.313c0,4.552-3.139,8.006-7.011,8.006s-7.012-3.454-7.012-8.006,3.139-7.733,7.012-7.733,7.011,3.181,7.011,7.733" transform="translate(-292.192 -323.383)" fill="#867ad7"/>
        <path id="Path_995583" data-name="Path 995583" d="M366.808,402.493a14.638,14.638,0,0,1-.865,4.977,13.367,13.367,0,0,1-2.608,4.366,12.777,12.777,0,0,1-4.113,3.066,12.454,12.454,0,0,1-5.036,1.16,12.576,12.576,0,0,1-9.366-3.893,13.532,13.532,0,0,1-2.769-4.344,14.53,14.53,0,0,1-.183-10.078,12.725,12.725,0,0,1,2.678-4.412,12.451,12.451,0,0,1,4.256-2.956,13.143,13.143,0,0,1,5.069-1.02,13.322,13.322,0,0,1,5.065.964,12.366,12.366,0,0,1,4.258,2.877,12.564,12.564,0,0,1,2.727,4.312,14.147,14.147,0,0,1,.888,4.981m-1.4,0a12.747,12.747,0,0,0-.825-4.48,11.138,11.138,0,0,0-2.438-3.806,10.694,10.694,0,0,0-3.781-2.479,11.748,11.748,0,0,0-4.473-.779,11.48,11.48,0,0,0-4.42.958,10.942,10.942,0,0,0-5.924,6.426,13.25,13.25,0,0,0,.163,8.856,11.779,11.779,0,0,0,2.385,3.8,10.923,10.923,0,0,0,8.071,3.49,10.872,10.872,0,0,0,4.416-.946,11.1,11.1,0,0,0,3.665-2.656,11.936,11.936,0,0,0,2.351-3.885,13.241,13.241,0,0,0,.809-4.494" transform="translate(-273.471 -305.645)" fill="#867ad7"/>
        <path id="Path_995584" data-name="Path 995584" d="M348.236,336.889l3.317,12.064,14.756.576,5.183-13Z" transform="translate(-278.939 -265.291)" fill="#7265bf"/>
        <path id="Path_995585" data-name="Path 995585" d="M343.562,333.281l26.045-.265-.374,1.694h-25.19Z" transform="translate(-275.38 -262.607)" fill="#483a8e"/>
        <path id="Path_995586" data-name="Path 995586" d="M416.266,286.416c-1.15,3.553-6.871,19.4-6.871,19.4h1.437l6.417-18.347a1.763,1.763,0,0,1,1.632-1.119l5.541-.043V284.4l-6.693.817a1.758,1.758,0,0,0-1.463,1.2" transform="translate(-325.509 -225.471)" fill="#cdc9fb"/>
        <path id="Path_995587" data-name="Path 995587" d="M451.888,283.33l.25,2.488,6.115-.459v-2.206Z" transform="translate(-357.865 -224.519)" fill="#483a8e"/>
        <path id="Path_995588" data-name="Path 995588" d="M329.174,392.127l-3.719,15.984a1.077,1.077,0,0,1-1,.855l-3.775-.6v.638l4.558.833a1.079,1.079,0,0,0,1.044-.794l4.52-16.77Z" transform="translate(-257.96 -307.76)" fill="#483a8e"/>
        <path id="Path_995589" data-name="Path 995589" d="M346.2,389.218l-.26,1.507-16.206-.377a1.9,1.9,0,0,0-1.906,1.479l-4.1,16.917-1.177-.265,4.614-18.043A1.9,1.9,0,0,1,329.044,389Z" transform="translate(-259.383 -305.368)" fill="#483a8e"/>
        <path id="Path_995590" data-name="Path 995590" d="M421.2,295.838h12.791l-8.123,24.23-11.064-1.094Z" transform="translate(-329.629 -234.208)" fill="#483a8e"/>
        <path id="Path_995591" data-name="Path 995591" d="M321.81,421.537l-1.475,5.894,5.116,1.218,1.534-6Z" transform="translate(-257.694 -330.225)" fill="#f7e7c6"/>
        <path id="Path_995592" data-name="Path 995592" d="M342.624,357.8s-.113,7.59-4.217,8.1-9.77-1.349-11.566.309-3.177,10.063-3.177,10.063-3.426-.942-6.94-1.7c0,0,2.624-13.842,5.565-15.562,3.61-2.112,6.745-2.532,20.336-1.209" transform="translate(-254.944 -280.961)" fill="#867ad7"/>
        <path id="Path_995593" data-name="Path 995593" d="M299.467,437.5l-1.374,5.443-.272,1.078-12.591-1.592a5.948,5.948,0,0,1,.5-1.246,3.321,3.321,0,0,1,3.366-2.019c3.588.452,3.831-.56,4.679-2.826Z" transform="translate(-230.962 -341.529)" fill="#ffba1f"/>
        <path id="Path_995594" data-name="Path 995594" d="M298.093,458.616l-.272,1.078L285.229,458.1a5.937,5.937,0,0,1,.5-1.246Z" transform="translate(-230.962 -357.204)" fill="#cdc9fb"/>
        <path id="Path_995595" data-name="Path 995595" d="M305.748,448.223a2.884,2.884,0,0,0-1.153-.932.108.108,0,0,0-.143.037.1.1,0,0,0,.037.142,2.686,2.686,0,0,1,1.078.858.108.108,0,0,0,.143.037.1.1,0,0,0,.038-.142" transform="translate(-245.59 -349.888)" fill="#dedcff"/>
        <path id="Path_995596" data-name="Path 995596" d="M310.381,446.925a2.164,2.164,0,0,0-1.088-.877.1.1,0,1,0-.056.2,1.936,1.936,0,0,1,.963.782c.071.113.252.009.181-.1" transform="translate(-249.184 -348.944)" fill="#dedcff"/>
        <path id="Path_995597" data-name="Path 995597" d="M314.758,444.831a3.148,3.148,0,0,0-1.141-.629.1.1,0,0,0-.056.2,2.893,2.893,0,0,1,1.049.575c.1.087.25-.059.148-.147" transform="translate(-252.48 -347.534)" fill="#dedcff"/>
        <path id="Path_995598" data-name="Path 995598" d="M316.545,441.757a2.867,2.867,0,0,0-1.353-.536.1.1,0,0,0-.1.1.107.107,0,0,0,.1.1,2.664,2.664,0,0,1,1.247.508.1.1,0,1,0,.106-.179" transform="translate(-253.698 -345.26)" fill="#dedcff"/>
        <path id="Path_995599" data-name="Path 995599" d="M324.614,436.94l-.024,0-3.078-.609a.118.118,0,1,1,.047-.231l3.078.609a.118.118,0,0,1-.023.234" transform="translate(-258.517 -341.345)" fill="#483a8e"/>
        <path id="Path_995600" data-name="Path 995600" d="M309.732,480.781a2.962,2.962,0,0,1-5.92,0,2.968,2.968,0,0,1,5.92,0" transform="translate(-245.113 -373.379)" fill="#7265bf"/>
        <path id="Path_995601" data-name="Path 995601" d="M313.171,485.6a1.393,1.393,0,0,1-2.783,0,1.4,1.4,0,0,1,2.783,0" transform="translate(-250.12 -378.175)" fill="#867ad7"/>
        <path id="Path_995602" data-name="Path 995602" d="M307.822,464.335l-11.041-1.919.146,3.54,10.5.883Z" transform="translate(-239.759 -361.451)" fill="#483a8e"/>
        <path id="Path_995603" data-name="Path 995603" d="M351.367,238.465a.562.562,0,0,0-.13-.36l-.012-.013a.506.506,0,0,0-.852.283l-.344,2.031-.724-3.6a.875.875,0,0,0-.228-.464.281.281,0,0,0-.478.129,1.791,1.791,0,0,0-.046.544l.206,2.992-1.106-3.265a.947.947,0,0,0-.23-.368.39.39,0,0,0-.659.2,1.5,1.5,0,0,0,.015.585l.669,2.981-1.347-2.313a.965.965,0,0,0-.365-.357.279.279,0,0,0-.414.231,1.376,1.376,0,0,0,.1.594l.928,2.26-.141-.182-.318-.411-.339-.438a1.563,1.563,0,0,0-.453-.465.421.421,0,0,0-.143-.053.2.2,0,0,0-.146.031c-.1.076-.087.234-.082.345a1.644,1.644,0,0,0,.12.555l1.447,3.5a1.87,1.87,0,0,0,.736.87l.139.087a1.741,1.741,0,0,0,.893.265l.459.009a2.348,2.348,0,0,0,.844-.133,2.915,2.915,0,0,0,1.775-1.814l.045-.135a4.446,4.446,0,0,0,.228-1.495Z" transform="translate(-276.267 -188.691)" fill="#f7e7c6"/>
        <path id="Path_995604" data-name="Path 995604" d="M370.725,275.018c-.335,1.584-4.168,2.759-7.362,3.387-2.089.409-5.926,1.589-7.649,1.03-1.631-.529-1.23-11.947-1.23-11.947l3.435-.426.915,7.338,3.259-1.1,4.347-1.4a3.335,3.335,0,0,1,3.789,1.006,2.472,2.472,0,0,1,.5,2.112" transform="translate(-283.664 -212.226)" fill="#f7e7c6"/>
        <path id="Path_995605" data-name="Path 995605" d="M372.3,298.962h-.017a.118.118,0,0,1-.1-.134,4.692,4.692,0,0,0,.027-1.145.119.119,0,0,1,.237-.023,4.912,4.912,0,0,1-.028,1.2.119.119,0,0,1-.118.1" transform="translate(-297.175 -235.517)" fill="#483a8e"/>
        <path id="Path_995606" data-name="Path 995606" d="M351.325,254.131a.119.119,0,0,1-.086-.036.117.117,0,0,1,0-.167,2.963,2.963,0,0,1,1.486-.727,5.812,5.812,0,0,1,1.64-.051.118.118,0,0,1,.108.128.12.12,0,0,1-.129.107,5.56,5.56,0,0,0-1.572.048,2.73,2.73,0,0,0-1.367.665.119.119,0,0,1-.083.033" transform="translate(-281.201 -201.574)" fill="#483a8e"/>
        <path id="Path_995607" data-name="Path 995607" d="M356.72,260.825a.119.119,0,0,1-.1-.061,2.18,2.18,0,0,0-1.853-1.077c-.005,0-.011,0-.016,0a.118.118,0,1,1,0-.236h.017a2.426,2.426,0,0,1,2.062,1.2.118.118,0,0,1-.046.161.122.122,0,0,1-.058.015" transform="translate(-283.806 -206.413)" fill="#483a8e"/>
        <path id="Path_995608" data-name="Path 995608" d="M362.86,268.216a.118.118,0,0,1-.005-.236,3.065,3.065,0,0,0,.716-.1,1.275,1.275,0,0,0,.585-.343.121.121,0,0,1,.169-.008.117.117,0,0,1,.008.167,1.516,1.516,0,0,1-.694.411,3.283,3.283,0,0,1-.773.112h-.006" transform="translate(-289.984 -212.558)" fill="#483a8e"/>
        <path id="Path_995609" data-name="Path 995609" d="M397.622,284.2c-.406,1.92-6.472,3.415-10.345,4.176a18.532,18.532,0,0,1-1.408-5.965l6.726-2.452a4.043,4.043,0,0,1,4.594,1.219,4.086,4.086,0,0,1,.433,3.022" transform="translate(-307.595 -221.876)" fill="#ffba1f"/>
        <path id="Path_995610" data-name="Path 995610" d="M415.269,280.345a4.91,4.91,0,0,0-2.3-1.4c-.161-.054-.325-.106-.488-.156a14.011,14.011,0,0,0-7.487-.216c-.327.087-.607.369-.932.908-.371.616-.8,1.566-1.429,2.94-2.409,5.269-1.351,14.322-1.351,14.322l.089.35c5.957,4.089,14.978.762,14.978.762s.87-15.068-1.077-17.513" transform="translate(-319.153 -220.71)" fill="#ffba1f"/>
        <path id="Path_995611" data-name="Path 995611" d="M422.035,324.691a.12.12,0,0,1-.075-.026,16.841,16.841,0,0,1-5.924-9.921.118.118,0,0,1,.1-.137.12.12,0,0,1,.139.095,16.6,16.6,0,0,0,5.84,9.78.118.118,0,0,1-.075.21" transform="translate(-330.565 -248.543)" fill="#483a8e"/>
        <path id="Path_995612" data-name="Path 995612" d="M416.477,334.916a.888.888,0,0,1-.627-.379,12.449,12.449,0,0,1-2.351-4,.118.118,0,0,1,.073-.151.12.12,0,0,1,.152.072,12.207,12.207,0,0,0,2.307,3.925c.138.158.285.311.458.3a.123.123,0,0,1,.124.114.119.119,0,0,1-.115.123h-.02" transform="translate(-328.629 -260.592)" fill="#483a8e"/>
        <path id="Path_995613" data-name="Path 995613" d="M402.493,297.642l-.022,0a.118.118,0,0,1-.1-.138,20.965,20.965,0,0,1,1.583-4.93.119.119,0,0,1,.158-.058.118.118,0,0,1,.059.157,20.735,20.735,0,0,0-1.565,4.875.119.119,0,0,1-.117.1" transform="translate(-320.163 -231.66)" fill="#483a8e"/>
        <path id="Path_995614" data-name="Path 995614" d="M422.089,278.792a12.353,12.353,0,0,1-7.487,1.277,1.311,1.311,0,0,1-.932-.585c.325-.539.605-.821.932-.908a14.011,14.011,0,0,1,7.487.216" transform="translate(-328.764 -220.71)" fill="#ff7c10"/>
        <path id="Path_995615" data-name="Path 995615" d="M416.619,256.4l-.015-.329-.231-4.647-.014-.314L422,248.107l1.013,7.475a9.071,9.071,0,0,1-6.393.822" transform="translate(-330.813 -197.748)" fill="#f7e7c6"/>
        <path id="Path_995616" data-name="Path 995616" d="M417.762,270.611a3.293,3.293,0,0,0,1.616-.3l-2.447,2.61-.135-2.49a4.449,4.449,0,0,0,.966.181" transform="translate(-331.145 -214.709)" fill="#483a8e"/>
        <path id="Path_995617" data-name="Path 995617" d="M404.011,231.207c-.228,2.887.833,5.958,3.993,6.2,2.461.191,4.691-2.625,4.919-5.513a4.475,4.475,0,1,0-8.912-.691" transform="translate(-321.387 -181.508)" fill="#f7e7c6"/>
        <path id="Path_995618" data-name="Path 995618" d="M417.8,268.321q-.139,0-.276-.012a4.271,4.271,0,0,1-.857-.16.118.118,0,0,1-.08-.147.119.119,0,0,1,.149-.079,4.012,4.012,0,0,0,.809.151,3.618,3.618,0,0,0,2.592-.9.12.12,0,0,1,.168.015.117.117,0,0,1-.015.166,3.946,3.946,0,0,1-2.489.962" transform="translate(-330.979 -212.294)" fill="#483a8e"/>
        <path id="Path_995619" data-name="Path 995619" d="M410.051,258.044a1.757,1.757,0,0,0,.932.719,1.834,1.834,0,0,0,1.839-.458,1.3,1.3,0,0,0,.2-.286,1.282,1.282,0,0,0,.068-.948.65.65,0,0,0-.416-.422.66.66,0,0,0-.511.1,5.544,5.544,0,0,1-.524.31,1,1,0,0,1-.679.052,3.255,3.255,0,0,1-.389-.192c-.222-.114-.646-.327-.8-.006-.171.359.083.832.278,1.132" transform="translate(-325.755 -204.258)" fill="#483a8e"/>
        <path id="Path_995620" data-name="Path 995620" d="M412.422,262.751a1.742,1.742,0,0,0,.62.356,1.834,1.834,0,0,0,1.839-.458,1.163,1.163,0,0,0-1.337-.152.528.528,0,0,0-.72-.082,1.722,1.722,0,0,0-.4.336" transform="translate(-327.814 -208.602)" fill="#f4519b"/>
        <path id="Path_995621" data-name="Path 995621" d="M413.833,246.227h-.008l-.4-.025a.481.481,0,0,1-.341-.17.473.473,0,0,1-.111-.362l.214-1.882a.119.119,0,0,1,.237.026l-.214,1.882a.24.24,0,0,0,.056.184.245.245,0,0,0,.173.087l.4.025a.118.118,0,0,1-.007.236" transform="translate(-328.228 -194.368)" fill="#483a8e"/>
        <path id="Path_995622" data-name="Path 995622" d="M420.556,239.8a1.52,1.52,0,0,0-.419.074.346.346,0,0,0-.16.1c-.161.194.24.275.359.3a1.872,1.872,0,0,0,.886-.01c.218-.067.2-.309,0-.4a.734.734,0,0,0-.26-.049,3.646,3.646,0,0,0-.41-.008" transform="translate(-333.538 -191.4)" fill="#483a8e"/>
        <path id="Path_995623" data-name="Path 995623" d="M404.689,239.765a1.527,1.527,0,0,1,.419.075.347.347,0,0,1,.16.1c.16.194-.241.275-.36.3a1.869,1.869,0,0,1-.886-.012c-.218-.068-.2-.31,0-.4a.736.736,0,0,1,.26-.049,3.714,3.714,0,0,1,.41-.007" transform="translate(-321.298 -191.373)" fill="#483a8e"/>
        <path id="Path_995624" data-name="Path 995624" d="M423.854,251.752c.038.243.4.389.8.328s.7-.309.663-.551-.4-.389-.8-.328-.7.309-.663.551" transform="translate(-336.516 -200.1)" fill="#ffba1f"/>
        <path id="Path_995625" data-name="Path 995625" d="M401.961,252.984c.038.243.4.389.8.328s.7-.309.663-.551-.4-.389-.8-.328-.7.309-.663.551" transform="translate(-319.846 -201.041)" fill="#ffba1f"/>
        <path id="Path_995626" data-name="Path 995626" d="M409.653,246.648a.376.376,0,1,1-.434-.357.4.4,0,0,1,.434.357" transform="translate(-325.139 -196.358)" fill="#483a8e"/>
        <path id="Path_995627" data-name="Path 995627" d="M420.718,246.112a.376.376,0,1,1-.434-.357.4.4,0,0,1,.434.357" transform="translate(-333.564 -195.948)" fill="#483a8e"/>
        <path id="Path_995628" data-name="Path 995628" d="M446.281,236.976a.831.831,0,0,0-.489-.154,2.57,2.57,0,0,0-1.209.123,2.6,2.6,0,0,0-1.061.717.1.1,0,0,0-.022.1.1.1,0,0,0-.06.146,2.154,2.154,0,0,0,1.523.956.913.913,0,0,0,.583-.05.309.309,0,0,0,.044-.458,1.444,1.444,0,0,0-.552-.374,3.52,3.52,0,0,0-.712-.221l.745-.112a2.49,2.49,0,0,0,1.138-.327.228.228,0,0,0,.072-.341" transform="translate(-351.42 -189.109)" fill="#483a8e"/>
        <path id="Path_995629" data-name="Path 995629" d="M431.112,231.312s-.408,4.36,1.476,5.05c0,0,2.662-1.383,2.112-4.016-.423-2.025-2.17-2.032-3.587-1.034" transform="translate(-342.017 -184.421)" fill="#483a8e"/>
        <path id="Path_995630" data-name="Path 995630" d="M434.524,249.509a1.625,1.625,0,0,0,1.957,1.149,1.449,1.449,0,1,0-.441-2.828,1.612,1.612,0,0,0-1.516,1.679" transform="translate(-344.633 -197.517)" fill="#f7e7c6"/>
        <path id="Path_995631" data-name="Path 995631" d="M437.753,258.8h0a2,2,0,0,1-1.079-.305.117.117,0,0,1-.035-.163.12.12,0,0,1,.165-.035,1.783,1.783,0,0,0,.95.267.118.118,0,1,1,0,.236" transform="translate(-346.24 -205.52)" fill="#483a8e"/>
        <path id="Path_995632" data-name="Path 995632" d="M439.5,251.085a.119.119,0,0,1-.118-.1.776.776,0,0,0-.951-.575,1.035,1.035,0,0,0-.571.276.12.12,0,0,1-.169,0,.117.117,0,0,1,0-.167,1.277,1.277,0,0,1,.7-.343,1.02,1.02,0,0,1,1.223.773.118.118,0,0,1-.1.135H439.5" transform="translate(-347.031 -199.317)" fill="#483a8e"/>
        <path id="Path_995633" data-name="Path 995633" d="M415.277,223.75s-.339-.2-.938-.491l-.188-.089c-.4-.189-.907-.406-1.485-.622a16.989,16.989,0,0,0-6.933-1.13s.207-4.184,3.881-4.663a7.2,7.2,0,0,1,2.8.261c.044.013.086.023.128.037a5.53,5.53,0,0,1,.769.28c3.8,1.713,1.971,6.417,1.971,6.417" transform="translate(-322.72 -173.764)" fill="#ff7c10"/>
        <path id="Path_995634" data-name="Path 995634" d="M412.665,222.689a16.989,16.989,0,0,0-6.933-1.13s.207-4.184,3.881-4.663a3.12,3.12,0,0,1,2.491.823c1.3,1.062.766,3.728.561,4.97" transform="translate(-322.72 -173.907)" fill="#ffba1f"/>
        <path id="Path_995635" data-name="Path 995635" d="M402.47,227.532s-2.753-4.284-6.675-4.236a7.54,7.54,0,0,0-2.342.421c-.454.156-1,.432-.942.989a1.346,1.346,0,0,0,.9,1.05l2.385.785a45.7,45.7,0,0,1,6.677.992" transform="translate(-312.649 -178.795)" fill="#483a8e"/>
        <path id="Path_995636" data-name="Path 995636" d="M436.063,224.366l-.188-.089a8.921,8.921,0,0,0,.373-2.1,5.011,5.011,0,0,0-.49-2.484,3.632,3.632,0,0,0-1.5-1.537,5.53,5.53,0,0,1,.769.28,3.894,3.894,0,0,1,1.035,1.424,6.684,6.684,0,0,1,0,4.5" transform="translate(-344.444 -174.872)" fill="#483a8e"/>
        <path id="Path_995637" data-name="Path 995637" d="M431.5,215.895c-.05.2-.459.271-.915.16s-.784-.363-.735-.562.459-.271.915-.16.784.363.735.562" transform="translate(-341.078 -172.672)" fill="#483a8e"/>
        <path id="Path_995638" data-name="Path 995638" d="M348.876,424.926,347.4,430.82l5.116,1.218,1.534-6Z" transform="translate(-278.303 -332.814)" fill="#f7e7c6"/>
        <path id="Path_995639" data-name="Path 995639" d="M370.031,357.8s-.113,7.59-4.217,8.1-9.77-1.349-11.566.309-3.344,10.668-3.344,10.668-3.426-.942-6.94-1.7c0,0,2.791-14.447,5.731-16.167,3.61-2.112,6.745-2.532,20.336-1.209" transform="translate(-275.686 -280.961)" fill="#7265bf"/>
        <path id="Path_995640" data-name="Path 995640" d="M343.583,377.624l-.022,0a.118.118,0,0,1-.095-.138c.115-.592,2.835-14.519,5.788-16.246a13.721,13.721,0,0,1,2.39-1.136.12.12,0,0,1,.152.072.118.118,0,0,1-.072.151,13.489,13.489,0,0,0-2.349,1.117c-2.861,1.673-5.647,15.943-5.675,16.087a.119.119,0,0,1-.117.1" transform="translate(-275.305 -283.292)" fill="#483a8e"/>
        <path id="Path_995641" data-name="Path 995641" d="M326.539,440.887l-1.3,5.151-.346,1.371L312.3,445.814a5.993,5.993,0,0,1,.576-1.381,3.259,3.259,0,0,1,3.291-1.883c3.588.452,3.831-.56,4.68-2.826Z" transform="translate(-251.576 -344.117)" fill="#ff7c10"/>
        <path id="Path_995642" data-name="Path 995642" d="M350.573,460.168a7.159,7.159,0,0,1,4.139-2.976l.057-.222a7.355,7.355,0,0,0-3.875,2.409,7.559,7.559,0,0,0-.553.757Z" transform="translate(-280.541 -357.292)" fill="#483a8e"/>
        <path id="Path_995643" data-name="Path 995643" d="M325.236,461.271l-.346,1.371L312.3,461.047a6,6,0,0,1,.576-1.381Z" transform="translate(-251.576 -359.35)" fill="#9b8fef"/>
        <path id="Path_995644" data-name="Path 995644" d="M336.226,451.255a1.874,1.874,0,0,0-.773-.759.108.108,0,0,0-.143.037.1.1,0,0,0,.038.142,1.668,1.668,0,0,1,.7.685.107.107,0,0,0,.143.037.1.1,0,0,0,.038-.142" transform="translate(-269.086 -352.336)" fill="#dedcff"/>
        <path id="Path_995645" data-name="Path 995645" d="M339.553,450.55a1.939,1.939,0,0,0-.977-.993.109.109,0,0,0-.143.037.1.1,0,0,0,.038.142,1.769,1.769,0,0,1,.9.919.1.1,0,0,0,.181-.1" transform="translate(-271.464 -351.619)" fill="#dedcff"/>
        <path id="Path_995646" data-name="Path 995646" d="M342.971,448.854a2.54,2.54,0,0,0-.838-.9.106.106,0,0,0-.143.037.1.1,0,0,0,.037.142,2.322,2.322,0,0,1,.763.824c.064.117.245.013.181-.1" transform="translate(-274.172 -350.394)" fill="#dedcff"/>
        <path id="Path_995647" data-name="Path 995647" d="M344.719,446.185a1.983,1.983,0,0,0-1-.959.109.109,0,0,0-.143.037.1.1,0,0,0,.037.142,1.812,1.812,0,0,1,.929.884.1.1,0,0,0,.181-.1" transform="translate(-275.377 -348.311)" fill="#dedcff"/>
        <path id="Path_995648" data-name="Path 995648" d="M346.106,443.679a2.268,2.268,0,0,0-1.343-.512c-.135-.006-.135.2,0,.207a2.033,2.033,0,0,1,1.2.451.108.108,0,0,0,.148,0,.1.1,0,0,0,0-.147" transform="translate(-276.218 -346.747)" fill="#dedcff"/>
        <path id="Path_995649" data-name="Path 995649" d="M395.033,336.627l.744,13.061,18.7.558,3.907-15.064Z" transform="translate(-314.573 -264.262)" fill="#9b8fef"/>
        <path id="Path_995650" data-name="Path 995650" d="M390.359,333.019l26.144-1.35-.375,1.694-25.288,1.085Z" transform="translate(-311.014 -261.578)" fill="#7265bf"/>
        <path id="Path_995651" data-name="Path 995651" d="M464.448,290.335c-1.642,4.652-8.58,36.656-8.58,36.656l1.2.25,8.388-35.83a1.5,1.5,0,0,1,1.388-.95l5.722-.045V288.51l-6.884.84a1.5,1.5,0,0,0-1.234.984" transform="translate(-360.896 -228.61)" fill="#dedcff"/>
        <path id="Path_995652" data-name="Path 995652" d="M389.58,393.085l-.26,1.507-21.487-.387a1.437,1.437,0,0,0-1.436,1.114L361.09,415.61l-1.177-.265,5.826-21.4a1.437,1.437,0,0,1,1.416-1.086Z" transform="translate(-287.831 -308.318)" fill="#dedcff"/>
        <path id="Path_995653" data-name="Path 995653" d="M363.878,395.91,359.3,413.832a1,1,0,0,1-.956.8l-5.906.161v.638l6.7.09a1,1,0,0,0,.983-.737l5.383-18.721Z" transform="translate(-282.141 -310.649)" fill="#dedcff"/>
        <path id="Path_995654" data-name="Path 995654" d="M502.266,287.94l.25,2.488,6.115-.459v-2.206Z" transform="translate(-396.226 -228.04)" fill="#483a8e"/>
        <path id="Path_995655" data-name="Path 995655" d="M355.365,483.546a3.076,3.076,0,0,1-6.148,0,3.082,3.082,0,0,1,6.148,0" transform="translate(-279.686 -375.411)" fill="#483a8e"/>
        <path id="Path_995656" data-name="Path 995656" d="M358.876,488.469a1.473,1.473,0,0,1-2.944,0,1.476,1.476,0,0,1,2.944,0" transform="translate(-284.8 -380.308)" fill="#7265bf"/>
        <path id="Path_995657" data-name="Path 995657" d="M341.567,473.047l6.921-.189.224-1.735-6.749-.58Z" transform="translate(-273.862 -367.659)" fill="#cdc9fb"/>
        <path id="Path_995658" data-name="Path 995658" d="M440.618,426.065c0,4.552-3.139,8.006-7.011,8.006s-7.012-3.454-7.012-8.006,3.139-7.733,7.012-7.733,7.011,3.181,7.011,7.733" transform="translate(-338.606 -327.777)" fill="#9b8fef"/>
        <path id="Path_995659" data-name="Path 995659" d="M455.577,442.056a2.807,2.807,0,1,1-5.6,0,2.8,2.8,0,1,1,5.6,0" transform="translate(-356.411 -343.682)" fill="#7265bf"/>
        <path id="Path_995660" data-name="Path 995660" d="M424.545,408.18a13.564,13.564,0,0,1-7.592,12.419c-8.9,4-18.08-2.726-18.181-12.108a12.9,12.9,0,1,1,25.774-.311m-1.422,0a11.269,11.269,0,1,0-22.518.274c.022,8.128,7.919,14.118,15.7,10.75a11.981,11.981,0,0,0,6.819-11.024" transform="translate(-317.416 -309.973)" fill="#483a8e"/>
        <path id="Path_995661" data-name="Path 995661" d="M433.184,417.684c.073,7.178-6.75,12.666-13.749,9.9a10.5,10.5,0,0,1-6.366-9.653,10.065,10.065,0,1,1,20.115-.246m-.457,0a9.164,9.164,0,0,0-9.537-9.452c-10.2.365-12.155,14.35-3.377,18.479,6.514,2.78,12.943-2.252,12.913-9.027" transform="translate(-328.304 -319.433)" fill="#dedcff"/>
        <path id="Path_995662" data-name="Path 995662" d="M440.3,298.242a3.167,3.167,0,0,1,1.292-3.548,2.459,2.459,0,0,1,2.1-.3c2.516.742,4.074,12.228,3.75,13.14s-4.746,9.724-4.746,9.724l-3.54-1.22,3.217-9.268Z" transform="translate(-348.177 -233.017)" fill="#f7e7c6"/>
        <path id="Path_995663" data-name="Path 995663" d="M428.607,385.847a4.3,4.3,0,0,0-3.521-.16,6.485,6.485,0,0,0-1.9,1.129,13.329,13.329,0,0,0-1.366,1.013,8.851,8.851,0,0,0-.681.622.448.448,0,0,0-.091.613.586.586,0,0,0,.579.084c.029-.008.058-.019.087-.027.247.22.777.074,1.054.008-.095.023-.054.3-.028.347.182.33.628.1.874,0a13.05,13.05,0,0,1,2.35-.665,6.763,6.763,0,0,0,2.144-.472,1.73,1.73,0,0,0,.748-1.037,5.086,5.086,0,0,0,.146-1.294Z" transform="translate(-334.313 -302.612)" fill="#f7e7c6"/>
        <path id="Path_995664" data-name="Path 995664" d="M446.127,292.866c-.63-3.741-2-8.563-3.987-9.151a3.069,3.069,0,0,0-2.627.377,3.955,3.955,0,0,0-1.613,4.43l1.7,5.907a11.606,11.606,0,0,0,6.255-1.423c.095-.046.185-.093.275-.141" transform="translate(-347.093 -224.841)" fill="#ffba1f"/>
        <path id="Path_995665" data-name="Path 995665" d="M439.218,303.534a.119.119,0,0,1-.115-.086l-1.7-5.907a4.2,4.2,0,0,1-.053-2.111.12.12,0,0,1,.143-.088.118.118,0,0,1,.089.142,3.96,3.96,0,0,0,.05,1.993l1.7,5.907a.117.117,0,0,1-.082.146.112.112,0,0,1-.033,0" transform="translate(-346.714 -233.826)" fill="#483a8e"/>
        <path id="Path_995666" data-name="Path 995666" d="M434.981,309.428a1.211,1.211,0,0,1-.57-.187,6.748,6.748,0,0,1-.913-.607.117.117,0,0,1-.019-.166.12.12,0,0,1,.167-.019,6.526,6.526,0,0,0,.881.586.842.842,0,0,0,.533.149.12.12,0,0,1,.14.094.118.118,0,0,1-.094.138.665.665,0,0,1-.125.012" transform="translate(-343.828 -243.821)" fill="#483a8e"/>
        <path id="Path_995667" data-name="Path 995667" d="M428.179,397.437a.12.12,0,0,1-.074-.026.118.118,0,0,1-.02-.166,3.191,3.191,0,0,1,1.926-1.133.118.118,0,1,1,.041.232,2.946,2.946,0,0,0-1.78,1.047.12.12,0,0,1-.094.045" transform="translate(-339.721 -310.803)" fill="#483a8e"/>
        <path id="Path_995668" data-name="Path 995668" d="M423.679,395.762a.126.126,0,0,1-.044-.008.118.118,0,0,1-.067-.154,2.461,2.461,0,0,1,.486-.732,2.9,2.9,0,0,1,1.184-.823.12.12,0,0,1,.152.073.118.118,0,0,1-.074.15,2.667,2.667,0,0,0-1.085.758,2.224,2.224,0,0,0-.441.661.119.119,0,0,1-.111.074" transform="translate(-336.295 -309.22)" fill="#483a8e"/>
        <path id="Path_995669" data-name="Path 995669" d="M452.248,345a.119.119,0,0,1-.091-.042.117.117,0,0,1,.014-.166,2.282,2.282,0,0,1,1.435-.638h.016a.119.119,0,0,1,.118.119.127.127,0,0,1-.12.117h-.013a2.061,2.061,0,0,0-1.281.583.119.119,0,0,1-.077.028" transform="translate(-358.049 -271.116)" fill="#483a8e"/>
        <path id="Path_995670" data-name="Path 995670" d="M521.478,290l-.7,24.068,2.1,16.59a1,1,0,0,0,.993.868h3.26a1,1,0,0,0,.991-.849c.421-2.878,1.672-12.3.648-16.3l4.285-22.614Z" transform="translate(-410.322 -229.751)" fill="#7265bf"/>
        <path id="Path_995671" data-name="Path 995671" d="M522.388,315.625a.12.12,0,0,1-.1-.051.118.118,0,0,1,.031-.164,4.262,4.262,0,0,0,1.648-2.138.119.119,0,0,1,.226.074,4.5,4.5,0,0,1-1.739,2.258.119.119,0,0,1-.068.021" transform="translate(-411.458 -247.463)" fill="#483a8e"/>
        <path id="Path_995672" data-name="Path 995672" d="M511.153,474.5H497.177a4.49,4.49,0,0,1,.115-1.416,3.276,3.276,0,0,1,3.444-2.578c3.987-.135,4.754-1.9,4.7-4.647h4.276a16.444,16.444,0,0,0,.7,4.175c.024.074.049.149.078.221s.059.168.092.251a8.975,8.975,0,0,1,.567,2.438,8,8,0,0,1,0,1.555" transform="translate(-392.34 -364.082)" fill="#ffba1f"/>
        <path id="Path_995673" data-name="Path 995673" d="M544.549,483.761c-.108.054-.214.112-.317.172a4.076,4.076,0,0,0-1.886,2.3,6.069,6.069,0,0,0-.224,1.77h-.233c0-.179,0-.361.014-.543a4.478,4.478,0,0,1,1.139-2.883,5.047,5.047,0,0,1,1.43-1.041c.023.075.049.149.078.221" transform="translate(-426.397 -377.587)" fill="#483a8e"/>
        <path id="Path_995674" data-name="Path 995674" d="M511.153,497.42H497.177a4.49,4.49,0,0,1,.115-1.416l13.859-.14a8,8,0,0,1,0,1.555" transform="translate(-392.34 -387.001)" fill="#dedcff"/>
        <path id="Path_995675" data-name="Path 995675" d="M520.915,483.107a2.243,2.243,0,0,0-.813-.764.121.121,0,0,0-.161.042.117.117,0,0,0,.042.159,2,2,0,0,1,.729.681.12.12,0,0,0,.161.042.117.117,0,0,0,.042-.159" transform="translate(-409.673 -376.661)" fill="#dedcff"/>
        <path id="Path_995676" data-name="Path 995676" d="M524.81,481.491a2.473,2.473,0,0,0-.658-.653.117.117,0,1,0-.119.2l.085.06.02.015.01.008.041.033q.082.068.158.143t.141.153l.033.04.007.009.016.021q.033.044.064.089a.12.12,0,0,0,.161.042.117.117,0,0,0,.042-.159" transform="translate(-412.757 -375.511)" fill="#dedcff"/>
        <path id="Path_995677" data-name="Path 995677" d="M527.527,478.206a2.425,2.425,0,0,0-1.078-.516.121.121,0,0,0-.145.081.118.118,0,0,0,.082.143,2.184,2.184,0,0,1,.974.456.122.122,0,0,0,.166,0,.116.116,0,0,0,0-.165" transform="translate(-414.527 -373.116)" fill="#dedcff"/>
        <path id="Path_995678" data-name="Path 995678" d="M529.661,475.64a1.6,1.6,0,0,0-1.327-.264c-.147.036-.085.261.062.225a1.37,1.37,0,0,1,1.146.241.117.117,0,1,0,.119-.2" transform="translate(-416.012 -371.315)" fill="#dedcff"/>
        <path id="Path_995679" data-name="Path 995679" d="M531.346,471.826a2.1,2.1,0,0,0-1.746-.358c-.147.035-.085.26.063.225a1.872,1.872,0,0,1,1.564.334.117.117,0,1,0,.119-.2" transform="translate(-416.976 -368.321)" fill="#dedcff"/>
        <path id="Path_995680" data-name="Path 995680" d="M531.268,468.7a2.459,2.459,0,0,0-1.562-.147c-.147.035-.085.259.063.225a2.191,2.191,0,0,1,1.381.124.122.122,0,0,0,.161-.042.117.117,0,0,0-.042-.159" transform="translate(-417.057 -366.088)" fill="#dedcff"/>
        <path id="Path_995681" data-name="Path 995681" d="M529.054,464.651a2.147,2.147,0,0,0-.286-.621,1.93,1.93,0,0,0-.479-.508.278.278,0,0,0-.356,0,.313.313,0,0,0-.049.349,1.532,1.532,0,0,0,.369.535,1.635,1.635,0,0,0,.6.361.118.118,0,0,0,.2-.112m-.874-.714a.5.5,0,0,1-.094-.225c0-.013,0-.025.012-.027.03-.006.077.04.1.058a1.853,1.853,0,0,1,.537.715,1.379,1.379,0,0,1-.553-.521" transform="translate(-415.71 -362.245)" fill="#dedcff"/>
        <path id="Path_995682" data-name="Path 995682" d="M532.828,463.579a.415.415,0,0,0-.315-.192.738.738,0,0,0-.645.372,1.818,1.818,0,0,0-.338.814.077.077,0,0,0,0,.01.109.109,0,0,0-.027.07.118.118,0,0,0,.118.116,1.618,1.618,0,0,0,.731-.238,1.156,1.156,0,0,0,.513-.576.475.475,0,0,0-.037-.377m-.185.3a.871.871,0,0,1-.387.44,1.387,1.387,0,0,1-.475.2,1.646,1.646,0,0,1,.185-.477c.093-.157.227-.36.416-.411a.244.244,0,0,1,.208.03.212.212,0,0,1,.054.221" transform="translate(-418.489 -362.19)" fill="#dedcff"/>
        <path id="Path_995683" data-name="Path 995683" d="M520.576,468.141a1.04,1.04,0,0,1-.55.836,2.28,2.28,0,0,1-1.146.054,2.3,2.3,0,0,0-1.072.069,1.523,1.523,0,0,0-.717.572c-.085.125.119.241.2.118a1.27,1.27,0,0,1,.849-.538,6.644,6.644,0,0,1,1.243.056,1.522,1.522,0,0,0,.961-.248,1.366,1.366,0,0,0,.455-.856c.034-.146-.193-.208-.227-.062" transform="translate(-407.499 -365.76)" fill="#dedcff"/>
        <path id="Path_995684" data-name="Path 995684" d="M521.153,467.778c-.341.583-1.125.212-1.58.01a2.776,2.776,0,0,0-1.671-.222c-.148.028-.086.252.063.225a2.378,2.378,0,0,1,1,.024,6.86,6.86,0,0,1,.915.36,1.15,1.15,0,0,0,1.481-.279.117.117,0,0,0-.2-.118" transform="translate(-408.068 -365.351)" fill="#dedcff"/>
        <path id="Path_995685" data-name="Path 995685" d="M485.45,202.622c1.4-1.775.545-4.015-1.725-5.555s-4.618,1.05-4.618,1.05l-3.2,4.406a7.935,7.935,0,0,0-2.43,2.987l-3.934-4.137c-.635-.951-2.931-1.176-3.9-.564l-.61.385a2.435,2.435,0,0,0-.72,3.438l4.409,6.755c2.723,2.427,5.615,2.009,8.744-.717Z" transform="translate(-367.006 -158.386)" fill="#ffba1f"/>
        <path id="Path_995686" data-name="Path 995686" d="M504.96,235.141a.119.119,0,0,1-.065-.019,6.386,6.386,0,0,1-1.04-.913l-.368-.374a.117.117,0,0,1,0-.167.12.12,0,0,1,.169,0l.368.374a6.2,6.2,0,0,0,1,.88.117.117,0,0,1,.034.163.119.119,0,0,1-.1.053" transform="translate(-397.13 -186.693)" fill="#483a8e"/>
        <path id="Path_995687" data-name="Path 995687" d="M456.056,177.727a.562.562,0,0,0-.13-.36l-.012-.013a.506.506,0,0,0-.852.283l-.344,2.031-.724-3.6a.875.875,0,0,0-.228-.464.281.281,0,0,0-.478.129,1.783,1.783,0,0,0-.046.544l.206,2.992L452.343,176a.946.946,0,0,0-.229-.368.39.39,0,0,0-.659.2,1.5,1.5,0,0,0,.015.585l.669,2.981-1.347-2.313a.966.966,0,0,0-.365-.357.279.279,0,0,0-.414.231,1.376,1.376,0,0,0,.1.594l.928,2.26-.141-.182-.318-.411-.339-.438a1.567,1.567,0,0,0-.453-.465.42.42,0,0,0-.143-.053.2.2,0,0,0-.146.031c-.1.076-.087.234-.082.345a1.645,1.645,0,0,0,.12.555l1.447,3.5a1.87,1.87,0,0,0,.736.87l.139.087a1.741,1.741,0,0,0,.893.265l.459.008a2.348,2.348,0,0,0,.844-.133,2.915,2.915,0,0,0,1.775-1.814l.045-.135a4.446,4.446,0,0,0,.228-1.495Z" transform="translate(-355.984 -142.295)" fill="#f7e7c6"/>
        <path id="Path_995688" data-name="Path 995688" d="M459.924,206.019a11.02,11.02,0,0,0,1.424-.644,4.761,4.761,0,0,0,1.252-.81,1.773,1.773,0,0,0,.425-.771l-2.379-3.534-2.877,1.906s.845,1.823,1.952,3.922l.2-.069" transform="translate(-362.344 -161.199)" fill="#f7e7c6"/>
        <path id="Path_995689" data-name="Path 995689" d="M456.015,193.393a.12.12,0,0,1-.086-.036.117.117,0,0,1,0-.167,2.961,2.961,0,0,1,1.486-.727,5.8,5.8,0,0,1,1.64-.051.118.118,0,0,1,.109.128.121.121,0,0,1-.129.107,5.569,5.569,0,0,0-1.573.048,2.729,2.729,0,0,0-1.367.665.119.119,0,0,1-.083.033" transform="translate(-360.917 -155.178)" fill="#483a8e"/>
        <path id="Path_995690" data-name="Path 995690" d="M461.41,200.086a.12.12,0,0,1-.1-.061,2.18,2.18,0,0,0-1.853-1.077h-.016a.118.118,0,1,1,0-.236h.017a2.425,2.425,0,0,1,2.062,1.2.118.118,0,0,1-.046.161.122.122,0,0,1-.058.015" transform="translate(-363.523 -160.017)" fill="#483a8e"/>
        <path id="Path_995691" data-name="Path 995691" d="M467.55,207.479a.118.118,0,0,1-.006-.236,3.062,3.062,0,0,0,.716-.1,1.279,1.279,0,0,0,.586-.343.121.121,0,0,1,.168-.008.117.117,0,0,1,.008.167,1.516,1.516,0,0,1-.694.411,3.282,3.282,0,0,1-.773.112h-.006" transform="translate(-369.7 -166.164)" fill="#483a8e"/>
        <path id="Path_995692" data-name="Path 995692" d="M466.224,211.288c-.009.056-.021.112-.035.165-.033.028-.066.056-.1.081-.059.051-.12.1-.181.147-.207.163-.426.317-.633.47-.021.016-.042.03-.063.044-.063.049-.127.093-.188.135a8.035,8.035,0,0,1-.957.594l-.221.112a5.125,5.125,0,0,1-.847.305l-.108.028c-.049.012-.1.023-.153.033a3.182,3.182,0,0,1-.868.072.925.925,0,0,1-.221-.191,2.949,2.949,0,0,1-.525-1.26.479.479,0,0,1,.045-.47.875.875,0,0,1,.527-.319l.059-.016c.057-.014.113-.03.169-.047a6.322,6.322,0,0,0,.689-.23c.073-.028.144-.058.214-.091a4.824,4.824,0,0,0,.5-.254c.139-.079.271-.17.4-.261.063-.047.129-.091.2-.135a2.445,2.445,0,0,1,.649-.321,1.2,1.2,0,0,1,.285-.049,1.075,1.075,0,0,1,.259.012,1.309,1.309,0,0,1,.694.312,1.28,1.28,0,0,1,.409,1.134" transform="translate(-364.867 -168.507)" fill="#ff7c10"/>
        <path id="Path_995693" data-name="Path 995693" d="M463.884,211.172c-.056.016-.113.033-.169.047l-.059.016A4.511,4.511,0,0,0,464.7,213.4c.052-.009.1-.021.153-.033l.108-.028a4.256,4.256,0,0,1-1.075-2.17m.9-.321c-.071.033-.141.063-.214.091a4.491,4.491,0,0,0,1.233,2.1l.221-.112a4.256,4.256,0,0,1-1.239-2.074m1.1-.65c-.066.044-.132.089-.2.135a11.194,11.194,0,0,0,1.292,2c.061-.042.124-.086.188-.135a11,11,0,0,1-1.284-2m1.192-.358a1.076,1.076,0,0,0-.259-.012,8.4,8.4,0,0,0,1.047,1.851c.061-.047.122-.1.181-.147a8.141,8.141,0,0,1-.969-1.693" transform="translate(-366.826 -168.508)" fill="#ffba1f"/>
        <path id="Path_995694" data-name="Path 995694" d="M533.406,186.094s2.316-6.862,12.446-4.243c5.175,1.338,1.642,9.6-.16,9.72s-12.286-5.477-12.286-5.477" transform="translate(-419.938 -146.682)" fill="#ffba1f"/>
        <path id="Path_995695" data-name="Path 995695" d="M557.969,324.383l.593-22.8-11.276,1.723,3.49,21.443a3.352,3.352,0,0,0,3.365,2.909l.855-.04a3.216,3.216,0,0,0,2.974-3.235" transform="translate(-430.507 -238.596)" fill="#7265bf"/>
        <path id="Path_995696" data-name="Path 995696" d="M552.143,341.035a.119.119,0,0,1-.117-.1l-1.542-9.471a.119.119,0,0,1,.235-.037l1.542,9.471a.118.118,0,0,1-.1.135l-.019,0" transform="translate(-432.941 -261.317)" fill="#483a8e"/>
        <path id="Path_995697" data-name="Path 995697" d="M521.742,289.7v3.528s8.042,2.9,13.026,1.239l2.042-5.8Z" transform="translate(-411.056 -228.728)" fill="#ff7c10"/>
        <path id="Path_995698" data-name="Path 995698" d="M532.888,197.728c-.476-.573-1.465-.738-3.031-1.06-.735-.151-5.759-.892-7.9-.4a1.7,1.7,0,0,0-.947.824c-.381.563-.827,1.435-1.478,2.7-2.5,4.834-1.593,13.234-1.593,13.234l-1.054,5.27a2.483,2.483,0,0,0,1.616,2.778c3.81,1.48,8.747,1.205,11.919.791a3.659,3.659,0,0,0,3.31-3.355c.249-5.859.634-19-.84-20.778" transform="translate(-407.321 -158.023)" fill="#ffba1f"/>
        <path id="Path_995699" data-name="Path 995699" d="M522.5,268.306l-1.726,5.5a14.713,14.713,0,0,0,9.6,1.626l-.718-6.414s-4.789.605-7.156-.713" transform="translate(-410.321 -213.177)" fill="#ff7c10"/>
        <path id="Path_995700" data-name="Path 995700" d="M535.609,207.8a.112.112,0,0,1-.026,0,.118.118,0,0,1-.09-.141,9.664,9.664,0,0,0-.245-4.318c-.044-.2-.089-.391-.134-.587a14.911,14.911,0,0,1-.539-3.794,7.544,7.544,0,0,1,1.56-4.339.12.12,0,0,1,.167-.022.117.117,0,0,1,.022.166,7.306,7.306,0,0,0-1.511,4.2,14.753,14.753,0,0,0,.532,3.734q.068.294.135.588a10.044,10.044,0,0,1,.245,4.422.119.119,0,0,1-.116.092" transform="translate(-420.825 -156.852)" fill="#dedcff"/>
        <path id="Path_995701" data-name="Path 995701" d="M536.721,248.51l.611.109-.24,1.179-.77-.268Z" transform="translate(-422.157 -198.055)" fill="#dedcff"/>
        <path id="Path_995702" data-name="Path 995702" d="M549.932,207.582a.119.119,0,0,1-.119-.116,7.989,7.989,0,0,1,3.461-6.625.12.12,0,0,1,.166.03.117.117,0,0,1-.031.164,7.751,7.751,0,0,0-3.358,6.428.119.119,0,0,1-.118.12Z" transform="translate(-432.431 -161.626)" fill="#dedcff"/>
        <path id="Path_995703" data-name="Path 995703" d="M549.2,227.152h.611l.1,1.09H549.2Z" transform="translate(-431.966 -181.741)" fill="#dedcff"/>
        <rect id="Rectangle_454743" data-name="Rectangle 454743" width="11.21" height="1.42" transform="translate(119.462 69.421) rotate(-1.92)" fill="#dedcff"/>
        <path id="Path_995704" data-name="Path 995704" d="M559.506,273.226a.478.478,0,0,1-.306-.11l-5.617-4.641a.47.47,0,0,1-.171-.337l-1.859-34.1a.474.474,0,0,1,.434-.5l12.874-1.131a.484.484,0,0,1,.37.127.469.469,0,0,1,.149.358l-1.086,35.07a.472.472,0,0,1-.12.3l-4.312,4.8a.479.479,0,0,1-.357.158m-5.151-5.344,5.1,4.216,3.89-4.33,1.064-34.367-11.879,1.044Z" transform="translate(-433.757 -185.759)" fill="#dedcff"/>
        <path id="Path_995705" data-name="Path 995705" d="M547.792,231.582l.063.373a1.161,1.161,0,0,0,1.148.962h13.661a1.159,1.159,0,0,0,1.163-1.089l.1-1.743a1.159,1.159,0,0,0-1.279-1.211l-13.821,1.37a1.155,1.155,0,0,0-1.032,1.337" transform="translate(-430.88 -183.052)" fill="#483a8e"/>
        <path id="Path_995706" data-name="Path 995706" d="M584.316,423.229a.475.475,0,0,1-.476-.451l-.95-21.032a.477.477,0,0,1,.953-.042l.949,21.032a.474.474,0,0,1-.455.493h-.022" transform="translate(-457.618 -314.73)" fill="#dedcff"/>
        <path id="Path_995707" data-name="Path 995707" d="M580.933,485.435l2.782-.244.707,4.862-4.084.18Z" transform="translate(-455.675 -378.848)" fill="#483a8e"/>
        <path id="Path_995708" data-name="Path 995708" d="M571.243,320.746a6,6,0,0,1,.214,1.542,1.447,1.447,0,0,1-.774,1.269,10.124,10.124,0,0,1-1.365.183,2.111,2.111,0,0,1-.842.2,2.428,2.428,0,0,1-.592-.277,2.637,2.637,0,0,0-1.189-.113.733.733,0,0,1-.413-.072c-.163-.1-.222-.3-.316-.467a5,5,0,0,0-.43-.542.681.681,0,0,1,.065-1.049c.5-.462.013-1.226-.133-1.335.4-1.461,1.812-1.805,3.255-2.309a1.234,1.234,0,0,1,.723-.08,1.282,1.282,0,0,1,.386.206c.26.182.5.386.748.583a1.158,1.158,0,0,1,.385.368,2.825,2.825,0,0,1,.116.843c.041.352.09.7.16,1.05" transform="translate(-444.241 -250.883)" fill="#f7e7c6"/>
        <path id="Path_995709" data-name="Path 995709" d="M574.293,340.611a.121.121,0,0,1-.057-.014.589.589,0,0,0-.39-.057.118.118,0,1,1-.049-.231.829.829,0,0,1,.553.081.117.117,0,0,1,.048.16.119.119,0,0,1-.1.062" transform="translate(-450.622 -268.165)" fill="#483a8e"/>
        <path id="Path_995710" data-name="Path 995710" d="M581.982,340.327a.118.118,0,0,1-.068-.021.117.117,0,0,1-.029-.164.7.7,0,0,1,.449-.266,1.874,1.874,0,0,1,.473-.01.118.118,0,1,1-.016.236,1.672,1.672,0,0,0-.413.007.477.477,0,0,0-.3.169.119.119,0,0,1-.1.05" transform="translate(-456.836 -267.831)" fill="#483a8e"/>
        <path id="Path_995711" data-name="Path 995711" d="M576.848,317.98a.946.946,0,0,1-.482.859,1.068,1.068,0,0,1-.169.063,1.464,1.464,0,0,1-.268.042,3.66,3.66,0,0,1-.661-.033l-.082-.009c-.052,0-.1-.012-.153-.021a9.5,9.5,0,0,1-1.016-.174c-.075-.016-.151-.033-.226-.054a.083.083,0,0,1-.023,0,2.5,2.5,0,0,1-.647-.244,1.2,1.2,0,0,1-.235-.172.91.91,0,0,1-.113-.119,1.972,1.972,0,0,1-.177-1.648c.172.009.344.023.513.035h0c.08.007.16.014.24.019.238.021.475.042.713.065.078.007.155.014.233.023.332.033.666.068,1,.1l.188.021c.235.026.47.051.706.075l.24.026.287.028c0,.012.012.023.016.037a2.726,2.726,0,0,1,.118,1.085" transform="translate(-449.709 -249.963)" fill="#ff7c10"/>
        <path id="Path_995712" data-name="Path 995712" d="M574.329,316.611h0a7.061,7.061,0,0,0-.224,1.732,1.193,1.193,0,0,0,.235.172,6.812,6.812,0,0,1,.23-1.886c-.08,0-.16-.012-.24-.019m.952.084a11.974,11.974,0,0,1-.273,2.07c.075.021.151.037.226.054a11.931,11.931,0,0,0,.28-2.1c-.078-.009-.155-.016-.233-.023m1.44.2a.117.117,0,0,0-.021-.058.128.128,0,0,0-.188-.021.1.1,0,0,0-.026.079,5.256,5.256,0,0,1-.235,2.093c.052.009.1.016.153.021l.082.009a5.356,5.356,0,0,0,.235-2.123m.924.042-.24-.026a3.965,3.965,0,0,1-.259,2.14,1.465,1.465,0,0,0,.268-.042,4.2,4.2,0,0,0,.23-2.072" transform="translate(-450.927 -250.076)" fill="#ffba1f"/>
        <path id="Path_995713" data-name="Path 995713" d="M576.9,217.548l-.365,1.681-.122.484-2.515,9.94a2.677,2.677,0,0,1-2.639,1.539l-1.049-.14a1.994,1.994,0,0,1-1.705-2.363l1.691-8.4a8.082,8.082,0,0,0-.245-4.191q-1.376-4.132-2.5-8.338a3.957,3.957,0,0,1,1.7-4.417,5.1,5.1,0,0,1,3.406-.3c1.981.624,2.948,5.006,3.509,8.757l.186.871.134.633.548,2.568a3.67,3.67,0,0,1-.035,1.677" transform="translate(-445.749 -163.199)" fill="#ffba1f"/>
        <path id="Path_995714" data-name="Path 995714" d="M591.062,206.081a.119.119,0,0,1-.112-.077c-.584-1.55-1.276-2.46-2.057-2.706a.118.118,0,0,1-.078-.148.12.12,0,0,1,.15-.077c.866.273,1.589,1.2,2.209,2.848a.118.118,0,0,1-.07.152.122.122,0,0,1-.042.007" transform="translate(-462.125 -163.344)" fill="#483a8e"/>
        <path id="Path_995715" data-name="Path 995715" d="M568.564,244.219l-.024,0a.118.118,0,0,1-.094-.139l1.691-8.4a7.984,7.984,0,0,0-.24-4.132c-.791-2.375-1.524-4.78-2.181-7.149q-.165-.6-.325-1.194a.119.119,0,0,1,.231-.06q.16.6.325,1.192c.655,2.365,1.388,4.767,2.177,7.138a8.211,8.211,0,0,1,.248,4.253l-1.691,8.4a.119.119,0,0,1-.117.095" transform="translate(-445.813 -178.612)" fill="#483a8e"/>
        <path id="Path_995716" data-name="Path 995716" d="M602.49,247.543l-.548-2.568-.134-.633a6.826,6.826,0,0,0-.844,2.349,6.359,6.359,0,0,0,.816,4.429c.059.091.12.179.188.265l.122-.484.365-1.681a3.668,3.668,0,0,0,.035-1.677" transform="translate(-471.309 -194.871)" fill="#483a8e"/>
        <path id="Path_995717" data-name="Path 995717" d="M531.682,136.39s-3.257-3.057-5.6-.671c-3.436,3.493.892,5.74.892,5.74l3.981-.679Z" transform="translate(-413.349 -111.203)" fill="#483a8e"/>
        <path id="Path_995718" data-name="Path 995718" d="M522.285,142.095a.119.119,0,0,1-.1-.053,4.013,4.013,0,0,1-.38-3.66,4.078,4.078,0,0,1,2.807-2.412.118.118,0,1,1,.056.23,3.837,3.837,0,0,0-2.641,2.27,3.776,3.776,0,0,0,.357,3.444.118.118,0,0,1-.1.183" transform="translate(-410.894 -112.087)" fill="#483a8e"/>
        <path id="Path_995719" data-name="Path 995719" d="M542.356,135.361s10.412-2.923,8.429,4.837a14.433,14.433,0,0,1-2.258,4.654l-4.983-1.1Z" transform="translate(-426.753 -111.213)" fill="#483a8e"/>
        <path id="Path_995720" data-name="Path 995720" d="M549.586,170.158a30.881,30.881,0,0,1-3.484,2.606,8.321,8.321,0,0,1-2.827-.41v-.012l.007-1.064.073-4.651.007-.316,3.362-1.525,2.461-1.115Z" transform="translate(-427.453 -133.249)" fill="#f7e7c6"/>
        <path id="Path_995721" data-name="Path 995721" d="M546.765,168.392l-.5,1.807-2.939,3.933.068-3.9.007-.316Z" transform="translate(-427.493 -136.856)" fill="#483a8e"/>
        <path id="Path_995722" data-name="Path 995722" d="M540.957,146.635a6.487,6.487,0,0,1-.307,1.239,6.7,6.7,0,0,1-2.294,3.188,4.312,4.312,0,0,1-.436.279,2.538,2.538,0,0,1-.228.122,3.448,3.448,0,0,1-1.856.374c-.05,0-.1-.01-.149-.016a.153.153,0,0,1-.031-.006c-.046-.007-.091-.013-.135-.022a.468.468,0,0,1-.063-.009c-.065-.014-.128-.026-.189-.042s-.109-.025-.163-.04-.1-.029-.145-.045-.108-.034-.16-.055a4.3,4.3,0,0,1-2.694-3.638,7.821,7.821,0,0,1-.086-.871,8.913,8.913,0,0,1,.089-1.718,6.171,6.171,0,0,1,.181-.836c.047-.148.1-.294.154-.434a4.453,4.453,0,0,1,8.418.43,5.272,5.272,0,0,1,.1,2.1" transform="translate(-418.875 -116.16)" fill="#f7e7c6"/>
        <path id="Path_995723" data-name="Path 995723" d="M544.62,183.167a3.276,3.276,0,0,1-.487-.036,4.3,4.3,0,0,1-.845-.215.118.118,0,0,1-.07-.152.12.12,0,0,1,.154-.069,4.027,4.027,0,0,0,.8.2,3.616,3.616,0,0,0,2.645-.728.121.121,0,0,1,.167.026.118.118,0,0,1-.026.165,4.02,4.02,0,0,1-2.335.807" transform="translate(-427.403 -147.362)" fill="#483a8e"/>
        <path id="Path_995724" data-name="Path 995724" d="M541.643,160.175h-.015l-.4-.051a.481.481,0,0,1-.33-.192.472.472,0,0,1-.087-.369l.337-1.864a.121.121,0,0,1,.138-.1.118.118,0,0,1,.1.137l-.337,1.864a.24.24,0,0,0,.044.187.246.246,0,0,0,.167.1l.4.051a.118.118,0,0,1-.015.235" transform="translate(-425.569 -128.614)" fill="#483a8e"/>
        <path id="Path_995725" data-name="Path 995725" d="M549.135,154.261a1.525,1.525,0,0,0-.423.047.347.347,0,0,0-.166.085c-.173.183.222.29.339.32a1.872,1.872,0,0,0,.885.046c.222-.053.221-.3.03-.4a.733.733,0,0,0-.257-.066,3.693,3.693,0,0,0-.408-.034" transform="translate(-431.434 -126.062)" fill="#483a8e"/>
        <path id="Path_995726" data-name="Path 995726" d="M533.3,153.184a1.51,1.51,0,0,1,.413.1.343.343,0,0,1,.153.106c.147.2-.258.259-.379.273a1.87,1.87,0,0,1-.883-.069c-.213-.082-.18-.322.023-.4a.735.735,0,0,1,.263-.032,3.7,3.7,0,0,1,.409.019" transform="translate(-419.217 -125.225)" fill="#483a8e"/>
        <path id="Path_995727" data-name="Path 995727" d="M551.6,166.434c.022.245.37.414.777.378s.72-.263.7-.508-.37-.414-.777-.378-.72.263-.7.508" transform="translate(-433.788 -134.969)" fill="#ffba1f"/>
        <path id="Path_995728" data-name="Path 995728" d="M529.67,166.249c.022.245.37.414.777.378s.72-.263.7-.508-.37-.414-.778-.378-.72.263-.7.508" transform="translate(-417.093 -134.828)" fill="#ffba1f"/>
        <path id="Path_995729" data-name="Path 995729" d="M545.949,161.672a.119.119,0,0,1-.1-.058.117.117,0,0,1,.041-.162,1.88,1.88,0,0,1,1.78-.005.117.117,0,0,1,.047.16.119.119,0,0,1-.162.046,1.636,1.636,0,0,0-1.542,0,.121.121,0,0,1-.061.017" transform="translate(-429.398 -131.38)" fill="#483a8e"/>
        <path id="Path_995730" data-name="Path 995730" d="M533.921,161.256a.12.12,0,0,1-.1-.058.118.118,0,0,1,.041-.162,1.3,1.3,0,0,1,1.233,0,.117.117,0,0,1,.046.16.119.119,0,0,1-.162.046,1.058,1.058,0,0,0-1,0,.118.118,0,0,1-.06.016" transform="translate(-420.239 -131.116)" fill="#483a8e"/>
        <path id="Path_995731" data-name="Path 995731" d="M540.773,171.009a1.472,1.472,0,0,1-.379.692,1.82,1.82,0,0,1-.71.428,1.1,1.1,0,0,1-.964-.124,1.7,1.7,0,0,1-.346-.312,2.159,2.159,0,0,1-.339-.545.472.472,0,0,1,.527-.65,4.283,4.283,0,0,0,1.637-.044.473.473,0,0,1,.574.554" transform="translate(-423.432 -138.423)" fill="#483a8e"/>
        <path id="Path_995732" data-name="Path 995732" d="M541.606,174.609a1.817,1.817,0,0,1-.71.428,1.1,1.1,0,0,1-.964-.123,1.7,1.7,0,0,1-.346-.312,1.624,1.624,0,0,1,1.9-.079c.045.03.087.058.125.086" transform="translate(-424.643 -141.332)" fill="#f4519b"/>
        <path id="Path_995733" data-name="Path 995733" d="M545.373,142.017a.119.119,0,0,1-.1-.056,3.556,3.556,0,0,1-.38-2.859.12.12,0,0,1,.149-.08.118.118,0,0,1,.08.147,3.317,3.317,0,0,0,.355,2.668.118.118,0,0,1-.1.18" transform="translate(-428.574 -114.419)" fill="#483a8e"/>
        <path id="Path_995734" data-name="Path 995734" d="M551.252,138.534a7.717,7.717,0,0,0-5.944.149s.994,4.055,3.7,4.5l.324,2.028,2.537-.8.031-2.559-.082-3.03a2.386,2.386,0,0,0-.562-.287" transform="translate(-429.001 -113.658)" fill="#483a8e"/>
        <path id="Path_995735" data-name="Path 995735" d="M562.175,165.085a1.622,1.622,0,0,0,1.878,1.272,1.448,1.448,0,1,0-.256-2.851,1.615,1.615,0,0,0-1.622,1.579" transform="translate(-441.84 -133.118)" fill="#f7e7c6"/>
        <path id="Path_995736" data-name="Path 995736" d="M565.105,174.224H565.1a2,2,0,0,1-1.057-.373.118.118,0,0,1-.024-.165.121.121,0,0,1,.167-.024,1.784,1.784,0,0,0,.931.327.118.118,0,0,1-.008.236" transform="translate(-443.228 -140.864)" fill="#483a8e"/>
        <path id="Path_995737" data-name="Path 995737" d="M567.282,166.794a.119.119,0,0,1-.119-.108.658.658,0,0,0-.277-.476.931.931,0,0,0-.634-.159,1.04,1.04,0,0,0-.587.239.12.12,0,0,1-.168-.011.117.117,0,0,1,.011-.166,1.278,1.278,0,0,1,.723-.3,1.178,1.178,0,0,1,.8.2.891.891,0,0,1,.374.646.119.119,0,0,1-.108.128h-.011" transform="translate(-444.351 -134.885)" fill="#483a8e"/>
        <path id="Path_995738" data-name="Path 995738" d="M520.4,221.744a.119.119,0,0,1-.119-.116c-.047-3.076.221-7.368,1.761-10.349a.12.12,0,0,1,.161-.051.117.117,0,0,1,.052.159c-1.517,2.937-1.781,7.188-1.734,10.237a.119.119,0,0,1-.117.12Z" transform="translate(-409.941 -169.567)" fill="#483a8e"/>
        <path id="Path_995739" data-name="Path 995739" d="M544.875,193.272a.127.127,0,0,1-.035,0,.119.119,0,0,1-.079-.148,5.536,5.536,0,0,1,1.012-1.873,11.068,11.068,0,0,1,2.466-2.022l.435-.293a7.12,7.12,0,0,0,2.53-2.54.12.12,0,0,1,.159-.054.117.117,0,0,1,.055.158,7.324,7.324,0,0,1-2.609,2.631c-.145.1-.291.2-.436.294a10.9,10.9,0,0,0-2.415,1.976,5.3,5.3,0,0,0-.968,1.792.12.12,0,0,1-.114.084" transform="translate(-428.58 -150.555)" fill="#483a8e"/>
        <path id="Path_995740" data-name="Path 995740" d="M211.681,412.44l-3.55,6-2.213-1.581,4.3-5.788Z" transform="translate(-170.571 -322.234)" fill="#483a8e"/>
        <path id="Path_995741" data-name="Path 995741" d="M187.97,437.119s-1.88.9-3.728,4.713-1.911,4.868-1.911,4.868l1.973,1.054s4.135-3.287,4.824-5.318a16,16,0,0,0,.752-4.109Z" transform="translate(-152.611 -342.127)" fill="#483a8e"/>
        <path id="Path_995742" data-name="Path 995742" d="M203.211,436.535a2.008,2.008,0,1,1-4.015,0,2.008,2.008,0,0,1,4.015,0" transform="translate(-165.452 -340.165)" fill="#483a8e"/>
        <path id="Path_995743" data-name="Path 995743" d="M210.789,442.611c-.217.449-.534.717-.721.628s-.174-.5.043-.95.521-.69.708-.6.187.474-.03.923" transform="translate(-173.631 -345.604)" fill="#dedcff"/>
        <path id="Path_995744" data-name="Path 995744" d="M207.838,434.662a.119.119,0,0,1-.077-.028,1.735,1.735,0,0,0-1.392-.378.118.118,0,1,1-.04-.233,1.984,1.984,0,0,1,1.587.431.117.117,0,0,1,.014.167.12.12,0,0,1-.091.042" transform="translate(-170.807 -339.742)" fill="#dedcff"/>
        <path id="Path_995745" data-name="Path 995745" d="M204.647,448.921l-.092,0a2.355,2.355,0,0,1-1.234-.414.117.117,0,0,1-.029-.164.12.12,0,0,1,.166-.029,2.091,2.091,0,0,0,2.24.091.12.12,0,0,1,.163.042.118.118,0,0,1-.042.162,2.363,2.363,0,0,1-1.172.314" transform="translate(-168.555 -350.661)" fill="#dedcff"/>
        <path id="Path_995746" data-name="Path 995746" d="M161.957,473.534l5.242,3.8s.371-.457.812-1.131a9.546,9.546,0,0,0,1.369-2.914c-1.077-.78-1.857-1.441-2.9-2.257a2.407,2.407,0,0,1-2.08.741,2.191,2.191,0,0,0-1.843.874,4.276,4.276,0,0,0-.594.891" transform="translate(-137.096 -368.029)" fill="#ff7c10"/>
        <path id="Path_995747" data-name="Path 995747" d="M180.447,469.815c.058-.039,2.352-.562,2.324-1.668s-1.57-1.775-2.073-1.705-.317.7-.755,1.077-.266,1.6-.266,1.6Z" transform="translate(-150.564 -364.522)" fill="#ff7c10"/>
        <path id="Path_995748" data-name="Path 995748" d="M161.957,478.76l5.242,3.8s.371-.457.812-1.131a17.722,17.722,0,0,1-3.294-1.916c-1.069-.783-1.742-1.3-2.165-1.64a4.276,4.276,0,0,0-.594.891" transform="translate(-137.096 -373.255)" fill="#dedcff"/>
        <path id="Path_995749" data-name="Path 995749" d="M173.831,473.057a4.063,4.063,0,0,1,2.2,1.782c.08.134-.146.23-.225.1a3.8,3.8,0,0,0-2.057-1.652c-.15-.051-.062-.277.087-.227" transform="translate(-146.012 -369.573)" fill="#dedcff"/>
        <path id="Path_995750" data-name="Path 995750" d="M176.279,472.359a4.381,4.381,0,0,1,2.23,1.7c.087.129-.1.282-.192.151a4.157,4.157,0,0,0-2.125-1.624c-.15-.051-.062-.277.087-.227" transform="translate(-147.877 -369.04)" fill="#dedcff"/>
        <path id="Path_995751" data-name="Path 995751" d="M176.142,469.653a4.985,4.985,0,0,1,2.573,1.939c.087.129-.1.281-.193.151a4.762,4.762,0,0,0-2.467-1.863c-.15-.049-.062-.276.087-.227" transform="translate(-147.772 -366.973)" fill="#dedcff"/>
        <path id="Path_995752" data-name="Path 995752" d="M182.782,471.752a.128.128,0,0,0,.065.039.114.114,0,0,0,.092.07,1.818,1.818,0,0,0,.717-.037,1.887,1.887,0,0,0,.31-.107.812.812,0,0,0,.3-.2.287.287,0,0,0,.039-.319.341.341,0,0,0-.315-.156,1.763,1.763,0,0,0-1.185.536.124.124,0,0,0-.02.171m.337-.122a1.509,1.509,0,0,1,.819-.339c.037,0,.149-.015.152.037s-.094.1-.137.124a1.605,1.605,0,0,1-.834.178" transform="translate(-152.934 -368.042)" fill="#dedcff"/>
        <path id="Path_995753" data-name="Path 995753" d="M181.855,469.075a1.11,1.11,0,0,0,.211,1.1.124.124,0,0,0,.172.02.118.118,0,0,0,.039-.13,1.289,1.289,0,0,0,.168-.531,1.311,1.311,0,0,0-.007-.277.623.623,0,0,0-.095-.285.253.253,0,0,0-.3-.091.379.379,0,0,0-.192.195m.223.1,0-.008h0l.013-.019.016-.021c.01-.008.03-.022.013-.013l.01,0,.014.013a.25.25,0,0,1,.028.076,1.053,1.053,0,0,1-.047.615.97.97,0,0,1-.088-.242.623.623,0,0,1,.036-.4" transform="translate(-152.189 -366.376)" fill="#dedcff"/>
        <path id="Path_995754" data-name="Path 995754" d="M182.515,472.918a1.468,1.468,0,0,1,1.012.245c.265.182.561.517.438.86a.123.123,0,0,1-.229-.086c.086-.24-.219-.493-.395-.6a1.2,1.2,0,0,0-.789-.174.121.121,0,0,1-.038-.24" transform="translate(-152.674 -369.464)" fill="#dedcff"/>
        <path id="Path_995755" data-name="Path 995755" d="M176.231,465.6a2.42,2.42,0,0,1,1.7,1.9.123.123,0,0,1-.242.037,2.179,2.179,0,0,0-1.546-1.709c-.152-.043-.064-.27.087-.227" transform="translate(-147.839 -363.877)" fill="#dedcff"/>
        <path id="Path_995756" data-name="Path 995756" d="M252,422.277c-.007.321-.027.648-.061.974-.01.095-.02.189-.03.282-.029.257-.056.5-.083.736q-.07.546-.133,1c-.039.27-.076.512-.11.733-.179,1.1-.314,1.605-.314,1.605l-2.932.136-.248-1.647-.108-.724-.128-.855-.108-.721-.184-1.224-.481-3.206L245.568,407.4l6.09-.2-.326,9.985a18.366,18.366,0,0,1,.667,5.091" transform="translate(-200.762 -319.274)" fill="#f7e7c6"/>
        <path id="Path_995757" data-name="Path 995757" d="M258.36,471.046c-.007.321-.027.648-.061.974-.01.095-.02.189-.03.282-.029.257-.056.5-.083.736q-.07.546-.133,1c-.039.27-.076.512-.11.733-.179,1.1-.314,1.605-.314,1.605l-2.932.136-.248-1.647-.108-.724-.128-.855-.108-.721-.184-1.224Z" transform="translate(-207.123 -368.043)" fill="#483a8e"/>
        <path id="Path_995758" data-name="Path 995758" d="M258.856,476.364c-.029.257-.057.5-.083.736l-3.973.248-.108-.721,4.164-.262" transform="translate(-207.71 -372.105)" fill="#867ad7"/>
        <path id="Path_995759" data-name="Path 995759" d="M259.392,483.708c-.039.27-.076.512-.11.733l-3.494.095-.108-.724q1.855-.051,3.712-.1" transform="translate(-208.461 -377.715)" fill="#867ad7"/>
        <path id="Path_995760" data-name="Path 995760" d="M260.476,496.461h-6.495s-.027-.585.02-1.387a9.511,9.511,0,0,1,.633-3.153c1.335,0,2.358-.078,3.69-.124a2.369,2.369,0,0,0,1.237,1.814,2.154,2.154,0,0,1,.967,1.783,4.253,4.253,0,0,1-.052,1.066" transform="translate(-207.163 -383.895)" fill="#ff7c10"/>
        <path id="Path_995761" data-name="Path 995761" d="M261.406,487.882c-.024-.066-1.563-1.828-.881-2.7s2.326-.515,2.691-.164-.161.75-.034,1.311-.742,1.449-.742,1.449Z" transform="translate(-212.019 -378.421)" fill="#ff7c10"/>
        <path id="Path_995762" data-name="Path 995762" d="M260.476,507.061h-6.495s-.027-.585.02-1.387a17.848,17.848,0,0,0,3.8.379c1.33-.007,2.184-.034,2.726-.058a4.253,4.253,0,0,1-.052,1.066" transform="translate(-207.163 -394.494)" fill="#dedcff"/>
        <path id="Path_995763" data-name="Path 995763" d="M267.026,496.729a4.11,4.11,0,0,0-2.835.155c-.145.062-.02.271.124.21a3.848,3.848,0,0,1,2.646-.131c.151.047.215-.187.065-.234" transform="translate(-214.894 -387.523)" fill="#dedcff"/>
        <path id="Path_995764" data-name="Path 995764" d="M265.467,494.672a4.428,4.428,0,0,0-2.814.069c-.147.054-.083.289.065.234a4.2,4.2,0,0,1,2.684-.069.122.122,0,0,0,.065-.234" transform="translate(-213.708 -385.94)" fill="#dedcff"/>
        <path id="Path_995765" data-name="Path 995765" d="M265.839,492.437a5.039,5.039,0,0,0-3.233.061c-.147.053-.083.288.065.234a4.815,4.815,0,0,1,3.1-.061c.151.048.215-.186.065-.234" transform="translate(-213.672 -384.202)" fill="#dedcff"/>
        <path id="Path_995766" data-name="Path 995766" d="M265.56,488.523a1.734,1.734,0,0,0-.636-1.125.343.343,0,0,0-.348-.059.289.289,0,0,0-.158.28.8.8,0,0,0,.123.333,1.849,1.849,0,0,0,.186.268,1.8,1.8,0,0,0,.556.448.116.116,0,0,0,.116,0,.131.131,0,0,0,.075.007.125.125,0,0,0,.086-.149m-.852-.778c-.021-.043-.072-.138-.036-.18s.117.035.145.059a1.482,1.482,0,0,1,.458.753,1.582,1.582,0,0,1-.567-.631" transform="translate(-215.115 -380.47)" fill="#dedcff"/>
        <path id="Path_995767" data-name="Path 995767" d="M268.821,488.559a.253.253,0,0,0-.292-.1.635.635,0,0,0-.247.175,1.32,1.32,0,0,0-.171.219,1.292,1.292,0,0,0-.182.526.118.118,0,0,0-.046.128.124.124,0,0,0,.151.085,1.126,1.126,0,0,0,.826-.764.374.374,0,0,0-.039-.269m-.408.559a1,1,0,0,1-.215.144,1.064,1.064,0,0,1,.329-.524.258.258,0,0,1,.068-.045l.019,0,.005.01c-.008-.017,0,.006,0,.018s0,.021,0,.026,0,.016,0,.023,0,0,0,0l0,.008a.627.627,0,0,1-.207.341" transform="translate(-217.751 -381.335)" fill="#dedcff"/>
        <path id="Path_995768" data-name="Path 995768" d="M263.65,490.935a1.464,1.464,0,0,0-.963-.394c-.322-.008-.761.09-.867.438-.046.15.191.214.237.064.074-.244.471-.27.679-.257a1.2,1.2,0,0,1,.741.32c.114.108.288-.064.173-.172" transform="translate(-213.133 -382.935)" fill="#dedcff"/>
        <path id="Path_995769" data-name="Path 995769" d="M270.631,489.419a2.454,2.454,0,0,0-2.506.538c-.113.11.061.281.173.172a2.209,2.209,0,0,1,2.267-.476c.148.054.212-.181.065-.234" transform="translate(-217.911 -381.971)" fill="#dedcff"/>
        <path id="Path_995770" data-name="Path 995770" d="M248.825,388.764l.682,10.659a10.88,10.88,0,0,1-7.7-.216l.725-11.279Z" transform="translate(-197.899 -304.553)" fill="#7265bf"/>
        <path id="Path_995771" data-name="Path 995771" d="M212.017,380.041l-6.1,9.566a11.885,11.885,0,0,0,6.186,3.087l5.125-9.458Z" transform="translate(-170.571 -298.527)" fill="#7265bf"/>
        <path id="Path_995772" data-name="Path 995772" d="M220.628,390.874a.118.118,0,1,1,0-.236,7.59,7.59,0,0,0,1.551-.136,3.72,3.72,0,0,0,2.433-1.514.121.121,0,0,1,.165-.038.118.118,0,0,1,.038.163,3.956,3.956,0,0,1-2.587,1.619,7.775,7.775,0,0,1-1.6.141" transform="translate(-181.681 -305.319)" fill="#483a8e"/>
        <path id="Path_995773" data-name="Path 995773" d="M258.8,398.829a.123.123,0,0,1-.045-.009,7.942,7.942,0,0,1-4.245-4.064.118.118,0,0,1,.061-.156.119.119,0,0,1,.157.06,7.7,7.7,0,0,0,4.117,3.941.118.118,0,0,1-.045.227" transform="translate(-207.566 -309.641)" fill="#483a8e"/>
        <path id="Path_995774" data-name="Path 995774" d="M243.052,407.427h-.008a.119.119,0,0,1-.111-.126l.1-1.419a.119.119,0,0,1,.238.016l-.1,1.419a.119.119,0,0,1-.119.11" transform="translate(-198.756 -318.182)" fill="#483a8e"/>
        <path id="Path_995775" data-name="Path 995775" d="M212.275,345.324l-5.5,3.805a1.975,1.975,0,0,0-.615,2.575,2.017,2.017,0,0,0,2.572.873l5.994-2.6a1.98,1.98,0,0,0,1.053-2.569l-.494-1.2a2.017,2.017,0,0,0-3.01-.88" transform="translate(-170.57 -271.734)" fill="#f7e7c6"/>
        <path id="Path_995776" data-name="Path 995776" d="M222.261,340.161l-5.414,3.485s-.526,4.619,3.015,5.158a34.388,34.388,0,0,0,3.837-2.96s3.406-2.913-1.438-5.682" transform="translate(-178.872 -268.065)" fill="#ffba1f"/>
        <path id="Path_995777" data-name="Path 995777" d="M264.428,326.488c1.669.289,4.382.771,5.729,1.011a1.324,1.324,0,0,0,1.3-.516l3.7-5.019a1.329,1.329,0,0,1,1.74-.353,1.3,1.3,0,0,1,.514,1.694l-3.15,6.436a3.152,3.152,0,0,1-3.127,1.743l-7.21-.674a1.311,1.311,0,0,1-1.191-1.414l.152-1.734a1.315,1.315,0,0,1,1.541-1.174" transform="translate(-213.83 -253.755)" fill="#f7e7c6"/>
        <path id="Path_995778" data-name="Path 995778" d="M314.228,305.677a.366.366,0,0,1,.108-.225l.008-.008a.329.329,0,0,1,.534.237l.092,1.338.7-2.29a.572.572,0,0,1,.178-.287.183.183,0,0,1,.3.114,1.155,1.155,0,0,1,0,.355l-.326,1.926.927-2.046a.618.618,0,0,1,.172-.224.254.254,0,0,1,.414.17.975.975,0,0,1-.047.378l-.625,1.89,1.022-1.414a.627.627,0,0,1,.26-.209.181.181,0,0,1,.253.176.9.9,0,0,1-.1.379l-.747,1.406.1-.109.232-.246.248-.262a1.019,1.019,0,0,1,.324-.273.279.279,0,0,1,.1-.026.13.13,0,0,1,.093.03c.062.056.041.157.031.229a1.075,1.075,0,0,1-.113.352l-1.163,2.179a1.223,1.223,0,0,1-.533.517l-.1.048a1.139,1.139,0,0,1-.6.115l-.3-.023a1.53,1.53,0,0,1-.539-.14,1.893,1.893,0,0,1-1.034-1.287l-.02-.09a2.885,2.885,0,0,1-.052-.983Z" transform="translate(-252.875 -240.747)" fill="#f7e7c6"/>
        <path id="Path_995779" data-name="Path 995779" d="M321.234,316.01a.12.12,0,0,1-.091-.042,1.728,1.728,0,0,0-.823-.5,3.589,3.589,0,0,0-1-.128.119.119,0,0,1-.118-.12.12.12,0,0,1,.12-.117,3.831,3.831,0,0,1,1.071.138,1.966,1.966,0,0,1,.936.578.117.117,0,0,1-.013.167.12.12,0,0,1-.077.028" transform="translate(-256.827 -248.921)" fill="#483a8e"/>
        <path id="Path_995780" data-name="Path 995780" d="M316.278,324.671h-.017a2.174,2.174,0,0,1-.5-.124,1.028,1.028,0,0,1-.441-.324.118.118,0,0,1,.025-.165.119.119,0,0,1,.167.025.789.789,0,0,0,.34.246,1.942,1.942,0,0,0,.448.109.118.118,0,0,1-.017.235" transform="translate(-253.855 -255.745)" fill="#483a8e"/>
        <path id="Path_995781" data-name="Path 995781" d="M319.276,320.531a.12.12,0,0,1-.068-.021.118.118,0,0,1-.03-.164,1.6,1.6,0,0,1,1.463-.663.118.118,0,1,1-.025.235,1.377,1.377,0,0,0-1.241.563.12.12,0,0,1-.1.051" transform="translate(-256.796 -252.415)" fill="#483a8e"/>
        <path id="Path_995782" data-name="Path 995782" d="M261.857,340.629l7.024.592s.759,5.031-2.7,6.222a17.082,17.082,0,0,1-3.767-1.036s-4.187-1.569-.554-5.779" transform="translate(-212.037 -268.422)" fill="#ffba1f"/>
        <path id="Path_995783" data-name="Path 995783" d="M220.449,351.512a61.975,61.975,0,0,1,3.849-11.8c1.284-1.166,3.944-.773,5.816-.311a5.465,5.465,0,0,1,3.129,1.9,41.341,41.341,0,0,1,0,13.023c-5.831,2.479-6.752-.5-12.794-2.811" transform="translate(-181.635 -267.135)" fill="#ffba1f"/>
        <path id="Path_995784" data-name="Path 995784" d="M224.545,356.8a.119.119,0,0,1-.115-.15,54.107,54.107,0,0,1,1.833-5.479.119.119,0,0,1,.155-.066.118.118,0,0,1,.067.153,53.865,53.865,0,0,0-1.825,5.456.119.119,0,0,1-.115.086" transform="translate(-184.663 -276.417)" fill="#483a8e"/>
        <path id="Path_995785" data-name="Path 995785" d="M274.185,353.072a.119.119,0,0,1-.119-.114c-.043-1.133-.13-2.177-.258-3.1-.064-.464-.139-.9-.222-1.29a.119.119,0,0,1,.234-.048c.084.4.16.838.225,1.307.129.935.217,1.987.26,3.127a.119.119,0,0,1-.115.123Z" transform="translate(-222.095 -274.375)" fill="#483a8e"/>
        <path id="Path_995786" data-name="Path 995786" d="M246.467,375.447a.119.119,0,0,1-.05-.011,10.186,10.186,0,0,1-5.532-6.732.119.119,0,0,1,.232-.054,9.944,9.944,0,0,0,5.4,6.572.118.118,0,0,1,.058.157.119.119,0,0,1-.108.068" transform="translate(-197.194 -289.756)" fill="#483a8e"/>
        <path id="Path_995787" data-name="Path 995787" d="M258.6,383.084a.119.119,0,0,1-.083-.034,6.668,6.668,0,0,1-1.809-3.061.118.118,0,0,1,.084-.145.121.121,0,0,1,.146.084,6.433,6.433,0,0,0,1.745,2.953.117.117,0,0,1,0,.167.12.12,0,0,1-.085.036" transform="translate(-209.24 -298.375)" fill="#483a8e"/>
        <path id="Path_995788" data-name="Path 995788" d="M255.01,326.96l-.52,3.148a.33.33,0,0,1-.047.012,7.335,7.335,0,0,1-4-.425l.42-3.26,2.275.289Z" transform="translate(-204.475 -257.58)" fill="#f7e7c6"/>
        <path id="Path_995789" data-name="Path 995789" d="M263.61,327.895l-.52,3.148a.33.33,0,0,1-.047.012c-.184-.478-.79-2.06-1.305-3.4Z" transform="translate(-213.075 -258.515)" fill="#483a8e"/>
        <path id="Path_995790" data-name="Path 995790" d="M238.144,308.114a1.7,1.7,0,0,1-2.178.934,1.593,1.593,0,0,1-1.26-1.912,1.614,1.614,0,0,1,2.093-.958,1.678,1.678,0,0,1,1.345,1.936" transform="translate(-192.45 -242.043)" fill="#f7e7c6"/>
        <path id="Path_995791" data-name="Path 995791" d="M237.909,309.505a.115.115,0,0,1-.033,0,.118.118,0,0,1-.082-.146.928.928,0,0,1,.509-.584,1.226,1.226,0,0,1,.853-.052,1.321,1.321,0,0,1,.679.444.117.117,0,0,1-.021.166.12.12,0,0,1-.167-.021,1.081,1.081,0,0,0-.556-.362.983.983,0,0,0-.685.038.7.7,0,0,0-.382.436.119.119,0,0,1-.115.085" transform="translate(-194.84 -244.007)" fill="#483a8e"/>
        <path id="Path_995792" data-name="Path 995792" d="M274.358,314.184a1.69,1.69,0,0,0,1.872,1.444,1.511,1.511,0,1,0-.08-2.985,1.688,1.688,0,0,0-1.792,1.541" transform="translate(-222.684 -247.044)" fill="#f7e7c6"/>
        <path id="Path_995793" data-name="Path 995793" d="M279.825,316.118a.119.119,0,0,1-.119-.115.69.69,0,0,0-.259-.517,1,1,0,0,0-.653-.207,1.091,1.091,0,0,0-.63.212.12.12,0,0,1-.167-.021.117.117,0,0,1,.021-.166,1.331,1.331,0,0,1,.77-.262,1.249,1.249,0,0,1,.812.262.921.921,0,0,1,.345.692.119.119,0,0,1-.116.121Z" transform="translate(-225.436 -248.878)" fill="#483a8e"/>
        <path id="Path_995794" data-name="Path 995794" d="M242.318,293.281c-.612,2.917.163,6.207,3.584,6.91,2.665.548,5.455-2.009,6.067-4.926a4.927,4.927,0,0,0-9.651-1.984" transform="translate(-198.143 -229.302)" fill="#f7e7c6"/>
        <path id="Path_995795" data-name="Path 995795" d="M243.491,289.826a.2.2,0,0,0-.058-.038,1.175,1.175,0,0,0-1.039.172c-1.028.692-.981,2.222-.784,3.29q.043.232.1.46l0,.017.029.037c.04.053.69-.477.751-.533a3.557,3.557,0,0,0,.6-.733,3.46,3.46,0,0,0,.462-2.466c-.017-.091-.017-.158-.066-.206" transform="translate(-197.663 -229.54)" fill="#483a8e"/>
        <path id="Path_995796" data-name="Path 995796" d="M251.914,286.349a11.615,11.615,0,0,0,4.2-.392,2.354,2.354,0,0,0,1.132-.541,1.6,1.6,0,0,0,.416-1.42,2.015,2.015,0,0,0-1.122-1.288,7.691,7.691,0,0,0-7.726.019,2.533,2.533,0,0,0-.843.728c-.217.318-.459.876-.117,1.228a4.921,4.921,0,0,0,1.228.793,7.863,7.863,0,0,0,2.829.873" transform="translate(-202.375 -223.39)" fill="#483a8e"/>
        <path id="Path_995797" data-name="Path 995797" d="M278.6,301.3a.681.681,0,0,0,.435.356c.245.03.443-.187.576-.393a3.154,3.154,0,0,0,.569-1.851,1.908,1.908,0,0,0-.977-1.609,2.369,2.369,0,0,0-1.088-.2c-.117,0-.442-.038-.533.036s-.046.307-.04.417A6.537,6.537,0,0,0,278.6,301.3" transform="translate(-225.091 -235.543)" fill="#483a8e"/>
        <path id="Path_995798" data-name="Path 995798" d="M245.006,283.669c-.022-.192-.079-.576-.37-.48a.325.325,0,0,0-.2.267c-.027.139-.043.281-.057.422-.009.083-.01.166-.015.249a2.2,2.2,0,0,0-.56-.538.5.5,0,0,0-.39-.117.265.265,0,0,0-.188.33.94.94,0,0,0,.2.338,2.835,2.835,0,0,0,.959.8.126.126,0,0,0,.05.039c-.046.119.141.217.223.1a2.115,2.115,0,0,0,.35-1.408" transform="translate(-198.974 -224.534)" fill="#483a8e"/>
        <path id="Path_995799" data-name="Path 995799" d="M258.3,333.663a3.752,3.752,0,0,1-.757-.076.118.118,0,1,1,.048-.231,3.961,3.961,0,0,0,2.512-.36.12.12,0,0,1,.159.055.118.118,0,0,1-.055.158,4.415,4.415,0,0,1-1.907.455" transform="translate(-209.811 -262.582)" fill="#483a8e"/>
        <path id="Path_995800" data-name="Path 995800" d="M278.393,320.162a.119.119,0,0,1-.068-.021.117.117,0,0,1-.029-.164,6.858,6.858,0,0,0,.724-1.3.12.12,0,0,1,.156-.064.117.117,0,0,1,.064.154,7.084,7.084,0,0,1-.749,1.35.119.119,0,0,1-.1.051" transform="translate(-225.666 -251.594)" fill="#483a8e"/>
        <path id="Path_995801" data-name="Path 995801" d="M241.865,314.122a.119.119,0,0,1-.117-.1,7.315,7.315,0,0,1-.12-1.437.119.119,0,0,1,.119-.117h0a.119.119,0,0,1,.118.12,7.1,7.1,0,0,0,.116,1.39.118.118,0,0,1-.1.138l-.022,0" transform="translate(-197.761 -246.914)" fill="#483a8e"/>
        <path id="Path_995802" data-name="Path 995802" d="M268.877,305.175a1.576,1.576,0,0,0-.443.022.361.361,0,0,0-.178.078c-.192.18.212.316.332.355a1.951,1.951,0,0,0,.918.1c.235-.041.25-.294.057-.412a.768.768,0,0,0-.263-.085,3.863,3.863,0,0,0-.423-.062" transform="translate(-217.999 -241.335)" fill="#483a8e"/>
        <path id="Path_995803" data-name="Path 995803" d="M252.453,302.993a1.592,1.592,0,0,1,.424.132.36.36,0,0,1,.152.12c.14.222-.286.253-.412.26a1.948,1.948,0,0,1-.915-.128c-.217-.1-.167-.346.05-.413a.767.767,0,0,1,.276-.017,3.882,3.882,0,0,1,.425.046" transform="translate(-205.327 -239.634)" fill="#483a8e"/>
        <path id="Path_995804" data-name="Path 995804" d="M268.889,317.51c.007.256.358.455.785.443s.767-.228.76-.484-.358-.455-.785-.443-.767.228-.76.484" transform="translate(-218.52 -250.392)" fill="#ffba1f"/>
        <path id="Path_995805" data-name="Path 995805" d="M246.069,315.9c.007.256.358.455.785.443s.767-.228.76-.484-.358-.455-.785-.443-.767.228-.76.484" transform="translate(-201.143 -249.163)" fill="#ffba1f"/>
        <path id="Path_995806" data-name="Path 995806" d="M259,314.235a.436.436,0,0,1-.328-.151.5.5,0,0,1-.093-.453.435.435,0,0,1,.212-.276.339.339,0,0,1,.331.011l.037-.394a.121.121,0,0,1,.13-.107.119.119,0,0,1,.108.128l-.044.476c-.015.162-.115.194-.156.2a.2.2,0,0,1-.184-.086.1.1,0,0,0-.112-.019.2.2,0,0,0-.092.128.265.265,0,0,0,.045.238.19.19,0,0,0,.2.058.12.12,0,0,1,.154.067.118.118,0,0,1-.068.153.394.394,0,0,1-.141.026" transform="translate(-210.653 -247.214)" fill="#483a8e"/>
        <path id="Path_995807" data-name="Path 995807" d="M251.556,310.02a.119.119,0,0,1-.068-.021,1.688,1.688,0,0,0-1.4-.236.12.12,0,0,1-.147-.082.118.118,0,0,1,.083-.146,1.935,1.935,0,0,1,1.605.27.117.117,0,0,1,.029.164.12.12,0,0,1-.1.05" transform="translate(-204.085 -244.618)" fill="#483a8e"/>
        <path id="Path_995808" data-name="Path 995808" d="M266.68,312a.119.119,0,0,1-.068-.021,1.787,1.787,0,0,0-1.486-.25.12.12,0,0,1-.147-.082.118.118,0,0,1,.082-.146,2.031,2.031,0,0,1,1.688.284.117.117,0,0,1,.029.164.12.12,0,0,1-.1.05" transform="translate(-215.538 -246.119)" fill="#483a8e"/>
        <path id="Path_995809" data-name="Path 995809" d="M255.662,322.386a3.624,3.624,0,0,1-.768.818,2,2,0,0,1-1.678.406,1.924,1.924,0,0,1-1.013-.546,2.535,2.535,0,0,1-.6-1.112.479.479,0,0,1,.689-.544,2.533,2.533,0,0,0,1.325.311c.586-.034,1.178-.056,1.636-.07a.471.471,0,0,1,.41.738" transform="translate(-205.343 -253.696)" fill="#483a8e"/>
        <path id="Path_995810" data-name="Path 995810" d="M256.869,327.385a2,2,0,0,1-1.678.406,1.924,1.924,0,0,1-1.014-.547,2.132,2.132,0,0,1,2.625.078c.022.022.044.041.066.063" transform="translate(-207.318 -257.876)" fill="#f4519b"/>
        <path id="Path_995811" data-name="Path 995811" d="M133.647,145.029a.239.239,0,0,1-.194-.1,3.262,3.262,0,0,0-2.031-1.322,2.739,2.739,0,0,0-2.189.562.24.24,0,0,1-.335-.035.234.234,0,0,1,.036-.332,3.218,3.218,0,0,1,2.572-.659,3.742,3.742,0,0,1,2.334,1.511.235.235,0,0,1-.055.33.24.24,0,0,1-.139.044" transform="translate(-111.883 -117.533)" fill="#dedcff"/>
        <path id="Path_995812" data-name="Path 995812" d="M148.269,141.31a.23.23,0,0,1-.047,0,.236.236,0,0,1-.187-.277,3.7,3.7,0,0,1,1.5-2.33,3.222,3.222,0,0,1,2.618-.45.236.236,0,0,1,.171.288.24.24,0,0,1-.291.169,2.741,2.741,0,0,0-2.228.382,3.225,3.225,0,0,0-1.3,2.033.238.238,0,0,1-.234.19" transform="translate(-126.492 -113.751)" fill="#dedcff"/>
        <path id="Path_995813" data-name="Path 995813" d="M175.777,117.86a.238.238,0,0,1-.232-.18,3.224,3.224,0,0,0-1.385-1.977,2.742,2.742,0,0,0-2.242-.289.238.238,0,0,1-.3-.157.236.236,0,0,1,.158-.295,3.226,3.226,0,0,1,2.635.34,3.7,3.7,0,0,1,1.595,2.265.236.236,0,0,1-.175.285.246.246,0,0,1-.057.007" transform="translate(-144.447 -95.937)" fill="#dedcff"/>
        <path id="Path_995814" data-name="Path 995814" d="M188.27,121.327a.24.24,0,0,1-.13-.038.235.235,0,0,1-.069-.327,3.737,3.737,0,0,1,2.267-1.608,3.223,3.223,0,0,1,2.6.551.234.234,0,0,1,.05.33.24.24,0,0,1-.334.049,2.739,2.739,0,0,0-2.211-.469,3.257,3.257,0,0,0-1.972,1.405.238.238,0,0,1-.2.107" transform="translate(-156.951 -99.341)" fill="#dedcff"/>
        <path id="Path_995815" data-name="Path 995815" d="M182.054,152.037a.239.239,0,0,1-.232-.18,2.747,2.747,0,0,0-1.179-1.684,2.329,2.329,0,0,0-1.905-.245.238.238,0,0,1-.3-.157.236.236,0,0,1,.158-.295,2.812,2.812,0,0,1,2.3.3,3.224,3.224,0,0,1,1.39,1.973.236.236,0,0,1-.175.285.247.247,0,0,1-.057.007" transform="translate(-149.64 -122.313)" fill="#dedcff"/>
        <path id="Path_995816" data-name="Path 995816" d="M192.825,155.026a.24.24,0,0,1-.13-.038.235.235,0,0,1-.069-.327,3.256,3.256,0,0,1,1.975-1.4,2.812,2.812,0,0,1,2.267.481.234.234,0,0,1,.049.33.24.24,0,0,1-.334.049,2.328,2.328,0,0,0-1.879-.4,2.775,2.775,0,0,0-1.68,1.2.238.238,0,0,1-.2.107" transform="translate(-160.42 -125.248)" fill="#dedcff"/>
      </g>
    </g>
  </g>
</svg>
