<svg xmlns="http://www.w3.org/2000/svg" width="70" height="70" viewBox="0 0 70 70">
  <g id="img23" transform="translate(-269 -958.087)">
    <circle id="Ellipse_5614" data-name="Ellipse 5614" cx="35" cy="35" r="35" transform="translate(269 958.087)" fill="#fff"/>
    <g id="Group_1182542" data-name="Group 1182542" transform="translate(285.594 972.426)">
      <path id="Path_995817" data-name="Path 995817" d="M32.869,3.444A3.41,3.41,0,0,0,29.426,0H3.944A3.41,3.41,0,0,0,.5,3.444v5.51H6.01V37.879a3.41,3.41,0,0,0,3.444,3.444H32.869a3.41,3.41,0,0,0,3.444-3.444V34.436H32.869ZM6.01,7.576H1.877V3.444A2.029,2.029,0,0,1,3.944,1.377,2.029,2.029,0,0,1,6.01,3.444Zm1.377,30.3V3.444A3.711,3.711,0,0,0,6.7,1.377H29.426a2.029,2.029,0,0,1,2.066,2.066V34.436H11.519v3.444a2.066,2.066,0,1,1-4.132,0Zm27.548-2.066v2.066a2.029,2.029,0,0,1-2.066,2.066H12.208a3.249,3.249,0,0,0,.689-2.066V35.813Zm0,0" fill="#2142dc"/>
      <path id="Path_995818" data-name="Path 995818" d="M280.5,256h5.51v1.377H280.5Zm0,0" transform="translate(-255.895 -233.961)" fill="#2142dc"/>
      <path id="Path_995819" data-name="Path 995819" d="M96.5,256h14.463v1.377H96.5Zm0,0" transform="translate(-87.735 -233.961)" fill="#2142dc"/>
      <path id="Path_995820" data-name="Path 995820" d="M184.5,288h13.774v1.377H184.5Zm0,0" transform="translate(-168.16 -263.206)" fill="#2142dc"/>
      <path id="Path_995821" data-name="Path 995821" d="M96.5,288h6.2v1.377H96.5Zm0,0" transform="translate(-87.735 -263.206)" fill="#2142dc"/>
      <path id="Path_995822" data-name="Path 995822" d="M240.5,352h8.953v1.377H240.5Zm0,0" transform="translate(-219.339 -321.697)" fill="#2142dc"/>
      <path id="Path_995823" data-name="Path 995823" d="M96.5,352h11.019v1.377H96.5Zm0,0" transform="translate(-87.735 -321.697)" fill="#2142dc"/>
      <path id="Path_995824" data-name="Path 995824" d="M164.494,43.295l.827.551.827-.551a9,9,0,0,0,3.994-7.438V33.584L165.32,32,160.5,33.584v2.273A9,9,0,0,0,164.494,43.295Zm-2.617-8.746,3.444-1.171,3.444,1.171v1.308a7.6,7.6,0,0,1-3.375,6.336h-.069l-.069-.069a7.512,7.512,0,0,1-3.375-6.336Zm0,0" transform="translate(-146.225 -29.245)" fill="#2142dc"/>
      <path id="Path_995825" data-name="Path 995825" d="M207.6,79.337l-1.377-.138a4.268,4.268,0,0,1-1.722,2.962l.758,1.171A5.648,5.648,0,0,0,207.6,79.337Zm0,0" transform="translate(-186.438 -72.381)" fill="#2142dc"/>
      <path id="Path_995826" data-name="Path 995826" d="M144.5,320h17.218v1.377H144.5Zm0,0" transform="translate(-131.603 -292.452)" fill="#2142dc"/>
      <path id="Path_995827" data-name="Path 995827" d="M96.5,320h2.755v1.377H96.5Zm0,0" transform="translate(-87.735 -292.452)" fill="#2142dc"/>
      <path id="Path_995828" data-name="Path 995828" d="M184.5,224h13.774v1.377H184.5Zm0,0" transform="translate(-168.16 -204.716)" fill="#2142dc"/>
      <path id="Path_995829" data-name="Path 995829" d="M96.5,224h6.2v1.377H96.5Zm0,0" transform="translate(-87.735 -204.716)" fill="#2142dc"/>
      <path id="Path_995830" data-name="Path 995830" d="M160.5,184h9.642v1.377H160.5Zm0,0" transform="translate(-146.226 -168.16)" fill="#2142dc"/>
    </g>
  </g>
</svg>
