<svg xmlns="http://www.w3.org/2000/svg" width="110" height="110" viewBox="0 0 110 110">
  <g id="img13" transform="translate(-704.668 -6155)">
    <path id="Path_925100" data-name="Path 925100" d="M12.222,0H97.778A12.222,12.222,0,0,1,110,12.222V97.778A12.222,12.222,0,0,1,97.778,110H12.222A12.222,12.222,0,0,1,0,97.778V12.222A12.222,12.222,0,0,1,12.222,0Z" transform="translate(704.668 6155)" fill="#bcc6f5"/>
    <g id="Group_1182508" data-name="Group 1182508" transform="translate(700.921 6168.879)">
      <g id="Group_1182506" data-name="Group 1182506" transform="translate(22.606 1.846)">
        <path id="Path_992047" data-name="Path 992047" d="M199.266,257h-9.638l-.8,15.259L181.711,284.2l5.537,4.646,8.237-12.158a10.443,10.443,0,0,0,1.7-4.445Z" transform="translate(-157.503 -217.565)" fill="#6d92ac"/>
        <path id="Path_992048" data-name="Path 992048" d="M165.667,431.01l-5.537-4.646L156,431.286l8.613,7.227,1.549-1.846A4.016,4.016,0,0,0,165.667,431.01Z" transform="translate(-135.922 -359.725)" fill="#c68a65"/>
        <circle id="Ellipse_13619" data-name="Ellipse 13619" cx="6.5" cy="6.5" r="6.5" transform="translate(44.141 2.274)" fill="#f3c9a6"/>
        <path id="Path_992049" data-name="Path 992049" d="M243.85,257H231v1.875a15.26,15.26,0,0,0,3.344,9.533l3.081,3.852-1.606,17.669h7.228l2.76-16.557a16.062,16.062,0,0,0-.026-5.432Z" transform="translate(-198.875 -217.565)" fill="#6d92ac"/>
        <path id="Path_992050" data-name="Path 992050" d="M268.228,462H261v6.425h11.244v-2.409A4.016,4.016,0,0,0,268.228,462Z" transform="translate(-224.056 -389.637)" fill="#c68a65"/>
        <path id="Path_992051" data-name="Path 992051" d="M201,175v6.425h3.213a3.213,3.213,0,1,0,0-6.425Z" transform="translate(-173.694 -148.737)" fill="#f3c9a6"/>
        <path id="Path_992052" data-name="Path 992052" d="M51.881,103.653,42.925,91.98h0A4.811,4.811,0,0,0,39.031,90,8.031,8.031,0,0,0,31,98.031v18.793H43.85V104.456l4.681,4.681a3.213,3.213,0,0,0,2.272.941h7.5v-6.425Z" transform="translate(-31 -77.39)" fill="#66e0f7"/>
        <path id="Path_992053" data-name="Path 992053" d="M31,257a15.716,15.716,0,0,0,5.488,11.932l.134.115v20.881H43.85V257Z" transform="translate(-31 -217.565)" fill="#66e0f7"/>
        <path id="Path_992054" data-name="Path 992054" d="M73.228,462H66v6.425H77.244v-2.409A4.016,4.016,0,0,0,73.228,462Z" transform="translate(-60.378 -389.637)" fill="#c68a65"/>
        <ellipse id="Ellipse_13620" data-name="Ellipse 13620" cx="6.5" cy="6" rx="6.5" ry="6" transform="translate(2.141 0.274)" fill="#f3c9a6"/>
        <path id="Path_992055" data-name="Path 992055" d="M411,177v6.425h3.213a3.213,3.213,0,1,0,0-6.425Z" transform="translate(-349.962 -150.415)" fill="#f3c9a6"/>
        <path id="Path_992056" data-name="Path 992056" d="M253.488,102.735l-6.4-11.672a4.809,4.809,0,0,0-3.38-2.416,8.09,8.09,0,0,0-9.361,6.5L231.4,111.159a24.482,24.482,0,0,0-.4,4.426h12.85l2.207-12.517,3.26,4.709a3.213,3.213,0,0,0,2.641,1.384h7.954v-6.425h-6.425Z" transform="translate(-198.875 -76.151)" fill="#a0e5a5"/>
      </g>
      <g id="Group_1182507" data-name="Group 1182507" transform="translate(21 0)">
        <circle id="Ellipse_13621" data-name="Ellipse 13621" cx="1.606" cy="1.606" r="1.606" transform="translate(47.069 54.934)"/>
        <path id="Path_992057" data-name="Path 992057" d="M91.616,30.889a4.827,4.827,0,0,0-4.76-4.065H78.17l-4.845-8.835a8.029,8.029,0,1,0-7.7-5.366A9.731,9.731,0,0,0,56.5,20.557l-1.19,6.472a4.793,4.793,0,0,0-2.182-.526H44.28L35.806,15.458l-.016-.021q-.17-.228-.358-.438a8.034,8.034,0,1,0-9.358-1A9.646,9.646,0,0,0,21,22.488V41.281a17.3,17.3,0,0,0,5.622,12.773v26.58a1.606,1.606,0,0,0,1.606,1.606H39.472a1.606,1.606,0,0,0,1.606-1.606V78.225a5.632,5.632,0,0,0-4.016-5.388V32.791L39,34.73a4.787,4.787,0,0,0,3.407,1.411H53.125a4.889,4.889,0,0,0,.513-.027l-.083.451a26.181,26.181,0,0,0-.43,4.673l-.78,14.822-6.852,11.5-4.036,4.81a1.606,1.606,0,0,0,.2,2.263l8.613,7.227a1.606,1.606,0,0,0,2.263-.2l1.549-1.846a5.632,5.632,0,0,0,.306-6.829l4.23-6.243-.665,7.315q-.006.073-.007.145v6.425A1.606,1.606,0,0,0,59.55,82.24H70.794A1.606,1.606,0,0,0,72.4,80.634V78.225a5.632,5.632,0,0,0-3.778-5.311l1.5-8.98a1.606,1.606,0,0,0-3.169-.528l-1.533,9.2H61.309l1.447-15.917a1.606,1.606,0,0,0-.345-1.149L59.33,51.685a13.7,13.7,0,0,1-2.992-8.529v-.269h9.9l1.189,6.738a1.606,1.606,0,0,0,3.164-.558l-1.374-7.786,1.48-8.391,1.036,1.5a4.82,4.82,0,0,0,3.962,2.076H85.25V80.634a1.606,1.606,0,1,0,3.213,0V36.462a2.367,2.367,0,0,1,.017-.281,4.845,4.845,0,0,0,2.546-2.123,2.413,2.413,0,0,1,2.256,2.4v.8a1.606,1.606,0,1,0,3.213,0v-.8a5.63,5.63,0,0,0-4.878-5.573ZM61.156,75.815h5.622a2.412,2.412,0,0,1,2.409,2.409v.8H61.156ZM73.2,5.14a4.819,4.819,0,1,1-4.819,4.819A4.824,4.824,0,0,1,73.2,5.14ZM31.441,3.213a4.819,4.819,0,1,1-4.819,4.819A4.824,4.824,0,0,1,31.441,3.213Zm-2.167,48.9-.134-.115A14.091,14.091,0,0,1,24.3,42.887H33.85V72.6H29.834V53.328a1.606,1.606,0,0,0-.561-1.22Zm8.592,26.117v.8H29.834V75.815h5.622A2.412,2.412,0,0,1,37.866,78.225Zm10.441-45.3h-5.9a1.6,1.6,0,0,1-1.136-.47l-8.7-8.7A1.606,1.606,0,1,0,30.3,26.033l3.545,3.545v10.1H24.213V22.488a6.432,6.432,0,0,1,6.425-6.425,3.184,3.184,0,0,1,2.6,1.322c.019.026.038.05.058.075l8.921,11.629a1.606,1.606,0,0,0,1.274.629h4.819Zm4.819,0H51.519V29.716h1.606a1.613,1.613,0,0,1,1.5,1.028l-.3,1.65A1.6,1.6,0,0,1,53.125,32.928ZM51.619,77.756l-.516.615L44.95,73.209l2.065-2.461,4.307,3.614a2.412,2.412,0,0,1,.3,3.394Zm5.2-24.064L59.5,57.039l-.281,3.1-7.2,10.621-3.127-2.623,6.414-10.769a1.607,1.607,0,0,0,.224-.738l.232-4.412a16.748,16.748,0,0,0,1.056,1.479ZM82.038,33.25H75.69a1.606,1.606,0,0,1-1.321-.692L68.1,23.5a1.606,1.606,0,1,0-2.641,1.829l2.634,3.805-1.858,10.54H56.395a22.9,22.9,0,0,1,.32-2.529l2.942-16.007a6.5,6.5,0,0,1,7.5-5.213,3.2,3.2,0,0,1,2.251,1.606l6.4,11.672a1.606,1.606,0,0,0,1.408.834h4.819Zm4.819,0H85.25V30.037h1.606a1.606,1.606,0,0,1,0,3.213Z" transform="translate(-21 0)"/>
      </g>
    </g>
  </g>
</svg>
