<svg xmlns="http://www.w3.org/2000/svg" width="85" height="85" viewBox="0 0 85 85">
  <g id="img11" transform="translate(-494.711 -4482)">
    <rect id="Rectangle_454644" data-name="Rectangle 454644" width="85" height="85" transform="translate(494.711 4482)" fill="#a8b8ff"/>
    <rect id="Rectangle_454645" data-name="Rectangle 454645" width="65" height="65" transform="translate(504.711 4492)" fill="#e5eaff"/>
    <g id="Group_1182002" data-name="Group 1182002" transform="translate(512.025 4551.961)">
      <circle id="Ellipse_13573" data-name="Ellipse 13573" cx="4.516" cy="4.516" r="4.516" transform="translate(19.051 -47.282)" fill="#f5d7b7"/>
      <circle id="Ellipse_13574" data-name="Ellipse 13574" cx="4.516" cy="4.516" r="4.516" transform="translate(19.051 -47.282)" opacity="0.1"/>
      <circle id="Ellipse_13575" data-name="Ellipse 13575" cx="4.516" cy="4.516" r="4.516" transform="translate(35.976 -30.358)" fill="#f5d7b7"/>
      <circle id="Ellipse_13576" data-name="Ellipse 13576" cx="4.516" cy="4.516" r="4.516" transform="translate(35.976 -30.358)" opacity="0.1"/>
      <circle id="Ellipse_13577" data-name="Ellipse 13577" cx="8.699" cy="8.699" r="8.699" transform="translate(0.675 -20.347)" fill="#38648c"/>
      <path id="Path_990818" data-name="Path 990818" d="M23.557,324.271A8.7,8.7,0,1,0,8.82,316.729a14.137,14.137,0,0,0,3.039,1.51c1.133.438,2.517.893,4.083,1.344.451,1.566.906,2.95,1.344,4.083a14.128,14.128,0,0,0,1.51,3.039A8.657,8.657,0,0,0,23.557,324.271Z" transform="translate(-8.032 -329.767)" opacity="0.1"/>
      <ellipse id="Ellipse_13578" data-name="Ellipse 13578" cx="13.333" cy="13.041" rx="13.333" ry="13.041" transform="translate(13.073 -33.792) rotate(-45)" fill="#f5d7b7"/>
      <g id="Group_1182002-2" data-name="Group 1182002" transform="translate(22.755 -41.942)">
        <ellipse id="Ellipse_13579" data-name="Ellipse 13579" cx="2.113" cy="2.654" rx="2.113" ry="2.654" transform="translate(0 2.988) rotate(-45)" fill="#f28b74"/>
        <ellipse id="Ellipse_13580" data-name="Ellipse 13580" cx="2.113" cy="2.654" rx="2.113" ry="2.654" transform="translate(16.913 13.923) rotate(135)" fill="#f28b74"/>
      </g>
      <path id="Path_990819" data-name="Path 990819" d="M217.415,14.9a13.5,13.5,0,0,0-5.679,3.4,13.189,13.189,0,0,0-.206,18.649,12.919,12.919,0,0,0,10.9,3.643C214.113,37.833,211.568,23.955,217.415,14.9Z" transform="translate(-189.233 -61.521)" opacity="0.05"/>
      <path id="Path_990820" data-name="Path 990820" d="M21.58,221.867c5.309.064,17.308,1.328,24.217,4.934a2.4,2.4,0,0,1,1.138,2.976,31.816,31.816,0,0,1-6.56,9.718,6.6,6.6,0,0,1-4.99,1.868c-7.3-.415-23.41-4.123-24.584-6.526C9.609,232.4,13.354,226.115,17.831,223A6.428,6.428,0,0,1,21.58,221.867Z" transform="translate(-9.633 -250.025)" fill="#76b7eb"/>
      <path id="Path_990821" data-name="Path 990821" d="M21.58,221.867c5.309.064,17.308,1.328,24.217,4.934a2.4,2.4,0,0,1,1.138,2.976,31.816,31.816,0,0,1-6.56,9.718,6.6,6.6,0,0,1-4.99,1.868c-7.3-.415-23.41-4.123-24.584-6.526C9.609,232.4,13.354,226.115,17.831,223A6.428,6.428,0,0,1,21.58,221.867Z" transform="translate(-9.633 -250.025)" opacity="0.1"/>
      <path id="Path_990822" data-name="Path 990822" d="M58.938,223a18.866,18.866,0,0,0-3.227,2.9,106.284,106.284,0,0,0,2.182,11.126c.065.258.13.511.2.762A94.51,94.51,0,0,0,76.4,241.359q.3-.383.571-.774a8.189,8.189,0,0,0,1.459-4.8,83.349,83.349,0,0,0-1.231-12.2,80.336,80.336,0,0,0-14.512-1.716A6.428,6.428,0,0,0,58.938,223Z" transform="translate(-50.74 -250.026)" opacity="0.1"/>
      <path id="Path_990823" data-name="Path 990823" d="M90.97,117.656c-.064-5.309-1.328-17.308-4.934-24.217A2.4,2.4,0,0,0,83.06,92.3a31.816,31.816,0,0,0-9.718,6.56,6.6,6.6,0,0,0-1.868,4.99c.415,7.3,4.123,23.41,6.526,24.584,2.441,1.192,8.722-2.553,11.834-7.029A6.428,6.428,0,0,0,90.97,117.656Z" transform="translate(-65.087 -131.877)" fill="#76b7eb"/>
      <g id="Group_1182003" data-name="Group 1182003" transform="translate(9.689 -33.785)" opacity="0.1">
        <path id="Path_990824" data-name="Path 990824" d="M109.575,285.159a.669.669,0,0,1-.655-.538c-.055-.277-.314-1.971-.314-2.3a.669.669,0,0,1,1.338,0c.007.216.223,1.716.288,2.04a.669.669,0,0,1-.525.787A.662.662,0,0,1,109.575,285.159Zm.369-2.837h0Z" transform="translate(-108.606 -270.693)"/>
        <path id="Path_990825" data-name="Path 990825" d="M191.866,161.456a.67.67,0,0,1-.635-.883c.048-.144.177-.416.468-1.011.08-.164.155-.318.183-.379a.669.669,0,0,1,1.219.552c-.035.078-.108.226-.2.414-.127.26-.363.743-.4.851A.666.666,0,0,1,191.866,161.456Z" transform="translate(-183.828 -158.79)"/>
        <path id="Path_990826" data-name="Path 990826" d="M209.931,308.141a.666.666,0,0,1-.335-.091c-.317-.184-1.2-.691-1.49-.822a.669.669,0,0,1,.555-1.218c.4.181,1.485.811,1.608.882a.669.669,0,0,1-.336,1.248Z" transform="translate(-198.873 -292.823)"/>
        <path id="Path_990827" data-name="Path 990827" d="M174.138,410.034a.669.669,0,0,1-.669-.669c0-.357-.093-1.705-.138-2.353-.015-.209-.025-.367-.03-.436a.669.669,0,0,1,1.336-.08c0,.067.015.22.029.423.068.988.141,2.073.141,2.445A.669.669,0,0,1,174.138,410.034Z" transform="translate(-167.529 -383.826)"/>
        <path id="Path_990828" data-name="Path 990828" d="M319.64,300.531a.669.669,0,0,1-.222-1.3,10.712,10.712,0,0,0,1.216-.668,3.539,3.539,0,0,1,.944-.487.669.669,0,0,1,.331,1.295c-.1.047-.379.215-.587.34a10.2,10.2,0,0,1-1.459.782A.671.671,0,0,1,319.64,300.531Zm2.2-1.143h0Z" transform="translate(-300.204 -285.639)"/>
      </g>
      <path id="Path_990829" data-name="Path 990829" d="M36.829,14.9a1.92,1.92,0,0,0-1.366.566.669.669,0,1,0,.946.946.594.594,0,1,1,.84.84.669.669,0,0,0,.946.946,1.932,1.932,0,0,0-1.366-3.3ZM30.212,7.481a1.935,1.935,0,0,0-2.732,0,.669.669,0,0,0,.946.946.594.594,0,1,1,.84.84.669.669,0,0,0,.946.946A1.934,1.934,0,0,0,30.212,7.481ZM44.565,18.9a14.008,14.008,0,0,0,1.014-5.09,13.481,13.481,0,0,0-3.492-9.276A5.917,5.917,0,0,1,44.5,3.155a.669.669,0,0,0-.373-1.285,7.258,7.258,0,0,0-2.985,1.723A13.493,13.493,0,0,0,31.862.1a14.008,14.008,0,0,0-5.089,1.014A5.154,5.154,0,0,0,23.567,0h-.078a5.186,5.186,0,0,0-4.534,7.555,3.057,3.057,0,0,0-1.217.192,32.651,32.651,0,0,0-9.961,6.718,7.274,7.274,0,0,0-2.059,5.5c.034.6.091,1.264.168,1.98A21.821,21.821,0,0,0,1.5,27.617c-.693,1.327-1.735,3.8-.934,5.439l.01.02A9.364,9.364,0,0,0,12.6,45.1l.02.01a3.156,3.156,0,0,0,1.393.286,10.3,10.3,0,0,0,4.908-1.7,22.24,22.24,0,0,0,4.811-3.9c.719.077,1.385.134,1.983.168q.207.012.412.012A7.272,7.272,0,0,0,31.21,37.9a33.318,33.318,0,0,0,4.553-5.781.669.669,0,1,0-1.132-.713,31.936,31.936,0,0,1-4.358,5.538,5.93,5.93,0,0,1-4.483,1.678c-.314-.018-.649-.042-1-.073q.267-.343.507-.688a7.058,7.058,0,0,0,1.256-4.139A80.044,80.044,0,0,0,25.4,22.108l-.024-.139a40.76,40.76,0,0,1,10.474,3.351,1.737,1.737,0,0,1,.821,2.148c-.149.4-.336.828-.558,1.287a.669.669,0,1,0,1.2.583c.239-.495.443-.966.606-1.4a3.058,3.058,0,0,0,.192-1.216A5.185,5.185,0,0,0,44.565,18.9ZM20.848,2.464a3.826,3.826,0,0,1,4.507-.688,14.4,14.4,0,0,0-5.308,4.961A3.833,3.833,0,0,1,20.848,2.464ZM3.7,41.981a8.011,8.011,0,0,1-2.053-7.856c1.019.656,3.046,1.568,7.187,2.722.492,1.764.991,3.313,1.468,4.552a14.546,14.546,0,0,0,1.258,2.633A8.011,8.011,0,0,1,3.7,41.981ZM24.2,37.1a20.074,20.074,0,0,1-5.961,5.447c-2.175,1.294-4.1,1.815-5.03,1.363a.482.482,0,0,1-.066-.04.662.662,0,0,0-.079-.064c-.549-.5-1.644-2.553-3.035-7.645,0-.02-.01-.04-.016-.06q-.237-.87-.485-1.859a.669.669,0,0,0-1.3.325c.066.263.132.521.2.777-5.078-1.472-6.3-2.44-6.579-2.763l-.013-.016a.485.485,0,0,1-.064-.093C1.057,31.01,2.82,26.94,6.09,23.608c.319,2.362.81,5.108,1.417,7.882A.669.669,0,0,0,8.815,31.2a80.044,80.044,0,0,1-1.76-11.319A5.933,5.933,0,0,1,8.733,15.4,31.093,31.093,0,0,1,18.208,9a1.737,1.737,0,0,1,2.148.821,46.96,46.96,0,0,1,3.526,11.346.664.664,0,0,0,.035.177,69.434,69.434,0,0,1,1.3,12.393A5.728,5.728,0,0,1,24.2,37.1Zm13.26-12.149a3.058,3.058,0,0,0-.984-.814,42.365,42.365,0,0,0-11.352-3.579A43.888,43.888,0,0,0,21.543,9.2a3.061,3.061,0,0,0-.814-.984A12.917,12.917,0,0,1,22.975,5.2,12.535,12.535,0,0,1,40.678,5a12.15,12.15,0,0,1,3.563,8.8A12.669,12.669,0,0,1,43.2,18.7a.66.66,0,0,0-.05.114,13.021,13.021,0,0,1-5.694,6.135Zm5.755-.119a3.833,3.833,0,0,1-4.273.8A14.4,14.4,0,0,0,43.9,20.322,3.826,3.826,0,0,1,43.212,24.829ZM32.695,14.163a1.107,1.107,0,0,1-1.181-1.181.669.669,0,1,0-1.335-.092,2.444,2.444,0,0,0,2.44,2.614q.084,0,.168-.006a.669.669,0,1,0-.092-1.335Z" transform="translate(0 -47.951)"/>
    </g>
  </g>
</svg>
