<svg xmlns="http://www.w3.org/2000/svg" width="110" height="110" viewBox="0 0 110 110">
  <g id="img13_1" transform="translate(-704.668 -6155)">
    <path id="Path_925100" data-name="Path 925100" d="M12.222,0H97.778A12.222,12.222,0,0,1,110,12.222V97.778A12.222,12.222,0,0,1,97.778,110H12.222A12.222,12.222,0,0,1,0,97.778V12.222A12.222,12.222,0,0,1,12.222,0Z" transform="translate(704.668 6155)" fill="#f9dc5c"/>
    <g id="Group_1182508" data-name="Group 1182508" transform="translate(700.935 6168.895)">
      <g id="Group_1182506" data-name="Group 1182506" transform="translate(22.606 1.846)">
        <path id="Path_992047" data-name="Path 992047" d="M199.259,257h-9.634l-.8,15.254-7.111,11.94,5.535,4.645,8.234-12.153a10.439,10.439,0,0,0,1.7-4.444Z" transform="translate(-157.512 -217.58)" fill="#6d92ac"/>
        <path id="Path_992048" data-name="Path 992048" d="M165.663,431.008l-5.535-4.644L156,431.284l8.61,7.225,1.548-1.845A4.014,4.014,0,0,0,165.663,431.008Z" transform="translate(-135.929 -359.75)" fill="#c68a65"/>
        <circle id="Ellipse_13619" data-name="Ellipse 13619" cx="6.5" cy="6.5" r="6.5" transform="translate(44.127 2.259)" fill="#f3c9a6"/>
        <path id="Path_992049" data-name="Path 992049" d="M243.845,257H231v1.875a15.254,15.254,0,0,0,3.342,9.529l3.08,3.85-1.606,17.662h7.225l2.758-16.551a16.055,16.055,0,0,0-.026-5.43Z" transform="translate(-198.887 -217.58)" fill="#6d92ac"/>
        <path id="Path_992050" data-name="Path 992050" d="M268.225,462H261v6.423h11.24v-2.409A4.014,4.014,0,0,0,268.225,462Z" transform="translate(-224.07 -389.664)" fill="#c68a65"/>
        <path id="Path_992051" data-name="Path 992051" d="M201,175v6.423h3.211a3.211,3.211,0,1,0,0-6.423Z" transform="translate(-173.704 -148.747)" fill="#f3c9a6"/>
        <path id="Path_992052" data-name="Path 992052" d="M51.874,103.648,42.921,91.979h0A4.809,4.809,0,0,0,39.028,90,8.028,8.028,0,0,0,31,98.028v18.786H43.845V104.451l4.679,4.679a3.211,3.211,0,0,0,2.271.941h7.5v-6.423Z" transform="translate(-31 -77.395)" fill="#66e0f7"/>
        <path id="Path_992053" data-name="Path 992053" d="M31,257a15.71,15.71,0,0,0,5.486,11.928l.134.115v20.874h7.225V257Z" transform="translate(-31 -217.58)" fill="#66e0f7"/>
        <path id="Path_992054" data-name="Path 992054" d="M73.225,462H66v6.423H77.24v-2.409A4.014,4.014,0,0,0,73.225,462Z" transform="translate(-60.38 -389.664)" fill="#c68a65"/>
        <ellipse id="Ellipse_13620" data-name="Ellipse 13620" cx="6.5" cy="6" rx="6.5" ry="6" transform="translate(2.127 0.259)" fill="#f3c9a6"/>
        <path id="Path_992055" data-name="Path 992055" d="M411,177v6.423h3.211a3.211,3.211,0,1,0,0-6.423Z" transform="translate(-349.985 -150.426)" fill="#f3c9a6"/>
        <path id="Path_992056" data-name="Path 992056" d="M253.479,102.73l-6.4-11.667a4.807,4.807,0,0,0-3.379-2.415,8.087,8.087,0,0,0-9.358,6.5l-2.941,16a24.472,24.472,0,0,0-.4,4.424h12.845l2.206-12.513,3.259,4.707a3.211,3.211,0,0,0,2.64,1.383H259.9V102.73h-6.423Z" transform="translate(-198.887 -76.156)" fill="#a0e5a5"/>
      </g>
      <g id="Group_1182507" data-name="Group 1182507" transform="translate(21 0)">
        <circle id="Ellipse_13621" data-name="Ellipse 13621" cx="1.606" cy="1.606" r="1.606" transform="translate(47.051 54.913)"/>
        <path id="Path_992057" data-name="Path 992057" d="M91.59,30.878a4.825,4.825,0,0,0-4.758-4.063H78.149l-4.843-8.832a8.026,8.026,0,1,0-7.7-5.364,9.727,9.727,0,0,0-9.126,7.931l-1.189,6.47a4.791,4.791,0,0,0-2.182-.526H44.271L35.8,15.453l-.016-.021q-.17-.228-.358-.438a8.031,8.031,0,1,0-9.354-1A9.642,9.642,0,0,0,21,22.479V41.265a17.3,17.3,0,0,0,5.62,12.769V80.6a1.606,1.606,0,0,0,1.606,1.606h11.24A1.606,1.606,0,0,0,41.071,80.6V78.2a5.63,5.63,0,0,0-4.014-5.386V32.778l1.938,1.938A4.786,4.786,0,0,0,42.4,36.127H53.113a4.887,4.887,0,0,0,.513-.027l-.083.451a26.171,26.171,0,0,0-.43,4.672l-.78,14.816-6.849,11.5-4.035,4.809a1.606,1.606,0,0,0,.2,2.262l8.61,7.225a1.606,1.606,0,0,0,2.262-.2l1.548-1.845a5.63,5.63,0,0,0,.306-6.826L58.6,66.724l-.665,7.312q-.006.072-.007.145V80.6a1.606,1.606,0,0,0,1.606,1.606h11.24A1.606,1.606,0,0,0,72.381,80.6V78.2A5.63,5.63,0,0,0,68.6,72.886l1.5-8.976a1.606,1.606,0,1,0-3.168-.528L65.4,72.576H61.294L62.74,56.664a1.606,1.606,0,0,0-.345-1.148l-3.08-3.85a13.7,13.7,0,0,1-2.991-8.526v-.269h9.892l1.189,6.735a1.606,1.606,0,0,0,3.162-.558l-1.373-7.783,1.479-8.388,1.035,1.5a4.818,4.818,0,0,0,3.961,2.075h9.557V80.6a1.606,1.606,0,1,0,3.211,0V36.448a2.367,2.367,0,0,1,.017-.281A4.844,4.844,0,0,0,91,34.045a2.412,2.412,0,0,1,2.255,2.4v.8a1.606,1.606,0,1,0,3.211,0v-.8a5.628,5.628,0,0,0-4.876-5.571ZM61.141,75.787h5.62A2.411,2.411,0,0,1,69.17,78.2V79H61.141ZM73.184,5.138a4.817,4.817,0,1,1-4.817,4.817A4.822,4.822,0,0,1,73.184,5.138ZM31.437,3.211A4.817,4.817,0,1,1,26.62,8.028,4.822,4.822,0,0,1,31.437,3.211ZM29.27,52.089l-.134-.115a14.086,14.086,0,0,1-4.834-9.1h9.543v29.7H29.831V53.308a1.606,1.606,0,0,0-.561-1.219ZM37.859,78.2V79H29.831V75.787h5.62A2.411,2.411,0,0,1,37.859,78.2ZM48.3,32.916H42.4a1.6,1.6,0,0,1-1.135-.47l-8.693-8.693A1.606,1.606,0,0,0,30.3,26.023l3.544,3.544V39.66H24.211V22.479a6.43,6.43,0,0,1,6.423-6.423,3.183,3.183,0,0,1,2.6,1.321c.019.026.038.05.058.075l8.918,11.624a1.606,1.606,0,0,0,1.274.628H48.3Zm4.817,0H51.507V29.7h1.606a1.612,1.612,0,0,1,1.5,1.028l-.3,1.649A1.6,1.6,0,0,1,53.113,32.916ZM51.607,77.727l-.516.615-6.15-5.16,2.064-2.46,4.305,3.612a2.411,2.411,0,0,1,.3,3.393Zm5.2-24.055,2.676,3.345L59.2,60.112,52.01,70.728l-3.126-2.623L55.3,57.341a1.607,1.607,0,0,0,.224-.737l.232-4.41a16.741,16.741,0,0,0,1.056,1.479ZM82.015,33.237H75.669a1.606,1.606,0,0,1-1.32-.692l-6.268-9.053a1.606,1.606,0,1,0-2.64,1.828l2.633,3.8L66.217,39.66H56.381a22.893,22.893,0,0,1,.32-2.528l2.941-16a6.5,6.5,0,0,1,7.5-5.211,3.2,3.2,0,0,1,2.25,1.605l6.4,11.667a1.606,1.606,0,0,0,1.408.833h4.817Zm4.817,0H85.226V30.026h1.606a1.606,1.606,0,0,1,0,3.211Z" transform="translate(-21 0)"/>
      </g>
    </g>
  </g>
</svg>
