<svg xmlns="http://www.w3.org/2000/svg" width="110" height="110" viewBox="0 0 110 110">
  <g id="img19_1" transform="translate(-704.668 -6155)">
    <path id="Path_925100" data-name="Path 925100" d="M12.222,0H97.778A12.222,12.222,0,0,1,110,12.222V97.778A12.222,12.222,0,0,1,97.778,110H12.222A12.222,12.222,0,0,1,0,97.778V12.222A12.222,12.222,0,0,1,12.222,0Z" transform="translate(704.668 6155)" fill="#bcc6f5"/>
    <g id="Group_1182050" data-name="Group 1182050" transform="translate(689.881 6173.007)">
      <path id="Path_990856" data-name="Path 990856" d="M216.5,288.254a1.755,1.755,0,0,1-1.774-1.687,1.717,1.717,0,0,1,1.239-1.678,1.716,1.716,0,0,1,0-3.3,1.716,1.716,0,0,1,0-3.3A1.708,1.708,0,0,1,216,275v-.8a9.019,9.019,0,0,0-3.333-2.463l-7.866-3.369h-16.22a4.026,4.026,0,0,1,.293,1.509v3.191a3.382,3.382,0,0,1-4.107,3.3l-.175-.038v2.075a6.105,6.105,0,0,1-3.19,5.365l.069.271h1.075a1.46,1.46,0,0,1,1.459,1.459V287a1.46,1.46,0,0,1-1.459,1.459H181.9l.29.253a10.3,10.3,0,0,1,3.528,7.757v6.021h30.89V288.254Z" transform="translate(-122.397 -229.586)" fill="#8ac9fe"/>
      <path id="Path_990857" data-name="Path 990857" d="M317.827,289.109a1.754,1.754,0,0,1-1.774-1.687,1.717,1.717,0,0,1,1.239-1.678,1.716,1.716,0,0,1,0-3.3,1.716,1.716,0,0,1,0-3.3,1.708,1.708,0,0,1,.04-3.3v-.8A9.019,9.019,0,0,0,314,272.59l-7.529-3.225h-6.392a4.127,4.127,0,0,1-.23,1.19l8.128,3.482a9.033,9.033,0,0,1,5.477,8.3v21h4.481V289.109Z" transform="translate(-223.726 -230.441)" fill="#60b7ff"/>
      <g id="Group_1182013" data-name="Group 1182013" transform="translate(42.58 58.87)">
        <path id="Path_990858" data-name="Path 990858" d="M84.854,407.4H71.461a10.419,10.419,0,0,0-3.745,8.01v3.854a2.168,2.168,0,0,0,2.168,2.168H88.6v-6.021A10.418,10.418,0,0,0,84.854,407.4Z" transform="translate(-67.715 -407.396)" fill="#ffbd86"/>
      </g>
      <g id="Group_1182014" data-name="Group 1182014" transform="translate(55.204 58.87)">
        <path id="Path_990859" data-name="Path 990859" d="M159.594,407.4H155.08a10.418,10.418,0,0,1,3.745,8.01v6.021h4.514v-6.021A10.418,10.418,0,0,0,159.594,407.4Z" transform="translate(-155.08 -407.396)" fill="#f6a96c"/>
      </g>
      <path id="Path_990860" data-name="Path 990860" d="M95.4,375.852H94.328a6.22,6.22,0,0,1-2.982.756H85.2a6.22,6.22,0,0,1-2.982-.756H81.142a1.6,1.6,0,0,0-1.6,1.6v1.5a1.6,1.6,0,0,0,1.6,1.6H95.4a1.6,1.6,0,0,0,1.6-1.6v-1.5A1.6,1.6,0,0,0,95.4,375.852Z" transform="translate(-35.251 -321.54)" fill="#fe646f"/>
      <path id="Path_990861" data-name="Path 990861" d="M162.445,375.852H161.37a6.206,6.206,0,0,1-2.142.7,1.6,1.6,0,0,1,.28.9v1.5a1.6,1.6,0,0,1-1.6,1.6h4.539a1.6,1.6,0,0,0,1.6-1.6v-1.5A1.6,1.6,0,0,0,162.445,375.852Z" transform="translate(-102.293 -321.54)" fill="#fd4755"/>
      <path id="Path_990862" data-name="Path 990862" d="M183.436,7.5a15.1,15.1,0,0,0-15.1,15.1V40.823a4.5,4.5,0,0,0,.386,1.828h4.92a4.061,4.061,0,0,1,3.817,2.689h16.554a4.517,4.517,0,0,0,4.517-4.517V22.6a15.1,15.1,0,0,0-15.1-15.1Z" transform="translate(-111.219 -6.416)" fill="#ffe177"/>
      <path id="Path_990863" data-name="Path 990863" d="M255.136,7.5a15.175,15.175,0,0,0-2.987.3,15.121,15.121,0,0,1,11.418,10.272,3.282,3.282,0,0,1,2.505,3.188V31.435a10.883,10.883,0,0,1-1.812,6.028v3.36a4.517,4.517,0,0,1-4.517,4.517h5.973a4.517,4.517,0,0,0,4.517-4.517V22.6a15.1,15.1,0,0,0-15.1-15.1Z" transform="translate(-182.918 -6.416)" fill="#ffd15b"/>
      <g id="Group_1182015" data-name="Group 1182015" transform="translate(68.077 34.984)">
        <path id="Path_990864" data-name="Path 990864" d="M248.305,242.924a10.732,10.732,0,0,1-4.14-.827v3.757a4.14,4.14,0,1,0,8.281,0V242.1A10.732,10.732,0,0,1,248.305,242.924Z" transform="translate(-244.165 -242.097)" fill="#ffb09e"/>
      </g>
      <g id="Group_1182017" data-name="Group 1182017" transform="translate(70.182 34.984)">
        <g id="Group_1182016" data-name="Group 1182016" transform="translate(0)">
          <path id="Path_990865" data-name="Path 990865" d="M260.841,242.922v2.931a4.138,4.138,0,0,1-2.106,3.605,4.14,4.14,0,0,0,6.175-3.605V242.1a10.732,10.732,0,0,1-4.07.825Z" transform="translate(-258.735 -242.097)" fill="#f89580"/>
        </g>
      </g>
      <g id="Group_1182019" data-name="Group 1182019" transform="translate(54.653 18.575)">
        <g id="Group_1182018" data-name="Group 1182018" transform="translate(0 0)">
          <path id="Path_990866" data-name="Path 990866" d="M158.038,134.991v-4.577a3.6,3.6,0,0,1,.52-1.867h-2.233a5.059,5.059,0,1,0,0,10.119h2.359A10.739,10.739,0,0,1,158.038,134.991Z" transform="translate(-151.265 -128.548)" fill="#ffb09e"/>
        </g>
        <path id="Path_990867" data-name="Path 990867" d="M345.4,128.547h-.7c.007.073.011.146.011.22v2.139a3.922,3.922,0,0,1-1.025,2.643v1.442a10.741,10.741,0,0,1-.645,3.675H345.4a5.059,5.059,0,0,0,0-10.119Z" transform="translate(-315.326 -128.547)" fill="#f89580"/>
      </g>
      <g id="Group_1182020" data-name="Group 1182020" transform="translate(61.281 11.559)">
        <path id="Path_990868" data-name="Path 990868" d="M208.183,81.776l-3.451,3.955H200.9c-2.079,0-3.764,1.064-3.764,3.143v4.577a10.937,10.937,0,1,0,21.873,0V83.272a3.281,3.281,0,0,0-3.282-3.282h-3.687a5.058,5.058,0,0,0-3.856,1.785Z" transform="translate(-197.134 -79.991)" fill="#ffcebf"/>
      </g>
      <g id="Group_1182021" data-name="Group 1182021" transform="translate(70.329 11.559)">
        <path id="Path_990869" data-name="Path 990869" d="M303.216,83.272v1.472h2.174a2.467,2.467,0,0,1,1.6.592V83.272a3.281,3.281,0,0,0-3.281-3.282h-3.73a3.281,3.281,0,0,1,3.235,3.28Z" transform="translate(-294.168 -79.991)" fill="#ffb09e"/>
        <path id="Path_990870" data-name="Path 990870" d="M269.518,163.452H268.8v.146a10.937,10.937,0,0,1-9.048,10.771A10.929,10.929,0,0,0,272.577,163.6v-1.611A3.935,3.935,0,0,1,269.518,163.452Z" transform="translate(-259.752 -150.138)" fill="#ffb09e"/>
      </g>
      <g id="Group_1182026" data-name="Group 1182026" transform="translate(60.342 16.313)">
        <g id="Group_1182022" data-name="Group 1182022" transform="translate(0)">
          <path id="Path_990871" data-name="Path 990871" d="M197.247,121.449h-2.67a3.95,3.95,0,0,1-3.938-3.938v-2.139a2.49,2.49,0,0,1,2.482-2.482H198.7a2.49,2.49,0,0,1,2.482,2.482v2.139A3.95,3.95,0,0,1,197.247,121.449Z" transform="translate(-190.639 -112.889)" fill="#685e68"/>
        </g>
        <g id="Group_1182023" data-name="Group 1182023" transform="translate(3.641)">
          <path id="Path_990872" data-name="Path 990872" d="M220.258,112.889h-3.265a2.49,2.49,0,0,1,2.482,2.482v2.139a3.951,3.951,0,0,1-3.641,3.926c.1.008.2.012.3.012h2.67a3.95,3.95,0,0,0,3.938-3.938v-2.139A2.49,2.49,0,0,0,220.258,112.889Z" transform="translate(-215.835 -112.889)" fill="#554e56"/>
        </g>
        <g id="Group_1182024" data-name="Group 1182024" transform="translate(13.145)">
          <path id="Path_990873" data-name="Path 990873" d="M288.216,121.449h-2.67a3.95,3.95,0,0,1-3.938-3.938v-2.139a2.49,2.49,0,0,1,2.482-2.482h5.582a2.49,2.49,0,0,1,2.482,2.482v2.139A3.95,3.95,0,0,1,288.216,121.449Z" transform="translate(-281.608 -112.889)" fill="#685e68"/>
        </g>
        <g id="Group_1182025" data-name="Group 1182025" transform="translate(16.786)">
          <path id="Path_990874" data-name="Path 990874" d="M311.227,112.889h-3.265a2.49,2.49,0,0,1,2.482,2.482v2.139a3.951,3.951,0,0,1-3.641,3.926c.1.008.2.012.3.012h2.67a3.95,3.95,0,0,0,3.938-3.938v-2.139A2.49,2.49,0,0,0,311.227,112.889Z" transform="translate(-306.804 -112.889)" fill="#554e56"/>
        </g>
      </g>
      <g id="Group_1182031" data-name="Group 1182031" transform="translate(94.209 33.605)">
        <g id="Group_1182027" data-name="Group 1182027" transform="translate(0)">
          <path id="Path_990875" data-name="Path 990875" d="M425.161,238.95h3.764a.76.76,0,0,1,.151.015v-5.2a1.2,1.2,0,0,0-1.2-1.2h-1.656a1.2,1.2,0,0,0-1.2,1.2v5.2A.756.756,0,0,1,425.161,238.95Z" transform="translate(-425.011 -232.557)" fill="#b5adb6"/>
        </g>
        <g id="Group_1182028" data-name="Group 1182028" transform="translate(0.948)">
          <path id="Path_990876" data-name="Path 990876" d="M432.52,233.761v5.189h2.018a.76.76,0,0,1,.151.015v-5.2a1.2,1.2,0,0,0-1.2-1.2h-1.656a1.2,1.2,0,0,0-.256.028A1.2,1.2,0,0,1,432.52,233.761Z" transform="translate(-431.572 -232.557)" fill="#a79ba7"/>
        </g>
        <g id="Group_1182029" data-name="Group 1182029" transform="translate(0 24.711)">
          <path id="Path_990877" data-name="Path 990877" d="M428.025,403.775H425.01v14.378h1.9a2.168,2.168,0,0,0,2.168-2.168V403.568A2.769,2.769,0,0,1,428.025,403.775Z" transform="translate(-425.01 -403.568)" fill="#b5adb6"/>
        </g>
        <g id="Group_1182030" data-name="Group 1182030" transform="translate(0 24.711)">
          <path id="Path_990878" data-name="Path 990878" d="M428.024,403.775h-1.119v12.21a2.167,2.167,0,0,1-1.9,2.149v.019h1.9a2.168,2.168,0,0,0,2.168-2.168V403.568A2.768,2.768,0,0,1,428.024,403.775Z" transform="translate(-425.009 -403.568)" fill="#a79ba7"/>
        </g>
      </g>
      <g id="Group_1182035" data-name="Group 1182035" transform="translate(93.607 39.998)">
        <g id="Group_1182032" data-name="Group 1182032" transform="translate(0)">
          <path id="Path_990879" data-name="Path 990879" d="M421.336,282.291h3.123a2.769,2.769,0,0,1,1.652.548v-5.286a.753.753,0,0,0-.753-.753h-3.764a.753.753,0,0,0-.753.753v4.814A1.666,1.666,0,0,1,421.336,282.291Z" transform="translate(-420.841 -276.8)" fill="#fe646f"/>
        </g>
        <g id="Group_1182034" data-name="Group 1182034" transform="translate(1.505 0)">
          <g id="Group_1182033" data-name="Group 1182033">
            <path id="Path_990880" data-name="Path 990880" d="M434.27,276.8h-3.012a.753.753,0,0,1,.753.753v4.738h1.359a2.769,2.769,0,0,1,1.652.548v-5.286A.753.753,0,0,0,434.27,276.8Z" transform="translate(-431.258 -276.801)" fill="#fd4755"/>
          </g>
        </g>
      </g>
      <g id="Group_1182040" data-name="Group 1182040" transform="translate(92.327 45.345)">
        <g id="Group_1182039" data-name="Group 1182039" transform="translate(0)">
          <g id="Group_1182038" data-name="Group 1182038">
            <g id="Group_1182037" data-name="Group 1182037">
              <g id="Group_1182036" data-name="Group 1182036">
                <path id="Path_990881" data-name="Path 990881" d="M411.984,322.109a1.717,1.717,0,0,0,1.239,1.648,1.717,1.717,0,0,0-1.239,1.678,1.755,1.755,0,0,0,1.774,1.687h3.123a2.932,2.932,0,0,0,2.932-2.932v-7.46a2.932,2.932,0,0,0-2.932-2.932h-3.123a1.755,1.755,0,0,0-1.774,1.687,1.717,1.717,0,0,0,1.239,1.678,1.716,1.716,0,0,0,0,3.3A1.717,1.717,0,0,0,411.984,322.109Z" transform="translate(-411.984 -313.799)" fill="#ffcebf"/>
              </g>
            </g>
          </g>
        </g>
      </g>
      <g id="Group_1182041" data-name="Group 1182041" transform="translate(94.192 45.345)">
        <path id="Path_990882" data-name="Path 990882" d="M427.923,313.8h-3.032a2.932,2.932,0,0,1,2.932,2.932v7.46a2.932,2.932,0,0,1-2.932,2.932h3.032a2.932,2.932,0,0,0,2.932-2.932v-7.46A2.932,2.932,0,0,0,427.923,313.8Z" transform="translate(-424.891 -313.799)" fill="#ffb09e"/>
      </g>
      <path id="Path_990883" data-name="Path 990883" d="M91.343,257.143v-7.39h-13.1v7.39a3.528,3.528,0,0,1-2.771,3.445v1.9a6.248,6.248,0,0,0,6.248,6.248h6.146a6.248,6.248,0,0,0,6.248-6.248v-1.9A3.528,3.528,0,0,1,91.343,257.143Z" transform="translate(-31.771 -213.663)" fill="#ffbd86"/>
      <path id="Path_990884" data-name="Path 990884" d="M137.8,257.143v-7.39H136.02v12.73a6.248,6.248,0,0,1-6.248,6.248h4.548a6.248,6.248,0,0,0,6.248-6.248v-1.9A3.528,3.528,0,0,1,137.8,257.143Z" transform="translate(-78.225 -213.663)" fill="#f6a96c"/>
      <g id="Group_1182046" data-name="Group 1182046" transform="translate(39.418 36.09)">
        <g id="Group_1182042" data-name="Group 1182042" transform="translate(20.154)">
          <path id="Path_990885" data-name="Path 990885" d="M188.832,260.67a3.527,3.527,0,0,1-3.527-3.527v-7.39h2.855a4.2,4.2,0,0,1,4.2,4.2v3.191A3.527,3.527,0,0,1,188.832,260.67Z" transform="translate(-185.305 -249.753)" fill="#ca6e59"/>
        </g>
        <g id="Group_1182043" data-name="Group 1182043" transform="translate(20.154 0)">
          <path id="Path_990886" data-name="Path 990886" d="M188.16,249.753h-2.855v0a4.2,4.2,0,0,1,4.12,4.2v3.191a3.527,3.527,0,0,1-2.06,3.207,3.526,3.526,0,0,0,4.994-3.207v-3.191A4.2,4.2,0,0,0,188.16,249.753Z" transform="translate(-185.305 -249.753)" fill="#bb5d4c"/>
        </g>
        <g id="Group_1182044" data-name="Group 1182044" transform="translate(0)">
          <path id="Path_990887" data-name="Path 990887" d="M49.362,260.67a3.527,3.527,0,0,1-3.527-3.527v-3.191a4.2,4.2,0,0,1,4.2-4.2h2.855v7.39A3.527,3.527,0,0,1,49.362,260.67Z" transform="translate(-45.835 -249.753)" fill="#ca6e59"/>
        </g>
        <g id="Group_1182045" data-name="Group 1182045" transform="translate(2.022 0)">
          <path id="Path_990888" data-name="Path 990888" d="M62,249.753c-.052,0-.1,0-.155,0v7.386a3.527,3.527,0,0,1-2.022,3.19,3.527,3.527,0,0,0,5.032-3.19v-7.39H62Z" transform="translate(-59.825 -249.753)" fill="#bb5d4c"/>
        </g>
      </g>
      <g id="Group_1182047" data-name="Group 1182047" transform="translate(50.167 58.51)">
        <circle id="Ellipse_13584" data-name="Ellipse 13584" cx="2.855" cy="2.855" r="2.855" transform="translate(0)" fill="#ffe177"/>
      </g>
      <g id="Group_1182048" data-name="Group 1182048" transform="translate(51.705 58.51)">
        <path id="Path_990889" data-name="Path 990889" d="M132.184,404.909a2.839,2.839,0,0,0-1.316.323,2.852,2.852,0,0,1,0,5.064,2.854,2.854,0,1,0,1.316-5.387Z" transform="translate(-130.868 -404.909)" fill="#ffd15b"/>
      </g>
      <g id="Group_1182049" data-name="Group 1182049" transform="translate(38.334 0)">
        <path id="Path_990890" data-name="Path 990890" d="M247.209,196.107a4.217,4.217,0,0,1-5.958,0,1.084,1.084,0,1,0-1.533,1.533,6.388,6.388,0,0,0,9.023,0,1.084,1.084,0,1,0-1.533-1.533Z" transform="translate(-210.347 -167.498)"/>
        <path id="Path_990891" data-name="Path 990891" d="M115.183,287.58a1.084,1.084,0,0,0-1.084,1.084v.672a1.084,1.084,0,0,0,2.168,0v-.672A1.084,1.084,0,0,0,115.183,287.58Z" transform="translate(-103.151 -246.024)"/>
        <path id="Path_990892" data-name="Path 990892" d="M151.939,287.58a1.084,1.084,0,0,0-1.084,1.084v.672a1.084,1.084,0,1,0,2.168,0v-.672A1.084,1.084,0,0,0,151.939,287.58Z" transform="translate(-134.595 -246.024)"/>
        <path id="Path_990893" data-name="Path 990893" d="M99.961,45.341v-4.59a1.83,1.83,0,0,0-.6-1.356V34.809a2.291,2.291,0,0,0-2.288-2.288H95.414a2.291,2.291,0,0,0-2.288,2.288V39.4a1.83,1.83,0,0,0-.6,1.356v1.417A10.125,10.125,0,0,0,90.7,41.152l-4.828-2.068A5.6,5.6,0,0,0,88.4,34.407V28.554a6.134,6.134,0,0,0,0-9.835V16.181A16.18,16.18,0,0,0,61.724,3.865,1.084,1.084,0,1,0,63.13,5.514a14.013,14.013,0,0,1,23.1,10.667v1.5a6.125,6.125,0,0,0-1.36-.187,3.58,3.58,0,0,0-.633-1.042V14.84a4.37,4.37,0,0,0-4.365-4.365H76.186a6.13,6.13,0,0,0-4.677,2.161l-2.335,2.676a3.566,3.566,0,0,0-.767-.084H62.825A3.571,3.571,0,0,0,59.5,17.5a6.122,6.122,0,0,0-1.3.186v-1.5a14,14,0,0,1,1.91-7.066,1.084,1.084,0,1,0-1.871-1.094,16.172,16.172,0,0,0-2.206,8.16v2.538a6.134,6.134,0,0,0,0,9.835v5.853a5.624,5.624,0,0,0,.033.6H43.617a5.288,5.288,0,0,0-5.283,5.282v3.191a4.616,4.616,0,0,0,4.283,4.6v.743a7.3,7.3,0,0,0,1.828,4.835,2.682,2.682,0,0,0-1.24,2.259v1.5a2.683,2.683,0,0,0,.982,2.075,11.448,11.448,0,0,0-1.466,2.223,1.084,1.084,0,1,0,1.936.974A9.33,9.33,0,0,1,46.579,60.1h2.714a3.939,3.939,0,1,0,7.457,0h2.713A9.334,9.334,0,0,1,62.38,66.88v4.938H44.747a1.085,1.085,0,0,1-1.084-1.084v-3.6a1.084,1.084,0,1,0-2.168,0v3.6a3.255,3.255,0,0,0,3.251,3.251H79.469a1.084,1.084,0,0,0,0-2.168H64.548V66.88a11.492,11.492,0,0,0-2.688-7.4,2.683,2.683,0,0,0,.979-2.073v-1.5a2.682,2.682,0,0,0-1.24-2.259,7.3,7.3,0,0,0,1.828-4.835v-.743a4.616,4.616,0,0,0,4.283-4.6v-2.1a5.222,5.222,0,0,0,9.576-1.368h5.237l7.325,3.137a7.937,7.937,0,0,1,2.509,1.706,2.768,2.768,0,0,0-.573,3.861,2.782,2.782,0,0,0,0,3.295,2.782,2.782,0,0,0,0,3.295,2.78,2.78,0,0,0,1.342,4.277V71.818h-8.6a1.084,1.084,0,1,0,0,2.168H96.107a3.255,3.255,0,0,0,3.251-3.251v-11.6a4.015,4.015,0,0,0,1.882-3.4v-7.46a4,4,0,0,0-1.28-2.936ZM84.238,25.019V23.77a4.993,4.993,0,0,0,.88-2.836V19.679a3.975,3.975,0,0,1-.4,7.931h-.77A12.006,12.006,0,0,0,84.238,25.019ZM82.951,18.8v2.139A2.858,2.858,0,0,1,80.1,23.789h-2.67a2.858,2.858,0,0,1-2.855-2.855V18.8a1.4,1.4,0,0,1,1.4-1.4h5.582a1.4,1.4,0,0,1,1.4,1.4Zm-9.8-4.739.01-.011a3.966,3.966,0,0,1,3.03-1.4h3.687a2.2,2.2,0,0,1,2.2,2.2v.427a3.588,3.588,0,0,0-.518-.038H75.97A3.57,3.57,0,0,0,72.4,18.8v1.172h-.431V18.8a3.551,3.551,0,0,0-.9-2.363ZM61.426,18.8a1.4,1.4,0,0,1,1.4-1.4h5.582a1.4,1.4,0,0,1,1.4,1.4v2.139a2.858,2.858,0,0,1-2.855,2.855h-2.67a2.858,2.858,0,0,1-2.855-2.855Zm-5.689,4.84a3.981,3.981,0,0,1,3.522-3.949v1.248a4.993,4.993,0,0,0,.939,2.918v1.167a12.015,12.015,0,0,0,.284,2.592h-.77A3.98,3.98,0,0,1,55.737,23.635ZM42.945,45.923A2.446,2.446,0,0,1,40.5,43.48V40.289a3.118,3.118,0,0,1,3.115-3.115h1.771V43.48A2.446,2.446,0,0,1,42.945,45.923ZM53.022,63.137a1.771,1.771,0,1,1,1.771-1.771A1.773,1.773,0,0,1,53.022,63.137Zm7.65-5.726a.52.52,0,0,1-.519.519H54.946a3.927,3.927,0,0,0-3.849,0H45.892a.52.52,0,0,1-.519-.519v-1.5a.52.52,0,0,1,.519-.519h.818a7.286,7.286,0,0,0,3.239.756h6.146a7.286,7.286,0,0,0,3.239-.756h.818a.52.52,0,0,1,.519.519Zm.588-8.591a5.17,5.17,0,0,1-5.164,5.164H54.105V49.266h.344a1.084,1.084,0,1,0,0-2.168H51.594a1.084,1.084,0,1,0,0,2.168h.344v4.718H49.949a5.17,5.17,0,0,1-5.164-5.164V47.706a4.617,4.617,0,0,0,2.771-4.227V37.174H58.488V43.48a4.617,4.617,0,0,0,2.771,4.227V48.82Zm4.283-5.341a2.443,2.443,0,0,1-4.886,0V37.174h1.771a3.119,3.119,0,0,1,3.115,3.115Zm1.452-5.842a5.284,5.284,0,0,0-4.567-2.632H58.258a3.428,3.428,0,0,1-.054-.6V29.59a6.13,6.13,0,0,0,1.508.188h1.47a12.1,12.1,0,0,0,5.812,6.064Zm8.281,1.1a3.057,3.057,0,1,1-6.113,0v-2.1a12.024,12.024,0,0,0,6.113,0Zm-3.057-3.869a9.864,9.864,0,0,1-9.835-9.289,4.994,4.994,0,0,0,1.9.374h2.67a4.989,4.989,0,0,0,2.548-.7,1.524,1.524,0,0,0,.145.183l1.782,1.909a1.084,1.084,0,1,0,1.585-1.479L71.6,24.364l1.2-1.462a5.03,5.03,0,0,0,4.62,3.054H80.1a5,5,0,0,0,1.959-.4,9.865,9.865,0,0,1-9.838,9.313ZM82.8,37.84H77.442v-2a12.1,12.1,0,0,0,5.812-6.064h1.47a6.138,6.138,0,0,0,1.508-.188v4.817A3.437,3.437,0,0,1,82.8,37.84Zm12.5-3.03a.121.121,0,0,1,.121-.121H97.07a.121.121,0,0,1,.121.121v4.105h-1.9Zm-.6,6.273h3.1V44.3a4.028,4.028,0,0,0-.568-.041H94.691Zm2.5,29.652a1.085,1.085,0,0,1-1.084,1.084h-.814V59.752h1.9Zm1.882-15a1.85,1.85,0,0,1-1.848,1.848H94.1a.675.675,0,0,1-.69-.622.634.634,0,0,1,.457-.618,1.084,1.084,0,0,0,0-2.082.632.632,0,0,1,0-1.214,1.084,1.084,0,0,0,0-2.082.632.632,0,0,1,0-1.214,1.084,1.084,0,0,0,0-2.082.634.634,0,0,1-.457-.619.675.675,0,0,1,.69-.622h3.123a1.85,1.85,0,0,1,1.848,1.848Z" transform="translate(-38.334 0)"/>
      </g>
    </g>
  </g>
</svg>
