<svg xmlns="http://www.w3.org/2000/svg" width="820" height="412.263" viewBox="0 0 820 412.263">
  <g id="img16" transform="translate(-390 -5371.408)">
    <g id="Group_1182842" data-name="Group 1182842" transform="translate(0 -123)">
      <rect id="Rectangle_454868" data-name="Rectangle 454868" width="820" height="412.263" transform="translate(1210 5906.671) rotate(180)" fill="#fff"/>
      <g id="Group_1182840" data-name="Group 1182840" transform="translate(560.017 5525.13)">
        <path id="Path_997101" data-name="Path 997101" d="M700.359,631.388H265.032a56.761,56.761,0,0,1-6.178-34.571c1.311-9.016,19.395-17.832,15.133-34.252-8.077-31.117-.9-52.375,23.632-85.8,27.846-37.936,45.836-40.037,51.164-65.935,1.833-8.909.1-17.576-.255-26.338-.7-17.431,5.094-37.144,20.048-49.826,16.386-13.9,39.023-15.989,59.369-16.28,12.43-.177,24.974.027,36.417,3.221,24.222,6.76,40.534,25.858,61.2,38.542a123.025,123.025,0,0,0,48.3,16.776c9.951,1.307,20.45,1.581,29.185,5.569,14.962,6.831,21.624,23,25.578,38.639s6.469,32.454,16.64,44.638c9.787,11.725,25.44,17.627,37.168,27.6,18.159,15.436,25.8,39.9,26.239,64.594C709.115,582.383,701.965,606.976,700.359,631.388Z" transform="translate(-237.824 -283.443)" fill="#b3ebf5" opacity="0.2"/>
        <path id="Path_997102" data-name="Path 997102" d="M320.919,990.781c11.012-4.168,11.607,14.631,11.571,19.7a72.95,72.95,0,0,1,10.883,5.093c-2.233-5.744-7.361-8.476-7.708-12.5-.39-4.517,2.043-9.448,7.961-3.834,4.689,4.448,2.213,13.5.982,17.066a66.313,66.313,0,0,1,12.368,9.534c-1.659-7-7.252-10.854-7.173-15.471.086-5.052,3.321-10.142,9.184-3.056,4.846,5.858.554,16.092-1.081,19.467a39.681,39.681,0,0,1,3.945,4.645,129.285,129.285,0,0,1,7.014,11.074c-1.326-6.2-5.467-10.494-4.88-14.666.7-5.007,4.52-9.549,9.435-1.569,3.888,6.313-.974,15.274-3.176,18.743a127.753,127.753,0,0,1,9.436,22.619c.682-5.9-2.161-14.791.148-19.962,1.515-3.392,3.873-3.824,5.6-3.582a4.75,4.75,0,0,1,3.5,2.6c4.3,8.131-5.69,19.132-8.834,22.3a128.841,128.841,0,0,1,4.706,24.008c.376-3.049.925-7.655,1.115-10.06.3-3.791,2.448-8.771,5.345-10.393q.182-.1.358-.185c2.263-1.068,4.8.037,6.042,2.378,4.866,9.157-9.48,18.891-12.63,20.884,0,.048.008.1.012.145,1.325,17.478-1.328,29.1-1.441,29.59l-1.564-.432c.026-.113,2.545-11.183,1.491-27.542-14.562-4.765-17.007-15.338-14.364-18.583,2.731-3.354,8.754-3.6,10.189,3.966A52.191,52.191,0,0,0,383.3,1094.4a126.731,126.731,0,0,0-4.664-24.519c-20.328,1.4-19.612-13-15.084-15.514,4.583-2.547,7.459.114,9.712,6.06a26.884,26.884,0,0,0,5.014,8.258,126.013,126.013,0,0,0-9.187-22.241c-2.882,2.592-10.66,8.65-16.4,4.4-7.173-5.306-3.336-9.824,1.024-10.814,4.008-.909,8.365,4.737,14.781,5.3a127.276,127.276,0,0,0-7.925-12.747,49.069,49.069,0,0,0-7.94-8.285c-2.612,3-9.644,10.03-15.8,6.678-7.727-4.21-4.408-9.231-.178-10.839,3.774-1.434,8.558,3.189,14.731,3.125a69.375,69.375,0,0,0-19.2-10.945c-2.731,3.1-9.61,9.784-15.639,6.5-7.727-4.21-4.408-9.231-.178-10.839,3.827-1.455,8.692,3.323,14.992,3.123l.055-.187c-1.929-1.447-6.032-4.5-8.064-5.848-2.711-1.795-5.4-5.884-5.177-9.385A6.108,6.108,0,0,1,320.919,990.781Z" transform="translate(-280.384 -816.797)" fill="#93e3f1" opacity="0.2"/>
        <path id="Path_997103" data-name="Path 997103" d="M223.01,1287.987l-24.557.578c-9.163-15.083-15.974-28.245-15.974-28.245,27.448-7.543,50.947-5.9,70.746.781l11.826,25.634,1.461-20.179c49.382,24.043,71.58,78.375,71.58,78.375s-85.729-5.531-104.174-13.19c-7.122-2.957-16.413-14.279-25.136-27.065C215.064,1298.178,223.01,1287.987,223.01,1287.987Z" transform="translate(-177.641 -1027.297)" fill="#c4f3fb"/>
        <path id="Path_997104" data-name="Path 997104" d="M182.48,1279.5s111.5,41.537,155.613,84.612c0,0-85.729-5.531-104.174-13.19-7.122-2.957-16.413-14.279-25.136-27.065,6.282-6.5,14.227-16.69,14.227-16.69l-24.557.578C189.291,1292.664,182.48,1279.5,182.48,1279.5Z" transform="translate(-177.641 -1046.477)" fill="#9feef7"/>
        <path id="Path_997105" data-name="Path 997105" d="M159.193,1383.557c4.377-7.942,14.113,2.786,16.621,5.775a56.253,56.253,0,0,1,8.926-2.446c-4.178-2.254-8.55-1.3-10.765-3.485-2.484-2.454-3.52-6.561,2.754-6.223,4.971.268,8.038,6.811,9.1,9.519a51.085,51.085,0,0,1,12.015-.583c-4.467-3.276-9.673-2.745-11.932-5.493-2.472-3.006-3.117-7.606,3.86-6.377,5.767,1.016,8.36,9.161,9.087,11.957a30.572,30.572,0,0,1,4.633.754,99.512,99.512,0,0,1,9.644,2.993c-3.872-2.972-8.447-3.425-10.185-6.165-2.087-3.288-2.117-7.857,4.75-5.63,5.433,1.762,7.056,9.444,7.5,12.578a98.424,98.424,0,0,1,16.829,8.555c-2.547-3.8-8.653-7.6-9.882-11.781-.806-2.745.362-4.176,1.494-4.895a3.66,3.66,0,0,1,3.353-.222c6.585,2.62,6.217,14.062,5.953,17.486a99.308,99.308,0,0,1,14.749,11.731c-1.3-1.976-3.28-4.952-4.37-6.456-1.717-2.373-2.944-6.366-2.055-8.764.037-.1.077-.2.118-.287a3.562,3.562,0,0,1,4.731-1.622c7.426,2.942,3.874,15.812,3.022,18.553l.08.079c9.5,9.589,13.755,17.732,13.931,18.074l-1.133.527a80.977,80.977,0,0,0-12.88-16.9c-10.92,4.475-17.633-.5-17.7-3.728-.073-3.33,3.335-6.484,7.956-2.76a40.213,40.213,0,0,0,8.134,4.861,97.635,97.635,0,0,0-14.979-12.052c-11.224,10.969-17.993,2.168-16.594-1.568,1.417-3.781,4.432-3.657,8.723-1.294a20.716,20.716,0,0,0,7.064,2.34,97.06,97.06,0,0,0-16.494-8.457c-.4,2.959-1.932,10.395-7.418,10.77-6.857.469-6.863-4.1-4.8-6.853,1.9-2.535,7.271-1.4,11.315-4.271a97.947,97.947,0,0,0-11.013-3.519,37.812,37.812,0,0,0-8.794-.9c-.032,3.066-.647,10.7-5.929,11.8-6.634,1.388-7.2-3.213-5.517-6.268,1.5-2.725,6.611-2.4,10.2-5.521a53.44,53.44,0,0,0-16.727,3.167c-.055,3.179-.75,10.535-5.927,11.619-6.634,1.388-7.2-3.213-5.517-6.268,1.518-2.764,6.757-2.39,10.352-5.653l-.061-.137c-1.854.115-5.787.371-7.65.6-2.487.3-6.1-.756-7.723-2.92A4.706,4.706,0,0,1,159.193,1383.557Z" transform="translate(-159.006 -1121.529)" fill="#ccf6fe"/>
        <path id="Path_997106" data-name="Path 997106" d="M214.355,1561.969a112.6,112.6,0,0,1,43.39-17.545c4.441,5.073,9.882,11.03,9.882,11.03l.034-12.328c55.166-4.822,102.509,30.3,102.509,30.3-31.171,21.509-58.246,28.21-80.689,27.34-1.5-4.25-3.649-10.594-3.649-10.594l-3.539,10.05a96.569,96.569,0,0,1-28.736-7.925c1.879-5.216,3.839-11.169,3.839-11.169l-11.631,7.262C225.293,1577.017,214.355,1561.969,214.355,1561.969Z" transform="translate(-202.946 -1255.401)" fill="#c4f3fb"/>
        <path id="Path_997107" data-name="Path 997107" d="M289.48,1664.678c-1.5-4.25-3.649-10.594-3.649-10.594l-3.539,10.05a96.569,96.569,0,0,1-28.736-7.925c1.879-5.216,3.839-11.169,3.839-11.169l-11.631,7.262c-20.471-11.371-31.409-26.418-31.409-26.418,64.088-10.124,155.814,11.453,155.814,11.453C339,1658.846,311.923,1665.548,289.48,1664.678Z" transform="translate(-202.946 -1319.315)" fill="#9feef7"/>
        <path id="Path_997108" data-name="Path 997108" d="M1877.031,436.383c-9.778-6.322-14.267,11.728-15.286,16.632a72.151,72.151,0,0,0-11.582,2.658c3.354-5.089,8.88-6.662,10.055-10.484,1.317-4.285-.008-9.559-6.9-5.363-5.459,3.325-4.949,12.588-4.5,16.294a65.573,65.573,0,0,0-13.942,6.643c3.061-6.42,9.27-8.984,10.155-13.463.968-4.9-1.1-10.5-8.242-4.866-5.9,4.654-3.886,15.441-3.008,19.044a39.177,39.177,0,0,0-4.781,3.669,127.761,127.761,0,0,0-9.086,9.246c2.572-5.715,7.47-9.007,7.771-13.162.361-4.987-2.382-10.172-8.794-3.48-5.073,5.294-2.238,14.968-.832,18.781a126.352,126.352,0,0,0-13.832,19.9c.57-5.848,5.168-13.849,4.013-19.329-.758-3.595-2.948-4.5-4.665-4.628a4.7,4.7,0,0,0-3.927,1.787c-5.853,6.965,1.517,19.681,3.9,23.393a127.438,127.438,0,0,0-9.549,22.23c.271-3.026.7-7.593,1.017-9.957.5-3.727-.541-8.988-3-11.16q-.154-.135-.308-.253c-1.965-1.5-4.646-.963-6.336,1.041-6.61,7.84,5.231,20.236,7.862,22.818-.013.046-.028.093-.042.138-4.92,16.62-4.776,28.412-4.767,28.906l1.6-.092c0-.115-.132-11.341,4.293-26.936,15.07-1.576,19.634-11.288,17.755-14.975-1.942-3.811-7.712-5.306-10.676,1.713a51.608,51.608,0,0,1-6.243,10.442,125.31,125.31,0,0,1,9.614-22.733c19.36,5.583,21.666-8.483,17.812-11.858-3.9-3.415-7.235-1.442-10.651,3.837a26.593,26.593,0,0,1-6.567,6.939,124.6,124.6,0,0,1,13.512-19.589c2.246,3.106,8.5,10.581,14.936,7.672,8.04-3.636,5.271-8.8,1.262-10.667-3.686-1.714-9.073,2.838-15.393,2.046a125.8,125.8,0,0,1,10.315-10.673,48.532,48.532,0,0,1,9.4-6.357c1.9,3.448,7.235,11.7,13.88,9.744,8.346-2.462,6.183-8.007,2.429-10.441-3.35-2.172-8.937,1.3-14.891-.045a68.6,68.6,0,0,1,20.842-6.584c2,3.562,7.253,11.459,13.766,9.537,8.346-2.462,6.183-8.007,2.429-10.441-3.4-2.2-9.094,1.4-15.143-.1l-.014-.192c2.167-1,6.77-3.1,9.014-3.975,2.995-1.171,6.444-4.565,6.959-8A6.04,6.04,0,0,0,1877.031,436.383Z" transform="translate(-1448.55 -376.1)" fill="#ccf6fe"/>
        <path id="Path_997109" data-name="Path 997109" d="M1600.91,149.048c9.41-.286,4.967,14.08,3.621,17.9a58.338,58.338,0,0,1,6.9,6.682c-.193-4.923-3.358-8.323-2.573-11.458.881-3.516,4-6.611,7.016-.827,2.387,4.583-1.84,10.779-3.7,13.156a53,53,0,0,1,6.868,10.426c.567-5.722-2.657-10.092-1.4-13.562,1.38-3.8,5.15-6.8,7.738.079,2.139,5.689-3.769,12.309-5.884,14.435a31.622,31.622,0,0,1,1.774,4.538,103.241,103.241,0,0,1,2.42,10.2c.61-5.03-1.4-9.356.128-12.357,1.835-3.6,5.9-6.042,7.54,1.269,1.3,5.784-4.711,11.293-7.279,13.343a102.178,102.178,0,0,1,1.247,19.554c2.051-4.284,2.216-11.744,5.307-15.052,2.028-2.17,3.923-1.883,5.163-1.251a3.8,3.8,0,0,1,1.97,2.879c1.137,7.267-9.281,12.983-12.481,14.556a103.017,103.017,0,0,1-2.69,19.374c1.078-2.207,2.692-5.546,3.461-7.315,1.213-2.788,4.133-5.993,6.746-6.466.109-.02.215-.035.319-.047a3.7,3.7,0,0,1,3.949,3.37c1.295,8.188-12.083,11.815-14.983,12.5-.01.037-.019.076-.029.113-3.546,13.557-8.578,21.656-8.791,21.994l-1.07-.734a84.056,84.056,0,0,0,8.294-20.433c-9.768-7.391-8.865-16.02-6.022-17.786,2.937-1.825,7.555-.446,6.67,5.649a41.719,41.719,0,0,0-.047,9.835,101.337,101.337,0,0,0,2.855-19.749c-15.731-4.232-11.444-14.929-7.366-15.652,4.128-.732,5.609,2.027,5.765,7.108a21.49,21.49,0,0,0,1.641,7.547,100.743,100.743,0,0,0-1.157-19.2c-2.853,1.21-10.31,3.766-13.543-.937-4.042-5.877.034-8.295,3.588-7.908,3.267.355,5.091,5.757,9.795,7.852a101.75,101.75,0,0,0-2.673-11.7,39.246,39.246,0,0,0-3.846-8.329c-2.757,1.592-9.9,5.074-13.679.939-4.746-5.193-.93-8.126,2.686-8.24,3.226-.1,5.64,4.637,10.323,6.2a55.456,55.456,0,0,0-11.667-13.27c-2.87,1.63-9.811,4.9-13.514.844-4.745-5.193-.93-8.126,2.686-8.24,3.272-.1,5.706,4.774,10.52,6.261l.09-.127c-1.082-1.6-3.388-4.974-4.574-6.519-1.583-2.062-2.549-5.853-1.472-8.442A4.886,4.886,0,0,1,1600.91,149.048Z" transform="translate(-1293.511 -149.044)" fill="#ccf6fe"/>
        <g id="Group_1182819" data-name="Group 1182819" transform="translate(314.185 119.606)" opacity="0.5">
          <path id="Path_997110" data-name="Path 997110" d="M1796.6,770.537l22.848-9.019c2.573-17.459,3.726-32.234,3.726-32.234-28.22,3.727-49.227,14.385-64.869,28.237l-.921,28.215-9.2-18.021c-36.138,41.356-35.449,100.044-35.449,100.044s76.824-38.44,90.837-52.67c5.41-5.494,9.564-19.538,12.626-34.71C1807.885,776.834,1796.6,770.537,1796.6,770.537Z" transform="translate(-1706.649 -729.284)" fill="#c4f3fb"/>
          <path id="Path_997111" data-name="Path 997111" d="M1823.18,729.284s-86.558,81.635-110.436,138.474c0,0,76.824-38.44,90.837-52.67,5.41-5.494,9.564-19.538,12.626-34.71-8.316-3.544-19.6-9.841-19.6-9.841l22.848-9.019C1822.026,744.059,1823.18,729.284,1823.18,729.284Z" transform="translate(-1706.655 -729.284)" fill="#9feef7"/>
          <path id="Path_997112" data-name="Path 997112" d="M1822.294,1062.243a112.612,112.612,0,0,0-46.8.714c-2.117,6.4-4.812,14-4.812,14l-4.827-11.344c-52.7,17.016-82.647,67.781-82.647,67.781,37.084,7.691,64.634,3.333,84.971-6.2-.267-4.5-.76-11.179-.76-11.179l7.171,7.882a96.561,96.561,0,0,0,23.39-18.478c-3.76-4.074-7.882-8.8-7.882-8.8l13.54,2.167C1818.072,1080.36,1822.294,1062.243,1822.294,1062.243Z" transform="translate(-1683.207 -991.934)" fill="#c4f3fb"/>
          <path id="Path_997113" data-name="Path 997113" d="M1768.175,1135.329c-.267-4.5-.76-11.179-.76-11.179l7.171,7.882a96.564,96.564,0,0,0,23.39-18.478c-3.76-4.074-7.882-8.8-7.882-8.8l13.54,2.167c14.435-18.437,18.657-36.554,18.657-36.554-62.978,15.6-139.086,71.156-139.086,71.156C1720.288,1149.216,1747.838,1144.859,1768.175,1135.329Z" transform="translate(-1683.204 -1000.062)" fill="#9feef7"/>
        </g>
        <path id="Path_997114" data-name="Path 997114" d="M241.359,1839.651H694.08a1.781,1.781,0,0,0,1.781-1.781v-1.706a1.781,1.781,0,0,0-1.781-1.781H241.359a1.781,1.781,0,0,0-1.781,1.781v1.706A1.78,1.78,0,0,0,241.359,1839.651Z" transform="translate(-222.97 -1486.981)" fill="#c4dfe8"/>
        <g id="Group_1182835" data-name="Group 1182835" transform="translate(116.547 41.856)">
          <rect id="Rectangle_454869" data-name="Rectangle 454869" width="124.73" height="51.303" transform="translate(142.569 224.178) rotate(180)" fill="#e03268"/>
          <path id="Path_997115" data-name="Path 997115" d="M1399.615,666.172c-1.555.109-124.968,0-124.968,0V783.26h80l42.827-42.793Z" transform="translate(-1161.225 -601.431)" fill="#ff5b7e"/>
          <path id="Path_997116" data-name="Path 997116" d="M822.534,982.862s85.591,5.11,85.591,0v22.264s-41.859,7.5-46.569,7.5-26.642,11.615-29.548,12.583-9.151-24.966-9.473-25.188S822.534,982.862,822.534,982.862Z" transform="translate(-802.193 -852.337)" fill="#f9537f"/>
          <path id="Path_997117" data-name="Path 997117" d="M1830.848,754.54H1843.9a4.778,4.778,0,0,0,4.778-4.778V670.947a4.778,4.778,0,0,0-4.778-4.778h-13.048a4.778,4.778,0,0,0-4.778,4.778v78.815A4.777,4.777,0,0,0,1830.848,754.54Z" transform="translate(-1598.982 -601.429)" fill="#e03268"/>
          <path id="Path_997118" data-name="Path 997118" d="M1321.355,985.31h101.072a16.463,16.463,0,0,1,16.469,16.456v58.017a41.9,41.9,0,0,1-41.917,41.884l-104.068.637s7.224-1.923,8.412-4c4.9-8.564,17.448-30.581,17.448-31.36C1318.772,1065.975,1321.355,985.31,1321.355,985.31Z" transform="translate(-1175.724 -854.785)" fill="#f9537f"/>
          <path id="Path_997119" data-name="Path 997119" d="M785.337,998.542v56.535a20.485,20.485,0,0,0,20.493,20.477h57.825a20.485,20.485,0,0,0,20.493-20.477V998.542a13.234,13.234,0,0,1,13.239-13.229h0a13.235,13.235,0,0,1,13.24,13.229v57.992a45.991,45.991,0,0,1-46.009,45.973H804.867a45.991,45.991,0,0,1-46.009-45.973V998.542A13.234,13.234,0,0,1,772.1,985.313h0A13.234,13.234,0,0,1,785.337,998.542Z" transform="translate(-751.757 -854.787)" fill="#ff85a5"/>
          <path id="Path_997120" data-name="Path 997120" d="M827.539,1684.32l-2.105,16.89-11.335.878.175-15.664Z" transform="translate(-795.611 -1409.707)" fill="#ffc0bb"/>
          <g id="Group_1182823" data-name="Group 1182823" transform="translate(0 289.82)">
            <path id="Path_997121" data-name="Path 997121" d="M725.757,1817.84l30.964.209a1.189,1.189,0,0,0,1.215-1.189l-.008-.891a1.235,1.235,0,0,0-1.236-1.205l-30.965-.208a1.189,1.189,0,0,0-1.215,1.188l.008.891A1.234,1.234,0,0,0,725.757,1817.84Z" transform="translate(-724.491 -1802.917)" fill="#3d3a55"/>
            <path id="Path_997122" data-name="Path 997122" d="M756.216,1759.962l1.188,9.143c.147,1.127-.49,2.146-1.337,2.14l-29.446-.2a2.186,2.186,0,0,1-1.934-1.355c-.42-.9-.514-2.256.788-4.067,2.6-3.623,11.258-4.452,15.468-7.531l13.717.092A1.823,1.823,0,0,1,756.216,1759.962Z" transform="translate(-724.407 -1758.093)" fill="#e03268"/>
            <g id="Group_1182820" data-name="Group 1182820" transform="translate(12.409 0.783)">
              <path id="Path_997123" data-name="Path 997123" d="M790.86,1766.427h0a.6.6,0,0,0,.161-.743c-.589-1.256-2.423-4.315-6.095-3.714a.5.5,0,0,0-.315.593v.009c.037.276.23.457.436.424,3.291-.527,4.851,2.169,5.328,3.221A.34.34,0,0,0,790.86,1766.427Z" transform="translate(-784.605 -1761.892)" fill="#fff"/>
            </g>
            <g id="Group_1182821" data-name="Group 1182821" transform="translate(9.361 1.937)">
              <path id="Path_997124" data-name="Path 997124" d="M776.073,1772.027h0a.6.6,0,0,0,.161-.744c-.589-1.255-2.423-4.315-6.095-3.714-.212.034-.354.309-.315.593v.01c.038.276.23.457.436.424,3.291-.527,4.851,2.169,5.328,3.222A.34.34,0,0,0,776.073,1772.027Z" transform="translate(-769.818 -1767.492)" fill="#fff"/>
            </g>
            <g id="Group_1182822" data-name="Group 1182822" transform="translate(6.526 3.016)">
              <path id="Path_997125" data-name="Path 997125" d="M762.323,1777.257h0a.6.6,0,0,0,.161-.743c-.589-1.255-2.423-4.315-6.095-3.714-.212.034-.354.309-.315.593v.01c.037.276.23.457.436.424,3.29-.527,4.851,2.169,5.327,3.221A.339.339,0,0,0,762.323,1777.257Z" transform="translate(-756.068 -1772.723)" fill="#fff"/>
            </g>
            <path id="Path_997126" data-name="Path 997126" d="M839.871,1790.86c2.254-7.363,6.247-8.152,8.432-7.967l.763,5.88c.147,1.127-.49,2.146-1.337,2.14Z" transform="translate(-816.07 -1777.763)" fill="#e87b50" opacity="0.3"/>
          </g>
          <path id="Path_997127" data-name="Path 997127" d="M920.3,1686.06l-5.01,16.3-11.535.08,2.009-11.9Z" transform="translate(-866.784 -1411.088)" fill="#ffc0bb"/>
          <path id="Path_997128" data-name="Path 997128" d="M1316.167,379.873s3.445-17.372-6.624-23.483-20.443-5.03-27.378-.917-10.649,17.74-7.17,25.332l23.231-8.175Z" transform="translate(-1160.45 -352.097)" fill="#07085b"/>
          <g id="Group_1182827" data-name="Group 1182827" transform="translate(19.135 290.121)">
            <path id="Path_997129" data-name="Path 997129" d="M818.584,1819.31l30.965.209a1.19,1.19,0,0,0,1.215-1.189l-.008-.891a1.234,1.234,0,0,0-1.236-1.2l-30.965-.209a1.19,1.19,0,0,0-1.215,1.189l.008.891A1.234,1.234,0,0,0,818.584,1819.31Z" transform="translate(-817.318 -1804.384)" fill="#3d3a55"/>
            <path id="Path_997130" data-name="Path 997130" d="M849.043,1761.42l1.188,9.142c.146,1.128-.49,2.146-1.337,2.14l-29.446-.2a2.186,2.186,0,0,1-1.935-1.356c-.42-.9-.514-2.256.788-4.067,2.6-3.622,11.258-4.452,15.468-7.531l13.716.093A1.827,1.827,0,0,1,849.043,1761.42Z" transform="translate(-817.233 -1759.551)" fill="#f9537f"/>
            <g id="Group_1182824" data-name="Group 1182824" transform="translate(12.409 0.784)">
              <path id="Path_997131" data-name="Path 997131" d="M883.687,1767.888h0a.6.6,0,0,0,.161-.743c-.589-1.256-2.423-4.315-6.094-3.713-.212.034-.354.309-.315.594v.009c.038.276.23.457.436.424,3.29-.527,4.851,2.17,5.328,3.222A.339.339,0,0,0,883.687,1767.888Z" transform="translate(-877.432 -1763.354)" fill="#fff"/>
            </g>
            <g id="Group_1182825" data-name="Group 1182825" transform="translate(9.361 1.94)">
              <path id="Path_997132" data-name="Path 997132" d="M868.9,1773.5h0a.6.6,0,0,0,.161-.743c-.589-1.255-2.423-4.315-6.095-3.714-.212.034-.354.309-.315.594v.009c.037.276.23.457.436.425,3.29-.527,4.851,2.169,5.327,3.221A.34.34,0,0,0,868.9,1773.5Z" transform="translate(-862.647 -1768.963)" fill="#fff"/>
            </g>
            <g id="Group_1182826" data-name="Group 1182826" transform="translate(6.526 3.018)">
              <path id="Path_997133" data-name="Path 997133" d="M855.149,1778.727h0a.6.6,0,0,0,.161-.743c-.589-1.255-2.423-4.315-6.095-3.714-.212.034-.354.309-.315.594v.009c.037.276.23.457.436.424,3.29-.527,4.851,2.169,5.328,3.221A.34.34,0,0,0,855.149,1778.727Z" transform="translate(-848.894 -1774.193)" fill="#fff"/>
            </g>
            <path id="Path_997134" data-name="Path 997134" d="M932.7,1792.33c2.255-7.364,6.247-8.152,8.433-7.967l.764,5.88c.146,1.128-.49,2.146-1.337,2.14Z" transform="translate(-908.896 -1779.231)" fill="#e87b50" opacity="0.3"/>
          </g>
          <path id="Path_997135" data-name="Path 997135" d="M1366.848,563.537l1.684,19.4-17.612-.818,2.03-17.179Z" transform="translate(-1221.776 -519.953)" fill="#ffc0bb"/>
          <path id="Path_997136" data-name="Path 997136" d="M1356.09,573.109l.966-8.17,13.9-1.4.583,6.718C1368.773,572.931,1363.8,575.706,1356.09,573.109Z" transform="translate(-1225.88 -519.953)" fill="#f99893"/>
          <path id="Path_997137" data-name="Path 997137" d="M1277.2,489.945c1.059,2.129.5,4.522-1.255,5.346s-4.031-.235-5.09-2.364-.5-4.522,1.255-5.346S1276.145,487.816,1277.2,489.945Z" transform="translate(-1157.794 -459.432)" fill="#f99893"/>
          <path id="Path_997138" data-name="Path 997138" d="M1291.957,425.534a17.624,17.624,0,0,1-1.607-2.9,33.124,33.124,0,0,1-2.428-8.283c-.092-.555-.218-1.1-.353-1.65a17.8,17.8,0,0,1-.313-7.042,18.62,18.62,0,0,1,15.974-15.365c11.02-1.481,20.727,6.45,21.413,16.954a4.165,4.165,0,0,1,3.638-.5c2.292.831,3.284,3.761,2.217,6.546s-3.791,4.369-6.083,3.538a3.637,3.637,0,0,1-.874-.465,17.379,17.379,0,0,1-16.483,16.77,17.188,17.188,0,0,1-11.734-3.922,8.554,8.554,0,0,1-.673-.54A15.942,15.942,0,0,1,1291.957,425.534Z" transform="translate(-1171.066 -382.277)" fill="#ffc0bb"/>
          <path id="Path_997139" data-name="Path 997139" d="M1388.133,479.517a1.643,1.643,0,1,0,1.564-1.669A1.626,1.626,0,0,0,1388.133,479.517Z" transform="translate(-1251.316 -451.925)" fill="#333"/>
          <path id="Path_997140" data-name="Path 997140" d="M1319.983,486.986a1.643,1.643,0,1,0,1.564-1.67A1.625,1.625,0,0,0,1319.983,486.986Z" transform="translate(-1197.214 -457.854)" fill="#333"/>
          <path id="Path_997141" data-name="Path 997141" d="M1378.13,461.163a17.261,17.261,0,0,1,2.4-.561,8.575,8.575,0,0,1,2.281-.049,7.907,7.907,0,0,1,2.195.566c.379.115.709.333,1.093.489.37.179.712.407,1.126.583a6.739,6.739,0,0,0-.729-1.065,5.562,5.562,0,0,0-.993-.869,5.4,5.4,0,0,0-2.546-.951,5.688,5.688,0,0,0-2.7.348A5.057,5.057,0,0,0,1378.13,461.163Z" transform="translate(-1243.377 -437.177)" fill="#07085b"/>
          <path id="Path_997142" data-name="Path 997142" d="M881.56,1553.689h193.676a1.242,1.242,0,0,0,1.242-1.242v-3.387a1.242,1.242,0,0,0-1.242-1.242H881.56a1.242,1.242,0,0,0-1.242,1.242v3.387A1.242,1.242,0,0,0,881.56,1553.689Z" transform="translate(-848.18 -1301.342)" fill="#3d3a55"/>
          <path id="Path_997143" data-name="Path 997143" d="M1309.453,467.794a5.118,5.118,0,0,0-2.391-1.078,5.689,5.689,0,0,0-2.717.167,5.32,5.32,0,0,0-2.307,1.414,5.462,5.462,0,0,0-.8,1.04,6.6,6.6,0,0,0-.5,1.182c.371-.251.661-.539.988-.784.345-.225.626-.5.974-.686a7.816,7.816,0,0,1,2.04-.969,8.532,8.532,0,0,1,2.248-.382A17.413,17.413,0,0,1,1309.453,467.794Z" transform="translate(-1181.935 -443.016)" fill="#07085b"/>
          <path id="Path_997144" data-name="Path 997144" d="M1340.442,390.489a2.905,2.905,0,0,1,1.874-.913l-.713-5.55-1.915-3.288s-7.337-8.763-7.591-8.978-5.694-2.932-6.028-3.069-7.746,1.239-7.746,1.239-13.217-2.107-10.737,4.474,12.2,9.713,12.676,9.4c-1.615-1.435-1.945-5.672-1.945-5.672C1325.384,385.018,1338.414,389.776,1340.442,390.489Z" transform="translate(-1187.129 -365.263)" fill="#07085b"/>
          <path id="Path_997145" data-name="Path 997145" d="M1350.456,485.314a19.562,19.562,0,0,0-1.26,2.347,18.309,18.309,0,0,0-.951,2.494,6.852,6.852,0,0,0-.255,1.345,2.4,2.4,0,0,0,.013.37c.007.064.026.134.04.2a.882.882,0,0,0,.1.215c.027.036.055.072.084.106l.071.06c.047.038.093.08.142.115.1.067.2.137.3.193a6.611,6.611,0,0,0,1.264.56,9.023,9.023,0,0,0,1.323.338,15.024,15.024,0,0,1-2.345-1.248c-.089-.06-.166-.129-.247-.195l-.111-.1-.054-.051a.093.093,0,0,0-.014-.028.983.983,0,0,1-.04-.5,6.984,6.984,0,0,1,.266-1.235c.234-.831.531-1.655.817-2.484S1350.186,486.159,1350.456,485.314Z" transform="translate(-1219.449 -457.854)" fill="#f99893"/>
          <path id="Path_997146" data-name="Path 997146" d="M1154.554,634.458s-13.791.582-21,9.355-27.656,94.831-27.656,94.831l22.995-2.456s29.9-40.88,29.9-41.933S1154.554,634.458,1154.554,634.458Z" transform="translate(-1027.26 -576.255)" fill="#050849"/>
          <path id="Path_997147" data-name="Path 997147" d="M1354.71,634.982s-26.4-.052-26.806-.026-2.433-.189-3.179.591-2.032,5.079,1.64,7.184-4.133,2.194,5.828,3.948,6.975,4.123,14.526,1.053,8.523-1.755,8.783-4.474S1354.71,634.982,1354.71,634.982Z" transform="translate(-1200.315 -576.643)" fill="#ffc0bb"/>
          <path id="Path_997148" data-name="Path 997148" d="M1162.9,674.181c1.531-13.81,5.236-23.073,9.39-29.279a22.463,22.463,0,0,1,13.093-9.224c.024.091,1.338,5,8.122,5.781,6.848.789,21.6-6.363,21.863-6.346h0c7.621.474,14.211,1.905,17.644,5.908,6.848,7.983,29.5,63.73,28.972,71.6s-6.585,7.874-6.585,7.874l-62.036.028V734.8l-45,3.074C1149.622,737.04,1158.566,713.306,1162.9,674.181Z" transform="translate(-1060.975 -576.774)" fill="#07085b"/>
          <g id="Group_1182828" data-name="Group 1182828" transform="translate(71.995 82.322)">
            <path id="Path_997149" data-name="Path 997149" d="M1106.131,761.127c-.4.014-16.38-9.665-16.38-9.665l-2.987.635,1.06.782-1.786-.448-2.906.448s9.607,11.329,9.768,11.652,4.359,1.936,4.682,2.1S1106.131,761.127,1106.131,761.127Z" transform="translate(-1081.181 -751.462)" fill="#daeef7"/>
            <path id="Path_997150" data-name="Path 997150" d="M1217.6,753.4l-1.453-.907-.666.453V752.1l-.908-.635-23.25,9.2s7.447,4.719,7.689,4.538,13.5-2.6,13.744-2.964S1217.6,753.4,1217.6,753.4Z" transform="translate(-1167.071 -751.462)" fill="#daeef7"/>
            <path id="Path_997151" data-name="Path 997151" d="M1123.833,755.411l-26.351,8.528-21.251-9.246a1.829,1.829,0,0,0-2.548,1.878l4.048,36.193a1.827,1.827,0,0,0,.965,1.413l20.4,10.748,18.481-6.837.476-.7,2.4-.364,7.749-2.867a1.64,1.64,0,0,0,1.065-1.678l-3.047-35.489A1.829,1.829,0,0,0,1123.833,755.411Z" transform="translate(-1073.672 -753.905)" fill="#feb546"/>
            <path id="Path_997152" data-name="Path 997152" d="M1215.534,758.422A1.829,1.829,0,0,1,1217.92,760l3.043,35.442a1.7,1.7,0,0,1-1.106,1.742l-7.7,2.85-2.4.364-.476.7-12.431,4.6c-2.859-.551-5.7-1.082-5.7-1.082l-1.971-37.667Z" transform="translate(-1165.372 -756.916)" fill="#f4a640"/>
            <path id="Path_997153" data-name="Path 997153" d="M1106.813,793.472l-16.433-7.181.526,7.461,16.105,7.462Z" transform="translate(-1086.936 -779.112)" fill="#f4a640"/>
          </g>
          <path id="Path_997154" data-name="Path 997154" d="M842.374,1118.8s-55.641-1.755-68.283,10.176-.351,100.031,1.756,108.266c0,0,7.726,7.181,16.857,4.374s5.619-42.108,5.619-42.108-1.054-37.547.351-42.81,20.719-9.123,20.719-9.123,29.85-20.7,28.094-20.7S842.374,1118.8,842.374,1118.8Z" transform="translate(-759.378 -960.687)" fill="#2b1c35"/>
          <path id="Path_997155" data-name="Path 997155" d="M971.624,1106.926s-74.484-8.841-84.668,24.846-17.91,100.358-17.91,100.358,9.833,5.965,23.178,0c0,0,18.875-71.584,25.943-78.6s53.458-2.739,53.458-2.739Z" transform="translate(-839.231 -950.5)" fill="#3a2645"/>
          <path id="Path_997156" data-name="Path 997156" d="M1271.8,828.055a44.942,44.942,0,0,1,1.142-4.754c.463-1.563.975-3.1,1.591-4.625l.069-.171.187-.009,49.7-2.488a21.979,21.979,0,0,0-1.146-4.436c-.528-1.5-1.131-2.983-1.761-4.451-1.269-2.931-2.66-5.81-4.1-8.664-2.89-5.7-5.965-11.314-9.166-16.85l.051-.03c3.24,5.515,6.354,11.106,9.286,16.792,1.46,2.846,2.873,5.719,4.165,8.649.642,1.466,1.256,2.946,1.8,4.456a21.536,21.536,0,0,1,1.213,4.669l.019.163-.168.009-49.667,2.756c-.571,1.432-1.066,2.911-1.505,4.4a44.387,44.387,0,0,0-1.126,4.693,28.858,28.858,0,0,0-.506,4.779,16.28,16.28,0,0,0,.5,4.524l14.71-.427,7.464-.209,7.468-.126,0,.072-7.461.3-7.461.318-14.922.619-.2.008-.06-.2a16.331,16.331,0,0,1-.632-4.889A29.521,29.521,0,0,1,1271.8,828.055Z" transform="translate(-1158.557 -693.048)" fill="#fff"/>
          <path id="Path_997157" data-name="Path 997157" d="M1185.739,795.81l1.905,39.688-2.908-.423-2.048-39.265A2.762,2.762,0,0,1,1185.739,795.81Z" transform="translate(-1088.222 -703.97)" fill="#ed9935"/>
          <g id="Group_1182829" data-name="Group 1182829" transform="translate(93.959 127.858)">
            <path id="Path_997158" data-name="Path 997158" d="M1181.663,973.9c3.687,1.623,11.17.445,11.17.445l5.665-1.969c.792.539,1.6,1.086,2.4,1.618-.08.259-.161.517-.238.777a44.905,44.905,0,0,0-1.142,4.754A29.4,29.4,0,0,0,1199,984.4c0,.269.01.537.017.807l-.8-.3a18.034,18.034,0,0,1-5.127-.343,83.255,83.255,0,0,1-9.032-1.509,3.049,3.049,0,0,1-2.224-2.085,2.734,2.734,0,0,1-1.057-2.879,1.406,1.406,0,0,1-.078-.189c-.53-1.656-.235-2.086.036-2.254a1.45,1.45,0,0,1-.388-.652C1179.732,972.537,1181.663,973.9,1181.663,973.9Z" transform="translate(-1180.225 -972.373)" fill="#ffc0bb"/>
            <path id="Path_997159" data-name="Path 997159" d="M1182.69,999.469a5.752,5.752,0,0,0,1.614,1.24,8.784,8.784,0,0,0,1.907.752,10.161,10.161,0,0,0,2.024.307c.34.025.682.006,1.021.01.339-.026.678-.056,1.014-.1-.678-.033-1.349-.055-2.015-.139a15.423,15.423,0,0,1-1.968-.366,12.244,12.244,0,0,1-1.881-.669A8.187,8.187,0,0,1,1182.69,999.469Z" transform="translate(-1182.182 -993.884)" fill="#f99893"/>
            <path id="Path_997160" data-name="Path 997160" d="M1187.98,1014.1a5.752,5.752,0,0,0,1.707,1.11,8.838,8.838,0,0,0,1.96.6,10.16,10.16,0,0,0,2.042.146c.341,0,.68-.048,1.018-.071.336-.052.671-.108,1-.176-.679.02-1.35.051-2.02.02a15.32,15.32,0,0,1-1.991-.21,12.124,12.124,0,0,1-1.927-.519A8.172,8.172,0,0,1,1187.98,1014.1Z" transform="translate(-1186.381 -1005.499)" fill="#f99893"/>
            <path id="Path_997161" data-name="Path 997161" d="M1182.69,988.249a5.74,5.74,0,0,0,1.614,1.24,8.8,8.8,0,0,0,1.907.752,10.2,10.2,0,0,0,2.024.307c.34.025.682.006,1.021.009.339-.026.678-.055,1.014-.1-.678-.033-1.349-.055-2.015-.139a15.38,15.38,0,0,1-1.968-.366,12.168,12.168,0,0,1-1.881-.669A8.2,8.2,0,0,1,1182.69,988.249Z" transform="translate(-1182.182 -984.976)" fill="#f99893"/>
          </g>
          <g id="Group_1183315" data-name="Group 1183315" transform="matrix(0.951, 0.309, -0.309, 0.951, 75.959, 120.388)">
            <path id="Path_997158-2" data-name="Path 997158" d="M1195.971,973.9c-3.019,1.623-9.146.445-9.146.445l-4.638-1.969c-.649.539-1.309,1.086-1.962,1.618.066.259.132.517.195.777.373,1.563.7,3.145.935,4.754a35.7,35.7,0,0,1,.424,4.875c0,.269-.008.537-.014.807l.653-.3a12.149,12.149,0,0,0,4.2-.343,56.975,56.975,0,0,0,7.4-1.509,2.811,2.811,0,0,0,1.821-2.086,3.073,3.073,0,0,0,.866-2.879,1.6,1.6,0,0,0,.064-.189c.434-1.656.192-2.086-.03-2.255a1.545,1.545,0,0,0,.317-.652C1197.553,972.537,1195.971,973.9,1195.971,973.9Z" transform="translate(-1180.225 -972.373)" fill="#ffc0bb"/>
            <path id="Path_997159-2" data-name="Path 997159" d="M1190.269,999.469a5.752,5.752,0,0,1-1.614,1.24,8.784,8.784,0,0,1-1.907.752,10.156,10.156,0,0,1-2.024.307c-.34.025-.682.006-1.021.01-.339-.026-.678-.056-1.014-.1.678-.033,1.349-.055,2.015-.139a15.423,15.423,0,0,0,1.968-.366,12.244,12.244,0,0,0,1.881-.669A8.187,8.187,0,0,0,1190.269,999.469Z" transform="translate(-1173.854 -993.884)" fill="#f99893"/>
            <path id="Path_997160-2" data-name="Path 997160" d="M1195.71,1014.1a5.751,5.751,0,0,1-1.707,1.11,8.838,8.838,0,0,1-1.96.6,10.16,10.16,0,0,1-2.042.146c-.341,0-.68-.048-1.018-.071-.336-.052-.671-.108-1-.176.679.02,1.35.051,2.02.02a15.32,15.32,0,0,0,1.991-.21,12.124,12.124,0,0,0,1.927-.519A8.169,8.169,0,0,0,1195.71,1014.1Z" transform="translate(-1180.386 -1005.499)" fill="#f99893"/>
            <path id="Path_997161-2" data-name="Path 997161" d="M1190.269,988.249a5.74,5.74,0,0,1-1.614,1.241,8.8,8.8,0,0,1-1.907.752,10.2,10.2,0,0,1-2.024.307c-.34.025-.682.006-1.021.009-.339-.026-.678-.055-1.014-.1.678-.033,1.349-.055,2.015-.139a15.38,15.38,0,0,0,1.968-.366,12.168,12.168,0,0,0,1.881-.669A8.2,8.2,0,0,0,1190.269,988.249Z" transform="translate(-1173.854 -984.976)" fill="#f99893"/>
          </g>
          <path id="Path_997162" data-name="Path 997162" d="M1357.113,541.526c-1.546.181-3.051.443-4.564.656a43.538,43.538,0,0,1-4.565.462,11.817,11.817,0,0,0,4.649.124A17.551,17.551,0,0,0,1357.113,541.526Z" transform="translate(-1219.445 -502.479)" fill="#f99893"/>
          <g id="Group_1182830" data-name="Group 1182830" transform="translate(210.642 250.079)">
            <path id="Path_997163" data-name="Path 997163" d="M1759.971,1620.364h5.623l-14.023-55.064-5.281,1.344Z" transform="translate(-1746.29 -1565.3)" fill="#3d3a55"/>
          </g>
          <g id="Group_1182833" data-name="Group 1182833" transform="translate(107.535 250.079)">
            <g id="Group_1182832" data-name="Group 1182832">
              <g id="Group_1182831" data-name="Group 1182831">
                <path id="Path_997164" data-name="Path 997164" d="M1259.771,1620.364h5.623l-14.023-55.064-5.281,1.344Z" transform="translate(-1246.09 -1565.3)" fill="#3d3a55"/>
              </g>
            </g>
          </g>
          <g id="Group_1182834" data-name="Group 1182834" transform="translate(150.207 250.079)">
            <path id="Path_997165" data-name="Path 997165" d="M1458.723,1620.364H1453.1l14.023-55.064,5.281,1.344Z" transform="translate(-1453.1 -1565.3)" fill="#3d3a55"/>
          </g>
          <path id="Path_998288" data-name="Path 998288" d="M75.763,117.292s-3.389.535-5.709,9.813,3.211,6.869,3.211,6.869L76.3,121.752Z" fill="#07085b" stroke="#fff" stroke-width="0.5"/>
        </g>
        <rect id="Rectangle_454870" data-name="Rectangle 454870" width="4.642" height="66.374" transform="translate(414.083 347.112) rotate(180)" fill="#feb546"/>
        <rect id="Rectangle_454871" data-name="Rectangle 454871" width="4.642" height="66.374" transform="translate(388.371 347.112) rotate(180)" fill="#db962c"/>
        <rect id="Rectangle_454872" data-name="Rectangle 454872" width="4.642" height="66.374" transform="translate(314.184 280.736)" fill="#feb546"/>
        <rect id="Rectangle_454873" data-name="Rectangle 454873" width="4.642" height="66.374" transform="translate(339.895 280.736)" fill="#db962c"/>
        <rect id="Rectangle_454874" data-name="Rectangle 454874" width="114.545" height="14.312" transform="translate(421.428 290.647) rotate(180)" fill="#feb546"/>
        <rect id="Rectangle_454875" data-name="Rectangle 454875" width="123.514" height="5.521" transform="translate(425.914 277.395) rotate(180)" fill="#db962c"/>
        <g id="Group_1182839" data-name="Group 1182839" transform="translate(324.388 230.7)">
          <g id="Group_1182836" data-name="Group 1182836" transform="translate(10.884)">
            <path id="Path_997166" data-name="Path 997166" d="M1839.512,1268.536h2a2.35,2.35,0,0,0-1.181-.3h-50.081c-2.62,0-4.744,1.606-4.744,3.588v2.279c0,1.981,2.124,3.588,4.744,3.588l49.521-.013Z" transform="translate(-1785.504 -1268.231)" fill="#2a2c8c"/>
            <path id="Path_997167" data-name="Path 997167" d="M1892.107,1268.269c-2.506,0-4.537,1.536-4.537,3.431v2.576c0,1.9,2.031,3.431,4.537,3.431h31.177v-.576h-.129l-7.926-.568-1.6-4.753s3.092-2.626,3.294-2.694,6.234-.273,6.234-.273h.129v-.573h-31.177Z" transform="translate(-1866.531 -1268.261)" fill="#07085b"/>
            <path id="Path_997168" data-name="Path 997168" d="M1925.137,1275.189a5.2,5.2,0,0,1,1.9-4.126h-30.415c-2.3,0-4.167,1.411-4.167,3.152v1.983c0,1.741,1.866,3.152,4.167,3.152h30.415S1925.137,1278.689,1925.137,1275.189Z" transform="translate(-1870.408 -1270.479)" fill="#daeef7"/>
            <path id="Path_997169" data-name="Path 997169" d="M1892.46,1274.211v1.983a2.434,2.434,0,0,0,.122.756c1.026-1.9,2.992-3.726,6.734-4.314,8.738-1.373,27.726-1.576,27.726-1.576h-30.415C1894.325,1271.059,1892.46,1272.471,1892.46,1274.211Z" transform="translate(-1870.413 -1270.476)" fill="#daeef7"/>
          </g>
          <g id="Group_1182837" data-name="Group 1182837" transform="translate(2.942 18.821)">
            <path id="Path_997170" data-name="Path 997170" d="M1808.1,1359.919h2.263a2.468,2.468,0,0,0-1.337-.382h-56.682c-2.966,0-5.37,2.011-5.37,4.491v2.853c0,2.48,2.4,4.491,5.37,4.491l56.048-.016Z" transform="translate(-1746.971 -1359.537)" fill="#07085b"/>
            <path id="Path_997171" data-name="Path 997171" d="M1867.624,1359.59c-2.836,0-5.135,1.923-5.135,4.3v3.224c0,2.372,2.3,4.295,5.135,4.295h35.286v-.721h-.146l-8.97-.71-1.813-5.949s3.5-3.287,3.728-3.372,7.056-.342,7.056-.342h.146v-.717h-35.286Z" transform="translate(-1838.677 -1359.579)" fill="#55769f"/>
            <path id="Path_997172" data-name="Path 997172" d="M1905.007,1368.259a6.718,6.718,0,0,1,2.149-5.165h-34.424c-2.6,0-4.717,1.766-4.717,3.945v2.482c0,2.179,2.112,3.945,4.717,3.945h34.424S1905.007,1372.637,1905.007,1368.259Z" transform="translate(-1843.065 -1362.361)" fill="#daeef7"/>
            <path id="Path_997173" data-name="Path 997173" d="M1868.02,1367.037v2.482a3.342,3.342,0,0,0,.137.946,9.791,9.791,0,0,1,7.622-5.4c9.89-1.718,31.381-1.973,31.381-1.973h-34.424C1870.133,1363.092,1868.02,1364.858,1868.02,1367.037Z" transform="translate(-1843.068 -1362.359)" fill="#daeef7"/>
          </g>
          <g id="Group_1182838" data-name="Group 1182838" transform="translate(0.802 9.43)">
            <path id="Path_997174" data-name="Path 997174" d="M1742.953,1314.283h-2.263a2.957,2.957,0,0,1,1.338-.3h56.7c2.967,0,5.372,1.6,5.372,3.564v2.264c0,1.968-2.405,3.564-5.372,3.564l-56.07-.012Z" transform="translate(-1739.845 -1313.98)" fill="#02ccc0"/>
            <path id="Path_997175" data-name="Path 997175" d="M1771.892,1314.02c2.837,0,5.137,1.526,5.137,3.408v2.558c0,1.882-2.3,3.408-5.137,3.408h-35.3v-.572h.146l8.974-.564,1.814-4.721s-3.5-2.609-3.729-2.676-7.059-.271-7.059-.271h-.146v-.569h35.3Z" transform="translate(-1736.592 -1314.012)" fill="#06bfad"/>
            <path id="Path_997176" data-name="Path 997176" d="M1739.42,1320.9a5.018,5.018,0,0,0-2.15-4.1h34.437c2.606,0,4.719,1.4,4.719,3.13v1.969c0,1.729-2.113,3.13-4.719,3.13H1737.27S1739.42,1324.373,1739.42,1320.9Z" transform="translate(-1737.13 -1316.218)" fill="#daeef7"/>
            <path id="Path_997177" data-name="Path 997177" d="M1776.422,1319.924v1.969a2.144,2.144,0,0,1-.138.751c-1.162-1.885-3.388-3.7-7.625-4.285-9.894-1.363-31.393-1.565-31.393-1.565H1771.7C1774.311,1316.8,1776.422,1318.2,1776.422,1319.924Z" transform="translate(-1737.127 -1316.214)" fill="#daeef7"/>
            <path id="Path_997178" data-name="Path 997178" d="M1977.243,1319.808v-2.264c0-1.968-2.4-3.564-5.372-3.564h5.384c2.967,0,5.372,1.6,5.372,3.564v2.264c0,1.968-2.405,3.564-5.372,3.564h-5.313C1974.876,1323.345,1977.243,1321.76,1977.243,1319.808Z" transform="translate(-1923.373 -1313.981)" fill="#55769f" opacity="0.5"/>
          </g>
          <path id="Path_997179" data-name="Path 997179" d="M1739.552,1417.406h-2.44a3.1,3.1,0,0,1,1.442-.339h61.128c3.2,0,5.791,1.783,5.791,3.982v2.529c0,2.2-2.593,3.982-5.791,3.982l-60.444-.014Z" transform="translate(-1736.203 -1386.388)" fill="#02ccc0"/>
          <path id="Path_997180" data-name="Path 997180" d="M1770.755,1417.119c3.059,0,5.538,1.7,5.538,3.808v2.858c0,2.1-2.479,3.808-5.538,3.808H1732.7v-.639h.157l9.674-.63,1.955-5.275s-3.774-2.914-4.02-2.99-7.609-.3-7.609-.3h-.157v-.636h38.054Z" transform="translate(-1732.701 -1386.429)" fill="#06b8a6"/>
          <path id="Path_997181" data-name="Path 997181" d="M1735.755,1424.8a5.641,5.641,0,0,0-2.318-4.579h37.124c2.809,0,5.087,1.566,5.087,3.5v2.2c0,1.932-2.277,3.5-5.087,3.5h-37.124S1735.755,1428.679,1735.755,1424.8Z" transform="translate(-1733.285 -1388.888)" fill="#daeef7"/>
          <path id="Path_997182" data-name="Path 997182" d="M1775.636,1423.719v2.2a2.478,2.478,0,0,1-.148.839c-1.252-2.106-3.652-4.135-8.22-4.788-10.665-1.523-33.842-1.749-33.842-1.749h37.124C1773.361,1420.221,1775.636,1421.788,1775.636,1423.719Z" transform="translate(-1733.277 -1388.892)" fill="#daeef7"/>
        </g>
      </g>
    </g>
  </g>
</svg>
