<svg xmlns="http://www.w3.org/2000/svg" width="110" height="110" viewBox="0 0 110 110">
  <g id="img18_1" transform="translate(-704.668 -6155)">
    <path id="Path_925100" data-name="Path 925100" d="M12.222,0H97.778A12.222,12.222,0,0,1,110,12.222V97.778A12.222,12.222,0,0,1,97.778,110H12.222A12.222,12.222,0,0,1,0,97.778V12.222A12.222,12.222,0,0,1,12.222,0Z" transform="translate(704.668 6155)" fill="#bcc6f5"/>
    <g id="Group_1182012" data-name="Group 1182012" transform="translate(719.52 6167.474)">
      <path id="Path_990838" data-name="Path 990838" d="M62.673,70.813a7.121,7.121,0,0,0,7.172-7.084C69.846,48.6,59.6,35.971,45.962,33c-2.538,4.4-9.791,4.4-12.328,0C19.973,35.972,9.713,48.652,9.75,63.8a7.122,7.122,0,0,0,7.172,7.011H62.674Z" transform="translate(0.35 10.85)" fill="#e6f3ff"/>
      <path id="Path_990839" data-name="Path 990839" d="M52.563,55.607,48.512,70.463,18.8,63.71l-4.051-5.4,1.35-5.4,4.051-2.7h5.4L24.2,36.7,28.255,34l10.8,17.556Z" transform="translate(2.103 11.201)" fill="#4aa5ff"/>
      <path id="Path_990840" data-name="Path 990840" d="M21.036,19.291a3.776,3.776,0,0,1,.6.06A15.186,15.186,0,0,1,36.179,8.511c20.143.8,20.137,29.574,0,30.37A15.187,15.187,0,0,1,21.327,26.854c-5.194.28-5.5-7.4-.291-7.563Z" transform="translate(2.989 2.268)" fill="#e6f3ff"/>
      <path id="Path_990841" data-name="Path 990841" d="M36.527,40.563A16.615,16.615,0,0,1,20.61,28.507c-6-.986-5.66-9.717.415-10.223C27.718,1.189,52.739,5.6,53.063,24.028A16.554,16.554,0,0,1,36.527,40.563ZM21.676,25.835A1.35,1.35,0,0,1,23,26.905c3.875,16.084,26.927,13.7,27.365-2.878C50,8.094,28.186,4.949,23.275,20.069a1.48,1.48,0,0,1-1.89.9,2.439,2.439,0,1,0,.292,4.863Z" transform="translate(2.641 1.937)" fill="#12263f"/>
      <path id="Path_990842" data-name="Path 990842" d="M20.356,20.722s-6.752-12.154,2.7-13.5,6.752,0,6.752,0S36.562.465,44.665,3.165s9.453,9.453,9.453,13.5a29.438,29.438,0,0,1-1.35,8.1s-17.556-1.35-20.257-8.1C32.511,16.67,27.109,23.422,20.356,20.722Z" transform="translate(3.249 0.171)" fill="#4aa5ff"/>
      <g id="Group_1182012-2" data-name="Group 1182012" transform="translate(8.75 2.04)">
        <path id="Path_990843" data-name="Path 990843" d="M63.024,72.514H17.273A8.464,8.464,0,0,1,8.75,64.155c0-15.5,10.492-28.976,24.947-32.125a1.356,1.356,0,0,1,1.434.607c2.061,3.559,7.974,3.554,10.035,0A1.353,1.353,0,0,1,46.6,32.03C61.055,35.18,71.547,48.658,71.547,64.079a8.479,8.479,0,0,1-8.523,8.435ZM33.41,34.872C20.633,38.093,11.451,50.228,11.451,64.079a5.773,5.773,0,0,0,5.822,5.734H63.024a5.759,5.759,0,0,0,5.822-5.663c0-13.92-9.182-26.057-21.959-29.278-3.135,4.185-10.343,4.185-13.477,0Z" transform="translate(-8.75 8.46)" fill="#12263f"/>
        <path id="Path_990844" data-name="Path 990844" d="M12.424,37.982a1.349,1.349,0,0,1-1.125-.6,9.153,9.153,0,0,1-.528-9.261c3.914-7.012,14.5-4.481,13.933,3.631-.344,3.408-4.3,6.3-7.638,5.4a4.043,4.043,0,0,1,1.055-7.962,1.351,1.351,0,0,1-.07,2.7,1.443,1.443,0,0,0-1.362,1.161c-.028,1.952,2.437,1.834,3.689.888C23.419,32,21.893,27.5,18.642,26.791c-4.976-.941-7.929,5.095-5.095,9.092a1.359,1.359,0,0,1-1.122,2.1Z" transform="translate(-8.397 5.668)" fill="#12263f"/>
        <path id="Path_990845" data-name="Path 990845" d="M51.371,31.958a6.423,6.423,0,0,1-4.4-11.268,4.045,4.045,0,0,1,5.621,5.738,1.351,1.351,0,0,1-2.084-1.72,1.445,1.445,0,0,0-.076-1.787c-1.52-1.228-2.947.788-2.972,2.358a3.775,3.775,0,0,0,.98,2.858,4.431,4.431,0,0,0,5.716.174c3.8-3.383.9-9.347-4.022-9.614a1.35,1.35,0,0,1,.2-2.693,9.153,9.153,0,0,1,7.619,5.29c2.147,4.765-1.273,10.837-6.59,10.664Z" transform="translate(3.863 2.853)" fill="#12263f"/>
        <path id="Path_990846" data-name="Path 990846" d="M59.76,66.833,21.275,59.142a6.079,6.079,0,1,1,2.119-11.969l29.633,5.853a1.351,1.351,0,0,0,.529-2.649L23.918,44.523a8.751,8.751,0,0,0-6.587,1.32c-6.455,4.173-4.385,14.54,3.185,15.9l30.612,6.047c-.057-.917,8.207-.16,8.633-.96Z" transform="translate(-7.092 12.791)" fill="#12263f"/>
        <path id="Path_990847" data-name="Path 990847" d="M37.435,52.525a4.606,4.606,0,0,1,3.808-.648A6.4,6.4,0,0,1,38.927,41.8,1.35,1.35,0,1,0,36.916,40a9.055,9.055,0,0,0,.519,12.529Z" transform="translate(0.326 11.105)" fill="#12263f"/>
        <path id="Path_990848" data-name="Path 990848" d="M23.8,62.552a1.35,1.35,0,0,1-1.327-1.109l-2.7-14.855a1.351,1.351,0,0,1,2.657-.483l2.7,14.855a1.355,1.355,0,0,1-1.33,1.592Z" transform="translate(-4.895 13.02)" fill="#12263f"/>
        <path id="Path_990849" data-name="Path 990849" d="M23.1,61.857a1.36,1.36,0,0,1-1.009-2.247l10.8-12.154a1.351,1.351,0,0,1,2.019,1.794L24.11,61.4a1.347,1.347,0,0,1-1.01.454Z" transform="translate(-4.194 13.716)" fill="#12263f"/>
        <path id="Path_990850" data-name="Path 990850" d="M33.8,64.552a1.35,1.35,0,0,1-1.327-1.109l-2.7-14.855a1.351,1.351,0,0,1,2.657-.483l2.7,14.855a1.355,1.355,0,0,1-1.33,1.592Z" transform="translate(-1.39 13.721)" fill="#12263f"/>
        <path id="Path_990851" data-name="Path 990851" d="M33.1,63.857a1.36,1.36,0,0,1-1.009-2.247l10.8-12.154a1.351,1.351,0,0,1,2.019,1.794L34.11,63.4a1.347,1.347,0,0,1-1.01.454Z" transform="translate(-0.689 14.417)" fill="#12263f"/>
        <path id="Path_990852" data-name="Path 990852" d="M37.258,54.608a1.351,1.351,0,0,1-1.137-.62L23.967,35.082a1.351,1.351,0,0,1,2.272-1.461L38.393,52.527a1.36,1.36,0,0,1-1.135,2.081Z" transform="translate(-3.496 8.81)" fill="#12263f"/>
        <path id="Path_990853" data-name="Path 990853" d="M24.8,51.2a1.35,1.35,0,0,1-1.323-1.085l-2.7-13.5a1.35,1.35,0,0,1,2.648-.53l2.7,13.5A1.354,1.354,0,0,1,24.8,51.2Z" transform="translate(-4.545 9.515)" fill="#12263f"/>
        <path id="Path_990854" data-name="Path 990854" d="M45.661,22.118a20.238,20.238,0,0,1-14.807-6.646A12.057,12.057,0,0,1,20.277,20.23a1.351,1.351,0,0,1,.273-2.688,9.18,9.18,0,0,0,8.936-4.993,1.359,1.359,0,0,1,2.31-.2c4.063,5.61,11.869,8.378,18.157,6.44a1.347,1.347,0,0,1,1.688.893c.648,2.439-4.434,2.305-5.98,2.44Z" transform="translate(-5.136 1.379)" fill="#12263f"/>
        <path id="Path_990855" data-name="Path 990855" d="M52.731,27.334a1.358,1.358,0,0,1-1.118-2.1A13.27,13.27,0,0,0,43.054,4.89a15.105,15.105,0,0,0-12.538,3.9,1.352,1.352,0,0,1-1.838-.04c-3.918-3.2-8.818,1.016-8.633,5.788A14.109,14.109,0,0,0,22.2,21.58a1.351,1.351,0,0,1-2.341,1.348,16.747,16.747,0,0,1-2.511-8.4C17.179,7.93,23.759,2.541,29.584,6.049c8.508-7.074,21.47-4.54,25.738,5.65a16.046,16.046,0,0,1-1.469,15.038,1.347,1.347,0,0,1-1.121.6Z" transform="translate(-5.74 -2.04)" fill="#12263f"/>
      </g>
    </g>
  </g>
</svg>
