<svg xmlns="http://www.w3.org/2000/svg" width="110" height="110" viewBox="0 0 110 110">
  <g id="img12_1" transform="translate(-704.668 -6155)">
    <path id="Path_925100" data-name="Path 925100" d="M12.222,0H97.778A12.222,12.222,0,0,1,110,12.222V97.778A12.222,12.222,0,0,1,97.778,110H12.222A12.222,12.222,0,0,1,0,97.778V12.222A12.222,12.222,0,0,1,12.222,0Z" transform="translate(704.668 6155)" fill="#a8b8ff"/>
    <g id="Group_1182504" data-name="Group 1182504" transform="translate(717.379 6146.051)">
      <g id="Group_1182502" data-name="Group 1182502" transform="translate(9.244 27.635)">
        <path id="Path_992024" data-name="Path 992024" d="M269.293,129.166v13.218h13.218v-9.913h6.609v-3.3a13.257,13.257,0,0,0-13.2-13.218H256.1A13.257,13.257,0,0,1,269.293,129.166Z" transform="translate(-223.03 -102.765)" fill="#dc72a9" fill-rule="evenodd"/>
        <path id="Path_992025" data-name="Path 992025" d="M75.775,129.167a13.257,13.257,0,0,1,13.2-13.218H69.166a13.257,13.257,0,0,0-13.218,13.218v3.3h6.609v9.913H75.775Z" transform="translate(-55.948 -102.766)" fill="#dc72a9" fill-rule="evenodd"/>
        <path id="Path_992026" data-name="Path 992026" d="M222.557,275.947h-6.609v10.74a3.3,3.3,0,1,0,6.609,0Z" transform="translate(-189.512 -236.328)" fill="#ff9171" fill-rule="evenodd"/>
        <path id="Path_992027" data-name="Path 992027" d="M102.577,49.343a6.609,6.609,0,0,0,6.588-6.609c-.348-8.767-12.871-8.764-13.218,0a6.609,6.609,0,0,0,6.588,6.609h.041Z" transform="translate(-89.339 -36.16)" fill="#ffdcd5" fill-rule="evenodd"/>
        <path id="Path_992028" data-name="Path 992028" d="M222.577,49.343a6.609,6.609,0,0,0,6.588-6.609c-.348-8.767-12.871-8.764-13.218,0a6.609,6.609,0,0,0,6.588,6.609h.041Z" transform="translate(-189.512 -36.16)" fill="#ffdcd5" fill-rule="evenodd"/>
        <path id="Path_992029" data-name="Path 992029" d="M342.577,49.343a6.609,6.609,0,0,0,6.589-6.609c-.348-8.767-12.871-8.764-13.218,0a6.609,6.609,0,0,0,6.588,6.609h.041Z" transform="translate(-289.685 -36.16)" fill="#ffdcd5" fill-rule="evenodd"/>
        <path id="Path_992030" data-name="Path 992030" d="M202.412,129.166a13.257,13.257,0,0,0-13.2-13.218h-.041a13.257,13.257,0,0,0-13.2,13.218v3.3h6.609v9.913H195.8V132.47h6.609Z" transform="translate(-156.144 -102.765)" fill="#a0e5a5" fill-rule="evenodd"/>
        <g id="Group_1182501" data-name="Group 1182501" transform="translate(0 29.706)">
          <path id="Path_992031" data-name="Path 992031" d="M182.585,225.862v-9.913h-6.609v13.218a3.3,3.3,0,0,0,6.609,0Z" transform="translate(-156.144 -215.949)" fill="#ffdcd5" fill-rule="evenodd"/>
          <path id="Path_992032" data-name="Path 992032" d="M295.976,215.949v13.218a3.3,3.3,0,1,0,6.609,0V215.949Z" transform="translate(-256.317 -215.949)" fill="#ffdcd5" fill-rule="evenodd"/>
          <path id="Path_992033" data-name="Path 992033" d="M62.557,225.862v-9.913H55.948v13.218a3.3,3.3,0,0,0,6.609,0Z" transform="translate(-55.948 -215.949)" fill="#ffdcd5" fill-rule="evenodd"/>
          <path id="Path_992034" data-name="Path 992034" d="M422.557,225.862v-9.913h-6.609v13.218a3.3,3.3,0,1,0,6.609,0Z" transform="translate(-356.467 -215.949)" fill="#ffdcd5" fill-rule="evenodd"/>
        </g>
        <path id="Path_992035" data-name="Path 992035" d="M142.557,275.947h-6.609v24.784h6.609V275.947Z" transform="translate(-122.73 -236.328)" fill="#8aa8bd" fill-rule="evenodd"/>
        <path id="Path_992036" data-name="Path 992036" d="M102.557,300.731V275.947H95.948v24.784Z" transform="translate(-89.339 -236.328)" fill="#8aa8bd" fill-rule="evenodd"/>
        <path id="Path_992037" data-name="Path 992037" d="M102.557,425.948H95.948V430.9a3.3,3.3,0,1,0,6.609,0Z" transform="translate(-89.339 -361.545)" fill="#fff" fill-rule="evenodd"/>
        <path id="Path_992038" data-name="Path 992038" d="M135.948,425.948V430.9a3.3,3.3,0,1,0,6.609,0v-4.957Z" transform="translate(-122.73 -361.545)" fill="#fff" fill-rule="evenodd"/>
        <path id="Path_992039" data-name="Path 992039" d="M382.557,275.947h-6.609v24.784h6.609V275.947Z" transform="translate(-323.076 -236.328)" fill="#8aa8bd" fill-rule="evenodd"/>
        <path id="Path_992040" data-name="Path 992040" d="M342.557,300.731V275.947h-6.609v24.784Z" transform="translate(-289.685 -236.328)" fill="#8aa8bd" fill-rule="evenodd"/>
        <path id="Path_992041" data-name="Path 992041" d="M342.557,425.948h-6.609V430.9a3.3,3.3,0,1,0,6.609,0Z" transform="translate(-289.685 -361.545)" fill="#fff" fill-rule="evenodd"/>
        <path id="Path_992042" data-name="Path 992042" d="M375.948,425.948V430.9a3.3,3.3,0,1,0,6.609,0v-4.957Z" transform="translate(-323.076 -361.545)" fill="#fff" fill-rule="evenodd"/>
        <path id="Path_992043" data-name="Path 992043" d="M262.557,275.947h-6.609v24.784h6.609V275.947Z" transform="translate(-222.903 -236.328)" fill="#ff9171" fill-rule="evenodd"/>
        <path id="Path_992044" data-name="Path 992044" d="M255.948,425.948V430.9a3.3,3.3,0,1,0,6.609,0v-4.957Z" transform="translate(-222.903 -361.545)" fill="#fff" fill-rule="evenodd"/>
      </g>
      <g id="Group_1182503" data-name="Group 1182503" transform="translate(0 25.947)">
        <path id="Path_992045" data-name="Path 992045" d="M129.3,312.6a1.652,1.652,0,1,0-1.652,1.653A1.652,1.652,0,0,0,129.3,312.6Z" transform="translate(-105.182 -263.857)"/>
        <path id="Path_992046" data-name="Path 992046" d="M82.934,98.646H70.094a4.933,4.933,0,0,0,.283-1.652V75.231a4.983,4.983,0,0,0,6.609-4.674V54.035a14.894,14.894,0,0,0-9.257-13.77,8.259,8.259,0,1,0-12.218-1.1H48.894a8.259,8.259,0,1,0-13.21,0H29.067a8.259,8.259,0,1,0-12.218,1.1,14.894,14.894,0,0,0-9.258,13.77V70.558A4.983,4.983,0,0,0,14.2,75.231V96.994a4.933,4.933,0,0,0,.283,1.652H1.643a1.652,1.652,0,0,0,0,3.3H82.934A1.652,1.652,0,0,0,82.934,98.646Zm-58.82-1.652v-3.3h3.3v3.3A1.652,1.652,0,0,1,24.114,96.994ZM22.462,80.471a1.652,1.652,0,0,0-1.652,1.652v8.261h-3.3V68.905h9.913V90.385h-3.3V82.123A1.652,1.652,0,0,0,22.462,80.471Zm19.827-38A11.579,11.579,0,0,1,53.854,54.036v1.652H48.9a1.652,1.652,0,0,0-1.652,1.652V65.6H37.332V57.34a1.652,1.652,0,0,0-1.652-1.652H30.723V54.036A11.579,11.579,0,0,1,42.289,42.47ZM67.072,90.385h-3.3V68.905h3.3Zm-6.609,0h-3.3V68.905h3.3ZM30.723,58.992h3.3V70.558a1.652,1.652,0,0,1-3.3,0Zm6.609,9.913h3.3v9.088a1.652,1.652,0,0,1-3.3,0Zm6.609,0h3.3V90.385h-3.3Zm9.913,1.652a1.652,1.652,0,0,1-3.3,0V58.992h3.3ZM30.723,96.994V75.231a4.993,4.993,0,0,0,3.3,0v2.762a4.983,4.983,0,0,0,6.609,4.674V96.994a4.933,4.933,0,0,0,.283,1.652H30.44a4.931,4.931,0,0,0,.283-1.652Zm13.218,0v-3.3h3.3v3.3A1.652,1.652,0,0,1,43.941,96.994Zm6.609,0V75.231a4.993,4.993,0,0,0,3.3,0V96.994a4.933,4.933,0,0,0,.283,1.652H50.267a4.933,4.933,0,0,0,.283-1.652Zm6.609,0v-3.3h3.3v3.3A1.652,1.652,0,0,1,57.159,96.994Zm6.609,0v-3.3h3.3v3.3A1.652,1.652,0,0,1,63.768,96.994Zm9.913-26.436a1.652,1.652,0,0,1-3.3,0V58.992h3.3Zm0-16.522v1.652H68.725a1.652,1.652,0,0,0-1.652,1.652V65.6H57.159V54.035A14.849,14.849,0,0,0,51.625,42.47h10.49A11.579,11.579,0,0,1,73.681,54.035ZM62.116,29.252a4.957,4.957,0,1,1-4.957,4.957A4.962,4.962,0,0,1,62.116,29.252ZM37.332,34.209a4.957,4.957,0,1,1,4.957,4.957A4.962,4.962,0,0,1,37.332,34.209Zm-19.827,0a4.957,4.957,0,1,1,4.957,4.957A4.962,4.962,0,0,1,17.505,34.209Zm4.957,8.261h10.49a14.849,14.849,0,0,0-5.534,11.566V65.6H17.505V57.34a1.652,1.652,0,0,0-1.652-1.652H10.9V54.036A11.579,11.579,0,0,1,22.462,42.47ZM12.548,72.21A1.654,1.654,0,0,1,10.9,70.558V58.992h3.3V70.558A1.654,1.654,0,0,1,12.548,72.21Zm4.957,24.784v-3.3h3.3v3.3A1.652,1.652,0,0,1,17.505,96.994Z" transform="translate(0 -25.947)"/>
      </g>
    </g>
  </g>
</svg>
