<svg xmlns="http://www.w3.org/2000/svg" width="100" height="100" viewBox="0 0 100 100">
  <g id="img27" transform="translate(-315.711 -8156)">
    <rect id="Rectangle_454449" data-name="Rectangle 454449" width="100" height="100" rx="10" transform="translate(315.711 8156)" fill="#a8b8ff"/>
    <g id="Group_1182546" data-name="Group 1182546" transform="translate(335.066 8175.355)">
      <path id="XMLID_2125_" d="M64.107,68.895H14.788A4.788,4.788,0,0,1,10,64.107V14.788A4.788,4.788,0,0,1,14.788,10H64.107a4.788,4.788,0,0,1,4.788,4.788V64.107A4.788,4.788,0,0,1,64.107,68.895Z" transform="translate(-8.803 -8.803)" fill="#dff6fc"/>
      <path id="XMLID_1493_" d="M105.25,174a17.238,17.238,0,1,0,17.238,17.238Z" transform="translate(-77.477 -153.171)" fill="#91def5"/>
      <circle id="XMLID_2254_" cx="4.942" cy="4.942" r="4.942" transform="translate(27.619 5.985)" fill="#ffd4be"/>
      <path id="XMLID_1492_" d="M146.673,222.1a11.5,11.5,0,1,0,12.148,13Z" transform="translate(-119.644 -195.513)" fill="#dff6fc"/>
      <path id="XMLID_2124_" d="M254.854,166.468l-4.521-15.011a5.078,5.078,0,0,0-4.862-3.613h-3.883v-4.8h6.882a2.394,2.394,0,0,0,0-4.788h-6.882V137.1a4.788,4.788,0,0,0-9.576,0v12.34a5.137,5.137,0,0,0,5.137,5.137h7.191l5.177,13.7a2.82,2.82,0,0,0,5.338-1.81Z" transform="translate(-204.239 -116.473)" fill="#ffcb7c"/>
      <path id="XMLID_27_" d="M55.3,0H5.985A5.992,5.992,0,0,0,0,5.985V55.3a5.992,5.992,0,0,0,5.985,5.985H55.3A5.992,5.992,0,0,0,61.289,55.3V5.985A5.992,5.992,0,0,0,55.3,0Zm3.591,55.3A3.6,3.6,0,0,1,55.3,58.895H5.985A3.6,3.6,0,0,1,2.394,55.3V5.985A3.6,3.6,0,0,1,5.985,2.394H55.3a3.6,3.6,0,0,1,3.591,3.591Z"/>
      <path id="XMLID_1463_" d="M115.914,69.85a6.237,6.237,0,0,0-6.008-4.465H107.22v-2.4H112.9a3.591,3.591,0,1,0,0-7.182H107.22a5.978,5.978,0,0,0-2.354-4.716,6.139,6.139,0,1,0-7.263,0,5.99,5.99,0,0,0-2.276,3.793A18.448,18.448,0,0,0,78.921,79.009a1.2,1.2,0,0,0,2.276-.744A16.054,16.054,0,0,1,95.249,57.282v3.352a12.7,12.7,0,1,0,13.469,15.921l1.734,4.588a1.2,1.2,0,0,0-.118.166,16.1,16.1,0,0,1-13.888,8.009,15.92,15.92,0,0,1-9.415-3.052A1.2,1.2,0,1,0,85.625,88.2a18.447,18.447,0,0,0,20.164.97,18.54,18.54,0,0,0,5.713-5.256l1.331,3.522a4.037,4.037,0,0,0,3.758,2.6,4.017,4.017,0,0,0,3.846-5.175ZM97.49,46.139a3.745,3.745,0,1,1,4.117,3.727c-.123-.008-.247-.013-.372-.013s-.249.005-.372.013A3.75,3.75,0,0,1,97.49,46.139ZM96.447,83.585a10.307,10.307,0,0,1-1.2-20.544v5.137a6.341,6.341,0,0,0,6.334,6.334h5.105a1.185,1.185,0,0,0-.025.132A10.329,10.329,0,0,1,96.447,83.585Zm21.445,3.4a1.608,1.608,0,0,1-1.3.655,1.631,1.631,0,0,1-1.518-1.049l-5.177-13.7a1.2,1.2,0,0,0-1.12-.774h-7.191a3.944,3.944,0,0,1-3.94-3.94V55.838a3.6,3.6,0,0,1,3.22-3.572c.123.007.246.012.371.012s.248,0,.371-.012a3.6,3.6,0,0,1,3.22,3.572V57a1.2,1.2,0,0,0,1.2,1.2H112.9a1.2,1.2,0,1,1,0,2.394h-6.882a1.2,1.2,0,0,0-1.2,1.2v4.8a1.2,1.2,0,0,0,1.2,1.2h3.883a3.858,3.858,0,0,1,3.716,2.762l4.521,15.011a1.609,1.609,0,0,1-.251,1.436Z" transform="translate(-68.674 -35.212)"/>
      <path id="XMLID_1477_" d="M106.837,392.81a1.2,1.2,0,1,0,.846.351A1.209,1.209,0,0,0,106.837,392.81Z" transform="translate(-92.994 -345.789)"/>
    </g>
  </g>
</svg>
