<svg xmlns="http://www.w3.org/2000/svg" width="190" height="189" viewBox="0 0 190 189">
  <g id="img2" transform="translate(-179.571 -536)">
    <rect id="Rectangle_454198" data-name="Rectangle 454198" width="190" height="189" rx="10" transform="translate(179.571 536)" fill="#a8b8ff"/>
    <circle id="Ellipse_13568" data-name="Ellipse 13568" cx="55" cy="55" r="55" transform="translate(219.571 576)" fill="#e5eaff"/>
    <g id="Group_1181740" data-name="Group 1181740" transform="translate(241.57 587.322)">
      <g id="Group_1181745" data-name="Group 1181745" transform="translate(31.761 12.647)">
        <g id="Group_1181740-2" data-name="Group 1181740" transform="translate(0 0)">
          <path id="Path_989661" data-name="Path 989661" d="M261.992,19.178a17.28,17.28,0,0,0-16.139,11.1,10.969,10.969,0,0,1,5.053,9.241V49.7a17.274,17.274,0,1,0,11.086-30.522Z" transform="translate(-245.853 -19.178)" fill="#fe646f"/>
          <path id="Path_989662" data-name="Path 989662" d="M348.113,19.178a17.353,17.353,0,0,0-3.363.328,17.266,17.266,0,0,1,9.929,5.913,12.835,12.835,0,0,1,0,22.066A17.266,17.266,0,0,1,344.75,53.4a17.275,17.275,0,1,0,3.363-34.221Z" transform="translate(-331.974 -19.178)" fill="#fd4755"/>
          <path id="Path_989663" data-name="Path 989663" d="M285.849,53.482a12.864,12.864,0,0,0-12.6,10.352,10.926,10.926,0,0,1,1.514,5.562V72.8a12.841,12.841,0,1,0,11.085-19.32Z" transform="translate(-269.71 -49.05)" fill="#dff6fd"/>
          <path id="Path_989664" data-name="Path 989664" d="M352.77,53.482a12.846,12.846,0,0,0-2.672.28,12.849,12.849,0,0,1,6.945,4.061,7.394,7.394,0,0,1,3.221,8.261c0,.08.005.16.005.24A12.864,12.864,0,0,1,350.1,78.887a12.843,12.843,0,1,0,2.672-25.405Z" transform="translate(-336.631 -49.05)" fill="#c8effe"/>
        </g>
        <g id="Group_1181744" data-name="Group 1181744" transform="translate(11.475 7.65)">
          <g id="Group_1181741" data-name="Group 1181741">
            <path id="Path_989665" data-name="Path 989665" d="M347.1,85.548a7.4,7.4,0,0,0-11.081-6.165,2.686,2.686,0,0,0-1.342,2.327v12.6a3.4,3.4,0,0,0,3.37,3.409h.03c2.778,0,4.293-1.813,4.293-4.591v0a.653.653,0,0,1,.387-.595A7.4,7.4,0,0,0,347.1,85.548Z" transform="translate(-334.681 -78.398)" fill="#ffcebf"/>
          </g>
          <g id="Group_1181742" data-name="Group 1181742" transform="translate(1.756 0)">
            <path id="Path_989666" data-name="Path 989666" d="M358.939,85.548a7.4,7.4,0,0,0-9.248-6.914,7.4,7.4,0,0,1,1.2,13.9.653.653,0,0,0-.387.595v0a4.268,4.268,0,0,1-2.232,4.169,3.352,3.352,0,0,0,1.615.422h.03c2.778,0,4.293-1.813,4.293-4.591v0a.653.653,0,0,1,.387-.595A7.4,7.4,0,0,0,358.939,85.548Z" transform="translate(-348.271 -78.398)" fill="#ffb09e"/>
          </g>
          <g id="Group_1181743" data-name="Group 1181743" transform="translate(4.971 7.101)">
            <path id="Path_989667" data-name="Path 989667" d="M377.655,133.753a3.017,3.017,0,0,0-3.677,4.7,3.586,3.586,0,0,1,1.066-.739A4.436,4.436,0,0,0,377.655,133.753Z" transform="translate(-373.162 -133.368)" fill="#f89580"/>
          </g>
        </g>
      </g>
      <g id="Group_1181757" data-name="Group 1181757" transform="translate(3.618 22.012)">
        <g id="Group_1181746" data-name="Group 1181746" transform="translate(0 32.338)">
          <path id="Path_989668" data-name="Path 989668" d="M63.735,344.9,56.974,342H51.989l0,.126a3.745,3.745,0,0,1-7.488,0l0-.126h-5l-6.789,2.9A7.751,7.751,0,0,0,28,352.027v7.519a1.938,1.938,0,0,0,1.938,1.938H66.5a1.938,1.938,0,0,0,1.938-1.938v-7.525A7.751,7.751,0,0,0,63.735,344.9Z" transform="translate(-28 -342)" fill="#ffe177"/>
        </g>
        <g id="Group_1181748" data-name="Group 1181748" transform="translate(23.44 32.338)">
          <g id="Group_1181747" data-name="Group 1181747">
            <path id="Path_989669" data-name="Path 989669" d="M221.744,344.9l-6.761-2.9H210l0,.126a3.7,3.7,0,0,1-.546,1.848l8.42,3.635a7.751,7.751,0,0,1,4.7,7.125v6.75h1.938a1.938,1.938,0,0,0,1.938-1.938v-7.525A7.751,7.751,0,0,0,221.744,344.9Z" transform="translate(-209.449 -342)" fill="#ffd15b"/>
          </g>
        </g>
        <path id="Path_989670" data-name="Path 989670" d="M99.346,91.674H95.4a10.981,10.981,0,0,0-10.981,10.981v17.611a3.875,3.875,0,0,0,3.876,3.875H93.5c0-.03,0-.061,0-.091v-3.438a9.223,9.223,0,0,0,7.751,0v3.438c0,.031,0,.061,0,.091h5.205a3.875,3.875,0,0,0,3.876-3.875V102.655A10.981,10.981,0,0,0,99.346,91.674Z" transform="translate(-77.131 -91.674)" fill="#685e68"/>
        <g id="Group_1181749" data-name="Group 1181749" transform="translate(19.667)">
          <path id="Path_989671" data-name="Path 989671" d="M187.574,101.506a3.23,3.23,0,0,1,2.626,3.172v2h1.346a4.319,4.319,0,0,1,2.224.613v-4.64a10.981,10.981,0,0,0-10.981-10.981h-2.548A11.506,11.506,0,0,1,187.574,101.506Z" transform="translate(-180.241 -91.674)" fill="#554e56"/>
          <path id="Path_989672" data-name="Path 989672" d="M229.833,270.924h-1.891a9.388,9.388,0,0,1-2.046,3.319v2.165a4.052,4.052,0,0,1-1.688,3.293h3.974a3.875,3.875,0,0,0,3.875-3.875v-5.515A4.32,4.32,0,0,1,229.833,270.924Z" transform="translate(-218.528 -247.234)" fill="#554e56"/>
        </g>
        <g id="Group_1181750" data-name="Group 1181750" transform="translate(16.367 28.937)">
          <path id="Path_989673" data-name="Path 989673" d="M158.57,316.53a9.2,9.2,0,0,1-3.876-.854v3.438a3.876,3.876,0,0,0,7.751,0v-3.438A9.2,9.2,0,0,1,158.57,316.53Z" transform="translate(-154.694 -315.676)" fill="#ffb09e"/>
        </g>
        <g id="Group_1181751" data-name="Group 1181751" transform="translate(18.26 28.937)">
          <path id="Path_989674" data-name="Path 989674" d="M171.33,316.529l-.09,0v2.587a3.873,3.873,0,0,1-1.893,3.33,3.875,3.875,0,0,0,5.858-3.33v-3.438A9.2,9.2,0,0,1,171.33,316.529Z" transform="translate(-169.347 -315.675)" fill="#f89580"/>
        </g>
        <g id="Group_1181754" data-name="Group 1181754" transform="translate(5.171 15.008)">
          <g id="Group_1181752" data-name="Group 1181752">
            <path id="Path_989675" data-name="Path 989675" d="M73.848,213.379V208.9a3.085,3.085,0,0,1,.184-1.053h-1.66a4.341,4.341,0,1,0,0,8.682H74.4a9.21,9.21,0,0,1-.554-3.153Z" transform="translate(-68.032 -207.851)" fill="#ffb09e"/>
          </g>
          <g id="Group_1181753" data-name="Group 1181753" transform="translate(23.771)">
            <path id="Path_989676" data-name="Path 989676" d="M254.074,207.851H252.6v5.528a9.21,9.21,0,0,1-.554,3.154h2.029a4.341,4.341,0,1,0,0-8.682Z" transform="translate(-252.045 -207.851)" fill="#f89580"/>
          </g>
        </g>
        <g id="Group_1181755" data-name="Group 1181755" transform="translate(10.858 9.775)">
          <path id="Path_989677" data-name="Path 989677" d="M122.862,168.649a2.86,2.86,0,0,1-2.634,1.747h-4.943a3.23,3.23,0,0,0-3.23,3.23V178.1a9.384,9.384,0,1,0,18.767,0v-7.532a3.23,3.23,0,0,0-3.23-3.23h-2.755a2.145,2.145,0,0,0-1.976,1.31Z" transform="translate(-112.055 -167.339)" fill="#ffcebf"/>
        </g>
        <g id="Group_1181756" data-name="Group 1181756" transform="translate(18.236 9.775)">
          <path id="Path_989678" data-name="Path 989678" d="M177.325,167.339H174.57a2.14,2.14,0,0,0-.561.076,3.23,3.23,0,0,1,2.534,3.153V178.1a9.386,9.386,0,0,1-7.378,9.167,9.383,9.383,0,0,0,11.39-9.167v-7.532A3.229,3.229,0,0,0,177.325,167.339Z" transform="translate(-169.165 -167.339)" fill="#ffb09e"/>
        </g>
      </g>
      <g id="Group_1181758" data-name="Group 1181758" transform="translate(0 11.678)">
        <path id="Path_989679" data-name="Path 989679" d="M65.75,11.678a18.128,18.128,0,0,0-10.463,3.3A.969.969,0,0,0,56.4,16.562a16.307,16.307,0,1,1,.765,27.22,5.274,5.274,0,0,0,.585-2.421c0-.069,0-.137-.006-.2a13.8,13.8,0,1,0-4.982-15.926A12.05,12.05,0,0,0,50.8,23.4a16.273,16.273,0,0,1,2.449-3.95.969.969,0,0,0-1.485-1.245,18.188,18.188,0,0,0-2.62,4.16,11.876,11.876,0,0,0-5.463-1.324H39.738A11.963,11.963,0,0,0,27.788,32.993v4.129a5.3,5.3,0,0,0,0,8.479v5a4.843,4.843,0,0,0,2.115,4L25.8,56.358a8.709,8.709,0,0,0-5.3,8.019V71.9A2.91,2.91,0,0,0,23.407,74.8H46.143a.969.969,0,0,0,0-1.938H23.407a.97.97,0,0,1-.969-.969V64.377a6.773,6.773,0,0,1,4.119-6.237l6.3-2.692h4.124a4.843,4.843,0,0,0,9.452,0h4.108l6.277,2.689a6.774,6.774,0,0,1,4.112,6.234V71.9a.97.97,0,0,1-.969.969h-9.3a.969.969,0,1,0,0,1.938h9.3A2.91,2.91,0,0,0,62.872,71.9V64.371a8.71,8.71,0,0,0-5.287-8.015L53.51,54.61A4.843,4.843,0,0,0,55.634,50.6v-5c.117-.088.228-.182.337-.28a18.243,18.243,0,1,0,9.78-33.643Zm0,6.369A11.867,11.867,0,0,1,74.8,37.6l-3.41-3.41a8.366,8.366,0,0,0-9.445-13.748,3.663,3.663,0,0,0-1.769,2.533l-2.1-2.1A11.859,11.859,0,0,1,65.75,18.047ZM65.1,30.637a3.967,3.967,0,0,0,.552,1.814,4.585,4.585,0,0,0-.675,1.53.969.969,0,0,0-1.9.281V35.3a1.83,1.83,0,0,0,1.626,1.83,1.926,1.926,0,0,0,.238.015,1.8,1.8,0,0,0,1.757-1.37,3.046,3.046,0,0,0,.093-.748,2.642,2.642,0,0,1,.8-1.9l.723.723a1.624,1.624,0,0,0-.5,1.176c0,1.353-.432,3.622-3.324,3.622h-.024a2.436,2.436,0,0,1-2.407-2.44V27.6ZM63.9,26.7a.962.962,0,0,0,1.118-.956V24.4a3.471,3.471,0,0,1,1.1-.179h.069a3.5,3.5,0,0,1,3.16,2.214c-.09-.006-.18-.01-.271-.01a3.988,3.988,0,0,0-3.452,2Zm3.983,3.983L67.1,29.9a2.041,2.041,0,0,1,2.414-1.482A3.469,3.469,0,0,1,67.88,30.681Zm3.643-3.1a5.454,5.454,0,0,0-5.3-5.293,5.393,5.393,0,0,0-1.865.292,1.908,1.908,0,0,0-1.281,1.808v1.353a.96.96,0,0,0,.013.149l-1.034-1.034V23.61a1.722,1.722,0,0,1,.857-1.488,6.406,6.406,0,0,1,3.207-.855c.107,0,.215,0,.323.008A6.429,6.429,0,0,1,70.01,32.811l-.731-.731A5.405,5.405,0,0,0,71.523,27.581ZM56.7,22.243l3.416,3.416V36.214a4.378,4.378,0,0,0,4.333,4.378h.036c3.163,0,5.158-2.024,5.257-5.307l3.685,3.685a11.857,11.857,0,0,1-17.8-2.843V32.993a11.875,11.875,0,0,0-1.459-5.717A11.81,11.81,0,0,1,56.7,22.243ZM27.609,41.361a3.376,3.376,0,0,1,3.372-3.372h.379c0,.028,0,.056,0,.084v4.476a10.346,10.346,0,0,0,.234,2.185h-.611a3.376,3.376,0,0,1-3.372-3.372ZM36.867,53.51H32.633A2.91,2.91,0,0,1,29.726,50.6V46.52a5.3,5.3,0,0,0,1.255.151h1.236a10.417,10.417,0,0,0,4.65,5.023Zm7.751.877a2.907,2.907,0,0,1-5.813,0v-1.9a10.308,10.308,0,0,0,5.813,0Zm-2.907-3.424A8.424,8.424,0,0,1,33.3,42.549V38.073a2.254,2.254,0,0,1,2.165-2.258.969.969,0,1,0-.08-1.936,4.185,4.185,0,0,0-3.506,2.173h-.893a5.305,5.305,0,0,0-1.255.151v-3.21A10.023,10.023,0,0,1,39.738,22.981h3.947A10.023,10.023,0,0,1,53.7,32.993V36.2a5.3,5.3,0,0,0-1.255-.151h-.377V35.016a4.2,4.2,0,0,0-4.2-4.2H45.111a3.108,3.108,0,0,0-2.868,1.9A1.888,1.888,0,0,1,40.5,33.875h-.558a.969.969,0,1,0,0,1.938H40.5a3.822,3.822,0,0,0,3.527-2.338,1.174,1.174,0,0,1,1.083-.718h2.755a2.263,2.263,0,0,1,2.261,2.261v7.532A8.424,8.424,0,0,1,41.711,50.963ZM53.7,50.6a2.91,2.91,0,0,1-2.907,2.907H46.555V51.694a10.416,10.416,0,0,0,4.65-5.023h1.236A5.3,5.3,0,0,0,53.7,46.52Zm-1.255-5.871H51.83a10.346,10.346,0,0,0,.234-2.185v-4.56h.377a3.372,3.372,0,1,1,0,6.744Z" transform="translate(-17.852 -11.678)"/>
        <path id="Path_989680" data-name="Path 989680" d="M145.826,211.215v-1.732a.969.969,0,1,0-1.938,0v1.732a.969.969,0,0,0,1.938,0Z" transform="translate(-125.3 -183.086)"/>
        <path id="Path_989681" data-name="Path 989681" d="M211.469,208.514a.969.969,0,0,0-.969.969v1.732a.969.969,0,0,0,1.938,0v-1.732A.969.969,0,0,0,211.469,208.514Z" transform="translate(-183.307 -183.086)"/>
        <path id="Path_989682" data-name="Path 989682" d="M166.445,228.177a.969.969,0,1,0,1.417-1.322l-1.184-1.269L167.9,224.1a.969.969,0,0,0-1.5-1.232l-1.545,1.876a1.366,1.366,0,0,0,.056,1.8Z" transform="translate(-143.294 -195.278)"/>
        <path id="Path_989683" data-name="Path 989683" d="M159.031,272.369a3.58,3.58,0,0,1-5.057,0,.969.969,0,0,0-1.37,1.37,5.52,5.52,0,0,0,7.8,0,.969.969,0,1,0-1.37-1.37Z" transform="translate(-132.643 -238.445)"/>
        <path id="Path_989684" data-name="Path 989684" d="M3.9,207.049a.969.969,0,0,0,0-1.37,6.721,6.721,0,0,1,0-9.494.969.969,0,0,0-1.37-1.37,8.661,8.661,0,0,0,0,12.234.969.969,0,0,0,1.37,0Z" transform="translate(0 -170.91)"/>
        <path id="Path_989685" data-name="Path 989685" d="M27.762,222.7a.969.969,0,0,0,1.37-1.37,2.861,2.861,0,0,1,0-4.041.969.969,0,0,0-1.37-1.37A4.8,4.8,0,0,0,27.762,222.7Z" transform="translate(-22.954 -189.287)"/>
      </g>
    </g>
    <circle id="Ellipse_13569" data-name="Ellipse 13569" cx="74.5" cy="74.5" r="74.5" transform="translate(200.571 556)" fill="none" stroke="#e5eaff" stroke-width="2"/>
    <circle id="Ellipse_13570" data-name="Ellipse 13570" cx="6" cy="6" r="6" transform="translate(225.571 564)" fill="#2142dc"/>
  </g>
</svg>
