<svg xmlns="http://www.w3.org/2000/svg" width="85" height="85" viewBox="0 0 85 85">
  <g id="img22" transform="translate(-494.711 -4482)">
    <rect id="Rectangle_454644" data-name="Rectangle 454644" width="85" height="85" transform="translate(494.711 4482)" fill="#a8b8ff"/>
    <rect id="Rectangle_454645" data-name="Rectangle 454645" width="65" height="65" transform="translate(504.711 4492)" fill="#e5eaff"/>
    <g id="Group_1182009" data-name="Group 1182009" transform="translate(512.706 4534.543)">
      <path id="Path_990830" data-name="Path 990830" d="M94.061,95.4C82.084,98.463,69.009,89.324,58.523,94V70.122c10.454-4.658,23.483,4.412,35.43,1.435a3.092,3.092,0,0,1,3.86,2.986V90.552A5,5,0,0,1,94.061,95.4Z" transform="translate(-53.315 -93.749)" fill="#eeecff"/>
      <path id="Path_990831" data-name="Path 990831" d="M133.254,82.566V74.549a3.092,3.092,0,0,0-3.86-2.986c-10.653,2.655-22.166-4.269-31.947-2.5a7.982,7.982,0,0,0,5.7,7.55A13.046,13.046,0,0,0,98.58,92.772c6.8-.776,14.366,2.21,21.864,3.059a12.991,12.991,0,0,0,3.073-9.113A13.03,13.03,0,0,0,133.254,82.566Z" transform="translate(-88.756 -93.754)" fill="#d3d3ff"/>
      <path id="Path_990832" data-name="Path 990832" d="M10.965,90.277H9.381A1.881,1.881,0,0,1,7.5,88.4V52.932a2.673,2.673,0,0,1,5.346,0V88.4A1.881,1.881,0,0,1,10.965,90.277Z" transform="translate(-6.833 -76.89)" fill="#5972a4"/>
      <path id="Path_990833" data-name="Path 990833" d="M10.965,305.515a1.881,1.881,0,0,0,1.881-1.881v-9.383c-2.317-1.278-4.582-4.7-5.346-7.728v17.111a1.881,1.881,0,0,0,1.881,1.881h1.585Z" transform="translate(-6.833 -292.128)" fill="#3b5a9a"/>
      <ellipse id="Ellipse_13581" data-name="Ellipse 13581" cx="9.94" cy="9.94" rx="9.94" ry="9.94" transform="translate(20.897 -20.087) rotate(-45)" fill="#5972a4"/>
      <ellipse id="Ellipse_13582" data-name="Ellipse 13582" cx="9.94" cy="9.94" rx="9.94" ry="9.94" transform="translate(7.665 -6.349) rotate(-45)" fill="#ff6e80"/>
      <g id="Group_1182007" data-name="Group 1182007" transform="translate(30.917 -26.465)">
        <path id="Path_990834" data-name="Path 990834" d="M347.4,56.6a4.471,4.471,0,0,1,8.941,0c0,3.944-2.582,3.546-2.582,5.637a3.18,3.18,0,0,1-6.359,0V56.6Z" transform="translate(-347.403 -52.131)" fill="#fdd1a3"/>
      </g>
      <g id="Group_1182008" data-name="Group 1182008" transform="translate(16.202 -5.909)">
        <path id="Path_990835" data-name="Path 990835" d="M187.568,284.717a2.754,2.754,0,1,1-5.507,0c0-1.521,1.233-1.6,2.754-1.6S187.568,283.2,187.568,284.717Z" transform="translate(-182.061 -283.113)" fill="#5972a4"/>
        <path id="Path_990836" data-name="Path 990836" d="M249.452,284.717a2.754,2.754,0,1,1-5.507,0c0-1.521,1.233-1.6,2.754-1.6S249.452,283.2,249.452,284.717Z" transform="translate(-238.438 -283.113)" fill="#5972a4"/>
      </g>
      <circle id="Ellipse_13583" data-name="Ellipse 13583" cx="4.854" cy="4.854" r="4.854" transform="matrix(0.225, -0.975, 0.975, 0.225, 10.845, -21.143)" fill="#79ca5c"/>
      <path id="Path_990837" data-name="Path 990837" d="M43.2,8.5a.667.667,0,1,0-1.037.841A9.273,9.273,0,0,1,34.957,24.45a9.162,9.162,0,0,1-4.127-.969,10.686,10.686,0,0,0-4.015-3.867A9.274,9.274,0,0,1,39.98,7.382.667.667,0,0,0,40.7,6.261a10.61,10.61,0,0,0-15.737,5.35c-.943-.2-1.623-.354-2.813-.61A5.521,5.521,0,0,0,11.2,9.637a17.708,17.708,0,0,0-4.643.782A3.34,3.34,0,0,0,0,11.309V42.773a.667.667,0,1,0,1.335,0V11.309a2.006,2.006,0,1,1,4.011,0V46.773a1.215,1.215,0,0,1-1.213,1.213H2.548a1.215,1.215,0,0,1-1.213-1.213v-.866a.667.667,0,0,0-1.335,0v.866a2.551,2.551,0,0,0,2.548,2.548H4.133a2.551,2.551,0,0,0,2.548-2.548V35.656a17.538,17.538,0,0,1,6.246-.817A10.594,10.594,0,0,0,28.008,37.46c4.341.8,8.661,1.192,12.9.108a5.664,5.664,0,0,0,4.255-5.5V18.063A10.617,10.617,0,0,0,43.2,8.5ZM16.657,6.3a4.186,4.186,0,1,1-4.186,4.186A4.191,4.191,0,0,1,16.657,6.3ZM6.681,34.255V11.783a16.154,16.154,0,0,1,4.478-.809A5.52,5.52,0,0,0,21.871,12.3c1.074.231,1.8.391,2.727.592a10.613,10.613,0,0,0,.4,5.933A10.606,10.606,0,0,0,12.155,33.491a18.555,18.555,0,0,0-5.474.763Zm15.044,3.937A9.273,9.273,0,1,1,31,28.919,9.283,9.283,0,0,1,21.725,38.192Zm22.106-6.121a4.33,4.33,0,0,1-3.25,4.2,27.339,27.339,0,0,1-11.278.058,10.6,10.6,0,0,0,2.382-11.066,10.6,10.6,0,0,0,12.146-4.284V32.071ZM27.087,29.209V25.926a2.3,2.3,0,0,0-.677-1.634.667.667,0,0,0-.944.944.97.97,0,0,1,.286.691v2.825a9.917,9.917,0,0,0-1.289-.06,4.382,4.382,0,0,0-2.754.618,4.382,4.382,0,0,0-2.753-.618,9.916,9.916,0,0,0-1.289.06V25.926a.97.97,0,0,1,.286-.691.667.667,0,0,0-.944-.944,2.3,2.3,0,0,0-.677,1.634v3.283a1.975,1.975,0,0,0-.8,1.753,3.419,3.419,0,0,0,6.175,2.026,3.419,3.419,0,0,0,6.175-2.026,1.976,1.976,0,0,0-.8-1.753Zm-8.131,3.839a2.089,2.089,0,0,1-2.086-2.086c0-.679.18-.936,2.086-.936s2.086.257,2.086.936A2.088,2.088,0,0,1,18.956,33.048Zm5.507,0a2.089,2.089,0,0,1-2.086-2.086c0-.679.18-.936,2.086-.936s2.086.257,2.086.936A2.088,2.088,0,0,1,24.463,33.048ZM35.387,8.135a5.144,5.144,0,0,0-5.138,5.138V18.91a3.847,3.847,0,0,0,7.694,0c0-.571.254-.839.783-1.346a5.142,5.142,0,0,0,1.8-4.291,5.144,5.144,0,0,0-5.138-5.138ZM37.8,16.6a3,3,0,0,0-1.194,2.31,2.512,2.512,0,0,1-5.025,0V13.273a3.8,3.8,0,0,1,7.606,0A3.852,3.852,0,0,1,37.8,16.6Zm-1.478-5.306c-1.684-.258-3.074.714-3.074,3.269v2.668a.667.667,0,1,0,1.335,0V15.6a1.208,1.208,0,0,1,.956-.074.668.668,0,0,0,.4-1.274,2.628,2.628,0,0,0-1.341-.069,2,2,0,0,1,.509-1.374,1.206,1.206,0,0,1,1.014-.2.667.667,0,1,0,.2-1.32Z" transform="translate(0 -35.267)"/>
    </g>
  </g>
</svg>
