<svg xmlns="http://www.w3.org/2000/svg" width="129" height="128" viewBox="0 0 129 128">
  <g id="img30" transform="translate(-179.726 -536.252)">
    <rect id="Rectangle_454198" data-name="Rectangle 454198" width="129" height="128" rx="10" transform="translate(179.726 536.252)" fill="#a8b8ff"/>
    <circle id="Ellipse_13568" data-name="Ellipse 13568" cx="37.5" cy="37.5" r="37.5" transform="translate(206.726 563.252)" fill="#e5eaff"/>
    <circle id="Ellipse_13569" data-name="Ellipse 13569" cx="51" cy="51" r="51" transform="translate(193.726 549.252)" fill="none" stroke="#e5eaff" stroke-width="1"/>
    <circle id="Ellipse_13570" data-name="Ellipse 13570" cx="4" cy="4" r="4" transform="translate(210.726 555.252)" fill="#2142dc"/>
    <g id="Group_1182113" data-name="Group 1182113" transform="translate(210.759 567.288)">
      <g id="Group_1182110" data-name="Group 1182110" transform="translate(0.981 0.979)">
        <g id="Group_1182099" data-name="Group 1182099" transform="translate(0 5.623)">
          <g id="Group_1182098" data-name="Group 1182098">
            <g id="Group_1182093" data-name="Group 1182093">
              <g id="Group_1182092" data-name="Group 1182092">
                <g id="Group_1182090" data-name="Group 1182090">
                  <path id="Path_990920" data-name="Path 990920" d="M24.1,87.063a3.261,3.261,0,0,0,1.31-4.421l-2.768-5.1A25.571,25.571,0,0,0,25.923,70.7a29.369,29.369,0,0,0,.977-4.858,5.116,5.116,0,0,0-1.466-4.212L14.312,50.512,7.5,57.324,20.525,68.587l-3.033,9.095,5.188,8.979a1.061,1.061,0,0,0,1.425.4Z" transform="translate(-7.5 -50.512)" fill="#a34f41"/>
                  <path id="Path_990921" data-name="Path 990921" d="M71.013,236.735l-.86,2.9,2.768,5.1a3.261,3.261,0,0,1-1.31,4.421,1.061,1.061,0,0,1-1.425-.4L65,239.778l1.485-5.01Z" transform="translate(-57.482 -210.681)" fill="#a34f41"/>
                  <path id="Path_990922" data-name="Path 990922" d="M52.549,176.827l-4.7-1.393-4.413,14.889,5.188,8.979a1.061,1.061,0,0,0,1.425.4,3.261,3.261,0,0,0,1.31-4.421l-2.768-5.1Z" transform="translate(-38.738 -159.104)" fill="#a34f41"/>
                </g>
                <g id="Group_1182091" data-name="Group 1182091" transform="translate(7.383 12.93)">
                  <path id="Path_990923" data-name="Path 990923" d="M68.4,167.174l-4.191-6.716-.224-4.941a3.764,3.764,0,0,1,.952-2.677l2.171-2.432,1.127-.612a3.066,3.066,0,0,1,4.157,1.232c.926,1.786-.177,6.163-2.192,7.4-.192.118-.794.431-.794.431l2.056,3.789a3.65,3.65,0,0,1-1.467,4.949A1.2,1.2,0,0,1,68.4,167.174Z" transform="translate(-63.98 -149.425)" fill="#ba5d4f"/>
                </g>
              </g>
            </g>
            <g id="Group_1182097" data-name="Group 1182097" transform="translate(45.775 13.236)">
              <g id="Group_1182096" data-name="Group 1182096">
                <g id="Group_1182094" data-name="Group 1182094">
                  <path id="Path_990924" data-name="Path 990924" d="M360.494,182.87a3.26,3.26,0,0,0-1.31,4.421l2.768,5.1a25.57,25.57,0,0,0-3.276,6.837,29.369,29.369,0,0,0-.977,4.858,5.116,5.116,0,0,0,1.466,4.212l10.882,10.882,6.812-6.812-12.785-11.023,3.033-9.095-5.188-8.979A1.061,1.061,0,0,0,360.494,182.87Z" transform="translate(-357.664 -178.692)" fill="#6c3328"/>
                  <path id="Path_990925" data-name="Path 990925" d="M387.509,180.553l.86-2.9-2.768-5.1a3.261,3.261,0,0,1,1.31-4.421,1.061,1.061,0,0,1,1.425.4l5.188,8.979-1.485,5.01Z" transform="translate(-381.605 -165.878)" fill="#6c3328"/>
                  <path id="Path_990926" data-name="Path 990926" d="M400.687,174.769l4.7,1.393,4.413-14.889-5.188-8.979a1.061,1.061,0,0,0-1.425-.4,3.261,3.261,0,0,0-1.31,4.421l2.768,5.1Z" transform="translate(-395.063 -151.763)" fill="#6c3328"/>
                </g>
                <g id="Group_1182095" data-name="Group 1182095" transform="translate(3.31 9.483)">
                  <path id="Path_990927" data-name="Path 990927" d="M387.3,224.872l4.191,6.716.224,4.941a3.764,3.764,0,0,1-.952,2.677l-2.171,2.432-1.127.612a3.066,3.066,0,0,1-4.157-1.232c-.926-1.786.177-6.163,2.192-7.4.192-.118.793-.431.793-.431l-2.056-3.789a3.65,3.65,0,0,1,1.467-4.949A1.2,1.2,0,0,1,387.3,224.872Z" transform="translate(-382.981 -224.305)" fill="#873f30"/>
                </g>
              </g>
            </g>
          </g>
        </g>
        <g id="Group_1182109" data-name="Group 1182109" transform="translate(5.623)">
          <g id="Group_1182108" data-name="Group 1182108">
            <g id="Group_1182103" data-name="Group 1182103" transform="translate(0 45.535)">
              <g id="Group_1182102" data-name="Group 1182102" transform="translate(0 0)">
                <g id="Group_1182100" data-name="Group 1182100">
                  <path id="Path_990928" data-name="Path 990928" d="M87.063,358.658a3.261,3.261,0,0,0-4.421-1.31l-5.1,2.768a25.572,25.572,0,0,0-6.837-3.276,29.37,29.37,0,0,0-4.858-.977,5.116,5.116,0,0,0-4.212,1.466L50.512,368.451l6.812,6.812,11.263-13.025,9.095,3.033,8.979-5.188a1.061,1.061,0,0,0,.4-1.425Z" transform="translate(-50.512 -355.828)" fill="#ffcec0"/>
                  <path id="Path_990929" data-name="Path 990929" d="M236.735,385.673l2.9.86,5.1-2.768a3.261,3.261,0,0,1,4.421,1.31,1.061,1.061,0,0,1-.4,1.425l-8.979,5.188-5.01-1.485Z" transform="translate(-210.681 -379.769)" fill="#ffcec0"/>
                  <path id="Path_990930" data-name="Path 990930" d="M176.827,398.851l-1.393,4.7,14.889,4.413,8.979-5.188a1.061,1.061,0,0,0,.4-1.425,3.261,3.261,0,0,0-4.421-1.31l-5.1,2.768Z" transform="translate(-159.104 -393.227)" fill="#ffcec0"/>
                </g>
                <g id="Group_1182101" data-name="Group 1182101" transform="translate(12.93 3.31)">
                  <path id="Path_990931" data-name="Path 990931" d="M167.174,385.469l-6.716,4.191-4.941.224a3.764,3.764,0,0,1-2.677-.952l-2.432-2.171-.612-1.127a3.066,3.066,0,0,1,1.232-4.157c1.786-.926,6.163.177,7.4,2.192.118.192.431.793.431.793l3.789-2.056a3.65,3.65,0,0,1,4.949,1.467A1.2,1.2,0,0,1,167.174,385.469Z" transform="translate(-149.425 -381.145)" fill="#ffdfd0"/>
                </g>
              </g>
            </g>
            <g id="Group_1182107" data-name="Group 1182107" transform="translate(13.236)">
              <g id="Group_1182106" data-name="Group 1182106">
                <g id="Group_1182104" data-name="Group 1182104">
                  <path id="Path_990932" data-name="Path 990932" d="M182.871,23.865a3.261,3.261,0,0,0,4.421,1.31l5.1-2.768a25.572,25.572,0,0,0,6.837,3.276,29.369,29.369,0,0,0,4.858.977,5.116,5.116,0,0,0,4.212-1.466l10.882-10.882L212.369,7.5,201.346,20.285l-9.095-3.033-8.979,5.188A1.061,1.061,0,0,0,182.871,23.865Z" transform="translate(-178.693 -7.5)" fill="#f9a08f"/>
                  <path id="Path_990933" data-name="Path 990933" d="M180.553,69.177l-2.9-.86-5.1,2.768a3.261,3.261,0,0,1-4.421-1.31,1.061,1.061,0,0,1,.4-1.425l8.979-5.188,5.01,1.485Z" transform="translate(-165.878 -55.886)" fill="#f9a08f"/>
                  <path id="Path_990934" data-name="Path 990934" d="M174.769,50.712l1.393-4.7L161.273,41.6l-8.979,5.188a1.061,1.061,0,0,0-.4,1.425,3.261,3.261,0,0,0,4.421,1.31l5.1-2.768Z" transform="translate(-151.763 -37.141)" fill="#f9a08f"/>
                </g>
                <g id="Group_1182105" data-name="Group 1182105" transform="translate(9.483 7.143)">
                  <path id="Path_990935" data-name="Path 990935" d="M224.872,66.562l6.716-4.191,4.941-.224a3.764,3.764,0,0,1,2.677.952l2.432,2.171.612,1.127a3.066,3.066,0,0,1-1.232,4.157c-1.786.926-6.163-.177-7.4-2.192-.118-.192-.431-.793-.431-.793L229.4,69.625a3.65,3.65,0,0,1-4.949-1.467A1.2,1.2,0,0,1,224.872,66.562Z" transform="translate(-224.305 -62.144)" fill="#fdb0a0"/>
                </g>
              </g>
            </g>
          </g>
        </g>
      </g>
      <g id="Group_1182112" data-name="Group 1182112" transform="translate(0.001 -0.002)">
        <path id="Path_990936" data-name="Path 990936" d="M202.119,212.189a5.425,5.425,0,0,0-7.673-7.672,5.425,5.425,0,0,0-7.673,7.672l6.936,6.937a1.041,1.041,0,0,0,1.472,0Z" transform="translate(-160.981 -176.404)" fill="#fc78a8"/>
        <path id="Path_990937" data-name="Path 990937" d="M249.379,212.205l-6.937,6.937a1.041,1.041,0,0,1-1.472,0l-1.414-1.414,6.769-6.77c2.114-2.119,2.674-4.99.557-7.107a5.431,5.431,0,0,0-1.187-.9,5.425,5.425,0,0,1,3.684,9.254Z" transform="translate(-208.24 -176.42)" fill="#fc5a95"/>
        <g id="Group_1182111" data-name="Group 1182111">
          <path id="Path_990938" data-name="Path 990938" d="M11.78,85.7a2.048,2.048,0,0,0,.979-.251,4.217,4.217,0,0,0,1.791-1.878l.054,0a2.044,2.044,0,0,0,.974-.247,4.215,4.215,0,0,0,1.693-1.689,2.037,2.037,0,0,0,.783-.238,4.241,4.241,0,0,0,1.7-5.751l-2.485-4.579a26.706,26.706,0,0,0,3.072-6.612,30.036,30.036,0,0,0,1.011-5.022,6.063,6.063,0,0,0-1.747-5.02L8.486,43.3A.98.98,0,1,0,7.1,44.685L18.222,55.807a4.112,4.112,0,0,1,1.186,3.4,28.065,28.065,0,0,1-.943,4.693,24.146,24.146,0,0,1-2.172,5.006l-1.175-2.166c1.864-1.16,2.92-4.141,2.968-6.366a.98.98,0,0,0-.959-1H17.1a.98.98,0,0,0-.98.959c-.041,1.919-.982,4.094-2.054,4.75-.112.069-.5.274-.734.4a.98.98,0,0,0-.409,1.337l2.056,3.789a2.673,2.673,0,0,1-1.073,3.619.224.224,0,0,1-.3-.078l-4.055-6.5L9.347,62.97a2.768,2.768,0,0,1,.7-1.98l2.057-2.3L13.8,57.77a.98.98,0,1,0-.935-1.723l-1.839,1a.982.982,0,0,0-.264.209l-.358.4L1.622,50.062A.98.98,0,1,0,.34,51.545L9.1,59.117l-.507.568a4.719,4.719,0,0,0-1.2,3.374L7.5,65.613c-.007.02-1.094,3.681-1.094,3.681a.98.98,0,1,0,1.88.557l.106-.358,2.08,3.333-.583,1.966a.98.98,0,0,0,.078.746l2.768,5.1a2.28,2.28,0,0,1-.916,3.092.081.081,0,0,1-.108-.03L6.739,75.085l.237-.8a.98.98,0,1,0-1.88-.557l-.357,1.205a.981.981,0,0,0,.091.769l5.188,8.979A2.029,2.029,0,0,0,11.78,85.7Zm6.437-7.38a2.271,2.271,0,0,1-.446.825,4.217,4.217,0,0,0-.489-1.569l-1.334-2.459a4.611,4.611,0,0,0,.744-1.007l1.343,2.474A2.266,2.266,0,0,1,18.217,78.325Zm-6.041-2.837a2.18,2.18,0,0,0,2.107.677l1.276,2.352a2.282,2.282,0,0,1-.6,2.878,4.215,4.215,0,0,0-.5-1.691Z" transform="translate(-0.001 -37.388)"/>
          <path id="Path_990939" data-name="Path 990939" d="M364.049,164.3l2.767-9.289a.981.981,0,0,0-.091-.769l-5.188-8.979a2.031,2.031,0,0,0-2.741-.773A4.209,4.209,0,0,0,357,146.366a2.035,2.035,0,0,0-1.025.245,4.216,4.216,0,0,0-1.694,1.69,2.038,2.038,0,0,0-.782.237,4.241,4.241,0,0,0-1.7,5.751l2.485,4.579a26.592,26.592,0,0,0-3.072,6.612A30.029,30.029,0,0,0,350.2,170.5a6.062,6.062,0,0,0,1.747,5.02L362.829,186.4a.98.98,0,1,0,1.387-1.386l-10.882-10.882a4.112,4.112,0,0,1-1.186-3.405,28.07,28.07,0,0,1,.943-4.693,24.361,24.361,0,0,1,2.173-5l1.174,2.164c-1.864,1.16-2.92,4.141-2.968,6.366a.98.98,0,1,0,1.96.042c.041-1.919.982-4.094,2.054-4.75.112-.069.5-.274.734-.4a.98.98,0,0,0,.409-1.337l-2.057-3.789a2.673,2.673,0,0,1,1.073-3.619.224.224,0,0,1,.3.078l4.055,6.5.212,4.684a2.769,2.769,0,0,1-.7,1.979l-2.057,2.3-1.688.916a.98.98,0,1,0,.935,1.723l1.838-1a.986.986,0,0,0,.264-.209l.364-.407,8.535,7.359a.981.981,0,0,0,1.281-1.485l-8.509-7.337.5-.562a4.718,4.718,0,0,0,1.2-3.374Zm-10.711-12.681a2.272,2.272,0,0,1,.446-.825,4.218,4.218,0,0,0,.489,1.569l1.334,2.459a4.61,4.61,0,0,0-.744,1.007l-1.343-2.474A2.265,2.265,0,0,1,353.338,151.618Zm3.935,2.161L356,151.426a2.282,2.282,0,0,1,.594-2.877,4.227,4.227,0,0,0,.5,1.689l2.29,4.22A2.19,2.19,0,0,0,357.273,153.778Zm3.806,3.338.583-1.966a.98.98,0,0,0-.078-.746l-2.768-5.1a2.28,2.28,0,0,1,.916-3.092.081.081,0,0,1,.108.03l4.977,8.614-1.657,5.593Z" transform="translate(-304.383 -125.382)"/>
          <path id="Path_990940" data-name="Path 990940" d="M65.68,362.237l9.254,2.743a.981.981,0,0,0,.769-.091l8.979-5.188a2.03,2.03,0,0,0,.773-2.741,4.217,4.217,0,0,0-1.878-1.791,2.029,2.029,0,0,0-.245-1.028,4.215,4.215,0,0,0-1.689-1.693,2.033,2.033,0,0,0-.238-.782,4.241,4.241,0,0,0-5.751-1.7l-4.579,2.485a27.023,27.023,0,0,0-6.612-3.072,30.049,30.049,0,0,0-5.022-1.011,6.063,6.063,0,0,0-5.02,1.747L43.3,361.232a.98.98,0,0,0,1.387,1.387L55.809,351.5a4.112,4.112,0,0,1,3.4-1.186,28.093,28.093,0,0,1,4.693.943,24.342,24.342,0,0,1,5,2.173L66.748,354.6c-1.16-1.864-4.141-2.92-6.366-2.968H60.36a.98.98,0,0,0-.021,1.961c1.919.041,4.094.982,4.751,2.054.069.112.274.5.4.734a.981.981,0,0,0,1.337.409l3.789-2.056a2.669,2.669,0,0,1,3.619,1.073.224.224,0,0,1-.078.3l-6.5,4.055-4.684.212a2.768,2.768,0,0,1-1.979-.7l-2.3-2.057-.916-1.688a.98.98,0,0,0-1.723.935l1,1.839a.982.982,0,0,0,.209.264l.4.358L50.064,368.1a.98.98,0,1,0,1.483,1.283l7.572-8.756.568.507a4.715,4.715,0,0,0,3.155,1.205q.109,0,.219,0Zm10.485-6.8,2.352-1.277a2.282,2.282,0,0,1,2.878.6,4.217,4.217,0,0,0-1.691.5l-4.219,2.29A2.19,2.19,0,0,0,76.166,355.437Zm.425-3.752a2.277,2.277,0,0,1,2.56.264,4.216,4.216,0,0,0-1.569.489l-2.457,1.334a4.573,4.573,0,0,0-1.005-.745ZM83.7,358l-8.614,4.977L69.5,361.323l3.333-2.08,1.966.583a.981.981,0,0,0,.746-.078l5.1-2.768a2.283,2.283,0,0,1,3.092.916.08.08,0,0,1-.03.108Z" transform="translate(-37.39 -302.786)"/>
          <path id="Path_990941" data-name="Path 990941" d="M323.154,64.465c-.808-.095-1.615-.222-2.4-.379a.98.98,0,1,0-.384,1.923c.834.167,1.694.3,2.554.4a6.168,6.168,0,0,0,.719.042,6.06,6.06,0,0,0,4.3-1.789l10.882-10.882A.98.98,0,0,0,337.44,52.4L326.558,63.279A4.111,4.111,0,0,1,323.154,64.465Z" transform="translate(-277.806 -45.297)"/>
          <path id="Path_990942" data-name="Path 990942" d="M146.368,14.308a2.039,2.039,0,0,0,.242,1.027,4.213,4.213,0,0,0,1.689,1.692,2.031,2.031,0,0,0,.238.784,4.213,4.213,0,0,0,2.522,2.043,4.215,4.215,0,0,0,3.228-.339l4.579-2.485a27.7,27.7,0,0,0,4.473,2.32.98.98,0,0,0,.737-1.817,25.738,25.738,0,0,1-3.046-1.483l2.165-1.175c1.16,1.864,4.141,2.92,6.366,2.968h.022a.98.98,0,0,0,.021-1.961c-1.919-.041-4.094-.982-4.751-2.054-.069-.112-.274-.5-.4-.734a.981.981,0,0,0-1.337-.409l-3.789,2.056a2.669,2.669,0,0,1-3.619-1.073.224.224,0,0,1,.078-.3l6.5-4.055,4.684-.212a2.771,2.771,0,0,1,1.979.7l2.3,2.057.916,1.688a.98.98,0,0,0,1.723-.935l-1-1.839a.982.982,0,0,0-.209-.264l-.407-.363,7.359-8.535a.98.98,0,1,0-1.485-1.28l-7.337,8.509-.562-.5a4.72,4.72,0,0,0-3.374-1.2l-2.544.115L155.009,4.5a.981.981,0,0,0-.769.091l-8.979,5.188a2.03,2.03,0,0,0-.773,2.741,4.216,4.216,0,0,0,1.88,1.792Zm7.41-.268-2.352,1.277a2.282,2.282,0,0,1-2.879-.6,4.215,4.215,0,0,0,1.691-.5l4.219-2.29a2.19,2.19,0,0,0-.68,2.109Zm-.425,3.752a2.277,2.277,0,0,1-2.561-.265,4.216,4.216,0,0,0,1.569-.488l2.457-1.334a4.574,4.574,0,0,0,1.005.745Zm-7.111-6.319L154.856,6.5l5.592,1.658-3.333,2.08-1.966-.583a.98.98,0,0,0-.746.078L149.3,12.5a2.28,2.28,0,0,1-3.092-.916.08.08,0,0,1,.03-.108Z" transform="translate(-125.382 0.002)"/>
          <path id="Path_990943" data-name="Path 990943" d="M187.946,211.938a.061.061,0,0,1-.086,0l-3.847-3.848a.98.98,0,0,0-1.387,1.386l3.848,3.848a2.024,2.024,0,0,0,2.859,0l6.937-6.937a6.406,6.406,0,0,0-8.367-9.658,6.406,6.406,0,0,0-8.576,9.437.98.98,0,0,0,1.452-1.318,4.445,4.445,0,0,1,6.432-6.131.98.98,0,0,0,1.385,0A4.445,4.445,0,0,1,194.883,205Z" transform="translate(-154.438 -169.91)"/>
        </g>
      </g>
    </g>
  </g>
</svg>
