<svg xmlns="http://www.w3.org/2000/svg" width="271" height="215" viewBox="0 0 271 215">
  <g id="img32" transform="translate(-1019.711 -10157)">
    <rect id="Rectangle_454451" data-name="Rectangle 454451" width="271" height="215" rx="10" transform="translate(1019.711 10157)" fill="#a8b8ff"/>
    <g id="OBJECTS" transform="translate(972.678 10136.484)">
      <g id="Group_1182558" data-name="Group 1182558" transform="translate(58.998 44.856)">
        <g id="Group_1182555" data-name="Group 1182555" transform="translate(0 8.97)">
          <path id="Path_996338" data-name="Path 996338" d="M67.8,319.093c-9.891-24.109-17.657-71.4,20.749-89.868,35.538-17.087,66.516,25.413,104.059,17.538s60.983-39.211,90.663-15.772,11.811,88.1,11.811,88.1H67.8Z" transform="translate(-59.722 -161.936)" fill="#a1afe2"/>
          <path id="Path_996339" data-name="Path 996339" d="M295.394,124.09c18.025,31.436,78.352,10.51,89.49-11.6s-4.168-44.251-40.852-44.7S284.347,104.825,295.394,124.09Z" transform="translate(-201.5 -67.785)" fill="#a1afe2"/>
        </g>
        <g id="Group_1182556" data-name="Group 1182556" transform="translate(25.955 10.47)">
          <path id="Path_996340" data-name="Path 996340" d="M127.14,89.233h39.072a1.071,1.071,0,0,0,1.066-1.147c-.11-1.667-.852-4.555-4.677-4.5,0,0,1.908-11.913-6.005-11.962s-6.782,9.824-6.782,9.824-.934-9.306-9.05-7.894-6.625,10.307-6.625,10.307-2.713-1.355-4.506.172a3.838,3.838,0,0,0-1.148,2.92,3.664,3.664,0,0,0-1.849.274A1.068,1.068,0,0,0,127.14,89.233Z" transform="translate(-126.064 -71.619)" fill="#fff"/>
          <path id="Path_996341" data-name="Path 996341" d="M497.963,162.379h40.923a2.166,2.166,0,0,0,1.868-3.254c-1.511-2.645-4.8-5.775-11.783-4.7,0,0-2.263-12.8-11.074-10.448s-5.314,12.829-5.314,12.829-2.545-3.036-4.748-1.846a3.187,3.187,0,0,0-1.667,3.456s-4.108-1.809-4.287,1.654a8.751,8.751,0,0,0-4.386-.07A1.232,1.232,0,0,0,497.963,162.379Z" transform="translate(-351.714 -115.496)" fill="#fff"/>
          <path id="Path_996342" data-name="Path 996342" d="M345.18,209.185c-1-1.248-2.948-2.582-6.308-1.165,0,0-5.42-11.171-14.41-5.288,0,0,1.057-11.832-7.205-10.246s-4.165,13.881-4.165,13.881-3.09-.757-3.289,1.992a3.817,3.817,0,0,0-3.582.673,2.211,2.211,0,0,0-.407.472.8.8,0,0,0,.666,1.226h37.968A.946.946,0,0,0,345.18,209.185Z" transform="translate(-235.415 -145.111)" fill="#fff"/>
        </g>
        <g id="Group_1182557" data-name="Group 1182557" transform="translate(2.948)">
          <path id="Path_996343" data-name="Path 996343" d="M208.341,204.018a.892.892,0,1,0-.892.892A.892.892,0,0,0,208.341,204.018Z" transform="translate(-152.06 -141.208)" fill="none" stroke="#2e2854" stroke-linecap="round" stroke-linejoin="round" stroke-miterlimit="10" stroke-width="1"/>
          <path id="Path_996344" data-name="Path 996344" d="M625.109,435.469a.892.892,0,1,0-.892.892A.892.892,0,0,0,625.109,435.469Z" transform="translate(-405.78 -282.11)" fill="none" stroke="#2e2854" stroke-linecap="round" stroke-linejoin="round" stroke-miterlimit="10" stroke-width="1"/>
          <path id="Path_996345" data-name="Path 996345" d="M460.871,143.845a.892.892,0,1,0-.892.892A.892.892,0,0,0,460.871,143.845Z" transform="translate(-305.795 -104.575)" fill="none" stroke="#2e2854" stroke-linecap="round" stroke-linejoin="round" stroke-miterlimit="10" stroke-width="1"/>
          <path id="Path_996346" data-name="Path 996346" d="M551.941,301.023a.892.892,0,1,0-.892.892A.892.892,0,0,0,551.941,301.023Z" transform="translate(-361.237 -200.262)" fill="none" stroke="#2e2854" stroke-linecap="round" stroke-linejoin="round" stroke-miterlimit="10" stroke-width="1"/>
          <path id="Path_996347" data-name="Path 996347" d="M172.953,45.748a.892.892,0,1,0-.892.892A.892.892,0,0,0,172.953,45.748Z" transform="translate(-130.516 -44.856)" fill="none" stroke="#2e2854" stroke-linecap="round" stroke-linejoin="round" stroke-miterlimit="10" stroke-width="1"/>
          <path id="Path_996348" data-name="Path 996348" d="M586.385,45.748a.892.892,0,1,0-.892.892A.892.892,0,0,0,586.385,45.748Z" transform="translate(-382.205 -44.856)" fill="none" stroke="#2e2854" stroke-linecap="round" stroke-linejoin="round" stroke-miterlimit="10" stroke-width="1"/>
          <path id="Path_996349" data-name="Path 996349" d="M84.052,120.616a.892.892,0,1,0-.892.892A.892.892,0,0,0,84.052,120.616Z" transform="translate(-76.395 -90.434)" fill="none" stroke="#2e2854" stroke-linecap="round" stroke-linejoin="round" stroke-miterlimit="10" stroke-width="1"/>
          <path id="Path_996350" data-name="Path 996350" d="M322.084,357a.892.892,0,1,0-.892.892A.892.892,0,0,0,322.084,357Z" transform="translate(-221.304 -234.337)" fill="none" stroke="#2e2854" stroke-linecap="round" stroke-linejoin="round" stroke-miterlimit="10" stroke-width="1"/>
          <path id="Path_996351" data-name="Path 996351" d="M153.639,417.521a.892.892,0,1,0-.892.892A.892.892,0,0,0,153.639,417.521Z" transform="translate(-118.758 -271.184)" fill="none" stroke="#2e2854" stroke-linecap="round" stroke-linejoin="round" stroke-miterlimit="10" stroke-width="1"/>
          <line id="Line_27192" data-name="Line 27192" transform="translate(7.536 124.691)" fill="none" stroke="#2e2854" stroke-linecap="round" stroke-linejoin="round" stroke-miterlimit="10" stroke-width="2"/>
          <line id="Line_27193" data-name="Line 27193" transform="translate(179.88 95.352)" fill="none" stroke="#2e2854" stroke-linecap="round" stroke-linejoin="round" stroke-miterlimit="10" stroke-width="2"/>
          <line id="Line_27194" data-name="Line 27194" transform="translate(232.292 112.762)" fill="none" stroke="#2e2854" stroke-linecap="round" stroke-linejoin="round" stroke-miterlimit="10" stroke-width="2"/>
          <line id="Line_27195" data-name="Line 27195" transform="translate(0 71.021)" fill="none" stroke="#2e2854" stroke-linecap="round" stroke-linejoin="round" stroke-miterlimit="10" stroke-width="2"/>
          <line id="Line_27196" data-name="Line 27196" transform="translate(72.123 52.055)" fill="none" stroke="#2e2854" stroke-linecap="round" stroke-linejoin="round" stroke-miterlimit="10" stroke-width="2"/>
          <line id="Line_27197" data-name="Line 27197" transform="translate(235.966 50.92)" fill="none" stroke="#2e2854" stroke-linecap="round" stroke-linejoin="round" stroke-miterlimit="10" stroke-width="2"/>
          <line id="Line_27198" data-name="Line 27198" transform="translate(167.716 147.702)" fill="none" stroke="#2e2854" stroke-linecap="round" stroke-linejoin="round" stroke-miterlimit="10" stroke-width="2"/>
          <line id="Line_27199" data-name="Line 27199" transform="translate(121.081 45.114)" fill="none" stroke="#2e2854" stroke-linecap="round" stroke-linejoin="round" stroke-miterlimit="10" stroke-width="2"/>
          <line id="Line_27200" data-name="Line 27200" transform="translate(70.229 10.47)" fill="none" stroke="#2e2854" stroke-linecap="round" stroke-linejoin="round" stroke-miterlimit="10" stroke-width="2"/>
          <line id="Line_27201" data-name="Line 27201" transform="translate(224.359 13.547)" fill="none" stroke="#2e2854" stroke-linecap="round" stroke-linejoin="round" stroke-miterlimit="10" stroke-width="2"/>
        </g>
      </g>
      <g id="Group_1182578" data-name="Group 1182578" transform="translate(103.784 113.593)">
        <g id="Group_1182566" data-name="Group 1182566" transform="translate(0 49.982)">
          <g id="Group_1182560" data-name="Group 1182560" transform="translate(43.194 17.864)">
            <path id="Path_996352" data-name="Path 996352" d="M290.047,401.591a1.309,1.309,0,0,1-1.216-.823l-2-5a1.309,1.309,0,1,1,2.43-.973l2,5a1.31,1.31,0,0,1-1.215,1.8Z" transform="translate(-285.904 -393.977)" fill="#423978"/>
            <path id="Path_996353" data-name="Path 996353" d="M294.315,462.8l.793-4.39,4.543.353,3.139,4.037Z" transform="translate(-290.518 -433.204)" fill="#2e2854"/>
            <g id="Group_1182559" data-name="Group 1182559" transform="translate(0 3.643)">
              <path id="Path_996354" data-name="Path 996354" d="M287.5,403.643a2.873,2.873,0,0,1,3.778.977s1.675.6,2.649,4.995,1.412,11.928.439,15.035-4.08,3.578-5.618-.361a15.023,15.023,0,0,1-.807-5.414,6.688,6.688,0,0,1-3.336-6.027c0-4.394,1.632-5.776,1.632-5.776S285.562,404.667,287.5,403.643Z" transform="translate(-284.609 -403.288)" fill="#2e2854"/>
              <path id="Path_996355" data-name="Path 996355" d="M294.085,406.979a2,2,0,1,0-2,2A2,2,0,0,0,294.085,406.979Z" transform="translate(-287.941 -404.317)" fill="#423978"/>
              <circle id="Ellipse_13622" data-name="Ellipse 13622" cx="0.973" cy="0.973" r="0.973" transform="translate(2.824 10.596)" fill="#423978"/>
            </g>
          </g>
          <g id="Group_1182561" data-name="Group 1182561" transform="translate(0 15.581)">
            <path id="Path_996356" data-name="Path 996356" d="M206.322,394.591l-6.309-6.45s-5.686,6.968-18.089,12.037l-.2,4.771,2.943,3.013S198.648,403.349,206.322,394.591Z" transform="translate(-178.779 -388.141)" fill="#e8614e"/>
            <path id="Path_996357" data-name="Path 996357" d="M174.2,420.1l3.767,10.358,2.119-3.767-2.741-7.784C176.339,419.321,175.295,419.721,174.2,420.1Z" transform="translate(-174.2 -406.873)" fill="#2e2854"/>
            <path id="Path_996358" data-name="Path 996358" d="M216.152,421.051s1.448.282,1.519-.813" transform="translate(-199.74 -407.681)" fill="none" stroke="#2e2854" stroke-linecap="round" stroke-linejoin="round" stroke-miterlimit="10" stroke-width="1"/>
          </g>
          <g id="Group_1182565" data-name="Group 1182565" transform="translate(17.855)">
            <g id="Group_1182563" data-name="Group 1182563">
              <path id="Path_996359" data-name="Path 996359" d="M227.813,348.315s-1.82,6.089-7.973,13.811l8.475,9.6a46.468,46.468,0,0,0,9.023-10.518l4.85,10.518,11.8-6.529-6.968-16.008Z" transform="translate(-219.84 -348.315)" fill="#ffc55c"/>
              <g id="Group_1182562" data-name="Group 1182562" transform="translate(0 12.014)">
                <path id="Path_996360" data-name="Path 996360" d="M221.216,379.024c-.433.588-.89,1.186-1.376,1.8l8.475,9.6s.825-.674,2.061-1.885Z" transform="translate(-219.84 -379.024)" fill="#f99645"/>
                <path id="Path_996361" data-name="Path 996361" d="M286.218,386.2l-11.963,6.294,1.06,2.3,11.8-6.529Z" transform="translate(-252.967 -383.393)" fill="#f99645"/>
              </g>
            </g>
            <g id="Group_1182564" data-name="Group 1182564" transform="translate(6.309 3.939)">
              <path id="Path_996362" data-name="Path 996362" d="M238.615,358.384a56.6,56.6,0,0,0,19.633.518" transform="translate(-237.579 -358.384)" fill="none" stroke="#2e2854" stroke-linecap="round" stroke-linejoin="round" stroke-miterlimit="10" stroke-width="1"/>
              <path id="Path_996363" data-name="Path 996363" d="M235.967,361.868s4.8,2.684,6.121-3.484" transform="translate(-235.967 -358.384)" fill="none" stroke="#2e2854" stroke-linecap="round" stroke-linejoin="round" stroke-miterlimit="10" stroke-width="1"/>
              <path id="Path_996364" data-name="Path 996364" d="M241.5,385.212a46.469,46.469,0,0,0,9.023-10.518,33.308,33.308,0,0,0,2.214-4.235" transform="translate(-239.337 -365.735)" fill="none" stroke="#2e2854" stroke-linecap="round" stroke-linejoin="round" stroke-miterlimit="10" stroke-width="1"/>
            </g>
          </g>
        </g>
        <g id="Group_1182572" data-name="Group 1182572" transform="translate(24.338)">
          <path id="Path_996365" data-name="Path 996365" d="M247.665,237.626s-1.507,1.437-2.794.276-.526-3.3-.526-3.3l-1.671-5.085s-1.57-6.592,4.175-6.56c0,0-.385-1.365.016-1.53s.8,1.46.8,1.46.141-1.46.847-1.471.706,1.33.706,1.33a7.344,7.344,0,0,0,2.684-1.33c1.719-1.189,5.085-1.613,7.439,1.825,0,0,4.473-.023,4.285,3.178s-3.107,5.895-3.107,5.895Z" transform="translate(-240.104 -220.556)" fill="#2e2854"/>
          <g id="Group_1182567" data-name="Group 1182567" transform="translate(10.417 19.684)">
            <path id="Path_996366" data-name="Path 996366" d="M263.687,270.871l-.651,4.544,3.782.447.494-4.991Z" transform="translate(-263.036 -270.871)" fill="#e8614e"/>
            <path id="Path_996367" data-name="Path 996367" d="M267.69,273.1l.221-2.227h-3.625l-.267,1.864A6.049,6.049,0,0,0,267.69,273.1Z" transform="translate(-263.634 -270.871)" fill="#d85345"/>
          </g>
          <g id="Group_1182571" data-name="Group 1182571" transform="translate(0 8.149)">
            <path id="Path_996368" data-name="Path 996368" d="M287.207,246.811s1.7-1.169,1.7.9c0,2.92-2.927,4.375-2.927,4.375Z" transform="translate(-266.589 -244.488)" fill="#e8614e"/>
            <path id="Path_996369" data-name="Path 996369" d="M241.334,242.892s-3.157-2.913-4.614.306c-1.44,3.181,2.48,6.16,4.708,4.747a9.315,9.315,0,0,0,8.694,5.932c6.654.031,7.062-7.753,6.905-10.17a4.961,4.961,0,0,1-4.253.173c-2.425-.965-2.543-2.472-3.3-2.5s-.4,1.836-1.695,1.813-2.543-1.813-2.543-1.813-.212,3.037-1.083,2.8-1.036-1.671-1.624-2.048S241.334,242.892,241.334,242.892Z" transform="translate(-236.41 -241.385)" fill="#e8614e"/>
            <g id="Group_1182568" data-name="Group 1182568" transform="translate(1.558 2.309)">
              <path id="Path_996370" data-name="Path 996370" d="M240.391,248.226a2.151,2.151,0,0,1,2.684-.706" transform="translate(-240.391 -247.286)" fill="none" stroke="#2e2854" stroke-linecap="round" stroke-linejoin="round" stroke-miterlimit="10" stroke-width="1"/>
              <path id="Path_996371" data-name="Path 996371" d="M244.355,249.316a2.164,2.164,0,0,1-.891-1.826" transform="translate(-242.26 -247.41)" fill="none" stroke="#2e2854" stroke-linecap="round" stroke-linejoin="round" stroke-miterlimit="10" stroke-width="1"/>
            </g>
            <g id="Group_1182569" data-name="Group 1182569" transform="translate(10.221 3.221)">
              <path id="Path_996372" data-name="Path 996372" d="M275.4,250.372a6.2,6.2,0,0,1,.5,1.46h-.675" transform="translate(-270.265 -250.077)" fill="none" stroke="#2e2854" stroke-linecap="round" stroke-linejoin="round" stroke-miterlimit="10" stroke-width="1"/>
              <path id="Path_996373" data-name="Path 996373" d="M266.757,257.346s2.825,1.46,5.038,0" transform="translate(-265.105 -254.323)" fill="none" stroke="#2e2854" stroke-linecap="round" stroke-linejoin="round" stroke-miterlimit="10" stroke-width="1"/>
              <path id="Path_996374" data-name="Path 996374" d="M262.535,250.259a1.874,1.874,0,0,1,2.919.141" transform="translate(-262.535 -249.619)" fill="none" stroke="#2e2854" stroke-linecap="round" stroke-linejoin="round" stroke-miterlimit="10" stroke-width="1"/>
              <path id="Path_996375" data-name="Path 996375" d="M279.634,251.016a1.616,1.616,0,0,1,2.484.149" transform="translate(-272.945 -250.14)" fill="none" stroke="#2e2854" stroke-linecap="round" stroke-linejoin="round" stroke-miterlimit="10" stroke-width="1"/>
            </g>
            <g id="Group_1182570" data-name="Group 1182570" transform="translate(6.902 6.451)">
              <path id="Path_996376" data-name="Path 996376" d="M281.392,259.755a1.757,1.757,0,0,0-.395,3.469,7.975,7.975,0,0,0,1.665-2.925A1.751,1.751,0,0,0,281.392,259.755Z" transform="translate(-269.625 -259.019)" fill="#d85345"/>
              <path id="Path_996377" data-name="Path 996377" d="M254.051,259.632a1.758,1.758,0,1,0,1.758-1.758A1.758,1.758,0,0,0,254.051,259.632Z" transform="translate(-254.051 -257.874)" fill="#d85345"/>
            </g>
          </g>
        </g>
        <g id="Group_1182577" data-name="Group 1182577" transform="translate(6.269 14.213)">
          <path id="Path_996378" data-name="Path 996378" d="M241.71,279.692h0l-4.629.18-4-1.106h0a28.088,28.088,0,0,0-15.132,7.106l.742,4.283,4.234,2.07h0a29.3,29.3,0,0,1,2.86-1.63,159.634,159.634,0,0,1-1.826,17.107,64.448,64.448,0,0,0,24.206,1.224S251.454,285.359,241.71,279.692Z" transform="translate(-207.101 -270.207)" fill="#49ad9f"/>
          <g id="Group_1182574" data-name="Group 1182574" transform="translate(0 15.665)">
            <path id="Path_996379" data-name="Path 996379" d="M206.045,303.282l-4.976-6.353a35.782,35.782,0,0,0-10.05,15.829c-.737,1.946-1.052,3.437-.549,3.516s.926-1.311.926-1.311c-.249,1.489-.4,3.134.157,3.079.718-.071,1.111-2.277,1.111-2.277-.129,1.6-.183,3.1.36,3.136.789.047.906-1.325.977-2.443a11.559,11.559,0,0,1,.495-2.413c.047,1.624.212,4.656.989,4.538s.447-1.125.447-2.631a8.011,8.011,0,0,1,.336-2.453s1.116,1.586,1.806,1.147-.714-2.107-.714-2.107C199.276,308.027,203.138,305.137,206.045,303.282Z" transform="translate(-190.225 -296.929)" fill="#e8614e"/>
            <g id="Group_1182573" data-name="Group 1182573" transform="translate(0 2.648)">
              <path id="Path_996380" data-name="Path 996380" d="M196.459,342.382c.058-.725.131-1.373.172-1.732" transform="translate(-194.02 -326.193)" fill="none" stroke="#2e2854" stroke-linecap="round" stroke-linejoin="round" stroke-miterlimit="10" stroke-width="1"/>
              <path id="Path_996381" data-name="Path 996381" d="M193.217,340.81c.072-.434.248-1.166.322-1.424" transform="translate(-192.047 -325.424)" fill="none" stroke="#2e2854" stroke-linecap="round" stroke-linejoin="round" stroke-miterlimit="10" stroke-width="1"/>
              <path id="Path_996382" data-name="Path 996382" d="M198.442,303.7a35.688,35.688,0,0,0-7.422,13.181c-.737,1.946-1.052,3.437-.549,3.515s.926-1.311.926-1.311c-.249,1.489-.4,3.134.157,3.079.718-.071,1.111-2.277,1.111-2.277-.129,1.6-.183,3.1.36,3.136.789.047.906-1.325.977-2.443a11.559,11.559,0,0,1,.495-2.413c.047,1.624.212,4.656.989,4.538s.447-1.125.447-2.631a8.011,8.011,0,0,1,.336-2.453s1.116,1.586,1.806,1.147-.714-2.107-.714-2.107" transform="translate(-190.225 -303.697)" fill="none" stroke="#2e2854" stroke-linecap="round" stroke-linejoin="round" stroke-miterlimit="10" stroke-width="1"/>
            </g>
          </g>
          <path id="Path_996383" data-name="Path 996383" d="M260.248,278.149a30.821,30.821,0,0,0-3.627.287c1.419,1.388,5.149,4.316,8.633.926A9.379,9.379,0,0,0,260.248,278.149Z" transform="translate(-230.646 -269.83)" fill="#e8614e"/>
          <path id="Path_996384" data-name="Path 996384" d="M237.973,306.071a42.8,42.8,0,0,1,4.124-1.883Z" transform="translate(-219.293 -285.683)" fill="none" stroke="#2e2854" stroke-linecap="round" stroke-linejoin="round" stroke-miterlimit="10" stroke-width="1"/>
          <path id="Path_996385" data-name="Path 996385" d="M230.662,310.631h0a29.3,29.3,0,0,1,2.86-1.63Z" transform="translate(-214.842 -288.613)" fill="none" stroke="#2e2854" stroke-linecap="round" stroke-linejoin="round" stroke-miterlimit="10" stroke-width="1"/>
          <g id="Group_1182576" data-name="Group 1182576" transform="translate(34.609)">
            <path id="Path_996386" data-name="Path 996386" d="M281.561,288.678a58.329,58.329,0,0,0,6.794-3.17l.9-5.215-4.279-3.206c-3.677,1.061-6.283,1.63-6.283,1.63Z" transform="translate(-278.689 -269.184)" fill="#49ad9f"/>
            <path id="Path_996387" data-name="Path 996387" d="M298.134,273.21a159.745,159.745,0,0,0,15.037-9.4s2.919-1.146,2.605-1.617-2.467.52-2.467.52,3.656-2.043,3.174-2.6-3.784,1.315-3.784,1.315,4-2.492,3.478-3.128-4.233,1.886-4.233,1.886,3.8-2.592,3.221-3.217-4.708,2.307-4.708,2.307.447-2.26-.306-2.307-1.695,2.754-1.695,2.754a89.72,89.72,0,0,1-13.7,5.06Z" transform="translate(-288.468 -256.887)" fill="#e8614e"/>
            <g id="Group_1182575" data-name="Group 1182575" transform="translate(13.744)">
              <path id="Path_996388" data-name="Path 996388" d="M313.819,270.908c5.945-3.513,10.959-7.1,10.959-7.1s2.919-1.146,2.605-1.617-2.467.52-2.467.52,3.656-2.043,3.174-2.6-3.783,1.315-3.783,1.315,4-2.492,3.478-3.128-4.233,1.886-4.233,1.886,3.8-2.592,3.221-3.217-4.708,2.307-4.708,2.307.447-2.26-.306-2.307-1.695,2.754-1.695,2.754" transform="translate(-313.819 -256.887)" fill="none" stroke="#2e2854" stroke-linecap="round" stroke-linejoin="round" stroke-miterlimit="10" stroke-width="1"/>
              <path id="Path_996389" data-name="Path 996389" d="M337.505,263.912a18.285,18.285,0,0,1,2,3.474" transform="translate(-328.239 -261.164)" fill="none" stroke="#2e2854" stroke-linecap="round" stroke-linejoin="round" stroke-miterlimit="10" stroke-width="1"/>
              <path id="Path_996390" data-name="Path 996390" d="M335.066,266.436a2.968,2.968,0,0,0-.174-3.426" transform="translate(-326.648 -260.615)" fill="none" stroke="#2e2854" stroke-linecap="round" stroke-linejoin="round" stroke-miterlimit="10" stroke-width="1"/>
            </g>
          </g>
        </g>
      </g>
      <g id="Group_1182612" data-name="Group 1182612" transform="translate(160.625 61.444)">
        <g id="Group_1182598" data-name="Group 1182598" transform="translate(0 28.977)">
          <g id="Group_1182593" data-name="Group 1182593">
            <g id="Group_1182579" data-name="Group 1182579" transform="translate(0 57.598)">
              <path id="Path_996391" data-name="Path 996391" d="M338.686,419.188l-4.188.33-3.735-2.228s.159-.957.441-2.569h0l4.8-.146,3.368,2.348h0Z" transform="translate(-326.353 -373.096)" fill="#d85648"/>
              <path id="Path_996392" data-name="Path 996392" d="M330.835,426.669l-11.345-3.16,4.41-1.993,7.923,1.9Z" transform="translate(-319.49 -377.321)" fill="#fff"/>
              <path id="Path_996393" data-name="Path 996393" d="M331.891,350.175c1.339-7.648,5.456-30.075,8.567-35.363,3.767-6.4,12.9-6.262,12.9-6.262l-13.3,43.828Z" transform="translate(-327.039 -308.549)" fill="#465aaf"/>
            </g>
            <g id="Group_1182580" data-name="Group 1182580" transform="translate(19.963 23.814)">
              <path id="Path_996394" data-name="Path 996394" d="M432.058,227.312a15.143,15.143,0,0,1,2.327-2.359l4.484-.842,3.578-1.828c2.983.243,6.08,1.789,8.915,5.03,6.592,7.533,5.162,24.2,3.266,34.462a115.972,115.972,0,0,1-19.509,1.007c-2.068-.1-4.149-.247-6.2-.418l-1.784-23.39C428.519,234.883,429.559,230.461,432.058,227.312Z" transform="translate(-404.986 -222.249)" fill="#fff"/>
              <path id="Path_996395" data-name="Path 996395" d="M386.949,273.905c3-1.988,4.5-5.345,5.718-8.961a19.693,19.693,0,0,0,3.954.659c-1.2,6.726-2.443,15.7-2.17,22.731h0c-12.557-1.046-23.934-3.109-23.934-3.109C372.353,277.711,380.546,278.143,386.949,273.905Z" transform="translate(-370.517 -248.22)" fill="#d85648"/>
              <path id="Path_996396" data-name="Path 996396" d="M431.7,269.96a137.766,137.766,0,0,1,2.169-18.447c1-5.65,1.972-9.714,1.972-9.714" transform="translate(-407.764 -234.129)" fill="none" stroke="#2e2854" stroke-linecap="round" stroke-linejoin="round" stroke-miterlimit="10" stroke-width="1"/>
              <path id="Path_996397" data-name="Path 996397" d="M453.728,222.229c-1.111,1.486-4,4.52-8.061,2.67A11.314,11.314,0,0,1,453.728,222.229Z" transform="translate(-416.266 -222.195)" fill="#e8614e"/>
            </g>
            <g id="Group_1182581" data-name="Group 1182581" transform="translate(4.136 56.657)">
              <path id="Path_996398" data-name="Path 996398" d="M340.31,420.435s.118-.938.32-2.5h0l4.42-.227,3.286,2.28h0l-.7,2.167h0l-4.835.088Z" transform="translate(-336.301 -374.059)" fill="#e8614e"/>
              <path id="Path_996399" data-name="Path 996399" d="M340.422,429.447l-10.36-2.791,4.009-1.971,7.33,1.717Z" transform="translate(-330.062 -378.308)" fill="#fff"/>
              <path id="Path_996400" data-name="Path 996400" d="M341.127,350.016c.772-5.986,2.782-21.169,4.2-28.336,1.789-9.04,4.562-15.533,17.934-15.537,15.631,0,39,6.684,39,6.684s-1.712,13.53-10.234,13.53H381.2s-14.266-2.04-22.411-5.289l-9.959,31Z" transform="translate(-336.798 -306.143)" fill="#5767bf"/>
            </g>
            <g id="Group_1182584" data-name="Group 1182584" transform="translate(27.598 31.821)">
              <g id="Group_1182583" data-name="Group 1182583" transform="translate(0 9.432)">
                <path id="Path_996401" data-name="Path 996401" d="M398.8,281.538c4.394-1.318,11.111-2.856,13.089-6.623.861-1.64,1.317-4.631,1.6-7.727h0l7.09-.419,6.5,3.128c-.73,3.674-1.921,7.374-3.865,9.725-5.085,6.152-15.631,7.784-20.026,7.847s-7.376,1.232-8.224,3.045-.981,2.44-1.483,2.487-.36-.863-.36-.863-.307,1.891-1.124,1.907c-.751.014-.579-1.468-.547-1.707-.031.211-.234,1.387-.962,1.33-.8-.063-.453-2.433.237-5.038S394.405,282.856,398.8,281.538Z" transform="translate(-390.035 -266.77)" fill="#e8614e"/>
                <g id="Group_1182582" data-name="Group 1182582" transform="translate(0 12.16)">
                  <path id="Path_996402" data-name="Path 996402" d="M397.94,326.7a6.872,6.872,0,0,1,1.067-3.162" transform="translate(-394.847 -313.487)" fill="none" stroke="#2e2854" stroke-linecap="round" stroke-linejoin="round" stroke-miterlimit="10" stroke-width="1"/>
                  <path id="Path_996403" data-name="Path 996403" d="M393.684,325.64a9.731,9.731,0,0,1,1.326-4.112" transform="translate(-392.256 -312.265)" fill="none" stroke="#2e2854" stroke-linecap="round" stroke-linejoin="round" stroke-miterlimit="10" stroke-width="1"/>
                  <path id="Path_996404" data-name="Path 996404" d="M423.219,299.625c-5.085,6.152-15.631,7.784-20.026,7.847s-7.376,1.232-8.224,3.045-.981,2.44-1.483,2.487-.36-.863-.36-.863-.308,1.891-1.124,1.907c-.751.014-.579-1.468-.547-1.707-.031.211-.234,1.387-.962,1.33-.8-.063-.453-2.433.237-5.038s3.672-5.776,8.067-7.094" transform="translate(-390.035 -298.931)" fill="none" stroke="#2e2854" stroke-linecap="round" stroke-linejoin="round" stroke-miterlimit="10" stroke-width="1"/>
                  <path id="Path_996405" data-name="Path 996405" d="M466.461,297.852s-.12,1.554-1.533.989" transform="translate(-435.628 -297.852)" fill="none" stroke="#2e2854" stroke-linecap="round" stroke-linejoin="round" stroke-miterlimit="10" stroke-width="1"/>
                </g>
              </g>
              <path id="Path_996406" data-name="Path 996406" d="M450.777,242.66l13.968.753a67.462,67.462,0,0,1-1.157,11.807A24.692,24.692,0,0,1,450,252.511C450.369,248.5,450.458,244.308,450.777,242.66Z" transform="translate(-426.538 -242.66)" fill="#fff"/>
              <path id="Path_996407" data-name="Path 996407" d="M487.7,244.586" transform="translate(-449.488 -243.833)" fill="none" stroke="#2e2854" stroke-linecap="round" stroke-linejoin="round" stroke-miterlimit="10" stroke-width="1"/>
              <path id="Path_996408" data-name="Path 996408" d="M450,252.511c.373-4.014.462-8.2.781-9.851" transform="translate(-426.538 -242.66)" fill="none" stroke="#2e2854" stroke-linecap="round" stroke-linejoin="round" stroke-miterlimit="10" stroke-width="1"/>
              <path id="Path_996409" data-name="Path 996409" d="M450,267.84" transform="translate(-426.538 -257.989)" fill="none" stroke="#2e2854" stroke-linecap="round" stroke-linejoin="round" stroke-miterlimit="10" stroke-width="1"/>
              <path id="Path_996410" data-name="Path 996410" d="M485.894,244.586a67.461,67.461,0,0,1-1.157,11.807" transform="translate(-447.687 -243.833)" fill="none" stroke="#2e2854" stroke-linecap="round" stroke-linejoin="round" stroke-miterlimit="10" stroke-width="1"/>
            </g>
            <g id="Group_1182592" data-name="Group 1182592" transform="translate(39.598)">
              <g id="Group_1182585" data-name="Group 1182585" transform="translate(10.987 21.602)">
                <path id="Path_996411" data-name="Path 996411" d="M452.581,216.539l1.13,3.672-3.625,1.1-1.295-4.112Z" transform="translate(-448.791 -216.539)" fill="#e8614e"/>
                <path id="Path_996412" data-name="Path 996412" d="M452.581,216.539l.412,1.338a6.515,6.515,0,0,1-3.752.75l-.45-1.429Z" transform="translate(-448.791 -216.539)" fill="#d85345"/>
              </g>
              <g id="Group_1182591" data-name="Group 1182591">
                <path id="Path_996413" data-name="Path 996413" d="M439.431,180.005a1.971,1.971,0,0,0,2.37-1.271c.565-1.719-.4-5.524-.4-5.524l-.094-3.21s1.13-4.143-.73-6.5-3.672.118-3.672.118-.236-1.719-.636-1.742-.259,1.836-.259,1.836a7.121,7.121,0,0,0-5.72-2.377c-3.625.236-5.712-.323-7.416,2.566-2.166,3.672,1.813,8.169,1.813,8.169Z" transform="translate(-421.633 -161.323)" fill="#2e2854"/>
                <g id="Group_1182590" data-name="Group 1182590" transform="translate(0 6.253)">
                  <path id="Path_996414" data-name="Path 996414" d="M443.634,179.683s-.071,2.66-.965,2.566-.659-3.225-1.365-3.343-.306,1.389-1.177,1.46-.871-2.543-.871-2.543a3.913,3.913,0,0,1-5.061-.518s-1.86,5.226-6.238,3.32c0,0-1.351,15.448,10.24,12.947C447.8,191.5,443.634,179.683,443.634,179.683Z" transform="translate(-425.09 -177.305)" fill="#e8614e"/>
                  <g id="Group_1182587" data-name="Group 1182587" transform="translate(18.543 1.432)">
                    <path id="Path_996415" data-name="Path 996415" d="M468.106,181.911s4.107-2.633,5.391.887c1.248,3.421-2.119,6.811-4.865,4.755Z" transform="translate(-468.106 -180.965)" fill="#e8614e"/>
                    <g id="Group_1182586" data-name="Group 1182586" transform="translate(1.377 2.485)">
                      <path id="Path_996416" data-name="Path 996416" d="M474.244,188.015s-.416-.965-2.617-.624" transform="translate(-471.627 -187.318)" fill="none" stroke="#2e2854" stroke-linecap="round" stroke-linejoin="round" stroke-miterlimit="10" stroke-width="1"/>
                      <path id="Path_996417" data-name="Path 996417" d="M474.124,189.649a3.431,3.431,0,0,0,.484-2.218" transform="translate(-473.147 -187.387)" fill="none" stroke="#2e2854" stroke-linecap="round" stroke-linejoin="round" stroke-miterlimit="10" stroke-width="1"/>
                    </g>
                  </g>
                  <path id="Path_996418" data-name="Path 996418" d="M423.973,187.071s-2.684-1.16-3.178,1.712,1.154,5.25,3.908,3.955Z" transform="translate(-420.707 -183.109)" fill="#e8614e"/>
                  <g id="Group_1182588" data-name="Group 1182588" transform="translate(4.348 4.497)">
                    <path id="Path_996419" data-name="Path 996419" d="M443.1,188.8a4.479,4.479,0,0,1-.6,2.064,1.125,1.125,0,0,0,1.036.157" transform="translate(-438.318 -188.799)" fill="none" stroke="#2e2854" stroke-linecap="round" stroke-linejoin="round" stroke-miterlimit="10" stroke-width="1"/>
                    <path id="Path_996420" data-name="Path 996420" d="M453.847,189.946a2.111,2.111,0,0,0-3.17.173" transform="translate(-443.301 -189.106)" fill="none" stroke="#2e2854" stroke-linecap="round" stroke-linejoin="round" stroke-miterlimit="10" stroke-width="1"/>
                    <path id="Path_996421" data-name="Path 996421" d="M434.8,191.111s-1.365-1.663-2.982.267" transform="translate(-431.822 -189.801)" fill="none" stroke="#2e2854" stroke-linecap="round" stroke-linejoin="round" stroke-miterlimit="10" stroke-width="1"/>
                    <path id="Path_996422" data-name="Path 996422" d="M445.173,199.053a8.389,8.389,0,0,1-4.569.521" transform="translate(-437.168 -195.041)" fill="none" stroke="#2e2854" stroke-linecap="round" stroke-linejoin="round" stroke-miterlimit="10" stroke-width="1"/>
                  </g>
                  <g id="Group_1182589" data-name="Group 1182589" transform="translate(3.867 9.888)">
                    <path id="Path_996423" data-name="Path 996423" d="M456.072,204.392a1.813,1.813,0,1,1,1.813,1.813A1.812,1.812,0,0,1,456.072,204.392Z" transform="translate(-446.103 -202.579)" fill="#d85345"/>
                    <path id="Path_996424" data-name="Path 996424" d="M430.591,205.812a1.812,1.812,0,1,1,1.831,3.084A9.154,9.154,0,0,1,430.591,205.812Z" transform="translate(-430.591 -204.301)" fill="#d85345"/>
                  </g>
                </g>
              </g>
            </g>
          </g>
          <g id="Group_1182597" data-name="Group 1182597" transform="translate(5.899 34.622)">
            <path id="Path_996425" data-name="Path 996425" d="M391.861,357.812h39.117a2.531,2.531,0,0,1,2.53,2.53h0a2.531,2.531,0,0,1-2.53,2.53H391.861a2.531,2.531,0,0,1-2.53-2.53h0A2.53,2.53,0,0,1,391.861,357.812Z" transform="translate(-367.907 -315.563)" fill="#e35d76"/>
            <path id="Path_996426" data-name="Path 996426" d="M343.6,435.431,335.6,433.3a.818.818,0,0,1-.557-1.072h0a.817.817,0,0,1,.98-.507l8.121,2.188Z" transform="translate(-334.825 -360.538)" fill="#e35d76"/>
            <g id="Group_1182594" data-name="Group 1182594" transform="translate(0 0.548)">
              <path id="Path_996427" data-name="Path 996427" d="M503.087,309.574a.833.833,0,0,0,.833-.833V256.229a3.346,3.346,0,0,1,3.341-3.342h3.861a.833.833,0,1,0,0-1.666h-3.861a5.014,5.014,0,0,0-5.008,5.008v52.512A.833.833,0,0,0,503.087,309.574Z" transform="translate(-436.652 -251.221)" fill="#5d4082"/>
              <path id="Path_996428" data-name="Path 996428" d="M398.539,372.414h40.9a.833.833,0,1,0,0-1.666h-40.9a.833.833,0,0,0,0,1.666Z" transform="translate(-373.006 -323.987)" fill="#5d4082"/>
              <path id="Path_996429" data-name="Path 996429" d="M392.048,368.728a.833.833,0,0,0,.829-.761l3.866-44.4a3.55,3.55,0,0,1,2.816-3.148,99.567,99.567,0,0,1,35.761-.7.833.833,0,0,0,.335-1.632,101.462,101.462,0,0,0-36.429.7,5.226,5.226,0,0,0-4.143,4.636l-3.866,44.4a.833.833,0,0,0,.758.9C392,368.727,392.023,368.728,392.048,368.728Z" transform="translate(-369.053 -291.134)" fill="#5d4082"/>
              <path id="Path_996430" data-name="Path 996430" d="M343.878,411.56a.833.833,0,0,0,.786-.557l6.957-19.757,7.549,1.449a.833.833,0,1,0,.314-1.636l-8.254-1.585a.835.835,0,0,0-.943.541l-6.939,19.707-7.731-2.061a.833.833,0,0,0-.429,1.61l8.475,2.26A.8.8,0,0,0,343.878,411.56Z" transform="translate(-334.57 -335.378)" fill="#5d4082"/>
              <circle id="Ellipse_13623" data-name="Ellipse 13623" cx="3.296" cy="3.296" r="3.296" transform="translate(63.139 54.224)" fill="#5d4082"/>
              <path id="Path_996431" data-name="Path 996431" d="M387.491,443.867a2.289,2.289,0,1,1,2.289,2.289A2.289,2.289,0,0,1,387.491,443.867Z" transform="translate(-366.787 -367.107)" fill="#5d4082"/>
            </g>
            <path id="Path_996432" data-name="Path 996432" d="M529.647,249.82H518.061a.781.781,0,0,0-.781.781v1.2a.781.781,0,0,0,.781.781h11.586a1.381,1.381,0,0,0,1.381-1.381h0A1.381,1.381,0,0,0,529.647,249.82Z" transform="translate(-445.8 -249.82)" fill="#2e2854"/>
            <g id="Group_1182596" data-name="Group 1182596" transform="translate(38.562 30.196)">
              <path id="Path_996433" data-name="Path 996433" d="M433.138,354.875A27.872,27.872,0,1,0,461.01,327,27.872,27.872,0,0,0,433.138,354.875Zm2.38,0a25.492,25.492,0,1,1,25.492,25.492A25.521,25.521,0,0,1,435.518,354.875Z" transform="translate(-433.138 -327.003)" fill="#2e2854"/>
              <g id="Group_1182595" data-name="Group 1182595" transform="translate(4.76 4.76)">
                <path id="Path_996434" data-name="Path 996434" d="M445.306,362.283a23.112,23.112,0,1,0,23.112-23.112A23.138,23.138,0,0,0,445.306,362.283Zm1.428,0a21.684,21.684,0,1,1,21.684,21.684A21.709,21.709,0,0,1,446.734,362.283Z" transform="translate(-445.306 -339.171)" fill="#fff"/>
                <path id="Path_996435" data-name="Path 996435" d="M533.554,361.023h0a.848.848,0,0,1,0-1.2l3.729-3.729,1.2,1.2-3.729,3.729A.848.848,0,0,1,533.554,361.023Z" transform="translate(-498.878 -349.475)" fill="#fff"/>
              </g>
            </g>
            <path id="Path_996436" data-name="Path 996436" d="M371.279,434a8.632,8.632,0,1,0,8.632-8.632A8.632,8.632,0,0,0,371.279,434Zm2.142,0a6.49,6.49,0,1,1,6.49,6.49A6.5,6.5,0,0,1,373.421,434Z" transform="translate(-356.918 -356.689)" fill="#2e2854"/>
          </g>
        </g>
        <g id="Group_1182611" data-name="Group 1182611" transform="translate(81.036)">
          <g id="Group_1182600" data-name="Group 1182600" transform="translate(18.702 68.358)">
            <path id="Path_996437" data-name="Path 996437" d="M665.227,441.674l1.47-4.734,6.221-1.1h0c.971,1.574,1.575,2.518,1.575,2.518l-3.025,4.612-4.681.969S666.2,443.109,665.227,441.674Z" transform="translate(-629.706 -367.823)" fill="#e35d76"/>
            <path id="Path_996438" data-name="Path 996438" d="M582.623,449.606l5.192-1.965,4.652,1.817h0l-.148,2.624-5.885,2.054-3.625-1.771s-.074-1.007-.185-2.759Z" transform="translate(-579.418 -375.009)" fill="#e35d76"/>
            <path id="Path_996439" data-name="Path 996439" d="M587.332,463.1h-12.9l3.39-3.825,9.511-.282Z" transform="translate(-574.431 -381.92)" fill="#2e2854"/>
            <path id="Path_996440" data-name="Path 996440" d="M678.212,445.669l-10.669,7.252.653-5.069,7.707-5.58Z" transform="translate(-631.116 -371.74)" fill="#2e2854"/>
            <path id="Path_996441" data-name="Path 996441" d="M579.821,302.223c.188-17.108,1.224-39.767,1.224-39.767l24.389-.471s-1.224,32.863,2.309,42.939c2.714,7.738,9.957,19.864,13.172,25.075l-7.691,5.837c-3.944-5.808-14.3-21.636-18.43-33.509-.667-1.919-1.264-3.892-1.8-5.875l-2.246,39.983-9.843.148C580.52,330.517,579.675,315.5,579.821,302.223Z" transform="translate(-577.702 -261.986)" fill="#5767bf"/>
            <g id="Group_1182599" data-name="Group 1182599" transform="translate(3.766 3.531)">
              <path id="Path_996442" data-name="Path 996442" d="M627.659,355.042c-3.944-5.808-14.3-21.636-18.43-33.509-.667-1.919-1.264-3.892-1.8-5.875a144.885,144.885,0,0,1-3.915-22.125" transform="translate(-595.904 -284.723)" fill="none" stroke="#2e2854" stroke-linecap="round" stroke-linejoin="round" stroke-miterlimit="10" stroke-width="1"/>
              <path id="Path_996443" data-name="Path 996443" d="M607.683,272.457s-12.759,1.083-21.94,0" transform="translate(-585.084 -271.892)" fill="none" stroke="#2e2854" stroke-linecap="round" stroke-linejoin="round" stroke-miterlimit="10" stroke-width="1"/>
              <path id="Path_996444" data-name="Path 996444" d="M623.531,271.614s-.235,7.486,6.733,7.3" transform="translate(-608.088 -271.379)" fill="none" stroke="#2e2854" stroke-linecap="round" stroke-linejoin="round" stroke-miterlimit="10" stroke-width="1"/>
              <path id="Path_996445" data-name="Path 996445" d="M586.177,271.012s.754,4.755-2.119,5.32" transform="translate(-584.058 -271.012)" fill="none" stroke="#2e2854" stroke-linecap="round" stroke-linejoin="round" stroke-miterlimit="10" stroke-width="1"/>
              <path id="Path_996446" data-name="Path 996446" d="M599.626,271.614s-1.224,8.051,2.307,7.816" transform="translate(-593.41 -271.379)" fill="none" stroke="#2e2854" stroke-linecap="round" stroke-linejoin="round" stroke-miterlimit="10" stroke-width="1"/>
            </g>
          </g>
          <g id="Group_1182601" data-name="Group 1182601" transform="translate(5.848 25.907)">
            <path id="Path_996447" data-name="Path 996447" d="M551.181,183.729c3.861-5.974,3.107-21.24,8.119-26.137a14.576,14.576,0,0,1,2.286-1.816h0l4.379-.35,3.8-1.813h0c3.7.372,7.39,2.723,9.943,8.353,5.273,11.625,5.085,35.861,5.085,35.861s-18.5.875-30.274-.659l-12.948-.592v-6.121A14.781,14.781,0,0,0,551.181,183.729Z" transform="translate(-541.576 -153.561)" fill="#49ad9f"/>
            <path id="Path_996448" data-name="Path 996448" d="M582.015,173.411s-4.153,17.081-2.886,34.373" transform="translate(-564.291 -165.613)" fill="none" stroke="#2e2854" stroke-linecap="round" stroke-linejoin="round" stroke-miterlimit="10" stroke-width="1"/>
            <path id="Path_996449" data-name="Path 996449" d="M600.907,153.531c-1.046,1.451-4.251,5.125-8.183,2.163A12.963,12.963,0,0,1,600.907,153.531Z" transform="translate(-572.714 -153.477)" fill="#e35d76"/>
          </g>
          <g id="Group_1182603" data-name="Group 1182603" transform="translate(0 62.411)">
            <path id="Path_996450" data-name="Path 996450" d="M541.178,246.957a11.487,11.487,0,0,1-3.264.408c-2.636.126-5.838-1.989-7.031,1.156s1.915,4.651,1.915,4.651l9.291-.722Z" transform="translate(-529.052 -246.785)" fill="#e35d76"/>
            <g id="Group_1182602" data-name="Group 1182602" transform="translate(0 0.768)">
              <path id="Path_996451" data-name="Path 996451" d="M539.664,254.931l-2.574.153s-4.394,2.17-6.686,1.574c-1.6-.416-2.969-2.555-3.65-3.809a1.04,1.04,0,0,1,.41-1.405l4.088-2.277,6.245-.419Z" transform="translate(-526.628 -248.747)" fill="#e35d76"/>
              <path id="Path_996452" data-name="Path 996452" d="M537.09,255.736s-4.394,2.17-6.686,1.573c-1.6-.416-2.969-2.555-3.65-3.809a1.04,1.04,0,0,1,.41-1.405l4.088-2.277" transform="translate(-526.628 -249.4)" fill="none" stroke="#2e2854" stroke-linecap="round" stroke-linejoin="round" stroke-miterlimit="10" stroke-width="1"/>
            </g>
          </g>
          <path id="Path_996453" data-name="Path 996453" d="M556.69,246.088l.561,7.894,3.306-.306-1.964-7.815Z" transform="translate(-544.929 -183.811)" fill="#fff"/>
          <g id="Group_1182604" data-name="Group 1182604" transform="translate(13.664 30.629)">
            <path id="Path_996454" data-name="Path 996454" d="M590.651,169.232s1.6,15.751-4.85,26.146-23.54,10.629-23.54,10.629l-.706-9.04s10.516-1.162,13.8-7.941,2.966-17.577,4.284-23.478Z" transform="translate(-561.554 -165.548)" fill="#49ad9f"/>
            <path id="Path_996455" data-name="Path 996455" d="M585.8,195.378c-6.45,10.4-23.54,10.629-23.54,10.629l-.706-9.04s10.516-1.162,13.8-7.941,2.966-17.577,4.284-23.478" transform="translate(-561.554 -165.547)" fill="none" stroke="#2e2854" stroke-linecap="round" stroke-linejoin="round" stroke-miterlimit="10" stroke-width="1"/>
          </g>
          <g id="Group_1182610" data-name="Group 1182610" transform="translate(17.628)">
            <path id="Path_996456" data-name="Path 996456" d="M587.347,108.845s2.162,1.656,4.124.359a3.508,3.508,0,0,0,1.476-3.534l1.982-2.986a2.461,2.461,0,0,0,1.4-2.262,1.642,1.642,0,0,0-1.268-1.6s1.564-5.236-2.524-5.235a3.252,3.252,0,0,0-.943-2.226c-.965-.9-2.559.109-2.559.109a1.907,1.907,0,0,0-2.5-1.237,2.745,2.745,0,0,0-1.121-2.661c-1.422-.891-3.338.36-3.338.36a3.872,3.872,0,0,0-4.021.116,4.263,4.263,0,0,0-1.641,3.918s-.59-2.085-1.2-1.935-.2,1.992-.139,1.959a2.35,2.35,0,0,0-2.612,1.8,3.2,3.2,0,0,0,.421,3.29s-1.672,1.8-1.069,3.776a3.067,3.067,0,0,0,2.582,2.127s-1.234,3.509,2.318,3.885Z" transform="translate(-571.688 -87.255)" fill="#633936"/>
            <g id="Group_1182605" data-name="Group 1182605" transform="translate(10.487 22.682)">
              <path id="Path_996457" data-name="Path 996457" d="M602.013,145.234l.464,4.7-3.681.158-.3-4.411Z" transform="translate(-598.494 -145.234)" fill="#e35d76"/>
              <path id="Path_996458" data-name="Path 996458" d="M598.65,147.952l-.155-2.275,3.519-.442.2,2.041A4.7,4.7,0,0,1,598.65,147.952Z" transform="translate(-598.495 -145.235)" fill="#d94a64"/>
            </g>
            <g id="Group_1182609" data-name="Group 1182609" transform="translate(1.63 8.744)">
              <path id="Path_996459" data-name="Path 996459" d="M596.179,114.2s4.536-2.707,5.49,1.338c.748,3.173-3.212,6.2-5.657,4.263a7.689,7.689,0,0,1-6.589,5.22c-5.128.378-7.527-4.467-7.618-6.6a47.5,47.5,0,0,1,.518-6.321,1.94,1.94,0,0,0,1.583-1.03c.487-.992.93-.763,1.111.1s.907.935,1.436-.095,1.333-2.117,1.781-.978.5,2.046,1.192,2.08c1.115.055,1.983-1.752,1.983-1.752s-.323,2.722,3.033,3.226c0,0-.488,1.8.238,1.944S596.179,114.2,596.179,114.2Z" transform="translate(-579.472 -109.606)" fill="#e35d76"/>
              <g id="Group_1182606" data-name="Group 1182606" transform="translate(17.943 6.144)">
                <path id="Path_996460" data-name="Path 996460" d="M624.519,126.622a2.7,2.7,0,0,0-2.8-1.292" transform="translate(-621.718 -125.31)" fill="none" stroke="#2e2854" stroke-linecap="round" stroke-linejoin="round" stroke-miterlimit="10" stroke-width="1"/>
                <path id="Path_996461" data-name="Path 996461" d="M622.682,127.746a2.929,2.929,0,0,0,1.143-1.907" transform="translate(-622.305 -125.632)" fill="none" stroke="#2e2854" stroke-linecap="round" stroke-linejoin="round" stroke-miterlimit="10" stroke-width="1"/>
              </g>
              <g id="Group_1182607" data-name="Group 1182607" transform="translate(3.392 4.342)">
                <path id="Path_996462" data-name="Path 996462" d="M593.238,120.705a9.5,9.5,0,0,0-.7,1.586l.82.214" transform="translate(-589.403 -120.705)" fill="none" stroke="#2e2854" stroke-linecap="round" stroke-linejoin="round" stroke-miterlimit="10" stroke-width="1"/>
                <path id="Path_996463" data-name="Path 996463" d="M603.523,122.7s-1.742-1.575-3.145,0" transform="translate(-594.176 -121.496)" fill="none" stroke="#2e2854" stroke-linecap="round" stroke-linejoin="round" stroke-miterlimit="10" stroke-width="1"/>
                <path id="Path_996464" data-name="Path 996464" d="M586.632,121.5s-.7-1.5-2.108-.129" transform="translate(-584.524 -120.761)" fill="none" stroke="#2e2854" stroke-linecap="round" stroke-linejoin="round" stroke-miterlimit="10" stroke-width="1"/>
                <path id="Path_996465" data-name="Path 996465" d="M596.591,130.219a7.294,7.294,0,0,1-4.863-.137" transform="translate(-588.91 -126.414)" fill="none" stroke="#2e2854" stroke-linecap="round" stroke-linejoin="round" stroke-miterlimit="10" stroke-width="1"/>
              </g>
              <g id="Group_1182608" data-name="Group 1182608" transform="translate(2.596 9.531)">
                <path id="Path_996466" data-name="Path 996466" d="M582.491,134.575a1.694,1.694,0,1,1,1.532,2.768A8.443,8.443,0,0,1,582.491,134.575Z" transform="translate(-582.491 -133.969)" fill="#d94a64"/>
                <path id="Path_996467" data-name="Path 996467" d="M605.907,134.8a1.695,1.695,0,1,1-2.069,1.211A1.695,1.695,0,0,1,605.907,134.8Z" transform="translate(-595.453 -134.442)" fill="#d94a64"/>
              </g>
              <path id="Path_996468" data-name="Path 996468" d="M578.944,118.2s-1.558-1.3-2.537.147-.879,4.726,2.13,5.221Z" transform="translate(-575.855 -114.514)" fill="#e35d76"/>
            </g>
          </g>
        </g>
      </g>
      <g id="Group_1182630" data-name="Group 1182630" transform="translate(68.711 71.241)">
        <g id="Group_1182618" data-name="Group 1182618" transform="translate(6.662 0)">
          <path id="Path_996469" data-name="Path 996469" d="M125.6,122.057c3.672-.659,2.543-7.219-.942-8.977s-7.285,0-7.285,0-9.979-1.381-11.6,8.977c-.707,4.532.667,7.592,2.437,9.6,0,0-10.944,2.641-4.729,10.975l16.2-.236,1.46-4.332a10.446,10.446,0,0,0,1.554-6.5Z" transform="translate(-101.579 -112.299)" fill="#2e2854"/>
          <g id="Group_1182617" data-name="Group 1182617" transform="translate(2.247 6.227)">
            <path id="Path_996470" data-name="Path 996470" d="M120.711,131.983s.317,2.027,1.177,1.93c1.114-.126,2.825-5.7,2.825-5.7s2.543,3.063,7.91,2.85a1.469,1.469,0,0,0,1.083.682c.659,0,.345-2.448.957-2.527s1.271,2.527,2.558,2.527c0,0,1.6,12.451-7.847,13.009C119.518,145.338,120.711,131.983,120.711,131.983Z" transform="translate(-115.445 -128.216)" fill="#ff98aa"/>
            <g id="Group_1182614" data-name="Group 1182614" transform="translate(0 2.259)">
              <path id="Path_996471" data-name="Path 996471" d="M112.588,135.5c-.8-1.977-3.695-2.213-4.967.518s1.688,6.6,5.69,4.457l-.465-2.85Z" transform="translate(-107.323 -133.989)" fill="#ff98aa"/>
              <g id="Group_1182613" data-name="Group 1182613" transform="translate(1.954 2.497)">
                <path id="Path_996472" data-name="Path 996472" d="M112.317,141.118a2.9,2.9,0,0,1,2.221-.73" transform="translate(-112.317 -140.372)" fill="none" stroke="#2e2854" stroke-linecap="round" stroke-linejoin="round" stroke-miterlimit="10" stroke-width="1"/>
                <path id="Path_996473" data-name="Path 996473" d="M115.829,142.642a3.635,3.635,0,0,1-.811-1.917" transform="translate(-113.961 -140.587)" fill="none" stroke="#2e2854" stroke-linecap="round" stroke-linejoin="round" stroke-miterlimit="10" stroke-width="1"/>
              </g>
            </g>
            <path id="Path_996474" data-name="Path 996474" d="M161.762,137.158a1.655,1.655,0,0,1,2.064,1.365c.541,1.836-.659,5.791-2.848,5.226Z" transform="translate(-139.986 -133.627)" fill="#ff98aa"/>
            <path id="Path_996475" data-name="Path 996475" d="M127.886,156.267a1.93,1.93,0,1,1,1.93-1.93A1.93,1.93,0,0,1,127.886,156.267Zm12.074-3.111a1.93,1.93,0,1,0-1.642,3.455A10.086,10.086,0,0,0,139.96,153.155Z" transform="translate(-118.666 -142.942)" fill="#ff8095"/>
            <g id="Group_1182616" data-name="Group 1182616" transform="translate(5.126 1.965)">
              <path id="Path_996476" data-name="Path 996476" d="M139.435,153.188a9.771,9.771,0,0,0,5.461,0" transform="translate(-131.998 -145.384)" fill="none" stroke="#2e2854" stroke-linecap="round" stroke-linejoin="round" stroke-miterlimit="10" stroke-width="1"/>
              <path id="Path_996477" data-name="Path 996477" d="M147.362,143.361a4.8,4.8,0,0,1,.642,1.657l-.889.035" transform="translate(-136.673 -139.401)" fill="none" stroke="#2e2854" stroke-linecap="round" stroke-linejoin="round" stroke-miterlimit="10" stroke-width="1"/>
              <g id="Group_1182615" data-name="Group 1182615" transform="translate(0 0)">
                <circle id="Ellipse_13624" data-name="Ellipse 13624" cx="2.872" cy="2.872" r="2.872" transform="translate(2.88 4.062) rotate(-45)" fill="#2e2854" stroke="#2e2854" stroke-linecap="round" stroke-linejoin="round" stroke-miterlimit="10" stroke-width="1"/>
                <ellipse id="Ellipse_13625" data-name="Ellipse 13625" cx="2.594" cy="2.872" rx="2.594" ry="2.872" transform="translate(11.806 1.512)" fill="#2e2854" stroke="#2e2854" stroke-linecap="round" stroke-linejoin="round" stroke-miterlimit="10" stroke-width="1"/>
                <path id="Path_996478" data-name="Path 996478" d="M145.512,142.766a1.076,1.076,0,0,1,.934-.549,1.192,1.192,0,0,1,1.074.549" transform="translate(-135.697 -138.705)" fill="none" stroke="#2e2854" stroke-linecap="round" stroke-linejoin="round" stroke-miterlimit="10" stroke-width="1"/>
                <line id="Line_27202" data-name="Line 27202" x2="4.14" y2="1.922" transform="translate(0 1.512)" fill="none" stroke="#2e2854" stroke-linecap="round" stroke-linejoin="round" stroke-miterlimit="10" stroke-width="1"/>
              </g>
            </g>
          </g>
        </g>
        <g id="Group_1182619" data-name="Group 1182619" transform="translate(30.51 28.779)">
          <path id="Path_996479" data-name="Path 996479" d="M181.166,300.851a4.693,4.693,0,0,1,1.8,3.53c-.079,2.119-.863,3.657-3.939,3.908l-.282-6.152Z" transform="translate(-172.401 -255.865)" fill="#ff98aa"/>
          <path id="Path_996480" data-name="Path 996480" d="M163.678,185.862a13.391,13.391,0,0,1,5.009,9.077c1.444,10.013-.248,14.524.188,21.877.251,4.237,2.37,11.033,2.574,12.273s.22,2.511-2.574,3.045c0,0-4.991-11.556-6.026-23.136A106.383,106.383,0,0,1,163.678,185.862Z" transform="translate(-162.536 -185.862)" fill="#ffc55c"/>
        </g>
        <g id="Group_1182623" data-name="Group 1182623" transform="translate(0 55.182)">
          <g id="Group_1182620" data-name="Group 1182620" transform="translate(1.444 73.982)">
            <path id="Path_996481" data-name="Path 996481" d="M94.485,442.456l-5.269.071h0c-.6,2.068-.978,3.287-.978,3.287l1.412,2.793,6.811.534s.354-1.094.965-3h0Z" transform="translate(-88.239 -442.456)" fill="#ff98aa"/>
            <path id="Path_996482" data-name="Path 996482" d="M191.234,449.015s-.14-.9-.4-2.516h0l-5.211-1.6-3.617,3.391c.164.738.317,1.438.459,2.094l5.089.964Z" transform="translate(-145.326 -443.946)" fill="#ff98aa"/>
          </g>
          <path id="Path_996483" data-name="Path 996483" d="M126.446,331.681c2.681-.531,6.186-1.25,8.828-1.8-1.742-11.041-8.849-55.433-13.121-72.666l-8.286-3.869L101.2,257.219a132.628,132.628,0,0,0-1.648,25.824c.406,11.482-6.258,35.584-8.815,44.36l8.211,3.613c2.764-8.628,10.8-33.974,15.3-50.733C114.25,280.283,122.829,315.351,126.446,331.681Z" transform="translate(-88.317 -253.35)" fill="#5d4082"/>
          <g id="Group_1182621" data-name="Group 1182621" transform="translate(0 77.34)">
            <path id="Path_996484" data-name="Path 996484" d="M183.979,460.921l12.286-3.558-4.316-1.951-8.764,1.374Z" transform="translate(-144.596 -453.702)" fill="#fff"/>
            <path id="Path_996485" data-name="Path 996485" d="M96.916,458.259l-2.7-3.892-8.224-3.327-1.444,3.955Z" transform="translate(-84.549 -451.04)" fill="#fff"/>
          </g>
          <g id="Group_1182622" data-name="Group 1182622" transform="translate(7.277 6.152)">
            <path id="Path_996486" data-name="Path 996486" d="M119.208,283.13s5.964-1.414,5.21-7.315" transform="translate(-112.926 -273.179)" fill="none" stroke="#2e2854" stroke-linecap="round" stroke-linejoin="round" stroke-miterlimit="10" stroke-width="1"/>
            <path id="Path_996487" data-name="Path 996487" d="M138.873,269.076a65.46,65.46,0,0,1-19.665,0" transform="translate(-112.926 -269.076)" fill="none" stroke="#2e2854" stroke-linecap="round" stroke-linejoin="round" stroke-miterlimit="10" stroke-width="1"/>
            <path id="Path_996488" data-name="Path 996488" d="M115.082,300.851a150.286,150.286,0,0,1-11.932,55.4" transform="translate(-103.15 -288.42)" fill="none" stroke="#2e2854" stroke-linecap="round" stroke-linejoin="round" stroke-miterlimit="10" stroke-width="1"/>
            <path id="Path_996489" data-name="Path 996489" d="M165.351,310.357s7.686,31.121,10.229,53.626" transform="translate(-141.017 -294.207)" fill="none" stroke="#2e2854" stroke-linecap="round" stroke-linejoin="round" stroke-miterlimit="10" stroke-width="1"/>
            <path id="Path_996490" data-name="Path 996490" d="M111.727,357.658c2.764-8.628,10.8-33.974,15.3-50.733,1.023-3.816,1.863-7.186,2.415-9.813" transform="translate(-108.372 -286.144)" fill="none" stroke="#2e2854" stroke-linecap="round" stroke-linejoin="round" stroke-miterlimit="10" stroke-width="1"/>
          </g>
        </g>
        <path id="Path_996491" data-name="Path 996491" d="M108.279,173.394c4.509-2.748,9.722-1.187,9.722-1.187l-.3-3.845s4.535-1.773,8.067,0l-.22,3.986a12.494,12.494,0,0,1,5.1,2.38l-.264,5.5s.91,9.165,1.836,12.869,1.365,8.538.612,11.9a59.608,59.608,0,0,1-20.951,0Z" transform="translate(-98.995 -145.95)" fill="#ffc55c"/>
        <g id="Group_1182624" data-name="Group 1182624" transform="translate(9.284 21.625)">
          <line id="Line_27203" data-name="Line 27203" x2="0.341" y2="4.052" transform="translate(10.934 0.346)" fill="none" stroke="#2e2854" stroke-linecap="round" stroke-linejoin="round" stroke-miterlimit="10" stroke-width="1"/>
          <line id="Line_27204" data-name="Line 27204" x2="0.479" y2="4.129" transform="translate(12.468 0.08)" fill="none" stroke="#2e2854" stroke-linecap="round" stroke-linejoin="round" stroke-miterlimit="10" stroke-width="1"/>
          <line id="Line_27205" data-name="Line 27205" x2="0.257" y2="4.033" transform="translate(14.314 0.012)" fill="none" stroke="#2e2854" stroke-linecap="round" stroke-linejoin="round" stroke-miterlimit="10" stroke-width="1"/>
          <line id="Line_27206" data-name="Line 27206" x1="0.075" y2="3.924" transform="translate(16.078 0.285)" fill="none" stroke="#2e2854" stroke-linecap="round" stroke-linejoin="round" stroke-miterlimit="10" stroke-width="1"/>
          <path id="Path_996492" data-name="Path 996492" d="M108.279,173.394c4.509-2.748,9.722-1.187,9.722-1.187l-.3-3.845s4.535-1.773,8.067,0l-.22,3.986" transform="translate(-108.279 -167.574)" fill="none" stroke="#2e2854" stroke-linecap="round" stroke-linejoin="round" stroke-miterlimit="10" stroke-width="1"/>
        </g>
        <g id="Group_1182626" data-name="Group 1182626" transform="translate(27.339 70.86)">
          <path id="Path_996493" data-name="Path 996493" d="M170.2,296.658a9.822,9.822,0,0,1,1.485,1.1c1.507,1.389.755,2.409.329,2.786l-2.543-1.942Z" transform="translate(-163.587 -295.394)" fill="#ff98aa"/>
          <path id="Path_996494" data-name="Path 996494" d="M165.992,295.757l54.079,66.872a.595.595,0,0,1-.924.75l-54.335-66.664a.76.76,0,0,1,1.178-.96Z" transform="translate(-160.646 -294.673)" fill="#fff"/>
          <g id="Group_1182625" data-name="Group 1182625">
            <path id="Path_996495" data-name="Path 996495" d="M158.542,293.426a17.654,17.654,0,0,1,2.5,1.264l.284,1.757c.118,1.789,2.095,3.2,1.554,4.049s-2.566,1.083-5.061.447-3.39-4-3.39-4l1.009-2.464Z" transform="translate(-154.43 -293.426)" fill="#ff98aa"/>
            <path id="Path_996496" data-name="Path 996496" d="M161.328,301.148c.118,1.789,2.095,3.2,1.554,4.049s-2.566,1.083-5.061.447-3.39-4-3.39-4" transform="translate(-154.43 -298.127)" fill="none" stroke="#2e2854" stroke-linecap="round" stroke-linejoin="round" stroke-miterlimit="10" stroke-width="1"/>
          </g>
        </g>
        <g id="Group_1182629" data-name="Group 1182629" transform="translate(4.101 27.445)">
          <path id="Path_996497" data-name="Path 996497" d="M100.214,182.451a10.855,10.855,0,0,0-3.32,3.192c-4.708,6.874.471,19.4,4.9,27.59s11.394,14.407,14.69,14.062,4.551-2.762,3.986-4.771-10.86-15.788-17.075-31.985Z" transform="translate(-95.031 -182.451)" fill="#ffc55c"/>
          <path id="Path_996498" data-name="Path 996498" d="M112.309,225.82c4.426,8.192,11.394,14.407,14.69,14.062s4.551-2.762,3.986-4.771-10.86-15.788-17.075-31.985" transform="translate(-105.549 -195.038)" fill="none" stroke="#2e2854" stroke-linecap="round" stroke-linejoin="round" stroke-miterlimit="10" stroke-width="1"/>
          <g id="Group_1182628" data-name="Group 1182628" transform="translate(21.45 41.125)">
            <path id="Path_996499" data-name="Path 996499" d="M153.972,287.571l1.786,2.291a11.093,11.093,0,0,1-4.112,3.516l-1.789-2.087Z" transform="translate(-149.858 -287.571)" fill="#ffc55c"/>
            <g id="Group_1182627" data-name="Group 1182627" transform="translate(0.902 0.397)">
              <line id="Line_27207" data-name="Line 27207" x2="1.958" y2="2.293" transform="translate(0 2.506)" fill="none" stroke="#2e2854" stroke-linecap="round" stroke-linejoin="round" stroke-miterlimit="10" stroke-width="1"/>
              <line id="Line_27208" data-name="Line 27208" x1="2.125" y1="2.337" transform="translate(0.925 1.67)" fill="none" stroke="#2e2854" stroke-linecap="round" stroke-linejoin="round" stroke-miterlimit="10" stroke-width="1"/>
              <line id="Line_27209" data-name="Line 27209" x2="2.084" y2="2.365" transform="translate(1.895 0.793)" fill="none" stroke="#2e2854" stroke-linecap="round" stroke-linejoin="round" stroke-miterlimit="10" stroke-width="1"/>
              <line id="Line_27210" data-name="Line 27210" x2="1.926" y2="2.319" transform="translate(2.773)" fill="none" stroke="#2e2854" stroke-linecap="round" stroke-linejoin="round" stroke-miterlimit="10" stroke-width="1"/>
            </g>
            <path id="Path_996500" data-name="Path 996500" d="M153.972,287.571l1.786,2.291a11.093,11.093,0,0,1-4.112,3.516l-1.789-2.087Z" transform="translate(-149.858 -287.571)" fill="none" stroke="#2e2854" stroke-linecap="round" stroke-linejoin="round" stroke-miterlimit="10" stroke-width="1"/>
          </g>
        </g>
      </g>
      <g id="Group_1182631" data-name="Group 1182631" transform="translate(58.533 48.27)">
        <rect id="Rectangle_454781" data-name="Rectangle 454781" width="112.811" height="8.76" transform="translate(67.46)" fill="none"/>
        <rect id="Rectangle_454782" data-name="Rectangle 454782" width="148.369" height="16.46" transform="translate(49.681 8.336)" fill="none"/>
        <line id="Line_27211" data-name="Line 27211" x2="247.602" transform="translate(0 162.712)" fill="none" stroke="#2e2854" stroke-linecap="round" stroke-linejoin="round" stroke-miterlimit="10" stroke-width="1"/>
      </g>
    </g>
  </g>
</svg>
