<svg xmlns="http://www.w3.org/2000/svg" width="120" height="120" viewBox="0 0 120 120">
  <g id="img33" transform="translate(-388.711 -10669)">
    <rect id="Rectangle_402033" data-name="Rectangle 402033" width="120" height="120" rx="10" transform="translate(388.711 10669)" fill="#2142dc"/>
    <rect id="Rectangle_454167" data-name="Rectangle 454167" width="100" height="100" rx="10" transform="translate(398.711 10679)" fill="#bcc6f5"/>
    <g id="Group_1182133" data-name="Group 1182133" transform="translate(417.597 10697.886)">
      <path id="Path_990969" data-name="Path 990969" d="M106.339,92.7a3.165,3.165,0,0,0-.851-.836s1.376-8.877,1.565-11.094c.287-3.277-3.53-3.52-4.05-.452-.209,1.24-1.536,10.209-1.536,10.209l-1.5-10.292c-.253-3.233-4.025-2.917-3.773.292.122,1.59.486,4.443.8,6.626a3.4,3.4,0,0,0-2.591.209,2.843,2.843,0,0,0-1.191,2.29,1.648,1.648,0,0,0-1.886-.263c-1.429.754-1.41,2.144-1.118,3.544.049.238.117.554.194.919.428,2.018,1.215,5.7,1.58,7.463h14.1C108.6,95.54,107.165,93.94,106.339,92.7Z" transform="translate(-46.269 -40.059)" fill="#bcaaa4"/>
      <path id="Path_990970" data-name="Path 990970" d="M43,70c1.186.54,5.134,6.106,5.834,6.806,1.945,1.945,1.945,5.085,1.945,6.32,0,2.917-.486,14.1-.486,14.1h10.7s-.438-15.207.972-18.96c1.458-3.889,1.458-7.2.8-8.265" transform="translate(-22.095 -35.969)" fill="#fce7cb"/>
      <path id="Path_990971" data-name="Path 990971" d="M20.565,86.451c.1-.248.185-.457.238-.608.311-.943-.306-2.319-1.39-2.329a1.789,1.789,0,0,0-1.332.651l-.156.311a6.534,6.534,0,0,0,.486-1.634c0-1.045-1.458-2.013-2.5-1.945a1.39,1.39,0,0,0-1.006.559l-.058.141a1.648,1.648,0,0,0,.1-.685,3.008,3.008,0,0,0-3.16-1.74,1.862,1.862,0,0,0-1.113,1.1c.029-.141.053-.267.068-.36.058-.486-.564-1.1-1.264-1.293a2.674,2.674,0,0,0-2.183.4c-.7.433-1.259,3.286-1.259,3.286A1.6,1.6,0,0,0,4.7,82.8a31.96,31.96,0,0,0-3.452,6.32C1,90.691,3.85,96.345,5.007,98.163c.452.71.457,4.234.457,4.234h11.7a3.33,3.33,0,0,1,.1-1.347c.194-1.079,1.527-1.9,2.509-4.152s1.108-6.32,1.108-6.952a22.572,22.572,0,0,0-.316-3.5Z" transform="translate(-0.632 -40.358)" fill="#fce7cb"/>
      <path id="Path_990972" data-name="Path 990972" d="M24.422,35.059H2V2H62.284V35.059H33.975" transform="translate(-1.028 -1.028)" fill="#efe2d8"/>
      <g id="Group_1182132" data-name="Group 1182132" transform="translate(0 3.889)">
        <path id="Path_990973" data-name="Path 990973" d="M12.137,12.832c-1.337-.51-2.149-.87-2.149-1.517,0-1.084,1.128-1.371,1.794-1.371a2.183,2.183,0,0,1,1.264.365,1.055,1.055,0,0,1,.442.9.972.972,0,1,0,1.945,0C15.433,9.1,13.6,8,11.782,8a3.469,3.469,0,0,0-3.739,3.316c0,2.027,1.886,2.752,3.4,3.335s2.207.953,2.207,1.614a1.235,1.235,0,0,1-.486,1.05,2.455,2.455,0,0,1-1.458.408c-.729,0-2.115-.326-2.115-1.551a.972.972,0,0,0-1.945,0c.01,2.27,2.115,3.5,4.059,3.5a4.337,4.337,0,0,0,2.586-.8,3.189,3.189,0,0,0,1.3-2.606c0-2.1-2-2.868-3.461-3.432Z" transform="translate(-3.931 -8)" fill="#404040"/>
        <path id="Path_990974" data-name="Path 990974" d="M54.751,13.834C54.751,9.8,52.553,8,50.375,8S46,9.8,46,13.834s2.2,5.834,4.375,5.834S54.751,17.864,54.751,13.834Zm-6.806,0c0-2.363.972-3.889,2.431-3.889s2.431,1.527,2.431,3.889-.972,3.889-2.431,3.889S47.945,16.2,47.945,13.834Z" transform="translate(-23.637 -8)" fill="#404040"/>
        <path id="Path_990975" data-name="Path 990975" d="M30.4,9.945V18.7a.972.972,0,1,0,1.945,0V9.945h2.431a.972.972,0,0,0,0-1.945H27.972a.972.972,0,0,0,0,1.945Z" transform="translate(-13.874 -8)" fill="#404040"/>
        <path id="Path_990976" data-name="Path 990976" d="M75.779,11.889A3.644,3.644,0,0,0,71.889,8H68.972A.972.972,0,0,0,68,8.972V18.7a.972.972,0,0,0,1.945,0V15.779h1.945A3.644,3.644,0,0,0,75.779,11.889Zm-3.889,1.945H69.945V9.945h1.945a1.725,1.725,0,0,1,1.945,1.945A1.725,1.725,0,0,1,71.889,13.834Z" transform="translate(-34.941 -8)" fill="#404040"/>
        <path id="Path_990977" data-name="Path 990977" d="M15.779,39.889A3.644,3.644,0,0,0,11.889,36H8.972A.972.972,0,0,0,8,36.972V46.7a.972.972,0,0,0,1.945,0V43.779h2.309l1.682,3.364a.972.972,0,0,0,1.74-.865L14.135,43.2a3.7,3.7,0,0,0,1.643-3.306ZM9.945,41.834V37.945h1.945a1.725,1.725,0,0,1,1.945,1.945,1.725,1.725,0,0,1-1.945,1.945Z" transform="translate(-4.111 -22.388)" fill="#404040"/>
        <path id="Path_990978" data-name="Path 990978" d="M82.137,40.832c-1.337-.486-2.149-.87-2.149-1.517,0-1.084,1.128-1.371,1.794-1.371a2.183,2.183,0,0,1,1.264.365,1.055,1.055,0,0,1,.442.9.972.972,0,0,0,1.945,0C85.433,37.1,83.6,36,81.782,36a3.469,3.469,0,0,0-3.739,3.316c0,2.027,1.886,2.752,3.4,3.335s2.207.953,2.207,1.614a1.235,1.235,0,0,1-.486,1.06,2.455,2.455,0,0,1-1.458.4c-.729,0-2.115-.326-2.115-1.551a.972.972,0,0,0-1.945,0c.01,2.27,2.115,3.5,4.059,3.5a4.337,4.337,0,0,0,2.586-.8,3.189,3.189,0,0,0,1.3-2.606C85.6,42.165,83.6,41.4,82.137,40.832Z" transform="translate(-39.9 -22.388)" fill="#404040"/>
        <path id="Path_990979" data-name="Path 990979" d="M33.765,36.61a.972.972,0,0,0-1.809,0l-3.889,9.723a.973.973,0,1,0,1.809.72l.919-2.3h4.127l.924,2.314a.973.973,0,0,0,1.809-.72ZM31.572,42.8,32.86,39.59,34.149,42.8Z" transform="translate(-14.386 -22.385)" fill="#404040"/>
        <path id="Path_990980" data-name="Path 990980" d="M56.053,45a2.037,2.037,0,0,1-1.58.724c-1.556,0-2.528-1.527-2.528-3.889s.972-3.889,2.523-3.889a2.022,2.022,0,0,1,1.5.637.973.973,0,0,0,1.39-1.361A3.967,3.967,0,0,0,54.473,36C52.246,36,50,37.8,50,41.834s2.241,5.834,4.468,5.834A4.006,4.006,0,0,0,57.5,46.292.975.975,0,0,0,56.043,45Z" transform="translate(-25.692 -22.387)" fill="#404040"/>
        <path id="Path_990981" data-name="Path 990981" d="M70.972,36a.972.972,0,0,0-.972.972V46.7a.972.972,0,0,0,1.945,0V36.972A.972.972,0,0,0,70.972,36Z" transform="translate(-35.969 -22.388)" fill="#404040"/>
        <path id="Path_990982" data-name="Path 990982" d="M107.971,36.027a.972.972,0,0,0-1.094.486l-3.53,6.247-3.53-6.281A.972.972,0,0,0,98,36.965v9.723a.972.972,0,0,0,1.945,0V40.674L102.5,45.23a.972.972,0,0,0,1.692,0l2.557-4.555v6.014a.972.972,0,0,0,1.945,0V36.965a.972.972,0,0,0-.724-.938Z" transform="translate(-50.356 -22.38)" fill="#404040"/>
        <path id="Path_990983" data-name="Path 990983" d="M20.137,81.947a3.014,3.014,0,0,0-1.522-.549,4.2,4.2,0,0,0-1.269-2.149,3.189,3.189,0,0,0-2.275-.758,3.175,3.175,0,0,0-1.945-1.663,3.758,3.758,0,0,0-2.518.053,3.452,3.452,0,0,0-1.575-.972A3.4,3.4,0,0,0,5.3,77.567,11.6,11.6,0,0,0,4.575,79.8a2.12,2.12,0,0,0-.972.642c-.685.817-3.6,5.4-3.6,6.651,0,3.4,3.889,9.237,3.889,10.209v2.917a1.045,1.045,0,0,0,.972.972H16.529a1.045,1.045,0,0,0,.972-.972v-.972A3.714,3.714,0,0,1,18.2,98,12.154,12.154,0,0,0,19.962,95.2c1.133-2.616,2.4-11.614.175-13.248Zm-5.3-1.376c.156-.34.885-.117,1.2.117.418.311.861.861.6,1.352l-2.47,4.691a2.363,2.363,0,0,1-2.431-1.1c1.191-.744,2.46-3.675,3.1-5.056Zm-3.743-1.745a1.711,1.711,0,0,1,1.4-.136,1.181,1.181,0,0,1,.817.7l-1.157,2.236a7.234,7.234,0,0,0-1.823-.749Zm-4.069-.311a1.458,1.458,0,0,1,1.5-.685,1.42,1.42,0,0,1,.7.438l-.754,2.071A11.089,11.089,0,0,0,6.6,79.765a7.584,7.584,0,0,1,.428-1.274ZM18.178,94.442a10.516,10.516,0,0,1-1.507,2.382,4.541,4.541,0,0,0-1.113,1.935c-.034.17-.053.326-.073.486H6.043a9.745,9.745,0,0,0-.583-3.729c-1.352-2.105-3.685-7.147-3.515-8.158a36.317,36.317,0,0,1,3.165-5.7c.175-.233.54-.418,2.82.535a23.021,23.021,0,0,1,3.359,1.181,3.831,3.831,0,0,1-1.75,1.176,5.3,5.3,0,0,1-3.024-.486.933.933,0,0,0-1.167.69A.972.972,0,0,0,6,85.915l.146.058-.389,1.293a.89.89,0,0,0,.486,1.142c1.493.365,2.5.579,3.145,1.862.72,1.458.331,3.889.122,4.725a.972.972,0,0,0,.7,1.181,1.07,1.07,0,0,0,.243.029.972.972,0,0,0,.943-.729c.039-.146.929-3.69-.263-6.077A5.173,5.173,0,0,0,7.92,86.814l.1-.326a6.476,6.476,0,0,0,1.945-.039,4.307,4.307,0,0,0,4.249,2.236,2.917,2.917,0,0,0,2.431,1.692.975.975,0,1,0,.146-1.945,1.118,1.118,0,0,1-.89-.768l2.275-4.332a1.06,1.06,0,0,1,.841.185c.919.807.365,8.119-.836,10.9Z" transform="translate(0 -42.85)"/>
      </g>
      <path id="Path_990984" data-name="Path 990984" d="M56.8,63.7a7,7,0,0,0-1.862-5.1c-1.352-1.386-3.107-2.295-4.264-3.646a20.953,20.953,0,0,1-2.722-4.862c-.486-1.458-2.591-3.325-3.889-2.6-1.624.909,0,3.607.588,5.037.972,2.431,1.458,7.963,1.458,8.449" transform="translate(-22.278 -24.317)" fill="#fce7cb"/>
      <path id="Path_990985" data-name="Path 990985" d="M105.553,90.435c.306-1.988,1.322-8.673,1.493-10.6.194-2.261-1.157-3.471-2.5-3.646a3.21,3.21,0,0,0-3.481,2.951c-.078.486-.311,1.984-.569,3.709l-.545-3.739c-.19-2.207-1.716-3.248-3.121-3.136-1.877.146-2.722,1.945-2.591,3.617.107,1.317.379,3.452.637,5.4a3.554,3.554,0,0,0-1.945.486,3.354,3.354,0,0,0-1.405,1.736,2.5,2.5,0,0,0-1.638.272c-2.319,1.225-1.784,3.768-1.614,4.6.136.651,1.527,7.176,1.774,8.381a.972.972,0,0,0,.919.8h14.1a.972.972,0,0,0,.89-.583C109.52,92.559,105.766,90.644,105.553,90.435Zm-2.572-10.973c.175-1.021.807-1.415,1.317-1.347s.885.666.807,1.546c-.141,1.648-.972,7.137-1.356,9.694-.69-.248-1.517-.51-2.159-.666.331-2.309,1.211-8.245,1.376-9.227Zm-6.014-1.536c.724-.053.972.865,1.031,1.381l1.283,8.809a14.2,14.2,0,0,0-2.1-.452c-.049-.369-.885-6.558-1.016-8.211C96.126,78.932,96.247,77.965,96.967,77.926Zm-3.082,9.237c.486-.282.924-.335,1.108-.2.316.228.335,1.434.374,1.76a2.144,2.144,0,0,0-.18.656A3.838,3.838,0,0,0,97.4,93.313c0,.36-.112.943-.486,1.079a1.679,1.679,0,0,1-1.745-.535,24.706,24.706,0,0,1-2.013-5.348A1.536,1.536,0,0,1,93.885,87.163ZM90.768,89.21a.627.627,0,0,1,.579,0,22.01,22.01,0,0,0,2.431,6.062c-.029.228-.2.6-.938.778-.554.146-1.794-1.59-2.523-3.5-.515-1.838-.185-2.99.447-3.325Zm13.656,10.107H91.76c-.112-.53-.243-1.147-.384-1.8a3.18,3.18,0,0,0,1.945.418,2.791,2.791,0,0,0,2.168-1.643,3.257,3.257,0,0,0,2.168-.073,2.727,2.727,0,0,0,1.6-2.047c.107.039.8.3,1.011.384a4.487,4.487,0,0,0,.107,1.74.972.972,0,1,0,1.9-.4,2.372,2.372,0,0,1,0-1.366c.335-1.2-.919-1.663-2.022-2.071-1.877-.7-3.3-1.342-3.111-2.834,0,0,.826.219,1.945.545,2.09.613,5.017,1.352,5.479,2.042,1.2,1.843,1.633,2.786-.141,7.1Z" transform="translate(-45.269 -39.033)"/>
      <path id="Path_990986" data-name="Path 990986" d="M61.256,0H.972A.972.972,0,0,0,0,.972V34.031A.972.972,0,0,0,.972,35h19.66c.272.194,4.648,5.732,5.421,6.519,1.658,1.663,1.658,4.546,1.658,5.635,0,2.863-.486,13.943-.486,14.055a.98.98,0,0,0,.972,1.016h10.7a.98.98,0,0,0,.972-1c-.122-4.176-.19-15.659.909-18.591A16.771,16.771,0,0,0,41.975,35H61.256a.972.972,0,0,0,.972-.972V.972A.972.972,0,0,0,61.256,0Zm-22.3,41.956c-1.259,3.35-1.128,14.828-1.036,18.328H29.213c.117-2.834.442-10.7.442-13.126,0-1.308,0-4.779-2.231-7.006-.277-.282-2.358-3-2.669-3.4a24.928,24.928,0,0,0-1.488-8.926c-.4-.972-1.711-3.437-1.016-3.826.6-.321,2.241,1.283,2.494,2.066a21.547,21.547,0,0,0,2.917,5.2c1.653,1.945,3.617,2.985,4.3,3.695a6.053,6.053,0,0,1,1.58,4.337.976.976,0,1,0,1.945.18A8.153,8.153,0,0,0,34.41,35H40a13.879,13.879,0,0,1-1.045,6.952Zm21.328-8.9H32.8c-.53-.486-1.079-.89-1.614-1.293A13.058,13.058,0,0,1,29.121,30a20.01,20.01,0,0,1-2.528-4.546,5.751,5.751,0,0,0-3.073-3.209,2.513,2.513,0,0,0-2.217.073c-2.139,1.2-.909,3.889-.18,5.484.126.277.248.535.335.758a22.66,22.66,0,0,1,.972,4.5H1.945V1.945H60.284Z" transform="translate(0)"/>
    </g>
  </g>
</svg>
