<svg xmlns="http://www.w3.org/2000/svg" width="120" height="120" viewBox="0 0 120 120">
  <g id="img31" transform="translate(-388.711 -10669)">
    <rect id="Rectangle_402033" data-name="Rectangle 402033" width="120" height="120" rx="10" transform="translate(388.711 10669)" fill="#2142dc"/>
    <rect id="Rectangle_454167" data-name="Rectangle 454167" width="100" height="100" rx="10" transform="translate(398.711 10679)" fill="#bcc6f5"/>
    <g id="Group_1182115" data-name="Group 1182115" transform="translate(416.711 10697)">
      <path id="Path_990944" data-name="Path 990944" d="M6,2a4,4,0,0,1,4,4V58a4,4,0,0,0,8,0V48H48V6a4,4,0,0,0-4-4Z" fill="#e2e7f6"/>
      <path id="Path_990945" data-name="Path 990945" d="M29,33A16.019,16.019,0,0,1,13,17h2A14,14,0,0,0,37.4,28.2l1.08-.824,1.213,1.59-1.086.829A15.874,15.874,0,0,1,29,33Z" fill="#4c6cb5"/>
      <g id="Group_1182114" data-name="Group 1182114">
        <path id="Path_990946" data-name="Path 990946" d="M15,36H37v2H15Z" fill="#c8cded"/>
        <path id="Path_990947" data-name="Path 990947" d="M15,40H38v2H15Z" fill="#c8cded"/>
        <path id="Path_990948" data-name="Path 990948" d="M10,16V6A4,4,0,1,0,2,6V16Z" fill="#c8cded"/>
        <path id="Path_990949" data-name="Path 990949" d="M43,48H18V58a4,4,0,0,1-4,4H43Z" fill="#c8cded"/>
      </g>
      <path id="Path_990950" data-name="Path 990950" d="M43,62V36.418A8,8,0,0,1,38,29V16.5a2.5,2.5,0,0,1,5,0v-2a2.5,2.5,0,0,1,5,0v-2a2.5,2.5,0,0,1,5,0v2a2.5,2.5,0,0,1,5,0V17a4,4,0,0,1,4,4v8a8,8,0,0,1-5,7.419V62Z" fill="#f2b9a1"/>
      <path id="Path_990951" data-name="Path 990951" d="M44,16.5v7A1.5,1.5,0,0,0,45.5,25v2A3.5,3.5,0,0,1,42,23.5v-7Z" fill="#fbe1ca"/>
      <path id="Path_990952" data-name="Path 990952" d="M50,34h2a5.006,5.006,0,0,1,5-5,1,1,0,0,0,1-1V22a1,1,0,0,0-1-1H53.5a1.5,1.5,0,0,1,0-3H58V16H53.5A3.492,3.492,0,0,0,52,22.649V23.5A3.5,3.5,0,0,0,55.5,27a3.464,3.464,0,0,0,.5-.04v.111A7.011,7.011,0,0,0,50,34Zm6-11v1.911A1.492,1.492,0,0,1,54,23.5V23Z" fill="#fbe1ca"/>
      <path id="Path_990953" data-name="Path 990953" d="M49,23.5A1.5,1.5,0,0,0,50.5,25v2A3.5,3.5,0,0,1,47,23.5v-9h2Z" fill="#fbe1ca"/>
      <path id="Path_990954" data-name="Path 990954" d="M59,16.1V14.5A3.5,3.5,0,0,0,55.5,11a3.463,3.463,0,0,0-1.679.448A3.454,3.454,0,0,0,49,9.351V6a5.006,5.006,0,0,0-5-5H6A5.006,5.006,0,0,0,1,6V16a1,1,0,0,0,1,1H9V58a5.006,5.006,0,0,0,5,5H57a1,1,0,0,0,1-1V37.065A8.962,8.962,0,0,0,63,29V21a5.009,5.009,0,0,0-4-4.9ZM55.5,13A1.5,1.5,0,0,1,57,14.5V16H54V14.5A1.5,1.5,0,0,1,55.5,13Zm-5-2A1.5,1.5,0,0,1,52,12.5v3.851a3.479,3.479,0,0,0,0,6.3V23.5a1.5,1.5,0,0,1-3,0v-11A1.5,1.5,0,0,1,50.5,11ZM56,24.911A1.492,1.492,0,0,1,54,23.5V23h2ZM19,17c0-1.306,2.046-2.717,5.2-3.464a30.248,30.248,0,0,0,0,6.928C21.046,19.717,19,18.306,19,17Zm7,0a27.051,27.051,0,0,1,.265-3.829A22.228,22.228,0,0,1,29,13a22.53,22.53,0,0,1,2.731.167A27.259,27.259,0,0,1,32,17a27.081,27.081,0,0,1-.265,3.831A22.5,22.5,0,0,1,29,21a22.229,22.229,0,0,1-2.735-.171A27.052,27.052,0,0,1,26,17Zm7.8-3.46a11.976,11.976,0,0,1,3.591,1.383A3.454,3.454,0,0,0,37,16.5v2.8a12.558,12.558,0,0,1-3.2,1.179,30.31,30.31,0,0,0,0-6.935Zm-.335-2.12a15.024,15.024,0,0,0-1.292-3.9A10.015,10.015,0,0,1,38.2,13.1a15.145,15.145,0,0,0-4.733-1.68Zm-2.12-.3C30.581,11.05,29.8,11,29,11s-1.588.039-2.343.108C27.292,8.526,28.262,7,29,7s1.713,1.532,2.347,4.124Zm-6.811.28a14.831,14.831,0,0,0-4.725,1.658A10.043,10.043,0,0,1,25.82,7.523,15.057,15.057,0,0,0,24.536,11.4Zm0,11.192a15.057,15.057,0,0,0,1.286,3.877,10.043,10.043,0,0,1-6.011-5.535A14.831,14.831,0,0,0,24.536,22.6Zm2.121.3C27.41,22.961,28.191,23,29,23s1.582-.045,2.345-.116C30.711,25.471,29.739,27,29,27s-1.708-1.526-2.343-4.108Zm6.809-.306A16.684,16.684,0,0,0,37,21.522V22.98a10.009,10.009,0,0,1-4.816,3.482,15.116,15.116,0,0,0,1.282-3.876ZM39,23V16.5a1.5,1.5,0,1,1,3,0v7a1.5,1.5,0,1,1-3,0Zm5-6.5v-2a1.5,1.5,0,0,1,3,0v9a1.5,1.5,0,1,1-3,0ZM9,15H3V6A3,3,0,0,1,9,6Zm2,43V6A4.948,4.948,0,0,0,9.974,3H44a3,3,0,0,1,3,3v5.351a3.454,3.454,0,0,0-4.821,2.1A3.463,3.463,0,0,0,40.5,13c-.062,0-.119.015-.18.018A12.014,12.014,0,1,0,37,25.931v2.547A13.874,13.874,0,0,1,29,31,14.015,14.015,0,0,1,15,17H13A16.019,16.019,0,0,0,29,33a15.858,15.858,0,0,0,8.188-2.262A8.938,8.938,0,0,0,42,37.065V47H18a1,1,0,0,0-1,1V58a3,3,0,1,1-6,0Zm31-9V61H17.974A4.948,4.948,0,0,0,19,58V49ZM61,29a6.975,6.975,0,0,1-4.375,6.491,1,1,0,0,0-.625.927V61H44V36.419a1,1,0,0,0-.625-.927A6.977,6.977,0,0,1,39,29V26.649a3.446,3.446,0,0,0,4-.707,3.483,3.483,0,0,0,5,0,3.483,3.483,0,0,0,5,0,3.429,3.429,0,0,0,3,1.018v.111A7.011,7.011,0,0,0,50,34h2a5.006,5.006,0,0,1,5-5,1,1,0,0,0,1-1V22a1,1,0,0,0-1-1H53.5a1.5,1.5,0,0,1,0-3H58a3,3,0,0,1,3,3Z"/>
      <path id="Path_990955" data-name="Path 990955" d="M15,36H37v2H15Z"/>
      <path id="Path_990956" data-name="Path 990956" d="M15,40H38v2H15Z"/>
    </g>
  </g>
</svg>
