<svg xmlns="http://www.w3.org/2000/svg" width="203" height="131" viewBox="0 0 203 131">
  <g id="img38" transform="translate(-205.711 -11203)">
    <rect id="Rectangle_454653" data-name="Rectangle 454653" width="203" height="131" transform="translate(205.711 11203)" fill="#a8b8ff"/>
    <circle id="Ellipse_13589" data-name="Ellipse 13589" cx="37.5" cy="37.5" r="37.5" transform="translate(269.711 11234.999)" fill="#e5eaff"/>
    <circle id="Ellipse_13590" data-name="Ellipse 13590" cx="51" cy="51" r="51" transform="translate(256.711 11220.999)" fill="none" stroke="#e5eaff" stroke-width="1"/>
    <circle id="Ellipse_13591" data-name="Ellipse 13591" cx="4" cy="4" r="4" transform="translate(273.711 11226.999)" fill="#2142dc"/>
    <g id="Group_1182190" data-name="Group 1182190" transform="translate(240.04 11226.161)">
      <g id="Group_1182192" data-name="Group 1182192" transform="translate(31.575 1.236)">
        <g id="Group_1182191" data-name="Group 1182191" transform="translate(0)">
          <path id="Path_991076" data-name="Path 991076" d="M0,0H14.4V18.645H0Z" transform="translate(46.673 10.34) rotate(-19.993)" fill="#fd9468"/>
          <path id="Path_991077" data-name="Path 991077" d="M0,0H4.436V18.645H0Z" transform="translate(56.043 6.93) rotate(-19.993)" fill="#fe7d43"/>
          <path id="Path_991078" data-name="Path 991078" d="M297.557,18.024,296.4,14.851a.807.807,0,0,1,.483-1.035L314.1,7.549a.807.807,0,0,1,1.035.483l1.155,3.173a.807.807,0,0,1-.483,1.035l-17.218,6.267A.807.807,0,0,1,297.557,18.024Z" transform="translate(-253.777 -7.5)" fill="#ae6c6c"/>
          <path id="Path_991079" data-name="Path 991079" d="M346.643,152.886l-1.155-3.173a.807.807,0,0,1,.483-1.035l17.218-6.267a.807.807,0,0,1,1.035.483l1.155,3.173a.807.807,0,0,1-.483,1.035l-17.218,6.267A.807.807,0,0,1,346.643,152.886Z" transform="translate(-294.779 -120.151)" fill="#ae6c6c"/>
          <path id="Path_991080" data-name="Path 991080" d="M385.328,11.2l-1.155-3.173a.807.807,0,0,0-1.035-.483L379,9.055a.814.814,0,0,1,1.048.478l1.155,3.173a.814.814,0,0,1-.5,1.039l4.138-1.506A.807.807,0,0,0,385.328,11.2Z" transform="translate(-322.813 -7.5)" fill="#9b5e5e"/>
          <path id="Path_991081" data-name="Path 991081" d="M434.413,146.067l-1.155-3.173a.807.807,0,0,0-1.035-.483l-4.138,1.506a.814.814,0,0,1,1.048.478l1.155,3.173a.814.814,0,0,1-.5,1.039l4.138-1.506A.807.807,0,0,0,434.413,146.067Z" transform="translate(-363.814 -120.151)" fill="#9b5e5e"/>
          <path id="Path_991082" data-name="Path 991082" d="M314.629,251.269v-5.73a2,2,0,0,1,2-2h19.234a2,2,0,0,1,2,2v5.73Z" transform="translate(-269.043 -204.662)" fill="#00f2a6"/>
          <path id="Path_991083" data-name="Path 991083" d="M422.693,243.535h-4.117a2,2,0,0,1,2,2v5.73H424.7v-5.73A2,2,0,0,0,422.693,243.535Z" transform="translate(-355.87 -204.661)" fill="#0ed290"/>
          <path id="Path_991084" data-name="Path 991084" d="M296.208,291.3v4.456a.807.807,0,0,0,.807.807h27.693a.807.807,0,0,0,.807-.807V291.3a.807.807,0,0,0-.807-.807H297.015A.807.807,0,0,0,296.208,291.3Z" transform="translate(-253.656 -243.882)" fill="#ae6c6c"/>
          <path id="Path_991085" data-name="Path 991085" d="M448.374,290.489h-4.117a.807.807,0,0,1,.807.807v4.456a.807.807,0,0,1-.807.807h4.117a.807.807,0,0,0,.807-.807V291.3A.807.807,0,0,0,448.374,290.489Z" transform="translate(-377.322 -243.882)" fill="#9b5e5e"/>
          <path id="Path_991086" data-name="Path 991086" d="M228.871,107.115l1.958,5.38-20.2,7.351a.969.969,0,0,1-1.242-.579l-1.3-3.56a.969.969,0,0,1,.579-1.242Z" transform="translate(-180.005 -90.709)" fill="#ae6c6c"/>
          <g id="Group_1182190-2" data-name="Group 1182190" transform="translate(0 30.52)">
            <path id="Path_991087" data-name="Path 991087" d="M141.96,192.808V207.38h5.735v-11.4a3.175,3.175,0,0,0-3.175-3.175Z" transform="translate(-124.812 -192.808)" fill="#fd9468"/>
            <path id="Path_991088" data-name="Path 991088" d="M171.2,263.366H141.96V271.9a14.031,14.031,0,0,1,13.9,12.165H171.2a1.49,1.49,0,0,0,1.49-1.49v-17.72A1.49,1.49,0,0,0,171.2,263.366Z" transform="translate(-124.812 -251.745)" fill="#62dbfb"/>
            <path id="Path_991089" data-name="Path 991089" d="M298.622,263.366h-4.117a1.49,1.49,0,0,1,1.49,1.49v17.72a1.49,1.49,0,0,1-1.49,1.49h4.117a1.49,1.49,0,0,0,1.49-1.49v-17.72A1.49,1.49,0,0,0,298.622,263.366Z" transform="translate(-252.233 -251.745)" fill="#01c0fa"/>
            <path id="Path_991090" data-name="Path 991090" d="M54.989,296.262A17.148,17.148,0,1,0,72.137,313.41,17.167,17.167,0,0,0,54.989,296.262Zm0,28.874A11.726,11.726,0,1,1,66.715,313.41,11.726,11.726,0,0,1,54.989,325.136Z" transform="translate(-37.841 -279.223)" fill="#3692bc"/>
            <circle id="Ellipse_13589-2" data-name="Ellipse 13589" cx="3.034" cy="3.034" r="3.034" transform="translate(14.114 31.153)" fill="#fe93bb"/>
            <circle id="Ellipse_13590-2" data-name="Ellipse 13590" cx="3.862" cy="3.862" r="3.862" transform="translate(40.091 50.976) rotate(-84.318)" fill="#3692bc"/>
          </g>
        </g>
      </g>
      <g id="Group_1182193" data-name="Group 1182193" transform="translate(30.34 0.001)">
        <path id="Path_991091" data-name="Path 991091" d="M102.628,183.339h-.991v-4.495A3.242,3.242,0,0,0,98.4,175.6H94.517a1.235,1.235,0,0,0,0,2.47H98.4a.769.769,0,0,1,.767.769v4.495H80.689V181.6A2.726,2.726,0,0,0,78.4,178.91v-.066a.769.769,0,0,1,.767-.769h9.589a1.235,1.235,0,0,0,0-2.47H79.164a3.242,3.242,0,0,0-3.238,3.24v.028H55.693v-7.21a4.416,4.416,0,0,0-4.411-4.411H49.954a3.758,3.758,0,0,0-3.748-3.561H40.426a1.235,1.235,0,1,0,0,2.47h5.779a1.284,1.284,0,0,1,1.283,1.283v16.888A18.39,18.39,0,0,0,31,207.548a1.235,1.235,0,0,0,2.382-.656,15.914,15.914,0,1,1,31.162-5.961v0a15.909,15.909,0,0,1-28.9,10.785,1.235,1.235,0,0,0-2.03,1.408,18.379,18.379,0,0,0,33.5-10.456c0-.211,0-.421-.012-.631h7.549v8.972a5.1,5.1,0,1,0,2.47,0V209.04h6.877a3.617,3.617,0,0,0,2.705-1.217l4.464-5.038a1.235,1.235,0,0,0-1.849-1.639l-4.464,5.038a1.145,1.145,0,0,1-.856.385H77.114v-4.528h.851a2.727,2.727,0,0,0,2.724-2.724V191.88h21.939a2.044,2.044,0,0,0,2.042-2.042v-4.457a2.044,2.044,0,0,0-2.042-2.042Zm-24.123,32.62a2.627,2.627,0,1,1-2.627-2.627A2.63,2.63,0,0,1,78.505,215.959Zm-25.282-44.3v7.21H49.959v-9.151h1.324a1.942,1.942,0,0,1,1.94,1.94Zm25,27.656a.254.254,0,0,1-.254.254H66.844a18.418,18.418,0,0,0-16.885-15.24v-2.989H77.965a.254.254,0,0,1,.254.254ZM102.2,189.41H80.689v-3.6H102.2Z" transform="translate(-30.34 -136.732)"/>
        <path id="Path_991092" data-name="Path 991092" d="M201.965,30.217a2.2,2.2,0,0,0,2.825,1.317l19.036-6.929,1.364,3.749-.681.248a2.042,2.042,0,0,0-1.22,2.618l1.155,3.173a2.045,2.045,0,0,0,2.618,1.221l17.218-6.267A2.042,2.042,0,0,0,245.5,26.73l-1.155-3.173a2.042,2.042,0,0,0-2.618-1.221l-.681.248-5.532-15.2.681-.248a2.045,2.045,0,0,0,1.22-2.618l-1.155-3.173A2.045,2.045,0,0,0,233.643.124L216.426,6.391A2.042,2.042,0,0,0,215.2,9.009l1.155,3.173a2.045,2.045,0,0,0,2.618,1.221l.681-.248,1.364,3.749-19.036,6.929a2.207,2.207,0,0,0-1.317,2.825ZM242.171,24.8l.862,2.369-16.414,5.974-.862-2.369ZM218.535,10.935l-.862-2.369,16.414-5.974.862,2.369Zm14.659-2.706,5.532,15.2-11.214,4.082-5.532-15.2Zm-11.326,11,1.113,3.059L204.2,29.122l-1.113-3.059Z" transform="translate(-172.505 -0.001)"/>
        <path id="Path_991093" data-name="Path 991093" d="M65.05,341.2a12.959,12.959,0,1,0-.108-.187,1.228,1.228,0,0,0,.058.112C65.015,341.155,65.033,341.178,65.05,341.2Zm11.174-8.354a1.8,1.8,0,1,1-1.8,1.8A1.8,1.8,0,0,1,76.224,332.849Zm10.491,1.8a10.428,10.428,0,0,1-.852,4.138L80.38,335.62a4.24,4.24,0,0,0,0-1.946l5.482-3.165A10.432,10.432,0,0,1,86.714,334.648Zm-14.646.973-5.482,3.165a10.473,10.473,0,0,1,0-8.276l5.482,3.165a4.24,4.24,0,0,0,0,1.946Zm-4.245,5.3,5.482-3.165a4.27,4.27,0,0,0,1.683.975v6.329A10.493,10.493,0,0,1,67.823,340.924Zm9.636,4.139v-6.329a4.271,4.271,0,0,0,1.683-.975l5.482,3.165A10.493,10.493,0,0,1,77.459,345.063Zm7.165-16.692-5.482,3.165a4.269,4.269,0,0,0-1.683-.975v-6.329A10.5,10.5,0,0,1,84.625,328.371Zm-9.636-4.139v6.329a4.268,4.268,0,0,0-1.683.975l-5.482-3.165a10.494,10.494,0,0,1,7.165-4.139Z" transform="translate(-57.841 -268.706)"/>
      </g>
    </g>
  </g>
</svg>
