<svg xmlns="http://www.w3.org/2000/svg" width="120" height="120" viewBox="0 0 120 120">
  <g id="img35" transform="translate(-388.711 -10669)">
    <rect id="Rectangle_402033" data-name="Rectangle 402033" width="120" height="120" rx="10" transform="translate(388.711 10669)" fill="#2142dc"/>
    <rect id="Rectangle_454167" data-name="Rectangle 454167" width="100" height="100" rx="10" transform="translate(398.711 10679)" fill="#bcc6f5"/>
    <g id="Group_1182140" data-name="Group 1182140" transform="translate(410.913 10691.624)">
      <g id="Group_1182138" data-name="Group 1182138" transform="translate(1.588 1.095)">
        <path id="Path_991011" data-name="Path 991011" d="M45.883,114.5a31.786,31.786,0,0,0,24.2,52.4q.869,0,1.728-.047l7.069-7.069V145.167l-11.952-5.331V118.6Z" transform="translate(-33.868 -98.877)" fill="#696eaf"/>
        <path id="Path_991012" data-name="Path 991012" d="M266.187,149.945a31.811,31.811,0,0,0-4.3-34.246l-27.5,3.93v21.232l11.952,5.331Z" transform="translate(-201.34 -99.902)" fill="#696eaf"/>
        <path id="Path_991013" data-name="Path 991013" d="M78.61,198.033A37.107,37.107,0,0,1,41.5,160.927c0-.273,0-.546.01-.818a31.8,31.8,0,0,0,28.565,45.742q.869,0,1.728-.047l7.069-7.069v-.705C78.787,198.031,78.7,198.033,78.61,198.033Z" transform="translate(-33.868 -137.828)" fill="#4c5696"/>
        <path id="Path_991014" data-name="Path 991014" d="M143.121,83.575a31.791,31.791,0,0,1-26.91,17.933l-.826-2a2.985,2.985,0,0,1,1.027-3.565,2.977,2.977,0,0,0,1.253-2.429,3.971,3.971,0,0,0-.807-3.054l-1.557-1.66a2.982,2.982,0,0,1-.288-3.72l.418-.612a2.983,2.983,0,0,0-1.533-4.514l-4.519-1.484a1.776,1.776,0,0,1-.983-.8l-3.1-5.332a1.778,1.778,0,0,0-3.051-.04l-.742,1.2a1.779,1.779,0,0,1-3.236-1.383l1.6-6.144a1.778,1.778,0,0,1,.907-1.133l3.27-1.683a1.777,1.777,0,0,0,.922-1.967,3.445,3.445,0,0,0-2.782-2.649c-1.67-.349-2.739-.274-4.077-1.086l-4.746-2.88a5.488,5.488,0,0,1-2.421-3.157l-.659-2.262h0a31.785,31.785,0,0,1,48.537.177l-1.292,2.3a3.1,3.1,0,0,1-2.455,1.572,3.1,3.1,0,0,0-2.484,1.624l-1.183,2.2a3.1,3.1,0,0,1-2.955,1.627c-.739-.049-.878-.073-1.23-.073a5.756,5.756,0,0,0-4.241,1.864c-2.16,2.358-1.122,4.861-2.9,7.223l-2.7,3.6a1.876,1.876,0,0,0,.4,2.643l2.337,1.695a1.88,1.88,0,0,0,1.573.3c3.193-.8,3.4-.967,4.18-.967a3.623,3.623,0,0,1,2.584,1.082c1.959,1.991,4.1.424,6.126,1.506a19.733,19.733,0,0,1,2.377,1.319Z" transform="translate(-78.273 -33.531)" fill="#71d9b8"/>
        <path id="Path_991015" data-name="Path 991015" d="M255.792,36.145c-2.9,1.961-5.676,1-7.612-.3a1.688,1.688,0,0,1,.174-2.906,6.351,6.351,0,0,0,.814-.489,5.423,5.423,0,0,0,2.211-3.963,5.4,5.4,0,0,1,9.106-3.4Z" transform="translate(-212.473 -21.247)" fill="#fd8b9b"/>
        <path id="Path_991016" data-name="Path 991016" d="M304.986,20.88a14.553,14.553,0,0,1,29.011,0l-14.505,2.883Z" transform="translate(-261.624 -7.5)" fill="#fd8b9b"/>
        <path id="Path_991017" data-name="Path 991017" d="M317.056,8.891a14.558,14.558,0,0,0-12.07,13.177l4.22.839A17.334,17.334,0,0,1,317.056,8.891Z" transform="translate(-261.624 -8.688)" fill="#e75b70"/>
        <path id="Path_991018" data-name="Path 991018" d="M333.77,68.588a14.552,14.552,0,1,1-29.1,0c0-.394.016-.786.047-1.172,3.52-.11,10.045-.964,14.505-5.424,4.46,4.46,10.985,5.314,14.505,5.424C333.753,67.8,333.77,68.194,333.77,68.588Z" transform="translate(-261.35 -54.036)" fill="#ffdcce"/>
        <path id="Path_991019" data-name="Path 991019" d="M8.242,340.263a14.032,14.032,0,0,0-.2,1.515c-.031.386-.047.778-.047,1.172a14.552,14.552,0,1,0,29.1,0c0-.394-.016-.786-.047-1.172a14.4,14.4,0,0,0-.2-1.515l-14.3-7.892Z" transform="translate(-7.993 -284.939)" fill="#da9d81"/>
        <path id="Path_991020" data-name="Path 991020" d="M12.564,372.264a17.349,17.349,0,0,1,.849-5.375l-5.17,2.853a14.032,14.032,0,0,0-.2,1.515c-.031.386-.047.779-.047,1.172a14.556,14.556,0,0,0,12.483,14.405A17.352,17.352,0,0,1,12.564,372.264Z" transform="translate(-7.994 -314.417)" fill="#c7856a"/>
        <path id="Path_991021" data-name="Path 991021" d="M24,305.158A14.555,14.555,0,0,0,9.7,317.024h7.2a3,3,0,0,0,2.122-.879l2.864-2.864a3,3,0,0,1,4.244,0l2.864,2.864a3,3,0,0,0,2.122.879h7.2A14.556,14.556,0,0,0,24,305.158Z" transform="translate(-9.451 -261.699)" fill="#475066"/>
        <path id="Path_991022" data-name="Path 991022" d="M268.494,399.209a37.4,37.4,0,0,1-5.358-.387c0,.057,0,.11.009.158a2.977,2.977,0,0,1-1.253,2.429,2.985,2.985,0,0,0-1.027,3.565l.826,2a31.717,31.717,0,0,0,22.616-11.3,36.96,36.96,0,0,1-15.812,3.531Z" transform="translate(-223.752 -339.003)" fill="#30ca99"/>
        <path id="Path_991023" data-name="Path 991023" d="M21.3,306.894A14.564,14.564,0,0,0,9.7,318.506h4.5A17.36,17.36,0,0,1,21.3,306.894Z" transform="translate(-9.452 -263.182)" fill="#303646"/>
        <path id="Path_991024" data-name="Path 991024" d="M308.924,97.8A17.531,17.531,0,0,1,309.018,96a28.832,28.832,0,0,1-4.3.46c-.031.386-.047.778-.047,1.172a14.558,14.558,0,0,0,11.413,14.212A17.323,17.323,0,0,1,308.924,97.8Z" transform="translate(-261.351 -83.075)" fill="#ffcabd"/>
      </g>
      <g id="Group_1182139" data-name="Group 1182139" transform="translate(0.493 0)">
        <path id="Path_991025" data-name="Path 991025" d="M347.759,115.518a1.1,1.1,0,0,0-1.095,1.1v1.408a1.1,1.1,0,1,0,2.19,0v-1.408A1.1,1.1,0,0,0,347.759,115.518Z" transform="translate(-296.122 -98.652)"/>
        <path id="Path_991026" data-name="Path 991026" d="M448.1,115.518a1.1,1.1,0,0,0-1.1,1.1v1.408a1.1,1.1,0,1,0,2.19,0v-1.408A1.1,1.1,0,0,0,448.1,115.518Z" transform="translate(-381.814 -98.652)"/>
        <path id="Path_991027" data-name="Path 991027" d="M389.284,125.141a1.1,1.1,0,0,0-1.545.106,1.464,1.464,0,0,1-2.211,0,1.1,1.1,0,1,0-1.651,1.439,3.654,3.654,0,0,0,5.514,0A1.1,1.1,0,0,0,389.284,125.141Z" transform="translate(-327.671 -106.64)"/>
        <path id="Path_991028" data-name="Path 991028" d="M51.089,413.179a1.1,1.1,0,0,0-1.1,1.1v1.408a1.1,1.1,0,1,0,2.19,0v-1.408A1.1,1.1,0,0,0,51.089,413.179Z" transform="translate(-42.767 -352.853)"/>
        <path id="Path_991029" data-name="Path 991029" d="M151.432,413.179a1.1,1.1,0,0,0-1.1,1.1v1.408a1.1,1.1,0,0,0,2.19,0v-1.408A1.1,1.1,0,0,0,151.432,413.179Z" transform="translate(-128.459 -352.853)"/>
        <path id="Path_991030" data-name="Path 991030" d="M92.615,422.8a1.1,1.1,0,0,0-1.545.106,1.465,1.465,0,0,1-2.211,0,1.1,1.1,0,0,0-1.651,1.439,3.655,3.655,0,0,0,5.514,0A1.1,1.1,0,0,0,92.615,422.8Z" transform="translate(-74.317 -360.841)"/>
        <path id="Path_991031" data-name="Path 991031" d="M193.437,15.647c0-.417-.017-.84-.05-1.259h0A15.647,15.647,0,0,0,167.909,3.515a6.5,6.5,0,0,0-8.63,1.088c-1.044-.1-2.1-.152-3.146-.152A32.864,32.864,0,0,0,139.6,8.9a1.1,1.1,0,1,0,1.1,1.892,30.73,30.73,0,0,1,17.367-4.1,6.732,6.732,0,0,0-.333,1.533,4.287,4.287,0,0,1-2.425,3.576,2.782,2.782,0,0,0-.292,4.8,7.693,7.693,0,0,0,7.258,1.129,15.5,15.5,0,0,0,3.566,8.022,6.958,6.958,0,0,0-2.02,1.51c-2.406,2.627-1.418,5.245-2.968,7.306l-2.7,3.6a2.974,2.974,0,0,0,.634,4.185c2.4,1.735,2.361,1.729,2.617,1.874a2.957,2.957,0,0,0,2.2.293c3.375-.842,3.348-.934,3.916-.934a2.512,2.512,0,0,1,1.8.755c2.317,2.355,4.789.85,6.386,1.7,3.372,1.819.547.028,7.669,5.408a30.644,30.644,0,0,1-11.985,12.5,1.1,1.1,0,0,0,1.091,1.9,32.915,32.915,0,0,0,15.119-38.041,15.624,15.624,0,0,0,5.825-12.17ZM177.79,2.19a13.462,13.462,0,0,1,13.255,11.121c-4.5-.338-9.245-1.8-12.481-5.034a1.1,1.1,0,0,0-1.549,0c-3.2,3.2-7.919,4.692-12.481,5.034A13.463,13.463,0,0,1,177.79,2.19ZM162.145,15.381c-1.986,1.087-4,.677-5.907-.6a.593.593,0,0,1,.056-1.016,6.491,6.491,0,0,0,3.625-5.328,4.3,4.3,0,0,1,6.344-3.375A15.608,15.608,0,0,0,162.145,15.381Zm22.2,34.05c-6.987-5.241-3.913-3.328-7.594-5.313-2.36-1.258-4.329.25-5.86-1.307a4.749,4.749,0,0,0-3.364-1.409c-1.083,0-1.721.351-4.472,1a.782.782,0,0,1-.639-.126l-2.337-1.694a.781.781,0,0,1-.166-1.1l2.7-3.6c1.72-2.285,1.183-4.542,2.255-6.366a4.639,4.639,0,0,1,2.651-2.076,15.627,15.627,0,0,0,10.271,3.847h.013a15.589,15.589,0,0,0,7.917-2.154,30.7,30.7,0,0,1,1.107,8.191,30.4,30.4,0,0,1-2.476,12.1ZM177.8,29.1h-.008a13.47,13.47,0,0,1-13.451-13.584c4.864-.331,9.724-1.738,13.455-4.971,3.751,3.251,8.505,4.611,13.457,4.971A13.473,13.473,0,0,1,177.8,29.1Z" transform="translate(-118.828 0)"/>
        <path id="Path_991032" data-name="Path 991032" d="M.761,122.1a15.164,15.164,0,0,0-.218,1.629,15.642,15.642,0,0,0,27.838,10.993,32.979,32.979,0,0,0,21.451-.9,1.095,1.095,0,1,0-.8-2.038,30.511,30.511,0,0,1-8.791,2.025l-.526-1.277a1.88,1.88,0,0,1,.648-2.255,4.055,4.055,0,0,0,1.706-3.47,4.665,4.665,0,0,0-1.094-3.655l-1.557-1.66a1.9,1.9,0,0,1-.182-2.354A8.319,8.319,0,0,0,40,117.9a4.079,4.079,0,0,0-2.448-5.546c-4.63-1.582-4.665-1.391-4.9-1.79l-3.1-5.331a2.873,2.873,0,0,0-4.93-.065l-.741,1.2a.685.685,0,0,1-1.245-.53L24.248,99.7a.682.682,0,0,1,.348-.434l3.269-1.683c2.909-1.491,1.428-6.037-2.154-6.666-1.7-.353-2.6-.268-3.714-.947l-4.745-2.88c-2.044-1.242-2.034-3.273-2.431-4.217A31,31,0,0,1,18.812,79.1a1.1,1.1,0,1,0-1.356-1.72,33.145,33.145,0,0,0-4.687,4.506l-.015.02A32.917,32.917,0,0,0,6.338,112.8,15.583,15.583,0,0,0,.761,122.1ZM16.14,138.45A13.471,13.471,0,0,1,2.726,123.907q.02-.254.05-.506H9.032a4.073,4.073,0,0,0,2.9-1.2l2.864-2.864a1.912,1.912,0,0,1,2.7,0l2.864,2.864a4.069,4.069,0,0,0,2.9,1.2H29.5c.02.17.036.321.051.506A13.473,13.473,0,0,1,16.14,138.45Zm-3-53.511a6.6,6.6,0,0,0,2.972,4.02l4.745,2.88c2.3,1.395,4.5.711,5.686,1.843a2.289,2.289,0,0,1,.688,1.309.69.69,0,0,1-.371.641c-3.2,1.7-3.455,1.656-4.022,2.244-.8.828-.62,1.133-2.319,7.414a2.874,2.874,0,0,0,5.228,2.233l.742-1.2a.683.683,0,0,1,1.172.015l3.1,5.331a2.871,2.871,0,0,0,1.589,1.288l4.519,1.484a1.9,1.9,0,0,1,1.2,1.186c.589,1.731-1.345,2.1-1.361,4.559-.013,2.083,1.249,2.88,2.666,4.47.726.775.452,1.624.51,2.35a1.888,1.888,0,0,1-.794,1.493,4.062,4.062,0,0,0-1.4,4.874l.222.539a30.7,30.7,0,0,1-8.22-1.084,15.625,15.625,0,0,0,2.048-9.091h0A15.652,15.652,0,0,0,9.532,110.807c-.686.319-1.226.644-1.3.681a30.744,30.744,0,0,1,4.907-26.55Zm3,26.6h.023a13.454,13.454,0,0,1,12.894,9.675H23.248a1.893,1.893,0,0,1-1.347-.558l-2.864-2.864a4.1,4.1,0,0,0-5.762-.029l-.03.029c-2.745,2.65-2.834,3.013-3.49,3.281-.605.248-.559.1-6.532.141a13.469,13.469,0,0,1,12.918-9.675Z" transform="translate(-0.493 -65.886)"/>
      </g>
    </g>
  </g>
</svg>
