<svg xmlns="http://www.w3.org/2000/svg" width="120" height="120" viewBox="0 0 120 120">
  <g id="img37" transform="translate(-388.711 -10669)">
    <rect id="Rectangle_402033" data-name="Rectangle 402033" width="120" height="120" rx="10" transform="translate(388.711 10669)" fill="#2142dc"/>
    <rect id="Rectangle_454167" data-name="Rectangle 454167" width="100" height="100" rx="10" transform="translate(398.711 10679)" fill="#bcc6f5"/>
    <g id="Group_1182189" data-name="Group 1182189" transform="translate(369.042 10699.504)">
      <g id="Group_1182161" data-name="Group 1182161" transform="translate(74.192 6.36)">
        <path id="Path_991052" data-name="Path 991052" d="M217.591,89.973h6.971v5.31h-6.971Z" transform="translate(-217.591 -89.973)" fill="#ffcbbe"/>
      </g>
      <g id="Group_1182162" data-name="Group 1182162" transform="translate(79.167 6.36)">
        <path id="Path_991053" data-name="Path 991053" d="M252.48,89.973h2v5.31h-2Z" transform="translate(-252.48 -89.973)" fill="#fdad9d"/>
      </g>
      <g id="Group_1182163" data-name="Group 1182163" transform="translate(69.174 -7.545)">
        <ellipse id="Ellipse_13588" data-name="Ellipse 13588" cx="5.958" cy="7.027" rx="5.958" ry="7.027" transform="matrix(0.89, -0.456, 0.456, 0.89, 0, 5.433)" fill="#ffcbbe"/>
      </g>
      <g id="Group_1182164" data-name="Group 1182164" transform="translate(75.615 -5.406)">
        <path id="Path_991054" data-name="Path 991054" d="M234.93,11.558c-1.548-3.018-4.652-4.607-7.364-3.958a7.67,7.67,0,0,1,3.879,3.648c1.771,3.454.833,7.47-2.095,8.972a5.106,5.106,0,0,1-1.144.423,5.514,5.514,0,0,0,4.629-.114c2.928-1.5,3.866-5.518,2.095-8.972Z" transform="translate(-227.566 -7.456)" fill="#fdad9d"/>
      </g>
      <g id="Group_1182165" data-name="Group 1182165" transform="translate(69.745 10.571)">
        <path id="Path_991055" data-name="Path 991055" d="M202.265,144.714H186.4V125.233a5.728,5.728,0,0,1,5.727-5.727h4.411a5.728,5.728,0,0,1,5.727,5.727v19.481Z" transform="translate(-186.399 -119.506)" fill="#95d6a4"/>
      </g>
      <g id="Group_1182166" data-name="Group 1182166" transform="translate(76.411 10.571)">
        <path id="Path_991056" data-name="Path 991056" d="M236.639,119.507h-3.485a5.714,5.714,0,0,1,5.714,5.714v19.494h3.485V125.221A5.714,5.714,0,0,0,236.639,119.507Z" transform="translate(-233.154 -119.507)" fill="#78c2a4"/>
      </g>
      <g id="Group_1182167" data-name="Group 1182167" transform="translate(71.481 -5.406)">
        <path id="Path_991057" data-name="Path 991057" d="M202.615,13.37a2.28,2.28,0,0,1,2.28-2.28h4.917c-1.863-3.124-5.455-4.5-8.247-3.066-2.837,1.455-3.805,5.271-2.252,8.648a3.3,3.3,0,0,0,3.3-3.3Z" transform="translate(-198.576 -7.456)" fill="#756e78"/>
      </g>
      <g id="Group_1182168" data-name="Group 1182168" transform="translate(75.617 -5.405)">
        <path id="Path_991058" data-name="Path 991058" d="M231.371,11.1h3.31c-1.617-2.711-4.534-4.1-7.1-3.489A7.645,7.645,0,0,1,231.371,11.1Z" transform="translate(-227.58 -7.465)" fill="#665e66"/>
      </g>
      <g id="Group_1182169" data-name="Group 1182169" transform="translate(92.436 51.502)">
        <path id="Path_991059" data-name="Path 991059" d="M359.967,410.721l-4.03-1.307a1.054,1.054,0,0,1-.729-1v-.67l-.427-1.175h-8.814l-.427,1.175v4.891a2.233,2.233,0,0,0,2.233,2.233h11.72a1.537,1.537,0,0,0,1.537-1.537v-1.145a1.537,1.537,0,0,0-1.063-1.462Z" transform="translate(-345.54 -406.566)" fill="#aa7a63"/>
      </g>
      <g id="Group_1182170" data-name="Group 1182170" transform="translate(97.974 51.502)">
        <path id="Path_991060" data-name="Path 991060" d="M393.267,410.721l-4.03-1.307a1.054,1.054,0,0,1-.729-1v-.67l-.427-1.175h-3.7v1.845a1.054,1.054,0,0,0,.729,1l4.03,1.307a1.537,1.537,0,0,1,1.063,1.462v1.145a1.537,1.537,0,0,1-1.537,1.537h4.13a1.537,1.537,0,0,0,1.537-1.537v-1.145A1.537,1.537,0,0,0,393.267,410.721Z" transform="translate(-384.378 -406.566)" fill="#986b54"/>
      </g>
      <g id="Group_1182171" data-name="Group 1182171" transform="translate(69.745 32.311)">
        <path id="Path_991061" data-name="Path 991061" d="M209.09,282.4v9.941h9.668V277.319a5.344,5.344,0,0,0-5.344-5.344H186.4v4.747a4.921,4.921,0,0,0,4.921,4.921h17.013a.757.757,0,0,1,.757.757Z" transform="translate(-186.399 -271.975)" fill="#5766cb"/>
      </g>
      <g id="Group_1182172" data-name="Group 1182172" transform="translate(92.63 32.311)">
        <path id="Path_991062" data-name="Path 991062" d="M352.241,277.319v15.022h4.13V277.319a5.344,5.344,0,0,0-5.344-5.344H346.9A5.344,5.344,0,0,1,352.241,277.319Z" transform="translate(-346.897 -271.975)" fill="#3d4fc3"/>
      </g>
      <g id="Group_1182174" data-name="Group 1182174" transform="translate(60.05 19.536)">
        <g id="Group_1182173" data-name="Group 1182173" transform="translate(0)">
          <path id="Path_991063" data-name="Path 991063" d="M164.153,226.91H148.638a2.134,2.134,0,0,1-2.134-2.134V212.017a2.919,2.919,0,0,0-2.915-2.916H125.93a2.134,2.134,0,0,1-2.134-2.134V186.644h-3.251a2.134,2.134,0,1,1,0-4.267h5.385a2.134,2.134,0,0,1,2.134,2.134v20.324h15.525a7.191,7.191,0,0,1,7.183,7.183v10.625h13.381a2.134,2.134,0,0,1,0,4.268Z" transform="translate(-118.411 -182.377)" fill="#756e78"/>
        </g>
      </g>
      <g id="Group_1182178" data-name="Group 1182178" transform="translate(65.409 19.536)">
        <g id="Group_1182175" data-name="Group 1182175" transform="translate(38.223 40.266)">
          <path id="Path_991064" data-name="Path 991064" d="M426.217,464.769h-2.16a2.134,2.134,0,1,1,0,4.267h2.16a2.134,2.134,0,0,0,0-4.267Z" transform="translate(-424.057 -464.769)" fill="#665e66"/>
        </g>
        <g id="Group_1182176" data-name="Group 1182176" transform="translate(17.659 22.457)">
          <path id="Path_991065" data-name="Path 991065" d="M287.017,347.058V356.4a1.286,1.286,0,0,0,1.286,1.286h.874V347.058a7.183,7.183,0,0,0-7.183-7.183h-2.16A7.191,7.191,0,0,1,287.017,347.058Z" transform="translate(-279.834 -339.875)" fill="#665e66"/>
        </g>
        <g id="Group_1182177" data-name="Group 1182177" transform="translate(0)">
          <path id="Path_991066" data-name="Path 991066" d="M158.124,184.511v20.324h2.16V184.511a2.134,2.134,0,0,0-2.134-2.134h-2.16A2.133,2.133,0,0,1,158.124,184.511Z" transform="translate(-155.99 -182.377)" fill="#665e66"/>
        </g>
      </g>
      <g id="Group_1182180" data-name="Group 1182180" transform="translate(51.412 33.481)">
        <g id="Group_1182179" data-name="Group 1182179" transform="translate(0)">
          <path id="Path_991067" data-name="Path 991067" d="M73.821,312.166a15.994,15.994,0,1,1,15.994-15.994A16.012,16.012,0,0,1,73.821,312.166Zm0-27.721a11.727,11.727,0,1,0,11.727,11.727A11.74,11.74,0,0,0,73.821,284.446Z" transform="translate(-57.827 -280.178)" fill="#756e78"/>
        </g>
      </g>
      <g id="Group_1182182" data-name="Group 1182182" transform="translate(55.147 37.216)">
        <g id="Group_1182181" data-name="Group 1182181">
          <path id="Path_991068" data-name="Path 991068" d="M106.54,306.373a15.985,15.985,0,0,1-22.519,22.519,15.987,15.987,0,1,0,22.519-22.519Z" transform="translate(-84.021 -306.373)" fill="#665e66"/>
        </g>
      </g>
      <g id="Group_1182183" data-name="Group 1182183" transform="translate(94.888 30.589)">
        <path id="Path_991069" data-name="Path 991069" d="M366.11,259.895l1.991,1.825a6.39,6.39,0,0,1,2.052,4.2l.073.9a.607.607,0,0,1-.936.557l-6.553-4.264Z" transform="translate(-362.737 -259.895)" fill="#ffcbbe"/>
      </g>
      <g id="Group_1182184" data-name="Group 1182184" transform="translate(97.155 30.589)">
        <path id="Path_991070" data-name="Path 991070" d="M383.855,266.82l-.073-.9a6.39,6.39,0,0,0-2.052-4.2L379.74,259.9l-1.107,1.056.839.769a6.39,6.39,0,0,1,2.052,4.2l.047.582,1.349.878A.607.607,0,0,0,383.855,266.82Z" transform="translate(-378.633 -259.895)" fill="#fdad9d"/>
      </g>
      <g id="Group_1182186" data-name="Group 1182186" transform="translate(72.882 14.414)">
        <g id="Group_1182185" data-name="Group 1182185">
          <path id="Path_991071" data-name="Path 991071" d="M231.252,167.086a.565.565,0,0,1-.763.037,6.314,6.314,0,0,0-4.12-1.514h-9.922a8.042,8.042,0,0,1-8.042-8.042v-7.909a3.2,3.2,0,1,1,6.4,0v7.909a1.64,1.64,0,0,0,1.64,1.64h9.922a12.671,12.671,0,0,1,8.6,3.328.57.57,0,0,1,.017.822Z" transform="translate(-208.405 -146.458)" fill="#95d6a4"/>
        </g>
      </g>
      <g id="Group_1182187" data-name="Group 1182187" transform="translate(74.714 14.414)">
        <path id="Path_991072" data-name="Path 991072" d="M245.975,162.535a12.671,12.671,0,0,0-8.6-3.328h-9.922a1.64,1.64,0,0,1-1.64-1.64v-7.909a3.2,3.2,0,0,0-4.57-2.893,3.194,3.194,0,0,1,1.25,2.536v9.509a1.64,1.64,0,0,0,1.64,1.64h9.922a12.671,12.671,0,0,1,8.6,3.328.569.569,0,0,1,.016.822l-1.953,1.953a6.357,6.357,0,0,1,.782.569.565.565,0,0,0,.763-.037l3.728-3.728a.569.569,0,0,0-.016-.822Z" transform="translate(-221.247 -146.457)" fill="#78c2a4"/>
      </g>
      <g id="Group_1182188" data-name="Group 1182188" transform="translate(50.345 -6.469)">
        <path id="Path_991073" data-name="Path 991073" d="M128.093,66.46a2.59,2.59,0,0,0,.66-1.727V63.588a2.6,2.6,0,0,0-1.8-2.477l-4.021-1.3V44.951A1.664,1.664,0,0,0,123.2,43.9l-.073-.9a7.435,7.435,0,0,0-2.394-4.9l-.336-.308a1.621,1.621,0,0,0-.477-1.616,13.78,13.78,0,0,0-9.315-3.607h-9.922a.574.574,0,0,1-.573-.573V24.083a4.267,4.267,0,0,0-8.535,0v7.909A9.063,9.063,0,0,0,93.6,37.713H90.572V22.754a4.652,4.652,0,0,1,4.647-4.647h4.438a4.652,4.652,0,0,1,4.647,4.647v5.583a1.067,1.067,0,0,0,2.134,0V22.754a6.792,6.792,0,0,0-4.448-6.367V14.552c2.786-2.063,3.55-6.264,1.7-9.875-2.036-3.971-6.5-5.764-9.944-4a6.553,6.553,0,0,0-3.362,4.461,8.731,8.731,0,0,0,.8,5.947,9.145,9.145,0,0,0,1.7,2.331v2.968a6.792,6.792,0,0,0-4.448,6.367v2.382a3.185,3.185,0,0,0-1.109-.2H81.945a3.2,3.2,0,0,0,0,6.4H84.13v7.813a16.953,16.953,0,0,0-10.517,6.442,1.067,1.067,0,1,0,1.695,1.3A14.925,14.925,0,1,1,92.026,70.06a1.067,1.067,0,0,0,.7,2.017A17.073,17.073,0,0,0,104.093,53.8h.9a1.851,1.851,0,0,1,1.849,1.849V68.4a3.2,3.2,0,0,0,3.2,3.2h15.515a3.2,3.2,0,0,0,2.54-5.144ZM92.462,5.626a4.454,4.454,0,0,1,2.257-3.047,4.943,4.943,0,0,1,5.524,1.05H97.561a3.351,3.351,0,0,0-3.347,3.347A2.238,2.238,0,0,1,92.662,9.1,6.391,6.391,0,0,1,92.462,5.626Zm2.2,6.534a6.854,6.854,0,0,1-1.025-1.143,4.374,4.374,0,0,0,2.711-4.041,1.215,1.215,0,0,1,1.214-1.214h4.284c1.377,2.8.745,5.988-1.466,7.3a1.067,1.067,0,0,0-.522.917v2c-.066,0-.132-.005-.2-.005H95.219c-.067,0-.133,0-.2.005V12.958A1.066,1.066,0,0,0,94.662,12.16Zm31.633,50.981a.469.469,0,0,1,.325.448v1.145c.01.563-.694.473-1.067.47H114.43a1.167,1.167,0,0,1-1.166-1.166V60.213h7.573a2.113,2.113,0,0,0,1.428,1.621Zm-15.165-13a8.31,8.31,0,0,0-.627-.629h.627ZM121,43.135l-3.406-2.217,1.465-1.465.235.216A5.307,5.307,0,0,1,121,43.135ZM93.71,24.084a2.134,2.134,0,1,1,4.267,0v7.909a2.71,2.71,0,0,0,2.707,2.707h9.922a11.654,11.654,0,0,1,7.482,2.7l-3.038,3.038a7.424,7.424,0,0,0-4.444-1.475h-9.922a6.982,6.982,0,0,1-6.975-6.975V24.084ZM86.263,38.908V30.272A1.067,1.067,0,0,0,85.2,29.205H81.945a1.067,1.067,0,1,1,0-2.134H87.33A1.068,1.068,0,0,1,88.4,28.138v10.79c-.406-.029-.816-.045-1.23-.045C86.864,38.883,86.563,38.892,86.263,38.908Zm6.557.94h3.164c.03,0,.06,0,.09,0a9.051,9.051,0,0,0,4.611,1.258h9.922a5.214,5.214,0,0,1,3.428,1.259,1.613,1.613,0,0,0,1.05.384,1.644,1.644,0,0,0,.943-.3l4.592,2.988a1.69,1.69,0,0,0,.178.1V58.079h-7.534V49.205a1.826,1.826,0,0,0-1.824-1.824h-9.521a17.151,17.151,0,0,0-9.1-7.534Zm32.733,29.624H110.038a1.068,1.068,0,0,1-1.067-1.067V55.645a3.987,3.987,0,0,0-3.982-3.982h-1.305a16.927,16.927,0,0,0-.709-2.134h2.014a6.123,6.123,0,0,1,6.116,6.116V66.27a1.067,1.067,0,0,0,1.067,1.067h13.381a1.067,1.067,0,1,1,0,2.134Z" transform="translate(-70.106 0)"/>
        <path id="Path_991074" data-name="Path 991074" d="M93.067,328.213a12.793,12.793,0,1,0-12.793-12.793A12.808,12.808,0,0,0,93.067,328.213Zm3.364-22.906a10.641,10.641,0,0,1,3,1.564h-3Zm-2.134-.474v3.1A1.067,1.067,0,0,0,95.364,309h6.21a10.67,10.67,0,0,1,1.252,2.134h-9.6a1.068,1.068,0,0,1-1.067-1.067V304.8c.3-.025.6-.041.9-.041A10.714,10.714,0,0,1,94.3,304.833Zm-4.268.37v4.868a3.2,3.2,0,0,0,3.2,3.2H103.51A10.661,10.661,0,1,1,90.03,305.2Z" transform="translate(-76.006 -259.475)"/>
        <path id="Path_991075" data-name="Path 991075" d="M67.406,368.263a14.93,14.93,0,0,1-14.045-19.985,1.067,1.067,0,1,0-2.007-.725A17.063,17.063,0,0,0,67.406,370.4a1.067,1.067,0,1,0,0-2.134Z" transform="translate(-50.345 -297.392)"/>
      </g>
    </g>
  </g>
</svg>
