<svg xmlns="http://www.w3.org/2000/svg" width="120" height="120" viewBox="0 0 120 120">
  <g id="img36" transform="translate(-388.711 -10669)">
    <rect id="Rectangle_402033" data-name="Rectangle 402033" width="120" height="120" rx="10" transform="translate(388.711 10669)" fill="#2142dc"/>
    <rect id="Rectangle_454167" data-name="Rectangle 454167" width="100" height="100" rx="10" transform="translate(398.711 10679)" fill="#bcc6f5"/>
    <g id="Group_1182159" data-name="Group 1182159" transform="translate(414.571 10694.732)">
      <g id="Group_1182157" data-name="Group 1182157" transform="translate(1 1.132)">
        <g id="Group_1182144" data-name="Group 1182144" transform="translate(26.096 0)">
          <circle id="Ellipse_13587" data-name="Ellipse 13587" cx="20.082" cy="20.082" r="20.082" fill="#8ac9fe"/>
          <path id="Path_991033" data-name="Path 991033" d="M336.535,7.539a20.269,20.269,0,0,0-2.666.177,20.083,20.083,0,0,1,0,39.811,20.082,20.082,0,1,0,2.666-39.987Z" transform="translate(-316.453 -7.539)" fill="#60b7ff"/>
          <g id="Group_1182143" data-name="Group 1182143" transform="translate(0.052 6.121)">
            <g id="Group_1182142" data-name="Group 1182142" transform="translate(22.574 17.737)">
              <path id="Path_991034" data-name="Path 991034" d="M388.468,191.5h0a19.935,19.935,0,0,0,1.663-5h-8.4a3.006,3.006,0,1,0,0,6.012h-5.777a3.006,3.006,0,0,0,0,6.012H382.8A20.162,20.162,0,0,0,388.468,191.5Z" transform="translate(-372.947 -186.494)" fill="#bbec6c"/>
            </g>
            <path id="Path_991035" data-name="Path 991035" d="M419.521,186.495h-5.333a19.937,19.937,0,0,1-1.663,5h0a20.163,20.163,0,0,1-5.667,7.018h5.333a20.163,20.163,0,0,0,5.667-7.018h0A19.938,19.938,0,0,0,419.521,186.495Z" transform="translate(-379.765 -168.758)" fill="#a2e62e"/>
            <path id="Path_991036" data-name="Path 991036" d="M215.429,177.968a3.006,3.006,0,0,0-3.006-3.006h6a3.006,3.006,0,0,0,0-6.012H203.627a20,20,0,0,0,5.128,12.023h3.669A3.006,3.006,0,0,0,215.429,177.968Z" transform="translate(-203.627 -153.553)" fill="#bbec6c"/>
            <path id="Path_991037" data-name="Path 991037" d="M352.107,53.45a3.006,3.006,0,1,0,0,6.012h-4.933a3.006,3.006,0,0,0,0,6.012H365.45a20.012,20.012,0,0,0-5.555-12.023h-7.788Z" transform="translate(-325.431 -53.45)" fill="#bbec6c"/>
            <path id="Path_991038" data-name="Path 991038" d="M427.464,53.45h-5.333a20.013,20.013,0,0,1,5.555,12.023h5.333A20.012,20.012,0,0,0,427.464,53.45Z" transform="translate(-393 -53.45)" fill="#a2e62e"/>
          </g>
        </g>
        <g id="Group_1182156" data-name="Group 1182156" transform="translate(0 0.228)">
          <g id="Group_1182155" data-name="Group 1182155" transform="translate(6.506)">
            <g id="Group_1182154" data-name="Group 1182154">
              <path id="Path_991039" data-name="Path 991039" d="M66.753,249.014v-6.608a5.76,5.76,0,0,1,5.763-5.758H86.464a5.76,5.76,0,0,1,5.763,5.758v6.608a4,4,0,0,1-4,4H70.751A4,4,0,0,1,66.753,249.014Z" transform="translate(-65.359 -206.331)" fill="#ffc344"/>
              <g id="Group_1182152" data-name="Group 1182152">
                <g id="Group_1182146" data-name="Group 1182146" transform="translate(1.394 34.999)">
                  <g id="Group_1182145" data-name="Group 1182145">
                    <path id="Path_991040" data-name="Path 991040" d="M92.227,287.2a10.274,10.274,0,0,0-10.154-10.169V271.77H76.907v5.263A10.274,10.274,0,0,0,66.753,287.2Z" transform="translate(-66.753 -271.77)" fill="#ffdfcf"/>
                  </g>
                </g>
                <g id="Group_1182147" data-name="Group 1182147" transform="translate(1.394 41.23)">
                  <path id="Path_991041" data-name="Path 991041" d="M92.226,336.81v-9.1a10.221,10.221,0,0,0-5.926-9.2c0,5.428-13.622,5.339-13.622,0a10.218,10.218,0,0,0-5.926,9.2v9.1Z" transform="translate(-66.752 -318.508)" fill="#918291"/>
                </g>
                <g id="Group_1182151" data-name="Group 1182151">
                  <path id="Path_991042" data-name="Path 991042" d="M87.364,29.567H60.122v-6.7a13.621,13.621,0,1,1,27.242,0v6.7Z" transform="translate(-59.612 -9.248)" fill="#918291"/>
                  <g id="Group_1182148" data-name="Group 1182148" transform="translate(0 18.573)">
                    <path id="Path_991043" data-name="Path 991043" d="M58.15,148.581c-1.307.2-2,1.988-1.824,4.009s1.429,3.281,2.586,3.281a1.465,1.465,0,0,0,1.361-.956v-5.028A2.006,2.006,0,0,0,58.15,148.581Z" transform="translate(-56.299 -148.559)" fill="#ffdfcf"/>
                    <path id="Path_991044" data-name="Path 991044" d="M240.606,148.581a2.006,2.006,0,0,0-2.122,1.306v5.028a1.465,1.465,0,0,0,1.361.956c1.157,0,2.413-1.259,2.586-3.281S241.914,148.78,240.606,148.581Z" transform="translate(-214.195 -148.559)" fill="#ffdfcf"/>
                  </g>
                  <g id="Group_1182149" data-name="Group 1182149" transform="translate(3.973 10.153)">
                    <path id="Path_991045" data-name="Path 991045" d="M89.193,85.4a3.1,3.1,0,0,0-3.1,3.1v12.8a10.158,10.158,0,1,0,20.316,0V88.5a3.094,3.094,0,0,0-4.859-2.548l-1.6,1.109a6.566,6.566,0,0,1-7.4,0l-1.6-1.109A3.342,3.342,0,0,0,89.193,85.4Z" transform="translate(-86.098 -85.403)" fill="#ffdfcf"/>
                  </g>
                  <g id="Group_1182150" data-name="Group 1182150" transform="translate(11.464 10.153)">
                    <path id="Path_991046" data-name="Path 991046" d="M152.021,85.4a3.092,3.092,0,0,0-1.763.552l-1.059.735a3.088,3.088,0,0,1,.585,1.813v12.8a10.173,10.173,0,0,1-7.492,9.816,10.157,10.157,0,0,0,12.824-9.816V88.5a3.1,3.1,0,0,0-3.1-3.1Z" transform="translate(-142.292 -85.403)" fill="#ffcebf"/>
                  </g>
                </g>
              </g>
              <g id="Group_1182153" data-name="Group 1182153" transform="translate(5.711 39.803)">
                <path id="Path_991047" data-name="Path 991047" d="M99.139,327.533V309.48a.932.932,0,0,1,.652-.889l2.355-.743a.933.933,0,0,1,1.214.889v18.8H99.139Z" transform="translate(-99.139 -307.805)" fill="#ffe177"/>
                <path id="Path_991048" data-name="Path 991048" d="M193.421,327.534v-18.8a.933.933,0,0,1,1.214-.889l2.355.743a.932.932,0,0,1,.652.889v18.053Z" transform="translate(-180.851 -307.805)" fill="#ffe177"/>
              </g>
            </g>
          </g>
          <path id="Path_991049" data-name="Path 991049" d="M49.826,364.884v5.364H7.5v7.89H49.826V383.5l12.84-9.309Z" transform="translate(-7.5 -317.471)" fill="#fd4755"/>
        </g>
      </g>
      <g id="Group_1182158" data-name="Group 1182158" transform="translate(0 0.147)">
        <path id="Path_991050" data-name="Path 991050" d="M67.876,25.217C71.7,5.56,47.48-7.971,32.916,5.688A14.717,14.717,0,0,0,13.162,3.065a1,1,0,0,0,1.16,1.629c8.167-5.97,19.974.233,19.935,10.287,0,0,0,4.022,0,4.022a2.733,2.733,0,0,0-1.463.063V14.613a4.141,4.141,0,0,0-6.429-3.369c-3.437,2.385-6.039,2.373-9.459,0a4.139,4.139,0,0,0-6.429,3.369v4.453A2.769,2.769,0,0,0,9.015,19c-.059-4.622-.256-8.26,2.894-12.064a1,1,0,1,0-1.54-1.275c-3.925,4.68-3.339,9.453-3.342,15.09a6.485,6.485,0,0,0-.491,3.3c.171,2,1.624,4.53,3.974,4.165a11.1,11.1,0,0,0,.776,3.366A6.807,6.807,0,0,0,7.9,37.435v6.608a4.977,4.977,0,0,0,1.055,3.068A10.979,10.979,0,0,0,7.9,51.791v1.347H1a1,1,0,0,0-1,1v7.89a1,1,0,0,0,1,1H42.326v4.364a1.007,1.007,0,0,0,1.587.81L49.024,64.5a1,1,0,1,0-1.174-1.619l-3.525,2.556v-3.4a1,1,0,0,0-1-1H2V55.138H43.326a1,1,0,0,0,1-1v-3.4l10.137,7.349L51.046,60.56a1,1,0,0,0,1.174,1.619l4.533-3.287a1,1,0,0,0,0-1.619l-12.84-9.309a1.012,1.012,0,0,0-1.587.81v4.364H35.373V51.791a10.977,10.977,0,0,0-1.055-4.68,4.977,4.977,0,0,0,1.055-3.068V38.681C47.676,47.214,64.931,39.767,67.876,25.217ZM58.5,30a2.006,2.006,0,0,1,0-4.012h7.15a19.123,19.123,0,0,1-6.445,10.023H52.727a2.006,2.006,0,0,1,0-4.012H58.5a1,1,0,0,0,0-2ZM53.823,12.265a2.006,2.006,0,0,1,0-4.012h7.346a19.032,19.032,0,0,1,4.865,10.023H48.89a2.006,2.006,0,0,1,0-4.012h4.933A1,1,0,0,0,53.823,12.265ZM41.941,23.652a2.006,2.006,0,0,1,0,4.012h-6a1,1,0,1,0,0,2,2.006,2.006,0,0,1,0,4.012H34.219a6.8,6.8,0,0,0-2.232-2.095,11.1,11.1,0,0,0,.776-3.366c2.52.392,3.918-2.472,4-4.563Zm-8.175-2.709h0c.586.089,1.119,1.29.979,2.936-.132,1.544-1.008,2.366-1.59,2.366a.376.376,0,0,1-.361-.213V21.509A.967.967,0,0,1,33.766,20.943Zm-21.288-6.33a2.127,2.127,0,0,1,3.289-1.726c4.176,2.9,7.568,2.895,11.739,0a2.124,2.124,0,0,1,3.289,1.726v12.8a9.158,9.158,0,1,1-18.316,0v-12.8ZM29.007,53.137H26.787V42.188l2.221.7ZM16.438,42.188V53.137H14.217V42.889Zm2,5.039a13.2,13.2,0,0,0,6.349.03v5.88H18.438Zm5.773-4.605c.192,0,.384.011.577.025v2.534a11.029,11.029,0,0,1-6.349-.036V42.651c.208-.016.417-.027.625-.029a1,1,0,0,0,.99-1v-3.15a11.09,11.09,0,0,0,3.166,0v3.15a1,1,0,0,0,.991,1ZM10.118,26.245c-.582,0-1.458-.822-1.59-2.366-.141-1.646.392-2.846.978-2.936a.973.973,0,0,1,.972.566v4.523A.376.376,0,0,1,10.118,26.245ZM9.9,44.043V37.435a4.791,4.791,0,0,1,2.3-4.07,11.213,11.213,0,0,0,5.854,4.627v2.683c-.071.007-.142.017-.214.025a2.067,2.067,0,0,0-1.917-.447L13.568,41a1.974,1.974,0,0,0-1.351,2.031,11.349,11.349,0,0,0-2.1,2.143A2.99,2.99,0,0,1,9.9,44.043Zm0,7.748a9.1,9.1,0,0,1,2.318-6.03v7.377H9.9Zm21.108,1.347V45.706a9.1,9.1,0,0,1,2.366,6.085v1.347Zm0-10.148A1.964,1.964,0,0,0,29.656,41L27.3,40.254a2.069,2.069,0,0,0-1.912.442c-.057-.007-.114-.014-.171-.02V37.993a11.212,11.212,0,0,0,5.854-4.627,4.791,4.791,0,0,1,2.3,4.07v6.608a2.988,2.988,0,0,1-.222,1.127,11.364,11.364,0,0,0-2.145-2.18ZM35.237,36.1c-.029-.142-.062-.284-.1-.423h.808a4.022,4.022,0,0,0,3.466-6.011h2.531a4.006,4.006,0,0,0,0-8.011H36.566a5.054,5.054,0,0,0-.309-.875v-5.8A14.532,14.532,0,0,0,34.09,7.329c6.5-6.481,18-6.862,24.918-1.076H53.823a4.022,4.022,0,0,0-3.466,6.012H48.89a4.006,4.006,0,0,0,0,8.011H66.236a19.158,19.158,0,0,1-.179,3.715H58.5A4.022,4.022,0,0,0,55.038,30H52.727a4.006,4.006,0,0,0,0,8.011h3.494A19.194,19.194,0,0,1,35.237,36.1Z" transform="translate(0 -0.147)"/>
        <path id="Path_991051" data-name="Path 991051" d="M138.947,204.857a1,1,0,0,0,1-1,1.246,1.246,0,1,1,2.492,0,1,1,0,1,0,2,0,3.246,3.246,0,0,0-6.491,0A1,1,0,0,0,138.947,204.857Z" transform="translate(-119.556 -173.901)"/>
      </g>
    </g>
  </g>
</svg>
