<svg xmlns="http://www.w3.org/2000/svg" width="100" height="100" viewBox="0 0 100 100">
  <g id="img56" transform="translate(-637 -6992)">
    <g id="Group_1098742" data-name="Group 1098742" transform="translate(637.242 6992)">
      <rect id="Rectangle_400898" data-name="Rectangle 400898" width="100" height="100" rx="50" transform="translate(-0.242)" fill="#fff" opacity="0.859"/>
      <g id="Rectangle_400907" data-name="Rectangle 400907" transform="translate(-0.242)" fill="none" stroke="#2142dc" stroke-linecap="round" stroke-width="3" stroke-dasharray="0 7">
        <rect width="100" height="100" rx="50" stroke="none"/>
        <rect x="1.5" y="1.5" width="97" height="97" rx="48.5" fill="none"/>
      </g>
    </g>
    <g id="Group_1107006" data-name="Group 1107006" transform="translate(645.398 7000.157)">
      <rect id="Rectangle_400898-2" data-name="Rectangle 400898" width="84" height="84" rx="42" transform="translate(-0.399 -0.157)" fill="#a8b8ff" opacity="0.859"/>
      <rect id="Rectangle_400907-2" data-name="Rectangle 400907" width="84" height="84" rx="42" transform="translate(-0.398 -0.157)" fill="none"/>
    </g>
    <g id="Group_1182204" data-name="Group 1182204" transform="translate(629.83 6990.926)">
      <circle id="Ellipse_13592" data-name="Ellipse 13592" cx="18.345" cy="18.345" r="18.345" transform="translate(32 29.369)" fill="#e5efef"/>
      <path id="Path_991133" data-name="Path 991133" d="M120,73.75h5.119v9.066H120Z" transform="translate(-69.229 -38.941)" fill="#ffe8dc"/>
      <path id="Path_991134" data-name="Path 991134" d="M121.973,80.522h-5.119a.853.853,0,0,1-.853-.853V70.6a.853.853,0,0,1,.853-.853h5.119a.853.853,0,0,1,.853.853v9.066A.853.853,0,0,1,121.973,80.522Zm-4.266-1.706h3.413V71.456h-3.413Z" transform="translate(-66.082 -35.794)" fill="#12263f"/>
      <path id="Path_991135" data-name="Path 991135" d="M115.723,46.062h-1.691A2.032,2.032,0,0,1,112,44.03V41.369a5.119,5.119,0,0,1,10.239,0v7.679H120.55a4.71,4.71,0,0,1-3.451-1.5Z" transform="translate(-62.935 -9.44)" fill="#ffe8dc"/>
      <path id="Path_991136" data-name="Path 991136" d="M119.092,46.755H117.4a5.579,5.579,0,0,1-4.076-1.777L112.2,43.769h-1.319A2.889,2.889,0,0,1,108,40.883V38.223a5.973,5.973,0,0,1,11.945,0V45.9A.853.853,0,0,1,119.092,46.755Zm-5.119-12.8a4.271,4.271,0,0,0-4.266,4.266v2.661a1.18,1.18,0,0,0,1.179,1.179h1.691a.854.854,0,0,1,.625.272l1.376,1.482a3.868,3.868,0,0,0,2.826,1.232h.836V38.222A4.271,4.271,0,0,0,113.973,33.956Z" transform="translate(-59.788 -6.294)" fill="#12263f"/>
      <path id="Path_991137" data-name="Path 991137" d="M176.556,250.392H161.833a.853.853,0,0,1,0-1.706h14.723a.853.853,0,1,1,0,1.706Z" transform="translate(-101.467 -176.562)" fill="#12263f"/>
      <path id="Path_991138" data-name="Path 991138" d="M108,114.151V107.5a2.281,2.281,0,0,1,2.309-2.251h1.06a8.47,8.47,0,0,1,8.577,8.36v5.079Z" transform="translate(-59.788 -63.722)" fill="#9dc1e4"/>
      <path id="Path_991139" data-name="Path 991139" d="M116.8,116.395a.851.851,0,0,1-.3-.056L104.55,111.8a.853.853,0,0,1-.55-.8v-6.651a3.137,3.137,0,0,1,3.162-3.1h1.06a9.334,9.334,0,0,1,9.43,9.213v5.079a.853.853,0,0,1-.853.853Zm-11.092-5.979,10.239,3.889v-3.842a7.626,7.626,0,0,0-7.724-7.506h-1.06a1.429,1.429,0,0,0-1.456,1.4Z" transform="translate(-56.642 -60.575)" fill="#12263f"/>
      <path id="Path_991140" data-name="Path 991140" d="M107.734,132.3a.854.854,0,0,1-.764-.472l-2.88-5.759a.856.856,0,0,1-.09-.382V121.1a.853.853,0,0,1,1.706,0v4.385l2.408,4.816,2.221-1.11-1.077-1.651a.853.853,0,0,1-.138-.466V121.1a.853.853,0,1,1,1.706,0v5.719l1.461,2.241a.854.854,0,0,1-.333,1.229l-3.84,1.92a.852.852,0,0,1-.381.09Z" transform="translate(-56.642 -75.522)" fill="#12263f"/>
      <path id="Path_991141" data-name="Path 991141" d="M166.5,174.688l-1.513-5.155a3.177,3.177,0,0,0-2.626-2.254l-4.524-.606-.1-5.409,8.934,2.083a2.71,2.71,0,0,1,2,1.926l2.455,9Z" transform="translate(-98.919 -107.788)" fill="#9dc1e4"/>
      <path id="Path_991142" data-name="Path 991142" d="M163.355,172.394a.853.853,0,0,1-.818-.613l-1.513-5.154a2.326,2.326,0,0,0-1.921-1.649l-4.524-.606a.853.853,0,0,1-.74-.83l-.1-5.409a.853.853,0,0,1,1.047-.846l8.934,2.083a3.559,3.559,0,0,1,2.628,2.532l2.455,9a.853.853,0,0,1-.747,1.074l-4.625.415a.759.759,0,0,1-.077,0Zm-7.823-9.616,3.8.509a4.034,4.034,0,0,1,3.332,2.859l1.316,4.482,2.912-.262L164.7,162.35a1.855,1.855,0,0,0-1.37-1.32l-7.867-1.834Z" transform="translate(-95.772 -104.64)" fill="#12263f"/>
      <path id="Path_991143" data-name="Path 991143" d="M203.443,222.25l3.234,2.727H199.5l-.679-2.312Z" transform="translate(-131.234 -155.765)" fill="#bf7e68"/>
      <path id="Path_991144" data-name="Path 991144" d="M203.53,222.683h-7.18a.853.853,0,0,1-.819-.613l-.679-2.312a.853.853,0,0,1,.742-1.09l4.625-.415a.851.851,0,0,1,.626.2l3.234,2.727a.853.853,0,0,1-.55,1.505Zm-6.542-1.706h4.206l-1.177-.993-3.235.291Z" transform="translate(-128.087 -152.617)" fill="#12263f"/>
      <path id="Path_991145" data-name="Path 991145" d="M185.488,233.664h-12.3a.853.853,0,1,1,0-1.706h12.3a.853.853,0,0,1,0,1.706Z" transform="translate(-110.399 -163.402)" fill="#12263f"/>
      <path id="Path_991146" data-name="Path 991146" d="M57.28,100.25h3.645A2.755,2.755,0,0,1,63.679,103v8.871l-2.56,1.92v-9.872a1.114,1.114,0,0,0-1.114-1.114H57.28a1.28,1.28,0,0,1,0-2.56Z" transform="translate(-18.881 -59.788)" fill="#efefd2"/>
      <path id="Path_991147" data-name="Path 991147" d="M57.973,111.5a.853.853,0,0,1-.853-.853v-9.872a.261.261,0,0,0-.261-.261H54.133a2.133,2.133,0,1,1,0-4.266h3.645a3.612,3.612,0,0,1,3.608,3.608v8.871a.854.854,0,0,1-.341.683l-2.56,1.92A.853.853,0,0,1,57.973,111.5Zm-3.84-13.545a.427.427,0,1,0,0,.853h2.726a1.969,1.969,0,0,1,1.967,1.967v8.165l.853-.64V99.858a1.9,1.9,0,0,0-1.9-1.9Zm6.4,10.772h0Z" transform="translate(-15.734 -56.642)" fill="#12263f"/>
      <circle id="Ellipse_13593" data-name="Ellipse 13593" cx="13.439" cy="13.439" r="13.439" transform="translate(36.693 50.167)" fill="#b5a19c"/>
      <path id="Path_991148" data-name="Path 991148" d="M64.292,170.334a14.292,14.292,0,1,1,14.292-14.292A14.308,14.308,0,0,1,64.292,170.334Zm0-26.877a12.585,12.585,0,1,0,12.585,12.585A12.6,12.6,0,0,0,64.292,143.456Z" transform="translate(-14.16 -92.436)" fill="#12263f"/>
      <circle id="Ellipse_13594" data-name="Ellipse 13594" cx="9.809" cy="9.809" r="9.809" transform="translate(40.322 53.796)" fill="#6b4f5b"/>
      <path id="Path_991149" data-name="Path 991149" d="M77.677,180.09A10.662,10.662,0,1,1,88.34,169.427,10.674,10.674,0,0,1,77.677,180.09Zm0-19.618a8.956,8.956,0,1,0,8.956,8.956A8.966,8.966,0,0,0,77.677,160.471Z" transform="translate(-27.546 -105.822)" fill="#12263f"/>
      <circle id="Ellipse_13595" data-name="Ellipse 13595" cx="2.897" cy="2.897" r="2.897" transform="translate(47.715 61.189)" fill="#efefd2"/>
      <path id="Path_991150" data-name="Path 991150" d="M105.42,200.92a3.75,3.75,0,1,1,3.75-3.75A3.754,3.754,0,0,1,105.42,200.92Zm0-5.794a2.044,2.044,0,1,0,2.044,2.044A2.046,2.046,0,0,0,105.42,195.126Z" transform="translate(-54.809 -133.084)" fill="#12263f"/>
      <circle id="Ellipse_13596" data-name="Ellipse 13596" cx="3.84" cy="3.84" r="3.84" transform="translate(72.209 69.365)" fill="#b5a19c"/>
      <g id="Group_1182203" data-name="Group 1182203" transform="translate(32 25.103)">
        <path id="Path_991151" data-name="Path 991151" d="M221.193,241.136a4.693,4.693,0,1,1,4.693-4.693A4.7,4.7,0,0,1,221.193,241.136Zm0-7.679a2.986,2.986,0,1,0,2.986,2.986A2.99,2.99,0,0,0,221.193,233.456Z" transform="translate(-177.144 -188.341)" fill="#12263f"/>
        <circle id="Ellipse_13597" data-name="Ellipse 13597" cx="1.541" cy="1.541" r="1.541" transform="translate(42.507 46.56)" fill="#12263f"/>
        <path id="Path_991152" data-name="Path 991152" d="M52.853,32.516A.853.853,0,0,1,52,31.663V29.1a.853.853,0,1,1,1.706,0v2.56A.853.853,0,0,1,52.853,32.516Z" transform="translate(-47.734 -28.25)" fill="#12263f"/>
        <path id="Path_991153" data-name="Path 991153" d="M52.853,60.516A.853.853,0,0,1,52,59.663V57.1a.853.853,0,1,1,1.706,0v2.56A.853.853,0,0,1,52.853,60.516Z" transform="translate(-47.734 -50.277)" fill="#12263f"/>
        <path id="Path_991154" data-name="Path 991154" d="M35.413,49.956h-2.56a.853.853,0,0,1,0-1.706h2.56a.853.853,0,0,1,0,1.706Z" transform="translate(-32 -43.984)" fill="#12263f"/>
        <path id="Path_991155" data-name="Path 991155" d="M63.413,49.956h-2.56a.853.853,0,1,1,0-1.706h2.56a.853.853,0,1,1,0,1.706Z" transform="translate(-54.027 -43.984)" fill="#12263f"/>
        <circle id="Ellipse_13598" data-name="Ellipse 13598" cx="0.853" cy="0.853" r="0.853" transform="translate(32.423 14.505)" fill="#12263f"/>
        <circle id="Ellipse_13599" data-name="Ellipse 13599" cx="0.853" cy="0.853" r="0.853" transform="translate(2.56 25.597)" fill="#12263f"/>
        <path id="Path_991156" data-name="Path 991156" d="M238.986,178.223a2.986,2.986,0,1,1,2.986-2.986A2.99,2.99,0,0,1,238.986,178.223Zm0-4.266a1.28,1.28,0,1,0,1.28,1.28A1.281,1.281,0,0,0,238.986,173.956Z" transform="translate(-192.485 -141.533)" fill="#12263f"/>
      </g>
      <path id="Path_991157" data-name="Path 991157" d="M118.375,33.369h-9.658L108,28.25h11.092Z" transform="translate(-59.788 -3.147)" fill="#9dc1e4"/>
      <path id="Path_991158" data-name="Path 991158" d="M115.229,31.076h-9.658a.853.853,0,0,1-.845-.735l-.717-5.119a.853.853,0,0,1,.845-.972h11.092a.853.853,0,0,1,.845.972l-.717,5.119A.854.854,0,0,1,115.229,31.076Zm-8.916-1.706h8.174l.478-3.413h-9.13Z" transform="translate(-56.643)" fill="#12263f"/>
      <path id="Path_991159" data-name="Path 991159" d="M220.771,77.369H226.4L227.5,72.25h-7.816Z" transform="translate(-147.645 -37.761)" fill="#f53e28"/>
      <path id="Path_991160" data-name="Path 991160" d="M223.257,75.076h-5.633a.853.853,0,0,1-.834-.675L215.7,69.281a.853.853,0,0,1,.834-1.031h7.816a.853.853,0,0,1,.834,1.031L224.091,74.4A.853.853,0,0,1,223.257,75.076Zm-4.942-1.706h4.252l.728-3.413h-5.707Z" transform="translate(-144.498 -34.614)" fill="#12263f"/>
      <path id="Path_991161" data-name="Path 991161" d="M216.266,56.25l.728,3.413h7.816l.728-3.413Z" transform="translate(-144.96 -25.174)" fill="#fff"/>
      <path id="Path_991162" data-name="Path 991162" d="M221.662,57.369h-7.816a.853.853,0,0,1-.834-.675l-.728-3.413a.853.853,0,0,1,.834-1.031h9.272a.853.853,0,0,1,.834,1.031l-.728,3.413a.853.853,0,0,1-.834.675Zm-7.126-1.706h6.436l.364-1.706h-7.163Z" transform="translate(-141.813 -22.027)" fill="#12263f"/>
      <path id="Path_991163" data-name="Path 991163" d="M223.092,36.25H212l.91,4.266h9.272Z" transform="translate(-141.604 -9.44)" fill="#fc8c29"/>
      <path id="Path_991164" data-name="Path 991164" d="M219.035,38.223h-9.272a.853.853,0,0,1-.834-.675l-.91-4.266a.853.853,0,0,1,.834-1.031h11.092a.853.853,0,0,1,.834,1.031l-.91,4.266A.853.853,0,0,1,219.035,38.223Zm-8.582-1.706h7.891l.546-2.56h-8.983Z" transform="translate(-138.457 -6.294)" fill="#12263f"/>
      <circle id="Ellipse_13600" data-name="Ellipse 13600" cx="4.693" cy="4.693" r="4.693" transform="translate(71.249 38.755)" fill="#ffce56"/>
      <path id="Path_991165" data-name="Path 991165" d="M217.546,99.342a5.546,5.546,0,1,1,5.546-5.546A5.552,5.552,0,0,1,217.546,99.342Zm0-9.386a3.84,3.84,0,1,0,3.84,3.84A3.844,3.844,0,0,0,217.546,89.956Z" transform="translate(-141.604 -50.348)" fill="#12263f"/>
    </g>
  </g>
</svg>
