<svg xmlns="http://www.w3.org/2000/svg" width="124" height="124" viewBox="0 0 124 124">
  <g id="img5" transform="translate(-1234.5 -458)">
    <g id="Ellipse_12108" data-name="Ellipse 12108" transform="translate(1241.5 465)" fill="#2142dc" stroke="#fff" stroke-width="7">
      <circle cx="55" cy="55" r="55" stroke="none"/>
      <circle cx="55" cy="55" r="58.5" fill="none"/>
    </g>
    <g id="Group_1181762" data-name="Group 1181762" transform="translate(1264.5 488)">
      <path id="Path_989695" data-name="Path 989695" d="M33,27.927a5.1,5.1,0,0,0-.5-2.195L22.2,4.272a5.768,5.768,0,0,0-10.4,0L1.5,25.732A5.074,5.074,0,0,0,6.073,33H27.927A5.079,5.079,0,0,0,33,27.927Zm-30,0a3.1,3.1,0,0,1,.3-1.33L13.6,5.137a3.768,3.768,0,0,1,6.794,0L30.7,26.6a3.073,3.073,0,0,1-2.77,4.4H6.073A3.076,3.076,0,0,1,3,27.927Z" fill="#a8b8ff"/>
      <path id="Path_989696" data-name="Path 989696" d="M62.874,45.514,58,36.735A11.013,11.013,0,0,0,47,26H44A11.013,11.013,0,0,0,33,37H26v2h7.015a19,19,0,0,0,.148,2H28a1,1,0,0,0-.857.485l-1.794,2.991-2.383-8.739a1,1,0,0,0-.866-.732.986.986,0,0,0-.993.548L18.382,41H13v2h6a1,1,0,0,0,.9-.553l1.83-3.659,2.311,8.475a1,1,0,0,0,.828.728A1.035,1.035,0,0,0,25,48a1,1,0,0,0,.857-.485L28.566,43h4.962a18.823,18.823,0,0,0,2.64,6.055A16.805,16.805,0,0,1,39,58.408V63h2V58.408a18.808,18.808,0,0,0-3.168-10.463A16.805,16.805,0,0,1,35,38.592V37a9.011,9.011,0,0,1,9-9h3a9.011,9.011,0,0,1,9,9,1,1,0,0,0,.126.486L60.3,45H57a1,1,0,0,0-1,1v6H51a1,1,0,0,0-1,1V63h2V54h5a1,1,0,0,0,1-1V47h4a1,1,0,0,0,.874-1.486Z" fill="#a8b8ff"/>
      <path id="Path_989697" data-name="Path 989697" d="M55,39a9.017,9.017,0,0,0-1.975-5.625l-1.561,1.251A6.917,6.917,0,0,1,53,39a7.008,7.008,0,0,1-7,7,6.926,6.926,0,0,1-4.375-1.535l-1.251,1.561A9,9,0,0,0,55,39Z" fill="#a8b8ff"/>
      <path id="Path_989698" data-name="Path 989698" d="M46,30a9,9,0,0,0-7.025,14.626l1.561-1.251A6.92,6.92,0,0,1,39,39a7.008,7.008,0,0,1,7-7,6.924,6.924,0,0,1,4.375,1.535l1.251-1.561A9.025,9.025,0,0,0,46,30Z" fill="#a8b8ff"/>
      <path id="Path_989699" data-name="Path 989699" d="M50.331,41.5A5,5,0,0,0,43.5,34.669l1,1.731a3,3,0,0,1,4.1,4.1Z" fill="#a8b8ff"/>
      <path id="Path_989700" data-name="Path 989700" d="M41.669,36.5A5,5,0,0,0,48.5,43.331l-1-1.732a3,3,0,0,1-4.1-4.1Z" fill="#a8b8ff"/>
      <path id="Path_989701" data-name="Path 989701" d="M13,45h8v2H13Z" fill="#a8b8ff"/>
      <path id="Path_989702" data-name="Path 989702" d="M17,23a3,3,0,1,0,3,3A3,3,0,0,0,17,23Zm0,4a1,1,0,1,1,1-1A1,1,0,0,1,17,27Z" fill="#a8b8ff"/>
      <path id="Path_989703" data-name="Path 989703" d="M17,5a3,3,0,0,0-3,3V18a3,3,0,0,0,6,0V8A3,3,0,0,0,17,5Zm1,13a1,1,0,0,1-2,0V8a1,1,0,0,1,2,0Z" fill="#a8b8ff"/>
    </g>
  </g>
</svg>
