<svg xmlns="http://www.w3.org/2000/svg" width="100" height="100" viewBox="0 0 100 100">
  <g id="img57" transform="translate(-637 -6992)">
    <g id="Group_1098742" data-name="Group 1098742" transform="translate(637.242 6992)">
      <rect id="Rectangle_400898" data-name="Rectangle 400898" width="100" height="100" rx="50" transform="translate(-0.242)" fill="#fff" opacity="0.859"/>
      <g id="Rectangle_400907" data-name="Rectangle 400907" transform="translate(-0.242)" fill="none" stroke="#2142dc" stroke-linecap="round" stroke-width="3" stroke-dasharray="0 7">
        <rect width="100" height="100" rx="50" stroke="none"/>
        <rect x="1.5" y="1.5" width="97" height="97" rx="48.5" fill="none"/>
      </g>
    </g>
    <g id="Group_1107006" data-name="Group 1107006" transform="translate(645.398 7000.157)">
      <rect id="Rectangle_400898-2" data-name="Rectangle 400898" width="84" height="84" rx="42" transform="translate(-0.399 -0.157)" fill="#a8b8ff" opacity="0.859"/>
      <rect id="Rectangle_400907-2" data-name="Rectangle 400907" width="84" height="84" rx="42" transform="translate(-0.398 -0.157)" fill="none"/>
    </g>
    <g id="Group_1182206" data-name="Group 1182206" transform="translate(628.317 6989.445)">
      <circle id="Ellipse_13601" data-name="Ellipse 13601" cx="18.5" cy="18.5" r="18.5" transform="translate(38.683 28.109)" fill="#e5efef"/>
      <g id="Group_1182205" data-name="Group 1182205" transform="translate(34 28.57)">
        <path id="Path_991166" data-name="Path 991166" d="M238.857,46.283a.857.857,0,0,1-.857-.857v-2.57a.857.857,0,1,1,1.713,0v2.57A.857.857,0,0,1,238.857,46.283Z" transform="translate(-194.314 -41.143)" fill="#12263f"/>
        <path id="Path_991167" data-name="Path 991167" d="M238.857,74.283a.857.857,0,0,1-.857-.857v-2.57a.857.857,0,0,1,1.713,0v2.57A.857.857,0,0,1,238.857,74.283Z" transform="translate(-194.314 -63.147)" fill="#12263f"/>
        <path id="Path_991168" data-name="Path 991168" d="M221.426,63.713h-2.57a.857.857,0,1,1,0-1.713h2.57a.857.857,0,1,1,0,1.713Z" transform="translate(-178.597 -56.86)" fill="#12263f"/>
        <path id="Path_991169" data-name="Path 991169" d="M249.426,63.713h-2.57a.857.857,0,1,1,0-1.713h2.57a.857.857,0,0,1,0,1.713Z" transform="translate(-200.6 -56.86)" fill="#12263f"/>
        <path id="Path_991170" data-name="Path 991170" d="M58.857,194.283a.857.857,0,0,1-.857-.857v-2.57a.857.857,0,1,1,1.713,0v2.57A.857.857,0,0,1,58.857,194.283Z" transform="translate(-52.86 -157.449)" fill="#12263f"/>
        <path id="Path_991171" data-name="Path 991171" d="M58.857,222.283a.857.857,0,0,1-.857-.857v-2.57a.857.857,0,1,1,1.713,0v2.57A.857.857,0,0,1,58.857,222.283Z" transform="translate(-52.86 -179.453)" fill="#12263f"/>
        <path id="Path_991172" data-name="Path 991172" d="M41.426,211.713h-2.57a.857.857,0,1,1,0-1.713h2.57a.857.857,0,0,1,0,1.713Z" transform="translate(-37.143 -173.166)" fill="#12263f"/>
        <path id="Path_991173" data-name="Path 991173" d="M69.426,211.713h-2.57a.857.857,0,1,1,0-1.713h2.57a.857.857,0,0,1,0,1.713Z" transform="translate(-59.147 -173.166)" fill="#12263f"/>
        <circle id="Ellipse_13602" data-name="Ellipse 13602" cx="1" cy="1" r="1" transform="translate(8.683 6.539)" fill="#12263f"/>
        <circle id="Ellipse_13603" data-name="Ellipse 13603" cx="1" cy="1" r="1" transform="translate(-0.317 26.539)" fill="#12263f"/>
        <circle id="Ellipse_13604" data-name="Ellipse 13604" cx="1" cy="1" r="1" transform="translate(44.683 17.539)" fill="#12263f"/>
        <circle id="Ellipse_13605" data-name="Ellipse 13605" cx="0.5" cy="0.5" r="0.5" transform="translate(46.683 46.539)" fill="#12263f"/>
        <path id="Path_991174" data-name="Path 991174" d="M37,44a3,3,0,1,1,3-3A3,3,0,0,1,37,44Zm0-4.283A1.285,1.285,0,1,0,38.283,41,1.286,1.286,0,0,0,37,39.713Z" transform="translate(-34 -38)" fill="#12263f"/>
        <path id="Path_991175" data-name="Path 991175" d="M221,196a3,3,0,1,1,3-3A3,3,0,0,1,221,196Zm0-4.283A1.285,1.285,0,1,0,222.283,193,1.286,1.286,0,0,0,221,191.713Z" transform="translate(-178.597 -157.449)" fill="#12263f"/>
      </g>
      <path id="Path_991176" data-name="Path 991176" d="M182.375,122v31.694h2.409V122.857Z" transform="translate(-116.601 -75.442)" fill="#9dc1e4"/>
      <path id="Path_991177" data-name="Path 991177" d="M181.641,151.407h-2.409a.857.857,0,0,1-.857-.857V118.856a.856.856,0,0,1,1.143-.807l2.409.857a.856.856,0,0,1,.57.807V150.55A.856.856,0,0,1,181.641,151.407Zm-1.553-1.713h.7V120.318l-.7-.247Z" transform="translate(-113.457 -72.298)" fill="#12263f"/>
      <path id="Path_991178" data-name="Path 991178" d="M138.041,152.532l-.048,2.028v7.281a2.141,2.141,0,1,1-4.283,0v-1.285a1.713,1.713,0,1,0-3.426,0v14.99a2.141,2.141,0,1,1-4.283,0V153.7Z" transform="translate(-72.298 -99.435)" fill="#6b4f5b"/>
      <path id="Path_991179" data-name="Path 991179" d="M125,175.4a3,3,0,0,1-3-3V150.559a.856.856,0,0,1,.774-.853l12.041-1.171a.857.857,0,0,1,.939.873l-.048,2.028V158.7a3,3,0,1,1-6,0v-1.285a.857.857,0,1,0-1.713,0V172.4A3,3,0,0,1,125,175.4Zm-1.285-24.064V172.4a1.285,1.285,0,1,0,2.57,0v-14.99a2.57,2.57,0,1,1,5.14,0V158.7a1.285,1.285,0,1,0,2.57,0v-7.281l.026-1.082Z" transform="translate(-69.155 -96.292)" fill="#12263f"/>
      <path id="Path_991180" data-name="Path 991180" d="M113.492,93.978H115.6a4.544,4.544,0,0,1,4.177,2.754l4.489,10.475a1.518,1.518,0,0,1-2.782,1.214L117.5,99.459l-.168,7.059L105.3,107.688l1.248-8.23-3.984,8.963a1.518,1.518,0,0,1-2.782-1.214l4.489-10.475a4.544,4.544,0,0,1,4.177-2.754h5.048Z" transform="translate(-51.594 -53.421)" fill="#ffce56"/>
      <path id="Path_991181" data-name="Path 991181" d="M119.734,107.038a2.377,2.377,0,0,1-2.17-1.41l-2.435-5.48-.077,3.247a.857.857,0,0,1-.773.832L102.238,105.4a.857.857,0,0,1-.93-.981l.294-1.941-1.4,3.151a2.375,2.375,0,0,1-4.352-1.9l4.489-10.475A5.4,5.4,0,0,1,105.3,89.98h7.161a5.4,5.4,0,0,1,4.964,3.273l4.489,10.476a2.374,2.374,0,0,1-2.183,3.309Zm-5.37-11.578a.857.857,0,0,1,.782.509l3.984,8.963a.662.662,0,0,0,.6.393.661.661,0,0,0,.608-.922l-4.489-10.476a3.683,3.683,0,0,0-3.389-2.235H105.3a3.683,3.683,0,0,0-3.389,2.235L97.425,104.4a.661.661,0,0,0,.608.922.662.662,0,0,0,.6-.393l3.984-8.963a.857.857,0,0,1,1.63.476l-1.083,7.142,10.191-.991.15-6.3a.857.857,0,0,1,.688-.82A.887.887,0,0,1,114.364,95.46Z" transform="translate(-48.453 -50.279)" fill="#12263f"/>
      <path id="Path_991182" data-name="Path 991182" d="M147.183,84.8V82.6s3.881-.373,3.66,0V84.8a1.83,1.83,0,0,1-3.66,0Z" transform="translate(-88.945 -44.351)" fill="#ffe8dc"/>
      <path id="Path_991183" data-name="Path 991183" d="M145.869,84.325a2.69,2.69,0,0,1-2.687-2.687V79.445a.856.856,0,0,1,.775-.853c4.005-.386,4.209-.065,4.467.34a.9.9,0,0,1,.132.611v2.1A2.689,2.689,0,0,1,145.869,84.325Zm-.974-4.094v1.408a.974.974,0,0,0,1.947,0v-1.5C146.353,80.137,145.623,80.175,144.9,80.231Zm2.066-1.221h0Z" transform="translate(-85.801 -41.193)" fill="#12263f"/>
      <path id="Path_991184" data-name="Path 991184" d="M180.141,122.283a2.141,2.141,0,1,1,2.141-2.141A2.141,2.141,0,0,1,180.141,122.283Z" transform="translate(-113.163 -72.298)" fill="#fc8c29"/>
      <path id="Path_991185" data-name="Path 991185" d="M177,120a3,3,0,1,1,3-3A3,3,0,0,1,177,120Zm0-4.283A1.285,1.285,0,1,0,178.283,117,1.286,1.286,0,0,0,177,115.713Z" transform="translate(-110.019 -69.155)" fill="#12263f"/>
      <path id="Path_991186" data-name="Path 991186" d="M139.058,42.057a4.67,4.67,0,0,1-4.67-4.67V34.67a4.67,4.67,0,0,1,9.339,0v2.717A4.67,4.67,0,0,1,139.058,42.057Z" transform="translate(-78.89 -3.143)" fill="#ffe8dc"/>
      <path id="Path_991187" data-name="Path 991187" d="M135.913,39.77a5.533,5.533,0,0,1-5.527-5.526V31.527a5.527,5.527,0,0,1,11.053,0v2.717A5.533,5.533,0,0,1,135.913,39.77Zm0-12.057a3.818,3.818,0,0,0-3.813,3.813v2.717a3.813,3.813,0,0,0,7.627,0V31.527A3.818,3.818,0,0,0,135.913,27.713Z" transform="translate(-75.745)" fill="#12263f"/>
    </g>
  </g>
</svg>
