<svg xmlns="http://www.w3.org/2000/svg" width="90" height="90" viewBox="0 0 90 90">
  <g id="img7" transform="translate(-209.711 -2900)">
    <rect id="Rectangle_454209" data-name="Rectangle 454209" width="90" height="90" rx="10" transform="translate(209.711 2900)" fill="#fff"/>
    <g id="logo-en" transform="translate(217.381 2913.785)">
      <g id="Group_1181977" data-name="Group 1181977" transform="translate(0.007 -0.075)">
        <g id="Group_1181976" data-name="Group 1181976">
          <g id="Group_1181975" data-name="Group 1181975">
            <g id="Group_1181974" data-name="Group 1181974">
              <path id="Path_990487" data-name="Path 990487" d="M66.137,70.81a9.713,9.713,0,0,1-6.369.753,22.137,22.137,0,0,1-4.246-1.438l-3.013-1.233a14.729,14.729,0,0,0-8.081-.205h-.274a13.552,13.552,0,0,0-8.081.205c-1.027.342-1.986.822-3.013,1.233a24.127,24.127,0,0,1-4.246,1.507,9.764,9.764,0,0,1-6.369-.753l-.274-.137c-.068,0-.068,0-.068.068a10.371,10.371,0,0,0,4.794,2.808,10.033,10.033,0,0,0,3.767.274A12.436,12.436,0,0,0,36,71.837l2.876-1.918a4.882,4.882,0,0,1,3.63-.685c.685.068.137.411.068.479a27.394,27.394,0,0,0-4.863,3.013c-1.027.753-2.876,2.534-2.876,2.534l1.37,1.164,1.507-1.644a27.187,27.187,0,0,1,6.3-4.863.514.514,0,0,1,.616,0,27.187,27.187,0,0,1,6.3,4.863l1.507,1.644,1.37-1.164-2.876-2.534a27.394,27.394,0,0,0-4.863-3.013c-.137-.068-.616-.411.068-.479a4.882,4.882,0,0,1,3.63.685l2.876,1.918a12.436,12.436,0,0,0,5.342,2.055,10.033,10.033,0,0,0,3.767-.274,11.7,11.7,0,0,0,4.794-2.808.239.239,0,0,0-.137-.068l-.274.068m6.712-5.958a9.648,9.648,0,0,1-2.876,1.507,16.8,16.8,0,0,1-4.52.685,56.882,56.882,0,0,0-5.89.479c-.137,0-.205,0-.137-.068a7.234,7.234,0,0,0,3.835-3.7l1.918-3.9v-.137c-.137.068-2.055,1.712-2.945,2.534L59.015,65.4a12.5,12.5,0,0,1-5,2.6h-.068l-.068.068,3.7.89a23.4,23.4,0,0,0,4.863.89A11.411,11.411,0,0,0,72.986,64.92c0-.068-.068-.068-.137-.068m6.027-9.177a14.441,14.441,0,0,1-3.424,3.013,21.558,21.558,0,0,1-3.493,1.918,17.019,17.019,0,0,0-4.315,2.534l-.274.205c-.068,0-.068,0-.068-.068a12.538,12.538,0,0,0,2.671-6.438,25.581,25.581,0,0,1,.685-4.589v-.137A19.97,19.97,0,0,0,67.37,58L66.137,61.5A10.114,10.114,0,0,1,63.6,65.673l-.137.137v.068c.137,0,.274-.068.411-.068l3.972-.822a13.855,13.855,0,0,0,6.027-2.534,14.005,14.005,0,0,0,4.315-5.068,16.729,16.729,0,0,0,.685-1.644c.137-.137.068-.137,0-.068m2.6-10.273a12.184,12.184,0,0,1-3.15,4.931,45.775,45.775,0,0,0-4.52,5.137c0,.068-.137,0-.068-.068a13.841,13.841,0,0,0,.411-5.821c-.274-1.644-.959-3.424-1.164-5.41l-.068-.068c0,.068-.068.137-.068.205a19.492,19.492,0,0,0-.822,3.972c-.068,1.644.205,3.767.068,5.41A14.214,14.214,0,0,1,70.931,59.3v.137l4.109-2.534A15.423,15.423,0,0,0,79.355,52.8a12.275,12.275,0,0,0,2.26-7.191v-.274a.239.239,0,0,0-.137.068" transform="translate(-6.969 -13.846)" fill="#009edb"/>
              <path id="Path_990488" data-name="Path 990488" d="M70.133,33.608h0a13.2,13.2,0,0,0-.068-1.644c-.137-1.918-1.3-3.493-2.329-5.137a25.454,25.454,0,0,1-1.849-3.287.239.239,0,0,0-.137-.068,7.1,7.1,0,0,0,.068,1.1,33.359,33.359,0,0,0,2.055,8.081,11.677,11.677,0,0,1,.685,5.068c0,.137,0,.137.068.205.616-.89,1.849-2.123,2.6-3.082s4.863-5.616,2.876-12.054a4.189,4.189,0,0,0-.342-.822l-.068.068c0,4.657-2.26,6.643-3.15,9.794a15.269,15.269,0,0,0-.411,1.781M70.2,24.02l-.411-1.1-.274-.616a9.522,9.522,0,0,0-2.808-3.15,13.339,13.339,0,0,1-2.466-2.739h-.205c.068.205.685,2.26,1.1,3.219a19.325,19.325,0,0,0,2.466,3.7l.205.274a18.356,18.356,0,0,1,2.671,5.137.067.067,0,0,0,.068.068l1.164-3.561a35.052,35.052,0,0,0,1.027-3.835,13.184,13.184,0,0,0-2.329-9.177.239.239,0,0,0-.068.137l.068.274.137.411a12.633,12.633,0,0,1,.068,5.068,19.716,19.716,0,0,0-.342,4.041c0,.205.137,1.918.137,1.986s-.068,0-.137,0M64.723,6.83a5.3,5.3,0,0,1,1.3,1.918,37.33,37.33,0,0,1,.959,4.178l.616,2.26c0,.068-.068.137-.137.068a13.456,13.456,0,0,0-3.7-3.082,8.91,8.91,0,0,1-2.4-2.123l-.342-.479a.1.1,0,0,0-.137,0v.205a8.783,8.783,0,0,0,2.123,4.109c.89.822,1.849,1.575,2.739,2.329A29.8,29.8,0,0,1,69.037,19.5s.068.068.068,0V18.4l.068-3.287v-1.1a9.031,9.031,0,0,0-.616-3.287A7.635,7.635,0,0,0,65,6.83c-.068-.068-.205-.068-.342-.137a.212.212,0,0,0,.068.137M57.668,3.611A17.9,17.9,0,0,1,60.2,6.624a14.11,14.11,0,0,0,2.4,2.945c.616.616,2.466,2.055,2.945,2.466-.068-.548-.959-4.452-3.356-6.369a12.226,12.226,0,0,0-4.726-2.329v.137l.205.137M19.316,56.962a22.139,22.139,0,0,0,4.726-.89l3.7-.89h.068a.067.067,0,0,0-.068-.068h-.068a13.244,13.244,0,0,1-5.068-2.6l-3.219-3.082-2.945-2.534v.137c.274.411,1.3,2.671,1.918,3.9a7,7,0,0,0,3.835,3.7c.068.068,0,.068-.137.068a55.376,55.376,0,0,0-5.89-.479,16.8,16.8,0,0,1-4.52-.685,9.648,9.648,0,0,1-2.876-1.507H8.632a11.951,11.951,0,0,0,5.479,4.246,14.933,14.933,0,0,0,5.205.685M17.74,52.922c.137,0,.205.068.411.068v-.068l-.137-.137a10.891,10.891,0,0,1-2.534-4.178l-1.233-3.493a19.97,19.97,0,0,0-3.287-5.89v.137a25.664,25.664,0,0,1,.753,4.589,12.478,12.478,0,0,0,2.671,6.369c0,.068,0,.137-.068.068l-.274-.205a17.019,17.019,0,0,0-4.315-2.534,21.558,21.558,0,0,1-3.493-1.918A14.441,14.441,0,0,1,2.81,42.717H2.742a16.729,16.729,0,0,0,.685,1.644A14.192,14.192,0,0,0,7.81,49.429a12.4,12.4,0,0,0,6.027,2.534c1.3.342,2.6.685,3.9.959m-11.026-8.9,4.109,2.534a.239.239,0,0,0,.068-.137A14.468,14.468,0,0,1,9.727,40.8c-.137-1.712.137-3.767.068-5.41a20.144,20.144,0,0,0-.822-4.041c0-.068-.068-.137-.068-.205l-.068.068h0a49.527,49.527,0,0,1-1.164,5.41,14,14,0,0,0,.411,5.821c.068.068-.068.137-.068.068A40.434,40.434,0,0,0,3.5,37.375a11.952,11.952,0,0,1-3.15-4.863.239.239,0,0,0-.137-.068c-.068,0,0,.137,0,.274a12.429,12.429,0,0,0,2.26,7.191,15.2,15.2,0,0,0,4.246,4.109m-.753-6.027c.068-.068.068-.068.068-.205a10.661,10.661,0,0,1,.753-5.068,39.957,39.957,0,0,0,2.055-8.081c0-.342.068-.959.068-1.1-.068,0-.068,0-.068.068A25.454,25.454,0,0,1,6.988,26.9a10.139,10.139,0,0,0-2.329,5.068,6.6,6.6,0,0,0,0,1.644.067.067,0,0,1-.068.068v-.068l-.479-1.644c-.959-3.15-3.15-5.137-3.15-9.794L.893,22.1c-.137.274-.205.548-.342.822C-1.436,29.362,2.6,34.019,3.427,34.978S5.344,37.1,5.961,37.991M3.084,25.184l1.164,3.561a.067.067,0,0,0,.068-.068,20.354,20.354,0,0,1,2.671-5.137l.205-.274a21.725,21.725,0,0,0,2.466-3.7c.411-.959,1.027-3.013,1.1-3.219h-.205a13.339,13.339,0,0,1-2.466,2.739,9.3,9.3,0,0,0-2.876,3.219c-.068.205-.205.411-.274.616l-.411,1.164s-.068.137-.068,0,.137-1.712.137-1.986a19.727,19.727,0,0,0-.411-4.041,12.615,12.615,0,0,1,.068-5.068.973.973,0,0,1,.137-.411c0-.068.068-.205.068-.274s0-.068-.068-.137a13.313,13.313,0,0,0-2.4,9.177c.342,1.3.685,2.6,1.1,3.835m2.466-10,.068,3.287V19.5h.068a24.866,24.866,0,0,1,3.219-3.356l2.739-2.329a8.783,8.783,0,0,0,2.123-4.109V9.5H13.7l-.342.479A8.625,8.625,0,0,1,11.029,12.1a11.992,11.992,0,0,0-3.7,3.082c-.068.068-.137.068-.068-.068l.616-2.26a37.329,37.329,0,0,1,.959-4.178,5.953,5.953,0,0,1,1.3-1.918V6.624c-.137,0-.205.068-.342.137a7.855,7.855,0,0,0-3.63,3.972,7.6,7.6,0,0,0-.616,3.287v1.164m3.63-3.219h0L12.193,9.5a16.681,16.681,0,0,0,2.4-2.945,15.177,15.177,0,0,1,2.534-3.013l.205-.205V3.2A11.34,11.34,0,0,0,12.6,5.529c-2.534,1.986-3.356,5.89-3.424,6.438M36.711,33.2c.205-.274-.274-.479-.411,0s.205.342.411,0m5.205-12.054c-.205-.068-.959.822-.822.959a2.277,2.277,0,0,0,.822-.959m.137-.137c.137.068.616-.205.548-.274s-.685-.342-.685-.205a.655.655,0,0,0,.137.479M51.3,29.5c.274-.068.205-.479,0-.479s-.479.342-.411.342.274.205.411.137M47.943,20.39c-.205,0-.274.205-.068.342a.563.563,0,0,0,.479-.068.462.462,0,0,0,.274-.411c0-.205-.274-.479-.137-.616s.342.068.479,0a.377.377,0,0,0,.205-.342c0-.137-.068-.548-.342-.548s-.548.548-.548.548a.585.585,0,0,0,0,.479c.068.274,0,.616-.342.616" transform="translate(-0.007 -0.957)" fill="#009edb"/>
              <path id="Path_990489" data-name="Path 990489" d="M64.235,20.977a12.97,12.97,0,0,0,.411,1.233c.068.205.137.959.274.89s.137-.479.068-.685a8.844,8.844,0,0,0-.342-1.438c-.068-.274-.548-1.3-.685-1.233s.205.685.274.959-.068.137,0,.274m-2.4-11.643c.205.068.205-.342-.137-.616s-.89-.137-.753,0a4.119,4.119,0,0,0,.89.616M51.564,6.389c-.479-.274-.068-.685-.411-.959a1.045,1.045,0,0,0-1.1.205c-.342.411.411.274.616.411s.89.616.959.548a.131.131,0,0,0-.068-.205M54.3,5.019c-.616-.274-2.876-.274-2.808.342s1.3,0,1.644,0,1.712-.068,1.164-.342M48.072,31.455c-.137-.068-.342.068-.411-.068s-.205-.068-.205,0a.347.347,0,0,0,.068.342.417.417,0,0,0,.548,0,.208.208,0,0,0,0-.274m-1.3-4.589c.205,0,.205-.137.274-.137s0,.137.205.137.411-.479-.205-.479c-.479,0-.411.479-.274.479m.822.548c-.342-.068-.274.137-.548.137-.411.068-.068-.274-.205-.411-.068-.068-.274.274-.342.479,0,.137,0,.411.137.479l1.3.137c.274,0,0-.753-.342-.822m-4.246,4.452c.137,0,.205-.411.137-.616S43,31.181,43,31.318a1.081,1.081,0,0,0,.342.548m-5.479,0c0-.137,0-.685-.137-.822s-.137.068-.205.068-.068-.274-.137-.274,0,.411.137.685.342.685.342.342m-.137-1.233a3.878,3.878,0,0,0,.205-1.233.722.722,0,0,0-.274-.616c-.068,0,0,.205.068.548a5.46,5.46,0,0,1-.205,1.027c0,.068.137.411.205.274" transform="translate(-11.778 -1.475)" fill="#009edb"/>
              <path id="Path_990490" data-name="Path 990490" d="M24.178,44.425a26.054,26.054,0,1,0,0-36.846,26,26,0,0,0,0,36.846M17.672,26.549h3.972a21.742,21.742,0,0,0,1.027,5.958,2.433,2.433,0,0,1-.616-.274c-.274-.137-.479.068-.548.068-.274,0-.616-.205-.616,0s.274.068.274.205-.685.137-.753-.137-.205-.548-.274-.205-.342.274-.479.342a.523.523,0,0,0-.137.342c0,.137-.342.068-.342.274s.205.274.274.479.274.342.137.411-.068-.068-.205,0a5.3,5.3,0,0,0,.753,2.055c.137-.068-.205-.685-.205-.959a.459.459,0,0,1,.274-.479c.205-.137.753.822.959.685s-.068-.274.137-.342.822.89,1.027.616c.137-.205.274.137.274.205.205.342.548.342.753.753s.685,1.164,1.027,1.164.137-.342.274-.342.274.479.479.753a1,1,0,0,0,.616.411c.479.616,1.027,1.233,1.575,1.849l-2.808,2.808a24.057,24.057,0,0,1-6.849-16.642m22.669-5.684L40.067,21a3.839,3.839,0,0,0-1.027.685l-2.808-2.808a9.388,9.388,0,0,1,5.821-2.4v3.972a5.492,5.492,0,0,0-1.438.342,2.556,2.556,0,0,1,.411-.548,2.21,2.21,0,0,0-.685.616m-2.123,6.506h0v.137c0-.137-.068-.205-.137-.342-.068-.068-.137-.137-.205-.137h-.342L37.4,27.1h-.959c-.137,0-.205,0-.205-.068-.068-.274.342-.068.616-.89.068-.068.068-.205.137-.274l.068-.137.068-.068.068-.068a.5.5,0,0,1,.411-.137h.137l.137.137.205.411c.068.068.137.068.137.137a.945.945,0,0,1,.274.205l.068.068v.068c.068.068.068.068.137.068h.274c.137-.068.137,0,.205,0v.068c0,.068,0,.068-.068.137,0,.068-.068.068-.068.137-.068.068-.137.137-.205.137a2.966,2.966,0,0,1-.342-.068c-.068,0-.137,0-.137.068v.342m-7.534,6.575a2.508,2.508,0,0,1-.274-1.233,2.309,2.309,0,0,0-.342-1.164,3.438,3.438,0,0,1-.137-.822c0-.479-.411-.342-.411-.479s.342,0,.342-.137a1.651,1.651,0,0,0-.753-.822c-.342-.137-.205-.342-.205-.548a.738.738,0,0,0-.137-.548c-.068-.274,0-.753.342-.753.137,0,.342.137.548,0s.068-.548.068-.89h1.918c0,.274.068.616.068.89-.137.068-.205.205-.137.274s.137.137.205.068a10.6,10.6,0,0,0,2.6,5.342l-2.808,2.808a7.278,7.278,0,0,1-.616-.753v-.205c0-.479-.342-.753-.479-1.164m-2.466-4.657a15.892,15.892,0,0,1-.342-2.6h1.644c-.137.205-.479.411-.548.616s-.479.89-.205,1.164c.616.685-.137.959-.548.822m.342,10.136-.342.342-.479-.479a.747.747,0,0,1,.822.137m4.246-17.6c-.068,0-.068.068-.137.068-.205.205-.753.137-.685.342s1.507-.479,1.507-.342-.616.342-1.027.548-.548.548-1.233.548c-.342,0-.479.274-.616.479a5.108,5.108,0,0,0-.479.822,2.686,2.686,0,0,1-.274,1.233H27.808a14.806,14.806,0,0,1,3.9-9.451l2.808,2.808a18.725,18.725,0,0,0-1.781,2.945m2.6-2.055L37.807,22.1h-.274c-.274,0-.274-.205-.479-.205-.411.068-.479.205-.548.137a3.838,3.838,0,0,0-1.027-.685,1.878,1.878,0,0,0-1.37.068c-.068,0-.068.068-.137.068.479-.616.959-1.233,1.37-1.849m-3.424,5c0,.274-.068.548-.068.822H30.411a.7.7,0,0,1,.137-.616.742.742,0,0,1,.822-.342,2.117,2.117,0,0,1,.548.137m1.233,3.219.137.205c.137.137.274.274.411.205a1.461,1.461,0,0,1,.548,0,1.228,1.228,0,0,1,.479.342c.137.205.411.068.616.205s.411.274.137.411.274.411.342.411.137-.137.137-.342c0-.068.137-.342.342-.274s.822.822,1.027.548.068-.616.137-.753a.147.147,0,0,1,.137-.137,4.119,4.119,0,0,0,.616.89L35.41,32.371a8.612,8.612,0,0,1-2.26-4.52m2.192-9.794L32.6,15.249a14.806,14.806,0,0,1,9.451-3.9v3.972a10.455,10.455,0,0,0-6.712,2.739m-3.561-3.63-2.808-2.808a19.89,19.89,0,0,1,13.081-5.41v3.972a15.777,15.777,0,0,0-10.273,4.246m-.822.753a15.922,15.922,0,0,0-4.246,10.273H22.74a19.89,19.89,0,0,1,5.41-13.081ZM26.712,26.549a11.868,11.868,0,0,0,.205,2.192c-.068,0-.068-.205-.274-.137a11.248,11.248,0,0,0-1.3,1.918c-.274.479.137,1.507-.274,1.849a3.878,3.878,0,0,1-1.233.205h-.068a19.458,19.458,0,0,1-1.1-5.89ZM41.985,50.931a24.694,24.694,0,0,1-16.642-6.917l2.808-2.808a20.982,20.982,0,0,0,13.834,5.753Zm0-5.068A19.89,19.89,0,0,1,28.9,40.452l.479-.479a1.734,1.734,0,0,0,1.3.342c.274-.068.822-.548,1.164-.548s.89.137,1.233-.068-.205-.89-.411-1.233c-.068-.068-.068-.137-.137-.205a15.408,15.408,0,0,0,9.588,3.63Zm0-5.137a14.806,14.806,0,0,1-9.451-3.9l2.808-2.808A10.564,10.564,0,0,0,40,36.48c-.616.274-.89.685-.822,1.027s-.411.548-.411.959.548.685.616,1.1c.068.205.548.548.959.822a4.223,4.223,0,0,0,1.575.137Zm-.137-5.479c-.205-.137-.342.137-.616.274a9.879,9.879,0,0,1-5.068-2.329l2.808-2.808a5.572,5.572,0,0,0,3.013,1.233c0,.137.137.274.137.548s-.205.411-.137.548.685,0,.753-.205-.205-.342-.274-.548c-.068-.137-.068-.205-.137-.342h.205a1.9,1.9,0,0,0,.616-.068.147.147,0,0,0,.137-.137c0-.068.068-.137.068-.205s.068-.068.068-.137h0l.068.068c.068.137.205.548.342.479s.205-.685.137-.822a.514.514,0,0,1,0-.616c0-.068.068-.479.205-.411s0,.411,0,.548c0,.205.137.479.342.342.137-.068.274-.274.411-.205s-.342.205-.411.342.205.205.137.274-.137,0-.205.068.137.479,0,.548-.616.205-.753.274-.274-.068-.205-.137,0-.342-.137-.342-.137.068-.137.205.137.342.137.411-.205.137-.342.205a2.084,2.084,0,0,1-.548.548c-.205.137-.616.137-.616.274s.205.137.274.205c.137.205.205.479-.068.616s-.616-.205-.753-.137-.205.411-.274.822.753.548,1.164.342c.274-.137.205-.548.479-.685s.205-.411.479-.342.205-.205.479-.205.274.205.616.274c.548.137.548.548.616.342s.137-.342-.274-.479-.616-.616-.274-.479c.411.205.753.205.822.411s.479.137.548.342c.068.342.342,0,.137-.205s-.137-.274,0-.411.205.068.411-.205-.068-.205-.137-.342,0-.89.274-.753.548-.068.411-.137.068-.479.137-.479,0,.274.068.342.753-.205.822.137-.479.548-.616.548c-.274,0-.479.274-.685.548s-.411.342-.274.616.411.205.685.068.479-.342.616-.411c.274-.137.479.685.342.822s-.411.205-.548.342a2.907,2.907,0,0,1-1.3.411c-.274.068-.274.137-.342.411s-1.3.068-1.575.068.205-.616-.205-.548l-1.233.205c-.068,0-.479.342-.822.068m3.63,6.369a2.225,2.225,0,0,1,.89.685c.205.342.274.479.137.822-.342.616-.205,1.027.479,1.233.411.137.548.548.822.822a21.243,21.243,0,0,1-4.657.685V41.891c.753-.068,1.575-.137,2.329-.274m-2.329-.822v-.479c.89-.137.685.411,1.3.205a.533.533,0,0,1,.548.137,16.793,16.793,0,0,0-1.849.137m0,10.2V46.959a20.777,20.777,0,0,0,6.1-1.1.252.252,0,0,0,.205.068,1.436,1.436,0,0,0,.753-.274,8.04,8.04,0,0,0,1.849-1.027,20.771,20.771,0,0,0,4.931-3.493l2.808,2.808A24.833,24.833,0,0,1,43.149,51M54.244,15.181l.959-.959a1.7,1.7,0,0,0,.959.548.589.589,0,0,1,.548.548c.068.342.411.479.753.548s.548.479.822.479,1.164,1.233,1.507,1.644c.205.205.479.548.685.274s.205-.205.342-.274a20.126,20.126,0,0,1,1.712,7.465H58.559a11.9,11.9,0,0,0-.342-2.671,1.9,1.9,0,0,0,.205-.89.272.272,0,0,0-.479-.205,9.775,9.775,0,0,0-.548-1.507c-.068-.274-.137-.616-.205-.89,0-.068-.137-.137-.274-.274a6.364,6.364,0,0,0-.342-.685c.205-.137.274-.479,0-.411-.411.068-.137-.205-.274-.342s-.137,0-.205.068a19.071,19.071,0,0,0-1.781-2.329v-.068c-.137,0-.137-.068-.068-.068m2.4,23.217c-.137-.274-.205-.616-.342-.89-.068-.274-.616-.274-.616-.137a3.334,3.334,0,0,1-.068.822v.068l-1.438-1.438a15.922,15.922,0,0,0,4.246-10.273h3.972a19.58,19.58,0,0,1-5.41,13.013l-.205-.205a1.642,1.642,0,0,0-.137-.959m-3.287,2.739c.205-.342.616-.959.822-1.3s-.548-.822-.959-.959-.411-.342-.411-.685a4.431,4.431,0,0,0,.616-.548l2.808,2.808a19.671,19.671,0,0,1-3.013,2.329c-.068-.137.411-.616.548-.822s-.548-.479-.411-.822m1.712-16.368c-.342-.479.137-.548.616-.753.274-.137.616.068.616-.068a.693.693,0,0,1,.274-.479,1.007,1.007,0,0,0,.411-.342c0,.137.068.274.068.411a1.561,1.561,0,0,0-.205.753c0,.205,0,.479.205,0,0-.068.068-.068.068-.137a4.436,4.436,0,0,1,.137,1.3H54.313v-.068c.205-.342.959-.274.753-.616m.548-5.616a.067.067,0,0,1-.068.068c-.068.068-.411-.479-.411-.068s.137.548.411.616.137.205.342.274a.519.519,0,0,1,.274.137,13.215,13.215,0,0,1,.753,2.329.945.945,0,0,0-.274.205c-.137.137-.068.411-.205.616-.205.342-.274.548-.822.411-.342-.137-.068-.548,0-.89s.205-.274.205-.479-.685-.959-1.027-.685-.274.548-.548.822c-.137.137-.274.137-.479,0s-.274-.274-.205-.411-.479-.753-.685-1.027a1.43,1.43,0,0,0-1.1-.548,10.764,10.764,0,0,0-1.3-1.781l2.808-2.808a14.77,14.77,0,0,1,2.329,3.219M50.888,21.07l-.137.205c-.068.137-.411-.137-.479-.068s.479.753-.068.548S50,21.55,50,21.344s-.479-.342-.205-.479,0-.342.274-.411.205-.342-.137-.411-.274.753-.479.616a1.9,1.9,0,0,0-.616-.068l.959-.959a.617.617,0,0,0,.342.068,4.411,4.411,0,0,0,.753,1.37m-1.1,13.9a8.807,8.807,0,0,1,1.3.274c.274.137.479.411.685.068a5.4,5.4,0,0,0,.822-2.055c.137-1.027-.068-1.37-.205-1.37s-.411.274-.685.274c-.137,0-.137.274-.137.479s-.274.411-.342.274-.205-.068-.137.068-.548.068-.822-.068c-.411-.205.479-.205.89-.548a13.148,13.148,0,0,0,1.027-.959c.205-.342.205-.753.548-1.027s.89-.205.959-.616.137-.342.342-.274,2.123-.068,2.123-.685c0-.274-.411-.616-.822-.685-.274,0-.342-.548-.479-.822a5.109,5.109,0,0,0-.479-.822h2.876a14.806,14.806,0,0,1-3.9,9.451l-.068-.068V35.59c.068-.548-.342-1.438-.479-1.3s0,.137-.411.753c-.137.205-.342.548-.616.548s-.274-.137-.685-.068a2.948,2.948,0,0,1-1.1,0,7.611,7.611,0,0,1-1.849-.89c.068-.068.274.068.274-.137s1.1.411,1.37.479M60.545,43.26l-2.808-2.808A20.982,20.982,0,0,0,63.49,26.618h4.041A24.578,24.578,0,0,1,60.545,43.26m6.986-17.807H63.49a20.391,20.391,0,0,0-2.055-8.492l.068-.068c.274-.274-1.3-2.329-1.575-2.534a10.84,10.84,0,0,1-.89-.89,12.214,12.214,0,0,1-1.507-1.781l2.945-2.945a24.5,24.5,0,0,1,7.054,16.711M43.149,1.072A25,25,0,0,1,59.86,7.989l-2.739,2.739c-.137-.068-.274-.137-.205-.274.137-.205-.205-.205-.274-.753a2.172,2.172,0,0,0-1.027-1.3,6.947,6.947,0,0,0-.89-.616c-.342-.137-1.027-.548-1.37-.411a2.433,2.433,0,0,1-.685.137,20.881,20.881,0,0,0-9.451-2.466Zm0,5.137a20.165,20.165,0,0,1,8.424,2.123,2.854,2.854,0,0,0,.548,1.233,6.844,6.844,0,0,0,.548.959c.205.205.068.616.137.959,0,.137.137.274.205.411v.548c0,.068.274.068.479-.068s.342-.411.616-.342.616.616.822.959l-1.3,1.3c-.137-.274-.274-.616-.205-.616s.205.068.274.068c.274,0-.205-.205-.205-.274-.205-.205-.205-.479-.479-.685s-.685-.068-.822-.342a3.753,3.753,0,0,0-1.1-1.233c-.068,0,.548.753.342.89s-.959-.479-1.027-.342.822.479,1.1.753c.137.137.411.548.685.89a15.938,15.938,0,0,0-9.04-3.219Zm0,5.068a14.806,14.806,0,0,1,9.451,3.9l-2.808,2.808a10.879,10.879,0,0,0-6.643-2.739Zm0,5.137a9.457,9.457,0,0,1,5.821,2.4l-.137.137-.137-.068c-.342-.137-1.027.548-.89.616s.411-.274.548-.205h.068l-1.164,1.233c-.342.137-.685.411-.685.616v.068l-.411.411-.205-.205a3.473,3.473,0,0,0-1.1-.616.922.922,0,0,0,.342-.616c0-.411-.137-.274-.342-.068s-.411.274-.548.479a3.1,3.1,0,0,0-1.1-.205V16.413Zm-.479,5.068a.3.3,0,0,1-.068.342h0c-.137.137-.548-.342-.616.068-.137.411.274.205.274.274a1.27,1.27,0,0,0,.822.479c.274,0,.685,0,.685.274,0,.137.342.137.411.274,0,.205.205.548.342.479s.342.068.411.205,0,.205-.068.342c-.205.205.205.137.274.548s-.342.137-.411.411c-.137.205-.274.342-.411.548-.068.068.068.205.137.137s.205-.274.411-.274.411.753.616.822.137.342.205.411-.342,0-.274.137.479.205.479.411a.513.513,0,0,1-.479.411c-.205,0-.548-.479-.548-.342s.137.548.342.548.685-.205.479.068-.137.685-.274.685-.205,0-.068.205a.7.7,0,0,1-.137.616.385.385,0,0,1-.479-.068c0-.068.411-.068.411-.274s-.205-.274-.616-.137c-.205.068-.274-.068-.411-.068s-.548.479-.548.548v.342a1.157,1.157,0,0,1-.205.685,2.809,2.809,0,0,1-.753.068,4.855,4.855,0,0,1-3.013-1.164,1.29,1.29,0,0,1,.548-.137c.205.068.274-.068.411-.137s.479.137.685,0a2.346,2.346,0,0,0,.616-1.233c-.068-.205.479-.548.411-.616s-.137.068-.137,0,.137-.068,0-.342-.342-.137-.479-.137c-.205-.137-.548-.205-.616-.137s-.274-.137-.342-.068a.219.219,0,0,0-.205.205c-.068.137.068.274.068.411-.068.274-.479.479-.479.685s-.205.068-.274.137,0,.205-.137.205-.342.342-.479.616c-.205-.274-.411-.616-.616-.89.137-.068.274-.137.342-.068.205.137,1.027-1.3.89-1.712s-.342-.137-.548-.068-.205-.137-.137-.205.959-.068.479-.342c-.205-.137-.753-.137-.685-.342s.342,0,.411,0c.342.137.548-.548.753-.548.342,0,.205-.685-.137-.479s-.479.137-.616.342-.479.479-.479.205c0-.137.753-.548.89-.753a1.491,1.491,0,0,0,.342-.548c.068-.205,1.027-.342,1.233-.479a.845.845,0,0,0,.274-.548c0-.205-.274-.137-.342-.274s.342,0,.342-.205-.342,0-.479-.137c0-.068,0-.068.068-.137a4.4,4.4,0,0,1,1.507-.274h.137M42.054,1.072V5.044A20.982,20.982,0,0,0,28.219,10.8L25.411,7.989A24.694,24.694,0,0,1,42.054,1.072M24.521,8.811l2.808,2.808a20.982,20.982,0,0,0-5.753,13.834H17.6A25.353,25.353,0,0,1,24.521,8.811" transform="translate(-5.212 0.075)" fill="#009edb"/>
            </g>
          </g>
        </g>
      </g>
    </g>
  </g>
</svg>
