<svg xmlns="http://www.w3.org/2000/svg" xmlns:xlink="http://www.w3.org/1999/xlink" width="190.289" height="163.002" viewBox="0 0 190.289 163.002">
  <defs>
    <clipPath id="clip-path">
      <rect id="Rectangle_454698" data-name="Rectangle 454698" width="190" height="154.95"/>
    </clipPath>
    <clipPath id="clip-path-3">
      <path id="Path_991719" data-name="Path 991719" d="M267.477,303.826c.54-1.04,2.416-2.516,3.053-2.485l0,.011c.057-.021.111-.046.168-.065l.045-.014,7.453-2.362c1.99.238,4.451.123,5.84.577,2.233.73,13.991,2.133,5.422,28-.358,1.079.159,8.211.159,8.211s-6.268,5.979-21.69,1.036c0,0-2.042-10.555-3.965-14.584-1.519-4.393-1.937-7.387-1.526-8.482A47.264,47.264,0,0,1,267.477,303.826Z" transform="translate(-262.284 -298.911)"/>
    </clipPath>
    <clipPath id="clip-path-4">
      <path id="Path_991821" data-name="Path 991821" d="M92.373,305.712c-2.1-1.058-18.027-11.02-20.219-11.649-1.965-.565-4.078-1.563-6.032-.86l-5.551-1.759c-1.99.238-4.451.123-5.84.577-2.233.73-9.057,3.249-2.233,29.352.287,1.1-3.348,6.856-3.348,6.856s6.268,5.979,21.69,1.036c0,0,2.415-8.236,4.882-10.053a8.49,8.49,0,0,0,.9-1.355c4.042,3.1,8.282,5.685,10.29,6.344C90.912,318.772,93.217,309.422,92.373,305.712Z" transform="translate(-49.15 -291.444)"/>
    </clipPath>
  </defs>
  <g id="img76" transform="translate(-179.711 -25287)">
    <rect id="Rectangle_454415" data-name="Rectangle 454415" width="190" height="163" transform="translate(179.711 25287)" fill="#a8b8ff"/>
    <g id="OBJECTS" transform="translate(180.452 25202.814)">
      <g id="Group_1182488" data-name="Group 1182488" transform="translate(-0.452 92.236)">
        <g id="Group_1182485" data-name="Group 1182485">
          <g id="Group_1182386" data-name="Group 1182386" clip-path="url(#clip-path)">
            <circle id="Ellipse_13613" data-name="Ellipse 13613" cx="105.737" cy="105.737" r="105.737" transform="translate(-10.566 26.3)" fill="#bfebff"/>
            <g id="Group_1182385" data-name="Group 1182385" transform="translate(-2.906 54.245)">
              <g id="Group_1182384" data-name="Group 1182384">
                <g id="Group_1182382" data-name="Group 1182382" transform="translate(190.014 41.966)">
                  <g id="Group_1182381" data-name="Group 1182381">
                    <path id="Path_991648" data-name="Path 991648" d="M495.992,350.039c.2.752.66,1.394.912,2.125.427,1.24.489,2.562.865,3.814.025.082.059.192.09.272.261.656.869,1.139.933,1.892a16.277,16.277,0,0,0,.383,2.307c.3.6.3.6,1.735,1.959l-.251-1.987c-1.154-4.9-1.154-4.9-2.43-6.591l-.833-3.253.712.622-.372-1.57-.77-1.514-.685-2.422c-.2.055-.294.083-.329.618s.182,1.042.187,1.573l-.083.014c-.153-.114-.153-.114-.262-.1a4.858,4.858,0,0,0,.2,2.24m-.162,3.29q-.352-2.475-.818-4.894l.016-.226c.042-.25.475-2.484.476-2.485.219-.325.219-.325,1.385-.279l1.166,4.161.752,1.562.929,4.394c.652,1.205.652,1.205,1.9,7.011l.472,4.975-.971-.964a7.73,7.73,0,0,1-2.651-3.627l-.127-.81a16.094,16.094,0,0,0-.247-1.8c-.187-.687-.682-1.23-.886-1.909a31,31,0,0,1-.735-3.3,1.454,1.454,0,0,0-.233-.686l-.289-.732c-.042-.115-.112-.264-.143-.384" transform="translate(-493.844 -345.422)" fill="#50b5e3"/>
                    <path id="Path_991649" data-name="Path 991649" d="M524.206,480.693l.088.075.487-3.154c-.006.04-.014.081-.024.12-.014-.157-.033-.367-.046-.524l-.5,3.483" transform="translate(-511.944 -427.131)" fill="#50b5e3"/>
                    <path id="Path_991650" data-name="Path 991650" d="M514.907,445.934a4.2,4.2,0,0,0,.069,1.039l.9-1,.562-.41.2.646.626-2.38.21.153a1.062,1.062,0,0,1,.117.939,2.821,2.821,0,0,0,.048,2.034l.2-.37.414-.938.035-.369c-.031.038-.031.038-.112.328a2.308,2.308,0,0,1,.017-.261,69.566,69.566,0,0,0,.31-7.251l-.261-.346-.571.68c-.085.891-.141.973-.177,1.027a4.721,4.721,0,0,1-.577.023l-.591,3.58-1.308,2.274a4.559,4.559,0,0,0-.1.607" transform="translate(-506.174 -402.662)" fill="#50b5e3"/>
                    <path id="Path_991651" data-name="Path 991651" d="M523.813,435.407a72.533,72.533,0,0,1-.334,8.084,13.469,13.469,0,0,1,.6-1.663,1.192,1.192,0,0,0,.451.214c.41-2.182,1.029-5.479.707-7.669l-.016-.076c-.069.114-.265,1.6-.267,1.612a1.086,1.086,0,0,1-.257.646l-.3-1.076-.293-.074-.292-.008a.09.09,0,0,1,0,.01" transform="translate(-511.493 -400.525)" fill="#50b5e3"/>
                    <path id="Path_991652" data-name="Path 991652" d="M514.4,433.073l.124,1.543a.285.285,0,0,0,.037.082,10.828,10.828,0,0,1,.846,2.188,3.179,3.179,0,0,0,.525-1.488c-.044-.356-.338-.6-.427-.934a4.019,4.019,0,0,1-.034-.8c-.055-.842-.055-.842-.73-2.149a4.39,4.39,0,0,0-.339,1.555" transform="translate(-505.86 -398.802)" fill="#50b5e3"/>
                    <path id="Path_991653" data-name="Path 991653" d="M495.733,487.658c-.826,2.333-2.207,8-2.215,8.037-.407,2.03-.229,4.106-.488,6.147-.17,1.339-.9,2.52-1.088,3.853a.683.683,0,0,0,.085.432c.483.011.9.02,2.734-3.5.421-.808.421-.808.645-.95l.166.073c.239-.2.434-.446.675-.643a14.943,14.943,0,0,1-1.687,4.726c1.554-3.412,3.595-7.979,4.943-11.477,1.2-3.769,2.739-8.816,3.7-12.652.2-.893,1.264-6.715,1.047-8.549-.026-.138-.033-.169-.04-.2s-.015-.065-.023-.1-.016-.066-.025-.1l-.025-.1c-.008-.032-.017-.063-.025-.094s-.016-.058-.024-.087l-.022-.076-.019-.062c-.164.174-.263.279-.418,2.071-.24,2.765-.359,2.969-1.823,5.459l.44-4.225.183-2.249.713-3.538c-.662.27-1.451,4.7-1.459,4.74-.391,2.27-.391,2.27-1.875,3.75a2.164,2.164,0,0,0-.572.777c-.6,1.373-.625,2.935-1.406,4.248a16.4,16.4,0,0,0-2.095,4.286" transform="translate(-491.937 -422.571)" fill="#50b5e3"/>
                    <path id="Path_991654" data-name="Path 991654" d="M497.174,350.481c.2.752.66,1.394.912,2.125.427,1.24.489,2.562.865,3.814.025.082.059.192.09.272.195.491.716.758.875,1.274a20.794,20.794,0,0,1,.355,2.7c.1.574.1.574,1.783,2.148l-.212-1.95-.9-3.835a3.128,3.128,0,0,0-.662-1.624c-.807-.99-.807-.99-1.7-4.385l.712.622-.372-1.57-.77-1.514-.685-2.422c-.2.055-.294.083-.329.618s.182,1.042.187,1.573l-.083.014c-.153-.114-.153-.114-.262-.1a4.851,4.851,0,0,0,.2,2.241" transform="translate(-495.025 -345.864)" fill="#50b5e3"/>
                  </g>
                </g>
                <path id="Path_991655" data-name="Path 991655" d="M46.579,361.128c-.295,2.364-.723,5.511-.963,7.882-.125,1.126-3.6,2.138-4.419,2.646-2.527,1.574-3.771,5.839-4.251,8.563-.283,1.6.545,2.865.627,4.432.119,2.282-3.3,2.979-4.271,5.069l.8,3.671,1.433.127c.962,1.665.962,1.665,1.38,2.418l-.014.009c-.01.812-.009.784-.019,1.6l5.475,3.61.212,1.4c-11.584-5.374-14.064-7.9-22.117-22.544-2.97-5.4-3.12-11.6-4.921-17.332-1.745-5.554-8.6-6.676-10.492-12.105C2.69,343.813,1.543,334.6,6.279,328.9l.325-3.371L5.427,323.8l-1.6,1.046L2.275,321.8.536,318.609.21,313.937l-1.868-1.879-1.109-2.132-2.28-1.166c-.742-2.647-1.733-6.181-2.272-8.877q.562-2.221,1.215-4.411c.354-2.546.74-5.955,1.213-8.482l-1.569,5.576-.331,3.787-.857.255c-.441-1.463-.953-4.073.566-5.112l.313-2.859c2.076-5.3,2.694-11.078,5.385-16.17,2.014-3.81,6.069-5.866,8.217-9.561a84.612,84.612,0,0,1,5.353-7.488c.833-1.13,2.365-2.686,2.726-4.059.575-2.187.034-1.694-2.107-2.644l-2.639,2.3a7.016,7.016,0,0,1-1.429-.956l1.9-2.085.091,1.184,1.025-.727,1.448-1.892,1.585-1.666,1.458-.567c2.667-1.036,5.3-4.147,8.115-2.02,1.657,1.253,4.383,2.23,5.331,4.21,1.137,2.374-1.582,5,2.464,4.956.392,0,3.08-3.734,3.384-4.068a8.7,8.7,0,0,1-1.923-.845,7.428,7.428,0,0,1,3.523-2.24q.084,1.2.169,2.4l2.871.037c-1.263,1.6-2.122,3.412-3.244,5.1l1.834.932,1.676-2.1,2.234-1.729,1.872-.246-1,1.6-.307,2.462s-1.707,3.4-1.71,3.4c-.954,1.317-6.542,1.065-8.184,2-5.366,3.05-5.7,15.629,2.32,7.929l3.275-4.695c9.7-5.937,8.6,9.288,8.263,10.319-1.63,4.977-7.366.89-10.928,2,2.04,6.386,2.04,6.386-10.475,8.417a4.334,4.334,0,0,0-2.639,1.171c-1.95,1.461-1.71,4.27-3.562,5.791-2.269,1.863-5.608,1.351-7.75,3.5l-1.74,7.29-.7.369c-.884.467.155-5.8.327-6.5-3.359-2.205-6.712-1.8-9.547,1.072-.915.928-4.659,10.155-2.389,10.378l1.75.172,1.593-4.419,2.747.938-1.028,2.951c-.244.424-.566.992-.8,1.419l.356-.054-1.222.185-.544,3.192,3.2,2.952-1.344,5.255.933,2.633,1.9-.367,1.859,2.918,1.7-2.184,2.373-.694c2.523,2.915,3.517,3.623,7.41,4.391a2.988,2.988,0,0,1,1,.323,3.01,3.01,0,0,1,.918,1.088c.764,1.272,1.458,3.143,2.584,4.319,1.181,1.234,2.6,1.347,3.9,2.245,3.014,2.089,3.659,6.151,5.8,8.937,2.236,2.9,5.384,4.057,8.7,5.255,2.795,1.01,6.233,2.53,7.478,5.488,1.45,3.439-1.617,5.882-2.469,8.99" transform="translate(8.1 -239.063)" fill="#50b5e3"/>
                <g id="Group_1182383" data-name="Group 1182383" transform="translate(10.151 65.771)">
                  <path id="Path_991656" data-name="Path 991656" d="M18.969,409.436l-.356.054c.287-.519.535-.957.8-1.419l-.449,1.365" transform="translate(-18.613 -408.07)" fill="#50b5e3"/>
                  <path id="Path_991657" data-name="Path 991657" d="M20.729,408.069h0" transform="translate(-19.925 -408.069)" fill="#50b5e3"/>
                </g>
                <path id="Path_991658" data-name="Path 991658" d="M135.885,272.78l-2.377.355c-.372-.223-.85-.461-1.009-.324-.079.068-.067.234-.082.336a7.426,7.426,0,0,1-.718,1.542l-1.361.368c-.434-1.263-.434-1.263-3.5-2.508l.453-1.176c.418-.409.759-.543,1.016-.4,1.7.948,1.7.948,3.474-.826l-.521-2.127c-.489-.583-.489-.583-3.988,1.338-.448.246-1.193.019-1.7,0l1.711-1.482.622-1.266,1.286-2.173,2.73.048.05,1.693,2.988.316a3.257,3.257,0,0,0,.351,1.287c.074.1.192.257.18.384a6.7,6.7,0,0,1-.9,2.384l2.122.988-.826,1.249" transform="translate(-74.775 -253.243)" fill="#50b5e3"/>
                <path id="Path_991659" data-name="Path 991659" d="M160.858,252.5a32.112,32.112,0,0,0-6.688-.761c-.238-.011-.533-.067-.593-.3a.532.532,0,0,1,.089-.375c1.512-2.774,5.425-3.977,8.333-3.081a1.271,1.271,0,0,1,.572.3,2.362,2.362,0,0,1,.358.9,1.753,1.753,0,0,0,1.765,1.138c-1.078.1-2.849,1.607-3.836,2.169" transform="translate(-92.134 -242.866)" fill="#50b5e3"/>
                <path id="Path_991660" data-name="Path 991660" d="M189.634,257.528a.544.544,0,0,1-.141.145c-.568.462-1.38.231-1.949.687-.444.355-.412.93-.64,1.387-2.453,4.912-4.245,6.379-10.007,6.831-1.655.13-3.514-.573-4.992.319-2.317,1.4-1.846,5.455-4.542,6.444-1.155.424-4.008-.008-4.181-.633a.5.5,0,0,1-.017-.206c.358-1.739.85-3.472,1.244-5.207.437-1.92,2.4-2.8,3.854-3.921-1.7-.743-1.7-.743-1.714-.763.061-.4.442-1.532,2.65-3.431q-1.628-.214-3.214-.453l-1.558-.657c.477-1.395.69-1.373,1.014-1.339,1.858.192,1.858.192,4.048-1.772,1.765-.278,1.765-.278,4.792.09.543.066,3.475-1.709,4.567-1.845,2.617-.326,7.085-.885,8.24,2.091l2.136.594c.489,1.054.492,1.472.409,1.637" transform="translate(-98.081 -246.118)" fill="#50b5e3"/>
                <path id="Path_991661" data-name="Path 991661" d="M484.571,296.822c.926,2.451,2.2,5.706,2.989,8.205l-1.887-2.908-1.791-5.645c-1.3-2.1-2.972-4.935-4.366-6.97l-1.017-1.463a40.284,40.284,0,0,0-4.346-6.354l.047-.111c.492.2,1.62,1.519,3.352,3.931.893,1.244.947,1.318,1.363,1.405a103.047,103.047,0,0,1,5.656,9.91" transform="translate(-290.897 -263.872)" fill="#50b5e3"/>
                <path id="Path_991662" data-name="Path 991662" d="M282.172,416.793c-1.407,2.536-1.1,5.625-2.628,8.124-1.905,3.124-5.029,5.318-7.22,8.221-4.728,6.262-.16,14.431-3,21.085-1,2.348-4.935,1.708-5.051,4.958-.183,5.176-.183,5.176-.58,5.6L250.76,475.928c-2.813,1.727-6.268,1.029-9.169,2.424-4.164-4.371-10.987-10.354-11.886-15.817-1.422-8.65,4.647-17.254,3.723-25.64-.942-8.555-9.167-9.793-16.017-7.807-2.468.716-4.291,3.37-7.31,2.431-2.974-.927-5.531-4.48-7.242-6.969-.03-.044-3.018-4.462-3.159-5.569a31.164,31.164,0,0,1,3.558-18c1.09-2.128,7.781-15.181,10.825-12.514,3.412,2.99,8.607-1.747,12.477-1.129,3.235.516,3.255,2.715,5.652,4.251,2.847,1.824,6.406,1.816,9.695,1.593.234-.846.431-1.7.641-2.552,12.294,2.9,13.238,2.325,14.952,1.276l2.405,3.8-1.377,1,1.775,2.343c1.423,2.324,3.335,5.416,4.737,7.753l1.785,2.994c5.662,7.545,5.662,7.545,10.474,6.526,3.141-1.979,3.686-2.368,3.98-2.577l.469.147a7.532,7.532,0,0,1,.425,2.9" transform="translate(-120.607 -329.411)" fill="#50b5e3"/>
                <path id="Path_991663" data-name="Path 991663" d="M389.5,241.148l.221.741.687.958c.885.953,5.9,6.373,5.9,6.374l-1.035-.455-.6-.045a50.357,50.357,0,0,0-4.928-4.891c.109.437.109.437,2.332,3.025-.332.106-.777.241-1.112.338-.1,1.623-.1,1.623,3.067,5.391.592-.051,1.382-.1,1.972-.173,3.332,3.2,4.226,5.118,6.186,9.317,1.6,3.529,5.494,5.807,5.55,10.178-1.511-1.009-1.935-2.893-3.262-4.05,1.338,8.529,9.233,14.621,8.843,23.792l-.76,1.9-.357,4.649,1.03,2.951,1.292,3.5,0,3.605-.452,2.726c-.646-1.668-1.43-3.925-2.157-5.559q.767,4.946,1.065,10c2.78,4.115.168,9.343,2.787,13.491.534-.441.534-.441,1.17-2.09a3.3,3.3,0,0,1,.049.622l-.487,3.154-.057.049-.618,1.254-1.168,2.738a31.115,31.115,0,0,0-1.092-2.927,118.674,118.674,0,0,0-2.433-12.7l-.965-1.4.823-4.228-.066-1.8a26.232,26.232,0,0,0-3.95-9.739c-2.492-4.061-4.452-.762-5.424,2.122-1.589,4.716-2.382,11.055,1.138,15.132l.773,2.317c.141,1.886.03,2.174-1.963,2.431-.473.061-3.882-5.7-4.456-6.256a6.077,6.077,0,0,1-.884-.937,4.689,4.689,0,0,1-.529-1.257c-1.927-6.211-4.332-14.168-11.154-16.623-2.764-.995-3.6.489-5.63,2.218-.213,2.8,1.908,4.675,2.792,7.039l-4.156,5.135-4.512,1.542.23,4.371-3.811,1.012c-2.542-.075-3.746-2.37-5.412-5.545l-3.184-1.265c-2.187-3.607-5.124-8.4-7.361-11.982l-2.405-3.8-.679-1.068,1.143-4.4.3-2.58q-.526-2.63-1.1-5.219l4.016,1.112,4.014-1.388c.031-.08,2.612-11.491,1.529-19.823-.735-.562-1.709-.762-2.315-1.52.121-.918.121-.918,2.058-3.458-2.78-6.592-3.837-7.429-6.152-9.264-.754-.6-1.35-1.07-1.66-3.162-.249-1.683,6.415,0,3.423-3.349-.936-1.048-7.123-4.118-1.688-3.86,2.514.119,4.885,1.206,7.255,1.945,1.642.512,3.529,1.392,5.29,1.3,1.352-.074,2.479-.928,3.785-1.09,1.531-.19,3.071,1.366,4.413.333.846-.652,1.074-1.7,1.918-2.356,1.12-.865,2.744-1.092,4.065-1.483a5.872,5.872,0,0,0-.844-2.331,10.605,10.605,0,0,1,1.546-.839l2.548,1.219c.868.586,2.055,1.326,2.892,1.957l2.716,2.986" transform="translate(-214.14 -234.987)" fill="#50b5e3"/>
                <path id="Path_991664" data-name="Path 991664" d="M245.507,312.788c-.728,1.166-1.3,1.506-3.717,2.936l-.64-.347.191-2.432,1.162-.982-1.849-1.578-.475-3.628,1.356-.942.443,1.519a10.188,10.188,0,0,0,1.564,1.4,6,6,0,0,1,1.749,1.575c.048.074.671,1.752.217,2.479" transform="translate(-145.832 -278.9)" fill="#50b5e3"/>
                <path id="Path_991665" data-name="Path 991665" d="M280.876,273.649c.979,1.989,2.145,3.88,3.048,5.908-.573,1.162-2.1,1.651-2.214,3.136,0,.011-.061,1.086,1.848,1.61,1.63.447.682,8.2.669,8.279-.658,3.939-.045,8.045-1.562,11.87l-4.036,1.441c-1.712.611-2.965-1.5-4.58-.254-1.334,1.029-.956,3.616-3.165,4.7a5.835,5.835,0,0,1-6.319-.887l3.013-1.9a3.938,3.938,0,0,0-5.185-1.1,4,4,0,0,0-1.287,5.16l-9.093-8.842c-.906-.88-2.491-1.734-3.243-.72-.709.956.389,2.194,1.37,2.869l4.851,3.334a1.466,1.466,0,0,1-2.307.066l.3,2.241a1.461,1.461,0,1,1-1.821-2.284c-1.845.024-3.034-1.846-4.4-3.089s-4.252-1.4-4.43.434l-2.657-1.025a36.426,36.426,0,0,1-4.7,6.274,5.538,5.538,0,0,1-3.245,2.05,3.957,3.957,0,0,1-3.864-3.038,9.416,9.416,0,0,1,.4-5.25c.422-1.4,1.662-3.082,2.951-2.4.587.311.845,1.012,1.334,1.462a2.326,2.326,0,0,0,3.536-1.086,3.241,3.241,0,0,0-1.624-3.692c-1.991-1.114,3.125-4.14,3.79-4.565,1.235-.788,3.086-1.349,4.148-2.331,1.17-1.083,1.522-3.148,2.907-3.92,1.838.065,2.673,3.188,4.55,2.616,1.037-.317,4.248-.527,5.008-1.236,1.153-1.076-.178-3.531,1.914-4.915a4.091,4.091,0,0,1-4.139-5.279,3.194,3.194,0,0,0-3.515,3.426c.21,1.5,1.421,3.285.28,4.283-1.616,1.414-3.5-2.066-5.648-2.044a11.477,11.477,0,0,1-1.9.247c-1.558-.25-1.462-2.709-.31-3.787s2.831-1.519,3.839-2.733a16.293,16.293,0,0,0,1.329-2.367c1.47-2.539,4.546-3.829,7.48-3.832a19.375,19.375,0,0,1,8.392,2.383,2.08,2.08,0,0,1,.867.638c.5.748-.2,1.819-1.076,2.03a4.258,4.258,0,0,1-2.6-.5c-.052,1.537,1.985,2.4,3.429,1.876s2.4-1.87,3.366-3.065c2.359-2.91,5.33-1.875,8.289-3.7.906.635,1.453,1.2,2.52,1.067a4.627,4.627,0,0,0-.925-1.374l-2.529-1.439-.1-1.612c.265-.455.292-.469.619-.636.851.144,5.7,4.013,6.427,5.5" transform="translate(-138.057 -255.547)" fill="#50b5e3"/>
                <path id="Path_991666" data-name="Path 991666" d="M225.509,324.592c-2.376-.2-2.376-.2-2.569-.461a11.185,11.185,0,0,1-.866-1.462,7.791,7.791,0,0,1,.394-2.121l1.769-.941.714-.307,1.2-1.734,1.354,2.019.3,2.122-2.29,2.887" transform="translate(-134.6 -286.185)" fill="#50b5e3"/>
                <path id="Path_991667" data-name="Path 991667" d="M523.981,432.331c-.027,1.681-.075,2.476-.253,5.43l-.247,3.287c-.167,1.522-.219,1.752-.239,1.839-.116-.09-.116-.09-.139-1.286l-.2,1.5-.916-.16c-.7-.994-.684-2.66-.628-7.606.128-1.083.861-1.978.95-3.073.167-2.064-.076-4.143.221-6.2a8.316,8.316,0,0,1,.321-1.079c.923,1.984.6,4.188,1.1,6.247a7.216,7.216,0,0,1,.031,1.106" transform="translate(-320.148 -352.781)" fill="#50b5e3"/>
                <path id="Path_991668" data-name="Path 991668" d="M521.706,392.372c.036.389.16,1.814.253,3.8l-1.345-7.338c-.313-1.4-.868-2.735-1.211-4.129a16.417,16.417,0,0,1-.317-1.687,2.378,2.378,0,0,0,.174.322c.085-1.613-1.138-3-.794-4.66a44.992,44.992,0,0,1,3.24,13.7" transform="translate(-318.333 -324.074)" fill="#50b5e3"/>
                <path id="Path_991669" data-name="Path 991669" d="M395.572,548.547a12.028,12.028,0,0,1-.657,2.575c-.75,1.388-2.17,2.123-3.2,3.26a12.863,12.863,0,0,0-2.418,4.851c-.614,1.861-1.368,3.827-2.976,4.948a.679.679,0,0,1-.5.166.727.727,0,0,1-.364-.263l-1.1-1.222a1.044,1.044,0,0,1-.3-.486,1,1,0,0,1,.1-.534c.838-2.092,2.353-4.041,2.28-6.294-.032-1.005-.287-2.253.546-2.817a2.939,2.939,0,0,1,1.066-.331,5.439,5.439,0,0,0,3.457-2.629,18.7,18.7,0,0,1,1.9-2.853,1.78,1.78,0,0,1,1.051-.641c1.123-.121,1.217,1.543,1.107,2.271" transform="translate(-235.037 -427.982)" fill="#50b5e3"/>
                <path id="Path_991670" data-name="Path 991670" d="M500.672,513.679c-1.412,3.473-3.327,8.094-4.943,11.477l-.487.938-.755,1.34-.667.965c.017-.288.018-.294,1.155-2.37a71.137,71.137,0,0,0,4.551-9.992,3.03,3.03,0,0,1-.208-.527c3.864-9.775,3.864-9.775,4.237-11.149l.706-2.86c.033-.142.077-.332.109-.474-1.021,3.821-2.323,8.945-3.7,12.653" transform="translate(-303.091 -399.931)" fill="#50b5e3"/>
              </g>
            </g>
          </g>
          <g id="Group_1182484" data-name="Group 1182484" clip-path="url(#clip-path)">
            <g id="Group_1182391" data-name="Group 1182391" transform="translate(86.738 81.208)">
              <path id="Path_991671" data-name="Path 991671" d="M251.119,306.7c-3.313-1.623-5.055-.229-8.171.432-1.774.376-3.852,1.449-3.215,3.729.192.687,1.477,1.5,2.1,2.227s3.169.273,3.851.1C250.912,311.837,252.49,307.369,251.119,306.7Z" transform="translate(-235.128 -305.942)" fill="#ffb9b6"/>
              <g id="Group_1182387" data-name="Group 1182387" transform="translate(1.964 4.985)">
                <path id="Path_991672" data-name="Path 991672" d="M239.448,321.934a2.527,2.527,0,0,0-1.078-.017,4.714,4.714,0,0,0-1.231.446,28.413,28.413,0,0,0-2.671,1.716.961.961,0,0,1-1.172-1.517l.006-.006a29.617,29.617,0,0,1,2.576-2.236,7.3,7.3,0,0,1,1.74-.937,5.335,5.335,0,0,1,2.173-.313l.089.006a1.449,1.449,0,1,1-.2,2.891A1.48,1.48,0,0,1,239.448,321.934Z" transform="translate(-232.974 -319.06)" fill="#ffb9b6"/>
              </g>
              <g id="Group_1182388" data-name="Group 1182388" transform="translate(1.372 4.449)">
                <path id="Path_991673" data-name="Path 991673" d="M237.783,320.507a7.989,7.989,0,0,0-2.438,1.045,21.76,21.76,0,0,0-2.35,1.772h0a.961.961,0,0,1-1.339-1.372,23.794,23.794,0,0,1,2.25-2.321,10.674,10.674,0,0,1,2.965-1.86l.041-.016a1.447,1.447,0,0,1,1.092,2.68A1.492,1.492,0,0,1,237.783,320.507Z" transform="translate(-231.417 -317.649)" fill="#ffb9b6"/>
              </g>
              <g id="Group_1182389" data-name="Group 1182389" transform="translate(0 2.725)">
                <path id="Path_991674" data-name="Path 991674" d="M234.576,315.132a5.328,5.328,0,0,1-1.1,1.847,8.741,8.741,0,0,1-1.4,1.241c-.955.691-1.926,1.2-2.768,1.75l-.014.009a.961.961,0,0,1-1.159-1.526c.86-.759,1.713-1.39,2.405-2.077a6.16,6.16,0,0,0,.866-1.032,2.5,2.5,0,0,0,.4-.981,1.451,1.451,0,1,1,2.816.652Z" transform="translate(-227.807 -313.113)" fill="#ffb9b6"/>
              </g>
              <g id="Group_1182390" data-name="Group 1182390" transform="translate(0.317 1.52)">
                <path id="Path_991675" data-name="Path 991675" d="M237.73,312.773c-1.39.4-2.737.747-4.02,1.2a13.16,13.16,0,0,0-3.52,1.74l-.015.011a.96.96,0,0,1-1.227-1.471,15.211,15.211,0,0,1,3.841-2.5c1.341-.646,2.7-1.168,4-1.7a1.443,1.443,0,1,1,1.1,2.668A1.541,1.541,0,0,1,237.73,312.773Z" transform="translate(-228.642 -309.941)" fill="#ffb9b6"/>
              </g>
            </g>
            <g id="Group_1182394" data-name="Group 1182394" transform="translate(99.522 75.852)">
              <g id="Group_1182392" data-name="Group 1182392">
                <path id="Path_991676" data-name="Path 991676" d="M292.023,294.906c-11.405,2.014-17.8-.6-29.46,2.419-1.8.055-1.37,9.4.943,11.505,5.354,2.942,19.689-1.042,26.8.521,4.448.978,26.324,2.827,30.385-7.13,1.38-3.613,3.836-6.428.169-8.36C311.474,288.913,293.728,294.6,292.023,294.906Z" transform="translate(-261.448 -291.848)" fill="#fbaf00"/>
              </g>
              <g id="Group_1182393" data-name="Group 1182393" transform="translate(7.486 7.864)">
                <path id="Path_991677" data-name="Path 991677" d="M292.975,320.769c-3.946.564-7.922,1.172-11.827,1.993,6.625.2,16.034-1.754,21.372-.58,4.448.978,26.324,2.827,30.385-7.13.338-.885.74-1.721,1.1-2.51C320.221,314.534,306.774,318.795,292.975,320.769Z" transform="translate(-281.148 -312.542)" fill="#d18800"/>
              </g>
            </g>
            <path id="Path_991678" data-name="Path 991678" d="M52,214s-6.288-.668-9,13.572c-1.822,9.552-7.66,7.383-9.773,17.031-3.071,14.027,16.82,15.482,29.237,10.69,10.447-4.032,9.054-14.878,4.506-20.622-3.618-4.569-2.643-11.312-2.807-15.374S59.29,212.421,52,214Z" transform="translate(-20.227 -167.454)" fill="#463d3d"/>
            <g id="Group_1182395" data-name="Group 1182395" transform="translate(98.604 48.805)">
              <path id="Path_991679" data-name="Path 991679" d="M267.833,254.553c3.145.5,6.432,1.947,9.658,1.451,3.72-.572,4.975-5.158,8.784-5.579,3.074-.34,6-3.744,5.086-6.891-.512-1.76-2.09-2.977-3.228-4.327-2.4-2.849-2.345-6.048-3.578-9.35a14.36,14.36,0,0,0-11.283-9.188l-4.529,5.173c-6,10.342-12.325,15.851-8.593,24.955a5.82,5.82,0,0,0,5.372,3.55A15.835,15.835,0,0,1,267.833,254.553Z" transform="translate(-259.031 -220.669)" fill="#005277"/>
              <path id="Path_991680" data-name="Path 991680" d="M301.6,251.115c-.512-1.76-2.09-2.977-3.228-4.327-2.4-2.849-2.345-6.048-3.578-9.35a14.384,14.384,0,0,0-2.73-4.541,13.338,13.338,0,0,1,1.552,3.8,12.525,12.525,0,0,1,.313,3.828,27.719,27.719,0,0,1-1.137,4.162c-.618,2.558,1.767,4.321,1.356,6.924a7.914,7.914,0,0,1-2.526,4.554c-2.67,2.356-6.457,2.729-9.814,3.34-2.291.417-4.7.939-6.259,2.415.071,0,.141.009.212.01a15.791,15.791,0,0,1,2.312.205c3.145.5,6.432,1.947,9.658,1.451,3.72-.572,4.976-5.158,8.784-5.579C299.592,257.667,302.519,254.262,301.6,251.115Z" transform="translate(-269.275 -228.25)" fill="#00415e"/>
            </g>
            <g id="Group_1182396" data-name="Group 1182396" transform="translate(115.748 78.536)">
              <path id="Path_991681" data-name="Path 991681" d="M304.148,298.911s12.681.684,19.831,7.353c5.432,5.067,13.221,16.7,16.153,20.134l-5.318,7.711-25.638-19.344Z" transform="translate(-304.148 -298.911)" fill="#fb6827"/>
              <path id="Path_991682" data-name="Path 991682" d="M321.4,318.244a63.509,63.509,0,0,1-9.642-10.8,71.8,71.8,0,0,1-4.546-8.188c-1.866-.283-3.064-.348-3.064-.348l5.028,15.854,25.638,19.344,2.549-3.7C335.071,329.177,323.335,319.955,321.4,318.244Z" transform="translate(-304.148 -298.91)" fill="#cf4d11"/>
            </g>
            <g id="Group_1182403" data-name="Group 1182403" transform="translate(32.078 77.138)">
              <g id="Group_1182402" data-name="Group 1182402" transform="translate(47.507)">
                <g id="Group_1182397" data-name="Group 1182397" transform="translate(0.47)">
                  <path id="Path_991683" data-name="Path 991683" d="M215.509,296.492a5.8,5.8,0,0,0-1.345,1.973,3.487,3.487,0,0,0-.073,1.928,1.957,1.957,0,1,1-3.817-.086l.058-.226a7.569,7.569,0,0,1,.643-1.691,6.026,6.026,0,0,1,1.069-1.445,7.939,7.939,0,0,1,2.663-1.656.737.737,0,0,1,.814,1.191Z" transform="translate(-210.216 -295.232)" fill="#ffb9b6"/>
                </g>
                <path id="Path_991684" data-name="Path 991684" d="M210.454,303.558c-1.55.724-1.989,5.689-.778,6.073,2.927.928,4.254-.573,6.644-1.556,1.361-.559,1.93-1.436.993-2.9a17.76,17.76,0,0,0-2.044-1.98,2.338,2.338,0,0,0-2.187-.127A3.053,3.053,0,0,1,210.454,303.558Z" transform="translate(-208.981 -299.957)" fill="#ffb9b6"/>
                <g id="Group_1182398" data-name="Group 1182398" transform="translate(4.243 0.497)">
                  <path id="Path_991685" data-name="Path 991685" d="M221.164,299.074a3.143,3.143,0,0,0,.728-.127,1.006,1.006,0,0,0,.475-.3,5.213,5.213,0,0,0,.748-1.616v0a.731.731,0,0,1,1.412.353c-.055.348-.112.7-.2,1.08a4.3,4.3,0,0,1-.453,1.208,2.931,2.931,0,0,1-1.075,1.061,4.931,4.931,0,0,1-1.254.494l-.018,0a1.1,1.1,0,1,1-.564-2.126A1.143,1.143,0,0,1,221.164,299.074Z" transform="translate(-220.146 -296.54)" fill="#ffb9b6"/>
                </g>
                <g id="Group_1182399" data-name="Group 1182399" transform="translate(4.909 1.016)">
                  <path id="Path_991686" data-name="Path 991686" d="M222.7,300.167a20.483,20.483,0,0,0,1.966-.8,4.9,4.9,0,0,0,.8-.518,8.255,8.255,0,0,0,.759-.694l.01-.01a.808.808,0,0,1,1.245,1.02,9.988,9.988,0,0,1-.749.983,6.835,6.835,0,0,1-.952.9,21.38,21.38,0,0,1-2.028,1.3,1.216,1.216,0,0,1-1.264-2.077,1.256,1.256,0,0,1,.194-.1Z" transform="translate(-221.898 -297.905)" fill="#ffb9b6"/>
                </g>
                <g id="Group_1182400" data-name="Group 1182400" transform="translate(6.603 2.019)">
                  <path id="Path_991687" data-name="Path 991687" d="M226.871,303.226A15.453,15.453,0,0,1,228.865,302a5.45,5.45,0,0,0,1.509-1.177l.015-.016a.807.807,0,0,1,1.275.979,7.739,7.739,0,0,1-.738,1,7.932,7.932,0,0,1-.909.868,13.368,13.368,0,0,0-1.544,1.389,1.217,1.217,0,1,1-1.8-1.64,1.2,1.2,0,0,1,.158-.145Z" transform="translate(-226.358 -300.545)" fill="#ffb9b6"/>
                </g>
                <g id="Group_1182401" data-name="Group 1182401" transform="translate(5.131 3.851)">
                  <path id="Path_991688" data-name="Path 991688" d="M223.4,307.464c.538-.139,1.079-.255,1.6-.359s1.006-.2,1.455-.328a7.075,7.075,0,0,0,1.3-.505,11.157,11.157,0,0,0,1.251-.755l.013-.009a.806.806,0,0,1,.993,1.266,12.817,12.817,0,0,1-1.326,1.054,9.006,9.006,0,0,1-1.542.844c-.538.231-1.069.406-1.563.574s-.967.336-1.428.521a1.212,1.212,0,1,1-.9-2.251,1.256,1.256,0,0,1,.141-.047Z" transform="translate(-222.484 -305.366)" fill="#ffb9b6"/>
                </g>
              </g>
              <path id="Path_991689" data-name="Path 991689" d="M138.893,305.7c-5.263,3.244-14.594,4.756-18.769,7.035-8.353-3.243-13.366-9.144-19.464-10.9a3.328,3.328,0,0,0-1.154-.088c-5.276.393-6.489,7.668-1.712,9.94,9.044,4.3,19.218,9.417,21.424,8.963,5.23-1.077,19.12-9.721,22.3-11.739C140.612,307.87,139.82,306.734,138.893,305.7Z" transform="translate(-90.683 -299.266)" fill="#ffb9b6"/>
              <path id="Path_991690" data-name="Path 991690" d="M93.739,296.533c-3.188-.916-6.766-2.98-9.419,2.945-1.2,2.95.872,4.585,2.451,5.819,1.427,1.2.061,4.667,6.561,10.89,4.9,4.687,12.3,9.544,15.167,10.484,4-5.428,6.3-14.778,5.458-18.489C111.859,307.125,95.931,297.163,93.739,296.533Z" transform="translate(-83.964 -295.355)" fill="#fbaf00"/>
              <path id="Path_991691" data-name="Path 991691" d="M90.423,295.566c-2.185-.429-4.347-.008-6.1,3.914-1.2,2.95.872,4.585,2.451,5.819,1.427,1.205.061,4.667,6.561,10.89,4.9,4.687,12.3,9.544,15.167,10.484a26.079,26.079,0,0,0,2.746-4.857c-6.627-2.675-8.372-12.736-13.508-16.942C93.343,301.054,88.791,300.852,90.423,295.566Z" transform="translate(-83.963 -295.355)" fill="#d18800"/>
            </g>
            <g id="Group_1182410" data-name="Group 1182410" transform="translate(57.57 74.985)">
              <path id="Path_991692" data-name="Path 991692" d="M214.193,304.584c-5.543,1.216-12.27,6.1-19.916,7.5-7.316-2.4-9.859-3.7-17.606-6.878-.668-.274-2.4-.614-2.168,1.145s-2.435.609,2.062,3.881c6.214,4.521,11.045,10.452,18.821,10.776,6.42.267,16.9-3.243,22.822-5.5,3.806-1.452,3.9-5.068,3.133-7.707s-2.869-3.591-5.468-3.5S219.736,303.368,214.193,304.584Z" transform="translate(-165.234 -298.506)" fill="#ffb9b6"/>
              <path id="Path_991693" data-name="Path 991693" d="M258.937,304.844c-.766-2.639-.173-6.09-3.361-5.58-.321.076-3.156.9-3.66,1.015-3.654.8-11.318,5.445-15.926,7.386.163,4.147-2.843,8.586-.57,12.056,9.666.233,17.789-.356,19.942-3.331C257.751,313.091,259.7,307.483,258.937,304.844Z" transform="translate(-202.83 -295.547)" fill="#fb6827"/>
              <path id="Path_991694" data-name="Path 991694" d="M250.073,331.855a64.861,64.861,0,0,1-15.449,2.487,5.923,5.923,0,0,0,.8,4.026c9.666.233,17.789-.356,19.942-3.331a22.413,22.413,0,0,0,2.877-5.749A69.236,69.236,0,0,1,250.073,331.855Z" transform="translate(-202.833 -314.193)" fill="#cf4d11"/>
              <g id="Group_1182409" data-name="Group 1182409" transform="translate(0 0)">
                <g id="Group_1182404" data-name="Group 1182404" transform="translate(7.744 0.713)">
                  <path id="Path_991695" data-name="Path 991695" d="M173.238,291.5a10.73,10.73,0,0,1,1.184.534,3.8,3.8,0,0,1,1.273,1.071,3.246,3.246,0,0,1,.492,1,4.019,4.019,0,0,1,.123.553c.022.171.04.354.045.518a10.119,10.119,0,0,1-.112,1.662l-.036.287a2.4,2.4,0,1,1-4.134-1.936,5.435,5.435,0,0,1,.524-.531c.123-.109.242-.025.326-.157s0-.414-.151-.706a8.355,8.355,0,0,0-.578-.926l-.02-.028a.893.893,0,0,1,.223-1.243A.9.9,0,0,1,173.238,291.5Z" transform="translate(-171.429 -291.441)" fill="#ffb9b6"/>
                </g>
                <path id="Path_991696" data-name="Path 991696" d="M167.173,297.521c1.754.979,1.783,6.572.293,6.892-3.6.773-4.953-1-7.812-2.389-1.628-.792-3.382-2.333-2.216-4.387.351-.619,1.794-1.1,2.573-1.651s3.283-.22,3.875.159A7.8,7.8,0,0,0,167.173,297.521Z" transform="translate(-154.776 -293.366)" fill="#ffb9b6"/>
                <g id="Group_1182405" data-name="Group 1182405" transform="translate(4.376)">
                  <path id="Path_991697" data-name="Path 991697" d="M164.917,294.765l-.338-.087-.167-.045-.19-.067a3.12,3.12,0,0,1-.848-.437c-.085-.066-.167-.135-.245-.207a2.011,2.011,0,0,1-.244-.3,1.881,1.881,0,0,1-.3-.765,1.963,1.963,0,0,1,.033-.687,1.9,1.9,0,0,1,.076-.271l.092-.214a4.352,4.352,0,0,1,.8-1.1c.266-.279.526-.524.777-.761h0a.963.963,0,0,1,1.467,1.23c-.193.293-.379.576-.535.845a1.935,1.935,0,0,0-.285.66.118.118,0,0,1,0,.029c0,.013.019-.011.021-.018a.341.341,0,0,0,.019-.172.726.726,0,0,0-.09-.3c-.016-.04-.068-.084-.076-.1a.143.143,0,0,0-.036-.053c-.036-.048.009-.036.1-.038l.059,0,.089,0h.173a1.45,1.45,0,1,1,0,2.9A1.529,1.529,0,0,1,164.917,294.765Z" transform="translate(-162.565 -289.565)" fill="#ffb9b6"/>
                </g>
                <g id="Group_1182406" data-name="Group 1182406" transform="translate(3.534 0.328)">
                  <path id="Path_991698" data-name="Path 991698" d="M162.347,295.764c-.3-.244-.612-.493-.941-.8l-.252-.254c-.09-.1-.173-.193-.263-.309a2.951,2.951,0,0,1-.264-.4c-.043-.081-.083-.16-.12-.244s-.068-.2-.1-.3a1.974,1.974,0,0,1,.087-1.241,2.575,2.575,0,0,1,.488-.76,6.076,6.076,0,0,1,1-.839.96.96,0,0,1,1.276,1.419l-.035.039a3.941,3.941,0,0,0-.528.694c-.045.094-.071.181-.043.178.012.018.065-.114.052-.181a.077.077,0,0,0,0-.045l.016-.011c-.007-.013.045.017.059.028l.118.076.161.1c.238.137.534.286.837.433a1.448,1.448,0,0,1-1.265,2.6,1.476,1.476,0,0,1-.269-.169Z" transform="translate(-160.35 -290.429)" fill="#ffb9b6"/>
                </g>
                <g id="Group_1182407" data-name="Group 1182407" transform="translate(1.5 0.935)">
                  <path id="Path_991699" data-name="Path 991699" d="M155.591,296.9a6.414,6.414,0,0,1-.454-1.062,3.121,3.121,0,0,1-.135-.734,2.616,2.616,0,0,1,.069-.774,5.09,5.09,0,0,1,.372-.934,6.728,6.728,0,0,0,.281-.678l.018-.052a.963.963,0,0,1,1.871.36,8.628,8.628,0,0,1-.1.974,2.943,2.943,0,0,0-.073.7c.036.1.069.045.146.153s.222.254.377.413a1.459,1.459,0,1,1-2.342,1.686Z" transform="translate(-154.996 -292.025)" fill="#ffb9b6"/>
                </g>
                <g id="Group_1182408" data-name="Group 1182408" transform="translate(0 2.249)">
                  <path id="Path_991700" data-name="Path 991700" d="M155.594,301.865a12.439,12.439,0,0,0-1.235-.821c-.454-.272-.945-.538-1.474-.883-.136-.095-.267-.181-.4-.283s-.272-.208-.411-.345a3.385,3.385,0,0,1-.4-.436c-.063-.084-.127-.164-.186-.252s-.108-.2-.158-.294a2.826,2.826,0,0,1-.22-.633,3.974,3.974,0,0,1-.057-.639,5.472,5.472,0,0,1,.069-.58l.141-.517a.947.947,0,0,1,1.858.324l-.016.2c-.008.1-.017.193-.03.287s.014.16.012.239c.02.064.035.12.053.173.04.04.036.09.086.126a2.5,2.5,0,0,0,.852.555c.424.2.931.384,1.457.6a15.165,15.165,0,0,1,1.636.773l.012.007a1.443,1.443,0,0,1-1.405,2.521A1.721,1.721,0,0,1,155.594,301.865Z" transform="translate(-151.049 -295.483)" fill="#ffb9b6"/>
                </g>
              </g>
            </g>
            <g id="Group_1182411" data-name="Group 1182411" transform="translate(92.019 81.692)">
              <path id="Path_991701" data-name="Path 991701" d="M242.091,310.4a11.433,11.433,0,0,0,2.479-.928,4.455,4.455,0,0,0,1.576-1.59,1.413,1.413,0,1,1,2.118,1.819l-.056.047a7.73,7.73,0,0,1-1.4.958,6.293,6.293,0,0,1-1.582.576,12.877,12.877,0,0,1-2.986.175.539.539,0,0,1-.149-1.056Z" transform="translate(-241.704 -307.215)" fill="#ffb9b6"/>
            </g>
            <g id="Group_1182418" data-name="Group 1182418" transform="translate(79.158 77.427)">
              <path id="Path_991702" data-name="Path 991702" d="M242.5,330.116c-8.021-.851-10.181-2.775-18.383-3.669-.979-2.923-1.463-14.994-2.535-20.506-.662-6.493-4.194-8.119-6.419-9.057-2.791-1.176-10.541-3.665-5.808,12,.762,7.479,3.317,21.637,8.151,23.159,7.152,2.251,16.327,2.356,22.784,2.388,5.359.026,2.521-.963,3.524-2.347S243.192,330.19,242.5,330.116Z" transform="translate(-207.858 -295.99)" fill="#89492f"/>
              <path id="Path_991703" data-name="Path 991703" d="M237.046,329.232c-4.175-.932-6.944-2.132-12.929-2.784-.28-3.928-1.463-14.994-2.535-20.506-.662-6.493-4.194-8.119-6.419-9.057-2.791-1.176-10.541-3.665-5.808,12,.762,7.479,1.457,23.639,6.291,25.161,5.806,1.828,14.878,1.829,20.814,1.937C237.386,334.928,237.852,331.048,237.046,329.232Z" transform="translate(-207.858 -295.99)" fill="#005277"/>
              <path id="Path_991704" data-name="Path 991704" d="M218.966,329.205c0-3.531.541-20.37.465-23.539-.072-3.02,0-5.6-2.83-8.077-.012-.01-.006-.028-.01-.043-.5-.268-.991-.478-1.427-.662-2.791-1.176-10.541-3.665-5.808,12,.762,7.479,1.457,23.639,6.291,25.161,5.806,1.828,14.878,1.829,20.814,1.937a4.271,4.271,0,0,0,.728-1.756C235.148,333.72,218.966,331.041,218.966,329.205Z" transform="translate(-207.858 -295.99)" fill="#00415e"/>
              <path id="Path_991705" data-name="Path 991705" d="M298.817,386.436l-2.544-.112a8.515,8.515,0,0,1-3.908-1.041c-.89-.519-.847-1.369-.7-2.243l.054-1.155c.184-4.87,8.5-3.8,10.048-3.429l.438,5.34A3.386,3.386,0,0,1,298.817,386.436Z" transform="translate(-259.768 -346.894)" fill="#89492f"/>
              <g id="Group_1182417" data-name="Group 1182417" transform="translate(32.777 28.956)">
                <g id="Group_1182412" data-name="Group 1182412">
                  <path id="Path_991706" data-name="Path 991706" d="M294.627,375.529c.155-.168.269-.271.4-.4s.257-.233.389-.342c.261-.223.529-.432.8-.632a12.867,12.867,0,0,1,1.745-1.07,9.631,9.631,0,0,1,1.949-.717,7.08,7.08,0,0,1,2.094-.163.712.712,0,0,1,.063,1.414l-.063.01a5.469,5.469,0,0,0-1.514.461,7.711,7.711,0,0,0-1.358.87,10.549,10.549,0,0,0-1.186,1.142c-.183.206-.36.418-.525.636-.084.108-.162.218-.24.328s-.159.231-.2.3a1.521,1.521,0,1,1-2.478-1.718Z" transform="translate(-294.113 -372.19)" fill="#89492f"/>
                </g>
                <g id="Group_1182413" data-name="Group 1182413" transform="translate(7.65 2.41)">
                  <path id="Path_991707" data-name="Path 991707" d="M320.506,380.394a24.124,24.124,0,0,0-2.48.116l-2.571.237a1.109,1.109,0,1,1-.2-2.209,1.135,1.135,0,0,1,.143,0h.021l2.58.111a25.337,25.337,0,0,1,2.669.241.759.759,0,0,1-.136,1.508Z" transform="translate(-314.245 -378.532)" fill="#89492f"/>
                </g>
                <g id="Group_1182414" data-name="Group 1182414" transform="translate(7.481 4.133)">
                  <path id="Path_991708" data-name="Path 991708" d="M321.47,385.215c-2.17-.026-4.369-.037-6.5.067h-.01a1.108,1.108,0,0,1-.108-2.214c.04,0,.079,0,.118,0,2.244.13,4.413.374,6.606.634a.759.759,0,0,1-.095,1.512Z" transform="translate(-313.8 -383.067)" fill="#89492f"/>
                </g>
                <g id="Group_1182415" data-name="Group 1182415" transform="translate(7.876 6.244)">
                  <path id="Path_991709" data-name="Path 991709" d="M322.765,391.283c-1.138-.121-2.288-.228-3.428-.317-.57-.044-1.14-.081-1.7-.109s-1.132-.046-1.627-.021h0a1.108,1.108,0,0,1-.111-2.214,1.05,1.05,0,0,1,.115,0c.661.036,1.24.118,1.829.205s1.163.185,1.738.289c1.151.207,2.288.43,3.431.669a.759.759,0,0,1-.232,1.5Z" transform="translate(-314.839 -388.621)" fill="#89492f"/>
                </g>
                <g id="Group_1182416" data-name="Group 1182416" transform="translate(5.788 8.307)">
                  <path id="Path_991710" data-name="Path 991710" d="M318.48,397.035c-1.336-.207-2.691-.392-4.034-.539-.672-.074-1.344-.138-2.008-.182a17.968,17.968,0,0,0-1.935-.049,1.108,1.108,0,1,1-.1-2.213c.032,0,.064,0,.1,0h.006a19.905,19.905,0,0,1,2.161.236c.7.107,1.382.231,2.064.366,1.365.268,2.706.568,4.056.9a.759.759,0,0,1-.293,1.487Z" transform="translate(-309.344 -394.051)" fill="#89492f"/>
                </g>
              </g>
            </g>
            <g id="Group_1182428" data-name="Group 1182428" transform="translate(95.444 48.553)">
              <path id="Path_991711" data-name="Path 991711" d="M262.577,245.246c.069.027.534-3.068.58-3.078l.5-9.708-2.759-2.905s-7.2,8.707-.233,15.213C260.664,244.771,262.425,245.187,262.577,245.246Z" transform="translate(-254.999 -225.927)" fill="#005277"/>
              <path id="Path_991712" data-name="Path 991712" d="M297.285,396.735l14.029-1.02s6.888,9.553,8.352,20.1c.6,4.353-3.642,25.822-4.565,38.474,4.552,9.393,1.408,23.9,2.139,33.682a66.267,66.267,0,0,0,1.363,10.007h-9.119L302.427,454l-4.7-28.255Z" transform="translate(-279.589 -328.946)" fill="#ffb9b6"/>
              <path id="Path_991713" data-name="Path 991713" d="M260.752,390.281s-10.235,20.907-10.033,45.095c.111,13.181,1.441,55.716,1.441,55.716h9.215l2.962-42.564,6.044-24.861,1.99-38.388Z" transform="translate(-250.716 -322.476)" fill="#ffb9b6"/>
              <g id="Group_1182421" data-name="Group 1182421" transform="translate(0.022 29.983)">
                <path id="Path_991714" data-name="Path 991714" d="M282.478,395.715a60.243,60.243,0,0,1,7.656,14.189c2.62,7.5,0,30.183,0,30.183a66.454,66.454,0,0,1-39.344-1.455s-.851-28.045,10-41.88Z" transform="translate(-250.774 -358.93)" fill="#005277"/>
                <path id="Path_991715" data-name="Path 991715" d="M331.58,409.905a60.244,60.244,0,0,0-7.656-14.189l-5.483.262c1.249,6.153,3.283,12.175,3.6,18.487.4,7.852-2.234,15.438-3.706,23.053-.307,1.586-.537,3.176-.717,4.768a56.714,56.714,0,0,0,13.957-2.2S334.2,417.4,331.58,409.905Z" transform="translate(-292.22 -358.93)" fill="#00415e"/>
                <path id="Path_991716" data-name="Path 991716" d="M267.477,303.826c.54-1.04,2.416-2.516,3.053-2.485l0,.011c.057-.021.111-.046.168-.065l.045-.014,7.453-2.362c1.99.238,4.451.123,5.84.577,2.233.73,13.991,2.133,5.422,28-.358,1.079.159,8.211.159,8.211s-6.268,5.979-21.69,1.036c0,0-2.042-10.555-3.965-14.584-1.519-4.393-1.937-7.387-1.526-8.482A47.264,47.264,0,0,1,267.477,303.826Z" transform="translate(-257.91 -298.911)" fill="#fb6827"/>
                <path id="Path_991717" data-name="Path 991717" d="M325.064,347.665c1.861-5.618,2.615-8.5,2.864-12.057a41.974,41.974,0,0,0-3.417-4.15c-4.31,8.268-4.032,17.722-4.792,26.892a12.329,12.329,0,0,0,5.5-2.474S324.707,348.744,325.064,347.665Z" transform="translate(-293.52 -319.09)" fill="#cf4d11"/>
                <g id="Group_1182420" data-name="Group 1182420" transform="translate(4.374)">
                  <g id="Group_1182419" data-name="Group 1182419" clip-path="url(#clip-path-3)">
                    <path id="Path_991718" data-name="Path 991718" d="M291.424,365.437c-5.768,2.223-6.128,6.084-21.119,6.014-5.366-.025-9.8-1.375-14.937-4.123" transform="translate(-257.996 -340.157)" fill="none" stroke="#fbaf00" stroke-miterlimit="10" stroke-width="13.416"/>
                  </g>
                </g>
              </g>
              <path id="Path_991720" data-name="Path 991720" d="M290.252,289.027s-7.508,5.592-8.689,5.592l.372-5.287a28.2,28.2,0,0,0-1.594-7.965c.88-1.356,6.315-2.634,7.846-.809C287.5,283.21,290.252,289.027,290.252,289.027Z" transform="translate(-269.084 -256.988)" fill="#ffb9b6"/>
              <path id="Path_991721" data-name="Path 991721" d="M288.291,283.355c-1.384,2.763-5.8,4.781-6.426,5.069a25.478,25.478,0,0,0-1.524-7.055c.88-1.356,6.315-2.634,7.846-.809A6.58,6.58,0,0,0,288.291,283.355Z" transform="translate(-269.084 -256.989)" fill="#ff9494"/>
              <g id="Group_1182422" data-name="Group 1182422" transform="translate(4.199 15.621)">
                <path id="Path_991722" data-name="Path 991722" d="M265.37,261.664a2.79,2.79,0,0,0-1.306-.538,1.945,1.945,0,0,0-2.284,1.987,3.117,3.117,0,0,0,2.251,3.394,1.928,1.928,0,0,0,1.429-.071A32.838,32.838,0,0,0,265.37,261.664Z" transform="translate(-261.766 -261.115)" fill="#ffb9b6"/>
                <path id="Path_991723" data-name="Path 991723" d="M268.226,273.221a1.005,1.005,0,1,1-.825-1.157A1.005,1.005,0,0,1,268.226,273.221Z" transform="translate(-264.533 -267.895)" fill="#fbaf00"/>
                <path id="Path_991724" data-name="Path 991724" d="M266.266,264.816a1.253,1.253,0,0,0-1.886.062" transform="translate(-263.386 -263.163)" fill="none" stroke="#463d3d" stroke-linecap="round" stroke-linejoin="round" stroke-miterlimit="10" stroke-width="1.096"/>
              </g>
              <path id="Path_991725" data-name="Path 991725" d="M279.228,238.383c-2.148-2.339-1.217-4.086-4.637-3.925-.113.005-.232.018-.349.028s-.237,0-.35.005c-3.419.161-4.732.045-6.766,2.51-2.632,3.189-1.351,9.112-1.279,11.03.784,5.736,4.911,8.2,7.36,8.175,5.867,0,8.273-6.665,8.314-9.5C281.548,244.783,280.571,239.845,279.228,238.383Z" transform="translate(-259.865 -228.961)" fill="#ffb9b6"/>
              <g id="Group_1182423" data-name="Group 1182423" transform="translate(20.791 15.621)">
                <path id="Path_991726" data-name="Path 991726" d="M305.57,261.664a2.79,2.79,0,0,1,1.306-.538,1.945,1.945,0,0,1,2.284,1.987,3.118,3.118,0,0,1-2.251,3.394,1.928,1.928,0,0,1-1.429-.071A32.945,32.945,0,0,1,305.57,261.664Z" transform="translate(-305.43 -261.115)" fill="#ffb9b6"/>
                <path id="Path_991727" data-name="Path 991727" d="M305.541,273.221a1.005,1.005,0,1,0,.825-1.157A1.005,1.005,0,0,0,305.541,273.221Z" transform="translate(-305.491 -267.895)" fill="#fbaf00"/>
                <path id="Path_991728" data-name="Path 991728" d="M307.7,264.816a1.253,1.253,0,0,1,1.886.062" transform="translate(-306.841 -263.163)" fill="none" stroke="#463d3d" stroke-linecap="round" stroke-linejoin="round" stroke-miterlimit="10" stroke-width="1.096"/>
              </g>
              <g id="Group_1182427" data-name="Group 1182427" transform="translate(8.017 13.515)">
                <path id="Path_991729" data-name="Path 991729" d="M290.151,268.825c-.029.306-.671.5-1.437.426s-1.362-.377-1.334-.682.671-.5,1.437-.426S290.18,268.52,290.151,268.825Z" transform="translate(-281.465 -263.358)" fill="#ff9494"/>
                <path id="Path_991730" data-name="Path 991730" d="M274.146,268.267c-.038.242-.591.416-1.234.388s-1.134-.248-1.1-.491.591-.416,1.235-.388S274.185,268.024,274.146,268.267Z" transform="translate(-271.814 -263.138)" fill="#ff9494"/>
                <path id="Path_991731" data-name="Path 991731" d="M288.8,262.577c.029.334.229.591.448.572s.374-.3.346-.64-.229-.591-.448-.572S288.776,262.243,288.8,262.577Z" transform="translate(-282.346 -259.519)" fill="#463d3d"/>
                <path id="Path_991732" data-name="Path 991732" d="M275.767,262.577c.029.334.229.591.448.572s.374-.3.346-.64-.229-.591-.448-.572S275.738,262.243,275.767,262.577Z" transform="translate(-274.263 -259.519)" fill="#463d3d"/>
                <g id="Group_1182424" data-name="Group 1182424" transform="translate(3.303 4.767)">
                  <path id="Path_991733" data-name="Path 991733" d="M281.759,268.229a1.256,1.256,0,0,1-.3.806c-.2.232-.516.355-.523.454a.566.566,0,0,0,.173.493.882.882,0,0,0,.576.288h0a.105.105,0,0,1,.014.207.972.972,0,0,1-.853-.226,1.02,1.02,0,0,1-.277-.383.706.706,0,0,1-.017-.531.767.767,0,0,1,.359-.36,2.07,2.07,0,0,0,.291-.193,1.338,1.338,0,0,0,.353-.59v0a.1.1,0,0,1,.2.038Z" transform="translate(-280.507 -268.121)" fill="#463d3d"/>
                </g>
                <g id="Group_1182425" data-name="Group 1182425" transform="translate(5.968 0.089)">
                  <path id="Path_991734" data-name="Path 991734" d="M287.585,256.189a1.365,1.365,0,0,1,.791-.365,2.143,2.143,0,0,1,.863.085,2.444,2.444,0,0,1,.748.4,2.673,2.673,0,0,1,.552.594.21.21,0,0,1-.276.3l-.024-.014c-.105-.06-.2-.131-.3-.193s-.2-.12-.3-.163a2.8,2.8,0,0,0-.6-.227,2.5,2.5,0,0,0-.614-.061l-.643.009h-.052a.212.212,0,0,1-.15-.364Z" transform="translate(-287.52 -255.81)" fill="#463d3d"/>
                </g>
                <g id="Group_1182426" data-name="Group 1182426" transform="translate(0.144)">
                  <path id="Path_991735" data-name="Path 991735" d="M274.49,256.336c-.155-.011-.29-.013-.454-.019a3.13,3.13,0,0,0-.508.01,3.21,3.21,0,0,0-.518.094,2.1,2.1,0,0,0-.484.187l-.017.01a.212.212,0,0,1-.279-.3,1.508,1.508,0,0,1,.535-.473,2.254,2.254,0,0,1,.657-.231,2,2,0,0,1,.711-.011.926.926,0,0,1,.655.443.2.2,0,0,1-.194.3Z" transform="translate(-272.193 -255.575)" fill="#463d3d"/>
                </g>
                <path id="Path_991736" data-name="Path 991736" d="M283.549,277.605a3.868,3.868,0,0,1-2.821-.139s.06,1.713,1.391,1.676S283.549,277.605,283.549,277.605Z" transform="translate(-277.341 -269.147)" fill="#fff"/>
              </g>
              <path id="Path_991737" data-name="Path 991737" d="M275.731,220.26c3.444.736,4.65.46,6.781,6.661a17.162,17.162,0,0,1-.084,8.109l-1.681-.233-.579,1.924c-1.977-1.091-3.011-2.1-2.7-4.685a8.249,8.249,0,0,1-7.615-3.218c-2.088,1.345-6.333,2.948-6.837-.76C262.531,221.015,271.147,219.28,275.731,220.26Z" transform="translate(-258.332 -220.008)" fill="#005277"/>
            </g>
            <g id="Group_1182434" data-name="Group 1182434" transform="translate(10.409 79.442)">
              <g id="Group_1182429" data-name="Group 1182429" transform="translate(5.289 0.192)">
                <path id="Path_991738" data-name="Path 991738" d="M41.62,301.938c.789.838,1.575,1.7,2.3,2.635a15.806,15.806,0,0,1,1.924,3.106l.011.024a1.148,1.148,0,0,1-2.089.955,1.215,1.215,0,0,1-.076-.228,20.312,20.312,0,0,0-2.768-5.961.44.44,0,0,1,.695-.532Z" transform="translate(-40.859 -301.799)" fill="#89492f"/>
              </g>
              <path id="Path_991739" data-name="Path 991739" d="M37.67,316.71a24.9,24.9,0,0,1,2.69,2.788c1.146-.752,1.715-2.013,2.676-2.959a2.611,2.611,0,0,0-.77-1.924c-.087-.1-1.5-1.4-1.584-1.571-.689-1.294-.853-2.243-1.857-3.224-.606-.591-1.442-.922-2.146-1.55s-2.193-1.625-3.137-1.3a4.379,4.379,0,0,0-2,1.754c-1.564,2.128-.86,2.746,1.134,4.659a38.235,38.235,0,0,0,4.319,2.794A4.606,4.606,0,0,1,37.67,316.71Z" transform="translate(-29.261 -304.772)" fill="#89492f"/>
              <g id="Group_1182430" data-name="Group 1182430" transform="translate(3.46)">
                <path id="Path_991740" data-name="Path 991740" d="M37.621,305.5c-.249-.2-.5-.394-.766-.635l-.207-.2c-.072-.075-.146-.158-.219-.244a1.725,1.725,0,0,1-.375-.833,1.565,1.565,0,0,1,.179-.877c.054-.1.11-.186.166-.272l.168-.222c.222-.271.441-.5.658-.724a.634.634,0,0,1,.986.791l-.006.008c-.168.25-.338.5-.468.735l-.084.165c-.019.049-.037.1-.05.135-.017.073.013.084.014.017s0-.069.052-.03l.11.079.147.1c.218.135.482.279.743.422l.005,0a.955.955,0,1,1-.917,1.675A1.069,1.069,0,0,1,37.621,305.5Z" transform="translate(-36.047 -301.295)" fill="#89492f"/>
              </g>
              <g id="Group_1182431" data-name="Group 1182431" transform="translate(2.133 0.637)">
                <path id="Path_991741" data-name="Path 991741" d="M34.033,307.748c-.264-.258-.524-.5-.8-.814a4.024,4.024,0,0,1-.417-.557,1.758,1.758,0,0,1-.261-.952,1.9,1.9,0,0,1,.254-.82,5.4,5.4,0,0,1,.327-.5l.609-.845.014-.019a.633.633,0,0,1,1.078.659l-.485.947a3.872,3.872,0,0,0-.186.411c-.048.121-.037.19-.027.182.009-.026.023-.029.068.029a3.355,3.355,0,0,0,.262.241c.219.184.5.383.773.576l.013.01a.954.954,0,1,1-1.109,1.553A1.018,1.018,0,0,1,34.033,307.748Z" transform="translate(-32.554 -302.972)" fill="#89492f"/>
              </g>
              <g id="Group_1182432" data-name="Group 1182432" transform="translate(0.654 1.416)">
                <path id="Path_991742" data-name="Path 991742" d="M29.325,309.246a4.938,4.938,0,0,1-.535-.958,1.948,1.948,0,0,1-.125-.776,1.915,1.915,0,0,1,.179-.686,5.215,5.215,0,0,1,.524-.845l.512-.7,0,0a.635.635,0,0,1,1.084.652l-.372.773a3.718,3.718,0,0,0-.266.675.187.187,0,0,0,0,.147.142.142,0,0,1,.056.056,5.084,5.084,0,0,0,.417.463.956.956,0,1,1-1.472,1.205Z" transform="translate(-28.662 -305.022)" fill="#89492f"/>
              </g>
              <g id="Group_1182433" data-name="Group 1182433" transform="translate(0 2.347)">
                <path id="Path_991743" data-name="Path 991743" d="M30.384,313.618c-.47-.271-.94-.54-1.411-.852a6.575,6.575,0,0,1-1.4-1.151,2.652,2.652,0,0,1-.546-.984,2.623,2.623,0,0,1-.045-1.086,9.939,9.939,0,0,1,.47-1.637.633.633,0,0,1,1.219.335l0,.017a8.9,8.9,0,0,0-.269,1.439.919.919,0,0,0,.336.839,5.241,5.241,0,0,0,1.132.729c.435.23.907.441,1.376.652l.011,0a.952.952,0,1,1-.781,1.737C30.44,313.649,30.411,313.634,30.384,313.618Z" transform="translate(-26.941 -307.472)" fill="#89492f"/>
              </g>
            </g>
            <g id="Group_1182435" data-name="Group 1182435" transform="translate(34.361 78.338)">
              <path id="Path_991744" data-name="Path 991744" d="M116.091,298.388s-22.513,15.44-26.119,28.774l1.987,4.513s6.44-3.159,15.338-8.659c3.135-1.938,5.408-2.9,9.755-6C126.1,307.87,116.091,298.388,116.091,298.388Z" transform="translate(-89.972 -298.388)" fill="#005277"/>
              <path id="Path_991745" data-name="Path 991745" d="M111.184,335.072a49.532,49.532,0,0,1-7.326,3.957c1.088-7.281-2.528-8.044-2.528-8.044S93.573,343.608,90.224,345.2c-.09.277-.176.553-.25.828l1.987,4.513s6.44-3.159,15.338-8.659c3.135-1.938,5.408-2.9,9.755-6a12.1,12.1,0,0,0,3.706-7.066C117.311,330.47,114.343,332.931,111.184,335.072Z" transform="translate(-89.973 -317.251)" fill="#00415e"/>
            </g>
            <g id="Group_1182438" data-name="Group 1182438" transform="translate(54.21 110.295)">
              <g id="Group_1182436" data-name="Group 1182436" transform="translate(8.241)">
                <path id="Path_991746" data-name="Path 991746" d="M178.088,440.494c-8.879-20.959-9.806-31.577-13.123-44.627-1.663-6.542-1.225-9.05.173-13.041,5.076-1.462,9.574,2.3,14.832,1.79,11.429,2.787,11.942,31.831,12.19,47.067.1,6.23-.393,42.186-3.111,51.518-2.293,1.307-5.7.556-6.821-.143C181.919,467.727,178.232,456.853,178.088,440.494Z" transform="translate(-163.893 -382.487)" fill="#463d3d"/>
                <path id="Path_991747" data-name="Path 991747" d="M182.7,494.628c-.213-3.808-.578-7.64-.535-11.436.2-17.467,4.248-35.893-1.32-52.915-2.765-8.454-7.758-16.006-12.749-23.286-1.415-2.064-2.825-4.115-4.17-6.212a29.9,29.9,0,0,0,1.061,6.429c3.317,13.05,4.244,23.668,13.123,44.627.144,16.359,3.831,27.232,4.14,42.565A3.425,3.425,0,0,0,182.7,494.628Z" transform="translate(-163.911 -393.828)" fill="#302a2a"/>
              </g>
              <g id="Group_1182437" data-name="Group 1182437" transform="translate(0 2.494)">
                <path id="Path_991748" data-name="Path 991748" d="M146.148,440.459c-2.172-23.006-6.8-28.855-1.471-43.019-.2-6.747,13.8-8.929,19.046-8.281,8.065,3.982-.459,36.625-3.554,51.644-1.257,6.1-4.748,38.445-9.432,46.962-2.522.777-5.681-.7-6.626-1.625C144.493,472.65,143.089,455.642,146.148,440.459Z" transform="translate(-142.206 -389.05)" fill="#463d3d"/>
                <path id="Path_991749" data-name="Path 991749" d="M146.363,487.484c.185-4.158,1.555-32.855,4.536-44.715,1.136-4.519,1.117-19.058,1.575-23.695.4-4.015-.366-11.892.738-15.538,1.546-5.108,5.2-9.479,7.194-14.4-6.272.3-15.892,2.755-15.727,8.356-5.329,14.164-.7,20.013,1.471,43.019-3.059,15.183-1.655,32.191-2.037,45.68A6.941,6.941,0,0,0,146.363,487.484Z" transform="translate(-142.207 -389.106)" fill="#302a2a"/>
              </g>
            </g>
            <g id="Group_1182441" data-name="Group 1182441" transform="translate(56.68 76.587)">
              <g id="Group_1182439" data-name="Group 1182439" transform="translate(0 0)">
                <path id="Path_991750" data-name="Path 991750" d="M178.49,295.516c-2.512-1.248-5.113-1.809-12.139-1.68-.035,0-.053-.037-.083-.054l-4.243.173c-3.9-.049-7.148.317-9.519,1.578.22.94-.288,13.071-3.107,21.316l1.006,10.6-1.7,10.923s16.186,5.522,29.338.028l2.837-27.446S183.586,298.048,178.49,295.516Z" transform="translate(-148.707 -293.782)" fill="#fb6827"/>
              </g>
              <g id="Group_1182440" data-name="Group 1182440" transform="translate(0 12.227)">
                <path id="Path_991751" data-name="Path 991751" d="M158.291,360.377c-.847-1.82-3.091-2.81-3.691-4.732-1.394-4.461-.585-10.005-.388-14.679.211-5,1.15-10.007.7-15.007-1.327,1.333-2.5,2.807-3.805,4.157A49.929,49.929,0,0,1,149.4,336.8l1.006,10.6-1.7,10.923A53.233,53.233,0,0,0,158.291,360.377Z" transform="translate(-148.707 -325.958)" fill="#cf4d11"/>
              </g>
            </g>
            <g id="Group_1182449" data-name="Group 1182449" transform="translate(64.602 44.863)">
              <path id="Path_991752" data-name="Path 991752" d="M189.35,282.326s1.639,6.368,5.159,6.175c1.428.03,4.693-4.354,3.7-5.713a3.11,3.11,0,0,1-.383-2.909c.45-1.225,1.106-2.948,1.844-4.678-.942-1.419-6.58-3.319-8.172-1.381C192.254,276.6,189.35,282.326,189.35,282.326Z" transform="translate(-181.828 -249.17)" fill="#89492f"/>
              <path id="Path_991753" data-name="Path 991753" d="M200.763,280.386c-2.362,1.9-7.79-.856-6.151-4.421a5.455,5.455,0,0,0-.042-2.144c1.592-1.938,7.231-.038,8.172,1.381-.738,1.73-1.394,3.453-1.844,4.678A3.224,3.224,0,0,0,200.763,280.386Z" transform="translate(-184.902 -249.171)" fill="#613421"/>
              <g id="Group_1182448" data-name="Group 1182448">
                <path id="Path_991754" data-name="Path 991754" d="M224.359,239.379c1.323.42,2.838-.638,3.385-2.361s-.082-3.461-1.405-3.881-2.838.638-3.385,2.361S223.036,238.959,224.359,239.379Z" transform="translate(-202.54 -224.401)" fill="#463d3d"/>
                <path id="Path_991755" data-name="Path 991755" d="M222.136,250.351s3.921-1.133,4.4-4.679a5.115,5.115,0,0,0-1.948-4.763l-2.616.435Z" transform="translate(-202.051 -229.277)" fill="#463d3d"/>
                <path id="Path_991756" data-name="Path 991756" d="M180.855,262.055c1.289.305,2.673-.874,3.089-2.633s-.291-3.434-1.58-3.739-2.673.874-3.089,2.633S179.566,261.749,180.855,262.055Z" transform="translate(-175.507 -238.406)" fill="#463d3d"/>
                <path id="Path_991757" data-name="Path 991757" d="M172.988,253.66c1.268-.384,1.871-2.1,1.348-3.829s-1.977-2.823-3.245-2.439-1.871,2.1-1.348,3.829S171.719,254.044,172.988,253.66Z" transform="translate(-169.554 -233.249)" fill="#463d3d"/>
                <g id="Group_1182442" data-name="Group 1182442" transform="translate(19.501 17.289)">
                  <path id="Path_991758" data-name="Path 991758" d="M221.605,256.144a2.742,2.742,0,0,1,1.345-.347,1.912,1.912,0,0,1,1.955,2.244c-.082,1.529-.635,2.743-2.651,3a1.947,1.947,0,0,1-1.382-.263A32.323,32.323,0,0,1,221.605,256.144Z" transform="translate(-220.873 -255.796)" fill="#89492f"/>
                  <path id="Path_991759" data-name="Path 991759" d="M224.155,258.617c.916-.34,2.042.276,1.657,1.826" transform="translate(-222.908 -257.488)" fill="none" stroke="#463d3d" stroke-linecap="round" stroke-linejoin="round" stroke-miterlimit="10" stroke-width="1.025"/>
                </g>
                <path id="Path_991760" data-name="Path 991760" d="M188.376,236.07c2.207-2.209,9.517-3.323,11.414-.817,1.925,3.24,1.389,7.669,1.05,9.166-.176,8.145-4.543,10.673-8.691,10.146-8.2-.289-7.462-8.666-7.385-11.456C184.816,241.221,187,237.451,188.376,236.07Z" transform="translate(-178.954 -224.883)" fill="#89492f"/>
                <g id="Group_1182446" data-name="Group 1182446" transform="translate(9.933 15.84)">
                  <path id="Path_991761" data-name="Path 991761" d="M198.152,264.845c.034.271-.489.559-1.167.644s-1.255-.067-1.289-.338.489-.559,1.167-.644S198.119,264.574,198.152,264.845Z" transform="translate(-195.695 -259.732)" fill="#ff9494" opacity="0.21"/>
                  <path id="Path_991762" data-name="Path 991762" d="M215.829,264.6c0,.237-.517.41-1.153.387s-1.15-.234-1.148-.471.517-.41,1.153-.387S215.83,264.36,215.829,264.6Z" transform="translate(-206.751 -259.509)" fill="#ff9494" opacity="0.21"/>
                  <path id="Path_991763" data-name="Path 991763" d="M204.971,274.525s-1-.076-4.439-.093c0,0,0,1.344,2.33,1.583A1.8,1.8,0,0,0,204.971,274.525Z" transform="translate(-198.694 -265.901)" fill="#fff"/>
                  <path id="Path_991764" data-name="Path 991764" d="M201.908,259.243c-.042.328-.25.571-.464.543s-.355-.315-.313-.643.25-.571.464-.543S201.95,258.916,201.908,259.243Z" transform="translate(-199.061 -256.084)" fill="#463d3d"/>
                  <path id="Path_991765" data-name="Path 991765" d="M215.1,259.243c-.042.328-.249.571-.464.543s-.355-.315-.313-.643.249-.571.464-.543S215.143,258.916,215.1,259.243Z" transform="translate(-207.241 -256.084)" fill="#463d3d"/>
                  <g id="Group_1182443" data-name="Group 1182443" transform="translate(5.011 4.418)">
                    <path id="Path_991766" data-name="Path 991766" d="M209.184,263.68a1.312,1.312,0,0,0,.32.6,1.98,1.98,0,0,0,.279.2.744.744,0,0,1,.334.364.686.686,0,0,1-.039.514.988.988,0,0,1-.285.362.952.952,0,0,1-.841.189.1.1,0,0,1,.021-.193h0a.87.87,0,0,0,.584-.257.563.563,0,0,0,.193-.488c-.008-.1-.315-.236-.5-.47a1.235,1.235,0,0,1-.266-.8.1.1,0,0,1,.1-.1A.1.1,0,0,1,209.184,263.68Z" transform="translate(-208.881 -263.608)" fill="#463d3d"/>
                  </g>
                  <g id="Group_1182444" data-name="Group 1182444" transform="translate(0.13 0.002)">
                    <path id="Path_991767" data-name="Path 991767" d="M199.035,252.593c-.234.029-.479.043-.707.069a3.482,3.482,0,0,0-.684.119,3.377,3.377,0,0,0-.656.258,5.741,5.741,0,0,0-.634.378l-.012.008a.2.2,0,0,1-.263-.284,2.934,2.934,0,0,1,.6-.6,2.8,2.8,0,0,1,.766-.406,2.615,2.615,0,0,1,.863-.149,1.623,1.623,0,0,1,.852.236.2.2,0,0,1-.08.365Z" transform="translate(-196.038 -251.987)" fill="#4b3838"/>
                  </g>
                  <g id="Group_1182445" data-name="Group 1182445" transform="translate(6.379)">
                    <path id="Path_991768" data-name="Path 991768" d="M212.542,252.322a1.283,1.283,0,0,1,.818-.337,2.7,2.7,0,0,1,.838.1,3.658,3.658,0,0,1,1.424.747.2.2,0,0,1-.2.333l-.009,0a9.174,9.174,0,0,0-1.373-.419,3.951,3.951,0,0,0-.668-.082,4.66,4.66,0,0,0-.65.006l-.022,0a.2.2,0,0,1-.219-.186A.208.208,0,0,1,212.542,252.322Z" transform="translate(-212.482 -251.981)" fill="#4b3838"/>
                  </g>
                </g>
                <g id="Group_1182447" data-name="Group 1182447" transform="translate(2.485 17.205)">
                  <path id="Path_991769" data-name="Path 991769" d="M179.729,256.179a2.742,2.742,0,0,0-1.261-.582,1.912,1.912,0,0,0-2.326,1.858c-.193,1.518.134,2.812,2.071,3.427a1.945,1.945,0,0,0,1.407-.011A32.439,32.439,0,0,0,179.729,256.179Z" transform="translate(-176.094 -255.573)" fill="#89492f"/>
                  <path id="Path_991770" data-name="Path 991770" d="M180.756,258.618c-.84-.5-2.058-.094-1.957,1.5" transform="translate(-177.767 -257.337)" fill="none" stroke="#463d3d" stroke-linecap="round" stroke-linejoin="round" stroke-miterlimit="10" stroke-width="1.025"/>
                </g>
                <path id="Path_991771" data-name="Path 991771" d="M221.8,227.064c1.32-.427,1.939-2.168,1.382-3.889s-2.078-2.769-3.4-2.342-1.939,2.168-1.382,3.889S220.484,227.491,221.8,227.064Z" transform="translate(-199.715 -216.771)" fill="#463d3d"/>
                <path id="Path_991772" data-name="Path 991772" d="M198.651,215.041c-.069,1.864,2.087,3.456,4.816,3.557s5-1.329,5.064-3.193-2.087-3.456-4.815-3.557S198.72,213.177,198.651,215.041Z" transform="translate(-187.594 -211.256)" fill="#463d3d"/>
                <path id="Path_991773" data-name="Path 991773" d="M175.845,221.929c1.046,1.081,3.278.914,4.987-.375s2.245-3.211,1.2-4.292-3.278-.914-4.986.376S174.8,220.847,175.845,221.929Z" transform="translate(-173.124 -214.173)" fill="#463d3d"/>
                <path id="Path_991774" data-name="Path 991774" d="M190.029,213.259c.029,1.523,1.636,2.669,3.591,2.56s3.515-1.432,3.487-2.955-1.636-2.669-3.591-2.56S190,211.737,190.029,213.259Z" transform="translate(-182.249 -210.297)" fill="#463d3d"/>
                <path id="Path_991775" data-name="Path 991775" d="M170.643,231.877c.5,1.331,2.41,1.845,4.272,1.149s2.967-2.34,2.469-3.67-2.41-1.845-4.272-1.149S170.145,230.546,170.643,231.877Z" transform="translate(-170.155 -221.209)" fill="#463d3d"/>
                <path id="Path_991776" data-name="Path 991776" d="M171.335,241.475c1.289.305,2.673-.874,3.089-2.633s-.291-3.434-1.58-3.739-2.673.874-3.089,2.633S170.045,241.17,171.335,241.475Z" transform="translate(-169.604 -225.647)" fill="#463d3d"/>
                <path id="Path_991777" data-name="Path 991777" d="M190.566,234.721c.9,1.539,3.184,1.875,5.1.751s2.741-3.285,1.841-4.824-3.184-1.875-5.1-.751S189.667,233.182,190.566,234.721Z" transform="translate(-182.356 -222.037)" fill="#463d3d"/>
                <path id="Path_991778" data-name="Path 991778" d="M220.945,238.438c-.8.789-2.367.494-3.51-.659s-1.423-2.727-.627-3.516,2.367-.494,3.51.659S221.741,237.649,220.945,238.438Z" transform="translate(-198.571 -224.882)" fill="#463d3d"/>
                <path id="Path_991779" data-name="Path 991779" d="M204.988,233.01c0,1.476,1.729,2.782,3.863,2.919s3.863-.95,3.863-2.425-1.729-2.782-3.863-2.919S204.988,231.535,204.988,233.01Z" transform="translate(-191.523 -222.869)" fill="#463d3d"/>
              </g>
              <path id="Path_991780" data-name="Path 991780" d="M198.115,224.581c-1.771-5.181-12.286-3.927-12.286-3.927s-5.854-.091-6.557,3.656c-.481,2.622-1.179,5.473-.953,7.4a3.891,3.891,0,0,0,1.22,2.276,6.632,6.632,0,0,1,1.543.465c-.359,4.337,2.069,1.325,1.66-.676,0,0,4.132-1.108,2.461-4.72,4.918-1.493,8.307-.95,10.507-.946.18,0-1.459,3.921,1.353,5.809-.793,1.262-.6,3.025-.129,3.313.656.4,1.752-3.029,1.421-4.237A21.339,21.339,0,0,0,198.115,224.581Z" transform="translate(-174.961 -216.636)" fill="#463d3d"/>
              <path id="Path_991781" data-name="Path 991781" d="M215.414,221.734a1.865,1.865,0,0,0-1.955-1.373,1.718,1.718,0,0,0-1.539,1.692" transform="translate(-195.818 -216.532)" fill="none" stroke="#6e6060" stroke-linecap="round" stroke-linejoin="round" stroke-miterlimit="10" stroke-width="0.879"/>
              <path id="Path_991782" data-name="Path 991782" d="M191.906,225.321a1.865,1.865,0,0,0-1.955-1.373,1.718,1.718,0,0,0-1.539,1.692" transform="translate(-181.243 -218.756)" fill="none" stroke="#6e6060" stroke-linecap="round" stroke-linejoin="round" stroke-miterlimit="10" stroke-width="0.879"/>
              <path id="Path_991783" data-name="Path 991783" d="M196.243,229.121a2.278,2.278,0,0,0-4.344,1.056" transform="translate(-183.406 -221.147)" fill="none" stroke="#6e6060" stroke-linecap="round" stroke-linejoin="round" stroke-miterlimit="10" stroke-width="0.879"/>
            </g>
            <g id="Group_1182450" data-name="Group 1182450" transform="translate(28.919 108.518)">
              <path id="Path_991784" data-name="Path 991784" d="M87.27,382.813S97.5,403.72,97.3,427.908c-.111,13.181-1.441,55.716-1.441,55.716H86.646l-2.962-42.564L77.64,416.2,75.65,377.81Z" transform="translate(-75.65 -377.81)" fill="#005277"/>
              <path id="Path_991785" data-name="Path 991785" d="M89.383,510.479c1.188-3.264,1.051-39.9.385-48.369-1.044-13.261-3.962-29.247-10.359-40.984l.562,21.928,6.044,24.861,2.962,42.564h.407Z" transform="translate(-77.981 -404.665)" fill="#00415e"/>
            </g>
            <g id="Group_1182451" data-name="Group 1182451" transform="translate(10.439 112.484)">
              <path id="Path_991786" data-name="Path 991786" d="M49.457,389.267l-14.029-1.02s-6.888,9.553-8.352,20.1c-.6,4.353,3.642,25.822,4.565,38.474-4.552,9.393-1.408,23.9-2.139,33.682a66.26,66.26,0,0,1-1.363,10.007h9.119l7.057-43.979,4.7-28.256Z" transform="translate(-27.018 -388.247)" fill="#005277"/>
              <path id="Path_991787" data-name="Path 991787" d="M28.138,490.507h2.888c.016-3.083.2-31.8,4.014-44.962.427-8.789.7-24.867,1.021-33.682.255-6.98,2.985-16.582,5.193-23.191l-5.827-.424s-6.888,9.553-8.352,20.1c-.6,4.353,3.642,25.822,4.565,38.474-4.552,9.393-1.408,23.9-2.139,33.682A66.235,66.235,0,0,1,28.138,490.507Z" transform="translate(-27.018 -388.248)" fill="#00415e"/>
            </g>
            <path id="Path_991788" data-name="Path 991788" d="M396.469,408.095c-3.9,7.084-5.026,15.013-8.539,22.329-3.37,8.343-2.869,17.955-4.038,26.513-1.764,12.911-2.886,26.776-4.888,39.374-2.677-.172-6.018,1.984-8.667,1.5-2.253-14.2-2.455-30.75-3.241-46.265,0-11.443.621-29.222,6.276-46.611C381.071,405.9,388.8,406.809,396.469,408.095Z" transform="translate(-227.427 -286.109)" fill="#005277"/>
            <path id="Path_991789" data-name="Path 991789" d="M401.2,452.783c-3,2.545-4.242,6.816-5.212,10.486-1.757,6.642-2.427,13.59-3.455,20.371a161.664,161.664,0,0,0-2.25,24.629c.015,5.516.957,10.654,1.747,16.031a6.167,6.167,0,0,1,1.351-.083c2-12.6,3.124-26.462,4.888-39.374,1.169-8.558.668-18.169,4.038-26.513a66.346,66.346,0,0,0,3.208-8.384A29.352,29.352,0,0,0,401.2,452.783Z" transform="translate(-241.803 -314.017)" fill="#00415e"/>
            <path id="Path_991790" data-name="Path 991790" d="M425.208,431.808c.942-19.757-.176-17.609,0-31.336.087-6.881-2.289-17.23-4.669-20.849-5.475-.233-9.5,4.162-14.929,4.916-8.3,4.2-.579,33.774.824,49.355.57,6.332,3.9,38.867,7.718,48.057,2.369,2.086,5.159.539,7.7,1.04C425.09,470.579,424.564,445.316,425.208,431.808Z" transform="translate(-248.958 -270.41)" fill="#005277"/>
            <path id="Path_991791" data-name="Path 991791" d="M435.068,385.752c.136,5,.345,10,.5,15,.3,9.959.577,19.911,1.4,29.845a223.816,223.816,0,0,0,4.471,29c.836,3.856,1.75,7.687,2.7,11.509,1.193-12.9,1.031-29.309,1.507-39.3.942-19.757-.176-17.609,0-31.336.087-6.881-2.289-17.23-4.669-20.849a13.376,13.376,0,0,0-6.192,1.474C434.951,382.636,435.025,384.2,435.068,385.752Z" transform="translate(-269.391 -270.411)" fill="#00415e"/>
            <g id="Group_1182454" data-name="Group 1182454" transform="translate(142.909 75.988)">
              <path id="Path_991792" data-name="Path 991792" d="M375.79,305.341c1.077-4.26,2.183-7.763,4.124-10.145,1.856-2.176,4.041-3.32,11.194-2.91.036,0,.056-.036.087-.051l4.316.345c4.931.934,10.487,1.723,12.871,3.79,2.513,2.178.568,6.081.341,10.662l-2.458,20.258-.544,10.846s-14.736,8.206-27.955-.524C377.766,337.613,374.917,308.793,375.79,305.341Z" transform="translate(-375.624 -292.204)" fill="#fbaf00"/>
              <g id="Group_1182453" data-name="Group 1182453" transform="translate(18.824 8.272)">
                <g id="Group_1182452" data-name="Group 1182452">
                  <path id="Path_991793" data-name="Path 991793" d="M440.426,314.11c-2.582,2.535-4.742,5.45-7.188,8.11q-.079,2.827-.418,5.683a131.977,131.977,0,0,1-3.329,17.167c-.9,3.512-2.1,7.076-4.33,9.895a32.542,32.542,0,0,0,11.273-3.331l.544-10.846,2.458-20.259c.167-3.359,1.449-5.039,1.134-6.556C440.522,314.019,440.473,314.064,440.426,314.11Z" transform="translate(-425.161 -313.973)" fill="#d18800"/>
                </g>
              </g>
            </g>
            <g id="Group_1182460" data-name="Group 1182460" transform="translate(146.217 44.357)">
              <path id="Path_991794" data-name="Path 991794" d="M412.052,279.793s.607,5.769-7.942,4.873c-4.876-1.031-.052-5.31-.052-5.31a11.554,11.554,0,0,0,.068-7.085c1.015-1.408,6.835-3.119,8.38-1.081C411.624,274,412.052,279.793,412.052,279.793Z" transform="translate(-395.241 -246.962)" fill="#ffb9b6"/>
              <path id="Path_991795" data-name="Path 991795" d="M407.789,278.88a9.014,9.014,0,0,0,7.793-4.232,14.957,14.957,0,0,1,.509-3.458c-1.545-2.038-7.364-.326-8.38,1.081A11.2,11.2,0,0,1,407.789,278.88Z" transform="translate(-398.826 -246.963)" fill="#ff9494"/>
              <g id="Group_1182459" data-name="Group 1182459">
                <path id="Path_991796" data-name="Path 991796" d="M396.11,238.444s-5.506-2.054-5.8-7.2a7.366,7.366,0,0,1,3.317-6.625l3.709.91Z" transform="translate(-388.027 -218.672)" fill="#463d3d"/>
                <path id="Path_991797" data-name="Path 991797" d="M408.39,225.791c-2.22-2.588-1.158-4.429-4.834-4.38-.122,0-.25.011-.376.017s-.254-.009-.376-.007c-3.675.049-5.079-.124-7.352,2.448-2.94,3.327-1.781,9.73-1.773,11.79.021,5.867,1.9,10.275,6.461,10.044,2.234.285,5.97-1.99,7.619-3.707s3.213-3.426,3.36-6.471C411.218,233.466,409.778,227.408,408.39,225.791Z" transform="translate(-389.983 -216.681)" fill="#ffb9b6"/>
                <path id="Path_991798" data-name="Path 991798" d="M413.875,259.875c-.029.306-.671.5-1.437.426s-1.362-.377-1.334-.682.671-.5,1.437-.426S413.9,259.57,413.875,259.875Z" transform="translate(-400.929 -240.097)" fill="#ff9494"/>
                <path id="Path_991799" data-name="Path 991799" d="M397.735,258.277c.009.306-.542.548-1.232.542s-1.257-.261-1.266-.567.542-.548,1.232-.541S397.725,257.97,397.735,258.277Z" transform="translate(-391.092 -239.187)" fill="#ff9494"/>
                <path id="Path_991800" data-name="Path 991800" d="M400.787,269.012s1.1,0,4.841.266a3.126,3.126,0,0,1-2.668,1.531A1.908,1.908,0,0,1,400.787,269.012Z" transform="translate(-394.533 -246.194)" fill="#fff"/>
                <path id="Path_991801" data-name="Path 991801" d="M413.528,252.772c.018.36.224.642.46.63s.412-.313.394-.674-.224-.642-.46-.63S413.51,252.412,413.528,252.772Z" transform="translate(-402.432 -235.707)" fill="#463d3d"/>
                <path id="Path_991802" data-name="Path 991802" d="M399.557,252c.017.326.2.581.417.57s.374-.283.357-.609-.2-.581-.417-.57S399.541,251.67,399.557,252Z" transform="translate(-393.77 -235.266)" fill="#463d3d"/>
                <g id="Group_1182455" data-name="Group 1182455" transform="translate(6.674 18.368)">
                  <path id="Path_991803" data-name="Path 991803" d="M403.321,257.435a1.35,1.35,0,0,1-.351.868c-.226.242-.573.372-.572.462a.591.591,0,0,0,.162.511.954.954,0,0,0,.592.333h0a.125.125,0,0,1,.008.246,1.043,1.043,0,0,1-.923-.271,1.123,1.123,0,0,1-.289-.429.778.778,0,0,1,0-.587.842.842,0,0,1,.408-.383,2.028,2.028,0,0,0,.316-.194,1.424,1.424,0,0,0,.4-.607v0a.125.125,0,0,1,.241.054Z" transform="translate(-401.893 -257.303)" fill="#463d3d"/>
                </g>
                <g id="Group_1182456" data-name="Group 1182456" transform="translate(10.338 13.707)">
                  <path id="Path_991804" data-name="Path 991804" d="M411.663,245.25a1.712,1.712,0,0,1,.963-.212,2.839,2.839,0,0,1,.942.237,3.043,3.043,0,0,1,.809.519,2.984,2.984,0,0,1,.595.722.25.25,0,0,1-.357.334l-.017-.012a7.85,7.85,0,0,0-.664-.445,3.8,3.8,0,0,0-.685-.322,4.023,4.023,0,0,0-.72-.182c-.241-.05-.5-.091-.75-.159l-.059-.016a.253.253,0,0,1-.058-.464Z" transform="translate(-411.535 -245.036)" fill="#4b3838"/>
                </g>
                <g id="Group_1182457" data-name="Group 1182457" transform="translate(4.944 12.973)">
                  <path id="Path_991805" data-name="Path 991805" d="M399.37,244.116c-.16-.035-.255-.041-.378-.073a2.508,2.508,0,0,0-.4-.083,4.01,4.01,0,0,0-.939.006l-.025,0a.256.256,0,0,1-.206-.44,1.534,1.534,0,0,1,.57-.326,2.022,2.022,0,0,1,.649-.1,1.626,1.626,0,0,1,.681.149.836.836,0,0,1,.474.613.254.254,0,0,1-.305.277Z" transform="translate(-397.34 -243.105)" fill="#4b3838"/>
                </g>
                <g id="Group_1182458" data-name="Group 1182458" transform="translate(19.575 15.874)">
                  <path id="Path_991806" data-name="Path 991806" d="M436.112,251.273a3,3,0,0,1,1.422-.53,2.088,2.088,0,0,1,2.378,2.216c.085,1.67-.378,3.051-2.538,3.56a2.126,2.126,0,0,1-1.531-.128A35.385,35.385,0,0,1,436.112,251.273Z" transform="translate(-435.843 -250.739)" fill="#ffb9b6"/>
                  <path id="Path_991807" data-name="Path 991807" d="M438.257,253.953c.956-.473,2.249.068,2.007,1.8" transform="translate(-437.34 -252.631)" fill="none" stroke="#463d3d" stroke-linecap="round" stroke-linejoin="round" stroke-miterlimit="10" stroke-width="1.299"/>
                </g>
                <path id="Path_991808" data-name="Path 991808" d="M384.62,214.914c-.972-3.238.405-6.337,5.5-5.91a82.1,82.1,0,0,1,9.729,1.705c1.777.4,4.977.051,5.995,3.662,1.526-.678,2.756,2.652,2.87,3.687.526,4.967-1.766,7.055-1.766,7.055a3.9,3.9,0,0,0-2.074-.1,12.494,12.494,0,0,0-.389,2.673l-1.108-.035c-1.225-.717-1.879-2.684-1.729-4.341,0,0-3.447-.7-1.329-4.492C394.854,219.161,386.609,221.539,384.62,214.914Z" transform="translate(-384.329 -208.965)" fill="#463d3d"/>
                <path id="Path_991809" data-name="Path 991809" d="M407.708,218.395s-11.561.994-10.645-1.848" transform="translate(-392.192 -213.666)" fill="none" stroke="#6e6060" stroke-linecap="round" stroke-linejoin="round" stroke-miterlimit="10" stroke-width="0.879"/>
                <path id="Path_991810" data-name="Path 991810" d="M399.234,220.311s-11.035,1.484-9.257-2.766" transform="translate(-387.71 -214.285)" fill="none" stroke="#6e6060" stroke-linecap="round" stroke-linejoin="round" stroke-miterlimit="10" stroke-width="0.879"/>
              </g>
            </g>
            <g id="Group_1182467" data-name="Group 1182467" transform="translate(146.124 79.851)">
              <g id="Group_1182466" data-name="Group 1182466" transform="translate(0 51.833)">
                <g id="Group_1182461" data-name="Group 1182461" transform="translate(4.026 0.041)">
                  <path id="Path_991811" data-name="Path 991811" d="M394.932,442.477a17.37,17.37,0,0,1,2.4-2.39,6.07,6.07,0,0,1,1.739-.935,5.412,5.412,0,0,1,2.086-.26l.052,0a1.389,1.389,0,0,1-.2,2.771,1.538,1.538,0,0,1-.183-.025,2.731,2.731,0,0,0-1.064-.02,3.569,3.569,0,0,0-1.118.428,15.58,15.58,0,0,0-2.345,1.824.98.98,0,0,1-1.37-1.4Z" transform="translate(-394.68 -438.879)" fill="#ffb9b6"/>
                </g>
                <path id="Path_991812" data-name="Path 991812" d="M399.968,442.6c.632-2.549,4.734-4.2,6-3.752,1.854.662,3.344-.612,3.919.822s-1.018,3.152-2.073,4.786a42.107,42.107,0,0,1-4.244,4.98c-1.174,1.185-2.11,1.59-3.553.144a29.649,29.649,0,0,1-1.423-2.758C397.863,445.713,399.876,442.974,399.968,442.6Z" transform="translate(-392.981 -438.773)" fill="#ffb9b6"/>
                <g id="Group_1182462" data-name="Group 1182462" transform="translate(0.382 5.045)">
                  <path id="Path_991813" data-name="Path 991813" d="M392.661,454.439c-.406.389-.828.793-1.3,1.19a7.962,7.962,0,0,1-1.638,1.094,4.455,4.455,0,0,1-2.121.458,5.159,5.159,0,0,1-1.978-.511.922.922,0,0,1,.652-1.719l.037.011a3.165,3.165,0,0,0,1.256.146,2.262,2.262,0,0,0,1.05-.408,10.336,10.336,0,0,0,1.993-2.121,1.387,1.387,0,1,1,2.181,1.715A1.688,1.688,0,0,1,392.661,454.439Z" transform="translate(-385.09 -452.049)" fill="#ffb9b6"/>
                </g>
                <g id="Group_1182463" data-name="Group 1182463" transform="translate(0.115 6.654)">
                  <path id="Path_991814" data-name="Path 991814" d="M392.652,458.508a13.572,13.572,0,0,1-1.387,1.605,5.3,5.3,0,0,1-2.082,1.305,3.711,3.711,0,0,1-1.346.138l-.328-.035c-.106-.018-.206-.046-.308-.07a3.379,3.379,0,0,1-.581-.185,7.716,7.716,0,0,1-1.872-1.116.921.921,0,0,1,1.029-1.525l.03.017a5.761,5.761,0,0,0,1.468.656,1.687,1.687,0,0,0,1.158-.061,3.1,3.1,0,0,0,.985-.865,11.217,11.217,0,0,0,.927-1.4l0,0a1.387,1.387,0,1,1,2.4,1.39A1.617,1.617,0,0,1,392.652,458.508Z" transform="translate(-384.388 -456.283)" fill="#ffb9b6"/>
                </g>
                <g id="Group_1182464" data-name="Group 1182464" transform="translate(0 9.078)">
                  <path id="Path_991815" data-name="Path 991815" d="M392.377,465.311a13.863,13.863,0,0,1-1.86.723,7.4,7.4,0,0,1-2.123.332,5.921,5.921,0,0,1-2.147-.42,8.087,8.087,0,0,1-1.781-1,.922.922,0,0,1,.981-1.557l.019.011a6.1,6.1,0,0,0,1.432.579,3.712,3.712,0,0,0,1.386.086,7.3,7.3,0,0,0,2.776-1.187,1.387,1.387,0,0,1,1.48,2.346,1.365,1.365,0,0,1-.151.083Z" transform="translate(-384.085 -462.662)" fill="#ffb9b6"/>
                </g>
                <g id="Group_1182465" data-name="Group 1182465" transform="translate(1.773 8.155)">
                  <path id="Path_991816" data-name="Path 991816" d="M397.485,462.595a15.985,15.985,0,0,1-1.677,1.534,8.879,8.879,0,0,1-2.036,1.209,8.086,8.086,0,0,1-2.263.553,12.808,12.808,0,0,1-2.2.013.6.6,0,0,1-.027-1.188h.006a8.142,8.142,0,0,0,3.583-1.138,9.111,9.111,0,0,0,2.456-2.714,1.391,1.391,0,1,1,2.171,1.72Z" transform="translate(-388.752 -460.232)" fill="#ffb9b6"/>
                </g>
              </g>
              <path id="Path_991817" data-name="Path 991817" d="M430.593,331.114c-1.9,2.948-1.376,3.093-3.541,6.833-2.329,4.023-7.149,11.492-10.037,16.131a27.772,27.772,0,0,0,3.6,3.8c5.6-5.463,9.835-9.53,15.206-15.691,7.006-8.036,7.081-4.72,5.777-16.206-.608-5.357-.528-25.774-11.022-23.428C417.806,305.715,427.67,322.906,430.593,331.114Z" transform="translate(-404.502 -302.37)" fill="#fbaf00"/>
              <path id="Path_991818" data-name="Path 991818" d="M462.033,330.585c-.435-3.838-.519-15.406-4.39-20.8.027,2.11,2.554,23.982,1.775,27.16-.805,3.287-8.6,14.214-9.443,16.681,2.017-2.086,4.05-4.281,6.281-6.839C463.262,338.756,463.337,342.071,462.033,330.585Z" transform="translate(-424.937 -306.97)" fill="#d18800"/>
            </g>
            <path id="Path_991819" data-name="Path 991819" d="M71.288,296.358c-.54-1.04-2.416-2.516-3.053-2.485l0,.011c-.057-.021-.111-.046-.168-.065l-.045-.014-7.453-2.362c-1.99.238-4.451.123-5.84.577-2.233.73-9.057,3.249-2.233,29.352.287,1.1-3.348,6.856-3.348,6.856s6.268,5.979,21.69,1.036c0,0,2.415-8.236,4.882-10.053,3.081-3.769,1.709-8.475,1.525-9.63C76.322,303.78,72.378,297.842,71.288,296.358Z" transform="translate(-30.302 -215.744)" fill="#fbaf00"/>
            <g id="Group_1182469" data-name="Group 1182469" transform="translate(18.849 75.699)">
              <g id="Group_1182468" data-name="Group 1182468" clip-path="url(#clip-path-4)">
                <path id="Path_991820" data-name="Path 991820" d="M74.4,288.789s-2.617-.112-2.011,3.022S84.4,300.368,84.4,300.368s-.273-6.588-.732-9.2C83.666,291.171,82.441,287.995,74.4,288.789Z" transform="translate(-63.501 -289.719)" fill="#ffce7d"/>
              </g>
            </g>
            <path id="Path_991822" data-name="Path 991822" d="M54.4,304.481c0-.033.01-.065.014-.1a48.318,48.318,0,0,0-.874-10.127c-2.719,1.452-6.879,6.514-1.037,28.86.287,1.1-3.348,6.856-3.348,6.856a12.082,12.082,0,0,0,5.206,2.405c.723-1.325,3.189-8.445,2.51-10.9C55.772,317.527,53.839,309.914,54.4,304.481Z" transform="translate(-30.302 -217.488)" fill="#d18800"/>
            <path id="Path_991823" data-name="Path 991823" d="M76.931,281.559s7.508,5.592,8.689,5.592l-.372-5.287a28.2,28.2,0,0,1,1.594-7.965c-.88-1.356-6.315-2.634-7.846-.809C79.688,275.742,76.931,281.559,76.931,281.559Z" transform="translate(-47.525 -203.805)" fill="#ffb9b6"/>
            <path id="Path_991824" data-name="Path 991824" d="M82.091,275.888c1.384,2.763,5.8,4.781,6.426,5.069a25.478,25.478,0,0,1,1.524-7.055c-.88-1.356-6.315-2.634-7.846-.809A6.574,6.574,0,0,1,82.091,275.888Z" transform="translate(-50.725 -203.806)" fill="#ff9494"/>
            <g id="Group_1182476" data-name="Group 1182476" transform="translate(24.798 45.293)">
              <path id="Path_991825" data-name="Path 991825" d="M86.651,223.839c0,6.512-3.24,11.282-11.309,11.169-5.819-.082-10.537-5.279-10.537-11.79s4.717-11.79,10.537-11.79S86.651,217.327,86.651,223.839Z" transform="translate(-64.805 -211.427)" fill="#463d3d"/>
              <path id="Path_991826" data-name="Path 991826" d="M110.371,240.31a5.512,5.512,0,0,0-.177-.676l-.972-9.192,4.482-.825.007.016c.5,1.147.212,3.979-.114,5.209C112.892,237.505,110.629,239.884,110.371,240.31Z" transform="translate(-92.344 -222.705)" fill="#463d3d"/>
              <g id="Group_1182470" data-name="Group 1182470" transform="translate(17.834 16.044)">
                <path id="Path_991827" data-name="Path 991827" d="M111.877,254.2a2.789,2.789,0,0,1,1.306-.538,1.945,1.945,0,0,1,2.284,1.987,3.118,3.118,0,0,1-2.251,3.394,1.927,1.927,0,0,1-1.429-.071A32.942,32.942,0,0,1,111.877,254.2Z" transform="translate(-111.737 -253.647)" fill="#ffb9b6"/>
                <path id="Path_991828" data-name="Path 991828" d="M111.848,265.754a1.005,1.005,0,1,0,.825-1.157A1.005,1.005,0,0,0,111.848,265.754Z" transform="translate(-111.798 -260.428)" fill="#fbaf00"/>
                <path id="Path_991829" data-name="Path 991829" d="M114.012,257.348a1.253,1.253,0,0,1,1.886.062" transform="translate(-113.148 -255.695)" fill="none" stroke="#463d3d" stroke-linecap="round" stroke-linejoin="round" stroke-miterlimit="10" stroke-width="1.096"/>
              </g>
              <path id="Path_991830" data-name="Path 991830" d="M77.941,230.915c2.148-2.339,1.217-4.086,4.637-3.925.114.005.232.018.35.028s.237,0,.35.005c3.419.161,4.731.045,6.766,2.51,2.632,3.189,1.351,9.112,1.279,11.03-.784,5.736-4.911,8.2-7.36,8.175-5.867,0-8.273-6.665-8.314-9.5C75.621,237.315,76.6,232.377,77.941,230.915Z" transform="translate(-71.527 -221.07)" fill="#ffb9b6"/>
              <path id="Path_991831" data-name="Path 991831" d="M87.349,219.359c-.934-3.729-6.015-6.379-12.933-4.5-11.666,4.083-6.811,15.824-6.811,15.824l1.642-.385.749,1.85c2.03-.6,2.787-2.354,2.238-4.883.735-.172,1.877-.391,3.2-.66a10.372,10.372,0,0,0,1.547-4.1,6.979,6.979,0,0,1,.255,3.721c3.518.077,9.117.347,12.316-1.269C88.207,223.428,87.861,221.4,87.349,219.359Z" transform="translate(-65.92 -213.17)" fill="#463d3d"/>
              <path id="Path_991832" data-name="Path 991832" d="M80.532,227.286a31.13,31.13,0,0,1-1.123,6.451" transform="translate(-73.859 -221.26)" fill="none" stroke="#6e6060" stroke-linecap="round" stroke-linejoin="round" stroke-miterlimit="10" stroke-width="1.299"/>
              <path id="Path_991833" data-name="Path 991833" d="M102.285,222.094a22.464,22.464,0,0,1,.861,7.437" transform="translate(-88.043 -218.041)" fill="none" stroke="#6e6060" stroke-linecap="round" stroke-linejoin="round" stroke-miterlimit="10" stroke-width="1.299"/>
              <path id="Path_991834" data-name="Path 991834" d="M111.333,231.293a17.693,17.693,0,0,0-2.145-5.588" transform="translate(-92.322 -220.279)" fill="none" stroke="#6e6060" stroke-linecap="round" stroke-linejoin="round" stroke-miterlimit="10" stroke-width="1.299"/>
              <g id="Group_1182471" data-name="Group 1182471" transform="translate(1.242 16.044)">
                <path id="Path_991835" data-name="Path 991835" d="M71.677,254.2a2.789,2.789,0,0,0-1.306-.538,1.945,1.945,0,0,0-2.284,1.987,3.118,3.118,0,0,0,2.251,3.394,1.927,1.927,0,0,0,1.429-.071A32.9,32.9,0,0,0,71.677,254.2Z" transform="translate(-68.074 -253.647)" fill="#ffb9b6"/>
                <path id="Path_991836" data-name="Path 991836" d="M74.533,265.754a1.005,1.005,0,1,1-.825-1.157A1.005,1.005,0,0,1,74.533,265.754Z" transform="translate(-70.84 -260.428)" fill="#fbaf00"/>
                <path id="Path_991837" data-name="Path 991837" d="M72.573,257.348a1.253,1.253,0,0,0-1.886.062" transform="translate(-69.694 -255.695)" fill="none" stroke="#463d3d" stroke-linecap="round" stroke-linejoin="round" stroke-miterlimit="10" stroke-width="1.096"/>
              </g>
              <g id="Group_1182475" data-name="Group 1182475" transform="translate(8.735 13.938)">
                <path id="Path_991838" data-name="Path 991838" d="M88.678,261.357c.029.306.671.5,1.437.426s1.362-.377,1.334-.682-.671-.5-1.437-.426S88.65,261.052,88.678,261.357Z" transform="translate(-88.341 -255.89)" fill="#ff9494"/>
                <path id="Path_991839" data-name="Path 991839" d="M104.377,260.895c0,.242.52.437,1.161.435s1.159-.2,1.159-.442-.52-.437-1.161-.435S104.376,260.653,104.377,260.895Z" transform="translate(-98.075 -255.761)" fill="#ff9494"/>
                <path id="Path_991840" data-name="Path 991840" d="M93.243,255.109c-.029.334-.229.591-.448.572s-.374-.3-.346-.64.229-.591.448-.572S93.271,254.775,93.243,255.109Z" transform="translate(-90.677 -252.051)" fill="#463d3d"/>
                <path id="Path_991841" data-name="Path 991841" d="M106.282,255.109c-.028.334-.229.591-.448.572s-.374-.3-.346-.64.229-.591.448-.572S106.31,254.775,106.282,255.109Z" transform="translate(-98.761 -252.051)" fill="#463d3d"/>
                <g id="Group_1182472" data-name="Group 1182472" transform="translate(4.449 4.767)">
                  <path id="Path_991842" data-name="Path 991842" d="M99.725,260.724a1.342,1.342,0,0,0,.352.59,2.045,2.045,0,0,0,.291.193.765.765,0,0,1,.359.36.706.706,0,0,1-.017.531,1.02,1.02,0,0,1-.277.383.97.97,0,0,1-.853.226.106.106,0,0,1,.014-.207h0a.882.882,0,0,0,.576-.288.567.567,0,0,0,.173-.493c-.007-.1-.326-.222-.523-.454a1.256,1.256,0,0,1-.3-.806.105.105,0,0,1,.2-.038Z" transform="translate(-99.499 -260.652)" fill="#463d3d"/>
                </g>
                <g id="Group_1182473" data-name="Group 1182473" transform="translate(0 0.09)">
                  <path id="Path_991843" data-name="Path 991843" d="M90.581,249.086l-.643-.009a2.5,2.5,0,0,0-.614.061,2.791,2.791,0,0,0-.6.227c-.1.044-.193.113-.3.163s-.191.132-.3.193l-.024.014a.21.21,0,0,1-.276-.3,2.673,2.673,0,0,1,.552-.594,2.44,2.44,0,0,1,.748-.4,2.143,2.143,0,0,1,.863-.085,1.362,1.362,0,0,1,.791.365.212.212,0,0,1-.149.365Z" transform="translate(-87.792 -248.344)" fill="#463d3d"/>
                </g>
                <g id="Group_1182474" data-name="Group 1182474" transform="translate(6.262)">
                  <path id="Path_991844" data-name="Path 991844" d="M104.3,248.577a.924.924,0,0,1,.655-.443,1.99,1.99,0,0,1,.711.011,2.266,2.266,0,0,1,.657.231,1.509,1.509,0,0,1,.536.473.212.212,0,0,1-.279.3l-.018-.01a2.066,2.066,0,0,0-.484-.187,3.205,3.205,0,0,0-.518-.094,3.133,3.133,0,0,0-.508-.01c-.164.006-.3.008-.454.019l-.1.007a.2.2,0,0,1-.218-.189A.2.2,0,0,1,104.3,248.577Z" transform="translate(-104.272 -248.107)" fill="#463d3d"/>
                </g>
                <path id="Path_991845" data-name="Path 991845" d="M95.2,270.137A3.869,3.869,0,0,0,98.023,270s-.06,1.713-1.391,1.676S95.2,270.137,95.2,270.137Z" transform="translate(-92.386 -261.679)" fill="#fff"/>
              </g>
            </g>
            <g id="Group_1182483" data-name="Group 1182483" transform="translate(4.635 76.159)">
              <path id="Path_991846" data-name="Path 991846" d="M27.878,345.89c-3.468-7.184-4.364-14.859-7.891-22.218,1.945-2.347,11.838-9.05,15.91-12.825a17.732,17.732,0,0,0-8.386-7.538c-5.888,4.541-16.913,12.867-15.67,17.723,1.838,7.184,7.922,19.806,11.262,25.248,2.772,4.517,2.123,1.616,3.811,1.737S28.177,346.509,27.878,345.89Z" transform="translate(-11.744 -299.26)" fill="#ffb9b6"/>
              <path id="Path_991847" data-name="Path 991847" d="M27.587,323.153a81.929,81.929,0,0,1,10.726-19.1c2.009-2.6,1.945-5.967-.253-9.369-3.829-5.926-17.394,1.6-24.775,16.336C13.411,315.778,24.183,323.185,27.587,323.153Z" transform="translate(-12.7 -292.654)" fill="#fbaf00"/>
              <path id="Path_991848" data-name="Path 991848" d="M37.409,354.335c2.082,1.249,4.011,2.052,5.135,2.042a80.122,80.122,0,0,1,4.843-10.137Q42.379,350.264,37.409,354.335Z" transform="translate(-27.656 -325.877)" fill="#d18800"/>
              <g id="Group_1182482" data-name="Group 1182482" transform="translate(11.484 44.302)">
                <g id="Group_1182477" data-name="Group 1182477" transform="translate(5.31 0.987)">
                  <path id="Path_991849" data-name="Path 991849" d="M56.645,412.062a1.353,1.353,0,0,1,.234-.1c.062-.022.107-.033.161-.048a2.36,2.36,0,0,1,.3-.057,2.53,2.53,0,0,1,.562,0,2.49,2.49,0,0,1,.957.3,3.1,3.1,0,0,1,1.108,1.083,6.549,6.549,0,0,1,.774,2.231.493.493,0,0,1-.867.4l-.021-.027a8.248,8.248,0,0,0-.648-.741,3.413,3.413,0,0,0-.685-.539.7.7,0,0,0-.543-.111.08.08,0,0,0-.046.11.119.119,0,0,0,.052.054.117.117,0,0,0,.054.016.135.135,0,0,0,.042,0,.284.284,0,0,0,.119-.047,1.482,1.482,0,0,1-1.555-2.524Z" transform="translate(-55.94 -411.836)" fill="#ffb9b6"/>
                </g>
                <g id="Group_1182478" data-name="Group 1182478" transform="translate(8.647 3.9)">
                  <path id="Path_991850" data-name="Path 991850" d="M66.018,421.684c.159.12.318.24.475.348a3.408,3.408,0,0,0,.422.257l.035.018a.007.007,0,0,1,0,0l0,0a.353.353,0,0,0-.043-.006.22.22,0,0,0-.048,0l-.023,0a.523.523,0,0,0-.075.01.643.643,0,0,0-.3.177.625.625,0,0,0-.112.17.423.423,0,0,0-.041.116.523.523,0,0,0-.01.126.2.2,0,0,0,.006.031v0a1.67,1.67,0,0,0-.154-.389,11.515,11.515,0,0,0-.6-1.029c-.222-.343-.459-.69-.7-1.019l0-.007a.631.631,0,0,1,1-.77c.28.34.544.675.806,1.026a12.8,12.8,0,0,1,.755,1.112,2.907,2.907,0,0,1,.341.774l.017.074c.005.03.009.073.012.11a.848.848,0,0,1-.017.283,1.15,1.15,0,0,1-.061.193.88.88,0,0,1-.16.231.838.838,0,0,1-.435.25A1.1,1.1,0,0,1,67,423.8l-.063,0c-.042,0-.084,0-.127,0s-.089-.006-.121-.012l-.075-.017-.149-.039c-.044-.014-.074-.027-.112-.041a4.555,4.555,0,0,1-.691-.347c-.2-.119-.388-.241-.575-.363a.8.8,0,1,1,.879-1.342l.042.03Z" transform="translate(-64.722 -419.501)" fill="#ffb9b6"/>
                </g>
                <g id="Group_1182479" data-name="Group 1182479" transform="translate(7.752 5.601)">
                  <path id="Path_991851" data-name="Path 991851" d="M63.8,425.716a5.141,5.141,0,0,0,.57.624c.035.032.068.049.029.037a.17.17,0,0,0-.053-.01.47.47,0,0,0-.143,0,.655.655,0,0,0-.213.066.615.615,0,0,0-.173.142c-.138.2-.082.215-.09.19a.7.7,0,0,0,0-.136,5.293,5.293,0,0,0-.15-.881c-.074-.309-.166-.633-.261-.933l0-.013a.631.631,0,0,1,1.185-.43c.139.337.26.66.374,1a6.576,6.576,0,0,1,.281,1.108,2.232,2.232,0,0,1,.021.372,1.267,1.267,0,0,1-.035.264.793.793,0,0,1-.06.18.833.833,0,0,1-.137.225.853.853,0,0,1-.271.221.885.885,0,0,1-.334.1,1.1,1.1,0,0,1-.269-.01,1.76,1.76,0,0,1-.175-.047,1.732,1.732,0,0,1-.412-.215,6.1,6.1,0,0,1-.887-.8.8.8,0,0,1,1.144-1.126c.019.019.036.038.052.059Z" transform="translate(-62.367 -423.977)" fill="#ffb9b6"/>
                </g>
                <g id="Group_1182480" data-name="Group 1182480" transform="translate(6.334 6.424)">
                  <path id="Path_991852" data-name="Path 991852" d="M59.865,428.559c.059.035.128.041.024.048a.161.161,0,0,0-.044.012.327.327,0,0,0-.072.023.489.489,0,0,0-.144.1.347.347,0,0,0-.11.178c0,.044.02-.04.015-.126a2.124,2.124,0,0,0-.035-.316,6.113,6.113,0,0,0-.18-.725c-.074-.245-.165-.5-.254-.733L59.059,427a.631.631,0,0,1,1.149-.516c.14.273.259.528.375.8a7.528,7.528,0,0,1,.31.86,3.594,3.594,0,0,1,.109.5,1.756,1.756,0,0,1-.027.7,1.129,1.129,0,0,1-.312.534,1.088,1.088,0,0,1-.321.2,1.349,1.349,0,0,1-.17.056c-.048.009-.1.017-.147.022a1.754,1.754,0,0,1-.779-.124l-.045-.014a.81.81,0,1,1,.489-1.544A.794.794,0,0,1,59.865,428.559Z" transform="translate(-58.635 -426.143)" fill="#ffb9b6"/>
                </g>
                <g id="Group_1182481" data-name="Group 1182481" transform="translate(2.78 7.594)">
                  <path id="Path_991853" data-name="Path 991853" d="M53.31,429.936a5.944,5.944,0,0,1,.04,1.444l-.036.217c-.018.078-.044.163-.07.243a1.957,1.957,0,0,1-.126.273,1.391,1.391,0,0,1-.24.294,1.167,1.167,0,0,1-.768.294,1.539,1.539,0,0,1-.562-.116,2.985,2.985,0,0,1-.7-.409,6.414,6.414,0,0,1-.527-.453,10.9,10.9,0,0,1-.9-.977.631.631,0,0,1,.946-.833l.014.016a9.749,9.749,0,0,0,.836.791,2.918,2.918,0,0,0,.818.521c.051.021.066,0,.042.007a.3.3,0,0,0-.2.075c-.1.116-.029.029-.037-.105a4.693,4.693,0,0,0-.113-1.024l0-.014a.8.8,0,0,1,1.575-.309A.527.527,0,0,1,53.31,429.936Z" transform="translate(-49.283 -429.223)" fill="#ffb9b6"/>
                </g>
                <path id="Path_991854" data-name="Path 991854" d="M44.363,418.093l-1.233-2.2a8.417,8.417,0,0,1-1.163-3.827c-.028-1.018.709-1.425,1.522-1.755l.405-.269c1.394-.566,2.93-1.745,5.727.572,0,0,1.485,1.643.932,1.765-.573.127-.4.378-.1,1.2a4.788,4.788,0,0,0,2.155,2.826l-4.259,3.153A3.348,3.348,0,0,1,44.363,418.093Z" transform="translate(-41.966 -409.238)" fill="#ffb9b6"/>
              </g>
            </g>
          </g>
        </g>
      </g>
    </g>
  </g>
</svg>
