<svg id="img8" xmlns="http://www.w3.org/2000/svg" xmlns:xlink="http://www.w3.org/1999/xlink" width="209.574" height="148.895" viewBox="0 0 209.574 148.895">
  <defs>
    <clipPath id="clip-path">
      <rect id="Rectangle_454726" data-name="Rectangle 454726" width="209.574" height="148.895" fill="none"/>
    </clipPath>
  </defs>
  <g id="Group_1182498" data-name="Group 1182498" clip-path="url(#clip-path)">
    <path id="Path_991888" data-name="Path 991888" d="M356.432,229.614a75.048,75.048,0,0,1-8.184,34.192q-.848,1.668-1.783,3.292H215.641q-.932-1.623-1.783-3.292a75.048,75.048,0,0,1-8.184-34.192,75.379,75.379,0,0,1,150.758,0" transform="translate(-157.623 -118.202)" fill="#cbe6f1"/>
    <path id="Path_991889" data-name="Path 991889" d="M132.987,118.876A28.778,28.778,0,1,1,104.208,90.1a28.778,28.778,0,0,1,28.778,28.778" transform="translate(-57.807 -69.049)" fill="#cbe6f1"/>
    <path id="Path_991890" data-name="Path 991890" d="M243.843,83.895a13.949,13.949,0,1,1-13.949-13.949,13.949,13.949,0,0,1,13.949,13.949" transform="translate(-165.495 -53.605)" fill="#cbe6f1"/>
    <path id="Path_991891" data-name="Path 991891" d="M594.939,71.79H531.382a8.176,8.176,0,0,1-8.176-8.176v-40.8a8.176,8.176,0,0,1,8.176-8.176h63.557a8.176,8.176,0,0,1,8.176,8.176v40.8a8.176,8.176,0,0,1-8.176,8.176" transform="translate(-400.97 -11.22)" fill="#9fcddd"/>
    <path id="Path_991892" data-name="Path 991892" d="M617.565,57.148H554.008a8.176,8.176,0,0,1-8.176-8.176V8.175A8.176,8.176,0,0,1,554.008,0h63.556a8.176,8.176,0,0,1,8.176,8.176v40.8a8.176,8.176,0,0,1-8.176,8.176" transform="translate(-418.31 0.001)" fill="#99eafd"/>
    <path id="Path_991893" data-name="Path 991893" d="M656.3,57.978a3.321,3.321,0,1,1-3.321-3.321,3.321,3.321,0,0,1,3.321,3.321" transform="translate(-497.879 -41.888)" fill="#135c91"/>
    <rect id="Rectangle_454712" data-name="Rectangle 454712" width="2.143" height="14.525" transform="translate(153.214 18.824)" fill="#135c91"/>
    <rect id="Rectangle_454713" data-name="Rectangle 454713" width="13.119" height="2.326" transform="translate(153.214 31.022)" fill="#135c91"/>
    <rect id="Rectangle_454714" data-name="Rectangle 454714" width="2.326" height="10.173" transform="matrix(0.888, -0.461, 0.461, 0.888, 164.272, 32.094)" fill="#135c91"/>
    <path id="Path_991894" data-name="Path 991894" d="M668.381,103.137h-6.857a1.133,1.133,0,1,1,0-2.267h6.857a1.133,1.133,0,0,1,0,2.267" transform="translate(-506.104 -77.304)" fill="#135c91"/>
    <path id="Path_991895" data-name="Path 991895" d="M726.528,163.2l-3.019,1.743a.944.944,0,0,1-.944-1.635l3.02-1.743a.944.944,0,0,1,.944,1.635" transform="translate(-553.391 -123.723)" fill="#135c91"/>
    <path id="Path_991896" data-name="Path 991896" d="M618.452,109.519c-7.634,0-13.845-6.479-13.845-14.443a14.7,14.7,0,0,1,5.59-11.6,1.519,1.519,0,0,1,1.873,2.391,11.647,11.647,0,0,0-4.426,9.2c0,6.289,4.848,11.406,10.808,11.406a10.371,10.371,0,0,0,6.854-2.582,1.518,1.518,0,0,1,2.017.019h0a1.52,1.52,0,0,1-.022,2.271,13.368,13.368,0,0,1-8.849,3.329" transform="translate(-463.354 -63.735)" fill="#135c91"/>
    <path id="Path_991897" data-name="Path 991897" d="M759.344,70.5a6.325,6.325,0,0,1-.692,2.932v0a2.133,2.133,0,0,1-.273.4l-1.4,1.649-10.336,12.2-10.336-12.2-1.4-1.649a2.147,2.147,0,0,1-.273-.4v0a6.351,6.351,0,1,1,12.008-2.886,6.35,6.35,0,0,1,12.7-.045" transform="translate(-562.474 -49.201)" fill="#fff"/>
    <path id="Path_991898" data-name="Path 991898" d="M43,476.784q-.284-1.153-.493-2.336c-.056-.318-.11-.635-.157-.956a39.6,39.6,0,0,1,38.817-45.644c.1,0,.2,0,.3,0a39.6,39.6,0,0,1,39.116,45.646c-.047.32-.1.638-.157.956q-.21,1.181-.493,2.336Z" transform="translate(-32.099 -327.889)" fill="#cbe6f1"/>
    <path id="Path_991899" data-name="Path 991899" d="M105.04,232.117a3.772,3.772,0,1,1,3.772-3.772,3.776,3.776,0,0,1-3.772,3.772m0-7.2a3.432,3.432,0,1,0,3.432,3.432,3.436,3.436,0,0,0-3.432-3.432" transform="translate(-77.609 -172.106)" fill="#8ebbce"/>
    <rect id="Rectangle_454715" data-name="Rectangle 454715" width="7.199" height="0.34" transform="translate(24.058 57.496) rotate(-20.939)" fill="#8ebbce"/>
    <path id="Path_991900" data-name="Path 991900" d="M736.252,372.946a3.772,3.772,0,1,1,3.772-3.772,3.776,3.776,0,0,1-3.772,3.772m0-7.2a3.432,3.432,0,1,0,3.432,3.432,3.436,3.436,0,0,0-3.432-3.432" transform="translate(-561.352 -280.034)" fill="#8ebbce"/>
    <rect id="Rectangle_454716" data-name="Rectangle 454716" width="7.199" height="0.34" transform="translate(171.527 90.398) rotate(-20.939)" fill="#8ebbce"/>
    <path id="Path_991901" data-name="Path 991901" d="M433.268,183.837h-4.055v-1.616h-1.621v-4.056h1.621v-1.625h4.055v1.625h1.621v4.056h-1.621Zm-3.766-.289h3.477v-1.616h1.62v-3.478h-1.62V176.83H429.5v1.624h-1.621v3.478H429.5Z" transform="translate(-327.694 -135.296)" fill="#8ebbce"/>
    <path id="Path_991902" data-name="Path 991902" d="M184.892,109.036a3.758,3.758,0,0,0-3.61,4.8l-1.368,2.37h3.2v-.1a3.758,3.758,0,1,0,1.781-7.067m0,7.226a3.447,3.447,0,0,1-1.514-.349h-.3l0,0h-2.661l1.181-2.045-.019-.06a3.469,3.469,0,1,1,3.316,2.45" transform="translate(-137.881 -83.562)" fill="#8ebbce"/>
    <path id="Path_991903" data-name="Path 991903" d="M193.475,139.318h.246l-.278-.127Z" transform="translate(-148.249 -106.672)" fill="#8ebbce"/>
    <path id="Path_991904" data-name="Path 991904" d="M192.388,124.177a.578.578,0,1,1-.578-.578.578.578,0,0,1,.578.578" transform="translate(-146.555 -94.723)" fill="#8ebbce"/>
    <path id="Path_991905" data-name="Path 991905" d="M200.716,124.177a.578.578,0,1,1-.578-.578.578.578,0,0,1,.578.578" transform="translate(-152.937 -94.723)" fill="#8ebbce"/>
    <path id="Path_991906" data-name="Path 991906" d="M208.293,124.177a.578.578,0,1,1-.578-.578.578.578,0,0,1,.578.578" transform="translate(-158.744 -94.723)" fill="#8ebbce"/>
    <path id="Path_991907" data-name="Path 991907" d="M195.068,215.114V217h-.81v.808h-1.883V217h-.81v-1.884h.81V214.3h1.883v.812Z" transform="translate(-146.81 -164.235)" fill="#8ebbce"/>
    <path id="Path_991908" data-name="Path 991908" d="M190.212,209.633h-7.763v-9.877H184.4v.289h-1.659v9.3h7.186v-9.3h-1.658v-.289h1.947Z" transform="translate(-139.824 -153.087)" fill="#8ebbce"/>
    <path id="Path_991909" data-name="Path 991909" d="M194.326,196.634h-4.157v-2.27h.784v.289h-.5v1.692h3.579v-1.692h-.577v-.289h.866Z" transform="translate(-145.74 -148.955)" fill="#8ebbce"/>
    <path id="Path_991910" data-name="Path 991910" d="M195.7,192.149h-2.8v-1.584h2.8Zm-2.508-.289h2.219v-1.006h-2.219Z" transform="translate(-147.835 -146.044)" fill="#8ebbce"/>
    <path id="Path_991911" data-name="Path 991911" d="M713.083,286.631l-2.8-2.637a2.357,2.357,0,0,1,3.229-3.435l2.8,2.637a2.357,2.357,0,0,1-3.229,3.435m.226-5.861a2.068,2.068,0,1,0-2.833,3.014l2.8,2.637a2.068,2.068,0,0,0,2.833-3.014Z" transform="translate(-543.768 -214.524)" fill="#8ebbce"/>
    <rect id="Rectangle_454717" data-name="Rectangle 454717" width="4.269" height="0.289" transform="matrix(0.685, -0.729, 0.729, 0.685, 167.906, 70.585)" fill="#8ebbce"/>
    <path id="Path_991912" data-name="Path 991912" d="M655.349,331.34a1.354,1.354,0,0,1-.849-.3c-1.113-.867-1.309-3.34-1.317-3.445l.288-.022c0,.024.194,2.45,1.207,3.239a1.071,1.071,0,0,0,.886.219l.05.285a1.542,1.542,0,0,1-.264.024" transform="translate(-500.58 -251.043)" fill="#8ebbce"/>
    <path id="Path_991913" data-name="Path 991913" d="M661.939,331.345a1.2,1.2,0,0,1-.236-.024l.057-.283a.8.8,0,0,0,.674-.157c.936-.717,1.112-3.274,1.113-3.3l.288.018c-.007.111-.186,2.714-1.226,3.51a1.083,1.083,0,0,1-.671.236" transform="translate(-507.11 -251.048)" fill="#8ebbce"/>
    <path id="Path_991914" data-name="Path 991914" d="M637.912,348.977l-.274-.093c.384-1.131,1.755-1.055,2.433-.856a2.54,2.54,0,0,0,2.368-.511c1.382-1.332.9-4.493.9-4.524l.285-.045c.021.136.509,3.34-.982,4.777a2.813,2.813,0,0,1-2.631.585l-.013,0c-.069-.02-1.692-.485-2.084.67" transform="translate(-488.668 -262.826)" fill="#8ebbce"/>
    <path id="Path_991915" data-name="Path 991915" d="M633.813,369.457a.891.891,0,1,1,.891-.891.892.892,0,0,1-.891.891m0-1.494a.6.6,0,1,0,.6.6.6.6,0,0,0-.6-.6" transform="translate(-485.053 -281.775)" fill="#8ebbce"/>
    <path id="Path_991916" data-name="Path 991916" d="M762.753,531.456s.268-11.419,9.768-11.82c6.663-.282,9.114-4.412,9.983-6.856a9.168,9.168,0,0,1,3.715-4.739,3.715,3.715,0,0,1,2.627-.716c2.476.535,3.412-3.814,3.412-3.814s4.416,11.776-.335,15.389-5.955,12.556-5.955,12.556Z" transform="translate(-584.552 -385.876)" fill="#6cb4cd"/>
    <path id="Path_991917" data-name="Path 991917" d="M643.385,531.456s-2.81-14.363-13.516-14.764-8.43-13.181-8.43-13.181-10.036,7.293-4.282,17.2,3.078,10.75,3.078,10.75Z" transform="translate(-471.608 -385.876)" fill="#6cb4cd"/>
    <path id="Path_991918" data-name="Path 991918" d="M693.909,483.171s-.357-4.817,2.676-6.958c2.149-1.516.579-5-.52-6.907a6.79,6.79,0,0,1-.807-4.907,6.525,6.525,0,0,1,3.111-4.244c4.461-2.676,5.888-9.1,5.888-9.1s1.249-5.888,13.2-7.672c0,0,2.342-.937,2.676-2.877,0,0,.055.069.147.2a7.535,7.535,0,0,1-1.446,10.228c-2.373,1.915-5.826,5.06-6.931,7.907a13.1,13.1,0,0,0-.738,4.835,16.918,16.918,0,0,0,2.668,8.735c2.168,3.457,5.184,9.228,2.286,10.761Z" transform="translate(-531.782 -337.591)" fill="#a1ccdc"/>
    <path id="Path_991919" data-name="Path 991919" d="M816.079,546.407l-.453-.117a20.414,20.414,0,0,1,8.4-10.753c6.521-4.26,7.735-12.511,7.747-12.594l.463.064c-.012.085-1.252,8.542-7.954,12.92a19.934,19.934,0,0,0-8.2,10.479" transform="translate(-625.072 -400.769)" fill="#a1ccdc"/>
    <path id="Path_991920" data-name="Path 991920" d="M847.066,545.835l-.455-.1c.079-.348,1.973-8.533,4.548-10.633l.3.362c-2.451,2-4.369,10.292-4.388,10.375" transform="translate(-648.819 -410.084)" fill="#a1ccdc"/>
    <path id="Path_991921" data-name="Path 991921" d="M829.833,568.948l-.055-.464c.046-.006,4.668-.59,7.318-3.5a72.037,72.037,0,0,1,5.305-5.238l.306.353a71.738,71.738,0,0,0-5.266,5.2c-2.77,3.04-7.412,3.625-7.608,3.649" transform="translate(-635.918 -428.974)" fill="#a1ccdc"/>
    <path id="Path_991922" data-name="Path 991922" d="M639.787,553.049a33.963,33.963,0,0,0-6.841-11.655c-5.107-5.653-4.306-9.628-4.27-9.794l.456.1c-.008.038-.768,3.925,4.16,9.381a34.459,34.459,0,0,1,6.942,11.835Z" transform="translate(-481.749 -407.403)" fill="#a1ccdc"/>
    <path id="Path_991923" data-name="Path 991923" d="M667.7,580.06c-.057-.109-.038-.211.054-.705a20.364,20.364,0,0,0,.286-6.318l.464-.057a20.8,20.8,0,0,1-.29,6.461c-.039.208-.078.423-.078.474a.174.174,0,0,0-.022-.073Z" transform="translate(-511.682 -439.115)" fill="#a1ccdc"/>
    <path id="Path_991924" data-name="Path 991924" d="M630.6,558.513c-.287-.089-7.032-2.225-6.894-6.634l.467.014c-.127,4.054,6.5,6.153,6.565,6.173Z" transform="translate(-477.991 -422.944)" fill="#a1ccdc"/>
    <path id="Path_991925" data-name="Path 991925" d="M715.9,462.406l-.461-.081c.375-2.129-1.126-5.89-4.226-10.591-.1-.153-.211-.324-.32-.507a19.417,19.417,0,0,1-3.036-9.953,15.014,15.014,0,0,1,.934-5.814,16.649,16.649,0,0,1,3.661-5.055c.564-.58,1.152-1.141,1.746-1.667.969-.88,2.044-1.773,3.283-2.73a8.4,8.4,0,0,0,1.858-11.627c-.7,2.07-3.231,3.055-3.346,3.1l-.05.013c-14.486,2.06-16.194,8.83-16.209,8.9s-1.859,7.737-7.429,10.917a7.38,7.38,0,0,0-2.778,10.5c.324.531.615,1.062.865,1.575,1.615,3.307,1.516,5.7-.29,6.91-2.227,1.495-2.946,4.139-3.158,6.094l-.465-.05c.222-2.054.985-4.837,3.362-6.432,2-1.345,1.175-4.178.13-6.318-.244-.5-.527-1.017-.844-1.537a7.847,7.847,0,0,1,2.945-11.152c5.39-3.077,7.188-10.54,7.205-10.615.064-.289,1.754-7.137,16.572-9.252.267-.108,2.787-1.182,3.153-3.215l.083-.458.318.34a2.774,2.774,0,0,1,.2.253,8.861,8.861,0,0,1-1.839,12.424c-1.228.949-2.293,1.835-3.256,2.708-.589.521-1.168,1.074-1.724,1.646a16.206,16.206,0,0,0-3.562,4.9,14.553,14.553,0,0,0-.9,5.632,18.954,18.954,0,0,0,2.968,9.717q.16.269.31.49c2.241,3.4,4.8,8.051,4.3,10.931" transform="translate(-526.1 -316.787)" fill="#6cb4cd"/>
    <path id="Path_991926" data-name="Path 991926" d="M726.962,502.86c-.055-.12-5.473-12.043.694-20.354a191.007,191.007,0,0,0,10.824-16.437l.405.233a191.579,191.579,0,0,1-10.854,16.482c-6,8.087-.7,19.762-.645,19.879Z" transform="translate(-555.396 -357.182)" fill="#6cb4cd"/>
    <path id="Path_991927" data-name="Path 991927" d="M734.731,501.275l-.464-.052c.008-.072.834-7.286,3.143-12.172l.422.2c-2.276,4.814-3.093,11.952-3.1,12.024" transform="translate(-562.72 -374.795)" fill="#6cb4cd"/>
    <path id="Path_991928" data-name="Path 991928" d="M728.564,556.049l-.4-.234c.054-.094,5.433-9.463,6.055-14.672l.464.055c-.634,5.3-5.891,14.463-6.115,14.851" transform="translate(-558.04 -414.717)" fill="#6cb4cd"/>
    <path id="Path_991929" data-name="Path 991929" d="M31.373,531.558s-.268-11.419-9.768-11.82c-6.663-.282-9.114-4.413-9.983-6.856a9.168,9.168,0,0,0-3.715-4.739,3.716,3.716,0,0,0-2.627-.716c-2.476.535-3.412-3.814-3.412-3.814S-2.549,515.389,2.2,519s5.955,12.556,5.955,12.556Z" transform="translate(0 -385.955)" fill="#a1ccdc"/>
    <path id="Path_991930" data-name="Path 991930" d="M112.034,483.273s.357-4.817-2.676-6.958c-2.149-1.517-.579-5,.52-6.907a6.789,6.789,0,0,0,.807-4.907,6.525,6.525,0,0,0-3.111-4.244c-4.461-2.676-5.888-9.1-5.888-9.1s-1.249-5.888-13.2-7.672c0,0-2.342-.937-2.676-2.877,0,0-.055.069-.147.2A7.535,7.535,0,0,0,87.1,451.034c2.373,1.915,5.826,5.06,6.931,7.907a13.106,13.106,0,0,1,.738,4.835,16.92,16.92,0,0,1-2.668,8.735c-2.168,3.457-5.184,9.228-2.286,10.761Z" transform="translate(-64.586 -337.669)" fill="#6cb4cd"/>
    <path id="Path_991931" data-name="Path 991931" d="M26.494,546.508a19.934,19.934,0,0,0-8.2-10.479c-6.7-4.379-7.942-12.836-7.954-12.92l.463-.064c.011.083,1.226,8.333,7.747,12.594a20.414,20.414,0,0,1,8.4,10.753Z" transform="translate(-7.926 -400.846)" fill="#6cb4cd"/>
    <path id="Path_991932" data-name="Path 991932" d="M34.086,545.937c-.019-.083-1.937-8.376-4.388-10.375l.3-.362c2.575,2.1,4.469,10.285,4.549,10.633Z" transform="translate(-22.76 -410.162)" fill="#6cb4cd"/>
    <path id="Path_991933" data-name="Path 991933" d="M24.793,569.049c-.2-.023-4.838-.608-7.608-3.649a71.607,71.607,0,0,0-5.266-5.2l.307-.353a72.12,72.12,0,0,1,5.305,5.238c2.651,2.91,7.272,3.494,7.318,3.5Z" transform="translate(-9.134 -429.052)" fill="#6cb4cd"/>
    <path id="Path_991934" data-name="Path 991934" d="M66.691,462.505c-.507-2.88,2.057-7.533,4.3-10.929.1-.149.2-.308.309-.489a18.957,18.957,0,0,0,2.97-9.722,14.555,14.555,0,0,0-.9-5.633,16.206,16.206,0,0,0-3.561-4.9c-.558-.574-1.137-1.127-1.723-1.645-.963-.874-2.029-1.76-3.259-2.711a8.861,8.861,0,0,1-1.836-12.426,2.83,2.83,0,0,1,.2-.25l.318-.34.083.458c.367,2.033,2.886,3.107,3.153,3.215,14.818,2.115,16.508,8.964,16.572,9.254.017.073,1.814,7.536,7.2,10.613a7.846,7.846,0,0,1,2.946,11.152c-.317.52-.6,1.038-.844,1.538-1.045,2.14-1.871,4.973.13,6.318,2.377,1.6,3.14,4.378,3.362,6.432l-.464.05c-.211-1.955-.931-4.6-3.158-6.094-1.805-1.214-1.905-3.6-.289-6.911.25-.514.541-1.044.865-1.576a7.38,7.38,0,0,0-2.778-10.5c-5.569-3.179-7.41-10.838-7.428-10.915s-1.724-6.839-16.21-8.9l-.05-.013c-.115-.044-2.648-1.029-3.346-3.1a8.4,8.4,0,0,0,1.858,11.626c1.24.958,2.315,1.852,3.285,2.733.592.524,1.18,1.085,1.745,1.666a16.65,16.65,0,0,1,3.66,5.054,15.014,15.014,0,0,1,.934,5.815,19.417,19.417,0,0,1-3.038,9.958c-.109.184-.215.351-.319.505-3.1,4.7-4.6,8.459-4.224,10.589Z" transform="translate(-46.917 -316.863)" fill="#a1ccdc"/>
    <path id="Path_991935" data-name="Path 991935" d="M123.578,502.961l-.424-.2c.054-.117,5.355-11.792-.645-19.88A191.683,191.683,0,0,1,111.655,466.4l.405-.233a191.04,191.04,0,0,0,10.824,16.437c6.167,8.312.749,20.235.693,20.354" transform="translate(-85.569 -357.259)" fill="#a1ccdc"/>
    <path id="Path_991936" data-name="Path 991936" d="M150.613,501.376c-.008-.072-.826-7.21-3.1-12.024l.422-.2c2.309,4.885,3.135,12.1,3.143,12.172Z" transform="translate(-113.049 -374.872)" fill="#a1ccdc"/>
    <path id="Path_991937" data-name="Path 991937" d="M147.092,556.15c-.224-.387-5.481-9.546-6.115-14.851l.464-.055c.622,5.209,6,14.579,6.055,14.673Z" transform="translate(-108.041 -414.794)" fill="#a1ccdc"/>
    <path id="Path_991938" data-name="Path 991938" d="M219.717,626.518H19.294a3.294,3.294,0,0,1,3.292-3.292H216.425a3.292,3.292,0,0,1,3.292,3.292" transform="translate(-14.786 -477.623)" fill="#206ba5"/>
    <path id="Path_991939" data-name="Path 991939" d="M331.251,228.246s-21.1-2.665-21.372-14.39l6.187-8.473,3.926,4.065.554,2.555a5.03,5.03,0,0,0,3.41,3.732l10.621,3.33Z" transform="translate(-237.482 -157.399)" fill="#fff"/>
    <path id="Path_991940" data-name="Path 991940" d="M330.94,193.683h-7.689l-3.535-13.818-.828-3.238a10.286,10.286,0,0,1,2.663,1.4h0c.38.341.786.724,1.21,1.153.148.148.3.306.454.469h0a32.406,32.406,0,0,1,7.719,14.034" transform="translate(-244.387 -135.362)" fill="#1b7cc0"/>
    <path id="Path_991941" data-name="Path 991941" d="M176.267,585.106l-22.091-7.589a10.745,10.745,0,0,1,.641-1.133c.032-.048.064-.1.1-.149a8.455,8.455,0,0,1,4.442-3.647,9.955,9.955,0,0,1,8.2,1.826s.38.224.993.618c.036.025.075.048.111.073.114.076.237.158.365.246.262.172.551.367.853.58a3.362,3.362,0,0,0,.2.506,6.727,6.727,0,0,0,.324.6,8.2,8.2,0,0,0,.731,1.007c.163.187.341.381.542.579a10.857,10.857,0,0,0,2.8,1.948,3.88,3.88,0,0,1,2.052,2.34,2.954,2.954,0,0,1,.132.794c0,.062,0,.122,0,.183a2.31,2.31,0,0,1-.4,1.217" transform="translate(-118.156 -438.631)" fill="#f8db66"/>
    <path id="Path_991942" data-name="Path 991942" d="M219.617,597.314a3.419,3.419,0,0,0-2.359.666.3.3,0,1,1-.454-.392,3.373,3.373,0,0,1,2.273-.851c.161.187.34.38.541.578" transform="translate(-166.093 -457.321)" fill="#fff"/>
    <path id="Path_991943" data-name="Path 991943" d="M212.355,590.447c-.943-.017-2.377.108-2.89.786a.3.3,0,0,1-.36.1l0,0a.3.3,0,0,1-.135-.44c.625-.853,2.089-1.031,3.067-1.051a6.46,6.46,0,0,0,.323.6" transform="translate(-160.105 -452.04)" fill="#fff"/>
    <path id="Path_991944" data-name="Path 991944" d="M204.558,584.46c-.778-.078-2.808-.073-3.438.762a.3.3,0,0,1-.359.1h0a.3.3,0,0,1-.12-.465c.737-.975,2.576-1.052,3.474-1.028q.22.139.477.316Z" transform="translate(-153.714 -447.429)" fill="#fff"/>
    <path id="Path_991945" data-name="Path 991945" d="M342.53,598.123H319.174a10.164,10.164,0,0,1,.2-1.126c.012-.056.026-.114.04-.173a8.578,8.578,0,0,1,3.053-5.046,9.954,9.954,0,0,1,8.352-.939s.435.089,1.142.262c.042.009.082.021.126.033s.089.026.136.037h0c.091.023.187.047.287.077.306.077.64.168,1,.271a3.365,3.365,0,0,0,.353.414c.065.068.138.14.222.217s.175.159.28.248a8.013,8.013,0,0,0,1.019.715c.215.126.446.25.7.371a10.874,10.874,0,0,0,3.283.932,3.876,3.876,0,0,1,2.7,1.547,2.944,2.944,0,0,1,.437.862c.016.058.033.115.044.173a2.276,2.276,0,0,1-.021,1.126" transform="translate(-244.606 -452.44)" fill="#f8db66"/>
    <path id="Path_991946" data-name="Path 991946" d="M383.049,602.488a3.419,3.419,0,0,0-2.015,1.4.3.3,0,1,1-.557-.223,3.372,3.372,0,0,1,1.872-1.544c.214.125.445.249.7.371" transform="translate(-291.569 -461.445)" fill="#fff"/>
    <path id="Path_991947" data-name="Path 991947" d="M374.123,597.532c-.9.29-2.213.875-2.478,1.682a.3.3,0,0,1-.307.215h0a.3.3,0,0,1-.271-.372c.314-1.01,1.641-1.654,2.559-1.991a6.359,6.359,0,0,0,.5.466" transform="translate(-284.363 -457.574)" fill="#fff"/>
    <path id="Path_991948" data-name="Path 991948" d="M364.806,593.967c-.761.179-2.679.843-3,1.838a.3.3,0,0,1-.306.215h0a.3.3,0,0,1-.264-.4c.381-1.162,2.094-1.832,2.952-2.1q.253.06.554.144Z" transform="translate(-276.823 -454.855)" fill="#fff"/>
    <path id="Path_991949" data-name="Path 991949" d="M298.367,387.8c-2.239-.952-14.3,2.692-16.006,2.778-.765.039-1.05-1.3-1.13-2.778l-1.005-7.321-5.189-43.158s-2.672-2.236-2.838.252V324.341h15.265l7.416,48.575v.006l1.352,5.453c1.37,3.5,3.792,10.126,2.135,9.42" transform="translate(-208.606 -248.566)" fill="#17527c"/>
    <path id="Path_991950" data-name="Path 991950" d="M176.664,597.129a2.312,2.312,0,0,1-.4,1.217l-22.091-7.589a10.725,10.725,0,0,1,.641-1.133Z" transform="translate(-118.155 -451.87)" fill="#fff"/>
    <path id="Path_991951" data-name="Path 991951" d="M342.53,619.87H319.174a10.162,10.162,0,0,1,.2-1.126h23.174a2.276,2.276,0,0,1-.021,1.126" transform="translate(-244.606 -474.188)" fill="#fff"/>
    <path id="Path_991952" data-name="Path 991952" d="M198.061,319.254l-1.266,3.8L195.68,326.4l0,.007-3.406,7.939c-4.353,9.137-16.9,46.985-16.9,46.985a2,2,0,0,1-1.556,1.322c-.628-.25-1.271-.479-1.909-.689a66.84,66.84,0,0,0-14.754-2.869s.086-.082.236-.22c-.533-.257-.708-.829-.465-1.855.374-1.586,9.443-21.555,16.779-37.577a.018.018,0,0,1,0-.007c.107-.407,4.983-20.186,4.983-20.186Z" transform="translate(-120.181 -244.667)" fill="#1a68a6"/>
    <path id="Path_991953" data-name="Path 991953" d="M268.414,216.2H240.252s.589-4.168,1.357-9.544c.484-3.395,1.04-7.273,1.561-10.887.213-1.479.421-2.916.617-4.254a0,0,0,0,1,0,0,.137.137,0,0,1,0-.033c.292-2.012.556-3.806.766-5.212.175-1.161.313-2.056.4-2.591a9.481,9.481,0,0,1,1.047-1.019c1.107-.432,2.948-1.035,4.166-1.42.474,0,.965.016,1.481.049,0,0,.143-.019.4-.04a17.612,17.612,0,0,1,6.988.834,10.252,10.252,0,0,1,2.663,1.4h0a8.365,8.365,0,0,1,1.194,1.063l.016.091.086.491,2.437,14.011Z" transform="translate(-184.122 -138.86)" fill="#1b7cc0"/>
    <path id="Path_991954" data-name="Path 991954" d="M294.67,167.175c-3.081-.2-5.3-4.273-5.3-4.273.047-.086.133-.216.231-.356a4.16,4.16,0,0,0,1.227-1.118.071.071,0,0,0,.015-.018,2.366,2.366,0,0,0,.522-1,.256.256,0,0,1,.015-.044c.021-.077.041-.154.056-.231.047-.222.08-.448.1-.661,0-.015,0-.032.006-.047a8.5,8.5,0,0,0,.03-1.005c0-.113-.006-.187-.009-.211v-.006l5.607,3.078s0,0,0,0l.018.012h0a3.438,3.438,0,0,0,.252,1.4s.021.053.053.148a.051.051,0,0,0,0,.015c.042.249.566,3.8-2.841,4.317" transform="translate(-221.768 -121.244)" fill="#ff8262"/>
    <path id="Path_991955" data-name="Path 991955" d="M299.008,158.447s2.182,5.028,4.255,4.584c0,0,.381.2,1.375-1.5Z" transform="translate(-229.151 -121.429)" fill="#dd654e"/>
    <path id="Path_991956" data-name="Path 991956" d="M308.21,118.8a7.347,7.347,0,0,1-.145.932.066.066,0,0,0,0,.012s-.007.194-.033.523c-.016.264-.049.614-.1,1.019-.03.243-.068.507-.115.783-.051.315-.114.647-.192.988s-.168.685-.276,1.028a5.7,5.7,0,0,1-2.14,3.3h0a2.749,2.749,0,0,1-1.5.395,6.121,6.121,0,0,1-4.11-1.542,5.687,5.687,0,0,1-1.222-1.542,2.362,2.362,0,0,1-.124-.257l.012-.171.2-3.257c.507-4.147,5.584-7.446,8.079-6.306,1.715.783,1.794,2.862,1.673,4.091" transform="translate(-228.569 -87.734)" fill="#ff8262"/>
    <path id="Path_991957" data-name="Path 991957" d="M290.242,142.654s-2.095-1.119-2.624.51,2.445,2.387,2.445,2.387Z" transform="translate(-220.374 -109.039)" fill="#ff8262"/>
    <path id="Path_991958" data-name="Path 991958" d="M290.477,109.505s-.1,2.84-1.714,3.237c-1.77.435-2.318-.141-3.065.794,0,0-2.33-8.156,2.462-9.679s11.139.825,11.52,3.618a5.724,5.724,0,0,1-1.777,4.7s.7-5.268-1.079-5.649c0,0-3.522,3.84-6.347,2.983" transform="translate(-218.517 -79.225)" fill="#19253f"/>
    <path id="Path_991959" data-name="Path 991959" d="M316.176,130.374a2.992,2.992,0,0,0-1.247-.02.52.52,0,0,1-.545-.219h0c-.09-.189.068-.394.341-.435a4.207,4.207,0,0,1,1.851.068c.317.108.341.426.055.572a.6.6,0,0,1-.455.036" transform="translate(-240.916 -99.343)" fill="#16213d"/>
    <path id="Path_991960" data-name="Path 991960" d="M336.329,129.04a3.876,3.876,0,0,1-.145.666,4.613,4.613,0,0,0-.786.053.52.52,0,0,1-.546-.22.237.237,0,0,1-.024-.108c0-.152.145-.294.365-.328a5.424,5.424,0,0,1,1.136-.063" transform="translate(-256.603 -98.887)" fill="#16213d"/>
    <path id="Path_991961" data-name="Path 991961" d="M319.4,138.31c0,.406-.242.736-.541.736s-.54-.329-.54-.736.242-.736.54-.736.541.329.541.736" transform="translate(-243.95 -105.433)" fill="#16213d"/>
    <path id="Path_991962" data-name="Path 991962" d="M336.935,138.27c-.015.264-.047.614-.1,1.02a.458.458,0,0,1-.332.157c-.3,0-.54-.332-.54-.738s.24-.735.54-.735a.5.5,0,0,1,.43.3" transform="translate(-257.474 -105.739)" fill="#16213d"/>
    <path id="Path_991963" data-name="Path 991963" d="M327.061,146.422h0a.235.235,0,0,1,.166-.279,1.754,1.754,0,0,0,.458-.185.5.5,0,0,1-.187-.1c-.32-.261-.373-.955-.375-1.347a.233.233,0,0,1,.245-.233h0a.233.233,0,0,1,.221.231,1.765,1.765,0,0,0,.2.987c.01.008.016.013.046.005l.107-.028.089.065a.453.453,0,0,1,.185.448c-.052.258-.322.448-.865.6a.236.236,0,0,1-.293-.171" transform="translate(-250.645 -110.573)" fill="#dd654e"/>
    <path id="Path_991964" data-name="Path 991964" d="M311.864,146.717a1.133,1.133,0,1,1-1.133-1.133,1.133,1.133,0,0,1,1.133,1.133" transform="translate(-237.266 -111.571)" fill="#dd654e"/>
    <path id="Path_991965" data-name="Path 991965" d="M336.189,146.955c-.051.315-.114.647-.192.988s-.168.685-.276,1.028a1.12,1.12,0,0,1-.453-.9,1.132,1.132,0,0,1,.921-1.112" transform="translate(-256.94 -112.622)" fill="#dd654e"/>
    <path id="Path_991966" data-name="Path 991966" d="M320.418,155.585s1.242.835,1.837.612a1.474,1.474,0,0,1-1.628.478.629.629,0,0,1-.209-1.09" transform="translate(-245.372 -119.236)" fill="#fff"/>
    <path id="Path_991967" data-name="Path 991967" d="M254.986,220.982l-.736,6.447a1.817,1.817,0,0,0,2.259,1.966l7.08-1.827,2.786,10.8-11.727,3.025a10.9,10.9,0,0,1-9.205-1.7q-.167-.124-.331-.255a7.518,7.518,0,0,1-2.569-7.414l2.095-9.931Z" transform="translate(-185.751 -169.354)" fill="#fff"/>
    <path id="Path_991968" data-name="Path 991968" d="M257.3,187.727l-.526,4.448-12.289,1.395,1.042-4.315s.3-2.465.956-5.352c0,0,0,0,0,0a11.433,11.433,0,0,1,1.722-2.642,9.478,9.478,0,0,1,1.047-1.019,8.955,8.955,0,0,1,5.717-2.14v-.063c.03.063.061.131.089.2.084.194.166.392.243.6a21.016,21.016,0,0,1,.762,2.4c.119.458.227.916.322,1.367l0,.007a44.748,44.748,0,0,1,.766,5.145Z" transform="translate(-187.369 -136.44)" fill="#1b7cc0"/>
    <path id="Path_991969" data-name="Path 991969" d="M288.554,253.413l-.213.147c-.055.038-.114.08-.175.125-.438.34-.939.858-.866,1.143l-.453.117c-.125-.484.321-1.012.718-1.368-.432.017-.846.107-.912.32l-.446-.141c.182-.583,1.035-.665,1.591-.652.2.006.36.023.44.031l.107.011a1.389,1.389,0,0,0,.209.267" transform="translate(-219.342 -193.97)" fill="#156ba0"/>
    <path id="Path_991970" data-name="Path 991970" d="M304.747,235.67l-.453.117-2.726-10.574-2.934.738-4.231,1.086a2.045,2.045,0,0,1-1.544-.474,1.826,1.826,0,0,1-.136-.133,2.04,2.04,0,0,1-.369-.582,2.445,2.445,0,0,1-.2-.8v-.037l.292-2.7.614-.07-.306-4.7c.159,0,.318,0,.47,0l.332,5.121-.685.077-.25,2.3a2.084,2.084,0,0,0,.28.85,1.4,1.4,0,0,0,.21.266.5.5,0,0,0,.061.061,1.588,1.588,0,0,0,1.182.355l4.166-1.075,3.385-.85Z" transform="translate(-223.897 -166.715)" fill="#156ba0"/>
    <path id="Path_991971" data-name="Path 991971" d="M430.822,282.234l-2.331-4.174H419.9v-1.635h9.547l2.8,5.012Z" transform="translate(-321.803 -211.844)" fill="#17527c"/>
    <path id="Path_991972" data-name="Path 991972" d="M628.6,175.658l-.108-2.474a3.731,3.731,0,0,1,1.04-1.874,24.159,24.159,0,0,0,2.107-2.25l.583-1.919,1.174-1.963a.847.847,0,0,0,.2-.619,16.537,16.537,0,0,1,.547-3.38s.278-.986-.574-.619a2.92,2.92,0,0,0-.923,1.677l-.233-1.542s-.493-.825-.771.108l.027,3.335-.556-2.062s0-.592-.251-.493-.448.475-.385,1.076a19.938,19.938,0,0,1,.251,2.546,11.257,11.257,0,0,1-.583-1.838s-.367-.439-.547.421a17.686,17.686,0,0,1,.206,2.815s-1.685,1.946-1.963,1.569.825-1.757.825-1.757.717-1.56.089-2.179-1.479,1.228-1.479,1.228l-1.636,2.318s-1.278,1.829-.941,2.811a17.229,17.229,0,0,0,.161,1.963,24.709,24.709,0,0,1-.161,3.1s3.089.345,3.9,0" transform="translate(-478.708 -122.894)" fill="#ff8262"/>
    <path id="Path_991973" data-name="Path 991973" d="M543.872,217.4l11.1-1.1,1.2,12.052a10.9,10.9,0,0,1-3.086,8.837c-.1.1-.2.194-.3.289a7.521,7.521,0,0,1-7.718,1.407l-9.5-3.589-9.8-3.2s-6.372-5,.852-8.9l9.436,1.7,6.258,1.713a1.817,1.817,0,0,0,2.287-1.932Z" transform="translate(-400.941 -165.765)" fill="#f85d59"/>
    <path id="Path_991974" data-name="Path 991974" d="M356.779,282.234l-2.331-4.174h-8.587v-1.635h9.547l2.8,5.012Z" transform="translate(-265.058 -211.844)" fill="#17527c"/>
    <path id="Path_991975" data-name="Path 991975" d="M492.175,484.959q-.007-.82-.089-1.621a18.805,18.805,0,0,0-22.9-16.478,18.331,18.331,0,0,0-3.406,1.133,18.8,18.8,0,0,0,13.314,35.11,18.483,18.483,0,0,0,1.967-.757s0,0,0,0a18.72,18.72,0,0,0,3.752-2.248,18.237,18.237,0,0,0,1.6-1.374,18.856,18.856,0,0,0,3.836-5.245,18.385,18.385,0,0,0,.979-2.385c.14-.421.266-.848.374-1.28a18.626,18.626,0,0,0,.577-4.624c0-.077,0-.154,0-.231m-3.68,6.135a16.008,16.008,0,0,1-1.171,2.385,16.2,16.2,0,0,1-2.161,2.857c-.371.392-.764.766-1.171,1.121a16.236,16.236,0,0,1-4.874,2.911,15,15,0,0,1-1.542.5,16.215,16.215,0,0,1-15.831-4.362,16.239,16.239,0,0,1,5.359-26.288,16.219,16.219,0,0,1,15.662,1.741,16.352,16.352,0,0,1,4.135,4.273,16.08,16.08,0,0,1,2.631,7.439c.042.43.065.867.07,1.306,0,.07,0,.143,0,.215a16.083,16.083,0,0,1-.673,4.624q-.189.652-.439,1.28" transform="translate(-348.371 -357.426)" fill="#144563"/>
    <path id="Path_991976" data-name="Path 991976" d="M379.687,297.438h21l12.049,29.329,2.505,3.427v.5l-22.786,1.008Z" transform="translate(-290.982 -227.948)" fill="#63dffb"/>
    <path id="Path_991977" data-name="Path 991977" d="M427.554,434.588h31.614a1.909,1.909,0,0,1,1.909,1.909v.641H425.645V436.5a1.909,1.909,0,0,1,1.909-1.909" transform="translate(-326.202 -333.056)" fill="#63dffb"/>
    <rect id="Rectangle_454718" data-name="Rectangle 454718" width="2.267" height="3.132" transform="translate(144.379 136.054)" fill="#17527c"/>
    <rect id="Rectangle_454719" data-name="Rectangle 454719" width="37.579" height="3.102" transform="translate(97.295 104.082)" fill="#17527c"/>
    <rect id="Rectangle_454720" data-name="Rectangle 454720" width="25.828" height="2.386" transform="translate(133.264 133.668)" fill="#17527c"/>
    <path id="Path_991978" data-name="Path 991978" d="M374.38,473.873a18.853,18.853,0,0,0-13.934-7.455c-.355-.021-.713-.03-1.072-.03s-.72.009-1.075.03a18.82,18.82,0,1,0,16.081,7.455m-1.689,20.587A16.23,16.23,0,1,1,358.3,468.993c.355-.023.713-.035,1.075-.035s.717.012,1.072.035a16.223,16.223,0,0,1,12.245,25.468" transform="translate(-261.005 -357.426)" fill="#144563"/>
    <path id="Path_991979" data-name="Path 991979" d="M561.3,593.374a4.553,4.553,0,1,1-4.553-4.553,4.553,4.553,0,0,1,4.553,4.553" transform="translate(-423.189 -451.256)" fill="#144563"/>
    <path id="Path_991980" data-name="Path 991980" d="M565,598.69a2.933,2.933,0,1,1-2.933-2.933A2.933,2.933,0,0,1,565,598.69" transform="translate(-428.504 -456.571)" fill="#fff"/>
    <path id="Path_991981" data-name="Path 991981" d="M612.454,593.374a4.553,4.553,0,1,1-4.553-4.553,4.553,4.553,0,0,1,4.553,4.553" transform="translate(-462.388 -451.256)" fill="#144563"/>
    <path id="Path_991982" data-name="Path 991982" d="M616.148,598.69a2.933,2.933,0,1,1-2.933-2.933,2.933,2.933,0,0,1,2.933,2.933" transform="translate(-467.703 -456.571)" fill="#fff"/>
    <path id="Path_991983" data-name="Path 991983" d="M661.292,546.7H637.936a10.182,10.182,0,0,1,.2-1.126c.012-.056.026-.114.04-.173a8.578,8.578,0,0,1,3.054-5.046,9.954,9.954,0,0,1,8.352-.939s.435.089,1.142.262c.042.009.082.021.126.033s.089.026.136.037h0c.091.023.187.047.287.077.306.077.64.168,1,.271a3.351,3.351,0,0,0,.353.414c.065.068.138.14.222.217s.175.159.28.248a8.013,8.013,0,0,0,1.019.715c.215.126.446.25.7.371a10.872,10.872,0,0,0,3.282.932,3.875,3.875,0,0,1,2.7,1.547,2.946,2.946,0,0,1,.437.862c.016.058.033.114.044.173a2.275,2.275,0,0,1-.021,1.126" transform="translate(-488.896 -413.031)" fill="#4ccbeb"/>
    <path id="Path_991984" data-name="Path 991984" d="M701.811,551.064a3.419,3.419,0,0,0-2.015,1.4.3.3,0,1,1-.557-.223,3.371,3.371,0,0,1,1.873-1.544c.214.125.445.249.7.371" transform="translate(-535.859 -422.035)" fill="#fff"/>
    <path id="Path_991985" data-name="Path 991985" d="M692.885,546.108c-.9.29-2.213.875-2.478,1.682a.3.3,0,0,1-.307.215h0a.3.3,0,0,1-.271-.372c.314-1.01,1.641-1.654,2.559-1.99a6.432,6.432,0,0,0,.5.466" transform="translate(-528.653 -418.164)" fill="#fff"/>
    <path id="Path_991986" data-name="Path 991986" d="M683.568,542.543c-.761.179-2.679.843-3,1.838a.3.3,0,0,1-.306.215h0a.3.3,0,0,1-.264-.4c.381-1.162,2.094-1.832,2.952-2.1q.253.06.554.144Z" transform="translate(-521.113 -415.445)" fill="#fff"/>
    <path id="Path_991987" data-name="Path 991987" d="M661.292,568.446H637.936a10.18,10.18,0,0,1,.2-1.126h23.174a2.275,2.275,0,0,1-.021,1.126" transform="translate(-488.896 -434.778)" fill="#fff"/>
    <path id="Path_991988" data-name="Path 991988" d="M602.839,546.7H579.481a10.722,10.722,0,0,1,.238-1.28c.014-.056.028-.115.044-.173a8.451,8.451,0,0,1,3.016-4.892,9.954,9.954,0,0,1,8.352-.939s.432.089,1.14.262l.129.033c.133.035.276.073.425.115.3.077.64.168,1,.271a3.358,3.358,0,0,0,.353.414,6.7,6.7,0,0,0,.5.465,8.179,8.179,0,0,0,1.019.715c.215.124.446.25.7.371a10.854,10.854,0,0,0,3.283.932,3.881,3.881,0,0,1,2.7,1.547,2.951,2.951,0,0,1,.383.708c.021.058.042.115.058.173a2.311,2.311,0,0,1,.019,1.28" transform="translate(-444.098 -413.031)" fill="#4ccbeb"/>
    <path id="Path_991989" data-name="Path 991989" d="M643.363,551.061a3.42,3.42,0,0,0-2.015,1.4.3.3,0,1,1-.557-.223,3.37,3.37,0,0,1,1.873-1.543c.214.124.445.249.7.37" transform="translate(-491.066 -422.033)" fill="#fff"/>
    <path id="Path_991990" data-name="Path 991990" d="M634.437,546.1c-.9.29-2.213.875-2.478,1.682a.3.3,0,0,1-.307.215h0a.3.3,0,0,1-.271-.372c.314-1.01,1.641-1.654,2.559-1.991a6.486,6.486,0,0,0,.5.466" transform="translate(-483.86 -418.161)" fill="#fff"/>
    <path id="Path_991991" data-name="Path 991991" d="M625.121,542.539c-.761.179-2.679.843-3,1.838a.3.3,0,0,1-.306.215h0a.3.3,0,0,1-.265-.4c.381-1.162,2.094-1.832,2.952-2.1q.253.06.554.144Z" transform="translate(-476.321 -415.442)" fill="#fff"/>
    <path id="Path_991992" data-name="Path 991992" d="M602.821,566.66a2.311,2.311,0,0,1,.019,1.28H579.481a10.72,10.72,0,0,1,.238-1.28Z" transform="translate(-444.098 -434.272)" fill="#fff"/>
    <path id="Path_991993" data-name="Path 991993" d="M594.325,421.445a4.411,4.411,0,0,1-2.147.213h-.009c-1.514-.065-3.266-.25-3.539.161-.448.673-6.642.3-6.642.3l-5.455-19.683-15.1-13.23.57-4.892s5.131-1,15.247,1.11c5.96,1.245,8.011,3.264,8.693,4.71v0l.079.182.03.072,0,.019a3.216,3.216,0,0,1,.192.79l5.85,24.195v0l.507,2.03s0,0,0,.007c.131.173,2.535,3.4,1.722,4.011" transform="translate(-430.262 -294.345)" fill="#ccb658"/>
    <path id="Path_991994" data-name="Path 991994" d="M495.5,275.987l-11.42,2.661s-7.506,5.329-10.569,2.385c0,0-1.909-27.8,0-34.477s9.663-6.205,9.663-6.205,10.8.061,11.453,3.64,1.133,7.635.717,8.35c-.1.168-.241.425-.4.729l-1.388-.479v3.448c-.119.6.1,18.337,1.946,19.947" transform="translate(-362.235 -184.193)" fill="#f85d59"/>
    <rect id="Rectangle_454721" data-name="Rectangle 454721" width="2.147" height="31.614" transform="translate(97.296 94.061)" fill="#17527c"/>
    <rect id="Rectangle_454722" data-name="Rectangle 454722" width="2.148" height="18.698" transform="translate(123.93 106.978)" fill="#17527c"/>
    <path id="Path_991995" data-name="Path 991995" d="M517.894,397.713v0l-2,16.011v.009l-.178,4.68c.4,1.441.991,4.074.077,4.282a6.781,6.781,0,0,1-2.479,0c-.131-.023-.206-.04-.206-.04s-3.834-.278-7.214-.194a25.472,25.472,0,0,0-3.114.234h-.178c-1.638,0-.329-1.654-.329-1.654l.6-4.166s.285-13.366,1-16.707-9.943-2.441-9.943-2.441c-18.244,1.6-18.288-5.137-18.237-5.9a13.6,13.6,0,0,1,.727-6.609s1.948.012,4.993.07a97.983,97.983,0,0,1,31.3,1.972,20.447,20.447,0,0,1,2.822.671h-.009a4.713,4.713,0,0,1,.827.306s0,0,0,0h0a4.267,4.267,0,0,1,2.273,3.53,15.118,15.118,0,0,1-.741,5.939" transform="translate(-364.431 -294.922)" fill="#f8db66"/>
    <path id="Path_991996" data-name="Path 991996" d="M413.837,383.2h32.569a4.534,4.534,0,0,1,4.534,4.533H409.3a4.533,4.533,0,0,1,4.533-4.533" transform="translate(-313.679 -293.677)" fill="#17527c"/>
    <rect id="Rectangle_454723" data-name="Rectangle 454723" width="2.267" height="44.141" transform="translate(132.131 94.061)" fill="#17527c"/>
    <path id="Path_991997" data-name="Path 991997" d="M517.55,229.607c-3.081-.2-5.3-4.273-5.3-4.273.047-.086.133-.216.231-.356a4.16,4.16,0,0,0,1.227-1.118.073.073,0,0,0,.015-.018,2.371,2.371,0,0,0,.522-1,.273.273,0,0,1,.015-.044c.021-.077.042-.154.057-.231.047-.222.08-.448.1-.661,0-.015,0-.033.006-.047a8.568,8.568,0,0,0,.03-1.005c0-.113-.006-.187-.009-.21v-.006l5.607,3.078s0,0,0,0l.018.012h0a3.435,3.435,0,0,0,.252,1.4s.021.053.053.148a.05.05,0,0,0,0,.015c.042.249.566,3.8-2.841,4.317" transform="translate(-392.577 -169.09)" fill="#ff8262"/>
    <path id="Path_991998" data-name="Path 991998" d="M521.65,220.641s2.182,5.028,4.255,4.584c0,0,.381.2,1.375-1.5Z" transform="translate(-399.778 -169.093)" fill="#dd654e"/>
    <path id="Path_991999" data-name="Path 991999" d="M531.086,181.225c-.026.273-.061.5-.091.671-.028.14-.047.234-.054.264a.038.038,0,0,0,0,.012s0,.147-.021.4c0,.037-.007.079-.009.121-.007.1-.016.217-.028.346-.016.2-.04.425-.07.673-.016.128-.035.262-.056.4-.058.423-.14.888-.25,1.369q-.08.354-.182.715a6.009,6.009,0,0,1-2.234,3.617h0a2.71,2.71,0,0,1-.82.329,2.762,2.762,0,0,1-.4.056s0,0,0,0a2.145,2.145,0,0,1-.276.009,6.133,6.133,0,0,1-4.109-1.542,5.755,5.755,0,0,1-1.222-1.542v0h0c-.084-.159-.124-.255-.124-.255l.014-.171.18-2.939.019-.32a7.626,7.626,0,0,1,2.727-4.687,6.945,6.945,0,0,1,4.252-1.846,2.67,2.67,0,0,1,1.1.229,2.784,2.784,0,0,1,.341.185,3.193,3.193,0,0,1,1.327,2.413c.007.068.014.135.019.2a6.857,6.857,0,0,1-.014,1.287" transform="translate(-399.373 -135.576)" fill="#ff8262"/>
    <path id="Path_992000" data-name="Path 992000" d="M513.123,205.086s-2.095-1.119-2.624.51,2.445,2.387,2.445,2.387Z" transform="translate(-391.184 -156.885)" fill="#ff8262"/>
    <path id="Path_992001" data-name="Path 992001" d="M522.585,170.1a6.524,6.524,0,0,1-1.691,1.425c-.082-1.175-.355-2.3-1.079-2.549a.872.872,0,0,0-.105-.028,13.818,13.818,0,0,1-2.287,1.93,5.075,5.075,0,0,1-4.06,1.054s-.1,2.841-1.712,3.236c-1.771.437-2.318-.14-3.065.794,0,0-1.105-3.869-.229-6.775a4.061,4.061,0,0,1,2.689-2.9,12.51,12.51,0,0,1,8.011.407c1.93.764,3.336,1.941,3.509,3.212.009.068.016.133.021.2" transform="translate(-389.33 -127.066)" fill="#19253f"/>
    <path id="Path_992002" data-name="Path 992002" d="M540.041,195.783a2.993,2.993,0,0,0-1.247-.02.519.519,0,0,1-.545-.22h0c-.09-.189.068-.394.341-.435a4.207,4.207,0,0,1,1.851.068c.317.108.341.426.055.572a.6.6,0,0,1-.455.036" transform="translate(-412.479 -149.471)" fill="#16213d"/>
    <path id="Path_992003" data-name="Path 992003" d="M558.06,195.782a.231.231,0,0,0,.023.107.519.519,0,0,0,.544.22,5.3,5.3,0,0,1,.675-.054c.03-.166.065-.4.091-.67a5.733,5.733,0,0,0-.97.068c-.22.035-.365.178-.365.329" transform="translate(-427.681 -149.737)" fill="#16213d"/>
    <path id="Path_992004" data-name="Path 992004" d="M555.268,172.049a6.525,6.525,0,0,1-1.692,1.425.464.464,0,0,1-.051,0v-.007a5.752,5.752,0,0,0-1.028-2.54,27.3,27.3,0,0,0-1.834-2.579c.369.112.729.21,1.075.292a16.745,16.745,0,0,0,4.271.5,3.152,3.152,0,0,1-.741,2.913" transform="translate(-422.012 -129.016)" fill="#19253f"/>
    <path id="Path_992005" data-name="Path 992005" d="M549.81,178.46a9.457,9.457,0,0,1-4.06-.283l1.68-3.326,3.5,1.273Z" transform="translate(-418.247 -134)" fill="#19253f"/>
    <path id="Path_992006" data-name="Path 992006" d="M539.438,200.767a1.473,1.473,0,0,1,1.381.011.231.231,0,0,0,.29-.07l0,0a.233.233,0,0,0-.079-.347,1.953,1.953,0,0,0-1.82,0,.234.234,0,1,0,.226.409" transform="translate(-413.144 -153.375)" fill="#16213d"/>
    <path id="Path_992007" data-name="Path 992007" d="M558.345,201.721a.226.226,0,0,0,.187.1.263.263,0,0,0,.117-.03,1.346,1.346,0,0,1,.722-.166c.012-.128.021-.243.028-.346,0-.042.007-.084.009-.122a1.876,1.876,0,0,0-.986.224.235.235,0,0,0-.077.343" transform="translate(-427.866 -154.157)" fill="#16213d"/>
    <path id="Path_992008" data-name="Path 992008" d="M523.354,162.993a6.526,6.526,0,0,1-1.691,1.425l-.051-.009-3.42-.638-9.067-1.691c-.759-4.252,2.913-4.039,2.913-4.039a3.862,3.862,0,0,1,6.074,0c2.68-2.983,4.666,0,4.666,0a4.679,4.679,0,0,1,1.318,2.04,3.152,3.152,0,0,1-.741,2.913" transform="translate(-390.099 -119.96)" fill="#19253f"/>
    <path id="Path_992009" data-name="Path 992009" d="M530.724,372.919c-.023.376-.888.509-1.579.1l-.189-.082s.009.21-.395.072a9.7,9.7,0,0,1-1.089-.5s-.143.164-.491.056a5.805,5.805,0,0,0-2.53-.554,3.218,3.218,0,0,0-.755.086l-.007,0s0,0,0,0a.235.235,0,0,0-.091.056l0,0a4.805,4.805,0,0,1-4.761.171c-2.446-1.406-.082,0-.082,0l-.769.341c-.019-.019-.037-.04-.056-.061a11.872,11.872,0,0,0-1.075-.991c-.18-.152-.35-.292-.5-.409-.11-.14-.2-.276-.28-.395l.115-.1,2.306-1.967a2.844,2.844,0,0,0,1.484,1.285,2.411,2.411,0,0,0,.388.1,2.788,2.788,0,0,0,.829.012,11.024,11.024,0,0,0,2.544-.523s.395-.194,1.311.185,4.768,2.381,4.768,2.381.925.346.906.727" transform="translate(-395.504 -282.604)" fill="#ff8262"/>
    <path id="Path_992010" data-name="Path 992010" d="M462.475,271.589l-2.823,6.88-10.067-.744a10.9,10.9,0,0,1-8.488-3.946c-.086-.11-.173-.22-.257-.332a7.521,7.521,0,0,1-.635-7.82l4.511-9.093,3.5-7.953a6.179,6.179,0,0,1,3.326-3.281c1.879-.748,4.357-.641,6.1,3.525l-2.628,9.221-2.325,6.058a1.82,1.82,0,0,0,.96,2.313,20.825,20.825,0,0,1,2.565,1.289Z" transform="translate(-336.744 -187.717)" fill="#f85d59"/>
    <path id="Path_992011" data-name="Path 992011" d="M408.082,263.268a9.555,9.555,0,0,1-2.353-.068l-2.1.2s-2.336.411-2.572.428c-.748.056.778.477.778.477.6-.369,1.913.033,1.913.033.8.734.215,1.1.075,1.04a2.232,2.232,0,0,0-.675.019,13.027,13.027,0,0,1-3.5.023,6.062,6.062,0,0,1-3.079-2.1l-1.895-.4-.327-4.514a14.639,14.639,0,0,0,3.591,1.631s.628-.068,1.362-.154l-.383.9c1.343-.9,4.9-.759,4.9-.759s2.607.086,3.194.593-.29.759-.29.759a7.33,7.33,0,0,0,1.077.421c.57.164.444.388.444.388l.367.042c.86.453-.04.862-.535,1.035" transform="translate(-302.22 -198.037)" fill="#ff8262"/>
    <path id="Path_992012" data-name="Path 992012" d="M395.61,257.944l-2.052,5.663a12.667,12.667,0,0,0-1.456-1.4c-.318-.159-2.068-1.435-2.068-1.435l-.517-4.661Z" transform="translate(-298.515 -196.278)" fill="#fff"/>
    <path id="Path_992013" data-name="Path 992013" d="M552.474,207.523h0a.235.235,0,0,1,.166-.278,1.763,1.763,0,0,0,.458-.185.5.5,0,0,1-.187-.1c-.32-.261-.373-.955-.376-1.347a.233.233,0,0,1,.245-.233h0a.233.233,0,0,1,.221.231,1.765,1.765,0,0,0,.2.987c.009.008.016.013.046.005l.107-.028.089.065a.453.453,0,0,1,.185.448c-.052.258-.322.448-.865.6a.235.235,0,0,1-.293-.171" transform="translate(-423.395 -157.399)" fill="#dd654e"/>
    <path id="Path_992014" data-name="Path 992014" d="M537.277,207.817a1.133,1.133,0,1,1-1.133-1.133,1.133,1.133,0,0,1,1.133,1.133" transform="translate(-410.016 -158.397)" fill="#dd654e"/>
    <path id="Path_992015" data-name="Path 992015" d="M559.162,207.758c-.058.423-.14.888-.25,1.369q-.08.354-.182.715a1.132,1.132,0,0,1,.432-2.084" transform="translate(-427.782 -159.22)" fill="#dd654e"/>
    <path id="Path_992016" data-name="Path 992016" d="M545.137,217.964a4.087,4.087,0,0,0,2.058.378s-1.062.888-1.638.786-.42-1.164-.42-1.164" transform="translate(-417.763 -167.041)" fill="#fff"/>
    <path id="Path_992017" data-name="Path 992017" d="M331.492,263.453l1.312.39s1.4-1.024,2.487-.174a19.462,19.462,0,0,1,2.337,2.33l-.114,3.458s-.467.827-1.056.087l-.432,1.338a1.231,1.231,0,0,1-1-.739l-.267-2.086-.153.29-.406,1.976s-.221.528-.767-.407a2.129,2.129,0,0,1-.011-1.934l-1.323-1.505-.017.17a7.222,7.222,0,0,1,.729,1.526,14.857,14.857,0,0,0,.077,1.76s-.366.248-.707-.28a5.3,5.3,0,0,1-.514-1.583l-.81-.621s-1.293.956-2.718-.788l-1.994-.917s3.173-2.483,4.9-2.29Z" transform="translate(-249.95 -201.81)" fill="#ff8262"/>
    <rect id="Rectangle_454724" data-name="Rectangle 454724" width="0.234" height="4.018" transform="translate(131.202 64.381)" fill="#d85050"/>
    <rect id="Rectangle_454725" data-name="Rectangle 454725" width="0.467" height="4.252" transform="translate(131.085 64.264)" fill="#d85050"/>
    <path id="Path_992018" data-name="Path 992018" d="M613,259.407l0,.117-.467-.014,0-.117a.458.458,0,0,0-.159-.388,2.229,2.229,0,0,0-1.376-.273,3.523,3.523,0,0,1,1.353,1.605.723.723,0,0,1-.107.568l-.068.1-.383-.266.065-.1a.259.259,0,0,0,.035-.208c-.115-.57-1.243-1.4-1.668-1.675l-.509-.325.6-.1c.173-.03,1.7-.264,2.371.322a.926.926,0,0,1,.318.755" transform="translate(-467.27 -197.922)" fill="#d85050"/>
    <path id="Path_992019" data-name="Path 992019" d="M490.682,340.333a1.746,1.746,0,0,1-.3-.189,1.962,1.962,0,0,0,.3.189" transform="translate(-375.812 -260.677)" fill="#d85050"/>
    <path id="Path_992020" data-name="Path 992020" d="M498.828,297.682l-2.965,6.815-.428-.187,2.773-6.376-.5-.208-9.579-4.116a2.038,2.038,0,0,1-1.474-1.114c-.687-1.477.46-3.708.509-3.8l4.138-10.051.43.178-4.145,10.069c-.049.1-1.084,2.17-.509,3.409a1.616,1.616,0,0,0,1.194.867l9.616,4.131Z" transform="translate(-372.788 -213.545)" fill="#d85050"/>
    <path id="Path_992021" data-name="Path 992021" d="M478.7,331.841l-.617.007c-.759.012-1.857.222-1.857.572v.117h-.467v-.117c0-.654.9-.9,1.624-.988-.252-.126-.575-.231-.752-.065l-.084.082-.322-.341.084-.079c.687-.647,1.876.367,1.925.411Z" transform="translate(-364.607 -253.525)" fill="#d85050"/>
    <path id="Path_992022" data-name="Path 992022" d="M527.942,537.862a2.744,2.744,0,1,1-2.744-2.744,2.744,2.744,0,0,1,2.744,2.744" transform="translate(-400.394 -410.099)" fill="#fff"/>
    <path id="Path_992023" data-name="Path 992023" d="M413.942,537.862a2.744,2.744,0,1,1-2.744-2.744,2.744,2.744,0,0,1,2.744,2.744" transform="translate(-313.028 -410.099)" fill="#fff"/>
  </g>
</svg>
