<svg xmlns="http://www.w3.org/2000/svg" width="150" height="100" viewBox="0 0 150 100">
  <g id="img81" transform="translate(-203.711 -27316)">
    <rect id="Rectangle_454420" data-name="Rectangle 454420" width="150" height="100" transform="translate(203.711 27316)" fill="#a8b8ff"/>
    <rect id="Rectangle_454702" data-name="Rectangle 454702" width="128" height="80" rx="10" transform="translate(214.711 27326)" fill="#e5eaff"/>
    <g id="Group_1182494" data-name="Group 1182494" transform="translate(216.608 27304.98)">
      <circle id="Ellipse_13614" data-name="Ellipse 13614" cx="22.222" cy="22.222" r="22.222" transform="translate(35.343 32.008)" fill="#5bc0be"/>
      <g id="Group_1182493" data-name="Group 1182493" transform="translate(32 33.102)">
        <path id="Path_991855" data-name="Path 991855" d="M53.034,47.17A1.034,1.034,0,0,1,52,46.136v-3.1a1.034,1.034,0,0,1,2.068,0v3.1A1.034,1.034,0,0,1,53.034,47.17Z" transform="translate(-46.83 -42)" fill="#12263f"/>
        <path id="Path_991856" data-name="Path 991856" d="M53.034,75.17A1.034,1.034,0,0,1,52,74.136v-3.1a1.034,1.034,0,0,1,2.068,0v3.1A1.034,1.034,0,0,1,53.034,75.17Z" transform="translate(-46.83 -62.762)" fill="#12263f"/>
        <path id="Path_991857" data-name="Path 991857" d="M36.136,64.068h-3.1a1.034,1.034,0,0,1,0-2.068h3.1a1.034,1.034,0,1,1,0,2.068Z" transform="translate(-32 -56.83)" fill="#12263f"/>
        <path id="Path_991858" data-name="Path 991858" d="M64.136,64.068h-3.1a1.034,1.034,0,0,1,0-2.068h3.1a1.034,1.034,0,0,1,0,2.068Z" transform="translate(-52.762 -56.83)" fill="#12263f"/>
        <circle id="Ellipse_13615" data-name="Ellipse 13615" cx="0.926" cy="0.926" r="0.926" transform="translate(20.626 19.893)" fill="#12263f"/>
        <ellipse id="Ellipse_13616" data-name="Ellipse 13616" cx="1.235" cy="0.926" rx="1.235" ry="0.926" transform="translate(51.49 19.893)" fill="#12263f"/>
        <ellipse id="Ellipse_13617" data-name="Ellipse 13617" cx="1.235" cy="0.926" rx="1.235" ry="0.926" transform="translate(0.873 47.67)" fill="#12263f"/>
        <path id="Path_991859" data-name="Path 991859" d="M39.619,153.238a3.619,3.619,0,1,1,3.619-3.619A3.623,3.623,0,0,1,39.619,153.238Zm0-5.17a1.551,1.551,0,1,0,1.551,1.551A1.553,1.553,0,0,0,39.619,148.068Z" transform="translate(-34.966 -119.116)" fill="#12263f"/>
        <path id="Path_991860" data-name="Path 991860" d="M243.619,69.238a3.619,3.619,0,1,1,3.619-3.619A3.623,3.623,0,0,1,243.619,69.238Zm0-5.17a1.551,1.551,0,1,0,1.551,1.551A1.553,1.553,0,0,0,243.619,64.068Z" transform="translate(-186.233 -56.83)" fill="#12263f"/>
      </g>
      <path id="Path_991861" data-name="Path 991861" d="M152.789,55.714A8.789,8.789,0,0,1,144,46.925V34h17.578V46.925A8.789,8.789,0,0,1,152.789,55.714Z" transform="translate(-83.048 -2.966)" fill="#9dc1e4"/>
      <path id="Path_991862" data-name="Path 991862" d="M149.823,53.782A9.834,9.834,0,0,1,140,43.959V31.034A1.034,1.034,0,0,1,141.034,30h17.578a1.034,1.034,0,0,1,1.034,1.034V43.959A9.834,9.834,0,0,1,149.823,53.782Zm-7.755-21.714V43.959a7.755,7.755,0,1,0,15.51,0V32.068Z" transform="translate(-80.082)" fill="#12263f"/>
      <path id="Path_991863" data-name="Path 991863" d="M168,117.5h5.17v9.306H168Z" transform="translate(-100.844 -64.881)" fill="#efefd2"/>
      <path id="Path_991864" data-name="Path 991864" d="M170.2,124.874h-5.17A1.034,1.034,0,0,1,164,123.84v-9.306a1.034,1.034,0,0,1,1.034-1.034h5.17a1.034,1.034,0,0,1,1.034,1.034v9.306A1.034,1.034,0,0,1,170.2,124.874Zm-4.136-2.068h3.1v-7.238h-3.1Z" transform="translate(-97.878 -61.915)" fill="#12263f"/>
      <path id="Path_991865" data-name="Path 991865" d="M168.2,162.935H157.98l2.2-9.435H166Z" transform="translate(-93.415 -91.576)" fill="#c1dbdc"/>
      <path id="Path_991866" data-name="Path 991866" d="M165.235,161H155.014a1.034,1.034,0,0,1-1.007-1.269l2.2-9.435a1.034,1.034,0,0,1,1.007-.8h5.816a1.035,1.035,0,0,1,1.007.8l2.2,9.435A1.034,1.034,0,0,1,165.235,161Zm-8.918-2.068h7.615l-1.72-7.367h-4.175Z" transform="translate(-90.448 -88.609)" fill="#12263f"/>
      <path id="Path_991867" data-name="Path 991867" d="M78.128,190h18.2v19.646H56v-1.758A14.786,14.786,0,0,1,70.786,193.1l4.261-2.318A6.443,6.443,0,0,1,78.128,190Z" transform="translate(-17.796 -118.64)" fill="#fc8c29"/>
      <path id="Path_991868" data-name="Path 991868" d="M93.36,207.714H53.034A1.034,1.034,0,0,1,52,206.68v-1.758A15.839,15.839,0,0,1,67.553,189.1l4.034-2.195A7.5,7.5,0,0,1,75.161,186h18.2a1.034,1.034,0,0,1,1.034,1.034V206.68A1.034,1.034,0,0,1,93.36,207.714Zm-39.292-2.068H92.326V188.068H75.162a5.428,5.428,0,0,0-2.586.658l-4.261,2.318a1.033,1.033,0,0,1-.494.126,13.768,13.768,0,0,0-13.752,13.752Z" transform="translate(-14.83 -115.674)" fill="#12263f"/>
      <path id="Path_991869" data-name="Path 991869" d="M56,254H96.2v3.1H56Z" transform="translate(-17.796 -166.097)" fill="#fff"/>
      <path id="Path_991870" data-name="Path 991870" d="M93.23,255.17h-40.2A1.034,1.034,0,0,1,52,254.136v-3.1A1.034,1.034,0,0,1,53.034,250h40.2a1.034,1.034,0,0,1,1.034,1.034v3.1A1.034,1.034,0,0,1,93.23,255.17ZM54.068,253.1H92.2v-1.034H54.068Z" transform="translate(-14.83 -163.131)" fill="#12263f"/>
      <path id="Path_991871" data-name="Path 991871" d="M176.059,230.272c.247-4.618,3.487-8.272,7.447-8.272h1.819v8.272Z" transform="translate(-106.82 -142.369)" fill="#fff"/>
      <path id="Path_991872" data-name="Path 991872" d="M182.359,228.34h-9.267a1.034,1.034,0,0,1-1.032-1.09c.278-5.187,4-9.25,8.48-9.25h1.819a1.034,1.034,0,0,1,1.034,1.034v8.272A1.034,1.034,0,0,1,182.359,228.34Zm-8.112-2.068h7.078v-6.2h-.785C177.468,220.068,174.86,222.717,174.247,226.272Z" transform="translate(-103.854 -139.402)" fill="#12263f"/>
      <path id="Path_991873" data-name="Path 991873" d="M109.527,205.838a1.031,1.031,0,0,1-.731-.3l-3.092-3.092a1.034,1.034,0,0,1,1.462-1.462l3.092,3.092a1.034,1.034,0,0,1-.731,1.765Z" transform="translate(-54.427 -126.559)" fill="#12263f"/>
      <path id="Path_991874" data-name="Path 991874" d="M123.992,197.8a1.03,1.03,0,0,1-.731-.3l-2.755-2.755a1.034,1.034,0,0,1,1.462-1.462l2.755,2.755a1.034,1.034,0,0,1-.731,1.765Z" transform="translate(-65.403 -120.85)" fill="#12263f"/>
      <path id="Path_991875" data-name="Path 991875" d="M136.527,192.338a1.031,1.031,0,0,1-.731-.3l-3.092-3.092a1.034,1.034,0,1,1,1.462-1.462l3.092,3.092a1.034,1.034,0,0,1-.731,1.765Z" transform="translate(-74.448 -116.548)" fill="#12263f"/>
      <path id="Path_991876" data-name="Path 991876" d="M144,34h17.578v6.2H144Z" transform="translate(-83.048 -2.966)" fill="#fff"/>
      <path id="Path_991877" data-name="Path 991877" d="M158.612,38.272H141.034A1.034,1.034,0,0,1,140,37.238v-6.2A1.034,1.034,0,0,1,141.034,30h17.578a1.034,1.034,0,0,1,1.034,1.034v6.2A1.034,1.034,0,0,1,158.612,38.272ZM142.068,36.2h15.51V32.068h-15.51Z" transform="translate(-80.082)" fill="#12263f"/>
      <circle id="Ellipse_13618" data-name="Ellipse 13618" cx="1.543" cy="1.543" r="1.543" transform="translate(68.058 41.267)" fill="#12263f"/>
    </g>
  </g>
</svg>
