<svg xmlns="http://www.w3.org/2000/svg" width="295" height="139" viewBox="0 0 295 139">
  <g id="img82" transform="translate(-179.711 -27466)">
    <rect id="Rectangle_454422" data-name="Rectangle 454422" width="295" height="139" transform="translate(179.711 27466)" fill="#f0f3ff"/>
    <g id="Layer_2" data-name="Layer 2" transform="translate(199.711 27503)">
      <g id="SPANISH">
        <path id="Path_991878" data-name="Path 991878" d="M59.767,21.07c1.407,1.676,3.867,2.664,5.306,4.344-1.031-4.967-4.865-9.023-9.4-9.993C57.886,17.087,58.364,19.4,59.767,21.07ZM5.277,33.661c3.123-6.8,7.784-5.357,9.756-11.833-1.093,1.986-6.2,2.824-8.568,7.915,1.206-3.025.6-7.653,2.642-10.149C3.007,24.095,5.6,31.376,5.277,33.661Zm5.656,16.3c.561,2.646-1.093,6.465,1.531,10.117-2.711-3.039-8.455-3.812-10.794-8.433,2.915,11.3,10.569,8.965,13.991,11.418C12.832,59,15.146,56.3,10.933,49.962Zm-.878,7.088c-1.673-6.308,1.308-8.495-.969-14.544-.237,3.411-2.511,5.073-.977,11.3C5.4,48.533,1.214,46.565,0,42.943.084,52.848,8.043,54.317,10.055,57.05ZM22.278,67.619c-2.343-3.243-.729-5.077-7.325-10.966,1.392,2.15-.044,4.854,4.4,9.06C15,63.162,9.012,64.255,6.122,60.826c4.964,9.5,13.684,5.623,16.155,6.8Zm31.859-1.906c4.439-4.206,3-6.924,4.4-9.06-6.582,5.889-4.982,7.722-7.325,10.966,2.471-1.181,11.192,2.7,16.152-6.793-2.886,3.433-8.878,2.336-13.222,4.9Zm6.884-5.645c2.613-3.644.969-7.471,1.531-10.117-4.213,6.337-1.9,9.038-4.738,13.12,3.44-2.453,11.064-.128,13.991-11.418-2.336,4.614-8.072,5.386-10.784,8.426Zm-10.517,8a32.508,32.508,0,0,0-7.2-1.093,17.4,17.4,0,0,0-6.56,1.115,17.413,17.413,0,0,0-6.56-1.115,32.507,32.507,0,0,0-7.2,1.093c-3.961,1.053-7.383,1.87-10.368.364,2.861,2.551,6.2,3.444,11.017,2.915,4.009-.43,7.256-2.438,11.039-2.409h.149a20.215,20.215,0,0,0-6.239,4.851l1.822.244a10.042,10.042,0,0,1,6.337-4.865,10.042,10.042,0,0,1,6.337,4.865l1.822-.244a20.273,20.273,0,0,0-6.239-4.825h.149c3.783-.029,7.023,1.979,11.035,2.409,4.821.521,8.16-.386,11.02-2.915-2.985,1.491-6.407.674-10.368-.379ZM9.355,35.665C7.722,38.8,5.186,39.517,5.466,46,4.089,40.239.816,38.1.856,34.426c-2.274,9.585,3.8,10.722,5.364,14.738C5.991,43.409,9.665,42.247,9.355,35.665Zm2.281-7.4a11.538,11.538,0,0,1-2.482,2.383,12.307,12.307,0,0,0-4.417,7.2c.157-3.513-2.015-8.56-.572-12.241-5.587,7.89.321,12.617.528,15.474C6.144,35.589,9.475,35.545,11.636,28.267Zm57.106,9.588a12.325,12.325,0,0,0-4.413-7.2,11.538,11.538,0,0,1-2.482-2.383c2.161,7.289,5.492,7.321,6.924,12.821.208-2.857,6.115-7.584.525-15.474C70.754,29.3,68.586,34.342,68.743,37.856Zm4.738,5.1c-1.214,3.622-5.4,5.59-8.109,10.875,1.534-6.239-.729-7.9-.977-11.3-2.278,6.057.729,8.232-.969,14.544,2.015-2.762,9.974-4.231,10.058-14.136Zm-9.34-7.292c-.31,6.582,3.367,7.744,3.134,13.484,1.563-4.009,7.653-5.153,5.364-14.738.044,3.677-3.229,5.831-4.6,11.56C68.3,39.517,65.762,38.8,64.14,35.665ZM13.724,21.088c1.41-1.676,1.888-3.983,4.1-5.649a12.821,12.821,0,0,0-9.4,9.993c1.418-1.7,3.881-2.686,5.288-4.362Zm44.741.758c1.972,6.476,6.633,5.036,9.752,11.833-.324-2.285,2.274-9.566-3.827-14.067,2.041,2.5,1.436,7.125,2.642,10.149-2.38-5.109-7.471-5.948-8.582-7.934ZM42.638,25.5a15.277,15.277,0,0,0-3.728-1c0,.273,0,.554,0,.831a14.577,14.577,0,0,1,3.426.94,2.187,2.187,0,0,0,.3-.769Zm-.944-8.017.248-.222-.474-.2-1.246-.026-.324.226-.729-.062v.179a12.664,12.664,0,0,1,1.283.135l.609-.055ZM39.278,44.364c0-.211-.281-.419-.7-.616h-.077c0,.171,0,1.017-.026,1.429C38.994,44.947,39.278,44.7,39.278,44.364ZM24.84,28.512a3.98,3.98,0,0,1,.106-.456,2.11,2.11,0,0,1-.51.051ZM36.767,65.173a25.423,25.423,0,0,0,2.591-50.7.263.263,0,0,1-.029.146c-.051.248-.1.47-.135.667A24.544,24.544,0,0,1,54,22.207L51.2,25.013l.106-.5-.364-.16-.5-.029L50.539,24,50.2,22.856l-.7-.769-2.187-1.155-.19.2-.4.117a6.56,6.56,0,0,1,1.159,3.684v.5L48.98,26.8l-.51.117.339.51-.958.955-.386-.729a6.531,6.531,0,0,1-.729,1.432l.215.2-2.956,2.956c-.179-.171-.364-.335-.554-.492-.284.131-.572.251-.867.364l.251.2-.149.149-.364.193-.128.364-.215-.215L41.345,33l.171.273.43-.113.281.022.022-.153.215-.109.066-.128.386-.109h.3c.058.051.12.106.175.16L42.2,33.978l-.087-.124-1.224.2-.273.273-.266.033.758-.729-.27-.135-.711.948.208-.022v.364l.259.1.051.364-.426-.084-.445.08-1.093-.55s-.058,2.886-.087,4.337c2.551.853,5.23,2.085,5.23,5.321A4.009,4.009,0,0,1,42,47.775h0l-.055.036h0l-.08.055a13.89,13.89,0,0,1-3.491,1.4l-.033,2.267c1.822.9,4.027,2.219,3.823,5.984-.026.926-.386,1.181-.7,1.265h0a19.141,19.141,0,0,1-3.28.521v.827a20.361,20.361,0,0,0,12.675-5.6l2.952,2.952a24.552,24.552,0,0,1-34,.069L22.77,54.6a20.346,20.346,0,0,0,12.5,5.521V59.3a19.53,19.53,0,0,1-11.924-5.273l.787-.791,1.093.124.576-.62,1.509.051.222-.521-.055-.222a15.306,15.306,0,0,0,7.686,3.072c0-.321,0-.6,0-.831a14.552,14.552,0,0,1-8.28-3.8l2.956-2.956a10.514,10.514,0,0,0,2.394,1.607,2.8,2.8,0,0,1,.3-.776,9.555,9.555,0,0,1-2.11-1.418l2.963-2.959a5.416,5.416,0,0,0,1.582.878v-.889a4.544,4.544,0,0,1-.977-.579l.835-.835c-.292-.087-.59-.182-.882-.284l-.561.561a4.519,4.519,0,0,1-.707-1.053A10.046,10.046,0,0,1,31.214,41a5.718,5.718,0,0,1-2.766-5.022,6.028,6.028,0,0,1,1.2-3.827L26.7,29.211a14.544,14.544,0,0,1,7.886-3.878c0-.284,0-.565-.018-.831a15.372,15.372,0,0,0-8.451,4.133l-.5-.488c-.113.2-.244.452-.4.769l.313.317a15.353,15.353,0,0,0-4.176,10.273h-4.18a19.541,19.541,0,0,1,5.419-13.243l1.327,1.33a1.68,1.68,0,0,0,.19,0,2,2,0,0,0,.754-.219l-1.687-1.687a19.865,19.865,0,0,1,2.915-2.325,5.488,5.488,0,0,1,.208-.612,9.814,9.814,0,0,1,.638-.856,20.408,20.408,0,0,0-4.344,3.2l-2.952-2.952a24.49,24.49,0,0,1,14.614-6.851c-.022-.1-.036-.182-.036-.182-.036-.193-.08-.408-.12-.634a25.426,25.426,0,0,0,2.653,50.711Zm5.507-17.547V47.6h0ZM54.584,22.8a24.512,24.512,0,0,1,6.8,16.706H57.187A20.288,20.288,0,0,0,55,30.585l.036-.073.288.153.069-.222-.729-1.308-.886-1.224-1.05-.856c-.364-.445-.729-.875-1.119-1.29Zm-5.339,5.346,1,.044.241.288-.12.426,1.381.875.273-.033,1.786,2.041.729-.255a19.461,19.461,0,0,1,1.822,7.974H52.183a15.226,15.226,0,0,0-.39-3.178l.193-.259.259-1.308-.2-1.407-.5-1.618-1.166-1.706.284.149.142-.142-.937-.634-.062.208.937,1.337.528,1.093.364,1.093.12.729L51.95,35.1l-.364.026s-.4-.754-.528-1.064l.186-.281-.364-.51v-.51l-.255-.321-.317.04c-.113-.211-.233-.419-.364-.623l.226.113.058-.058-.12-.262.273-.153-.124-.153-.4.153L50,30.858l-.241-.138-.215.507a15.539,15.539,0,0,0-1.52-1.931Zm-.838,9.792.751-.408.765-.117.168-.364.426-.255.164-.364.131-.616c.062.215.117.437.168.66l-.4,1.206v.408l.587-.784a14.118,14.118,0,0,1,.208,2.187H47.726l-.084-.317.426-.339.084-.2.186-.138.5-.051.051-.219Zm-5.015-2.868.364-.087V34.9l-.364-.251.128-.787.448-.448a9.9,9.9,0,0,1,.776,1.009l-.157.485-.408-.292-.31.084.153.288h.153l-.171.426-.117-.171Zm1.6,13.874-.9-.255-.27.1-.51-.39-.481-.171c.237-.171.466-.364.689-.539l.729.525.569.3.281.281ZM44.533,32.83l2.956-2.956a14.734,14.734,0,0,1,1.822,2.456l-.364.1.018.66,1.093.7a14.286,14.286,0,0,1,.692,1.866l-.193.284-.4.255-.1.612-.273.153-.23.27-.23-.084h-.408l.237-.321.171-.835.27-.168-.762-.784-.594.2L48.1,35.8l-.364.4-.39-.321-.138-.343.222-.138.124.226.182-.069-.08-.364H47.4l-.018.153-.171.033-.929-1.09-.313-.237.12-.131.277-.095-.255-.1s-.324.073-.364.073l.186.233h-.466A10.1,10.1,0,0,0,44.533,32.83Zm1.505,15.725-.4-.4.306-.4.386-.787-.149-.219.255-.583-.029-.525-.153-.543-.364-.128-.135.306-.219-.058a9.9,9.9,0,0,0,.875-1.527l.364-.16.211-.284.1.117.255-.306-.2-.255.186-.051.343.138h.645l.39-.2,1.02-.27-.193-.339-.066-.412.547.241.2-.12-.1-.423-.66.266-.729-.153-.561-1.148h3.2a14.548,14.548,0,0,1-4.034,9.5l-.437-.441.19-.587-.343-1.294Zm.565,8.152L47,55.862l-.153-.364.579-.51v-.306l-.5-.31.408-.813.612-.8-.612-.66h-.459l-.284-.463c.244-.2.488-.412.729-.63l2.956,2.956A19.818,19.818,0,0,1,46.6,56.711Zm3.688-3.9.328-.364-.31-1.618-.211-.084.131-.273-.7-.219-.135.576-.069.729-.146.135L47.9,50.414A15.368,15.368,0,0,0,52.183,40.33h4.18a19.515,19.515,0,0,1-5.5,13.039Zm1.152,1.148A20.35,20.35,0,0,0,57.19,40.334h4.176A24.519,24.519,0,0,1,54.4,56.912ZM26.3,49.907c-.3-.313-.59-.638-.867-.977l.128-1.057-.441-1.013-.109-1.585-.5-.962.1-.6-.6-1.148-.521-.262.211-.609-.215-.481.215-.55h.572l.2-.332h.977l.149.288-.182,1.009-.117.171.364.8-.241.131-.168-.211-.073.08.168.474.288.554h.135l.095-.539-.138-.182v-.335l-.044-.692.182-1.217-.2-.328h.7a10.379,10.379,0,0,0,2.875,6.622Zm-2.77-8.167-.394.62h-.678l-.055-.04a14.847,14.847,0,0,1-.211-1.986h1.257l-.3,1.006ZM24.9,38.872l.077-.831.5-.288.886.157.135.16a9.839,9.839,0,0,0-.135,1.436h-1ZM29.154,42l.208-.106.521.412-.237.193.616.408-.015-.437.328-.543.343.364.364.5-.671.138.288.576.441-.233-.044-.182.328-.222.193-.911a5.434,5.434,0,0,0,.958,1.458l-2.952,2.952a9.552,9.552,0,0,1-2.587-5.547l.6.645h.569ZM26.115,29.8l2.952,2.956A10.536,10.536,0,0,0,27.5,35.013h-.2l-.415.128h-.146l-.441.412.558-.117.5-.128-.087.193-.441.27H26.6l-.649.5-.627-.051-.907,1.691.179.339-.492.547-.077.729H22.179A14.548,14.548,0,0,1,26.115,29.8ZM22.3,52.087l.937.55.193.131-.678.678q-.474-.492-.918-1.017Zm-.937-11.753a11.058,11.058,0,0,0,.095,1.206l-.51.117-.106.517L19.778,43.53l.026,1.862-1.093.364h-.6a19.49,19.49,0,0,1-.933-5.426Zm-4.125,5.4-.244-.047-.23-.259-1.173-.1.364.492-1.093-.2.284-.262-.266-.262-.784.343-.281.517.109,1.192.9,2.143.434.678.248.091-.681-1.294-.149-.66.153-.16-.095-.364.412.055.63.955.157.062v-.7l.255.149.055.364.663.175.277-.2.095.066v.507l.292.364.364.08.773,1.308.47.131.146-.612A20.525,20.525,0,0,0,22.2,54l-2.952,2.952a24.534,24.534,0,0,1-7.077-16.622h4.18a20.346,20.346,0,0,0,.882,5.4ZM19.06,22.728l2.952,2.952a20.375,20.375,0,0,0-5.663,13.827H12.172a24.519,24.519,0,0,1,6.87-16.778ZM49.308,21.2l-.251-.408-.547-.273-.426.324.547.292.587.448ZM46.753,32.994v.321l.729-.215.222-.441L47.2,32l.266-.4.674.481.124-.1-.135-.095-.153-.292.277-.16-.27-.364-.634.321-.211.4-.128.346.281.47-.1.219ZM16.542,51.733l.055-.189-.364-.816-.445-.164Zm17.085-15.7a1.864,1.864,0,0,0,1.2,1.622v-.313l-.488-.488.259-.47.211-.058c0-.816-.033-1.731-.036-1.862h-.036A1.769,1.769,0,0,0,33.626,36.033Z" transform="translate(0 -9.197)" fill="#0093d5"/>
        <path id="Path_991879" data-name="Path 991879" d="M105.07,120.447a5.34,5.34,0,0,1,3.028,3.32c.222-2.879-1.392-4.125-2.992-4.967C105.106,118.8,105.07,120.451,105.07,120.447Z" transform="translate(-66.779 -75.506)" fill="#0093d5"/>
        <path id="Path_991880" data-name="Path 991880" d="M98.118,31.512c0-2.613-1.9-5.514-6.542-6.538a11.184,11.184,0,0,0-1.418-.164c0,.394-.029,1.3-.029,1.3,0,.284-.029,1.33-.036,1.556a6.559,6.559,0,0,1,.893.124c2.7.645,3.666,2.187,3.666,3.724,0,2.482-2.121,3.418-4.738,4.125l-.864.226c-.791.2-1.6.386-2.409.6-.288.077-.572.16-.856.244h0c-2.89.882-5.375,2.274-5.375,5.831s2.835,4.862,5.6,5.714q-.026-1.527-.058-3.069c-1.221-.572-2.081-1.327-2.081-2.595s.784-1.99,1.983-2.551c.266-.12.55-.23.853-.332.689-.233,1.458-.434,2.278-.63l.864-.208h0C93.745,37.959,98.118,36.738,98.118,31.512Z" transform="translate(-51.106 -15.768)" fill="#0093d5"/>
        <path id="Path_991881" data-name="Path 991881" d="M90.56,94.344c0,1.429,1.057,2.187,2.11,2.8,0-.241-.044-2.453-.044-2.489.022-.441.448-.707.794-.871a17.15,17.15,0,0,1,1.673-.638c.313-.109.579-.215.878-.3h0c2.114-.638,4.559-1.458,4.559-4.009s-2.1-3.644-4.373-4.421c0,.82-.04,2.019-.058,2.846.969.364,1.611.842,1.611,1.574,0,.922-.984,1.458-1.68,1.72-.292.113-.729.259-.856.3-.561.175-1.166.364-1.731.583a8.3,8.3,0,0,0-.856.364A2.981,2.981,0,0,0,90.56,94.344Z" transform="translate(-57.557 -53.648)" fill="#0093d5"/>
        <path id="Path_991882" data-name="Path 991882" d="M76.135,25.93a16.826,16.826,0,0,0-2.551,1.039,6.38,6.38,0,0,0-3.524,1.8,18.033,18.033,0,0,0-1.214,1.56c-.4.576-.419,1.5-.729,2a1.687,1.687,0,0,0-.321,1.133v.022a1.935,1.935,0,0,1-.488.9,1.851,1.851,0,0,1-1.7.678,1.93,1.93,0,0,0,1.458-.12,11.155,11.155,0,0,0-.321,1.2A5.848,5.848,0,0,1,68.241,33.9a3.03,3.03,0,0,0,2.019-.6,15.672,15.672,0,0,0,3.714-2.664,4.953,4.953,0,0,1,2.245-1.695C76.178,27.778,76.157,26.779,76.135,25.93Zm-5.35,4.792-.66.142.787-1.265.918.029Z" transform="translate(-41.7 -16.48)" fill="#0093d5"/>
        <path id="Path_991883" data-name="Path 991883" d="M99.722,110.907c-.124.044-.441.179-.641.248s-.481.186-.481.259.2,11.082.2,11.327c0,2.278,1.159,2.292,1.159,0,0-.164.233-11.99.233-11.99Z" transform="translate(-62.667 -70.389)" fill="#0093d5"/>
        <path id="Path_991884" data-name="Path 991884" d="M97.973,79.131c.364-.124.729-.233,1.057-.339l.7-.219c0-.7.211-10.324.248-12.074a22.125,22.125,0,0,0-2.241.645C97.766,68.457,97.955,78.082,97.973,79.131Z" transform="translate(-62.12 -42.265)" fill="#0093d5"/>
        <path id="Path_991885" data-name="Path 991885" d="M97.29,0c-3.258,0-1.873,4.832-1.614,6.407,0,.077.262,10.933.313,13.407.5-.131.988-.251,1.458-.364l.984-.248c.047-2.394.288-12.755.3-12.81C98.941,4.7,100.646,0,97.29,0Z" transform="translate(-60.482)" fill="#0093d5"/>
        <path id="Path_991886" data-name="Path 991886" d="M256.848,48.7v-5.51c0-3.1-.729-5.171-4.293-5.171a6.924,6.924,0,0,0-3.513.94l-.058.033.168,2.737.16-.153a4.555,4.555,0,0,1,2.915-1.2,1.994,1.994,0,0,1,1.935,2.3v.364h-.426c-2.73,0-5.867.5-5.867,4.373a3.423,3.423,0,0,0,6.388,2.048,6.328,6.328,0,0,0,.146,1.48l.018.077H257V50.9A17.314,17.314,0,0,1,256.848,48.7Zm-2.675-3.233c0,2.383-.649,3.495-2.041,3.495a1.611,1.611,0,0,1-1.578-1.822c0-1.614,1.009-2.274,3.488-2.274h.131Zm-10.539-7.252-.044.886s-.026.634-.036.937a3.166,3.166,0,0,0-2.883-2.019c-2.58,0-4.06,2.42-4.06,6.64,0,5.915,3.01,6.374,3.932,6.374a3,3,0,0,0,2.832-1.862V50c0,1.8-.317,3.863-2.788,3.863a6.09,6.09,0,0,1-3.178-1.06l-.149-.095-.164,2.941.069.029a9.767,9.767,0,0,0,3.8.791c4.574,0,5.164-3.666,5.164-6.859V40.3l.087-2.081h-2.587ZM241.159,48.6c-.747,0-1.618-1.093-1.618-4.111,0-2.679.576-3.939,1.822-3.961a1.4,1.4,0,0,1,1.046.43,5.05,5.05,0,0,1,.977,3.506C243.375,47.358,242.712,48.6,241.159,48.6Zm23.579-10.569a3.2,3.2,0,0,0-2.864,1.913c0-.335-.033-.853-.033-.853l-.044-.864h-2.682v.113a18.993,18.993,0,0,1,.084,2.07V51.031h2.843V43.579c0-1.068.23-2.857,1.767-2.857,1.013,0,1.407.729,1.407,2.638v7.653h2.843V42.8c.015-3.174-1.108-4.792-3.32-4.792ZM317.8,33.291H315.08l-1.458,3.732h1.866Zm-95.652.2c-2.915,0-6.017,2.336-6.017,8.892s3.109,8.9,6.017,8.9,6.013-2.336,6.013-8.9S225.051,33.488,222.147,33.488Zm0,15.182c-1.935,0-3-2.234-3-6.29s1.068-6.286,3-6.286,3,2.234,3,6.286S224.1,48.67,222.147,48.67Zm13.007-10.663a3.139,3.139,0,0,0-2.74,2.187c0-.408-.033-.977-.033-.977l-.044-1.013h-2.595v.113a19.983,19.983,0,0,1,.084,2.07V51.031h2.843V44.02c0-2.788,1.662-3.007,2.187-3.007a2.22,2.22,0,0,1,.711.12l.135.04V38.109l-.222-.044Zm69.818-1.975h2.915V32.85h-2.915ZM302.9,48.116a3.71,3.71,0,0,1-1.822.59c-1.822,0-2.9-1.516-2.9-4.06,0-2.781.907-4.133,2.77-4.133a3.673,3.673,0,0,1,1.8.6l.146.084.164-2.638L303,38.528a6.6,6.6,0,0,0-2.325-.521c-3.378,0-5.4,2.471-5.4,6.614s1.964,6.593,5.248,6.593a6.636,6.636,0,0,0,2.635-.521l.069-.029L303.058,48Zm2.106,2.915h2.843V38.214H305Zm10.033-13.025c-1.483,0-4.938.652-4.938,6.6,0,5.758,3.09,6.614,4.931,6.614s4.909-.856,4.909-6.614C319.945,38.659,316.52,38.007,315.044,38.007Zm0,10.845c-1.655,0-2-2.314-2-4.253s.346-4.231,2-4.231c1.312,0,1.979,1.421,1.979,4.231s-.667,4.264-1.979,4.264Zm-44.413,2.179h2.846V38.214h-2.846Zm-.044-14.989H273.5V32.85h-2.915ZM293.2,48.7v-5.51c0-3.1-.729-5.171-4.289-5.171a6.924,6.924,0,0,0-3.513.94l-.062.033.168,2.737.16-.153a4.555,4.555,0,0,1,2.915-1.2,2,2,0,0,1,1.939,2.3v.364h-.426c-2.733,0-5.867.5-5.867,4.373a3.423,3.423,0,0,0,6.388,2.048,6.456,6.456,0,0,0,.142,1.48l.022.077h2.577V50.9a17.988,17.988,0,0,1-.153-2.2Zm-2.671-3.233c0,2.383-.649,3.495-2.044,3.495a1.611,1.611,0,0,1-1.574-1.822c0-1.614,1.009-2.274,3.488-2.274h.131Zm-7.573-4.526V38.214h-7.372v2.507h4.446l-4.6,7.555v2.755h7.653V48.521h-4.646Zm44.523-2.915a3.193,3.193,0,0,0-2.864,1.913c0-.335-.033-.849-.033-.849l-.047-.867h-2.679v.113a18.88,18.88,0,0,1,.087,2.07V51.031h2.843V43.579c0-1.068.23-2.857,1.767-2.857,1.013,0,1.407.729,1.407,2.638v7.653h2.843V42.8c.011-3.174-1.111-4.792-3.324-4.792Z" transform="translate(-137.365 -20.878)" fill="#0093d5"/>
        <path id="Path_991887" data-name="Path 991887" d="M283.829,113.084v-5.51c0-3.1-.729-5.175-4.293-5.175a6.946,6.946,0,0,0-3.513.944l-.062.033.168,2.737.16-.157a4.574,4.574,0,0,1,2.915-1.192,2,2,0,0,1,1.939,2.3v.364h-.426c-2.733,0-5.867.5-5.867,4.373a3.422,3.422,0,0,0,6.388,2.048,6.319,6.319,0,0,0,.142,1.48l.022.077h2.58l-.018-.117a18.008,18.008,0,0,1-.135-2.2Zm-2.679-3.232c0,2.383-.649,3.495-2.044,3.495a1.611,1.611,0,0,1-1.574-1.822c0-1.611,1.009-2.27,3.488-2.27h.131ZM252.594,102.4a3.186,3.186,0,0,0-2.864,1.917l-.036-.853-.044-.864H246.97v.117a19.785,19.785,0,0,1,.084,2.07v10.63H249.9v-7.453c0-1.068.23-2.857,1.767-2.857,1.013,0,1.407.729,1.407,2.638V115.4h2.843V107.18c.018-3.171-1.1-4.781-3.316-4.781Zm-26.035,8.214-2.988-12.5h-4.26v17.3h2.671V101.732l3.411,13.681h2.1s3.28-12.591,3.579-13.714v13.714h2.675v-17.3h-4.118S226.708,110.008,226.559,110.613Zm18.222,2.6V102.6h-2.843v7.329c0,1.359-.3,2.981-1.706,2.981-1.042,0-1.458-.765-1.458-2.638V102.6h-2.843v8.232c0,3.174,1.122,4.781,3.335,4.781a3.179,3.179,0,0,0,2.864-1.935c0,.332.033.878.033.878l.044.86h2.682V115.3a19.882,19.882,0,0,1-.12-2.07ZM270,100.413h2.915V97.235H270Zm-2.551,12.73v-16.3h-2.843v7.289a3,3,0,0,0-2.766-1.735c-2.434,0-3.889,2.474-3.889,6.618s1.476,6.593,3.95,6.593a2.988,2.988,0,0,0,2.879-1.968,16.369,16.369,0,0,0,.08,1.68v.091h2.679l-.018-.117a18.528,18.528,0,0,1-.091-2.128Zm-4.821.018c-1.337,0-1.822-1.159-1.822-4.278,0-2.733.612-4.06,1.873-4.06,1.687,0,1.939,2.587,1.939,4.133-.029,1.931-.372,4.209-2.008,4.209Zm23.837,2.238h2.843V96.812h-2.843Zm-16.4,0h2.843V102.6h-2.843Zm96.647-2.329v-5.5c0-3.1-.729-5.175-4.293-5.175a6.968,6.968,0,0,0-3.513.944l-.058.033.168,2.737.16-.157a4.566,4.566,0,0,1,2.915-1.192,1.994,1.994,0,0,1,1.935,2.3v.364H363.6c-2.73,0-5.864.5-5.864,4.373a3.421,3.421,0,0,0,6.385,2.052,6.258,6.258,0,0,0,.117,1.5l.022.077h2.577v-.117a18.29,18.29,0,0,1-.157-2.227Zm-2.675-3.233c0,2.383-.649,3.495-2.044,3.495a1.609,1.609,0,0,1-1.574-1.822c0-1.611,1.009-2.27,3.491-2.27h.128Zm19.515,3.393V102.6h-2.843v7.329c0,1.359-.3,2.981-1.706,2.981-1.042,0-1.458-.765-1.458-2.638V102.6h-2.843v8.232c0,3.174,1.122,4.781,3.335,4.781a3.186,3.186,0,0,0,2.864-1.931c0,.335.033.882.033.882l.044.853h2.682V115.3A19.923,19.923,0,0,1,383.555,113.23Zm-14.26,2.187h2.843V96.83H369.3Zm25.849-.117a17.575,17.575,0,0,1-.087-2.139V96.841h-2.843v7.289a3,3,0,0,0-2.766-1.731c-2.434,0-3.888,2.474-3.888,6.618s1.476,6.593,3.95,6.593a2.988,2.988,0,0,0,2.879-1.968,15.264,15.264,0,0,0,.084,1.68v.091h2.675Zm-4.9-2.136c-1.334,0-1.822-1.159-1.822-4.278,0-2.733.616-4.06,1.873-4.06,1.687,0,1.939,2.587,1.939,4.133C392.222,110.887,391.879,113.164,390.243,113.164Zm-76.895-10.776c-2.715,0-4.61,2.792-4.61,6.789,0,3.1,1.356,6.421,5.164,6.421a7.358,7.358,0,0,0,3.316-.816l.062-.033-.142-2.675-.16.135a3.88,3.88,0,0,1-2.8.955c-1.8,0-2.649-1.035-2.675-3.247h6.33v-.689c.015-5.641-2.423-6.829-4.468-6.829ZM311.5,107.8c.022-1.458.514-3.149,1.851-3.149,1.392,0,1.709,1.687,1.72,3.149Zm14.213,7.631h2.843V96.63h-2.843ZM306.7,113.164V96.841h-2.843v7.289A3,3,0,0,0,301.1,102.4c-2.434,0-3.888,2.474-3.888,6.618s1.476,6.593,3.95,6.593a2.986,2.986,0,0,0,2.879-1.972,16.7,16.7,0,0,0,.08,1.684v.091H306.8v-.117a18.479,18.479,0,0,1-.091-2.128Zm-4.825.018c-1.334,0-1.822-1.159-1.822-4.278,0-2.733.612-4.06,1.873-4.06,1.687,0,1.939,2.587,1.939,4.133-.007,1.91-.35,4.187-1.99,4.187Zm51.636-7.453-1.593-1.028c-.8-.539-1.531-1.013-1.531-2.223a1.767,1.767,0,0,1,1.961-1.906,5.885,5.885,0,0,1,2.584.656l.3.135.138-2.85-.219-.08a8.473,8.473,0,0,0-2.992-.565,4.507,4.507,0,0,0-4.778,4.738,4.978,4.978,0,0,0,2.471,4.57l1.378.882c1.283.809,1.888,1.323,1.888,2.507a2.091,2.091,0,0,1-2.15,2.372,5.419,5.419,0,0,1-3.083-1.035l-.157-.113-.16,3.039.047.033a6.125,6.125,0,0,0,3.44.78c3.178,0,5.077-1.961,5.077-5.248a4.8,4.8,0,0,0-2.617-4.672Zm-14.005,7.362v-5.517c0-3.1-.729-5.175-4.293-5.175a6.957,6.957,0,0,0-3.513.944l-.058.033.168,2.737.16-.157a4.555,4.555,0,0,1,2.915-1.192,2,2,0,0,1,1.935,2.3v.364H336.4c-2.73,0-5.864.5-5.864,4.373a3.421,3.421,0,0,0,6.385,2.052,6.3,6.3,0,0,0,.146,1.476v.077h2.577v-.117a18.007,18.007,0,0,1-.131-2.2Zm-2.675-3.233c0,2.383-.649,3.495-2.041,3.495a1.611,1.611,0,0,1-1.578-1.822c0-1.611,1.009-2.27,3.491-2.27h.128Z" transform="translate(-139.387 -61.415)" fill="#0093d5"/>
      </g>
    </g>
  </g>
</svg>
