<svg id="img8" xmlns="http://www.w3.org/2000/svg" width="190" height="190" viewBox="0 0 190 190">
  <g id="BACKGROUND">
    <rect id="Rectangle_454475" data-name="Rectangle 454475" width="190" height="190" fill="#f8efea"/>
    <g id="Group_1181858" data-name="Group 1181858" transform="translate(19.402 28.717)">
      <path id="Path_990001" data-name="Path 990001" d="M195.69,140.914c-9.692-5.989-17.766,12.98-24.151-2.12s15.725-69.526-54.4-61.385c-51.493,5.978-21.775,84.4-44.089,69.423-15.425-10.349-27.184,7.986-19.9,71.587l145.392,0S212.234,151.137,195.69,140.914Z" transform="translate(-50.942 -76.134)" fill="#a8b8ff"/>
      <path id="Path_990002" data-name="Path 990002" d="M415.513,96.657c1.591,12.714-10.9,27.666-20.9,1.977C387.953,81.542,412.583,73.245,415.513,96.657Z" transform="translate(-263.017 -79.622)" fill="#a8b8ff"/>
      <path id="Path_990003" data-name="Path 990003" d="M82.985,77.83c-7.329-7.747-20.117,4.456-19.378,16.71.912,15.1,15.379,18.81,15.891,8.882C79.963,94.385,92.47,87.857,82.985,77.83Z" transform="translate(-58.765 -75.402)" fill="#a8b8ff"/>
    </g>
  </g>
  <g id="OBJECTS" transform="translate(9.521 43.68)">
    <g id="Group_1181861" data-name="Group 1181861" transform="translate(32.117 92.749)">
      <g id="Group_1181859" data-name="Group 1181859" transform="translate(89.345)">
        <path id="Path_990004" data-name="Path 990004" d="M369.228,374.677c-.571-3.214-9.426-.643-9.426-.643s9-16.21,2.428-15.812-10.314,10.813-10.314,10.813-2.183-5.213-5.522-4-3.267,19,0,27.753l4.91,0S369.8,377.89,369.228,374.677Z" transform="translate(-343.917 -358.215)" fill="#e8dbd1"/>
        <path id="Path_990005" data-name="Path 990005" d="M355.394,395.692l-.016,0a.1.1,0,0,1-.081-.113c.035-.211,3.627-21.2,13.952-32.8a.1.1,0,0,1,.147.131c-10.287,11.556-13.87,32.494-13.905,32.7A.1.1,0,0,1,355.394,395.692Z" transform="translate(-350.962 -361.017)" fill="#1f160f"/>
        <path id="Path_990006" data-name="Path 990006" d="M354.226,408.927a.1.1,0,0,1-.1-.1c-.047-9.928-.711-24.463-.718-24.609a.1.1,0,0,1,.094-.1.1.1,0,0,1,.1.094c.007.144.659,14.42.716,24.344,1.472-1.787,11.916-14.311,18.166-17.524a.1.1,0,0,1,.09.176c-6.664,3.426-18.162,17.542-18.277,17.684A.1.1,0,0,1,354.226,408.927Z" transform="translate(-349.794 -374.252)" fill="#1f160f"/>
      </g>
      <g id="Group_1181860" data-name="Group 1181860" transform="translate(0 6.532)">
        <path id="Path_990007" data-name="Path 990007" d="M118.691,375.369c-7.107.428-2.061,18.9-2.061,18.9s-4.016-6.617-6.087-5.9-1.911,8.416,3.8,15.042h11.616S124.855,375,118.691,375.369Z" transform="translate(-109.329 -375.366)" fill="#e8dbd1"/>
        <path id="Path_990008" data-name="Path 990008" d="M126.577,406.835c-.629,0-5.815-.372-11.7-12.1a.1.1,0,0,1,.176-.089c5.535,11.029,10.539,11.914,11.43,11.983-4.751-12.448-4.273-25.664-4.268-25.8a.1.1,0,1,1,.2.008c-.005.133-.484,13.407,4.308,25.857a.1.1,0,0,1-.009.089.1.1,0,0,1-.078.045Z" transform="translate(-112.757 -378.694)" fill="#1f160f"/>
      </g>
    </g>
    <rect id="Rectangle_454476" data-name="Rectangle 454476" width="171" transform="translate(0.479 127.32)" fill="#1f160f"/>
    <g id="Group_1181879" data-name="Group 1181879" transform="translate(25.787 0.989)">
      <g id="Group_1181866" data-name="Group 1181866" transform="translate(36.379)">
        <path id="Path_990009" data-name="Path 990009" d="M194.678,117.843c5.823-2.19,12.006,2.267,11.124,9.839-.48,4.122,7.236,4.618,3.122,10.434-1.582,2.237,2.829,2.959-.646,7.244-3.055,3.767-8.713,3.784-13.6,1.869-9.871-3.868-3.145-13.216-4.833-16.866C185.45,120.866,191,116.653,194.678,117.843Z" transform="translate(-188.226 -117.285)" fill="#56545e"/>
        <g id="Group_1181862" data-name="Group 1181862" transform="translate(3.601 15.574)">
          <path id="Path_990010" data-name="Path 990010" d="M197.68,165.827l7.9.161v-7.811h-7.9Z" transform="translate(-197.68 -158.177)" fill="#eba38d"/>
          <path id="Path_990011" data-name="Path 990011" d="M197.68,163.713v-5.536h7.3S204.947,164.31,197.68,163.713Z" transform="translate(-197.68 -158.177)" fill="#1f160f"/>
        </g>
        <path id="Path_990012" data-name="Path 990012" d="M188.836,135.651c.1,5.874,1.061,8.052,5.166,7.981s7.117-2.32,7.014-8.193-3.925-7.779-6.227-7.738S188.733,129.781,188.836,135.651Z" transform="translate(-188.602 -123.733)" fill="#eba38d"/>
        <g id="Group_1181863" data-name="Group 1181863" transform="translate(11.974 9.52)">
          <path id="Path_990013" data-name="Path 990013" d="M222.622,144.068c-.254-1.908-1.586-2.4-2.958-.929l.074,4.264C221.478,148.8,222.876,145.977,222.622,144.068Z" transform="translate(-219.664 -142.282)" fill="#eba38d"/>
          <path id="Path_990014" data-name="Path 990014" d="M222.776,145.876a.1.1,0,0,1-.094-.07.819.819,0,0,0-.606-.653,1.014,1.014,0,0,0-.924.5.1.1,0,1,1-.162-.112,1.2,1.2,0,0,1,1.117-.58,1,1,0,0,1,.763.791.1.1,0,0,1-.066.123A.094.094,0,0,1,222.776,145.876Z" transform="translate(-220.474 -143.933)" fill="#1f160f"/>
        </g>
        <path id="Path_990015" data-name="Path 990015" d="M194.771,124.263c6.446-.112,6.641,6.37,6.6,7.43-.042,1.184-1.878,1.357-2.718.117-1.643-2.429-4.409-1.28-5.569-4.145a6.833,6.833,0,0,0-3.446,1.937S189.614,124.353,194.771,124.263Z" transform="translate(-189.102 -121.604)" fill="#56545e"/>
        <g id="Group_1181865" data-name="Group 1181865" transform="translate(0.053 8.936)">
          <path id="Path_990016" data-name="Path 990016" d="M199.666,150.661a1.051,1.051,0,0,1-.578-.193c-.2-.136-.4-.357-.4-.547a1.951,1.951,0,0,1,.149-.485,4.9,4.9,0,0,0,.4-1.757.1.1,0,0,1,.1-.1.1.1,0,0,1,.1.1,5.065,5.065,0,0,1-.415,1.83,2.182,2.182,0,0,0-.136.422c0,.066.095.232.31.376a.742.742,0,0,0,.686.115.1.1,0,1,1,.081.18A.721.721,0,0,1,199.666,150.661Z" transform="translate(-194.758 -144.977)" fill="#1f160f"/>
          <path id="Path_990017" data-name="Path 990017" d="M194.358,145.487c.006.364.208.655.451.651s.434-.3.427-.666-.208-.655-.451-.651S194.351,145.123,194.358,145.487Z" transform="translate(-192.075 -143.27)" fill="#1f160f"/>
          <path id="Path_990018" data-name="Path 990018" d="M192,141.748a.3.3,0,0,1-.117-.567,2.705,2.705,0,0,1,1.993-.1.3.3,0,1,1-.161.569,2.129,2.129,0,0,0-1.6.069A.29.29,0,0,1,192,141.748Z" transform="translate(-190.432 -140.868)" fill="#56545e"/>
          <path id="Path_990019" data-name="Path 990019" d="M206.046,145.236c.006.364-.185.662-.427.666s-.444-.287-.451-.651.185-.662.427-.666S206.039,144.872,206.046,145.236Z" transform="translate(-198.768 -143.124)" fill="#1f160f"/>
          <path id="Path_990020" data-name="Path 990020" d="M205.491,141.611a.292.292,0,0,1-.136-.034,2.29,2.29,0,0,0-1.817-.11.3.3,0,0,1-.14-.574,2.866,2.866,0,0,1,2.23.161.3.3,0,0,1-.137.558Z" transform="translate(-197.533 -140.748)" fill="#56545e"/>
          <g id="Group_1181864" data-name="Group 1181864" transform="translate(0 0.501)">
            <path id="Path_990021" data-name="Path 990021" d="M199.733,146.319H198.2a.1.1,0,1,1,0-.2h1.538a.1.1,0,1,1,0,.2Z" transform="translate(-194.39 -144.576)" fill="#1f160f"/>
            <path id="Path_990022" data-name="Path 990022" d="M210.041,143.45a.1.1,0,0,1-.03-.192l3.666-1.189a.1.1,0,0,1,.065,0l.383.144a.1.1,0,1,1-.069.184l-.35-.132-3.633,1.179A.091.091,0,0,1,210.041,143.45Z" transform="translate(-201.724 -142.063)" fill="#1f160f"/>
            <path id="Path_990023" data-name="Path 990023" d="M189.224,145.211h-.014l-.761-.107a.1.1,0,0,1-.084-.112.1.1,0,0,1,.111-.084l.761.107a.1.1,0,0,1-.013.2Z" transform="translate(-188.364 -143.824)" fill="#1f160f"/>
            <path id="Path_990024" data-name="Path 990024" d="M201.922,143.85c.348-.492,2.8-.366,3.08-.121a2.408,2.408,0,0,1-.341,2.36,3.775,3.775,0,0,1-2.425.114A2.38,2.38,0,0,1,201.922,143.85Z" transform="translate(-196.642 -142.961)" fill="#1f160f"/>
            <path id="Path_990025" data-name="Path 990025" d="M190.79,143.85c.316-.492,2.541-.366,2.794-.121a2.614,2.614,0,0,1-.31,2.36c-.462.416-1.884.239-2.2.114A2.579,2.579,0,0,1,190.79,143.85Z" transform="translate(-189.761 -142.961)" fill="#1f160f"/>
          </g>
          <path id="Path_990026" data-name="Path 990026" d="M200.96,158.432c-.053,0-.086,0-.094,0a.1.1,0,0,1-.092-.1.1.1,0,0,1,.1-.093,2.22,2.22,0,0,0,1.75-.718.1.1,0,1,1,.158.117A2.312,2.312,0,0,1,200.96,158.432Z" transform="translate(-196.047 -151.104)" fill="#1f160f"/>
        </g>
      </g>
      <g id="Group_1181872" data-name="Group 1181872" transform="translate(16.669 56.548)">
        <g id="Group_1181867" data-name="Group 1181867" transform="translate(31.437 57.532)">
          <path id="Path_990027" data-name="Path 990027" d="M225.942,416.82c-1.856.064-4.193.091-6.923.018.18,1.434.361,3.029.537,4.893l.456,4.942,5.962,1.844.7-2.792-.467-3.994Z" transform="translate(-219.019 -416.82)" fill="#eba38d"/>
          <path id="Path_990028" data-name="Path 990028" d="M224.275,438.481c-.855,0-2.346.537-2.764.35s-.93-1.768-.93-1.768a16.947,16.947,0,0,0-.289,4.546h7.749c.012-4.508-.742-4.546-.742-4.546-.06,1.565-.44,2.106-1.037,1.888A5.433,5.433,0,0,0,224.275,438.481Z" transform="translate(-219.786 -429.353)" fill="#fff"/>
        </g>
        <g id="Group_1181869" data-name="Group 1181869" transform="translate(0 57.485)">
          <path id="Path_990029" data-name="Path 990029" d="M151.115,416.7l-.418,4.365c-.658,2.97-4.876,4.308-8.516,5.131l1.24,1.855,10.241-.643,2.677-2.952c.386-2.805.793-5.323,1.187-7.62C155.771,416.886,153.647,416.861,151.115,416.7Z" transform="translate(-140.008 -416.696)" fill="#eba38d"/>
          <g id="Group_1181868" data-name="Group 1181868" transform="translate(0 7.757)">
            <path id="Path_990030" data-name="Path 990030" d="M138.649,438.8c5.22,2.456,11.516-1.739,14.158-1.739a4.911,4.911,0,0,1,.181,3.619,1.226,1.226,0,0,1-1.189.927H136.488A2.34,2.34,0,0,1,138.649,438.8Z" transform="translate(-136.476 -437.062)" fill="#fff"/>
          </g>
        </g>
        <g id="Group_1181871" data-name="Group 1181871" transform="translate(9.371)">
          <path id="Path_990031" data-name="Path 990031" d="M191.818,326.808s-.046-42.313-.254-45.48,1.436-6.69-1.51-15.4l-22.97-.168c-2.286,19.167-6,60.085-6,60.085s4.861,1.283,9.041-.228l6.879-41.2,5.535,42.39A62.4,62.4,0,0,0,191.818,326.808Z" transform="translate(-161.08 -265.76)" fill="#899667"/>
          <g id="Group_1181870" data-name="Group 1181870" transform="translate(13.91 6.086)">
            <path id="Path_990032" data-name="Path 990032" d="M199.613,309.222a.1.1,0,0,1-.1-.095c0-.022-.1-2.221-.994-3a1.017,1.017,0,0,0-.81-.261.1.1,0,0,1-.02-.2,1.232,1.232,0,0,1,.959.309c.961.835,1.058,3.048,1.061,3.142a.1.1,0,0,1-.094.1Z" transform="translate(-197.603 -296.551)" fill="#1f160f"/>
            <path id="Path_990033" data-name="Path 990033" d="M226.965,285.866a5.265,5.265,0,0,1-4.906-4,.1.1,0,0,1,.062-.125.1.1,0,0,1,.125.062c1.339,4.018,4.746,3.861,4.78,3.861a.1.1,0,0,1,.1.092.1.1,0,0,1-.093.1Z" transform="translate(-212.741 -281.739)" fill="#1f160f"/>
          </g>
          <path id="Path_990034" data-name="Path 990034" d="M176.157,267.995c5.3,3,19.406,1.1,23.908.122-.193-.692-.416-1.419-.676-2.188l-22.97-.168C176.333,266.474,176.246,267.223,176.157,267.995Z" transform="translate(-170.415 -265.76)" fill="#1f160f"/>
        </g>
      </g>
      <g id="Group_1181878" data-name="Group 1181878" transform="translate(0 22.332)">
        <g id="Group_1181876" data-name="Group 1181876">
          <g id="Group_1181873" data-name="Group 1181873" transform="translate(0 45.631)">
            <path id="Path_990035" data-name="Path 990035" d="M93.089,368.315a.4.4,0,0,1-.106-.015.381.381,0,0,1-.26-.472l14.328-49.486a.381.381,0,1,1,.732.212L93.455,368.04A.381.381,0,0,1,93.089,368.315Z" transform="translate(-92.708 -309.561)" fill="#56545e"/>
            <path id="Path_990036" data-name="Path 990036" d="M130.09,305.381a.763.763,0,0,1-.732-.974l2.351-8.125a.762.762,0,0,1,1.464.424l-2.351,8.125A.762.762,0,0,1,130.09,305.381Z" transform="translate(-115.38 -295.732)" fill="#1f160f"/>
          </g>
          <g id="Group_1181874" data-name="Group 1181874" transform="translate(14.272 19.882)">
            <path id="Path_990037" data-name="Path 990037" d="M138.439,228.125a10.28,10.28,0,0,0-1.247,2.487c-.391,1.274-5.222,18.587-5.222,18.587-1.121,1.444-1.789,5.311-1.789,5.311a7.023,7.023,0,0,0,.838,2.282s-.5,1.6.384,1.873,2.085-2.2,2.212-2.714,2.207-2.047,2.716-2.935a10.155,10.155,0,0,0,.768-2.946s6.481-15,6.713-15.532,1.428-2.428,1.428-2.428Z" transform="translate(-130.181 -228.125)" fill="#eba38d"/>
          </g>
          <g id="Group_1181875" data-name="Group 1181875" transform="translate(14.438 45.069)">
            <path id="Path_990038" data-name="Path 990038" d="M132.222,297.837l-.022,0a.1.1,0,0,1-.074-.118,14.28,14.28,0,0,1,1.566-3.413.1.1,0,0,1,.136-.031.1.1,0,0,1,.031.136,14.392,14.392,0,0,0-1.541,3.353A.1.1,0,0,1,132.222,297.837Z" transform="translate(-131.549 -294.257)" fill="#1f160f"/>
            <path id="Path_990039" data-name="Path 990039" d="M130.715,296.529l-.019,0a.1.1,0,0,1-.078-.115,14.784,14.784,0,0,1,.5-1.822.1.1,0,0,1,.186.064,14.6,14.6,0,0,0-.5,1.8A.1.1,0,0,1,130.715,296.529Z" transform="translate(-130.616 -294.421)" fill="#1f160f"/>
          </g>
          <path id="Path_990040" data-name="Path 990040" d="M150.25,196.285s6.736-17.275,11.577-18.921a36.425,36.425,0,0,1,9.049-1.153,43.7,43.7,0,0,1,10.6,1.153c3.316.937,6.976,8.879,11.307,18.25,1.347,2.914-2.886,6.367-5.4,4.843-.979-.592-3.355-4.475-4.8-6.428-.869,10.65.762,10.9,1.52,17.655-16.593,2.067-24.228-.047-24.228-.047a102.271,102.271,0,0,0,.479-14.451,41.53,41.53,0,0,1-2.622,3.3A13.5,13.5,0,0,1,150.25,196.285Z" transform="translate(-128.335 -176.101)" fill="#755e75"/>
          <path id="Path_990041" data-name="Path 990041" d="M195.68,176.192c-.484,3.5.448,7.675,1.325,8,.976.357,6.616-2.285,7.918-7.834a26.108,26.108,0,0,0-5.056-.432C198.11,175.922,195.68,176.192,195.68,176.192Z" transform="translate(-156.381 -175.922)" fill="#eba38d"/>
        </g>
        <g id="Group_1181877" data-name="Group 1181877" transform="translate(31.161 7.937)">
          <path id="Path_990042" data-name="Path 990042" d="M175.377,210.011a.1.1,0,0,1-.1-.1,19.926,19.926,0,0,0-.438-3.678,5.826,5.826,0,0,1,.593-5.167,17.425,17.425,0,0,0,1.558-4.226.1.1,0,0,1,.193.039,17.583,17.583,0,0,1-1.573,4.272,5.65,5.65,0,0,0-.577,5.046,20.058,20.058,0,0,1,.442,3.713.1.1,0,0,1-.1.1Z" transform="translate(-174.526 -196.763)" fill="#1f160f"/>
          <path id="Path_990043" data-name="Path 990043" d="M229.334,209.625a.1.1,0,0,1-.084-.046,59.019,59.019,0,0,1-3.473-8.207.1.1,0,1,1,.187-.064,58.742,58.742,0,0,0,3.454,8.167.1.1,0,0,1-.032.136A.1.1,0,0,1,229.334,209.625Z" transform="translate(-206.254 -199.535)" fill="#1f160f"/>
          <path id="Path_990044" data-name="Path 990044" d="M199.436,231.808a13.3,13.3,0,0,1-4.079-.587.1.1,0,0,1,.061-.187c3.977,1.294,8.611.012,8.658,0a.1.1,0,1,1,.053.19A19.4,19.4,0,0,1,199.436,231.808Z" transform="translate(-187.382 -217.979)" fill="#1f160f"/>
        </g>
      </g>
    </g>
    <g id="Group_1181902" data-name="Group 1181902" transform="translate(83.824)">
      <g id="Group_1181886" data-name="Group 1181886" transform="translate(7.458 59.554)">
        <g id="Group_1181881" data-name="Group 1181881" transform="translate(23.037 56.899)">
          <path id="Path_990045" data-name="Path 990045" d="M334.113,427.8h-7.219l-1.5-7.351h7.208Z" transform="translate(-325.309 -420.453)" fill="#eba38d"/>
          <g id="Group_1181880" data-name="Group 1181880" transform="translate(0 4.028)">
            <path id="Path_990046" data-name="Path 990046" d="M326.276,431.921c.779.552,4.315.751,4.918.332.566-.394.262-1.3,1.79-1.22.7.038.466.862,1.364,1.448,2.215,1.443,6.464,1.425,7.635,1.67,1.64.342,2.541,1.738,2.407,3.719H326.132a.966.966,0,0,1-.967-1C325.23,435.085,325.012,433.41,326.276,431.921Z" transform="translate(-325.164 -431.028)" fill="#fff"/>
            <path id="Path_990047" data-name="Path 990047" d="M344.389,444.459a5.243,5.243,0,0,0-.011-.851H328.163a4.191,4.191,0,0,0-2.96-1.939c-.027.582-.017,1.181-.039,1.793a.965.965,0,0,0,.967,1Z" transform="translate(-325.163 -437.616)" fill="#755e75"/>
            <path id="Path_990048" data-name="Path 990048" d="M353.509,438.592a.1.1,0,0,1-.059-.177,4.378,4.378,0,0,1,1.473-.694.1.1,0,0,1,.118.074.1.1,0,0,1-.074.118,4.26,4.26,0,0,0-1.4.66A.1.1,0,0,1,353.509,438.592Z" transform="translate(-342.652 -435.171)" fill="#1f160f"/>
            <path id="Path_990049" data-name="Path 990049" d="M350.261,437.427a.1.1,0,0,1-.076-.036.1.1,0,0,1,.014-.139,3.165,3.165,0,0,1,1.289-.651.1.1,0,0,1,.021.2,3.031,3.031,0,0,0-1.185.607A.1.1,0,0,1,350.261,437.427Z" transform="translate(-340.641 -434.479)" fill="#1f160f"/>
            <path id="Path_990050" data-name="Path 990050" d="M345.091,435.516a.86.86,0,0,1-.649-.272c-.355-.373-.243-.63-.177-.724.281-.4,1.244-.358,2.341.116a.1.1,0,0,1,.026.165A2.919,2.919,0,0,1,345.091,435.516Zm-.061-1.069a.75.75,0,0,0-.6.187c-.108.155.053.364.159.475.508.534,1.45-.1,1.79-.355A3.744,3.744,0,0,0,345.029,434.447Z" transform="translate(-336.946 -433.021)" fill="#1f160f"/>
            <path id="Path_990051" data-name="Path 990051" d="M348.434,436.912l-.018,0a.1.1,0,0,1-.079-.115,3.274,3.274,0,0,1,.724-1.52.1.1,0,0,1,.137.141,3.131,3.131,0,0,0-.668,1.414A.1.1,0,0,1,348.434,436.912Z" transform="translate(-339.51 -433.641)" fill="#1f160f"/>
          </g>
        </g>
        <g id="Group_1181883" data-name="Group 1181883" transform="translate(0 56.422)">
          <path id="Path_990052" data-name="Path 990052" d="M272.6,426.418h-7.135l1.08-7.218H274Z" transform="translate(-265.165 -419.2)" fill="#eba38d"/>
          <g id="Group_1181882" data-name="Group 1181882" transform="translate(0 4.427)">
            <path id="Path_990053" data-name="Path 990053" d="M268.708,431.046c3.075,0,1.946,1.335,2.45,1.443a1.122,1.122,0,0,0,1.276-.556s.866,3.6-.165,5.949h-7.275c-.842-2.466.253-5.949.253-5.949a.671.671,0,0,0,.849.6C266.919,432.377,265.473,431.046,268.708,431.046Z" transform="translate(-264.676 -430.962)" fill="#fff"/>
            <path id="Path_990054" data-name="Path 990054" d="M264.726,444.654c.374.685,1.619.8,3.88.8a7.9,7.9,0,0,0,4.122-.807,6.01,6.01,0,0,1-.428,1.655h-7.275A6.3,6.3,0,0,1,264.726,444.654Z" transform="translate(-264.707 -439.386)" fill="#755e75"/>
            <path id="Path_990055" data-name="Path 990055" d="M270.993,439.783a.1.1,0,0,1-.018-.2,10.439,10.439,0,0,1,2.962,0,.1.1,0,0,1,.082.113.1.1,0,0,1-.113.082,10.179,10.179,0,0,0-2.9,0Z" transform="translate(-268.526 -436.182)" fill="#1f160f"/>
            <path id="Path_990056" data-name="Path 990056" d="M270.993,437.747a.1.1,0,0,1-.018-.2,10.455,10.455,0,0,1,2.962,0,.1.1,0,0,1,.082.113.1.1,0,0,1-.113.082,10.146,10.146,0,0,0-2.9,0Z" transform="translate(-268.526 -434.921)" fill="#1f160f"/>
            <path id="Path_990057" data-name="Path 990057" d="M275.071,432.467a.1.1,0,0,1-.09-.14,2.58,2.58,0,0,1,2.374-1.489.7.7,0,0,1,.663.561.487.487,0,0,1-.112.415c-.526.636-2.742.653-2.836.654h0Zm2.112-1.443a2.47,2.47,0,0,0-1.949,1.243c.708-.02,2.164-.147,2.522-.58a.3.3,0,0,0,.07-.254.516.516,0,0,0-.5-.4A1.239,1.239,0,0,0,277.183,431.024Z" transform="translate(-271.051 -430.826)" fill="#1f160f"/>
            <path id="Path_990058" data-name="Path 990058" d="M277.2,435.888a.1.1,0,0,1-.077-.037,4.125,4.125,0,0,0-2.074-1.041.1.1,0,0,1-.07-.12.1.1,0,0,1,.12-.07,4.2,4.2,0,0,1,2.178,1.109.1.1,0,0,1-.016.138A.1.1,0,0,1,277.2,435.888Z" transform="translate(-271.051 -433.172)" fill="#1f160f"/>
            <path id="Path_990059" data-name="Path 990059" d="M270.423,432.466h0c-.094,0-2.31-.018-2.836-.654a.488.488,0,0,1-.113-.415.7.7,0,0,1,.664-.561,2.577,2.577,0,0,1,2.374,1.489.1.1,0,0,1-.006.095A.1.1,0,0,1,270.423,432.466Zm-2.112-1.443a1.239,1.239,0,0,0-.148.009.516.516,0,0,0-.5.4.294.294,0,0,0,.071.254c.358.433,1.814.56,2.522.58A2.471,2.471,0,0,0,268.31,431.023Z" transform="translate(-266.403 -430.825)" fill="#1f160f"/>
            <path id="Path_990060" data-name="Path 990060" d="M269.489,435.888a.1.1,0,0,1-.077-.159,4.2,4.2,0,0,1,2.178-1.109.1.1,0,0,1,.05.19,4.126,4.126,0,0,0-2.074,1.041A.1.1,0,0,1,269.489,435.888Z" transform="translate(-267.595 -433.172)" fill="#1f160f"/>
          </g>
        </g>
        <g id="Group_1181885" data-name="Group 1181885" transform="translate(0.141)">
          <path id="Path_990061" data-name="Path 990061" d="M291.322,271.056H267.213c-1.547,6.679-.322,12.871-.531,16.038s-1.635,42.424-1.635,42.424c2.593,1.09,9.873.278,9.873.278l5.1-40.964,7.636,40.92c2.665,1.017,8.671-.176,8.671-.176C295.366,306.444,293.072,285.109,291.322,271.056Z" transform="translate(-265.047 -271.056)" fill="#755e75"/>
          <g id="Group_1181884" data-name="Group 1181884" transform="translate(0.613 2.14)">
            <path id="Path_990062" data-name="Path 990062" d="M304.2,292.907h-.013a.1.1,0,0,1-.085-.111c.016-.122,1.622-12.213,1.844-15.225a.094.094,0,0,1,.105-.091.1.1,0,0,1,.091.105c-.223,3.017-1.829,15.114-1.845,15.236A.1.1,0,0,1,304.2,292.907Z" transform="translate(-289.842 -277.173)" fill="#1f160f"/>
            <path id="Path_990063" data-name="Path 990063" d="M306,288.3a2.539,2.539,0,0,1-.4-.032.1.1,0,0,1-.082-.113.1.1,0,0,1,.113-.082,1.791,1.791,0,0,0,1.491-.363c1.525-1.238,1.717-5.1,1.9-8.837.037-.735.071-1.428.116-2.107a.1.1,0,0,1,.1-.092.1.1,0,0,1,.092.1c-.045.677-.079,1.37-.116,2.1-.188,3.78-.383,7.688-1.976,8.981A1.929,1.929,0,0,1,306,288.3Z" transform="translate(-290.72 -276.674)" fill="#1f160f"/>
            <path id="Path_990064" data-name="Path 990064" d="M282.187,356.008c-1.079,0-1.924-.083-1.94-.085a.1.1,0,0,1,.02-.2,16.765,16.765,0,0,0,4.922-.233.1.1,0,0,1,.053.19A12.087,12.087,0,0,1,282.187,356.008Z" transform="translate(-275.016 -325.472)" fill="#1f160f"/>
            <path id="Path_990065" data-name="Path 990065" d="M317.156,352.025a.1.1,0,0,1-.1-.079c-.187-.915-4.587-22.433-4.264-23.363a2.046,2.046,0,0,1,.817-1.017,3.837,3.837,0,0,1-1.639-.372c-1.365-.6-2.858-15.016-3.023-16.657a.1.1,0,0,1,.2-.02c.646,6.4,1.953,16.076,2.907,16.5a3.074,3.074,0,0,0,2.088.281l.019-.006a.1.1,0,0,1,.123.061.1.1,0,0,1-.057.125l-.022.008a2.1,2.1,0,0,0-1.223,1.166c-.254.73,3,17.037,4.271,23.259a.1.1,0,0,1-.077.117Z" transform="translate(-292.842 -297.573)" fill="#1f160f"/>
            <path id="Path_990066" data-name="Path 990066" d="M326.254,417.96c-1.166,0-1.965-.069-1.985-.071a.1.1,0,1,1,.018-.2,22.654,22.654,0,0,0,7.992-.764.1.1,0,0,1,.126.06.1.1,0,0,1-.06.126A19.323,19.323,0,0,1,326.254,417.96Z" transform="translate(-302.272 -363.509)" fill="#1f160f"/>
            <path id="Path_990067" data-name="Path 990067" d="M270.993,343.582h0a.1.1,0,0,1-.1-.1c.021-.885.511-21.7.977-23.405a1.341,1.341,0,0,1,.7-.852,1.767,1.767,0,0,1-.726-.492c-.142-.178-.116-1.653-.006-5.822.124-4.659.294-11.04.051-16.065a.1.1,0,0,1,.094-.1.093.093,0,0,1,.1.094c.243,5.033.073,11.417-.051,16.08a54.419,54.419,0,0,0-.034,5.7,1.854,1.854,0,0,0,.883.505.1.1,0,0,1,0,.192,1.185,1.185,0,0,0-.829.817c-.46,1.68-.966,23.141-.971,23.358A.1.1,0,0,1,270.993,343.582Z" transform="translate(-269.28 -289.099)" fill="#1f160f"/>
            <path id="Path_990068" data-name="Path 990068" d="M272.311,419.355c-2.735,0-5.525-.214-5.565-.217a.1.1,0,0,1-.09-.106.1.1,0,0,1,.106-.09,61.154,61.154,0,0,0,8.731.073.1.1,0,0,1,.109.087.1.1,0,0,1-.086.109A29.342,29.342,0,0,1,272.311,419.355Z" transform="translate(-266.656 -364.758)" fill="#1f160f"/>
          </g>
          <path id="Path_990069" data-name="Path 990069" d="M269.658,273.2c.188-1.1.213-1.349.41-2.147h24.109c.112.9.122,1.115.251,2.078C292.728,273.272,276.887,274.1,269.658,273.2Z" transform="translate(-267.902 -271.056)" fill="#1f160f"/>
        </g>
      </g>
      <g id="Group_1181892" data-name="Group 1181892" transform="translate(15.003)">
        <g id="Group_1181887" data-name="Group 1181887" transform="translate(3.457 16.53)">
          <path id="Path_990070" data-name="Path 990070" d="M301.467,165.739l-7.9.161v-7.811h7.9Z" transform="translate(-293.564 -158.089)" fill="#eba38d"/>
          <path id="Path_990071" data-name="Path 990071" d="M303.477,163.6v-5.506h-6.654S296.211,164.192,303.477,163.6Z" transform="translate(-295.574 -158.089)" fill="#1f160f"/>
        </g>
        <g id="Group_1181891" data-name="Group 1181891">
          <path id="Path_990072" data-name="Path 990072" d="M288.278,116.692c.921-1.69,9.862-3.766,8.523.6,0,0,7.808-.79,3.161,6.871-.352,1.4-.383,3.572-1.336,5.237l-12.1-.24c-1.351-4.52-2.476-5.895-1.176-9.484C285.352,119.672,283.981,117.471,288.278,116.692Z" transform="translate(-284.667 -114.688)" fill="#1f160f"/>
          <path id="Path_990073" data-name="Path 990073" d="M303.352,135.563c-.1,5.874-1.061,8.052-5.166,7.981s-7.117-2.32-7.014-8.193,3.925-7.779,6.227-7.738S303.455,129.693,303.352,135.563Z" transform="translate(-288.624 -122.689)" fill="#eba38d"/>
          <g id="Group_1181888" data-name="Group 1181888" transform="translate(0 10.476)">
            <path id="Path_990074" data-name="Path 990074" d="M284.516,143.981c.254-1.908,1.586-2.4,2.958-.929l-.074,4.264C285.66,148.708,284.263,145.889,284.516,143.981Z" transform="translate(-284.487 -142.194)" fill="#eba38d"/>
            <path id="Path_990075" data-name="Path 990075" d="M286.127,145.788a.09.09,0,0,1-.028,0,.1.1,0,0,1-.066-.123,1,1,0,0,1,.764-.791,1.2,1.2,0,0,1,1.117.58.1.1,0,0,1-.162.112,1.014,1.014,0,0,0-.924-.5.819.819,0,0,0-.606.653A.1.1,0,0,1,286.127,145.788Z" transform="translate(-285.441 -143.845)" fill="#1f160f"/>
          </g>
          <g id="Group_1181890" data-name="Group 1181890" transform="translate(6.66 9.883)">
            <path id="Path_990076" data-name="Path 990076" d="M310.162,150.574a.725.725,0,0,1-.3-.063.1.1,0,0,1,.081-.18.742.742,0,0,0,.686-.115c.216-.144.313-.31.31-.376a2.19,2.19,0,0,0-.136-.422,5.066,5.066,0,0,1-.415-1.83.1.1,0,0,1,.1-.1h0a.1.1,0,0,1,.1.1,4.9,4.9,0,0,0,.4,1.757,1.988,1.988,0,0,1,.149.484c.006.19-.2.412-.4.547A1.055,1.055,0,0,1,310.162,150.574Z" transform="translate(-306.823 -144.882)" fill="#1f160f"/>
            <path id="Path_990077" data-name="Path 990077" d="M316.211,145.4c-.006.364-.208.655-.451.651s-.434-.3-.427-.666.208-.655.451-.651S316.217,145.035,316.211,145.4Z" transform="translate(-310.245 -143.173)" fill="#1f160f"/>
            <path id="Path_990078" data-name="Path 990078" d="M316.031,142.045a.3.3,0,0,1-.136-.033,2.132,2.132,0,0,0-1.589-.183.3.3,0,1,1-.119-.579,2.706,2.706,0,0,1,1.98.238.3.3,0,0,1-.136.558Z" transform="translate(-309.39 -140.965)" fill="#1f160f"/>
            <path id="Path_990079" data-name="Path 990079" d="M304.523,145.147c-.006.364.185.662.427.666s.444-.287.451-.651-.185-.662-.427-.666S304.529,144.783,304.523,145.147Z" transform="translate(-303.552 -143.027)" fill="#1f160f"/>
            <path id="Path_990080" data-name="Path 990080" d="M302.271,141.575a.3.3,0,0,1-.154-.548,2.868,2.868,0,0,1,2.215-.3.3.3,0,1,1-.1.582,2.285,2.285,0,0,0-1.805.228A.3.3,0,0,1,302.271,141.575Z" transform="translate(-301.975 -140.638)" fill="#1f160f"/>
            <g id="Group_1181889" data-name="Group 1181889" transform="translate(1.797 6.432)">
              <path id="Path_990081" data-name="Path 990081" d="M309.259,157.888a3.27,3.27,0,0,1-2.556-.361s-.2,1.347,1.064,1.47A1.284,1.284,0,0,0,309.259,157.888Z" transform="translate(-306.692 -157.527)" fill="#1f160f"/>
              <path id="Path_990082" data-name="Path 990082" d="M309.013,159.656a1.976,1.976,0,0,0-2.083-.4,1.064,1.064,0,0,0,.985.725A1.31,1.31,0,0,0,309.013,159.656Z" transform="translate(-306.839 -158.513)" fill="#9e594f"/>
            </g>
          </g>
          <path id="Path_990083" data-name="Path 990083" d="M298.145,124.175c2.212.038,4.808.861,5.186,2.147.925,3.146-2.281,2.377-2.96,2.071-.436-.2.23,1.761-4.627-.641-.563,2.773-1.573,1.816-2.66,5.7-.225.8-1.5-.66-1.541-1.845C291.5,130.544,291.7,124.062,298.145,124.175Z" transform="translate(-288.853 -120.561)" fill="#1f160f"/>
        </g>
      </g>
      <g id="Group_1181901" data-name="Group 1181901" transform="translate(0 15.173)">
        <g id="Group_1181895" data-name="Group 1181895" transform="translate(36.289)">
          <path id="Path_990084" data-name="Path 990084" d="M345.469,216.25l-5.094,4.094s2.571,4.38,6.191,5.559l1.2-6.473Z" transform="translate(-340.375 -192.742)" fill="#1f160f"/>
          <path id="Path_990085" data-name="Path 990085" d="M362.442,166.348a15.829,15.829,0,0,0-.594-3.184,11.031,11.031,0,0,1-.11-2.58c.1-.385,1.1-2.672,1.1-2.672.742,0,.966.983.847,1.358a14.727,14.727,0,0,0-.4,1.839,2.194,2.194,0,0,0,.514,1.764c.9-1.053,2.073-7.015,2.321-7.533a.466.466,0,0,1,.9.212c-.031.5-.771,5.327-.793,5.457s.1.193.184.046,1.254-5.316,1.543-6.048c.322-.814,1.162-.555.979.465s-1.393,5.84-1.418,5.931.079.177.161.054c.124-.185,1.879-4.752,2.011-5,.248-.461,1.037-.155.932.432s-1.715,4.977-1.74,5.071.105.195.181.083c.161-.239,1.717-2.826,2.055-3.253.358-.452,1.025-.125.613.512a33.354,33.354,0,0,0-1.606,3.3c-.065.227-.711,4.108-3.246,6.264-.455.387-6.319,20.626-13.162,19.055-4.619-1.06-3.1-5.132-1.663-6.571C355.8,177.582,362.442,166.348,362.442,166.348Z" transform="translate(-346.711 -154.527)" fill="#fff"/>
          <g id="Group_1181893" data-name="Group 1181893" transform="translate(14.983)">
            <path id="Path_990086" data-name="Path 990086" d="M381.815,168.375a2.194,2.194,0,0,1-.514-1.764,14.727,14.727,0,0,1,.4-1.839c.12-.376-.1-1.36-.847-1.358,0,0-1,2.287-1.1,2.672a11.031,11.031,0,0,0,.11,2.58,15.885,15.885,0,0,1,.594,3.184C382.006,171.4,382.2,169.136,381.815,168.375Z" transform="translate(-379.716 -160.029)" fill="#56545e"/>
            <path id="Path_990087" data-name="Path 990087" d="M387.68,161.433a1.21,1.21,0,0,0,1.5.4c.022-.13.762-4.955.793-5.457a.466.466,0,0,0-.9-.212c-.166.347-.749,3.147-1.387,5.27Z" transform="translate(-384.647 -155.349)" fill="#56545e"/>
            <path id="Path_990088" data-name="Path 990088" d="M393.2,161.4c.026-.091,1.235-4.911,1.418-5.931s-.657-1.279-.979-.465c-.289.731-1.454,5.9-1.543,6.048A1.382,1.382,0,0,0,393.2,161.4Z" transform="translate(-387.379 -154.527)" fill="#56545e"/>
            <path id="Path_990089" data-name="Path 990089" d="M397.426,159.243c-.132.246-1.887,4.813-2.011,5,.187.52,1.2.506,1.2.506.024-.093,1.634-4.483,1.74-5.071S397.673,158.782,397.426,159.243Z" transform="translate(-389.436 -157.309)" fill="#56545e"/>
            <path id="Path_990090" data-name="Path 990090" d="M401.1,165.391c-.339.427-1.894,3.014-2.055,3.253a1.911,1.911,0,0,0,1.062.558,33.517,33.517,0,0,1,1.606-3.3C402.126,165.265,401.459,164.939,401.1,165.391Z" transform="translate(-391.684 -161.123)" fill="#56545e"/>
          </g>
          <g id="Group_1181894" data-name="Group 1181894" transform="translate(5.767 8.677)">
            <path id="Path_990091" data-name="Path 990091" d="M391.663,180.2a.1.1,0,0,1-.1-.083,5.406,5.406,0,0,0-1.262-2.635.1.1,0,0,1,0-.139.1.1,0,0,1,.139,0,5.507,5.507,0,0,1,1.32,2.745.1.1,0,0,1-.082.113Z" transform="translate(-377.037 -177.31)" fill="#1f160f"/>
            <path id="Path_990092" data-name="Path 990092" d="M357.14,231.736a1.622,1.622,0,1,1,1.622-1.622A1.624,1.624,0,0,1,357.14,231.736Zm0-3.047a1.425,1.425,0,1,0,1.425,1.425A1.426,1.426,0,0,0,357.14,228.689Z" transform="translate(-355.518 -208.999)" fill="#1f160f"/>
            <path id="Path_990093" data-name="Path 990093" d="M359.617,203.956a.1.1,0,0,1-.077-.16c.066-.084,6.637-8.475,9.5-15.192a.1.1,0,0,1,.182.077c-2.876,6.742-9.463,15.153-9.529,15.237A.1.1,0,0,1,359.617,203.956Z" transform="translate(-357.995 -184.266)" fill="#1f160f"/>
            <path id="Path_990094" data-name="Path 990094" d="M385.948,188.622a.11.11,0,0,1-.025,0c-.11-.028-2.7-.7-3.818-2.192a.1.1,0,0,1,.158-.118c1.073,1.432,3.683,2.113,3.71,2.119a.1.1,0,0,1-.024.194Z" transform="translate(-371.967 -182.857)" fill="#1f160f"/>
          </g>
        </g>
        <path id="Path_990095" data-name="Path 990095" d="M266.709,212.8c14.12.3,26.088-.308,26.088-.308-.564-18.293-.8-19.658-.8-19.658l3.126,4.051a21.461,21.461,0,0,0,5.741-5.471s-7.482-13.686-9.954-14.7c-1.827-.753-4.732-1.1-9.386-1.248-3.288-.106-9.372,0-11.954.863C266.141,177.475,266.709,212.8,266.709,212.8Z" transform="translate(-258.454 -167.468)" fill="#9e594f"/>
        <g id="Group_1181896" data-name="Group 1181896" transform="translate(8.275 26.028)">
          <path id="Path_990096" data-name="Path 990096" d="M292.479,238.414q-.032-.816-.061-1.523c-4.109.118-17.432.429-25.571-.257q-.015.772-.028,1.528c3.994.334,9.122.434,13.831.434C285.741,238.594,290.338,238.478,292.479,238.414Z" transform="translate(-266.819 -231.39)" fill="#fff"/>
          <path id="Path_990097" data-name="Path 990097" d="M267.2,222.868q-.029.76-.053,1.522c5.965.173,18.409.5,25.316.434-.033-.655-.061-1.151-.085-1.522C285.477,223.365,273.133,223.041,267.2,222.868Z" transform="translate(-267.02 -222.868)" fill="#fff"/>
        </g>
        <path id="Path_990098" data-name="Path 990098" d="M290,175.479c.286,2.07,2.407,5.157,5.121,5.744.409.936,1.188,2.647,1.413,2.621s.485-1.78.6-2.685c2.194-.649,3.147-3.188,3.178-5.49-1.247-.113-2.688-.226-4.351-.278C294.385,175.34,292.169,175.372,290,175.479Z" transform="translate(-272.897 -167.43)" fill="#eba38d"/>
        <path id="Path_990099" data-name="Path 990099" d="M260.807,184.613,256,197.71s-5.446-1.722-8.257-3.767c2.624-6.482,7.431-15.539,10.108-16.163Z" transform="translate(-246.732 -168.924)" fill="#9e594f"/>
        <g id="Group_1181897" data-name="Group 1181897" transform="translate(9.167 15.59)">
          <path id="Path_990100" data-name="Path 990100" d="M332.406,205.658a.1.1,0,0,1-.1-.1c-.072-2.408-.366-9.407-.369-9.477a.1.1,0,0,1,.094-.1.1.1,0,0,1,.1.094c0,.07.3,7.071.369,9.48a.1.1,0,0,1-.1.1Z" transform="translate(-308.029 -195.784)" fill="#1f160f"/>
          <path id="Path_990101" data-name="Path 990101" d="M269.26,208.755a.1.1,0,0,1-.034-.006.1.1,0,0,1-.059-.126l4.809-13.1a.1.1,0,0,1,.185.068l-4.809,13.1A.1.1,0,0,1,269.26,208.755Z" transform="translate(-269.161 -195.46)" fill="#1f160f"/>
        </g>
        <g id="Group_1181898" data-name="Group 1181898" transform="translate(0 25.397)">
          <path id="Path_990102" data-name="Path 990102" d="M259.286,245.787c-.674,2.9-3.988,3.569-3.988,3.569s-10.152-19.57-10.205-22.167a19.814,19.814,0,0,1,1.562-5.978,40.273,40.273,0,0,0,7.7,3.389l-1.028,2.8Z" transform="translate(-245.093 -221.211)" fill="#eba38d"/>
          <path id="Path_990103" data-name="Path 990103" d="M261.8,237.443c-.68,0-1.386-.038-1.43-.04a.1.1,0,0,1-.093-.1.106.106,0,0,1,.1-.093,19.554,19.554,0,0,0,2.338,0,.1.1,0,0,1,.024.2A8.366,8.366,0,0,1,261.8,237.443Z" transform="translate(-254.493 -231.114)" fill="#1f160f"/>
          <path id="Path_990104" data-name="Path 990104" d="M271.436,288.2a.1.1,0,0,1-.007-.2,5.157,5.157,0,0,0,4.247-4.141.1.1,0,0,1,.121-.07.1.1,0,0,1,.07.121,5.349,5.349,0,0,1-4.424,4.286Z" transform="translate(-261.342 -259.956)" fill="#1f160f"/>
        </g>
        <g id="Group_1181900" data-name="Group 1181900" transform="translate(3.993 28.687)">
          <path id="Path_990105" data-name="Path 990105" d="M261.007,230.111c2.513,2.8,2.868,5.215,2.708,6.324a3.751,3.751,0,0,1-1.818,3.1,3.922,3.922,0,0,1-2.089.687.8.8,0,0,1-.42-.993,5.539,5.539,0,0,1-1.647.248,1,1,0,0,1-.42-1.022,2.657,2.657,0,0,1-1.026.077,1.139,1.139,0,0,1-.446-1.062c.08-.277.714-.535.714-.535s-.67-.786-.107-1.33a22.2,22.2,0,0,1,3.832-1.747l-.308-.953Z" transform="translate(-255.734 -230.011)" fill="#eba38d"/>
          <g id="Group_1181899" data-name="Group 1181899">
            <path id="Path_990106" data-name="Path 990106" d="M259.794,240.186a.405.405,0,0,1-.192-.037.885.885,0,0,1-.505-.942,3.985,3.985,0,0,1-1.56.2,1.011,1.011,0,0,1-.485-.983,2.182,2.182,0,0,1-.949.043,1.228,1.228,0,0,1-.507-1.182c.07-.243.452-.452.654-.547a1.032,1.032,0,0,1-.021-1.362,20.26,20.26,0,0,1,3.778-1.735l-.28-.863a.1.1,0,0,1,0-.064l1.028-2.8a.1.1,0,0,1,.185.068l-1.017,2.767.3.921a.1.1,0,0,1-.06.123,22.4,22.4,0,0,0-3.8,1.725c-.489.473.089,1.166.114,1.2a.1.1,0,0,1,.021.087.1.1,0,0,1-.058.068c-.228.093-.608.3-.657.472a1.06,1.06,0,0,0,.386.943,2.475,2.475,0,0,0,.969-.081.1.1,0,0,1,.091.023.1.1,0,0,1,.03.089c0,.027-.11.669.368.917a5.012,5.012,0,0,0,1.576-.256.1.1,0,0,1,.117.131.7.7,0,0,0,.375.87,4.113,4.113,0,0,0,1.993-.687.1.1,0,0,1,.1.171A5.292,5.292,0,0,1,259.794,240.186Z" transform="translate(-255.576 -229.848)" fill="#1f160f"/>
            <path id="Path_990107" data-name="Path 990107" d="M257.59,245.323a.1.1,0,0,1-.018-.2,27.111,27.111,0,0,0,4.167-1.625.1.1,0,1,1,.085.178,26.6,26.6,0,0,1-4.217,1.641Z" transform="translate(-256.762 -238.296)" fill="#1f160f"/>
            <path id="Path_990108" data-name="Path 990108" d="M259.582,249.716a.1.1,0,0,1-.021-.2,25.976,25.976,0,0,0,3.665-1.38.1.1,0,0,1,.131.048.1.1,0,0,1-.049.131,25.626,25.626,0,0,1-3.706,1.393Z" transform="translate(-257.995 -241.169)" fill="#1f160f"/>
            <path id="Path_990109" data-name="Path 990109" d="M265.008,252.639a.1.1,0,0,1-.013-.2,6.112,6.112,0,0,0,2.062-.823.1.1,0,0,1,.107.165,6.181,6.181,0,0,1-2.143.852Z" transform="translate(-261.355 -243.318)" fill="#1f160f"/>
          </g>
        </g>
      </g>
    </g>
    <g id="Group_1181903" data-name="Group 1181903" transform="translate(24.509 0.843)">
      <path id="Path_990110" data-name="Path 990110" d="M412.516,279.627c-1.049.374-1.284.677-1.573,2.03-.29-1.354-.524-1.657-1.573-2.03,1.049-.374,1.284-.677,1.573-2.03C411.232,278.951,411.467,279.253,412.516,279.627Z" transform="translate(-287.488 -216.395)" fill="#fff"/>
      <path id="Path_990111" data-name="Path 990111" d="M92.5,197.96c-1.049.374-1.284.677-1.573,2.03-.29-1.354-.524-1.657-1.573-2.03,1.049-.374,1.284-.677,1.573-2.03C91.214,197.284,91.449,197.586,92.5,197.96Z" transform="translate(-89.351 -165.831)" fill="#fff"/>
      <path id="Path_990112" data-name="Path 990112" d="M374.692,118.931c-1.049.374-1.284.677-1.573,2.03-.289-1.354-.524-1.657-1.573-2.03,1.049-.374,1.284-.677,1.573-2.03C373.408,118.255,373.643,118.558,374.692,118.931Z" transform="translate(-264.069 -116.901)" fill="#fff"/>
      <path id="Path_990113" data-name="Path 990113" d="M92.5,310.855c-1.049.374-1.284.677-1.573,2.03-.29-1.354-.524-1.656-1.573-2.03,1.049-.374,1.284-.677,1.573-2.03C91.214,310.179,91.449,310.482,92.5,310.855Z" transform="translate(-89.351 -235.729)" fill="#fff"/>
      <path id="Path_990114" data-name="Path 990114" d="M370.519,325.146c-2.1.736-2.413,1.333-2.8,5.332-.387-4-.7-4.6-2.8-5.332,2.1-.736,2.413-1.333,2.8-5.332C368.105,323.813,368.419,324.409,370.519,325.146Z" transform="translate(-259.967 -242.533)" fill="#fff"/>
      <path id="Path_990115" data-name="Path 990115" d="M108.249,214.322c-2.1.736-2.413,1.333-2.8,5.332-.387-4-.7-4.6-2.8-5.332,2.1-.736,2.413-1.333,2.8-5.332C105.836,212.989,106.149,213.585,108.249,214.322Z" transform="translate(-97.585 -173.917)" fill="#fff"/>
    </g>
  </g>
</svg>
