<svg xmlns="http://www.w3.org/2000/svg" xmlns:xlink="http://www.w3.org/1999/xlink" width="505" height="331" viewBox="0 0 505 331">
  <defs>
    <clipPath id="clip-path">
      <rect id="Rectangle_454345" data-name="Rectangle 454345" width="505" height="331" rx="20" transform="translate(401 331) rotate(180)" fill="#a8b8ff"/>
    </clipPath>
    <clipPath id="clip-path-2">
      <rect id="Rectangle_454304" data-name="Rectangle 454304" width="22.255" height="105.961" fill="none"/>
    </clipPath>
    <clipPath id="clip-path-3">
      <rect id="Rectangle_454305" data-name="Rectangle 454305" width="15.7" height="18.989" transform="translate(0 0)" fill="none"/>
    </clipPath>
    <clipPath id="clip-path-4">
      <rect id="Rectangle_454323" data-name="Rectangle 454323" width="318.795" height="241.609" fill="none" stroke="#2142dc" stroke-width="1"/>
    </clipPath>
    <clipPath id="clip-path-5">
      <rect id="Rectangle_454306" data-name="Rectangle 454306" width="318.795" height="210.559" fill="none" stroke="#2142dc" stroke-width="1"/>
    </clipPath>
    <clipPath id="clip-path-6">
      <rect id="Rectangle_454307" data-name="Rectangle 454307" width="309.25" height="207.922" fill="none" stroke="#2142dc" stroke-width="1"/>
    </clipPath>
    <clipPath id="clip-path-7">
      <rect id="Rectangle_454308" data-name="Rectangle 454308" width="299.861" height="205.289" fill="none" stroke="#2142dc" stroke-width="1"/>
    </clipPath>
    <clipPath id="clip-path-8">
      <rect id="Rectangle_454309" data-name="Rectangle 454309" width="290.643" height="202.659" fill="none" stroke="#2142dc" stroke-width="1"/>
    </clipPath>
    <clipPath id="clip-path-9">
      <rect id="Rectangle_454310" data-name="Rectangle 454310" width="281.597" height="200.034" fill="none" stroke="#2142dc" stroke-width="1"/>
    </clipPath>
    <clipPath id="clip-path-10">
      <rect id="Rectangle_454311" data-name="Rectangle 454311" width="272.727" height="198.212" fill="none" stroke="#2142dc" stroke-width="1"/>
    </clipPath>
    <clipPath id="clip-path-11">
      <rect id="Rectangle_454312" data-name="Rectangle 454312" width="264.028" height="201.291" fill="none" stroke="#2142dc" stroke-width="1"/>
    </clipPath>
    <clipPath id="clip-path-12">
      <rect id="Rectangle_454313" data-name="Rectangle 454313" width="255.495" height="204.371" fill="none" stroke="#2142dc" stroke-width="1"/>
    </clipPath>
    <clipPath id="clip-path-13">
      <rect id="Rectangle_454314" data-name="Rectangle 454314" width="247.118" height="207.451" fill="none" stroke="#2142dc" stroke-width="1"/>
    </clipPath>
    <clipPath id="clip-path-14">
      <rect id="Rectangle_454315" data-name="Rectangle 454315" width="238.89" height="210.529" fill="none" stroke="#2142dc" stroke-width="1"/>
    </clipPath>
    <clipPath id="clip-path-15">
      <rect id="Rectangle_454316" data-name="Rectangle 454316" width="230.796" height="213.609" fill="none" stroke="#2142dc" stroke-width="1"/>
    </clipPath>
    <clipPath id="clip-path-16">
      <rect id="Rectangle_454317" data-name="Rectangle 454317" width="222.828" height="216.689" fill="none" stroke="#2142dc" stroke-width="1"/>
    </clipPath>
    <clipPath id="clip-path-17">
      <rect id="Rectangle_454318" data-name="Rectangle 454318" width="214.975" height="219.768" fill="none" stroke="#2142dc" stroke-width="1"/>
    </clipPath>
    <clipPath id="clip-path-18">
      <rect id="Rectangle_454319" data-name="Rectangle 454319" width="207.235" height="222.847" fill="none" stroke="#2142dc" stroke-width="1"/>
    </clipPath>
    <clipPath id="clip-path-19">
      <rect id="Rectangle_454320" data-name="Rectangle 454320" width="199.599" height="225.927" fill="none" stroke="#2142dc" stroke-width="1"/>
    </clipPath>
    <clipPath id="clip-path-20">
      <rect id="Rectangle_454321" data-name="Rectangle 454321" width="192.066" height="229.006" fill="none" stroke="#2142dc" stroke-width="1"/>
    </clipPath>
    <clipPath id="clip-path-21">
      <rect id="Rectangle_454322" data-name="Rectangle 454322" width="184.638" height="232.086" fill="none" stroke="#2142dc" stroke-width="1"/>
    </clipPath>
    <clipPath id="clip-path-40">
      <rect id="Rectangle_454344" data-name="Rectangle 454344" width="250.092" height="249.512" fill="none"/>
    </clipPath>
    <clipPath id="clip-path-41">
      <rect id="Rectangle_454342" data-name="Rectangle 454342" width="250.092" height="249.512" fill="none" stroke="#c9cff6" stroke-width="1"/>
    </clipPath>
    <clipPath id="clip-path-42">
      <rect id="Rectangle_454343" data-name="Rectangle 454343" width="10.168" height="10.145" fill="#a8b8ff"/>
    </clipPath>
  </defs>
  <g id="imgfondoaccion1" transform="translate(-284.711 -17142)">
    <rect id="imgfondoaccion1-2" data-name="imgfondoaccion1" width="505" height="330" rx="20" transform="translate(284.711 17142.328)" fill="#cdeceb"/>
    <g id="Mask_Group_1098930" data-name="Mask Group 1098930" transform="translate(388.711 17142)" clip-path="url(#clip-path)">
      <g id="Group_1176833" data-name="Group 1176833" transform="translate(-84 147)">
        <g id="Group_1176832" data-name="Group 1176832" clip-path="url(#clip-path-2)">
          <path id="Path_988786" data-name="Path 988786" d="M11.128,0h0A10.753,10.753,0,0,0,21.881,10.753,10.752,10.752,0,0,0,11.128,21.5,10.752,10.752,0,0,0,.375,10.753,10.753,10.753,0,0,0,11.128,0" fill="#fff"/>
          <path id="Path_988787" data-name="Path 988787" d="M11.128,42.04h0A10.753,10.753,0,0,0,21.881,52.793,10.752,10.752,0,0,0,11.128,63.545,10.752,10.752,0,0,0,.375,52.793,10.753,10.753,0,0,0,11.128,42.04Z" fill="none" stroke="#fff" stroke-linecap="round" stroke-linejoin="round" stroke-width="0.75"/>
          <path id="Path_988788" data-name="Path 988788" d="M11.128,84.08h0A10.753,10.753,0,0,0,21.881,94.833a10.753,10.753,0,0,0-10.753,10.753A10.753,10.753,0,0,0,.375,94.833,10.753,10.753,0,0,0,11.128,84.08Z" fill="none" stroke="#fff" stroke-linecap="round" stroke-linejoin="round" stroke-width="0.75"/>
        </g>
      </g>
      <g id="Group_1176835" data-name="Group 1176835" transform="translate(-80.723 289)">
        <g id="Group_1176834" data-name="Group 1176834" clip-path="url(#clip-path-3)">
          <path id="Path_988789" data-name="Path 988789" d="M2.542,17.718a1.271,1.271,0,1,1-1.271-1.271,1.271,1.271,0,0,1,1.271,1.271" fill="#fff"/>
          <path id="Path_988790" data-name="Path 988790" d="M9.121,17.718A1.271,1.271,0,1,1,7.85,16.447a1.271,1.271,0,0,1,1.271,1.271" fill="#fff"/>
          <path id="Path_988791" data-name="Path 988791" d="M15.7,17.718a1.271,1.271,0,1,1-1.271-1.271A1.271,1.271,0,0,1,15.7,17.718" fill="#fff"/>
          <path id="Path_988792" data-name="Path 988792" d="M2.542,9.495A1.271,1.271,0,1,1,1.271,8.224,1.271,1.271,0,0,1,2.542,9.495" fill="#fff"/>
          <path id="Path_988793" data-name="Path 988793" d="M9.121,9.495A1.271,1.271,0,1,1,7.85,8.224,1.271,1.271,0,0,1,9.121,9.495" fill="#fff"/>
          <path id="Path_988794" data-name="Path 988794" d="M15.7,9.495a1.271,1.271,0,1,1-1.271-1.271A1.271,1.271,0,0,1,15.7,9.495" fill="#fff"/>
          <path id="Path_988795" data-name="Path 988795" d="M2.542,1.271A1.271,1.271,0,1,1,1.271,0,1.271,1.271,0,0,1,2.542,1.271" fill="#fff"/>
          <path id="Path_988796" data-name="Path 988796" d="M9.121,1.271A1.271,1.271,0,1,1,7.85,0,1.271,1.271,0,0,1,9.121,1.271" fill="#fff"/>
          <path id="Path_988797" data-name="Path 988797" d="M15.7,1.271A1.271,1.271,0,1,1,14.429,0,1.271,1.271,0,0,1,15.7,1.271" fill="#fff"/>
        </g>
      </g>
      <g id="Group_1176888" data-name="Group 1176888" transform="translate(137.741 252.961)" opacity="0.5">
        <g id="Group_1176887" data-name="Group 1176887" clip-path="url(#clip-path-4)">
          <g id="Group_1176838" data-name="Group 1176838" transform="translate(0 31.05)">
            <g id="Group_1176837" data-name="Group 1176837">
              <g id="Group_1176836" data-name="Group 1176836" clip-path="url(#clip-path-5)">
                <path id="Path_988798" data-name="Path 988798" d="M789.312,756.648c-29.554-14.97-55.972-37.574-71.256-66.969s-18.316-65.927-3.926-95.768,47.483-50.872,80.4-47.113c22.422,2.561,42.1,15.382,62.488,25.066A237.9,237.9,0,0,0,980.9,593.682c16.082-1.531,33.832-5.9,42.43-19.573" transform="translate(-704.676 -546.226)" fill="none" stroke="#2142dc" stroke-linecap="round" stroke-linejoin="round" stroke-width="0.25"/>
              </g>
            </g>
          </g>
          <g id="Group_1176841" data-name="Group 1176841" transform="translate(6.573 33.091)">
            <g id="Group_1176840" data-name="Group 1176840">
              <g id="Group_1176839" data-name="Group 1176839" clip-path="url(#clip-path-6)">
                <path id="Path_988799" data-name="Path 988799" d="M791.207,755.864C761.935,740.672,736.248,717.5,722.043,688s-15.566-65.43-.693-94.522c14.391-28.149,45.743-48.245,77.254-44.9,21.466,2.28,40.316,14.311,59.927,23.177A229.215,229.215,0,0,0,941,591.554,221.256,221.256,0,0,0,979.1,590.23c15.505-1.9,32.464-6.546,40.648-19.985" transform="translate(-710.641 -548.079)" fill="none" stroke="#2142dc" stroke-linecap="round" stroke-linejoin="round" stroke-width="0.25"/>
              </g>
            </g>
          </g>
          <g id="Group_1176844" data-name="Group 1176844" transform="translate(12.989 35.13)">
            <g id="Group_1176843" data-name="Group 1176843">
              <g id="Group_1176842" data-name="Group 1176842" clip-path="url(#clip-path-7)">
                <path id="Path_988800" data-name="Path 988800" d="M793.116,755.081c-28.99-15.415-53.946-39.151-67.07-68.756s-12.839-64.922,2.538-93.275c14.353-26.463,44-45.619,74.111-42.686,20.508,2,38.537,13.234,57.366,21.29a220.925,220.925,0,0,0,80.411,17.358,207.874,207.874,0,0,0,36.849-2.232c14.929-2.268,31.1-7.195,38.866-20.4" transform="translate(-716.464 -549.929)" fill="none" stroke="#2142dc" stroke-linecap="round" stroke-linejoin="round" stroke-width="0.25"/>
              </g>
            </g>
          </g>
          <g id="Group_1176847" data-name="Group 1176847" transform="translate(19.234 37.164)">
            <g id="Group_1176846" data-name="Group 1176846">
              <g id="Group_1176845" data-name="Group 1176845" clip-path="url(#clip-path-8)">
                <path id="Path_988801" data-name="Path 988801" d="M795.04,754.3c-28.708-15.637-52.931-39.939-64.977-69.651s-10.136-64.4,5.771-92.027c14.271-24.787,42.263-42.994,70.968-40.473,19.551,1.717,36.765,12.149,54.805,19.4a212.973,212.973,0,0,0,78.356,14.919,194.824,194.824,0,0,0,35.591-3.138c14.353-2.637,29.73-7.845,37.083-20.81" transform="translate(-722.131 -551.775)" fill="none" stroke="#2142dc" stroke-linecap="round" stroke-linejoin="round" stroke-width="0.25"/>
              </g>
            </g>
          </g>
          <g id="Group_1176850" data-name="Group 1176850" transform="translate(25.307 39.194)">
            <g id="Group_1176849" data-name="Group 1176849">
              <g id="Group_1176848" data-name="Group 1176848" clip-path="url(#clip-path-9)">
                <path id="Path_988802" data-name="Path 988802" d="M796.981,753.514c-28.426-15.859-51.917-40.728-62.885-70.544a105.742,105.742,0,0,1,9-90.78c14.148-23.12,40.523-40.367,67.825-38.26,18.594,1.436,35,11.055,52.244,17.513a205.364,205.364,0,0,0,76.3,12.482,182.074,182.074,0,0,0,34.331-4.046c13.777-3,28.363-8.493,35.3-21.221" transform="translate(-727.642 -553.617)" fill="none" stroke="#2142dc" stroke-linecap="round" stroke-linejoin="round" stroke-width="0.25"/>
              </g>
            </g>
          </g>
          <g id="Group_1176853" data-name="Group 1176853" transform="translate(31.205 40.421)">
            <g id="Group_1176852" data-name="Group 1176852">
              <g id="Group_1176851" data-name="Group 1176851" clip-path="url(#clip-path-10)">
                <path id="Path_988803" data-name="Path 988803" d="M798.938,752.805c-28.144-16.082-50.9-41.516-60.791-71.438s-4.818-63.346,12.234-89.534c13.979-21.466,38.784-37.74,64.681-36.047,17.638,1.155,33.25,9.952,49.684,15.626,23.508,8.118,49.194,11.333,74.247,10.044a169.861,169.861,0,0,0,33.073-4.953c13.2-3.373,27-9.142,33.517-21.634" transform="translate(-732.994 -554.73)" fill="none" stroke="#2142dc" stroke-linecap="round" stroke-linejoin="round" stroke-width="0.25"/>
              </g>
            </g>
          </g>
          <g id="Group_1176856" data-name="Group 1176856" transform="translate(36.931 36.747)">
            <g id="Group_1176855" data-name="Group 1176855">
              <g id="Group_1176854" data-name="Group 1176854" clip-path="url(#clip-path-11)">
                <path id="Path_988804" data-name="Path 988804" d="M800.911,752.55c-27.862-16.3-49.889-42.3-58.7-72.333S740,617.4,757.679,591.931c13.763-19.831,37.044-35.113,61.537-33.834,16.68.873,31.506,8.834,47.124,13.738,22.951,7.206,47.973,9.579,72.193,7.606a158.066,158.066,0,0,0,31.813-5.86c12.624-3.742,25.628-9.792,31.735-22.047" transform="translate(-738.19 -551.396)" fill="none" stroke="#2142dc" stroke-linecap="round" stroke-linejoin="round" stroke-width="0.25"/>
              </g>
            </g>
          </g>
          <g id="Group_1176859" data-name="Group 1176859" transform="translate(42.491 33.072)">
            <g id="Group_1176858" data-name="Group 1176858">
              <g id="Group_1176857" data-name="Group 1176857" clip-path="url(#clip-path-12)">
                <path id="Path_988805" data-name="Path 988805" d="M802.9,752.295c-27.578-16.527-48.876-43.093-56.6-73.227s.356-62.294,18.7-87.039c13.5-18.214,35.3-32.487,58.394-31.62,15.724.592,29.771,7.7,44.563,11.849,22.408,6.281,46.752,7.826,70.138,5.168a146.855,146.855,0,0,0,30.555-6.768c12.047-4.11,24.261-10.44,29.952-22.459" transform="translate(-743.236 -548.061)" fill="none" stroke="#2142dc" stroke-linecap="round" stroke-linejoin="round" stroke-width="0.25"/>
              </g>
            </g>
          </g>
          <g id="Group_1176862" data-name="Group 1176862" transform="translate(47.895 29.397)">
            <g id="Group_1176861" data-name="Group 1176861">
              <g id="Group_1176860" data-name="Group 1176860" clip-path="url(#clip-path-13)">
                <path id="Path_988806" data-name="Path 988806" d="M804.9,752.04c-27.3-16.75-47.862-43.88-54.512-74.12s2.877-61.786,21.931-85.793c13.191-16.621,33.564-29.859,55.25-29.407,14.766.31,28.047,6.556,42,9.961a179.493,179.493,0,0,0,68.084,2.731,136.279,136.279,0,0,0,29.3-7.675c11.471-4.479,22.894-11.089,28.169-22.871" transform="translate(-748.14 -544.726)" fill="none" stroke="#2142dc" stroke-linecap="round" stroke-linejoin="round" stroke-width="0.25"/>
              </g>
            </g>
          </g>
          <g id="Group_1176865" data-name="Group 1176865" transform="translate(53.151 25.723)">
            <g id="Group_1176864" data-name="Group 1176864">
              <g id="Group_1176863" data-name="Group 1176863" clip-path="url(#clip-path-14)">
                <path id="Path_988807" data-name="Path 988807" d="M806.918,751.785c-27.014-16.971-46.848-44.67-52.42-75.015s5.348-61.3,25.163-84.545c12.837-15.056,31.824-27.233,52.108-27.195,13.808.029,26.332,5.39,39.441,8.074a174.571,174.571,0,0,0,66.028.292,126.371,126.371,0,0,0,28.037-8.582c10.895-4.849,21.527-11.739,26.386-23.284" transform="translate(-752.91 -541.392)" fill="none" stroke="#2142dc" stroke-linecap="round" stroke-linejoin="round" stroke-width="0.25"/>
              </g>
            </g>
          </g>
          <g id="Group_1176868" data-name="Group 1176868" transform="translate(58.272 22.048)">
            <g id="Group_1176867" data-name="Group 1176867">
              <g id="Group_1176866" data-name="Group 1176866" clip-path="url(#clip-path-15)">
                <path id="Path_988808" data-name="Path 988808" d="M808.946,751.528c-26.732-17.194-45.834-45.457-50.326-75.909s7.759-60.859,28.394-83.3c12.437-13.523,30.085-24.606,48.964-24.981,12.853-.253,24.625,4.2,36.881,6.185a170.435,170.435,0,0,0,63.973-2.146,117.08,117.08,0,0,0,26.778-9.49c10.319-5.217,20.159-12.387,24.6-23.7" transform="translate(-757.557 -538.057)" fill="none" stroke="#2142dc" stroke-linecap="round" stroke-linejoin="round" stroke-width="0.25"/>
              </g>
            </g>
          </g>
          <g id="Group_1176871" data-name="Group 1176871" transform="translate(63.267 18.373)">
            <g id="Group_1176870" data-name="Group 1176870">
              <g id="Group_1176869" data-name="Group 1176869" clip-path="url(#clip-path-16)">
                <path id="Path_988809" data-name="Path 988809" d="M810.987,751.273c-26.45-17.416-44.821-46.245-48.233-76.8s10.1-60.475,31.627-82.052c11.995-12.025,28.345-21.979,45.82-22.767,11.9-.534,22.925,2.985,34.32,4.3a167.421,167.421,0,0,0,61.919-4.583,108.509,108.509,0,0,0,25.519-10.4c9.742-5.586,18.791-13.036,22.821-24.108" transform="translate(-762.09 -534.722)" fill="none" stroke="#2142dc" stroke-linecap="round" stroke-linejoin="round" stroke-width="0.25"/>
              </g>
            </g>
          </g>
          <g id="Group_1176874" data-name="Group 1176874" transform="translate(68.147 14.699)">
            <g id="Group_1176873" data-name="Group 1176873">
              <g id="Group_1176872" data-name="Group 1176872" clip-path="url(#clip-path-17)">
                <path id="Path_988810" data-name="Path 988810" d="M813.038,751.018c-26.168-17.639-43.807-47.034-46.141-77.7s12.377-60.172,34.859-80.8c11.518-10.57,26.605-19.353,42.677-20.556,10.938-.815,21.228,1.743,31.759,2.41a165.814,165.814,0,0,0,59.865-7.022,100.772,100.772,0,0,0,24.259-11.3c9.166-5.955,17.425-13.686,21.038-24.521" transform="translate(-766.518 -531.388)" fill="none" stroke="#2142dc" stroke-linecap="round" stroke-linejoin="round" stroke-width="0.25"/>
              </g>
            </g>
          </g>
          <g id="Group_1176877" data-name="Group 1176877" transform="translate(72.915 11.024)">
            <g id="Group_1176876" data-name="Group 1176876">
              <g id="Group_1176875" data-name="Group 1176875" clip-path="url(#clip-path-18)">
                <path id="Path_988811" data-name="Path 988811" d="M815.1,750.763c-25.886-17.861-42.792-47.822-44.047-78.591s14.567-59.984,38.091-79.557c11.011-9.161,24.865-16.726,39.533-18.342,9.981-1.1,19.529.468,29.2.521,19.392.106,39.425-2.694,57.81-9.459a93.74,93.74,0,0,0,23-12.212c8.59-6.322,16.058-14.334,19.255-24.933" transform="translate(-770.845 -528.053)" fill="none" stroke="#2142dc" stroke-linecap="round" stroke-linejoin="round" stroke-width="0.25"/>
              </g>
            </g>
          </g>
          <g id="Group_1176880" data-name="Group 1176880" transform="translate(77.578 7.349)">
            <g id="Group_1176879" data-name="Group 1176879">
              <g id="Group_1176878" data-name="Group 1176878" clip-path="url(#clip-path-19)">
                <path id="Path_988812" data-name="Path 988812" d="M817.17,750.508c-25.6-18.084-41.778-48.611-41.954-79.484s16.667-59.957,41.323-78.311c10.485-7.8,23.127-14.1,36.39-16.128,9.025-1.379,17.822-.841,26.638-1.368,18.887-1.13,38.2-4.448,55.756-11.9A87.538,87.538,0,0,0,957.065,550.2c8.013-6.691,14.69-14.983,17.474-25.345" transform="translate(-775.077 -524.718)" fill="none" stroke="#2142dc" stroke-linecap="round" stroke-linejoin="round" stroke-width="0.25"/>
              </g>
            </g>
          </g>
          <g id="Group_1176883" data-name="Group 1176883" transform="translate(82.138 3.675)">
            <g id="Group_1176882" data-name="Group 1176882">
              <g id="Group_1176881" data-name="Group 1176881" clip-path="url(#clip-path-20)">
                <path id="Path_988813" data-name="Path 988813" d="M819.251,750.253c-25.321-18.306-40.764-49.4-39.861-80.379s18.675-60.144,44.555-77.062a97.338,97.338,0,0,1,33.246-13.917c8.067-1.66,16.1-2.181,24.078-3.255,18.346-2.468,36.983-6.2,53.7-14.335a82.068,82.068,0,0,0,20.483-14.025c7.437-7.06,13.323-15.633,15.691-25.758" transform="translate(-779.215 -521.384)" fill="none" stroke="#2142dc" stroke-linecap="round" stroke-linejoin="round" stroke-width="0.25"/>
              </g>
            </g>
          </g>
          <g id="Group_1176886" data-name="Group 1176886" transform="translate(86.593)">
            <g id="Group_1176885" data-name="Group 1176885">
              <g id="Group_1176884" data-name="Group 1176884" clip-path="url(#clip-path-21)">
                <path id="Path_988814" data-name="Path 988814" d="M821.342,750c-25.038-18.528-39.75-50.188-37.768-81.273s20.6-60.619,47.787-75.816c15.859-8.864,33.882-12.915,51.62-16.845s35.763-7.955,51.647-16.774,29.613-23.277,33.131-41.1" transform="translate(-783.258 -518.049)" fill="none" stroke="#2142dc" stroke-linecap="round" stroke-linejoin="round" stroke-width="0.25"/>
              </g>
            </g>
          </g>
        </g>
      </g>
      <g id="Group_1176941" data-name="Group 1176941" transform="translate(-277.259 -58.039)" opacity="0.5">
        <g id="Group_1176940" data-name="Group 1176940" clip-path="url(#clip-path-4)">
          <g id="Group_1176891" data-name="Group 1176891" transform="translate(0 31.05)">
            <g id="Group_1176890" data-name="Group 1176890">
              <g id="Group_1176889" data-name="Group 1176889" clip-path="url(#clip-path-5)">
                <path id="Path_988815" data-name="Path 988815" d="M789.312,756.648c-29.554-14.97-55.972-37.574-71.256-66.969s-18.316-65.927-3.926-95.768,47.483-50.872,80.4-47.113c22.422,2.561,42.1,15.382,62.488,25.066A237.9,237.9,0,0,0,980.9,593.682c16.082-1.531,33.832-5.9,42.43-19.573" transform="translate(-704.676 -546.226)" fill="none" stroke="#2142dc" stroke-linecap="round" stroke-linejoin="round" stroke-width="0.25"/>
              </g>
            </g>
          </g>
          <g id="Group_1176894" data-name="Group 1176894" transform="translate(6.573 33.091)">
            <g id="Group_1176893" data-name="Group 1176893">
              <g id="Group_1176892" data-name="Group 1176892" clip-path="url(#clip-path-6)">
                <path id="Path_988816" data-name="Path 988816" d="M791.207,755.864C761.935,740.672,736.248,717.5,722.043,688s-15.566-65.43-.693-94.522c14.391-28.149,45.743-48.245,77.254-44.9,21.466,2.28,40.316,14.311,59.927,23.177A229.215,229.215,0,0,0,941,591.554,221.256,221.256,0,0,0,979.1,590.23c15.505-1.9,32.464-6.546,40.648-19.985" transform="translate(-710.641 -548.079)" fill="none" stroke="#2142dc" stroke-linecap="round" stroke-linejoin="round" stroke-width="0.25"/>
              </g>
            </g>
          </g>
          <g id="Group_1176897" data-name="Group 1176897" transform="translate(12.989 35.13)">
            <g id="Group_1176896" data-name="Group 1176896">
              <g id="Group_1176895" data-name="Group 1176895" clip-path="url(#clip-path-7)">
                <path id="Path_988817" data-name="Path 988817" d="M793.116,755.081c-28.99-15.415-53.946-39.151-67.07-68.756s-12.839-64.922,2.538-93.275c14.353-26.463,44-45.619,74.111-42.686,20.508,2,38.537,13.234,57.366,21.29a220.925,220.925,0,0,0,80.411,17.358,207.874,207.874,0,0,0,36.849-2.232c14.929-2.268,31.1-7.195,38.866-20.4" transform="translate(-716.464 -549.929)" fill="none" stroke="#2142dc" stroke-linecap="round" stroke-linejoin="round" stroke-width="0.25"/>
              </g>
            </g>
          </g>
          <g id="Group_1176900" data-name="Group 1176900" transform="translate(19.234 37.164)">
            <g id="Group_1176899" data-name="Group 1176899">
              <g id="Group_1176898" data-name="Group 1176898" clip-path="url(#clip-path-8)">
                <path id="Path_988818" data-name="Path 988818" d="M795.04,754.3c-28.708-15.637-52.931-39.939-64.977-69.651s-10.136-64.4,5.771-92.027c14.271-24.787,42.263-42.994,70.968-40.473,19.551,1.717,36.765,12.149,54.805,19.4a212.973,212.973,0,0,0,78.356,14.919,194.824,194.824,0,0,0,35.591-3.138c14.353-2.637,29.73-7.845,37.083-20.81" transform="translate(-722.131 -551.775)" fill="none" stroke="#2142dc" stroke-linecap="round" stroke-linejoin="round" stroke-width="0.25"/>
              </g>
            </g>
          </g>
          <g id="Group_1176903" data-name="Group 1176903" transform="translate(25.307 39.194)">
            <g id="Group_1176902" data-name="Group 1176902">
              <g id="Group_1176901" data-name="Group 1176901" clip-path="url(#clip-path-9)">
                <path id="Path_988819" data-name="Path 988819" d="M796.981,753.514c-28.426-15.859-51.917-40.728-62.885-70.544a105.742,105.742,0,0,1,9-90.78c14.148-23.12,40.523-40.367,67.825-38.26,18.594,1.436,35,11.055,52.244,17.513a205.364,205.364,0,0,0,76.3,12.482,182.074,182.074,0,0,0,34.331-4.046c13.777-3,28.363-8.493,35.3-21.221" transform="translate(-727.642 -553.617)" fill="none" stroke="#2142dc" stroke-linecap="round" stroke-linejoin="round" stroke-width="0.25"/>
              </g>
            </g>
          </g>
          <g id="Group_1176906" data-name="Group 1176906" transform="translate(31.205 40.421)">
            <g id="Group_1176905" data-name="Group 1176905">
              <g id="Group_1176904" data-name="Group 1176904" clip-path="url(#clip-path-10)">
                <path id="Path_988820" data-name="Path 988820" d="M798.938,752.805c-28.144-16.082-50.9-41.516-60.791-71.438s-4.818-63.346,12.234-89.534c13.979-21.466,38.784-37.74,64.681-36.047,17.638,1.155,33.25,9.952,49.684,15.626,23.508,8.118,49.194,11.333,74.247,10.044a169.861,169.861,0,0,0,33.073-4.953c13.2-3.373,27-9.142,33.517-21.634" transform="translate(-732.994 -554.73)" fill="none" stroke="#2142dc" stroke-linecap="round" stroke-linejoin="round" stroke-width="0.25"/>
              </g>
            </g>
          </g>
          <g id="Group_1176909" data-name="Group 1176909" transform="translate(36.931 36.747)">
            <g id="Group_1176908" data-name="Group 1176908">
              <g id="Group_1176907" data-name="Group 1176907" clip-path="url(#clip-path-11)">
                <path id="Path_988821" data-name="Path 988821" d="M800.911,752.55c-27.862-16.3-49.889-42.3-58.7-72.333S740,617.4,757.679,591.931c13.763-19.831,37.044-35.113,61.537-33.834,16.68.873,31.506,8.834,47.124,13.738,22.951,7.206,47.973,9.579,72.193,7.606a158.066,158.066,0,0,0,31.813-5.86c12.624-3.742,25.628-9.792,31.735-22.047" transform="translate(-738.19 -551.396)" fill="none" stroke="#2142dc" stroke-linecap="round" stroke-linejoin="round" stroke-width="0.25"/>
              </g>
            </g>
          </g>
          <g id="Group_1176912" data-name="Group 1176912" transform="translate(42.491 33.072)">
            <g id="Group_1176911" data-name="Group 1176911">
              <g id="Group_1176910" data-name="Group 1176910" clip-path="url(#clip-path-12)">
                <path id="Path_988822" data-name="Path 988822" d="M802.9,752.295c-27.578-16.527-48.876-43.093-56.6-73.227s.356-62.294,18.7-87.039c13.5-18.214,35.3-32.487,58.394-31.62,15.724.592,29.771,7.7,44.563,11.849,22.408,6.281,46.752,7.826,70.138,5.168a146.855,146.855,0,0,0,30.555-6.768c12.047-4.11,24.261-10.44,29.952-22.459" transform="translate(-743.236 -548.061)" fill="none" stroke="#2142dc" stroke-linecap="round" stroke-linejoin="round" stroke-width="0.25"/>
              </g>
            </g>
          </g>
          <g id="Group_1176915" data-name="Group 1176915" transform="translate(47.895 29.397)">
            <g id="Group_1176914" data-name="Group 1176914">
              <g id="Group_1176913" data-name="Group 1176913" clip-path="url(#clip-path-13)">
                <path id="Path_988823" data-name="Path 988823" d="M804.9,752.04c-27.3-16.75-47.862-43.88-54.512-74.12s2.877-61.786,21.931-85.793c13.191-16.621,33.564-29.859,55.25-29.407,14.766.31,28.047,6.556,42,9.961a179.493,179.493,0,0,0,68.084,2.731,136.279,136.279,0,0,0,29.3-7.675c11.471-4.479,22.894-11.089,28.169-22.871" transform="translate(-748.14 -544.726)" fill="none" stroke="#2142dc" stroke-linecap="round" stroke-linejoin="round" stroke-width="0.25"/>
              </g>
            </g>
          </g>
          <g id="Group_1176918" data-name="Group 1176918" transform="translate(53.151 25.723)">
            <g id="Group_1176917" data-name="Group 1176917">
              <g id="Group_1176916" data-name="Group 1176916" clip-path="url(#clip-path-14)">
                <path id="Path_988824" data-name="Path 988824" d="M806.918,751.785c-27.014-16.971-46.848-44.67-52.42-75.015s5.348-61.3,25.163-84.545c12.837-15.056,31.824-27.233,52.108-27.195,13.808.029,26.332,5.39,39.441,8.074a174.571,174.571,0,0,0,66.028.292,126.371,126.371,0,0,0,28.037-8.582c10.895-4.849,21.527-11.739,26.386-23.284" transform="translate(-752.91 -541.392)" fill="none" stroke="#2142dc" stroke-linecap="round" stroke-linejoin="round" stroke-width="0.25"/>
              </g>
            </g>
          </g>
          <g id="Group_1176921" data-name="Group 1176921" transform="translate(58.272 22.048)">
            <g id="Group_1176920" data-name="Group 1176920">
              <g id="Group_1176919" data-name="Group 1176919" clip-path="url(#clip-path-15)">
                <path id="Path_988825" data-name="Path 988825" d="M808.946,751.528c-26.732-17.194-45.834-45.457-50.326-75.909s7.759-60.859,28.394-83.3c12.437-13.523,30.085-24.606,48.964-24.981,12.853-.253,24.625,4.2,36.881,6.185a170.435,170.435,0,0,0,63.973-2.146,117.08,117.08,0,0,0,26.778-9.49c10.319-5.217,20.159-12.387,24.6-23.7" transform="translate(-757.557 -538.057)" fill="none" stroke="#2142dc" stroke-linecap="round" stroke-linejoin="round" stroke-width="0.25"/>
              </g>
            </g>
          </g>
          <g id="Group_1176924" data-name="Group 1176924" transform="translate(63.267 18.373)">
            <g id="Group_1176923" data-name="Group 1176923">
              <g id="Group_1176922" data-name="Group 1176922" clip-path="url(#clip-path-16)">
                <path id="Path_988826" data-name="Path 988826" d="M810.987,751.273c-26.45-17.416-44.821-46.245-48.233-76.8s10.1-60.475,31.627-82.052c11.995-12.025,28.345-21.979,45.82-22.767,11.9-.534,22.925,2.985,34.32,4.3a167.421,167.421,0,0,0,61.919-4.583,108.509,108.509,0,0,0,25.519-10.4c9.742-5.586,18.791-13.036,22.821-24.108" transform="translate(-762.09 -534.722)" fill="none" stroke="#2142dc" stroke-linecap="round" stroke-linejoin="round" stroke-width="0.25"/>
              </g>
            </g>
          </g>
          <g id="Group_1176927" data-name="Group 1176927" transform="translate(68.147 14.699)">
            <g id="Group_1176926" data-name="Group 1176926">
              <g id="Group_1176925" data-name="Group 1176925" clip-path="url(#clip-path-17)">
                <path id="Path_988827" data-name="Path 988827" d="M813.038,751.018c-26.168-17.639-43.807-47.034-46.141-77.7s12.377-60.172,34.859-80.8c11.518-10.57,26.605-19.353,42.677-20.556,10.938-.815,21.228,1.743,31.759,2.41a165.814,165.814,0,0,0,59.865-7.022,100.772,100.772,0,0,0,24.259-11.3c9.166-5.955,17.425-13.686,21.038-24.521" transform="translate(-766.518 -531.388)" fill="none" stroke="#2142dc" stroke-linecap="round" stroke-linejoin="round" stroke-width="0.25"/>
              </g>
            </g>
          </g>
          <g id="Group_1176930" data-name="Group 1176930" transform="translate(72.915 11.024)">
            <g id="Group_1176929" data-name="Group 1176929">
              <g id="Group_1176928" data-name="Group 1176928" clip-path="url(#clip-path-18)">
                <path id="Path_988828" data-name="Path 988828" d="M815.1,750.763c-25.886-17.861-42.792-47.822-44.047-78.591s14.567-59.984,38.091-79.557c11.011-9.161,24.865-16.726,39.533-18.342,9.981-1.1,19.529.468,29.2.521,19.392.106,39.425-2.694,57.81-9.459a93.74,93.74,0,0,0,23-12.212c8.59-6.322,16.058-14.334,19.255-24.933" transform="translate(-770.845 -528.053)" fill="none" stroke="#2142dc" stroke-linecap="round" stroke-linejoin="round" stroke-width="0.25"/>
              </g>
            </g>
          </g>
          <g id="Group_1176933" data-name="Group 1176933" transform="translate(77.578 7.349)">
            <g id="Group_1176932" data-name="Group 1176932">
              <g id="Group_1176931" data-name="Group 1176931" clip-path="url(#clip-path-19)">
                <path id="Path_988829" data-name="Path 988829" d="M817.17,750.508c-25.6-18.084-41.778-48.611-41.954-79.484s16.667-59.957,41.323-78.311c10.485-7.8,23.127-14.1,36.39-16.128,9.025-1.379,17.822-.841,26.638-1.368,18.887-1.13,38.2-4.448,55.756-11.9A87.538,87.538,0,0,0,957.065,550.2c8.013-6.691,14.69-14.983,17.474-25.345" transform="translate(-775.077 -524.718)" fill="none" stroke="#2142dc" stroke-linecap="round" stroke-linejoin="round" stroke-width="0.25"/>
              </g>
            </g>
          </g>
          <g id="Group_1176936" data-name="Group 1176936" transform="translate(82.138 3.675)">
            <g id="Group_1176935" data-name="Group 1176935">
              <g id="Group_1176934" data-name="Group 1176934" clip-path="url(#clip-path-20)">
                <path id="Path_988830" data-name="Path 988830" d="M819.251,750.253c-25.321-18.306-40.764-49.4-39.861-80.379s18.675-60.144,44.555-77.062a97.338,97.338,0,0,1,33.246-13.917c8.067-1.66,16.1-2.181,24.078-3.255,18.346-2.468,36.983-6.2,53.7-14.335a82.068,82.068,0,0,0,20.483-14.025c7.437-7.06,13.323-15.633,15.691-25.758" transform="translate(-779.215 -521.384)" fill="none" stroke="#2142dc" stroke-linecap="round" stroke-linejoin="round" stroke-width="0.25"/>
              </g>
            </g>
          </g>
          <g id="Group_1176939" data-name="Group 1176939" transform="translate(86.593)">
            <g id="Group_1176938" data-name="Group 1176938">
              <g id="Group_1176937" data-name="Group 1176937" clip-path="url(#clip-path-21)">
                <path id="Path_988831" data-name="Path 988831" d="M821.342,750c-25.038-18.528-39.75-50.188-37.768-81.273s20.6-60.619,47.787-75.816c15.859-8.864,33.882-12.915,51.62-16.845s35.763-7.955,51.647-16.774,29.613-23.277,33.131-41.1" transform="translate(-783.258 -518.049)" fill="none" stroke="#2142dc" stroke-linecap="round" stroke-linejoin="round" stroke-width="0.25"/>
              </g>
            </g>
          </g>
        </g>
      </g>
      <g id="Group_1176950" data-name="Group 1176950" transform="translate(294.122 -130.338)" style="isolation: isolate">
        <g id="Group_1176949" data-name="Group 1176949">
          <g id="Group_1176948" data-name="Group 1176948" transform="translate(-1 -5)" clip-path="url(#clip-path-40)">
            <g id="Group_1176944" data-name="Group 1176944" style="isolation: isolate">
              <g id="Group_1176943" data-name="Group 1176943">
                <g id="Group_1176942" data-name="Group 1176942" clip-path="url(#clip-path-41)">
                  <path id="Path_988832" data-name="Path 988832" d="M797.271,347.3A124.421,124.421,0,1,1,973.416,344.4,124.078,124.078,0,0,1,797.271,347.3Z" transform="translate(-758.841 -133.224)" fill="none" stroke="#c9cff6" stroke-linecap="round" stroke-linejoin="round" stroke-width="0.75"/>
                </g>
              </g>
            </g>
            <g id="Group_1176947" data-name="Group 1176947" transform="translate(11.235 179.996)" style="isolation: isolate">
              <g id="Group_1176946" data-name="Group 1176946">
                <g id="Group_1176945" data-name="Group 1176945" clip-path="url(#clip-path-42)">
                  <path id="Path_988833" data-name="Path 988833" d="M769.346,284.233a5.078,5.078,0,1,1,7.189-.119,5.064,5.064,0,0,1-7.189.119" transform="translate(-767.797 -275.515)" fill="#a8b8ff"/>
                </g>
              </g>
            </g>
          </g>
        </g>
      </g>
    </g>
  </g>
</svg>
